<?xml version="1.0" encoding="UTF-8" standalone="no"?>
<!DOCTYPE svg PUBLIC "-//W3C//DTD SVG 1.1//EN"
 "http://www.w3.org/Graphics/SVG/1.1/DTD/svg11.dtd">
<!-- Generated by graphviz version 8.1.0 (20230707.0739)
 -->
<!-- Title: AnkleIMU.cpp Pages: 1 -->
<svg width="348pt" height="196pt"
 viewBox="0.00 0.00 348.13 196.00" xmlns="http://www.w3.org/2000/svg" xmlns:xlink="http://www.w3.org/1999/xlink">

<svg id="main" version="1.1" xmlns="http://www.w3.org/2000/svg" xmlns:xlink="http://www.w3.org/1999/xlink" xml:space="preserve" onload="init(evt)">
<style type="text/css"><![CDATA[
.node, .edge {opacity: 0.7;}
.node.selected, .edge.selected {opacity: 1;}
.edge:hover path { stroke: red; }
.edge:hover polygon { stroke: red; fill: red; }
]]></style>
<script type="application/ecmascript" xlink:href="svg.min.js"/>
<svg id="graph" class="graph">
<g id="graph0" class="graph" transform="scale(1 1) rotate(0) translate(4 192)">
<title>AnkleIMU.cpp</title>
<!-- Node1 -->
<g id="Node000001" class="node">
<title>Node1</title>
<g id="a_Node000001"><a xlink:title=" ">
<polygon fill="#999999" stroke="#666666" points="203,-188 126.25,-188 126.25,-168 203,-168 203,-188"/>
<text text-anchor="middle" x="164.63" y="-174.5" font-family="Helvetica,sans-Serif" font-size="10.00">AnkleIMU.cpp</text>
</a>
</g>
</g>
<!-- Node2 -->
<g id="Node000002" class="node">
<title>Node2</title>
<g id="a_Node000002"><a xlink:href="_ankle_i_m_u_8h.html" target="_top" xlink:title=" ">
<polygon fill="white" stroke="#666666" points="91.75,-132 25.5,-132 25.5,-112 91.75,-112 91.75,-132"/>
<text text-anchor="middle" x="58.63" y="-118.5" font-family="Helvetica,sans-Serif" font-size="10.00">AnkleIMU.h</text>
</a>
</g>
</g>
<!-- Node1&#45;&gt;Node2 -->
<g id="edge1_Node000001_Node000002" class="edge">
<title>Node1&#45;&gt;Node2</title>
<g id="a_edge1_Node000001_Node000002"><a xlink:title=" ">
<path fill="none" stroke="#63b8ff" d="M146.16,-167.59C129.85,-159.28 105.8,-147.03 87.03,-137.47"/>
<polygon fill="#63b8ff" stroke="#63b8ff" points="88.73,-133.9 78.23,-132.48 85.55,-140.14 88.73,-133.9"/>
</a>
</g>
</g>
<!-- Node4 -->
<g id="Node000004" class="node">
<title>Node4</title>
<g id="a_Node000004"><a xlink:title=" ">
<polygon fill="#e0e0e0" stroke="#999999" points="241.25,-20 184,-20 184,0 241.25,0 241.25,-20"/>
<text text-anchor="middle" x="212.63" y="-6.5" font-family="Helvetica,sans-Serif" font-size="10.00">Arduino.h</text>
</a>
</g>
</g>
<!-- Node1&#45;&gt;Node4 -->
<g id="edge3_Node000001_Node000004" class="edge">
<title>Node1&#45;&gt;Node4</title>
<g id="a_edge3_Node000001_Node000004"><a xlink:title=" ">
<path fill="none" stroke="#63b8ff" d="M158.73,-167.71C151.46,-155.07 140.74,-131.75 146.63,-112 156.33,-79.39 180.29,-47.51 196.51,-28.55"/>
<polygon fill="#63b8ff" stroke="#63b8ff" points="198.76,-31.15 202.75,-21.34 193.51,-26.52 198.76,-31.15"/>
</a>
</g>
</g>
<!-- Node5 -->
<g id="Node000005" class="node">
<title>Node5</title>
<g id="a_Node000005"><a xlink:title=" ">
<polygon fill="#e0e0e0" stroke="#999999" points="249.25,-132 156,-132 156,-112 249.25,-112 249.25,-132"/>
<text text-anchor="middle" x="202.63" y="-118.5" font-family="Helvetica,sans-Serif" font-size="10.00">utility/imumaths.h</text>
</a>
</g>
</g>
<!-- Node1&#45;&gt;Node5 -->
<g id="edge4_Node000001_Node000005" class="edge">
<title>Node1&#45;&gt;Node5</title>
<g id="a_edge4_Node000001_Node000005"><a xlink:title=" ">
<path fill="none" stroke="#63b8ff" d="M171.24,-167.59C176.37,-160.32 183.61,-150.02 189.85,-141.15"/>
<polygon fill="#63b8ff" stroke="#63b8ff" points="193.19,-143.49 196.08,-133.3 187.46,-139.46 193.19,-143.49"/>
</a>
</g>
</g>
<!-- Node6 -->
<g id="Node000006" class="node">
<title>Node6</title>
<g id="a_Node000006"><a xlink:href="_logger_8h.html" target="_top" xlink:title=" ">
<polygon fill="white" stroke="#666666" points="320.38,-132 266.88,-132 266.88,-112 320.38,-112 320.38,-132"/>
<text text-anchor="middle" x="293.63" y="-118.5" font-family="Helvetica,sans-Serif" font-size="10.00">Logger.h</text>
</a>
</g>
</g>
<!-- Node1&#45;&gt;Node6 -->
<g id="edge5_Node000001_Node000006" class="edge">
<title>Node1&#45;&gt;Node6</title>
<g id="a_edge5_Node000001_Node000006"><a xlink:title=" ">
<path fill="none" stroke="#63b8ff" d="M187.1,-167.59C207.5,-159.05 237.85,-146.35 260.94,-136.68"/>
<polygon fill="#63b8ff" stroke="#63b8ff" points="262.11,-139.57 269.98,-132.48 259.4,-133.11 262.11,-139.57"/>
</a>
</g>
</g>
<!-- Node3 -->
<g id="Node000003" class="node">
<title>Node3</title>
<g id="a_Node000003"><a xlink:title=" ">
<polygon fill="#e0e0e0" stroke="#999999" points="99.25,-76 0,-76 0,-56 99.25,-56 99.25,-76"/>
<text text-anchor="middle" x="49.63" y="-62.5" font-family="Helvetica,sans-Serif" font-size="10.00">Adafruit_BNO055.h</text>
</a>
</g>
</g>
<!-- Node2&#45;&gt;Node3 -->
<g id="edge2_Node000002_Node000003" class="edge">
<title>Node2&#45;&gt;Node3</title>
<g id="a_edge2_Node000002_Node000003"><a xlink:title=" ">
<path fill="none" stroke="#63b8ff" d="M57.06,-111.59C55.92,-104.78 54.34,-95.32 52.94,-86.86"/>
<polygon fill="#63b8ff" stroke="#63b8ff" points="56.27,-86.59 51.17,-77.3 49.37,-87.74 56.27,-86.59"/>
</a>
</g>
</g>
<!-- Node6&#45;&gt;Node4 -->
<g id="edge6_Node000006_Node000004" class="edge">
<title>Node6&#45;&gt;Node4</title>
<g id="a_edge6_Node000006_Node000004"><a xlink:title=" ">
<path fill="none" stroke="#63b8ff" d="M274.45,-111.53C260.64,-103.77 242.58,-91.55 231.63,-76 222.2,-62.62 217.41,-44.57 214.99,-30.88"/>
<polygon fill="#63b8ff" stroke="#63b8ff" points="218.34,-30.6 213.43,-21.21 211.42,-31.61 218.34,-30.6"/>
</a>
</g>
</g>
<!-- Node7 -->
<g id="Node000007" class="node">
<title>Node7</title>
<g id="a_Node000007"><a xlink:href="_log_levels_8h.html" target="_top" xlink:title=" ">
<polygon fill="white" stroke="#666666" points="340.13,-20 273.13,-20 273.13,0 340.13,0 340.13,-20"/>
<text text-anchor="middle" x="306.63" y="-6.5" font-family="Helvetica,sans-Serif" font-size="10.00">LogLevels.h</text>
</a>
</g>
</g>
<!-- Node6&#45;&gt;Node7 -->
<g id="edge7_Node000006_Node000007" class="edge">
<title>Node6&#45;&gt;Node7</title>
<g id="a_edge7_Node000006_Node000007"><a xlink:title=" ">
<path fill="none" stroke="#63b8ff" d="M295.55,-111.73C297.37,-102.66 300.05,-88.44 301.63,-76 303.53,-61.02 304.8,-44.01 305.59,-31.15"/>
<polygon fill="#63b8ff" stroke="#63b8ff" points="309.14,-31.47 306.2,-21.29 302.15,-31.07 309.14,-31.47"/>
</a>
</g>
</g>
<!-- Node8 -->
<g id="Node000008" class="node">
<title>Node8</title>
<g id="a_Node000008"><a xlink:href="_config_8h.html" target="_top" xlink:title="Configuration variables for the codebase.">
<polygon fill="white" stroke="#666666" points="292.25,-76 241,-76 241,-56 292.25,-56 292.25,-76"/>
<text text-anchor="middle" x="266.63" y="-62.5" font-family="Helvetica,sans-Serif" font-size="10.00">Config.h</text>
</a>
</g>
</g>
<!-- Node6&#45;&gt;Node8 -->
<g id="edge8_Node000006_Node000008" class="edge">
<title>Node6&#45;&gt;Node8</title>
<g id="a_edge8_Node000006_Node000008"><a xlink:title=" ">
<path fill="none" stroke="#63b8ff" d="M288.92,-111.59C285.4,-104.55 280.46,-94.67 276.13,-86"/>
<polygon fill="#63b8ff" stroke="#63b8ff" points="278.88,-84.68 271.27,-77.3 272.62,-87.81 278.88,-84.68"/>
</a>
</g>
</g>
<!-- Node8&#45;&gt;Node4 -->
<g id="edge9_Node000008_Node000004" class="edge">
<title>Node8&#45;&gt;Node4</title>
<g id="a_edge9_Node000008_Node000004"><a xlink:title=" ">
<path fill="none" stroke="#63b8ff" d="M257.22,-55.59C249.63,-48.01 238.76,-37.13 229.65,-28.02"/>
<polygon fill="#63b8ff" stroke="#63b8ff" points="232.47,-25.89 222.92,-21.3 227.52,-30.84 232.47,-25.89"/>
</a>
</g>
</g>
<!-- Node8&#45;&gt;Node7 -->
<g id="edge10_Node000008_Node000007" class="edge">
<title>Node8&#45;&gt;Node7</title>
<g id="a_edge10_Node000008_Node000007"><a xlink:title=" ">
<path fill="none" stroke="#63b8ff" d="M273.59,-55.59C279.04,-48.24 286.78,-37.8 293.39,-28.87"/>
<polygon fill="#63b8ff" stroke="#63b8ff" points="296.6,-31.42 299.74,-21.3 290.97,-27.25 296.6,-31.42"/>
</a>
</g>
</g>
</g>
</svg>
</svg>

<style type='text/css'>
<![CDATA[
[data-mouse-over-selected='false'] { opacity: 0.7; }
[data-mouse-over-selected='true']  { opacity: 1.0; }
]]>
</style>
<script type="application/ecmascript"><![CDATA[
document.addEventListener('DOMContentLoaded', (event) => {
  highlightEdges();
  highlightAdjacentNodes();
});
]]></script>
</svg>
