<?xml version="1.0" encoding="UTF-8" standalone="no"?>
<!DOCTYPE svg PUBLIC "-//W3C//DTD SVG 1.1//EN"
 "http://www.w3.org/Graphics/SVG/1.1/DTD/svg11.dtd">
<!-- Generated by graphviz version 8.1.0 (20230707.0739)
 -->
<!-- Title: Battery.cpp Pages: 1 -->
<svg width="252pt" height="196pt"
 viewBox="0.00 0.00 251.50 196.00" xmlns="http://www.w3.org/2000/svg" xmlns:xlink="http://www.w3.org/1999/xlink">
<g id="graph0" class="graph" transform="scale(1 1) rotate(0) translate(4 192)">
<title>Battery.cpp</title>
<!-- Node1 -->
<g id="Node000001" class="node">
<title>Node1</title>
<g id="a_Node000001"><a xlink:title=" ">
<polygon fill="#999999" stroke="#666666" points="157.88,-188 91.63,-188 91.63,-168 157.88,-168 157.88,-188"/>
<text text-anchor="middle" x="124.75" y="-174.5" font-family="Helvetica,sans-Serif" font-size="10.00">Battery.cpp</text>
</a>
</g>
</g>
<!-- Node2 -->
<g id="Node000002" class="node">
<title>Node2</title>
<g id="a_Node000002"><a xlink:href="_battery_8h.html" target="_top" xlink:title="Defines the battery interface and implements the child battery classes.">
<polygon fill="white" stroke="#666666" points="67.63,-132 11.88,-132 11.88,-112 67.63,-112 67.63,-132"/>
<text text-anchor="middle" x="39.75" y="-118.5" font-family="Helvetica,sans-Serif" font-size="10.00">Battery.h</text>
</a>
</g>
</g>
<!-- Node1&#45;&gt;Node2 -->
<g id="edge1_Node000001_Node000002" class="edge">
<title>Node1&#45;&gt;Node2</title>
<g id="a_edge1_Node000001_Node000002"><a xlink:title=" ">
<path fill="none" stroke="#63b8ff" d="M109.94,-167.59C97.22,-159.51 78.64,-147.71 63.79,-138.27"/>
<polygon fill="#63b8ff" stroke="#63b8ff" points="65.99,-134.89 55.67,-132.48 62.24,-140.8 65.99,-134.89"/>
</a>
</g>
</g>
<!-- Node4 -->
<g id="Node000004" class="node">
<title>Node4</title>
<g id="a_Node000004"><a xlink:title=" ">
<polygon fill="#e0e0e0" stroke="#999999" points="150.38,-20 93.13,-20 93.13,0 150.38,0 150.38,-20"/>
<text text-anchor="middle" x="121.75" y="-6.5" font-family="Helvetica,sans-Serif" font-size="10.00">Arduino.h</text>
</a>
</g>
</g>
<!-- Node1&#45;&gt;Node4 -->
<g id="edge4_Node000001_Node000004" class="edge">
<title>Node1&#45;&gt;Node4</title>
<g id="a_edge4_Node000001_Node000004"><a xlink:title=" ">
<path fill="none" stroke="#63b8ff" d="M123.15,-167.73C121.67,-158.65 119.57,-144.43 118.75,-132 116.4,-96.65 118.45,-55.37 120.12,-31.32"/>
<polygon fill="#63b8ff" stroke="#63b8ff" points="123.68,-31.66 120.93,-21.43 116.7,-31.14 123.68,-31.66"/>
</a>
</g>
</g>
<!-- Node5 -->
<g id="Node000005" class="node">
<title>Node5</title>
<g id="a_Node000005"><a xlink:title=" ">
<polygon fill="#e0e0e0" stroke="#999999" points="172,-132 127.5,-132 127.5,-112 172,-112 172,-132"/>
<text text-anchor="middle" x="149.75" y="-118.5" font-family="Helvetica,sans-Serif" font-size="10.00">Wire.h</text>
</a>
</g>
</g>
<!-- Node1&#45;&gt;Node5 -->
<g id="edge5_Node000001_Node000005" class="edge">
<title>Node1&#45;&gt;Node5</title>
<g id="a_edge5_Node000001_Node000005"><a xlink:title=" ">
<path fill="none" stroke="#63b8ff" d="M129.1,-167.59C132.37,-160.55 136.94,-150.67 140.95,-142"/>
<polygon fill="#63b8ff" stroke="#63b8ff" points="144.42,-143.84 145.45,-133.3 138.07,-140.9 144.42,-143.84"/>
</a>
</g>
</g>
<!-- Node6 -->
<g id="Node000006" class="node">
<title>Node6</title>
<g id="a_Node000006"><a xlink:href="_logger_8h.html" target="_top" xlink:title=" ">
<polygon fill="white" stroke="#666666" points="243.5,-132 190,-132 190,-112 243.5,-112 243.5,-132"/>
<text text-anchor="middle" x="216.75" y="-118.5" font-family="Helvetica,sans-Serif" font-size="10.00">Logger.h</text>
</a>
</g>
</g>
<!-- Node1&#45;&gt;Node6 -->
<g id="edge6_Node000001_Node000006" class="edge">
<title>Node1&#45;&gt;Node6</title>
<g id="a_edge6_Node000001_Node000006"><a xlink:title=" ">
<path fill="none" stroke="#63b8ff" d="M140.78,-167.59C154.67,-159.44 175.04,-147.48 191.19,-138"/>
<polygon fill="#63b8ff" stroke="#63b8ff" points="192.75,-140.56 199.6,-132.48 189.2,-134.52 192.75,-140.56"/>
</a>
</g>
</g>
<!-- Node3 -->
<g id="Node000003" class="node">
<title>Node3</title>
<g id="a_Node000003"><a xlink:href="_i2_c_handler_8h.html" target="_top" xlink:title="This file defines the I2CHandler which is using the singleton pattern. To use you must first get a re...">
<polygon fill="white" stroke="#666666" points="71.5,-76 0,-76 0,-56 71.5,-56 71.5,-76"/>
<text text-anchor="middle" x="35.75" y="-62.5" font-family="Helvetica,sans-Serif" font-size="10.00">I2CHandler.h</text>
</a>
</g>
</g>
<!-- Node2&#45;&gt;Node3 -->
<g id="edge2_Node000002_Node000003" class="edge">
<title>Node2&#45;&gt;Node3</title>
<g id="a_edge2_Node000002_Node000003"><a xlink:title=" ">
<path fill="none" stroke="#63b8ff" d="M39.05,-111.59C38.55,-104.86 37.86,-95.53 37.24,-87.15"/>
<polygon fill="#63b8ff" stroke="#63b8ff" points="40.67,-87.01 36.44,-77.3 33.69,-87.53 40.67,-87.01"/>
</a>
</g>
</g>
<!-- Node3&#45;&gt;Node4 -->
<g id="edge3_Node000003_Node000004" class="edge">
<title>Node3&#45;&gt;Node4</title>
<g id="a_edge3_Node000003_Node000004"><a xlink:title=" ">
<path fill="none" stroke="#63b8ff" d="M50.73,-55.59C63.6,-47.51 82.4,-35.71 97.42,-26.27"/>
<polygon fill="#63b8ff" stroke="#63b8ff" points="99.05,-28.76 105.65,-20.48 95.32,-22.83 99.05,-28.76"/>
</a>
</g>
</g>
<!-- Node6&#45;&gt;Node4 -->
<g id="edge7_Node000006_Node000004" class="edge">
<title>Node6&#45;&gt;Node4</title>
<g id="a_edge7_Node000006_Node000004"><a xlink:title=" ">
<path fill="none" stroke="#63b8ff" d="M200.44,-111.53C187.41,-103.36 169.32,-90.61 156.75,-76 144.88,-62.2 135.4,-43.71 129.32,-29.97"/>
<polygon fill="#63b8ff" stroke="#63b8ff" points="132.3,-29.02 125.19,-21.16 125.85,-31.74 132.3,-29.02"/>
</a>
</g>
</g>
<!-- Node7 -->
<g id="Node000007" class="node">
<title>Node7</title>
<g id="a_Node000007"><a xlink:href="_log_levels_8h.html" target="_top" xlink:title=" ">
<polygon fill="white" stroke="#666666" points="241.25,-20 174.25,-20 174.25,0 241.25,0 241.25,-20"/>
<text text-anchor="middle" x="207.75" y="-6.5" font-family="Helvetica,sans-Serif" font-size="10.00">LogLevels.h</text>
</a>
</g>
</g>
<!-- Node6&#45;&gt;Node7 -->
<g id="edge8_Node000006_Node000007" class="edge">
<title>Node6&#45;&gt;Node7</title>
<g id="a_edge8_Node000006_Node000007"><a xlink:title=" ">
<path fill="none" stroke="#63b8ff" d="M220.24,-111.69C224.52,-99.03 230.74,-75.7 226.75,-56 224.97,-47.19 221.4,-37.95 217.83,-30.16"/>
<polygon fill="#63b8ff" stroke="#63b8ff" points="220.54,-28.73 212.98,-21.3 214.26,-31.82 220.54,-28.73"/>
</a>
</g>
</g>
<!-- Node8 -->
<g id="Node000008" class="node">
<title>Node8</title>
<g id="a_Node000008"><a xlink:href="_config_8h.html" target="_top" xlink:title="Configuration variables for the codebase.">
<polygon fill="white" stroke="#666666" points="217.38,-76 166.13,-76 166.13,-56 217.38,-56 217.38,-76"/>
<text text-anchor="middle" x="191.75" y="-62.5" font-family="Helvetica,sans-Serif" font-size="10.00">Config.h</text>
</a>
</g>
</g>
<!-- Node6&#45;&gt;Node8 -->
<g id="edge9_Node000006_Node000008" class="edge">
<title>Node6&#45;&gt;Node8</title>
<g id="a_edge9_Node000006_Node000008"><a xlink:title=" ">
<path fill="none" stroke="#63b8ff" d="M212.4,-111.59C209.13,-104.55 204.56,-94.67 200.55,-86"/>
<polygon fill="#63b8ff" stroke="#63b8ff" points="203.43,-84.9 196.05,-77.3 197.08,-87.84 203.43,-84.9"/>
</a>
</g>
</g>
<!-- Node8&#45;&gt;Node4 -->
<g id="edge10_Node000008_Node000004" class="edge">
<title>Node8&#45;&gt;Node4</title>
<g id="a_edge10_Node000008_Node000004"><a xlink:title=" ">
<path fill="none" stroke="#63b8ff" d="M179.56,-55.59C169.32,-47.7 154.47,-36.24 142.38,-26.92"/>
<polygon fill="#63b8ff" stroke="#63b8ff" points="144.86,-23.64 134.8,-20.3 140.58,-29.18 144.86,-23.64"/>
</a>
</g>
</g>
<!-- Node8&#45;&gt;Node7 -->
<g id="edge11_Node000008_Node000007" class="edge">
<title>Node8&#45;&gt;Node7</title>
<g id="a_edge11_Node000008_Node000007"><a xlink:title=" ">
<path fill="none" stroke="#63b8ff" d="M194.54,-55.59C196.58,-48.7 199.42,-39.1 201.95,-30.57"/>
<polygon fill="#63b8ff" stroke="#63b8ff" points="205.51,-31.88 204.99,-21.3 198.8,-29.89 205.51,-31.88"/>
</a>
</g>
</g>
</g>
</svg>
