<?xml version="1.0" encoding="UTF-8" standalone="no"?>
<!DOCTYPE svg PUBLIC "-//W3C//DTD SVG 1.1//EN"
 "http://www.w3.org/Graphics/SVG/1.1/DTD/svg11.dtd">
<!-- Generated by graphviz version 8.1.0 (20230707.0739)
 -->
<!-- Title: Battery.h Pages: 1 -->
<svg width="80pt" height="140pt"
 viewBox="0.00 0.00 79.50 140.00" xmlns="http://www.w3.org/2000/svg" xmlns:xlink="http://www.w3.org/1999/xlink">
<g id="graph0" class="graph" transform="scale(1 1) rotate(0) translate(4 136)">
<title>Battery.h</title>
<!-- Node1 -->
<g id="Node000001" class="node">
<title>Node1</title>
<g id="a_Node000001"><a xlink:title="Defines the battery interface and implements the child battery classes.">
<polygon fill="#999999" stroke="#666666" points="63.63,-132 7.88,-132 7.88,-112 63.63,-112 63.63,-132"/>
<text text-anchor="middle" x="35.75" y="-118.5" font-family="Helvetica,sans-Serif" font-size="10.00">Battery.h</text>
</a>
</g>
</g>
<!-- Node2 -->
<g id="Node000002" class="node">
<title>Node2</title>
<g id="a_Node000002"><a xlink:href="_i2_c_handler_8h.html" target="_top" xlink:title="This file defines the I2CHandler which is using the singleton pattern. To use you must first get a re...">
<polygon fill="white" stroke="#666666" points="71.5,-76 0,-76 0,-56 71.5,-56 71.5,-76"/>
<text text-anchor="middle" x="35.75" y="-62.5" font-family="Helvetica,sans-Serif" font-size="10.00">I2CHandler.h</text>
</a>
</g>
</g>
<!-- Node1&#45;&gt;Node2 -->
<g id="edge1_Node000001_Node000002" class="edge">
<title>Node1&#45;&gt;Node2</title>
<g id="a_edge1_Node000001_Node000002"><a xlink:title=" ">
<path fill="none" stroke="#63b8ff" d="M35.75,-111.59C35.75,-104.86 35.75,-95.53 35.75,-87.15"/>
<polygon fill="#63b8ff" stroke="#63b8ff" points="39.25,-87.3 35.75,-77.3 32.25,-87.3 39.25,-87.3"/>
</a>
</g>
</g>
<!-- Node3 -->
<g id="Node000003" class="node">
<title>Node3</title>
<g id="a_Node000003"><a xlink:title=" ">
<polygon fill="#e0e0e0" stroke="#999999" points="64.38,-20 7.13,-20 7.13,0 64.38,0 64.38,-20"/>
<text text-anchor="middle" x="35.75" y="-6.5" font-family="Helvetica,sans-Serif" font-size="10.00">Arduino.h</text>
</a>
</g>
</g>
<!-- Node2&#45;&gt;Node3 -->
<g id="edge2_Node000002_Node000003" class="edge">
<title>Node2&#45;&gt;Node3</title>
<g id="a_edge2_Node000002_Node000003"><a xlink:title=" ">
<path fill="none" stroke="#63b8ff" d="M35.75,-55.59C35.75,-48.86 35.75,-39.53 35.75,-31.15"/>
<polygon fill="#63b8ff" stroke="#63b8ff" points="39.25,-31.3 35.75,-21.3 32.25,-31.3 39.25,-31.3"/>
</a>
</g>
</g>
</g>
</svg>
