<?xml version="1.0" encoding="UTF-8" standalone="no"?>
<!DOCTYPE svg PUBLIC "-//W3C//DTD SVG 1.1//EN"
 "http://www.w3.org/Graphics/SVG/1.1/DTD/svg11.dtd">
<!-- Generated by graphviz version 8.1.0 (20230707.0739)
 -->
<!-- Title: BleMessageQueue.h Pages: 1 -->
<svg width="316pt" height="140pt"
 viewBox="0.00 0.00 315.63 140.00" xmlns="http://www.w3.org/2000/svg" xmlns:xlink="http://www.w3.org/1999/xlink">
<g id="graph0" class="graph" transform="scale(1 1) rotate(0) translate(4 136)">
<title>BleMessageQueue.h</title>
<!-- Node1 -->
<g id="Node000001" class="node">
<title>Node1</title>
<g id="a_Node000001"><a xlink:title="Defines a FIFO queue for the BLEMessage type. The maximum size is specified in the cpp.">
<polygon fill="#999999" stroke="#666666" points="227,-132 120.25,-132 120.25,-112 227,-112 227,-132"/>
<text text-anchor="middle" x="173.63" y="-118.5" font-family="Helvetica,sans-Serif" font-size="10.00">BleMessageQueue.h</text>
</a>
</g>
</g>
<!-- Node2 -->
<g id="Node000002" class="node">
<title>Node2</title>
<g id="a_Node000002"><a xlink:href="_ble_message_queue_8cpp.html" target="_top" xlink:title=" ">
<polygon fill="white" stroke="#666666" points="117.25,-76 0,-76 0,-56 117.25,-56 117.25,-76"/>
<text text-anchor="middle" x="58.63" y="-62.5" font-family="Helvetica,sans-Serif" font-size="10.00">BleMessageQueue.cpp</text>
</a>
</g>
</g>
<!-- Node1&#45;&gt;Node2 -->
<g id="edge1_Node000001_Node000002" class="edge">
<title>Node1&#45;&gt;Node2</title>
<g id="a_edge1_Node000001_Node000002"><a xlink:title=" ">
<path fill="none" stroke="#63b8ff" d="M143.83,-107.01C123.39,-97.41 96.81,-84.93 78.81,-76.48"/>
<polygon fill="#63b8ff" stroke="#63b8ff" points="142.05,-110.51 152.59,-111.59 145.03,-104.18 142.05,-110.51"/>
</a>
</g>
</g>
<!-- Node3 -->
<g id="Node000003" class="node">
<title>Node3</title>
<g id="a_Node000003"><a xlink:href="_ble_parser_8cpp.html" target="_top" xlink:title=" ">
<polygon fill="white" stroke="#666666" points="212.38,-76 134.88,-76 134.88,-56 212.38,-56 212.38,-76"/>
<text text-anchor="middle" x="173.63" y="-62.5" font-family="Helvetica,sans-Serif" font-size="10.00">BleParser.cpp</text>
</a>
</g>
</g>
<!-- Node1&#45;&gt;Node3 -->
<g id="edge2_Node000001_Node000003" class="edge">
<title>Node1&#45;&gt;Node3</title>
<g id="a_edge2_Node000001_Node000003"><a xlink:title=" ">
<path fill="none" stroke="#63b8ff" d="M173.63,-100.71C173.63,-92.32 173.63,-83.01 173.63,-76.3"/>
<polygon fill="#63b8ff" stroke="#63b8ff" points="170.13,-100.59 173.63,-110.59 177.13,-100.59 170.13,-100.59"/>
</a>
</g>
</g>
<!-- Node4 -->
<g id="Node000004" class="node">
<title>Node4</title>
<g id="a_Node000004"><a xlink:href="_coms_m_c_u_8h.html" target="_top" xlink:title="The top of the composite structure for the communication microcontroller. This class manages the blue...">
<polygon fill="white" stroke="#666666" points="302.38,-76 230.88,-76 230.88,-56 302.38,-56 302.38,-76"/>
<text text-anchor="middle" x="266.63" y="-62.5" font-family="Helvetica,sans-Serif" font-size="10.00">ComsMCU.h</text>
</a>
</g>
</g>
<!-- Node1&#45;&gt;Node4 -->
<g id="edge3_Node000001_Node000004" class="edge">
<title>Node1&#45;&gt;Node4</title>
<g id="a_edge3_Node000001_Node000004"><a xlink:title=" ">
<path fill="none" stroke="#63b8ff" d="M199.32,-106.08C215.62,-96.62 236.21,-84.66 250.3,-76.48"/>
<polygon fill="#63b8ff" stroke="#63b8ff" points="197.71,-103.55 190.82,-111.59 201.23,-109.6 197.71,-103.55"/>
</a>
</g>
</g>
<!-- Node5 -->
<g id="Node000005" class="node">
<title>Node5</title>
<g id="a_Node000005"><a xlink:href="_coms_m_c_u_8cpp.html" target="_top" xlink:title=" ">
<polygon fill="white" stroke="#666666" points="307.63,-20 225.63,-20 225.63,0 307.63,0 307.63,-20"/>
<text text-anchor="middle" x="266.63" y="-6.5" font-family="Helvetica,sans-Serif" font-size="10.00">ComsMCU.cpp</text>
</a>
</g>
</g>
<!-- Node4&#45;&gt;Node5 -->
<g id="edge4_Node000004_Node000005" class="edge">
<title>Node4&#45;&gt;Node5</title>
<g id="a_edge4_Node000004_Node000005"><a xlink:title=" ">
<path fill="none" stroke="#63b8ff" d="M266.63,-44.71C266.63,-36.32 266.63,-27.01 266.63,-20.3"/>
<polygon fill="#63b8ff" stroke="#63b8ff" points="263.13,-44.59 266.63,-54.59 270.13,-44.59 263.13,-44.59"/>
</a>
</g>
</g>
</g>
</svg>
