<?xml version="1.0" encoding="UTF-8" standalone="no"?>
<!DOCTYPE svg PUBLIC "-//W3C//DTD SVG 1.1//EN"
 "http://www.w3.org/Graphics/SVG/1.1/DTD/svg11.dtd">
<!-- Generated by graphviz version 8.1.0 (20230707.0739)
 -->
<!-- Title: BleMessage.cpp Pages: 1 -->
<svg width="212pt" height="196pt"
 viewBox="0.00 0.00 211.63 196.00" xmlns="http://www.w3.org/2000/svg" xmlns:xlink="http://www.w3.org/1999/xlink">

<svg id="main" version="1.1" xmlns="http://www.w3.org/2000/svg" xmlns:xlink="http://www.w3.org/1999/xlink" xml:space="preserve" onload="init(evt)">
<style type="text/css"><![CDATA[
.node, .edge {opacity: 0.7;}
.node.selected, .edge.selected {opacity: 1;}
.edge:hover path { stroke: red; }
.edge:hover polygon { stroke: red; fill: red; }
]]></style>
<script type="application/ecmascript" xlink:href="svg.min.js"/>
<svg id="graph" class="graph">
<g id="graph0" class="graph" transform="scale(1 1) rotate(0) translate(4 192)">
<title>BleMessage.cpp</title>
<!-- Node1 -->
<g id="Node000001" class="node">
<title>Node1</title>
<g id="a_Node000001"><a xlink:title=" ">
<polygon fill="#999999" stroke="#666666" points="125.5,-188 36.75,-188 36.75,-168 125.5,-168 125.5,-188"/>
<text text-anchor="middle" x="81.13" y="-174.5" font-family="Helvetica,sans-Serif" font-size="10.00">BleMessage.cpp</text>
</a>
</g>
</g>
<!-- Node2 -->
<g id="Node000002" class="node">
<title>Node2</title>
<g id="a_Node000002"><a xlink:href="_ble_message_8h.html" target="_top" xlink:title="Defines the BleMessage class used to hold command&#45;data pairs exchanged between the GUI.">
<polygon fill="white" stroke="#666666" points="78.25,-132 0,-132 0,-112 78.25,-112 78.25,-132"/>
<text text-anchor="middle" x="39.13" y="-118.5" font-family="Helvetica,sans-Serif" font-size="10.00">BleMessage.h</text>
</a>
</g>
</g>
<!-- Node1&#45;&gt;Node2 -->
<g id="edge1_Node000001_Node000002" class="edge">
<title>Node1&#45;&gt;Node2</title>
<g id="a_edge1_Node000001_Node000002"><a xlink:title=" ">
<path fill="none" stroke="#63b8ff" d="M73.81,-167.59C68.09,-160.24 59.97,-149.8 53.02,-140.87"/>
<polygon fill="#63b8ff" stroke="#63b8ff" points="55.26,-139.04 46.36,-133.3 49.73,-143.34 55.26,-139.04"/>
</a>
</g>
</g>
<!-- Node3 -->
<g id="Node000003" class="node">
<title>Node3</title>
<g id="a_Node000003"><a xlink:href="_logger_8h.html" target="_top" xlink:title=" ">
<polygon fill="white" stroke="#666666" points="149.88,-132 96.38,-132 96.38,-112 149.88,-112 149.88,-132"/>
<text text-anchor="middle" x="123.13" y="-118.5" font-family="Helvetica,sans-Serif" font-size="10.00">Logger.h</text>
</a>
</g>
</g>
<!-- Node1&#45;&gt;Node3 -->
<g id="edge2_Node000001_Node000003" class="edge">
<title>Node1&#45;&gt;Node3</title>
<g id="a_edge2_Node000001_Node000003"><a xlink:title=" ">
<path fill="none" stroke="#63b8ff" d="M88.44,-167.59C94.16,-160.24 102.28,-149.8 109.23,-140.87"/>
<polygon fill="#63b8ff" stroke="#63b8ff" points="112.52,-143.34 115.89,-133.3 106.99,-139.04 112.52,-143.34"/>
</a>
</g>
</g>
<!-- Node4 -->
<g id="Node000004" class="node">
<title>Node4</title>
<g id="a_Node000004"><a xlink:title=" ">
<polygon fill="#e0e0e0" stroke="#999999" points="111.75,-20 54.5,-20 54.5,0 111.75,0 111.75,-20"/>
<text text-anchor="middle" x="83.13" y="-6.5" font-family="Helvetica,sans-Serif" font-size="10.00">Arduino.h</text>
</a>
</g>
</g>
<!-- Node3&#45;&gt;Node4 -->
<g id="edge3_Node000003_Node000004" class="edge">
<title>Node3&#45;&gt;Node4</title>
<g id="a_edge3_Node000003_Node000004"><a xlink:title=" ">
<path fill="none" stroke="#63b8ff" d="M113.18,-111.7C104.87,-103.27 93.55,-90.03 88.13,-76 82.56,-61.61 81.51,-44.12 81.73,-30.91"/>
<polygon fill="#63b8ff" stroke="#63b8ff" points="85.26,-31.34 82.21,-21.19 78.27,-31.03 85.26,-31.34"/>
</a>
</g>
</g>
<!-- Node5 -->
<g id="Node000005" class="node">
<title>Node5</title>
<g id="a_Node000005"><a xlink:href="_log_levels_8h.html" target="_top" xlink:title=" ">
<polygon fill="white" stroke="#666666" points="203.63,-20 136.63,-20 136.63,0 203.63,0 203.63,-20"/>
<text text-anchor="middle" x="170.13" y="-6.5" font-family="Helvetica,sans-Serif" font-size="10.00">LogLevels.h</text>
</a>
</g>
</g>
<!-- Node3&#45;&gt;Node5 -->
<g id="edge4_Node000003_Node000005" class="edge">
<title>Node3&#45;&gt;Node5</title>
<g id="a_edge4_Node000003_Node000005"><a xlink:title=" ">
<path fill="none" stroke="#63b8ff" d="M132.71,-111.55C140.78,-103.02 151.97,-89.73 158.13,-76 164.53,-61.73 167.51,-44.23 168.91,-30.99"/>
<polygon fill="#63b8ff" stroke="#63b8ff" points="172.46,-31.49 169.79,-21.24 165.48,-30.92 172.46,-31.49"/>
</a>
</g>
</g>
<!-- Node6 -->
<g id="Node000006" class="node">
<title>Node6</title>
<g id="a_Node000006"><a xlink:href="_config_8h.html" target="_top" xlink:title="Configuration variables for the codebase.">
<polygon fill="white" stroke="#666666" points="148.75,-76 97.5,-76 97.5,-56 148.75,-56 148.75,-76"/>
<text text-anchor="middle" x="123.13" y="-62.5" font-family="Helvetica,sans-Serif" font-size="10.00">Config.h</text>
</a>
</g>
</g>
<!-- Node3&#45;&gt;Node6 -->
<g id="edge5_Node000003_Node000006" class="edge">
<title>Node3&#45;&gt;Node6</title>
<g id="a_edge5_Node000003_Node000006"><a xlink:title=" ">
<path fill="none" stroke="#63b8ff" d="M123.13,-111.59C123.13,-104.86 123.13,-95.53 123.13,-87.15"/>
<polygon fill="#63b8ff" stroke="#63b8ff" points="126.63,-87.3 123.13,-77.3 119.63,-87.3 126.63,-87.3"/>
</a>
</g>
</g>
<!-- Node6&#45;&gt;Node4 -->
<g id="edge6_Node000006_Node000004" class="edge">
<title>Node6&#45;&gt;Node4</title>
<g id="a_edge6_Node000006_Node000004"><a xlink:title=" ">
<path fill="none" stroke="#63b8ff" d="M116.16,-55.59C110.71,-48.24 102.97,-37.8 96.36,-28.87"/>
<polygon fill="#63b8ff" stroke="#63b8ff" points="98.78,-27.25 90.01,-21.3 93.15,-31.42 98.78,-27.25"/>
</a>
</g>
</g>
<!-- Node6&#45;&gt;Node5 -->
<g id="edge7_Node000006_Node000005" class="edge">
<title>Node6&#45;&gt;Node5</title>
<g id="a_edge7_Node000006_Node000005"><a xlink:title=" ">
<path fill="none" stroke="#63b8ff" d="M131.31,-55.59C137.78,-48.16 146.99,-37.58 154.82,-28.58"/>
<polygon fill="#63b8ff" stroke="#63b8ff" points="158.11,-31.14 162.03,-21.3 152.83,-26.54 158.11,-31.14"/>
</a>
</g>
</g>
</g>
</svg>
</svg>

<style type='text/css'>
<![CDATA[
[data-mouse-over-selected='false'] { opacity: 0.7; }
[data-mouse-over-selected='true']  { opacity: 1.0; }
]]>
</style>
<script type="application/ecmascript"><![CDATA[
document.addEventListener('DOMContentLoaded', (event) => {
  highlightEdges();
  highlightAdjacentNodes();
});
]]></script>
</svg>
