<?xml version="1.0" encoding="UTF-8" standalone="no"?>
<!DOCTYPE svg PUBLIC "-//W3C//DTD SVG 1.1//EN"
 "http://www.w3.org/Graphics/SVG/1.1/DTD/svg11.dtd">
<!-- Generated by graphviz version 8.1.0 (20230707.0739)
 -->
<!-- Title: BleMessageQueue.cpp Pages: 1 -->
<svg width="264pt" height="196pt"
 viewBox="0.00 0.00 263.63 196.00" xmlns="http://www.w3.org/2000/svg" xmlns:xlink="http://www.w3.org/1999/xlink">

<svg id="main" version="1.1" xmlns="http://www.w3.org/2000/svg" xmlns:xlink="http://www.w3.org/1999/xlink" xml:space="preserve" onload="init(evt)">
<style type="text/css"><![CDATA[
.node, .edge {opacity: 0.7;}
.node.selected, .edge.selected {opacity: 1;}
.edge:hover path { stroke: red; }
.edge:hover polygon { stroke: red; fill: red; }
]]></style>
<script type="application/ecmascript" xlink:href="svg.min.js"/>
<svg id="graph" class="graph">
<g id="graph0" class="graph" transform="scale(1 1) rotate(0) translate(4 192)">
<title>BleMessageQueue.cpp</title>
<!-- Node1 -->
<g id="Node000001" class="node">
<title>Node1</title>
<g id="a_Node000001"><a xlink:title=" ">
<polygon fill="#999999" stroke="#666666" points="133.75,-188 16.5,-188 16.5,-168 133.75,-168 133.75,-188"/>
<text text-anchor="middle" x="75.13" y="-174.5" font-family="Helvetica,sans-Serif" font-size="10.00">BleMessageQueue.cpp</text>
</a>
</g>
</g>
<!-- Node2 -->
<g id="Node000002" class="node">
<title>Node2</title>
<g id="a_Node000002"><a xlink:title=" ">
<polygon fill="#e0e0e0" stroke="#999999" points="156.75,-20 99.5,-20 99.5,0 156.75,0 156.75,-20"/>
<text text-anchor="middle" x="128.13" y="-6.5" font-family="Helvetica,sans-Serif" font-size="10.00">Arduino.h</text>
</a>
</g>
</g>
<!-- Node1&#45;&gt;Node2 -->
<g id="edge1_Node000001_Node000002" class="edge">
<title>Node1&#45;&gt;Node2</title>
<g id="a_edge1_Node000001_Node000002"><a xlink:title=" ">
<path fill="none" stroke="#63b8ff" d="M53.06,-167.55C38.83,-160.15 21.46,-148.35 13.13,-132 -2.22,-101.91 -5.92,-83.9 13.13,-56 29.89,-31.44 62.24,-20.28 88.37,-15.22"/>
<polygon fill="#63b8ff" stroke="#63b8ff" points="88.85,-18.52 98.12,-13.4 87.68,-11.61 88.85,-18.52"/>
</a>
</g>
</g>
<!-- Node3 -->
<g id="Node000003" class="node">
<title>Node3</title>
<g id="a_Node000003"><a xlink:href="_ble_message_queue_8h.html" target="_top" xlink:title="Defines a FIFO queue for the BLEMessage type. The maximum size is specified in the cpp.">
<polygon fill="white" stroke="#666666" points="128.5,-132 21.75,-132 21.75,-112 128.5,-112 128.5,-132"/>
<text text-anchor="middle" x="75.13" y="-118.5" font-family="Helvetica,sans-Serif" font-size="10.00">BleMessageQueue.h</text>
</a>
</g>
</g>
<!-- Node1&#45;&gt;Node3 -->
<g id="edge2_Node000001_Node000003" class="edge">
<title>Node1&#45;&gt;Node3</title>
<g id="a_edge2_Node000001_Node000003"><a xlink:title=" ">
<path fill="none" stroke="#63b8ff" d="M75.13,-167.59C75.13,-160.86 75.13,-151.53 75.13,-143.15"/>
<polygon fill="#63b8ff" stroke="#63b8ff" points="78.63,-143.3 75.13,-133.3 71.63,-143.3 78.63,-143.3"/>
</a>
</g>
</g>
<!-- Node5 -->
<g id="Node000005" class="node">
<title>Node5</title>
<g id="a_Node000005"><a xlink:href="_logger_8h.html" target="_top" xlink:title=" ">
<polygon fill="white" stroke="#666666" points="203.88,-132 150.38,-132 150.38,-112 203.88,-112 203.88,-132"/>
<text text-anchor="middle" x="177.13" y="-118.5" font-family="Helvetica,sans-Serif" font-size="10.00">Logger.h</text>
</a>
</g>
</g>
<!-- Node1&#45;&gt;Node5 -->
<g id="edge4_Node000001_Node000005" class="edge">
<title>Node1&#45;&gt;Node5</title>
<g id="a_edge4_Node000001_Node000005"><a xlink:title=" ">
<path fill="none" stroke="#63b8ff" d="M92.89,-167.59C108.52,-159.32 131.52,-147.14 149.54,-137.6"/>
<polygon fill="#63b8ff" stroke="#63b8ff" points="151.02,-140.25 158.22,-132.48 147.74,-134.07 151.02,-140.25"/>
</a>
</g>
</g>
<!-- Node4 -->
<g id="Node000004" class="node">
<title>Node4</title>
<g id="a_Node000004"><a xlink:href="_ble_message_8h.html" target="_top" xlink:title="Defines the BleMessage class used to hold command&#45;data pairs exchanged between the GUI.">
<polygon fill="white" stroke="#666666" points="100.25,-76 22,-76 22,-56 100.25,-56 100.25,-76"/>
<text text-anchor="middle" x="61.13" y="-62.5" font-family="Helvetica,sans-Serif" font-size="10.00">BleMessage.h</text>
</a>
</g>
</g>
<!-- Node3&#45;&gt;Node4 -->
<g id="edge3_Node000003_Node000004" class="edge">
<title>Node3&#45;&gt;Node4</title>
<g id="a_edge3_Node000003_Node000004"><a xlink:title=" ">
<path fill="none" stroke="#63b8ff" d="M72.69,-111.59C70.92,-104.78 68.47,-95.32 66.27,-86.86"/>
<polygon fill="#63b8ff" stroke="#63b8ff" points="69.43,-86.1 63.54,-77.3 62.66,-87.86 69.43,-86.1"/>
</a>
</g>
</g>
<!-- Node5&#45;&gt;Node2 -->
<g id="edge5_Node000005_Node000002" class="edge">
<title>Node5&#45;&gt;Node2</title>
<g id="a_edge5_Node000005_Node000002"><a xlink:title=" ">
<path fill="none" stroke="#63b8ff" d="M169.54,-111.5C162.85,-102.73 153.23,-89.11 147.13,-76 140.36,-61.48 135.41,-44 132.26,-30.82"/>
<polygon fill="#63b8ff" stroke="#63b8ff" points="135.47,-30.14 129.88,-21.14 128.64,-31.67 135.47,-30.14"/>
</a>
</g>
</g>
<!-- Node6 -->
<g id="Node000006" class="node">
<title>Node6</title>
<g id="a_Node000006"><a xlink:href="_log_levels_8h.html" target="_top" xlink:title=" ">
<polygon fill="white" stroke="#666666" points="255.63,-20 188.63,-20 188.63,0 255.63,0 255.63,-20"/>
<text text-anchor="middle" x="222.13" y="-6.5" font-family="Helvetica,sans-Serif" font-size="10.00">LogLevels.h</text>
</a>
</g>
</g>
<!-- Node5&#45;&gt;Node6 -->
<g id="edge6_Node000005_Node000006" class="edge">
<title>Node5&#45;&gt;Node6</title>
<g id="a_edge6_Node000005_Node000006"><a xlink:title=" ">
<path fill="none" stroke="#63b8ff" d="M188.87,-111.67C198.32,-103.4 210.99,-90.43 217.13,-76 223.16,-61.8 224.18,-44.3 223.82,-31.04"/>
<polygon fill="#63b8ff" stroke="#63b8ff" points="227.27,-31.05 223.21,-21.26 220.28,-31.44 227.27,-31.05"/>
</a>
</g>
</g>
<!-- Node7 -->
<g id="Node000007" class="node">
<title>Node7</title>
<g id="a_Node000007"><a xlink:href="_config_8h.html" target="_top" xlink:title="Configuration variables for the codebase.">
<polygon fill="white" stroke="#666666" points="207.75,-76 156.5,-76 156.5,-56 207.75,-56 207.75,-76"/>
<text text-anchor="middle" x="182.13" y="-62.5" font-family="Helvetica,sans-Serif" font-size="10.00">Config.h</text>
</a>
</g>
</g>
<!-- Node5&#45;&gt;Node7 -->
<g id="edge7_Node000005_Node000007" class="edge">
<title>Node5&#45;&gt;Node7</title>
<g id="a_edge7_Node000005_Node000007"><a xlink:title=" ">
<path fill="none" stroke="#63b8ff" d="M178,-111.59C178.62,-104.86 179.48,-95.53 180.26,-87.15"/>
<polygon fill="#63b8ff" stroke="#63b8ff" points="183.83,-87.58 181.26,-77.3 176.86,-86.93 183.83,-87.58"/>
</a>
</g>
</g>
<!-- Node7&#45;&gt;Node2 -->
<g id="edge8_Node000007_Node000002" class="edge">
<title>Node7&#45;&gt;Node2</title>
<g id="a_edge8_Node000007_Node000002"><a xlink:title=" ">
<path fill="none" stroke="#63b8ff" d="M172.72,-55.59C165.13,-48.01 154.26,-37.13 145.15,-28.02"/>
<polygon fill="#63b8ff" stroke="#63b8ff" points="147.97,-25.89 138.42,-21.3 143.02,-30.84 147.97,-25.89"/>
</a>
</g>
</g>
<!-- Node7&#45;&gt;Node6 -->
<g id="edge9_Node000007_Node000006" class="edge">
<title>Node7&#45;&gt;Node6</title>
<g id="a_edge9_Node000007_Node000006"><a xlink:title=" ">
<path fill="none" stroke="#63b8ff" d="M189.09,-55.59C194.54,-48.24 202.28,-37.8 208.89,-28.87"/>
<polygon fill="#63b8ff" stroke="#63b8ff" points="212.1,-31.42 215.24,-21.3 206.47,-27.25 212.1,-31.42"/>
</a>
</g>
</g>
</g>
</svg>
</svg>

<style type='text/css'>
<![CDATA[
[data-mouse-over-selected='false'] { opacity: 0.7; }
[data-mouse-over-selected='true']  { opacity: 1.0; }
]]>
</style>
<script type="application/ecmascript"><![CDATA[
document.addEventListener('DOMContentLoaded', (event) => {
  highlightEdges();
  highlightAdjacentNodes();
});
]]></script>
</svg>
