<?xml version="1.0" encoding="UTF-8" standalone="no"?>
<!DOCTYPE svg PUBLIC "-//W3C//DTD SVG 1.1//EN"
 "http://www.w3.org/Graphics/SVG/1.1/DTD/svg11.dtd">
<!-- Generated by graphviz version 8.1.0 (20230707.0739)
 -->
<!-- Title: BleMessage.h Pages: 1 -->
<svg width="426pt" height="196pt"
 viewBox="0.00 0.00 425.88 196.00" xmlns="http://www.w3.org/2000/svg" xmlns:xlink="http://www.w3.org/1999/xlink">

<svg id="main" version="1.1" xmlns="http://www.w3.org/2000/svg" xmlns:xlink="http://www.w3.org/1999/xlink" xml:space="preserve" onload="init(evt)">
<style type="text/css"><![CDATA[
.node, .edge {opacity: 0.7;}
.node.selected, .edge.selected {opacity: 1;}
.edge:hover path { stroke: red; }
.edge:hover polygon { stroke: red; fill: red; }
]]></style>
<script type="application/ecmascript" xlink:href="svg.min.js"/>
<svg id="graph" class="graph">
<g id="graph0" class="graph" transform="scale(1 1) rotate(0) translate(4 192)">
<title>BleMessage.h</title>
<!-- Node1 -->
<g id="Node000001" class="node">
<title>Node1</title>
<g id="a_Node000001"><a xlink:title="Defines the BleMessage class used to hold command&#45;data pairs exchanged between the GUI.">
<polygon fill="#999999" stroke="#666666" points="236.5,-188 158.25,-188 158.25,-168 236.5,-168 236.5,-188"/>
<text text-anchor="middle" x="197.38" y="-174.5" font-family="Helvetica,sans-Serif" font-size="10.00">BleMessage.h</text>
</a>
</g>
</g>
<!-- Node2 -->
<g id="Node000002" class="node">
<title>Node2</title>
<g id="a_Node000002"><a xlink:href="_ble_message_8cpp.html" target="_top" xlink:title=" ">
<polygon fill="white" stroke="#666666" points="88.75,-132 0,-132 0,-112 88.75,-112 88.75,-132"/>
<text text-anchor="middle" x="44.38" y="-118.5" font-family="Helvetica,sans-Serif" font-size="10.00">BleMessage.cpp</text>
</a>
</g>
</g>
<!-- Node1&#45;&gt;Node2 -->
<g id="edge1_Node000001_Node000002" class="edge">
<title>Node1&#45;&gt;Node2</title>
<g id="a_edge1_Node000001_Node000002"><a xlink:title=" ">
<path fill="none" stroke="#63b8ff" d="M160.68,-164.05C133.14,-154.33 96.05,-141.24 71.23,-132.48"/>
<polygon fill="#63b8ff" stroke="#63b8ff" points="159.13,-167.57 169.72,-167.59 161.46,-160.97 159.13,-167.57"/>
</a>
</g>
</g>
<!-- Node3 -->
<g id="Node000003" class="node">
<title>Node3</title>
<g id="a_Node000003"><a xlink:href="_ble_message_queue_8h.html" target="_top" xlink:title="Defines a FIFO queue for the BLEMessage type. The maximum size is specified in the cpp.">
<polygon fill="white" stroke="#666666" points="250.75,-132 144,-132 144,-112 250.75,-112 250.75,-132"/>
<text text-anchor="middle" x="197.38" y="-118.5" font-family="Helvetica,sans-Serif" font-size="10.00">BleMessageQueue.h</text>
</a>
</g>
</g>
<!-- Node1&#45;&gt;Node3 -->
<g id="edge2_Node000001_Node000003" class="edge">
<title>Node1&#45;&gt;Node3</title>
<g id="a_edge2_Node000001_Node000003"><a xlink:title=" ">
<path fill="none" stroke="#63b8ff" d="M197.38,-156.71C197.38,-148.32 197.38,-139.01 197.38,-132.3"/>
<polygon fill="#63b8ff" stroke="#63b8ff" points="193.88,-156.59 197.38,-166.59 200.88,-156.59 193.88,-156.59"/>
</a>
</g>
</g>
<!-- Node6 -->
<g id="Node000006" class="node">
<title>Node6</title>
<g id="a_Node000006"><a xlink:href="_coms_m_c_u_8h.html" target="_top" xlink:title="The top of the composite structure for the communication microcontroller. This class manages the blue...">
<polygon fill="white" stroke="#666666" points="121.13,-76 49.63,-76 49.63,-56 121.13,-56 121.13,-76"/>
<text text-anchor="middle" x="85.38" y="-62.5" font-family="Helvetica,sans-Serif" font-size="10.00">ComsMCU.h</text>
</a>
</g>
</g>
<!-- Node1&#45;&gt;Node6 -->
<g id="edge9_Node000001_Node000006" class="edge">
<title>Node1&#45;&gt;Node6</title>
<g id="a_edge9_Node000001_Node000006"><a xlink:title=" ">
<path fill="none" stroke="#63b8ff" d="M172.9,-161.64C160.95,-153.56 146.74,-143.05 135.38,-132 117,-114.13 99.75,-89.26 91.12,-76.06"/>
<polygon fill="#63b8ff" stroke="#63b8ff" points="170.63,-164.99 180.91,-167.57 174.48,-159.14 170.63,-164.99"/>
</a>
</g>
</g>
<!-- Node8 -->
<g id="Node000008" class="node">
<title>Node8</title>
<g id="a_Node000008"><a xlink:href="_ble_parser_8h.html" target="_top" xlink:title="This class is used to serialize and deserialize the BLE data. The application uses Nordic&#39;s UART serv...">
<polygon fill="white" stroke="#666666" points="417.88,-76 350.88,-76 350.88,-56 417.88,-56 417.88,-76"/>
<text text-anchor="middle" x="384.38" y="-62.5" font-family="Helvetica,sans-Serif" font-size="10.00">BleParser.h</text>
</a>
</g>
</g>
<!-- Node1&#45;&gt;Node8 -->
<g id="edge7_Node000001_Node000008" class="edge">
<title>Node1&#45;&gt;Node8</title>
<g id="a_edge7_Node000001_Node000008"><a xlink:title=" ">
<path fill="none" stroke="#63b8ff" d="M247.84,-176.89C286,-174.04 337.02,-163.86 368.38,-132 383.21,-116.92 385.04,-90.43 384.86,-76.37"/>
<polygon fill="#63b8ff" stroke="#63b8ff" points="247.72,-173.45 237.95,-177.53 248.13,-180.43 247.72,-173.45"/>
</a>
</g>
</g>
<!-- Node9 -->
<g id="Node000009" class="node">
<title>Node9</title>
<g id="a_Node000009"><a xlink:href="ble__commands_8h.html" target="_top" xlink:title="This file declares the BLE commands, and the functions that should be called when they are received.">
<polygon fill="white" stroke="#666666" points="359.5,-132 269.25,-132 269.25,-112 359.5,-112 359.5,-132"/>
<text text-anchor="middle" x="314.38" y="-118.5" font-family="Helvetica,sans-Serif" font-size="10.00">ble_commands.h</text>
</a>
</g>
</g>
<!-- Node1&#45;&gt;Node9 -->
<g id="edge10_Node000001_Node000009" class="edge">
<title>Node1&#45;&gt;Node9</title>
<g id="a_edge10_Node000001_Node000009"><a xlink:title=" ">
<path fill="none" stroke="#63b8ff" d="M227.69,-163.01C248.49,-153.41 275.53,-140.93 293.84,-132.48"/>
<polygon fill="#63b8ff" stroke="#63b8ff" points="226.37,-160.23 218.75,-167.59 229.3,-166.58 226.37,-160.23"/>
</a>
</g>
</g>
<!-- Node4 -->
<g id="Node000004" class="node">
<title>Node4</title>
<g id="a_Node000004"><a xlink:href="_ble_message_queue_8cpp.html" target="_top" xlink:title=" ">
<polygon fill="white" stroke="#666666" points="256,-76 138.75,-76 138.75,-56 256,-56 256,-76"/>
<text text-anchor="middle" x="197.38" y="-62.5" font-family="Helvetica,sans-Serif" font-size="10.00">BleMessageQueue.cpp</text>
</a>
</g>
</g>
<!-- Node3&#45;&gt;Node4 -->
<g id="edge3_Node000003_Node000004" class="edge">
<title>Node3&#45;&gt;Node4</title>
<g id="a_edge3_Node000003_Node000004"><a xlink:title=" ">
<path fill="none" stroke="#63b8ff" d="M197.38,-100.71C197.38,-92.32 197.38,-83.01 197.38,-76.3"/>
<polygon fill="#63b8ff" stroke="#63b8ff" points="193.88,-100.59 197.38,-110.59 200.88,-100.59 193.88,-100.59"/>
</a>
</g>
</g>
<!-- Node5 -->
<g id="Node000005" class="node">
<title>Node5</title>
<g id="a_Node000005"><a xlink:href="_ble_parser_8cpp.html" target="_top" xlink:title=" ">
<polygon fill="white" stroke="#666666" points="361.13,-20 283.63,-20 283.63,0 361.13,0 361.13,-20"/>
<text text-anchor="middle" x="322.38" y="-6.5" font-family="Helvetica,sans-Serif" font-size="10.00">BleParser.cpp</text>
</a>
</g>
</g>
<!-- Node3&#45;&gt;Node5 -->
<g id="edge4_Node000003_Node000005" class="edge">
<title>Node3&#45;&gt;Node5</title>
<g id="a_edge4_Node000003_Node000005"><a xlink:title=" ">
<path fill="none" stroke="#63b8ff" d="M223.23,-106.16C236.44,-98.02 252.42,-87.31 265.38,-76 285.73,-58.23 305.64,-33.32 315.67,-20.09"/>
<polygon fill="#63b8ff" stroke="#63b8ff" points="221.95,-103.44 215.18,-111.59 225.56,-109.44 221.95,-103.44"/>
</a>
</g>
</g>
<!-- Node3&#45;&gt;Node6 -->
<g id="edge5_Node000003_Node000006" class="edge">
<title>Node3&#45;&gt;Node6</title>
<g id="a_edge5_Node000003_Node000006"><a xlink:title=" ">
<path fill="none" stroke="#63b8ff" d="M168.08,-106.88C148.21,-97.3 122.48,-84.89 105.04,-76.48"/>
<polygon fill="#63b8ff" stroke="#63b8ff" points="166.34,-110.4 176.87,-111.59 169.38,-104.1 166.34,-110.4"/>
</a>
</g>
</g>
<!-- Node7 -->
<g id="Node000007" class="node">
<title>Node7</title>
<g id="a_Node000007"><a xlink:href="_coms_m_c_u_8cpp.html" target="_top" xlink:title=" ">
<polygon fill="white" stroke="#666666" points="126.38,-20 44.38,-20 44.38,0 126.38,0 126.38,-20"/>
<text text-anchor="middle" x="85.38" y="-6.5" font-family="Helvetica,sans-Serif" font-size="10.00">ComsMCU.cpp</text>
</a>
</g>
</g>
<!-- Node6&#45;&gt;Node7 -->
<g id="edge6_Node000006_Node000007" class="edge">
<title>Node6&#45;&gt;Node7</title>
<g id="a_edge6_Node000006_Node000007"><a xlink:title=" ">
<path fill="none" stroke="#63b8ff" d="M85.38,-44.71C85.38,-36.32 85.38,-27.01 85.38,-20.3"/>
<polygon fill="#63b8ff" stroke="#63b8ff" points="81.88,-44.59 85.38,-54.59 88.88,-44.59 81.88,-44.59"/>
</a>
</g>
</g>
<!-- Node8&#45;&gt;Node5 -->
<g id="edge8_Node000008_Node000005" class="edge">
<title>Node8&#45;&gt;Node5</title>
<g id="a_edge8_Node000008_Node000005"><a xlink:title=" ">
<path fill="none" stroke="#63b8ff" d="M365.32,-48.4C354.71,-39.17 341.9,-28.01 333.05,-20.3"/>
<polygon fill="#63b8ff" stroke="#63b8ff" points="362.74,-51.67 372.58,-55.59 367.33,-46.39 362.74,-51.67"/>
</a>
</g>
</g>
<!-- Node9&#45;&gt;Node5 -->
<g id="edge11_Node000009_Node000005" class="edge">
<title>Node9&#45;&gt;Node5</title>
<g id="a_edge11_Node000009_Node000005"><a xlink:title=" ">
<path fill="none" stroke="#63b8ff" d="M315.83,-100.97C317.57,-77.07 320.4,-38.11 321.69,-20.35"/>
<polygon fill="#63b8ff" stroke="#63b8ff" points="312.29,-100.39 315.06,-110.62 319.27,-100.9 312.29,-100.39"/>
</a>
</g>
</g>
<!-- Node9&#45;&gt;Node8 -->
<g id="edge12_Node000009_Node000008" class="edge">
<title>Node9&#45;&gt;Node8</title>
<g id="a_edge12_Node000009_Node000008"><a xlink:title=" ">
<path fill="none" stroke="#63b8ff" d="M335.17,-104.95C347.28,-95.61 362.13,-84.16 372.32,-76.3"/>
<polygon fill="#63b8ff" stroke="#63b8ff" points="333.35,-102.71 327.57,-111.59 337.62,-108.26 333.35,-102.71"/>
</a>
</g>
</g>
</g>
</svg>
</svg>

<style type='text/css'>
<![CDATA[
[data-mouse-over-selected='false'] { opacity: 0.7; }
[data-mouse-over-selected='true']  { opacity: 1.0; }
]]>
</style>
<script type="application/ecmascript"><![CDATA[
document.addEventListener('DOMContentLoaded', (event) => {
  highlightEdges();
  highlightAdjacentNodes();
});
]]></script>
</svg>
