<?xml version="1.0" encoding="UTF-8" standalone="no"?>
<!DOCTYPE svg PUBLIC "-//W3C//DTD SVG 1.1//EN"
 "http://www.w3.org/Graphics/SVG/1.1/DTD/svg11.dtd">
<!-- Generated by graphviz version 8.1.0 (20230707.0739)
 -->
<!-- Title: Board.h Pages: 1 -->
<!--zoomable 532 -->

<svg id="main" version="1.1" xmlns="http://www.w3.org/2000/svg" xmlns:xlink="http://www.w3.org/1999/xlink" xml:space="preserve" onload="init(evt)">
<style type="text/css"><![CDATA[
.node, .edge {opacity: 0.7;}
.node.selected, .edge.selected {opacity: 1;}
.edge:hover path { stroke: red; }
.edge:hover polygon { stroke: red; fill: red; }
]]></style>

<defs>
  <circle id="rim" cx="0" cy="0" r="7"/>
  <circle id="rim2" cx="0" cy="0" r="3.5"/>
  <g id="zoomPlus">
    <use xlink:href="#rim" fill="#404040"><set attributeName="fill" to="#808080" begin="zoomplus.mouseover" end="zoomplus.mouseout"/></use>
    <path d="M-4,0h8M0,-4v8" fill="none" stroke="white" stroke-width="1.5" pointer-events="none"/>
  </g>
  <g id="zoomMin">
    <use xlink:href="#rim" fill="#404040"><set attributeName="fill" to="#808080" begin="zoomminus.mouseover" end="zoomminus.mouseout"/></use>
    <path d="M-4,0h8" fill="none" stroke="white" stroke-width="1.5" pointer-events="none"/>
  </g>
  <g id="arrowUp" transform="translate(30 24)">
    <use xlink:href="#rim"/>
    <path pointer-events="none" fill="none" stroke="white" stroke-width="1.5" d="M0,-3.0v7 M-2.5,-0.5L0,-3.0L2.5,-0.5"/>
  </g>
  <g id="arrowRight" transform="rotate(90) translate(36 -43)">
    <use xlink:href="#rim"/>
    <path pointer-events="none" fill="none" stroke="white" stroke-width="1.5" d="M0,-3.0v7 M-2.5,-0.5L0,-3.0L2.5,-0.5"/>
  </g>
  <g id="arrowDown" transform="rotate(180) translate(-30 -48)">
    <use xlink:href="#rim"/>
    <path pointer-events="none" fill="none" stroke="white" stroke-width="1.5" d="M0,-3.0v7 M-2.5,-0.5L0,-3.0L2.5,-0.5"/>
  </g>
  <g id="arrowLeft" transform="rotate(270) translate(-36 17)">
    <use xlink:href="#rim"/>
    <path pointer-events="none" fill="none" stroke="white" stroke-width="1.5" d="M0,-3.0v7 M-2.5,-0.5L0,-3.0L2.5,-0.5"/>
  </g>
  <g id="resetDef">
    <use xlink:href="#rim2" fill="#404040"><set attributeName="fill" to="#808080" begin="reset.mouseover" end="reset.mouseout"/></use>
  </g>
</defs>
<script type="application/ecmascript">
var viewWidth = 743;
var viewHeight = 532;
var sectionId = 'dynsection-1';
</script>
<script type="application/ecmascript" xlink:href="svg.min.js"/>
<svg id="graph" class="graph">
<g id="viewport">
<title>Board.h</title>
<!-- Node1 -->
<g id="Node000001" class="node">
<title>Node1</title>
<g id="a_Node000001"><a xlink:title="Defines the pins and peripherals for the board being used.">
<polygon fill="#999999" stroke="#666666" points="418.38,-524 368.63,-524 368.63,-504 418.38,-504 418.38,-524"/>
<text text-anchor="middle" x="393.5" y="-510.5" font-family="Helvetica,sans-Serif" font-size="10.00">Board.h</text>
</a>
</g>
</g>
<!-- Node2 -->
<g id="Node000002" class="node">
<title>Node2</title>
<g id="a_Node000002"><a xlink:href="_coms_led_8cpp.html" target="_top" xlink:title=" ">
<polygon fill="white" stroke="#666666" points="135.5,-468 59.5,-468 59.5,-448 135.5,-448 135.5,-468"/>
<text text-anchor="middle" x="97.5" y="-454.5" font-family="Helvetica,sans-Serif" font-size="10.00">ComsLed.cpp</text>
</a>
</g>
</g>
<!-- Node1&#45;&gt;Node2 -->
<g id="edge1_Node000001_Node000002" class="edge">
<title>Node1&#45;&gt;Node2</title>
<g id="a_edge1_Node000001_Node000002"><a xlink:title=" ">
<path fill="none" stroke="#63b8ff" d="M357.86,-506.68C309.5,-498.08 220.43,-482.13 144.5,-468 141.72,-467.48 138.85,-466.94 135.97,-466.4"/>
<polygon fill="#63b8ff" stroke="#63b8ff" points="356.93,-510.25 367.39,-508.55 358.16,-503.35 356.93,-510.25"/>
</a>
</g>
</g>
<!-- Node3 -->
<g id="Node000003" class="node">
<title>Node3</title>
<g id="a_Node000003"><a xlink:href="_controller_data_8h.html" target="_top" xlink:title="Declares a class used to store data for controllers to access.">
<polygon fill="white" stroke="#666666" points="239.38,-468 153.63,-468 153.63,-448 239.38,-448 239.38,-468"/>
<text text-anchor="middle" x="196.5" y="-454.5" font-family="Helvetica,sans-Serif" font-size="10.00">ControllerData.h</text>
</a>
</g>
</g>
<!-- Node1&#45;&gt;Node3 -->
<g id="edge2_Node000001_Node000003" class="edge">
<title>Node1&#45;&gt;Node3</title>
<g id="a_edge2_Node000001_Node000003"><a xlink:title=" ">
<path fill="none" stroke="#63b8ff" d="M357.63,-503.17C321.63,-493.3 266.55,-478.2 231.03,-468.46"/>
<polygon fill="#63b8ff" stroke="#63b8ff" points="356.58,-506.78 367.15,-506.05 358.43,-500.03 356.58,-506.78"/>
</a>
</g>
</g>
<!-- Node5 -->
<g id="Node000005" class="node">
<title>Node5</title>
<g id="a_Node000005"><a xlink:href="_joint_data_8h.html" target="_top" xlink:title="Declares a class used to store data for joint to access.">
<polygon fill="white" stroke="#666666" points="267.88,-412 203.13,-412 203.13,-392 267.88,-392 267.88,-412"/>
<text text-anchor="middle" x="235.5" y="-398.5" font-family="Helvetica,sans-Serif" font-size="10.00">JointData.h</text>
</a>
</g>
</g>
<!-- Node1&#45;&gt;Node5 -->
<g id="edge32_Node000001_Node000005" class="edge">
<title>Node1&#45;&gt;Node5</title>
<g id="a_edge32_Node000001_Node000005"><a xlink:title=" ">
<path fill="none" stroke="#63b8ff" d="M357.99,-503.11C335.94,-495.81 307.84,-484.28 286.5,-468 265.75,-452.16 248.72,-425.99 240.62,-412.18"/>
<polygon fill="#63b8ff" stroke="#63b8ff" points="356.68,-506.68 367.27,-506.36 358.79,-500.01 356.68,-506.68"/>
</a>
</g>
</g>
<!-- Node7 -->
<g id="Node000007" class="node">
<title>Node7</title>
<g id="a_Node000007"><a xlink:href="_leg_data_8h.html" target="_top" xlink:title="Declares a class used to store data for leg to access.">
<polygon fill="white" stroke="#666666" points="390.63,-356 330.38,-356 330.38,-336 390.63,-336 390.63,-356"/>
<text text-anchor="middle" x="360.5" y="-342.5" font-family="Helvetica,sans-Serif" font-size="10.00">LegData.h</text>
</a>
</g>
</g>
<!-- Node1&#45;&gt;Node7 -->
<g id="edge33_Node000001_Node000007" class="edge">
<title>Node1&#45;&gt;Node7</title>
<g id="a_edge33_Node000001_Node000007"><a xlink:title=" ">
<path fill="none" stroke="#63b8ff" d="M391.25,-492.9C388.35,-468.75 382.67,-427.1 374.5,-392 371.57,-379.41 366.92,-365.22 363.8,-356.2"/>
<polygon fill="#63b8ff" stroke="#63b8ff" points="387.89,-493.28 392.52,-502.8 394.84,-492.47 387.89,-493.28"/>
</a>
</g>
</g>
<!-- Node8 -->
<g id="Node000008" class="node">
<title>Node8</title>
<g id="a_Node000008"><a xlink:href="_exo_data_8h.html" target="_top" xlink:title="Declares a class used to store data for the Exo to access.">
<polygon fill="white" stroke="#666666" points="462.38,-300 400.63,-300 400.63,-280 462.38,-280 462.38,-300"/>
<text text-anchor="middle" x="431.5" y="-286.5" font-family="Helvetica,sans-Serif" font-size="10.00">ExoData.h</text>
</a>
</g>
</g>
<!-- Node1&#45;&gt;Node8 -->
<g id="edge30_Node000001_Node000008" class="edge">
<title>Node1&#45;&gt;Node8</title>
<g id="a_edge30_Node000001_Node000008"><a xlink:title=" ">
<path fill="none" stroke="#63b8ff" d="M396.92,-493.04C404.84,-446.76 424.22,-333.5 429.91,-300.3"/>
<polygon fill="#63b8ff" stroke="#63b8ff" points="393.32,-492.3 395.08,-502.74 400.22,-493.48 393.32,-492.3"/>
</a>
</g>
</g>
<!-- Node24 -->
<g id="Node000024" class="node">
<title>Node24</title>
<g id="a_Node000024"><a xlink:href="_f_s_r_8cpp.html" target="_top" xlink:title=" ">
<polygon fill="white" stroke="#666666" points="589.63,-468 535.38,-468 535.38,-448 589.63,-448 589.63,-468"/>
<text text-anchor="middle" x="562.5" y="-454.5" font-family="Helvetica,sans-Serif" font-size="10.00">FSR.cpp</text>
</a>
</g>
</g>
<!-- Node1&#45;&gt;Node24 -->
<g id="edge31_Node000001_Node000024" class="edge">
<title>Node1&#45;&gt;Node24</title>
<g id="a_edge31_Node000001_Node000024"><a xlink:title=" ">
<path fill="none" stroke="#63b8ff" d="M428.94,-501.68C460.54,-491.58 506.16,-477 535.06,-467.77"/>
<polygon fill="#63b8ff" stroke="#63b8ff" points="428.26,-498.54 419.8,-504.92 430.39,-505.21 428.26,-498.54"/>
</a>
</g>
</g>
<!-- Node25 -->
<g id="Node000025" class="node">
<title>Node25</title>
<g id="a_Node000025"><a xlink:href="_motor_data_8h.html" target="_top" xlink:title="Declares a class used to store data for motors to access.">
<polygon fill="white" stroke="#666666" points="365.13,-468 295.88,-468 295.88,-448 365.13,-448 365.13,-468"/>
<text text-anchor="middle" x="330.5" y="-454.5" font-family="Helvetica,sans-Serif" font-size="10.00">MotorData.h</text>
</a>
</g>
</g>
<!-- Node1&#45;&gt;Node25 -->
<g id="edge34_Node000001_Node000025" class="edge">
<title>Node1&#45;&gt;Node25</title>
<g id="a_edge34_Node000001_Node000025"><a xlink:title=" ">
<path fill="none" stroke="#63b8ff" d="M374.46,-496.68C363.62,-487.39 350.43,-476.09 341.35,-468.3"/>
<polygon fill="#63b8ff" stroke="#63b8ff" points="371.66,-499.74 381.53,-503.59 376.21,-494.43 371.66,-499.74"/>
</a>
</g>
</g>
<!-- Node27 -->
<g id="Node000027" class="node">
<title>Node27</title>
<g id="a_Node000027"><a xlink:href="_status_defs_8h.html" target="_top" xlink:title="Stores the different status messages for the system.">
<polygon fill="white" stroke="#666666" points="613.63,-412 541.38,-412 541.38,-392 613.63,-392 613.63,-412"/>
<text text-anchor="middle" x="577.5" y="-398.5" font-family="Helvetica,sans-Serif" font-size="10.00">StatusDefs.h</text>
</a>
</g>
</g>
<!-- Node1&#45;&gt;Node27 -->
<g id="edge37_Node000001_Node000027" class="edge">
<title>Node1&#45;&gt;Node27</title>
<g id="a_edge37_Node000001_Node000027"><a xlink:title=" ">
<path fill="none" stroke="#63b8ff" d="M424.11,-499.02C441.79,-490.62 464.27,-479.38 483.5,-468 513.89,-450.01 547.47,-425.62 565.1,-412.42"/>
<polygon fill="#63b8ff" stroke="#63b8ff" points="422.88,-496.2 415.31,-503.62 425.85,-502.54 422.88,-496.2"/>
</a>
</g>
</g>
<!-- Node29 -->
<g id="Node000029" class="node">
<title>Node29</title>
<g id="a_Node000029"><a xlink:href="_status_led_8h.html" target="_top" xlink:title="Class to set an RGB LED to different colors based on the state of the system.">
<polygon fill="white" stroke="#666666" points="529.75,-356 461.25,-356 461.25,-336 529.75,-336 529.75,-356"/>
<text text-anchor="middle" x="495.5" y="-342.5" font-family="Helvetica,sans-Serif" font-size="10.00">StatusLed.h</text>
</a>
</g>
</g>
<!-- Node1&#45;&gt;Node29 -->
<g id="edge45_Node000001_Node000029" class="edge">
<title>Node1&#45;&gt;Node29</title>
<g id="a_edge45_Node000001_Node000029"><a xlink:title=" ">
<path fill="none" stroke="#63b8ff" d="M416.18,-497.19C426.19,-489.32 437.48,-479.12 445.5,-468 472.22,-430.94 487.8,-377.48 493.27,-356.22"/>
<polygon fill="#63b8ff" stroke="#63b8ff" points="414.38,-494.92 408.48,-503.72 418.58,-500.52 414.38,-494.92"/>
</a>
</g>
</g>
<!-- Node4 -->
<g id="Node000004" class="node">
<title>Node4</title>
<g id="a_Node000004"><a xlink:href="_controller_data_8cpp.html" target="_top" xlink:title=" ">
<polygon fill="white" stroke="#666666" points="184.63,-412 88.38,-412 88.38,-392 184.63,-392 184.63,-412"/>
<text text-anchor="middle" x="136.5" y="-398.5" font-family="Helvetica,sans-Serif" font-size="10.00">ControllerData.cpp</text>
</a>
</g>
</g>
<!-- Node3&#45;&gt;Node4 -->
<g id="edge3_Node000003_Node000004" class="edge">
<title>Node3&#45;&gt;Node4</title>
<g id="a_edge3_Node000003_Node000004"><a xlink:title=" ">
<path fill="none" stroke="#63b8ff" d="M178.06,-440.4C167.79,-431.17 155.4,-420.01 146.83,-412.3"/>
<polygon fill="#63b8ff" stroke="#63b8ff" points="175.27,-442.51 185.05,-446.59 179.96,-437.3 175.27,-442.51"/>
</a>
</g>
</g>
<!-- Node3&#45;&gt;Node5 -->
<g id="edge4_Node000003_Node000005" class="edge">
<title>Node3&#45;&gt;Node5</title>
<g id="a_edge4_Node000003_Node000005"><a xlink:title=" ">
<path fill="none" stroke="#63b8ff" d="M209.7,-438.72C216.12,-429.84 223.55,-419.55 228.78,-412.3"/>
<polygon fill="#63b8ff" stroke="#63b8ff" points="206.31,-436.44 203.29,-446.59 211.99,-440.54 206.31,-436.44"/>
</a>
</g>
</g>
<!-- Node6 -->
<g id="Node000006" class="node">
<title>Node6</title>
<g id="a_Node000006"><a xlink:href="_joint_data_8cpp.html" target="_top" xlink:title=" ">
<polygon fill="white" stroke="#666666" points="273.13,-356 197.88,-356 197.88,-336 273.13,-336 273.13,-356"/>
<text text-anchor="middle" x="235.5" y="-342.5" font-family="Helvetica,sans-Serif" font-size="10.00">JointData.cpp</text>
</a>
</g>
</g>
<!-- Node5&#45;&gt;Node6 -->
<g id="edge5_Node000005_Node000006" class="edge">
<title>Node5&#45;&gt;Node6</title>
<g id="a_edge5_Node000005_Node000006"><a xlink:title=" ">
<path fill="none" stroke="#63b8ff" d="M235.5,-380.71C235.5,-372.32 235.5,-363.01 235.5,-356.3"/>
<polygon fill="#63b8ff" stroke="#63b8ff" points="232,-380.59 235.5,-390.59 239,-380.59 232,-380.59"/>
</a>
</g>
</g>
<!-- Node5&#45;&gt;Node7 -->
<g id="edge6_Node000005_Node000007" class="edge">
<title>Node5&#45;&gt;Node7</title>
<g id="a_edge6_Node000005_Node000007"><a xlink:title=" ">
<path fill="none" stroke="#63b8ff" d="M267.28,-387.27C289.58,-377.64 318.82,-365.01 338.56,-356.48"/>
<polygon fill="#63b8ff" stroke="#63b8ff" points="266.07,-384.42 258.27,-391.59 268.84,-390.84 266.07,-384.42"/>
</a>
</g>
</g>
<!-- Node17 -->
<g id="Node000017" class="node">
<title>Node17</title>
<g id="a_Node000017"><a xlink:href="uart__commands_8h.html" target="_top" xlink:title=" ">
<polygon fill="white" stroke="#666666" points="153.5,-188 59.5,-188 59.5,-168 153.5,-168 153.5,-188"/>
<text text-anchor="middle" x="106.5" y="-174.5" font-family="Helvetica,sans-Serif" font-size="10.00">uart_commands.h</text>
</a>
</g>
</g>
<!-- Node5&#45;&gt;Node17 -->
<g id="edge29_Node000005_Node000017" class="edge">
<title>Node5&#45;&gt;Node17</title>
<g id="a_edge29_Node000005_Node000017"><a xlink:title=" ">
<path fill="none" stroke="#63b8ff" d="M215.35,-384.74C206.34,-376.76 196.07,-366.59 188.5,-356 147.15,-298.14 118.46,-216.1 109.49,-188.49"/>
<polygon fill="#63b8ff" stroke="#63b8ff" points="212.6,-387.85 222.48,-391.67 217.14,-382.52 212.6,-387.85"/>
</a>
</g>
</g>
<!-- Node7&#45;&gt;Node8 -->
<g id="edge7_Node000007_Node000008" class="edge">
<title>Node7&#45;&gt;Node8</title>
<g id="a_edge7_Node000007_Node000008"><a xlink:title=" ">
<path fill="none" stroke="#63b8ff" d="M381.6,-328.95C393.88,-319.61 408.93,-308.16 419.27,-300.3"/>
<polygon fill="#63b8ff" stroke="#63b8ff" points="379.71,-326.75 373.87,-335.59 383.95,-332.33 379.71,-326.75"/>
</a>
</g>
</g>
<!-- Node23 -->
<g id="Node000023" class="node">
<title>Node23</title>
<g id="a_Node000023"><a xlink:href="_leg_data_8cpp.html" target="_top" xlink:title=" ">
<polygon fill="white" stroke="#666666" points="382.88,-300 312.13,-300 312.13,-280 382.88,-280 382.88,-300"/>
<text text-anchor="middle" x="347.5" y="-286.5" font-family="Helvetica,sans-Serif" font-size="10.00">LegData.cpp</text>
</a>
</g>
</g>
<!-- Node7&#45;&gt;Node23 -->
<g id="edge28_Node000007_Node000023" class="edge">
<title>Node7&#45;&gt;Node23</title>
<g id="a_edge28_Node000007_Node000023"><a xlink:title=" ">
<path fill="none" stroke="#63b8ff" d="M355.69,-325C353.65,-316.54 351.37,-307.08 349.74,-300.3"/>
<polygon fill="#63b8ff" stroke="#63b8ff" points="352.49,-325.69 358.24,-334.59 359.3,-324.05 352.49,-325.69"/>
</a>
</g>
</g>
<!-- Node9 -->
<g id="Node000009" class="node">
<title>Node9</title>
<g id="a_Node000009"><a xlink:href="_coms_m_c_u_8h.html" target="_top" xlink:title="The top of the composite structure for the communication microcontroller. This class manages the blue...">
<polygon fill="white" stroke="#666666" points="531.25,-244 459.75,-244 459.75,-224 531.25,-224 531.25,-244"/>
<text text-anchor="middle" x="495.5" y="-230.5" font-family="Helvetica,sans-Serif" font-size="10.00">ComsMCU.h</text>
</a>
</g>
</g>
<!-- Node8&#45;&gt;Node9 -->
<g id="edge8_Node000008_Node000009" class="edge">
<title>Node8&#45;&gt;Node9</title>
<g id="a_edge8_Node000008_Node000009"><a xlink:title=" ">
<path fill="none" stroke="#63b8ff" d="M450.84,-272.68C461.85,-263.39 475.25,-252.09 484.48,-244.3"/>
<polygon fill="#63b8ff" stroke="#63b8ff" points="449.03,-270.47 443.65,-279.59 453.55,-275.82 449.03,-270.47"/>
</a>
</g>
</g>
<!-- Node11 -->
<g id="Node000011" class="node">
<title>Node11</title>
<g id="a_Node000011"><a xlink:href="_exo_data_8cpp.html" target="_top" xlink:title=" ">
<polygon fill="white" stroke="#666666" points="403.63,-188 331.38,-188 331.38,-168 403.63,-168 403.63,-188"/>
<text text-anchor="middle" x="367.5" y="-174.5" font-family="Helvetica,sans-Serif" font-size="10.00">ExoData.cpp</text>
</a>
</g>
</g>
<!-- Node8&#45;&gt;Node11 -->
<g id="edge10_Node000008_Node000011" class="edge">
<title>Node8&#45;&gt;Node11</title>
<g id="a_edge10_Node000008_Node000011"><a xlink:title=" ">
<path fill="none" stroke="#63b8ff" d="M391.95,-275.99C367.51,-267.06 339.52,-254.9 332.5,-244 320.15,-224.82 341.89,-200.89 356.29,-188.08"/>
<polygon fill="#63b8ff" stroke="#63b8ff" points="390.54,-279.56 401.13,-279.61 392.88,-272.96 390.54,-279.56"/>
</a>
</g>
</g>
<!-- Node12 -->
<g id="Node000012" class="node">
<title>Node12</title>
<g id="a_Node000012"><a xlink:href="_params_from_s_d_8h.html" target="_top" xlink:title="Declares the functions to pull controller parameters from the SD card and defines the mapping to the ...">
<polygon fill="white" stroke="#666666" points="285.5,-244 191.5,-244 191.5,-224 285.5,-224 285.5,-244"/>
<text text-anchor="middle" x="238.5" y="-230.5" font-family="Helvetica,sans-Serif" font-size="10.00">ParamsFromSD.h</text>
</a>
</g>
</g>
<!-- Node8&#45;&gt;Node12 -->
<g id="edge11_Node000008_Node000012" class="edge">
<title>Node8&#45;&gt;Node12</title>
<g id="a_edge11_Node000008_Node000012"><a xlink:title=" ">
<path fill="none" stroke="#63b8ff" d="M390.09,-277.41C354.95,-267.58 305.15,-253.65 272.35,-244.47"/>
<polygon fill="#63b8ff" stroke="#63b8ff" points="388.92,-281 399.49,-280.32 390.8,-274.26 388.92,-281"/>
</a>
</g>
</g>
<!-- Node14 -->
<g id="Node000014" class="node">
<title>Node14</title>
<g id="a_Node000014"><a xlink:href="ble__commands_8h.html" target="_top" xlink:title="This file declares the BLE commands, and the functions that should be called when they are received.">
<polygon fill="white" stroke="#666666" points="398.63,-132 308.38,-132 308.38,-112 398.63,-112 398.63,-132"/>
<text text-anchor="middle" x="353.5" y="-118.5" font-family="Helvetica,sans-Serif" font-size="10.00">ble_commands.h</text>
</a>
</g>
</g>
<!-- Node8&#45;&gt;Node14 -->
<g id="edge26_Node000008_Node000014" class="edge">
<title>Node8&#45;&gt;Node14</title>
<g id="a_edge26_Node000008_Node000014"><a xlink:title=" ">
<path fill="none" stroke="#63b8ff" d="M432.75,-268.94C433.38,-243.61 431.31,-199.55 412.5,-168 403.13,-152.29 386.01,-140.16 372.61,-132.48"/>
<polygon fill="#63b8ff" stroke="#63b8ff" points="429.21,-268.59 432.28,-278.73 436.21,-268.89 429.21,-268.59"/>
</a>
</g>
</g>
<!-- Node8&#45;&gt;Node17 -->
<g id="edge27_Node000008_Node000017" class="edge">
<title>Node8&#45;&gt;Node17</title>
<g id="a_edge27_Node000008_Node000017"><a xlink:title=" ">
<path fill="none" stroke="#63b8ff" d="M389.79,-279.84C296.72,-263.19 264.73,-282.62 182.5,-244 153.58,-230.42 126.97,-202.78 114.29,-188.31"/>
<polygon fill="#63b8ff" stroke="#63b8ff" points="389.05,-283.45 399.52,-281.87 390.35,-276.57 389.05,-283.45"/>
</a>
</g>
</g>
<!-- Node22 -->
<g id="Node000022" class="node">
<title>Node22</title>
<g id="a_Node000022"><a xlink:href="_pi_logger_8h.html" target="_top" xlink:title=" ">
<polygon fill="white" stroke="#666666" points="403.75,-244 341.25,-244 341.25,-224 403.75,-224 403.75,-244"/>
<text text-anchor="middle" x="372.5" y="-230.5" font-family="Helvetica,sans-Serif" font-size="10.00">PiLogger.h</text>
</a>
</g>
</g>
<!-- Node8&#45;&gt;Node22 -->
<g id="edge25_Node000008_Node000022" class="edge">
<title>Node8&#45;&gt;Node22</title>
<g id="a_edge25_Node000008_Node000022"><a xlink:title=" ">
<path fill="none" stroke="#63b8ff" d="M413.37,-272.4C403.27,-263.17 391.08,-252.01 382.66,-244.3"/>
<polygon fill="#63b8ff" stroke="#63b8ff" points="410.48,-274.42 420.22,-278.59 415.21,-269.26 410.48,-274.42"/>
</a>
</g>
</g>
<!-- Node10 -->
<g id="Node000010" class="node">
<title>Node10</title>
<g id="a_Node000010"><a xlink:href="_coms_m_c_u_8cpp.html" target="_top" xlink:title=" ">
<polygon fill="white" stroke="#666666" points="574.5,-132 492.5,-132 492.5,-112 574.5,-112 574.5,-132"/>
<text text-anchor="middle" x="533.5" y="-118.5" font-family="Helvetica,sans-Serif" font-size="10.00">ComsMCU.cpp</text>
</a>
</g>
</g>
<!-- Node9&#45;&gt;Node10 -->
<g id="edge9_Node000009_Node000010" class="edge">
<title>Node9&#45;&gt;Node10</title>
<g id="a_edge9_Node000009_Node000010"><a xlink:title=" ">
<path fill="none" stroke="#63b8ff" d="M502.31,-213.3C510.55,-189.43 524.11,-150.2 530.27,-132.35"/>
<polygon fill="#63b8ff" stroke="#63b8ff" points="498.7,-212.03 498.74,-222.62 505.31,-214.31 498.7,-212.03"/>
</a>
</g>
</g>
<!-- Node12&#45;&gt;Node11 -->
<g id="edge12_Node000012_Node000011" class="edge">
<title>Node12&#45;&gt;Node11</title>
<g id="a_edge12_Node000012_Node000011"><a xlink:title=" ">
<path fill="none" stroke="#63b8ff" d="M270.98,-219.4C294.03,-209.75 324.39,-197.05 344.85,-188.48"/>
<polygon fill="#63b8ff" stroke="#63b8ff" points="269.84,-216.5 261.97,-223.59 272.55,-222.96 269.84,-216.5"/>
</a>
</g>
</g>
<!-- Node13 -->
<g id="Node000013" class="node">
<title>Node13</title>
<g id="a_Node000013"><a xlink:href="_params_from_s_d_8cpp.html" target="_top" xlink:title=" ">
<polygon fill="white" stroke="#666666" points="313.75,-188 209.25,-188 209.25,-168 313.75,-168 313.75,-188"/>
<text text-anchor="middle" x="261.5" y="-174.5" font-family="Helvetica,sans-Serif" font-size="10.00">ParamsFromSD.cpp</text>
</a>
</g>
</g>
<!-- Node12&#45;&gt;Node13 -->
<g id="edge13_Node000012_Node000013" class="edge">
<title>Node12&#45;&gt;Node13</title>
<g id="a_edge13_Node000012_Node000013"><a xlink:title=" ">
<path fill="none" stroke="#63b8ff" d="M246.77,-213.58C250.44,-204.97 254.58,-195.24 257.54,-188.3"/>
<polygon fill="#63b8ff" stroke="#63b8ff" points="243.2,-212.02 242.51,-222.59 249.65,-214.77 243.2,-212.02"/>
</a>
</g>
</g>
<!-- Node12&#45;&gt;Node14 -->
<g id="edge14_Node000012_Node000014" class="edge">
<title>Node12&#45;&gt;Node14</title>
<g id="a_edge14_Node000012_Node000014"><a xlink:title=" ">
<path fill="none" stroke="#63b8ff" d="M217.72,-216.32C203.41,-202.78 188.91,-183.49 200.5,-168 213.48,-150.65 267.77,-137.7 308.01,-130.25"/>
<polygon fill="#63b8ff" stroke="#63b8ff" points="215.1,-218.56 224.92,-222.54 219.73,-213.3 215.1,-218.56"/>
</a>
</g>
</g>
<!-- Node12&#45;&gt;Node17 -->
<g id="edge18_Node000012_Node000017" class="edge">
<title>Node12&#45;&gt;Node17</title>
<g id="a_edge18_Node000012_Node000017"><a xlink:title=" ">
<path fill="none" stroke="#63b8ff" d="M205.58,-219.53C181.96,-209.87 150.71,-197.08 129.67,-188.48"/>
<polygon fill="#63b8ff" stroke="#63b8ff" points="203.93,-223.05 214.51,-223.59 206.58,-216.57 203.93,-223.05"/>
</a>
</g>
</g>
<!-- Node15 -->
<g id="Node000015" class="node">
<title>Node15</title>
<g id="a_Node000015"><a xlink:href="_ble_parser_8cpp.html" target="_top" xlink:title=" ">
<polygon fill="white" stroke="#666666" points="392.25,-20 314.75,-20 314.75,0 392.25,0 392.25,-20"/>
<text text-anchor="middle" x="353.5" y="-6.5" font-family="Helvetica,sans-Serif" font-size="10.00">BleParser.cpp</text>
</a>
</g>
</g>
<!-- Node14&#45;&gt;Node15 -->
<g id="edge15_Node000014_Node000015" class="edge">
<title>Node14&#45;&gt;Node15</title>
<g id="a_edge15_Node000014_Node000015"><a xlink:title=" ">
<path fill="none" stroke="#63b8ff" d="M347.58,-101.23C345.54,-93.45 343.51,-84.38 342.5,-76 340.09,-56 346.19,-32.78 350.24,-20.22"/>
<polygon fill="#63b8ff" stroke="#63b8ff" points="344.48,-102.14 350.57,-110.81 351.22,-100.24 344.48,-102.14"/>
</a>
</g>
</g>
<!-- Node16 -->
<g id="Node000016" class="node">
<title>Node16</title>
<g id="a_Node000016"><a xlink:href="_ble_parser_8h.html" target="_top" xlink:title="This class is used to serialize and deserialize the BLE data. The application uses Nordic&#39;s UART serv...">
<polygon fill="white" stroke="#666666" points="418,-76 351,-76 351,-56 418,-56 418,-76"/>
<text text-anchor="middle" x="384.5" y="-62.5" font-family="Helvetica,sans-Serif" font-size="10.00">BleParser.h</text>
</a>
</g>
</g>
<!-- Node14&#45;&gt;Node16 -->
<g id="edge16_Node000014_Node000016" class="edge">
<title>Node14&#45;&gt;Node16</title>
<g id="a_edge16_Node000014_Node000016"><a xlink:title=" ">
<path fill="none" stroke="#63b8ff" d="M364.32,-102.15C369.34,-93.4 375.09,-83.39 379.16,-76.3"/>
<polygon fill="#63b8ff" stroke="#63b8ff" points="360.84,-100.18 358.9,-110.59 366.91,-103.66 360.84,-100.18"/>
</a>
</g>
</g>
<!-- Node16&#45;&gt;Node15 -->
<g id="edge17_Node000016_Node000015" class="edge">
<title>Node16&#45;&gt;Node15</title>
<g id="a_edge17_Node000016_Node000015"><a xlink:title=" ">
<path fill="none" stroke="#63b8ff" d="M373.68,-46.15C368.66,-37.4 362.91,-27.39 358.84,-20.3"/>
<polygon fill="#63b8ff" stroke="#63b8ff" points="371.09,-47.66 379.1,-54.59 377.16,-44.18 371.09,-47.66"/>
</a>
</g>
</g>
<!-- Node17&#45;&gt;Node10 -->
<g id="edge19_Node000017_Node000010" class="edge">
<title>Node17&#45;&gt;Node10</title>
<g id="a_edge19_Node000017_Node000010"><a xlink:title=" ">
<path fill="none" stroke="#63b8ff" d="M164.64,-169.65C252.24,-158.57 415.94,-137.87 492.3,-128.21"/>
<polygon fill="#63b8ff" stroke="#63b8ff" points="164.31,-166.29 154.83,-171.01 165.19,-173.23 164.31,-166.29"/>
</a>
</g>
</g>
<!-- Node17&#45;&gt;Node14 -->
<g id="edge24_Node000017_Node000014" class="edge">
<title>Node17&#45;&gt;Node14</title>
<g id="a_edge24_Node000017_Node000014"><a xlink:title=" ">
<path fill="none" stroke="#63b8ff" d="M160.53,-165.19C205.47,-155.36 268.59,-141.56 310.24,-132.46"/>
<polygon fill="#63b8ff" stroke="#63b8ff" points="159.83,-161.98 150.81,-167.53 161.32,-168.82 159.83,-161.98"/>
</a>
</g>
</g>
<!-- Node18 -->
<g id="Node000018" class="node">
<title>Node18</title>
<g id="a_Node000018"><a xlink:href="_error_reporter_8h.html" target="_top" xlink:title="Singleton class to report errors to the other microcontroller.">
<polygon fill="white" stroke="#666666" points="105.5,-132 23.5,-132 23.5,-112 105.5,-112 105.5,-132"/>
<text text-anchor="middle" x="64.5" y="-118.5" font-family="Helvetica,sans-Serif" font-size="10.00">ErrorReporter.h</text>
</a>
</g>
</g>
<!-- Node17&#45;&gt;Node18 -->
<g id="edge20_Node000017_Node000018" class="edge">
<title>Node17&#45;&gt;Node18</title>
<g id="a_edge20_Node000017_Node000018"><a xlink:title=" ">
<path fill="none" stroke="#63b8ff" d="M92.5,-159C85.55,-150.06 77.43,-139.62 71.73,-132.3"/>
<polygon fill="#63b8ff" stroke="#63b8ff" points="90.28,-160.85 99.18,-166.59 95.81,-156.55 90.28,-160.85"/>
</a>
</g>
</g>
<!-- Node21 -->
<g id="Node000021" class="node">
<title>Node21</title>
<g id="a_Node000021"><a xlink:href="_exo_8cpp.html" target="_top" xlink:title=" ">
<polygon fill="white" stroke="#666666" points="175.5,-132 123.5,-132 123.5,-112 175.5,-112 175.5,-132"/>
<text text-anchor="middle" x="149.5" y="-118.5" font-family="Helvetica,sans-Serif" font-size="10.00">Exo.cpp</text>
</a>
</g>
</g>
<!-- Node17&#45;&gt;Node21 -->
<g id="edge23_Node000017_Node000021" class="edge">
<title>Node17&#45;&gt;Node21</title>
<g id="a_edge23_Node000017_Node000021"><a xlink:title=" ">
<path fill="none" stroke="#63b8ff" d="M120.83,-159C127.95,-150.06 136.26,-139.62 142.1,-132.3"/>
<polygon fill="#63b8ff" stroke="#63b8ff" points="117.48,-156.59 113.99,-166.59 122.96,-160.95 117.48,-156.59"/>
</a>
</g>
</g>
<!-- Node19 -->
<g id="Node000019" class="node">
<title>Node19</title>
<g id="a_Node000019"><a xlink:href="_joint_8cpp.html" target="_top" xlink:title=" ">
<polygon fill="white" stroke="#666666" points="55,-76 0,-76 0,-56 55,-56 55,-76"/>
<text text-anchor="middle" x="27.5" y="-62.5" font-family="Helvetica,sans-Serif" font-size="10.00">Joint.cpp</text>
</a>
</g>
</g>
<!-- Node18&#45;&gt;Node19 -->
<g id="edge21_Node000018_Node000019" class="edge">
<title>Node18&#45;&gt;Node19</title>
<g id="a_edge21_Node000018_Node000019"><a xlink:title=" ">
<path fill="none" stroke="#63b8ff" d="M51.98,-102.72C45.89,-93.84 38.84,-83.55 33.87,-76.3"/>
<polygon fill="#63b8ff" stroke="#63b8ff" points="49.52,-104.32 58.06,-110.59 55.29,-100.37 49.52,-104.32"/>
</a>
</g>
</g>
<!-- Node20 -->
<g id="Node000020" class="node">
<title>Node20</title>
<g id="a_Node000020"><a xlink:href="_motor_8cpp.html" target="_top" xlink:title=" ">
<polygon fill="white" stroke="#666666" points="132.25,-76 72.75,-76 72.75,-56 132.25,-56 132.25,-76"/>
<text text-anchor="middle" x="102.5" y="-62.5" font-family="Helvetica,sans-Serif" font-size="10.00">Motor.cpp</text>
</a>
</g>
</g>
<!-- Node18&#45;&gt;Node20 -->
<g id="edge22_Node000018_Node000020" class="edge">
<title>Node18&#45;&gt;Node20</title>
<g id="a_edge22_Node000018_Node000020"><a xlink:title=" ">
<path fill="none" stroke="#63b8ff" d="M77.36,-102.72C83.61,-93.84 90.86,-83.55 95.96,-76.3"/>
<polygon fill="#63b8ff" stroke="#63b8ff" points="74.01,-100.4 71.12,-110.59 79.74,-104.43 74.01,-100.4"/>
</a>
</g>
</g>
<!-- Node25&#45;&gt;Node5 -->
<g id="edge35_Node000025_Node000005" class="edge">
<title>Node25&#45;&gt;Node5</title>
<g id="a_edge35_Node000025_Node000005"><a xlink:title=" ">
<path fill="none" stroke="#63b8ff" d="M304.72,-442.35C288,-432.84 266.7,-420.74 252.18,-412.48"/>
<polygon fill="#63b8ff" stroke="#63b8ff" points="302.53,-445.69 312.95,-447.59 305.99,-439.61 302.53,-445.69"/>
</a>
</g>
</g>
<!-- Node26 -->
<g id="Node000026" class="node">
<title>Node26</title>
<g id="a_Node000026"><a xlink:href="_motor_data_8cpp.html" target="_top" xlink:title=" ">
<polygon fill="white" stroke="#666666" points="365.38,-412 285.63,-412 285.63,-392 365.38,-392 365.38,-412"/>
<text text-anchor="middle" x="325.5" y="-398.5" font-family="Helvetica,sans-Serif" font-size="10.00">MotorData.cpp</text>
</a>
</g>
</g>
<!-- Node25&#45;&gt;Node26 -->
<g id="edge36_Node000025_Node000026" class="edge">
<title>Node25&#45;&gt;Node26</title>
<g id="a_edge36_Node000025_Node000026"><a xlink:title=" ">
<path fill="none" stroke="#63b8ff" d="M328.62,-436.71C327.84,-428.32 326.98,-419.01 326.36,-412.3"/>
<polygon fill="#63b8ff" stroke="#63b8ff" points="325.22,-436.96 329.63,-446.59 332.19,-436.31 325.22,-436.96"/>
</a>
</g>
</g>
<!-- Node27&#45;&gt;Node8 -->
<g id="edge39_Node000027_Node000008" class="edge">
<title>Node27&#45;&gt;Node8</title>
<g id="a_edge39_Node000027_Node000008"><a xlink:title=" ">
<path fill="none" stroke="#63b8ff" d="M570,-382C563.52,-367.7 552.92,-348.5 538.5,-336 516.57,-316.99 485.46,-305.13 462.43,-298.39"/>
<polygon fill="#63b8ff" stroke="#63b8ff" points="567.02,-382.94 574.14,-390.78 573.46,-380.21 567.02,-382.94"/>
</a>
</g>
</g>
<!-- Node27&#45;&gt;Node10 -->
<g id="edge38_Node000027_Node000010" class="edge">
<title>Node27&#45;&gt;Node10</title>
<g id="a_edge38_Node000027_Node000010"><a xlink:title=" ">
<path fill="none" stroke="#63b8ff" d="M624.73,-396.76C654.53,-391.66 691.75,-380.49 715.5,-356 736.45,-334.39 734.5,-321.1 734.5,-291 734.5,-291 734.5,-291 734.5,-233 734.5,-160.8 633.47,-135.68 574.66,-127.18"/>
<polygon fill="#63b8ff" stroke="#63b8ff" points="624.48,-393.4 615.12,-398.37 625.53,-400.33 624.48,-393.4"/>
</a>
</g>
</g>
<!-- Node27&#45;&gt;Node14 -->
<g id="edge44_Node000027_Node000014" class="edge">
<title>Node27&#45;&gt;Node14</title>
<g id="a_edge44_Node000027_Node000014"><a xlink:title=" ">
<path fill="none" stroke="#63b8ff" d="M578.51,-381.11C579.26,-345.87 576.09,-271.72 540.5,-224 502.89,-173.57 432.43,-145.51 389.56,-132.4"/>
<polygon fill="#63b8ff" stroke="#63b8ff" points="574.98,-380.72 578.12,-390.84 581.98,-380.97 574.98,-380.72"/>
</a>
</g>
</g>
<!-- Node28 -->
<g id="Node000028" class="node">
<title>Node28</title>
<g id="a_Node000028"><a xlink:href="_status_defs_8cpp.html" target="_top" xlink:title=" ">
<polygon fill="white" stroke="#666666" points="706.88,-356 624.13,-356 624.13,-336 706.88,-336 706.88,-356"/>
<text text-anchor="middle" x="665.5" y="-342.5" font-family="Helvetica,sans-Serif" font-size="10.00">StatusDefs.cpp</text>
</a>
</g>
</g>
<!-- Node27&#45;&gt;Node28 -->
<g id="edge40_Node000027_Node000028" class="edge">
<title>Node27&#45;&gt;Node28</title>
<g id="a_edge40_Node000027_Node000028"><a xlink:title=" ">
<path fill="none" stroke="#63b8ff" d="M601.81,-386.08C617.24,-376.62 636.72,-364.66 650.05,-356.48"/>
<polygon fill="#63b8ff" stroke="#63b8ff" points="600.52,-383.38 593.83,-391.59 604.18,-389.35 600.52,-383.38"/>
</a>
</g>
</g>
<!-- Node27&#45;&gt;Node29 -->
<g id="edge41_Node000027_Node000029" class="edge">
<title>Node27&#45;&gt;Node29</title>
<g id="a_edge41_Node000027_Node000029"><a xlink:title=" ">
<path fill="none" stroke="#63b8ff" d="M554.44,-385.81C540.13,-376.39 522.2,-364.58 509.89,-356.48"/>
<polygon fill="#63b8ff" stroke="#63b8ff" points="551.94,-389.02 562.22,-391.59 555.79,-383.17 551.94,-389.02"/>
</a>
</g>
</g>
<!-- Node29&#45;&gt;Node8 -->
<g id="edge43_Node000029_Node000008" class="edge">
<title>Node29&#45;&gt;Node8</title>
<g id="a_edge43_Node000029_Node000008"><a xlink:title=" ">
<path fill="none" stroke="#63b8ff" d="M476.16,-328.68C465.15,-319.39 451.75,-308.09 442.52,-300.3"/>
<polygon fill="#63b8ff" stroke="#63b8ff" points="473.45,-331.82 483.35,-335.59 477.97,-326.47 473.45,-331.82"/>
</a>
</g>
</g>
<!-- Node29&#45;&gt;Node10 -->
<g id="edge42_Node000029_Node000010" class="edge">
<title>Node29&#45;&gt;Node10</title>
<g id="a_edge42_Node000029_Node000010"><a xlink:title=" ">
<path fill="none" stroke="#63b8ff" d="M506.65,-326.42C517.75,-306.74 534.03,-274.4 540.5,-244 549.21,-203.04 540.15,-152.65 535.68,-132.23"/>
<polygon fill="#63b8ff" stroke="#63b8ff" points="503.25,-324.3 501.25,-334.71 509.3,-327.82 503.25,-324.3"/>
</a>
</g>
</g>
</g>
</svg>

<g id="navigator" transform="translate(0 0)" fill="#404254">
  <rect fill="#f2f5e9" fill-opacity="0.5" stroke="#606060" stroke-width=".5" x="0" y="0" width="60" height="60"/>
  <use id="zoomplus" xlink:href="#zoomPlus" x="17" y="9" onmousedown="handleZoom(evt,'in')"/>
  <use id="zoomminus" xlink:href="#zoomMin" x="42" y="9" onmousedown="handleZoom(evt,'out')"/>
  <use id="reset" xlink:href="#resetDef" x="30" y="36" onmousedown="handleReset()"/>
   <use id="arrowup" xlink:href="#arrowUp" x="0" y="0" onmousedown="handlePan(0,-1)"/>
  <use id="arrowright" xlink:href="#arrowRight" x="0" y="0" onmousedown="handlePan(1,0)"/>
  <use id="arrowdown" xlink:href="#arrowDown" x="0" y="0" onmousedown="handlePan(0,1)"/>
  <use id="arrowleft" xlink:href="#arrowLeft" x="0" y="0" onmousedown="handlePan(-1,0)"/>
</g>
<svg viewBox="0 0 15 15" width="100%" height="30px" preserveAspectRatio="xMaxYMin meet">
 <g id="arrow_out" transform="scale(0.3 0.3)">
  <a xlink:href="_board_8h__dep__incl_org.svg" target="_base">
   <rect id="button" ry="5" rx="5" y="6" x="6" height="38" width="38"
        fill="#f2f5e9" fill-opacity="0.5" stroke="#606060" stroke-width="1.0"/>
   <path id="arrow"
     d="M 11.500037,31.436501 C 11.940474,20.09759 22.043105,11.32322 32.158766,21.979434 L 37.068811,17.246167 C 37.068811,17.246167 37.088388,32 37.088388,32 L 22.160133,31.978069 C 22.160133,31.978069 26.997745,27.140456 26.997745,27.140456 C 18.528582,18.264221 13.291696,25.230495 11.500037,31.436501 z"
     style="fill:#404040;"/>
  </a>
 </g>
</svg>

<style type='text/css'>
<![CDATA[
[data-mouse-over-selected='false'] { opacity: 0.7; }
[data-mouse-over-selected='true']  { opacity: 1.0; }
]]>
</style>
<script type="application/ecmascript"><![CDATA[
document.addEventListener('DOMContentLoaded', (event) => {
  highlightEdges();
  highlightAdjacentNodes();
});
]]></script>
</svg>
