<?xml version="1.0" encoding="UTF-8" standalone="no"?>
<!DOCTYPE svg PUBLIC "-//W3C//DTD SVG 1.1//EN"
 "http://www.w3.org/Graphics/SVG/1.1/DTD/svg11.dtd">
<!-- Generated by graphviz version 8.1.0 (20230707.0739)
 -->
<!-- Title: ComsLed.h Pages: 1 -->
<svg width="184pt" height="84pt"
 viewBox="0.00 0.00 184.00 84.00" xmlns="http://www.w3.org/2000/svg" xmlns:xlink="http://www.w3.org/1999/xlink">
<g id="graph0" class="graph" transform="scale(1 1) rotate(0) translate(4 80)">
<title>ComsLed.h</title>
<!-- Node1 -->
<g id="Node000001" class="node">
<title>Node1</title>
<g id="a_Node000001"><a xlink:title="This class is used to control the LED on the coms board. It uses the singleton pattern.">
<polygon fill="#999999" stroke="#666666" points="118.75,-76 53.25,-76 53.25,-56 118.75,-56 118.75,-76"/>
<text text-anchor="middle" x="86" y="-62.5" font-family="Helvetica,sans-Serif" font-size="10.00">ComsLed.h</text>
</a>
</g>
</g>
<!-- Node2 -->
<g id="Node000002" class="node">
<title>Node2</title>
<g id="a_Node000002"><a xlink:href="_coms_led_8cpp.html" target="_top" xlink:title=" ">
<polygon fill="white" stroke="#666666" points="76,-20 0,-20 0,0 76,0 76,-20"/>
<text text-anchor="middle" x="38" y="-6.5" font-family="Helvetica,sans-Serif" font-size="10.00">ComsLed.cpp</text>
</a>
</g>
</g>
<!-- Node1&#45;&gt;Node2 -->
<g id="edge1_Node000001_Node000002" class="edge">
<title>Node1&#45;&gt;Node2</title>
<g id="a_edge1_Node000001_Node000002"><a xlink:title=" ">
<path fill="none" stroke="#63b8ff" d="M70.5,-47.57C62.44,-38.5 52.91,-27.78 46.27,-20.3"/>
<polygon fill="#63b8ff" stroke="#63b8ff" points="67.38,-49.45 76.64,-54.59 72.61,-44.79 67.38,-49.45"/>
</a>
</g>
</g>
<!-- Node3 -->
<g id="Node000003" class="node">
<title>Node3</title>
<g id="a_Node000003"><a xlink:href="_coms_m_c_u_8cpp.html" target="_top" xlink:title=" ">
<polygon fill="white" stroke="#666666" points="176,-20 94,-20 94,0 176,0 176,-20"/>
<text text-anchor="middle" x="135" y="-6.5" font-family="Helvetica,sans-Serif" font-size="10.00">ComsMCU.cpp</text>
</a>
</g>
</g>
<!-- Node1&#45;&gt;Node3 -->
<g id="edge2_Node000001_Node000003" class="edge">
<title>Node1&#45;&gt;Node3</title>
<g id="a_edge2_Node000001_Node000003"><a xlink:title=" ">
<path fill="none" stroke="#63b8ff" d="M101.82,-47.57C110.05,-38.5 119.78,-27.78 126.56,-20.3"/>
<polygon fill="#63b8ff" stroke="#63b8ff" points="99.66,-44.84 95.54,-54.59 104.85,-49.54 99.66,-44.84"/>
</a>
</g>
</g>
</g>
</svg>
