<?xml version="1.0" encoding="UTF-8" standalone="no"?>
<!DOCTYPE svg PUBLIC "-//W3C//DTD SVG 1.1//EN"
 "http://www.w3.org/Graphics/SVG/1.1/DTD/svg11.dtd">
<!-- Generated by graphviz version 8.1.0 (20230707.0739)
 -->
<!-- Title: ComsMCU.h Pages: 1 -->
<svg width="1291pt" height="420pt"
 viewBox="0.00 0.00 1291.13 420.00" xmlns="http://www.w3.org/2000/svg" xmlns:xlink="http://www.w3.org/1999/xlink">
<g id="graph0" class="graph" transform="scale(1 1) rotate(0) translate(4 416)">
<title>ComsMCU.h</title>
<!-- Node1 -->
<g id="Node000001" class="node">
<title>Node1</title>
<g id="a_Node000001"><a xlink:title="The top of the composite structure for the communication microcontroller. This class manages the blue...">
<polygon fill="#999999" stroke="#666666" points="1061.75,-412 990.25,-412 990.25,-392 1061.75,-392 1061.75,-412"/>
<text text-anchor="middle" x="1026" y="-398.5" font-family="Helvetica,sans-Serif" font-size="10.00">ComsMCU.h</text>
</a>
</g>
</g>
<!-- Node2 -->
<g id="Node000002" class="node">
<title>Node2</title>
<g id="a_Node000002"><a xlink:title=" ">
<polygon fill="#e0e0e0" stroke="#999999" points="276.63,-20 219.38,-20 219.38,0 276.63,0 276.63,-20"/>
<text text-anchor="middle" x="248" y="-6.5" font-family="Helvetica,sans-Serif" font-size="10.00">Arduino.h</text>
</a>
</g>
</g>
<!-- Node1&#45;&gt;Node2 -->
<g id="edge1_Node000001_Node000002" class="edge">
<title>Node1&#45;&gt;Node2</title>
<g id="a_edge1_Node000001_Node000002"><a xlink:title=" ">
<path fill="none" stroke="#63b8ff" d="M989.79,-401C807.6,-400.53 0,-392.72 0,-291 0,-291 0,-291 0,-121 0,-30.91 138.44,-14.04 208.45,-11.26"/>
<polygon fill="#63b8ff" stroke="#63b8ff" points="208.18,-14.74 218.07,-10.93 207.96,-7.74 208.18,-14.74"/>
</a>
</g>
</g>
<!-- Node3 -->
<g id="Node000003" class="node">
<title>Node3</title>
<g id="a_Node000003"><a xlink:href="_exo_b_l_e_8h.html" target="_top" xlink:title="Class to handle all bluetooth work. This include initialization, advertising, connection,...">
<polygon fill="white" stroke="#666666" points="1132.13,-356 1071.88,-356 1071.88,-336 1132.13,-336 1132.13,-356"/>
<text text-anchor="middle" x="1102" y="-342.5" font-family="Helvetica,sans-Serif" font-size="10.00">ExoBLE.h</text>
</a>
</g>
</g>
<!-- Node1&#45;&gt;Node3 -->
<g id="edge2_Node000001_Node000003" class="edge">
<title>Node1&#45;&gt;Node3</title>
<g id="a_edge2_Node000001_Node000003"><a xlink:title=" ">
<path fill="none" stroke="#63b8ff" d="M1039.24,-391.59C1050.39,-383.67 1066.59,-372.16 1079.74,-362.82"/>
<polygon fill="#63b8ff" stroke="#63b8ff" points="1081.53,-365.12 1087.66,-356.48 1077.48,-359.42 1081.53,-365.12"/>
</a>
</g>
</g>
<!-- Node4 -->
<g id="Node000004" class="node">
<title>Node4</title>
<g id="a_Node000004"><a xlink:href="_battery_8h.html" target="_top" xlink:title="Defines the battery interface and implements the child battery classes.">
<polygon fill="white" stroke="#666666" points="1053.88,-356 998.13,-356 998.13,-336 1053.88,-336 1053.88,-356"/>
<text text-anchor="middle" x="1026" y="-342.5" font-family="Helvetica,sans-Serif" font-size="10.00">Battery.h</text>
</a>
</g>
</g>
<!-- Node1&#45;&gt;Node4 -->
<g id="edge3_Node000001_Node000004" class="edge">
<title>Node1&#45;&gt;Node4</title>
<g id="a_edge3_Node000001_Node000004"><a xlink:title=" ">
<path fill="none" stroke="#63b8ff" d="M1026,-391.59C1026,-384.86 1026,-375.53 1026,-367.15"/>
<polygon fill="#63b8ff" stroke="#63b8ff" points="1029.5,-367.3 1026,-357.3 1022.5,-367.3 1029.5,-367.3"/>
</a>
</g>
</g>
<!-- Node6 -->
<g id="Node000006" class="node">
<title>Node6</title>
<g id="a_Node000006"><a xlink:href="_ble_message_8h.html" target="_top" xlink:title="Defines the BleMessage class used to hold command&#45;data pairs exchanged between the GUI.">
<polygon fill="white" stroke="#666666" points="1283.13,-300 1204.88,-300 1204.88,-280 1283.13,-280 1283.13,-300"/>
<text text-anchor="middle" x="1244" y="-286.5" font-family="Helvetica,sans-Serif" font-size="10.00">BleMessage.h</text>
</a>
</g>
</g>
<!-- Node1&#45;&gt;Node6 -->
<g id="edge6_Node000001_Node000006" class="edge">
<title>Node1&#45;&gt;Node6</title>
<g id="a_edge6_Node000001_Node000006"><a xlink:title=" ">
<path fill="none" stroke="#63b8ff" d="M1061.94,-399.68C1122.42,-396.61 1240.48,-386.75 1266,-356 1277.13,-342.59 1268.36,-323.29 1258.8,-309.2"/>
<polygon fill="#63b8ff" stroke="#63b8ff" points="1261.05,-307.37 1252.29,-301.42 1255.43,-311.54 1261.05,-307.37"/>
</a>
</g>
</g>
<!-- Node7 -->
<g id="Node000007" class="node">
<title>Node7</title>
<g id="a_Node000007"><a xlink:href="_parse_ini_8h.html" target="_top" xlink:title="Declares the functions needed and defines mapping between the INI keys and the exo components.">
<polygon fill="white" stroke="#666666" points="867.75,-132 808.25,-132 808.25,-112 867.75,-112 867.75,-132"/>
<text text-anchor="middle" x="838" y="-118.5" font-family="Helvetica,sans-Serif" font-size="10.00">ParseIni.h</text>
</a>
</g>
</g>
<!-- Node1&#45;&gt;Node7 -->
<g id="edge7_Node000001_Node000007" class="edge">
<title>Node1&#45;&gt;Node7</title>
<g id="a_edge7_Node000001_Node000007"><a xlink:title=" ">
<path fill="none" stroke="#63b8ff" d="M1016.53,-391.82C1008.19,-383.26 996.28,-369.77 989,-356 974.93,-329.39 970,-321.1 970,-291 970,-291 970,-291 970,-233 970,-184.12 915.92,-152.75 876.99,-136.5"/>
<polygon fill="#63b8ff" stroke="#63b8ff" points="878.55,-132.95 867.97,-132.5 875.96,-139.45 878.55,-132.95"/>
</a>
</g>
</g>
<!-- Node9 -->
<g id="Node000009" class="node">
<title>Node9</title>
<g id="a_Node000009"><a xlink:href="_exo_data_8h.html" target="_top" xlink:title="Declares a class used to store data for the Exo to access.">
<polygon fill="white" stroke="#666666" points="372.88,-356 311.13,-356 311.13,-336 372.88,-336 372.88,-356"/>
<text text-anchor="middle" x="342" y="-342.5" font-family="Helvetica,sans-Serif" font-size="10.00">ExoData.h</text>
</a>
</g>
</g>
<!-- Node1&#45;&gt;Node9 -->
<g id="edge9_Node000001_Node000009" class="edge">
<title>Node1&#45;&gt;Node9</title>
<g id="a_edge9_Node000001_Node000009"><a xlink:title=" ">
<path fill="none" stroke="#63b8ff" d="M990.19,-398.17C874.1,-389.01 508.52,-360.15 384.01,-350.32"/>
<polygon fill="#63b8ff" stroke="#63b8ff" points="384.31,-346.75 374.07,-349.45 383.76,-353.73 384.31,-346.75"/>
</a>
</g>
</g>
<!-- Node22 -->
<g id="Node000022" class="node">
<title>Node22</title>
<g id="a_Node000022"><a xlink:href="_ble_message_queue_8h.html" target="_top" xlink:title="Defines a FIFO queue for the BLEMessage type. The maximum size is specified in the cpp.">
<polygon fill="white" stroke="#666666" points="1257.38,-356 1150.63,-356 1150.63,-336 1257.38,-336 1257.38,-356"/>
<text text-anchor="middle" x="1204" y="-342.5" font-family="Helvetica,sans-Serif" font-size="10.00">BleMessageQueue.h</text>
</a>
</g>
</g>
<!-- Node1&#45;&gt;Node22 -->
<g id="edge50_Node000001_Node000022" class="edge">
<title>Node1&#45;&gt;Node22</title>
<g id="a_edge50_Node000001_Node000022"><a xlink:title=" ">
<path fill="none" stroke="#63b8ff" d="M1057.01,-391.59C1086.18,-382.74 1130.08,-369.43 1162.31,-359.65"/>
<polygon fill="#63b8ff" stroke="#63b8ff" points="1163.2,-362.73 1171.75,-356.48 1161.17,-356.03 1163.2,-362.73"/>
</a>
</g>
</g>
<!-- Node5 -->
<g id="Node000005" class="node">
<title>Node5</title>
<g id="a_Node000005"><a xlink:href="_i2_c_handler_8h.html" target="_top" xlink:title="This file defines the I2CHandler which is using the singleton pattern. To use you must first get a re...">
<polygon fill="white" stroke="#666666" points="1107.75,-132 1036.25,-132 1036.25,-112 1107.75,-112 1107.75,-132"/>
<text text-anchor="middle" x="1072" y="-118.5" font-family="Helvetica,sans-Serif" font-size="10.00">I2CHandler.h</text>
</a>
</g>
</g>
<!-- Node4&#45;&gt;Node5 -->
<g id="edge4_Node000004_Node000005" class="edge">
<title>Node4&#45;&gt;Node5</title>
<g id="a_edge4_Node000004_Node000005"><a xlink:title=" ">
<path fill="none" stroke="#63b8ff" d="M1027.92,-335.74C1034.79,-302.6 1058.25,-189.35 1067.85,-143.01"/>
<polygon fill="#63b8ff" stroke="#63b8ff" points="1071.47,-143.8 1070.07,-133.3 1064.62,-142.38 1071.47,-143.8"/>
</a>
</g>
</g>
<!-- Node5&#45;&gt;Node2 -->
<g id="edge5_Node000005_Node000002" class="edge">
<title>Node5&#45;&gt;Node2</title>
<g id="a_edge5_Node000005_Node000002"><a xlink:title=" ">
<path fill="none" stroke="#63b8ff" d="M1045.51,-111.53C1003.15,-96.84 917.25,-68.92 842,-56 600.97,-14.63 532.17,-56.25 287.64,-20.16"/>
<polygon fill="#63b8ff" stroke="#63b8ff" points="288.4,-16.59 277.99,-18.56 287.36,-23.51 288.4,-16.59"/>
</a>
</g>
</g>
<!-- Node8 -->
<g id="Node000008" class="node">
<title>Node8</title>
<g id="a_Node000008"><a xlink:title=" ">
<polygon fill="#e0e0e0" stroke="#999999" points="833.13,-76 784.88,-76 784.88,-56 833.13,-56 833.13,-76"/>
<text text-anchor="middle" x="809" y="-62.5" font-family="Helvetica,sans-Serif" font-size="10.00">stdint.h</text>
</a>
</g>
</g>
<!-- Node7&#45;&gt;Node8 -->
<g id="edge8_Node000007_Node000008" class="edge">
<title>Node7&#45;&gt;Node8</title>
<g id="a_edge8_Node000007_Node000008"><a xlink:title=" ">
<path fill="none" stroke="#63b8ff" d="M832.95,-111.59C829.12,-104.47 823.74,-94.45 819.05,-85.72"/>
<polygon fill="#63b8ff" stroke="#63b8ff" points="821.81,-84.45 813.99,-77.3 815.64,-87.76 821.81,-84.45"/>
</a>
</g>
</g>
<!-- Node9&#45;&gt;Node2 -->
<g id="edge10_Node000009_Node000002" class="edge">
<title>Node9&#45;&gt;Node2</title>
<g id="a_edge10_Node000009_Node000002"><a xlink:title=" ">
<path fill="none" stroke="#63b8ff" d="M310.9,-340.54C233.42,-328.55 38,-292.6 38,-235 38,-235 38,-235 38,-121 38,-44.86 147.65,-21.32 208.49,-14.12"/>
<polygon fill="#63b8ff" stroke="#63b8ff" points="208.68,-17.51 218.24,-12.96 207.92,-10.55 208.68,-17.51"/>
</a>
</g>
</g>
<!-- Node9&#45;&gt;Node7 -->
<g id="edge41_Node000009_Node000007" class="edge">
<title>Node9&#45;&gt;Node7</title>
<g id="a_edge41_Node000009_Node000007"><a xlink:title=" ">
<path fill="none" stroke="#63b8ff" d="M373.24,-339.37C440.26,-326.75 602.17,-293.4 731,-244 781.48,-224.64 810.91,-234.2 839,-188 847.16,-174.57 846.15,-156.53 843.53,-142.86"/>
<polygon fill="#63b8ff" stroke="#63b8ff" points="846.71,-142.12 841,-133.2 839.9,-143.73 846.71,-142.12"/>
</a>
</g>
</g>
<!-- Node9&#45;&gt;Node8 -->
<g id="edge40_Node000009_Node000008" class="edge">
<title>Node9&#45;&gt;Node8</title>
<g id="a_edge40_Node000009_Node000008"><a xlink:title=" ">
<path fill="none" stroke="#63b8ff" d="M373.23,-343.19C504.9,-335.16 1008,-300.19 1008,-235 1008,-235 1008,-235 1008,-177 1008,-139.91 900.8,-98.01 843.76,-78.34"/>
<polygon fill="#63b8ff" stroke="#63b8ff" points="845,-74.72 834.4,-74.82 842.74,-81.35 845,-74.72"/>
</a>
</g>
</g>
<!-- Node10 -->
<g id="Node000010" class="node">
<title>Node10</title>
<g id="a_Node000010"><a xlink:href="_leg_data_8h.html" target="_top" xlink:title="Declares a class used to store data for leg to access.">
<polygon fill="white" stroke="#666666" points="434.13,-300 373.88,-300 373.88,-280 434.13,-280 434.13,-300"/>
<text text-anchor="middle" x="404" y="-286.5" font-family="Helvetica,sans-Serif" font-size="10.00">LegData.h</text>
</a>
</g>
</g>
<!-- Node9&#45;&gt;Node10 -->
<g id="edge11_Node000009_Node000010" class="edge">
<title>Node9&#45;&gt;Node10</title>
<g id="a_edge11_Node000009_Node000010"><a xlink:title=" ">
<path fill="none" stroke="#63b8ff" d="M352.8,-335.59C361.69,-327.85 374.51,-316.69 385.09,-307.47"/>
<polygon fill="#63b8ff" stroke="#63b8ff" points="387.08,-309.51 392.32,-300.3 382.48,-304.23 387.08,-309.51"/>
</a>
</g>
</g>
<!-- Node13 -->
<g id="Node000013" class="node">
<title>Node13</title>
<g id="a_Node000013"><a xlink:href="_board_8h.html" target="_top" xlink:title="Defines the pins and peripherals for the board being used.">
<polygon fill="white" stroke="#666666" points="326.88,-132 277.13,-132 277.13,-112 326.88,-112 326.88,-132"/>
<text text-anchor="middle" x="302" y="-118.5" font-family="Helvetica,sans-Serif" font-size="10.00">Board.h</text>
</a>
</g>
</g>
<!-- Node9&#45;&gt;Node13 -->
<g id="edge42_Node000009_Node000013" class="edge">
<title>Node9&#45;&gt;Node13</title>
<g id="a_edge42_Node000009_Node000013"><a xlink:title=" ">
<path fill="none" stroke="#63b8ff" d="M339.39,-335.53C332.81,-311.24 315.45,-244.62 307,-188 304.77,-173.07 303.51,-156.05 302.81,-143.18"/>
<polygon fill="#63b8ff" stroke="#63b8ff" points="306.26,-143.13 302.3,-133.3 299.27,-143.46 306.26,-143.13"/>
</a>
</g>
</g>
<!-- Node20 -->
<g id="Node000020" class="node">
<title>Node20</title>
<g id="a_Node000020"><a xlink:href="_status_led_8h.html" target="_top" xlink:title="Class to set an RGB LED to different colors based on the state of the system.">
<polygon fill="white" stroke="#666666" points="198.25,-244 129.75,-244 129.75,-224 198.25,-224 198.25,-244"/>
<text text-anchor="middle" x="164" y="-230.5" font-family="Helvetica,sans-Serif" font-size="10.00">StatusLed.h</text>
</a>
</g>
</g>
<!-- Node9&#45;&gt;Node20 -->
<g id="edge43_Node000009_Node000020" class="edge">
<title>Node9&#45;&gt;Node20</title>
<g id="a_edge43_Node000009_Node000020"><a xlink:title=" ">
<path fill="none" stroke="#63b8ff" d="M325.9,-335.67C310.45,-326.67 286.51,-312.6 266,-300 238.82,-283.3 207.97,-263.52 187.39,-250.21"/>
<polygon fill="#63b8ff" stroke="#63b8ff" points="189.73,-246.91 179.43,-244.41 185.92,-252.78 189.73,-246.91"/>
</a>
</g>
</g>
<!-- Node21 -->
<g id="Node000021" class="node">
<title>Node21</title>
<g id="a_Node000021"><a xlink:href="_status_defs_8h.html" target="_top" xlink:title="Stores the different status messages for the system.">
<polygon fill="white" stroke="#666666" points="138.13,-188 65.88,-188 65.88,-168 138.13,-168 138.13,-188"/>
<text text-anchor="middle" x="102" y="-174.5" font-family="Helvetica,sans-Serif" font-size="10.00">StatusDefs.h</text>
</a>
</g>
</g>
<!-- Node9&#45;&gt;Node21 -->
<g id="edge49_Node000009_Node000021" class="edge">
<title>Node9&#45;&gt;Node21</title>
<g id="a_edge49_Node000009_Node000021"><a xlink:title=" ">
<path fill="none" stroke="#63b8ff" d="M310.75,-339.63C262.53,-329.65 170.4,-303.6 121,-244 110.55,-231.4 105.85,-213.28 103.73,-199.37"/>
<polygon fill="#63b8ff" stroke="#63b8ff" points="107.1,-199 102.46,-189.48 100.14,-199.82 107.1,-199"/>
</a>
</g>
</g>
<!-- Node10&#45;&gt;Node2 -->
<g id="edge12_Node000010_Node000002" class="edge">
<title>Node10&#45;&gt;Node2</title>
<g id="a_edge12_Node000010_Node000002"><a xlink:title=" ">
<path fill="none" stroke="#63b8ff" d="M381.17,-279.53C364.8,-271.85 343.06,-259.72 328,-244 271.8,-185.34 269.49,-156.11 256,-76 253.48,-61.05 251.42,-44.03 250.02,-31.16"/>
<polygon fill="#63b8ff" stroke="#63b8ff" points="253.4,-30.88 248.88,-21.29 246.44,-31.6 253.4,-30.88"/>
</a>
</g>
</g>
<!-- Node10&#45;&gt;Node7 -->
<g id="edge33_Node000010_Node000007" class="edge">
<title>Node10&#45;&gt;Node7</title>
<g id="a_edge33_Node000010_Node000007"><a xlink:title=" ">
<path fill="none" stroke="#63b8ff" d="M434.56,-285.6C520.7,-275.42 762.84,-242.43 818,-188 829.95,-176.21 834.79,-157.46 836.74,-143.13"/>
<polygon fill="#63b8ff" stroke="#63b8ff" points="840.3,-143.66 837.79,-133.37 833.34,-142.98 840.3,-143.66"/>
</a>
</g>
</g>
<!-- Node10&#45;&gt;Node8 -->
<g id="edge39_Node000010_Node000008" class="edge">
<title>Node10&#45;&gt;Node8</title>
<g id="a_edge39_Node000010_Node000008"><a xlink:title=" ">
<path fill="none" stroke="#63b8ff" d="M434.51,-288.25C493.26,-286.06 625.59,-277.48 731,-244 782.53,-227.63 798.58,-223.91 839,-188 867.23,-162.92 894.88,-145.27 877,-112 869.68,-98.39 856.24,-88.2 843.23,-80.99"/>
<polygon fill="#63b8ff" stroke="#63b8ff" points="844.97,-77.45 834.47,-76.06 841.81,-83.69 844.97,-77.45"/>
</a>
</g>
</g>
<!-- Node11 -->
<g id="Node000011" class="node">
<title>Node11</title>
<g id="a_Node000011"><a xlink:href="_joint_data_8h.html" target="_top" xlink:title="Declares a class used to store data for joint to access.">
<polygon fill="white" stroke="#666666" points="618.38,-244 553.63,-244 553.63,-224 618.38,-224 618.38,-244"/>
<text text-anchor="middle" x="586" y="-230.5" font-family="Helvetica,sans-Serif" font-size="10.00">JointData.h</text>
</a>
</g>
</g>
<!-- Node10&#45;&gt;Node11 -->
<g id="edge13_Node000010_Node000011" class="edge">
<title>Node10&#45;&gt;Node11</title>
<g id="a_edge13_Node000010_Node000011"><a xlink:title=" ">
<path fill="none" stroke="#63b8ff" d="M434.46,-279.96C464.41,-271.08 510.37,-257.44 543.83,-247.51"/>
<polygon fill="#63b8ff" stroke="#63b8ff" points="544.62,-250.63 553.21,-244.43 542.63,-243.92 544.62,-250.63"/>
</a>
</g>
</g>
<!-- Node10&#45;&gt;Node13 -->
<g id="edge34_Node000010_Node000013" class="edge">
<title>Node10&#45;&gt;Node13</title>
<g id="a_edge34_Node000010_Node000013"><a xlink:title=" ">
<path fill="none" stroke="#63b8ff" d="M385.89,-279.65C372.33,-271.8 354.26,-259.41 343,-244 320.3,-212.92 309.53,-168.38 304.96,-142.91"/>
<polygon fill="#63b8ff" stroke="#63b8ff" points="308.3,-142.67 303.22,-133.37 301.39,-143.81 308.3,-142.67"/>
</a>
</g>
</g>
<!-- Node18 -->
<g id="Node000018" class="node">
<title>Node18</title>
<g id="a_Node000018"><a xlink:href="_inclination_detector_8h.html" target="_top" xlink:title=" ">
<polygon fill="white" stroke="#666666" points="456.25,-244 351.75,-244 351.75,-224 456.25,-224 456.25,-244"/>
<text text-anchor="middle" x="404" y="-230.5" font-family="Helvetica,sans-Serif" font-size="10.00">InclinationDetector.h</text>
</a>
</g>
</g>
<!-- Node10&#45;&gt;Node18 -->
<g id="edge35_Node000010_Node000018" class="edge">
<title>Node10&#45;&gt;Node18</title>
<g id="a_edge35_Node000010_Node000018"><a xlink:title=" ">
<path fill="none" stroke="#63b8ff" d="M404,-279.59C404,-272.86 404,-263.53 404,-255.15"/>
<polygon fill="#63b8ff" stroke="#63b8ff" points="407.5,-255.3 404,-245.3 400.5,-255.3 407.5,-255.3"/>
</a>
</g>
</g>
<!-- Node11&#45;&gt;Node2 -->
<g id="edge14_Node000011_Node000002" class="edge">
<title>Node11&#45;&gt;Node2</title>
<g id="a_edge14_Node000011_Node000002"><a xlink:title=" ">
<path fill="none" stroke="#63b8ff" d="M578.31,-223.54C567.29,-210.29 546,-185.83 525,-168 456.87,-110.16 436.87,-98.02 358,-56 334.68,-43.58 307.17,-32.32 285.49,-24.18"/>
<polygon fill="#63b8ff" stroke="#63b8ff" points="286.96,-20.62 276.37,-20.44 284.53,-27.18 286.96,-20.62"/>
</a>
</g>
</g>
<!-- Node11&#45;&gt;Node7 -->
<g id="edge29_Node000011_Node000007" class="edge">
<title>Node11&#45;&gt;Node7</title>
<g id="a_edge29_Node000011_Node000007"><a xlink:title=" ">
<path fill="none" stroke="#63b8ff" d="M618.83,-233.22C662.46,-231.99 740.28,-224.31 794,-188 810.72,-176.7 822.81,-156.73 830.04,-141.9"/>
<polygon fill="#63b8ff" stroke="#63b8ff" points="833.5,-143.75 834.45,-133.2 827.13,-140.86 833.5,-143.75"/>
</a>
</g>
</g>
<!-- Node11&#45;&gt;Node8 -->
<g id="edge31_Node000011_Node000008" class="edge">
<title>Node11&#45;&gt;Node8</title>
<g id="a_edge31_Node000011_Node000008"><a xlink:title=" ">
<path fill="none" stroke="#63b8ff" d="M618.77,-233.1C657.32,-231.49 721.11,-223.16 761,-188 776.71,-174.15 794.83,-116.94 803.64,-86.41"/>
<polygon fill="#63b8ff" stroke="#63b8ff" points="807.18,-87.73 806.53,-77.16 800.45,-85.83 807.18,-87.73"/>
</a>
</g>
</g>
<!-- Node12 -->
<g id="Node000012" class="node">
<title>Node12</title>
<g id="a_Node000012"><a xlink:href="_motor_data_8h.html" target="_top" xlink:title="Declares a class used to store data for motors to access.">
<polygon fill="white" stroke="#666666" points="751.63,-188 682.38,-188 682.38,-168 751.63,-168 751.63,-188"/>
<text text-anchor="middle" x="717" y="-174.5" font-family="Helvetica,sans-Serif" font-size="10.00">MotorData.h</text>
</a>
</g>
</g>
<!-- Node11&#45;&gt;Node12 -->
<g id="edge15_Node000011_Node000012" class="edge">
<title>Node11&#45;&gt;Node12</title>
<g id="a_edge15_Node000011_Node000012"><a xlink:title=" ">
<path fill="none" stroke="#63b8ff" d="M608.82,-223.59C629.64,-215.01 660.64,-202.23 684.13,-192.55"/>
<polygon fill="#63b8ff" stroke="#63b8ff" points="685.09,-195.53 693,-188.48 682.42,-189.05 685.09,-195.53"/>
</a>
</g>
</g>
<!-- Node11&#45;&gt;Node13 -->
<g id="edge30_Node000011_Node000013" class="edge">
<title>Node11&#45;&gt;Node13</title>
<g id="a_edge30_Node000011_Node000013"><a xlink:title=" ">
<path fill="none" stroke="#63b8ff" d="M575.38,-223.52C558.92,-209.32 525.73,-182.64 493,-168 441.66,-145.03 377.1,-132.97 337.73,-127.3"/>
<polygon fill="#63b8ff" stroke="#63b8ff" points="338.47,-123.74 328.08,-125.84 337.51,-130.67 338.47,-123.74"/>
</a>
</g>
</g>
<!-- Node16 -->
<g id="Node000016" class="node">
<title>Node16</title>
<g id="a_Node000016"><a xlink:href="_controller_data_8h.html" target="_top" xlink:title="Declares a class used to store data for controllers to access.">
<polygon fill="white" stroke="#666666" points="663.88,-188 578.13,-188 578.13,-168 663.88,-168 663.88,-188"/>
<text text-anchor="middle" x="621" y="-174.5" font-family="Helvetica,sans-Serif" font-size="10.00">ControllerData.h</text>
</a>
</g>
</g>
<!-- Node11&#45;&gt;Node16 -->
<g id="edge24_Node000011_Node000016" class="edge">
<title>Node11&#45;&gt;Node16</title>
<g id="a_edge24_Node000011_Node000016"><a xlink:title=" ">
<path fill="none" stroke="#63b8ff" d="M592.1,-223.59C596.76,-216.39 603.35,-206.23 609.05,-197.43"/>
<polygon fill="#63b8ff" stroke="#63b8ff" points="612.47,-199.59 614.97,-189.3 606.6,-195.79 612.47,-199.59"/>
</a>
</g>
</g>
<!-- Node17 -->
<g id="Node000017" class="node">
<title>Node17</title>
<g id="a_Node000017"><a xlink:title=" ">
<polygon fill="#e0e0e0" stroke="#999999" points="484.13,-188 441.88,-188 441.88,-168 484.13,-168 484.13,-188"/>
<text text-anchor="middle" x="463" y="-174.5" font-family="Helvetica,sans-Serif" font-size="10.00">queue</text>
</a>
</g>
</g>
<!-- Node11&#45;&gt;Node17 -->
<g id="edge32_Node000011_Node000017" class="edge">
<title>Node11&#45;&gt;Node17</title>
<g id="a_edge32_Node000011_Node000017"><a xlink:title=" ">
<path fill="none" stroke="#63b8ff" d="M564.58,-223.59C545.2,-215.09 516.44,-202.46 494.46,-192.81"/>
<polygon fill="#63b8ff" stroke="#63b8ff" points="496.16,-189.29 485.59,-188.48 493.34,-195.7 496.16,-189.29"/>
</a>
</g>
</g>
<!-- Node12&#45;&gt;Node2 -->
<g id="edge16_Node000012_Node000002" class="edge">
<title>Node12&#45;&gt;Node2</title>
<g id="a_edge16_Node000012_Node000002"><a xlink:title=" ">
<path fill="none" stroke="#63b8ff" d="M710.47,-167.67C693.46,-144.18 645.06,-82.57 588,-56 468.18,-0.2 420.88,-41.83 287.61,-20.23"/>
<polygon fill="#63b8ff" stroke="#63b8ff" points="288.46,-16.65 278.01,-18.41 287.28,-23.55 288.46,-16.65"/>
</a>
</g>
</g>
<!-- Node12&#45;&gt;Node7 -->
<g id="edge17_Node000012_Node000007" class="edge">
<title>Node12&#45;&gt;Node7</title>
<g id="a_edge17_Node000012_Node000007"><a xlink:title=" ">
<path fill="none" stroke="#63b8ff" d="M738.08,-167.59C757.05,-159.13 785.17,-146.58 806.76,-136.94"/>
<polygon fill="#63b8ff" stroke="#63b8ff" points="808.05,-139.75 815.76,-132.48 805.2,-133.36 808.05,-139.75"/>
</a>
</g>
</g>
<!-- Node12&#45;&gt;Node8 -->
<g id="edge23_Node000012_Node000008" class="edge">
<title>Node12&#45;&gt;Node8</title>
<g id="a_edge23_Node000012_Node000008"><a xlink:title=" ">
<path fill="none" stroke="#63b8ff" d="M723.34,-167.91C732.38,-155.11 749.71,-131.17 766,-112 774.1,-102.47 783.67,-92.35 791.72,-84.13"/>
<polygon fill="#63b8ff" stroke="#63b8ff" points="793.88,-86.92 798.44,-77.35 788.91,-81.99 793.88,-86.92"/>
</a>
</g>
</g>
<!-- Node12&#45;&gt;Node13 -->
<g id="edge18_Node000012_Node000013" class="edge">
<title>Node12&#45;&gt;Node13</title>
<g id="a_edge18_Node000012_Node000013"><a xlink:title=" ">
<path fill="none" stroke="#63b8ff" d="M681.98,-169.57C678.95,-169.01 675.92,-168.48 673,-168 550.71,-148.11 404.44,-132.86 338,-126.39"/>
<polygon fill="#63b8ff" stroke="#63b8ff" points="338.58,-122.83 328.29,-125.35 337.91,-129.8 338.58,-122.83"/>
</a>
</g>
</g>
<!-- Node13&#45;&gt;Node2 -->
<g id="edge22_Node000013_Node000002" class="edge">
<title>Node13&#45;&gt;Node2</title>
<g id="a_edge22_Node000013_Node000002"><a xlink:title=" ">
<path fill="none" stroke="#63b8ff" d="M293.06,-111.72C285.2,-103.1 273.94,-89.57 267,-76 259.7,-61.73 254.79,-44.24 251.79,-30.99"/>
<polygon fill="#63b8ff" stroke="#63b8ff" points="255.02,-30.32 249.56,-21.24 248.17,-31.74 255.02,-30.32"/>
</a>
</g>
</g>
<!-- Node14 -->
<g id="Node000014" class="node">
<title>Node14</title>
<g id="a_Node000014"><a xlink:href="_config_8h.html" target="_top" xlink:title="Configuration variables for the codebase.">
<polygon fill="white" stroke="#666666" points="327.63,-76 276.38,-76 276.38,-56 327.63,-56 327.63,-76"/>
<text text-anchor="middle" x="302" y="-62.5" font-family="Helvetica,sans-Serif" font-size="10.00">Config.h</text>
</a>
</g>
</g>
<!-- Node13&#45;&gt;Node14 -->
<g id="edge19_Node000013_Node000014" class="edge">
<title>Node13&#45;&gt;Node14</title>
<g id="a_edge19_Node000013_Node000014"><a xlink:title=" ">
<path fill="none" stroke="#63b8ff" d="M302,-111.59C302,-104.86 302,-95.53 302,-87.15"/>
<polygon fill="#63b8ff" stroke="#63b8ff" points="305.5,-87.3 302,-77.3 298.5,-87.3 305.5,-87.3"/>
</a>
</g>
</g>
<!-- Node14&#45;&gt;Node2 -->
<g id="edge20_Node000014_Node000002" class="edge">
<title>Node14&#45;&gt;Node2</title>
<g id="a_edge20_Node000014_Node000002"><a xlink:title=" ">
<path fill="none" stroke="#63b8ff" d="M292.59,-55.59C285.01,-48.01 274.13,-37.13 265.02,-28.02"/>
<polygon fill="#63b8ff" stroke="#63b8ff" points="267.84,-25.89 258.3,-21.3 262.89,-30.84 267.84,-25.89"/>
</a>
</g>
</g>
<!-- Node15 -->
<g id="Node000015" class="node">
<title>Node15</title>
<g id="a_Node000015"><a xlink:href="_log_levels_8h.html" target="_top" xlink:title=" ">
<polygon fill="white" stroke="#666666" points="361.5,-20 294.5,-20 294.5,0 361.5,0 361.5,-20"/>
<text text-anchor="middle" x="328" y="-6.5" font-family="Helvetica,sans-Serif" font-size="10.00">LogLevels.h</text>
</a>
</g>
</g>
<!-- Node14&#45;&gt;Node15 -->
<g id="edge21_Node000014_Node000015" class="edge">
<title>Node14&#45;&gt;Node15</title>
<g id="a_edge21_Node000014_Node000015"><a xlink:title=" ">
<path fill="none" stroke="#63b8ff" d="M306.53,-55.59C309.92,-48.55 314.68,-38.67 318.85,-30"/>
<polygon fill="#63b8ff" stroke="#63b8ff" points="322.34,-31.83 323.52,-21.3 316.03,-28.79 322.34,-31.83"/>
</a>
</g>
</g>
<!-- Node16&#45;&gt;Node2 -->
<g id="edge26_Node000016_Node000002" class="edge">
<title>Node16&#45;&gt;Node2</title>
<g id="a_edge26_Node000016_Node000002"><a xlink:title=" ">
<path fill="none" stroke="#63b8ff" d="M619.64,-167.5C615.75,-144.17 602.29,-83.89 564,-56 515.93,-21 362.5,-30.33 287.86,-20.12"/>
<polygon fill="#63b8ff" stroke="#63b8ff" points="288.45,-16.5 278.02,-18.38 287.34,-23.42 288.45,-16.5"/>
</a>
</g>
</g>
<!-- Node16&#45;&gt;Node7 -->
<g id="edge28_Node000016_Node000007" class="edge">
<title>Node16&#45;&gt;Node7</title>
<g id="a_edge28_Node000016_Node000007"><a xlink:title=" ">
<path fill="none" stroke="#63b8ff" d="M658.8,-167.59C697.54,-157.95 757.57,-143.02 797.32,-133.12"/>
<polygon fill="#63b8ff" stroke="#63b8ff" points="798.1,-136.29 806.96,-130.47 796.41,-129.49 798.1,-136.29"/>
</a>
</g>
</g>
<!-- Node16&#45;&gt;Node8 -->
<g id="edge25_Node000016_Node000008" class="edge">
<title>Node16&#45;&gt;Node8</title>
<g id="a_edge25_Node000016_Node000008"><a xlink:title=" ">
<path fill="none" stroke="#63b8ff" d="M637.03,-167.62C669.7,-148.5 744.24,-104.89 783.59,-81.87"/>
<polygon fill="#63b8ff" stroke="#63b8ff" points="785.15,-84.43 792.01,-76.35 781.61,-78.38 785.15,-84.43"/>
</a>
</g>
</g>
<!-- Node16&#45;&gt;Node13 -->
<g id="edge27_Node000016_Node000013" class="edge">
<title>Node16&#45;&gt;Node13</title>
<g id="a_edge27_Node000016_Node000013"><a xlink:title=" ">
<path fill="none" stroke="#63b8ff" d="M577.65,-169.66C514.11,-158.91 396.87,-139.06 337.89,-129.07"/>
<polygon fill="#63b8ff" stroke="#63b8ff" points="338.68,-125.49 328.24,-127.27 337.51,-132.39 338.68,-125.49"/>
</a>
</g>
</g>
<!-- Node18&#45;&gt;Node2 -->
<g id="edge36_Node000018_Node000002" class="edge">
<title>Node18&#45;&gt;Node2</title>
<g id="a_edge36_Node000018_Node000002"><a xlink:title=" ">
<path fill="none" stroke="#63b8ff" d="M396.93,-223.81C390.45,-215.02 381,-201.2 375,-188 349.75,-132.42 375.93,-103.03 337,-56 324.08,-40.39 304.37,-29.65 286.78,-22.59"/>
<polygon fill="#63b8ff" stroke="#63b8ff" points="288.33,-19.06 277.74,-18.84 285.89,-25.62 288.33,-19.06"/>
</a>
</g>
</g>
<!-- Node18&#45;&gt;Node17 -->
<g id="edge37_Node000018_Node000017" class="edge">
<title>Node18&#45;&gt;Node17</title>
<g id="a_edge37_Node000018_Node000017"><a xlink:title=" ">
<path fill="none" stroke="#63b8ff" d="M414.28,-223.59C422.74,-215.85 434.93,-204.69 445.01,-195.47"/>
<polygon fill="#63b8ff" stroke="#63b8ff" points="446.83,-198.63 451.84,-189.3 442.1,-193.47 446.83,-198.63"/>
</a>
</g>
</g>
<!-- Node19 -->
<g id="Node000019" class="node">
<title>Node19</title>
<g id="a_Node000019"><a xlink:title=" ">
<polygon fill="#e0e0e0" stroke="#999999" points="423.63,-188 384.38,-188 384.38,-168 423.63,-168 423.63,-188"/>
<text text-anchor="middle" x="404" y="-174.5" font-family="Helvetica,sans-Serif" font-size="10.00">utility</text>
</a>
</g>
</g>
<!-- Node18&#45;&gt;Node19 -->
<g id="edge38_Node000018_Node000019" class="edge">
<title>Node18&#45;&gt;Node19</title>
<g id="a_edge38_Node000018_Node000019"><a xlink:title=" ">
<path fill="none" stroke="#63b8ff" d="M404,-223.59C404,-216.86 404,-207.53 404,-199.15"/>
<polygon fill="#63b8ff" stroke="#63b8ff" points="407.5,-199.3 404,-189.3 400.5,-199.3 407.5,-199.3"/>
</a>
</g>
</g>
<!-- Node20&#45;&gt;Node2 -->
<g id="edge44_Node000020_Node000002" class="edge">
<title>Node20&#45;&gt;Node2</title>
<g id="a_edge44_Node000020_Node000002"><a xlink:title=" ">
<path fill="none" stroke="#63b8ff" d="M163.07,-223.76C160.72,-196.14 156.96,-112.6 190,-56 197.18,-43.7 209.14,-33.57 220.34,-26.05"/>
<polygon fill="#63b8ff" stroke="#63b8ff" points="221.82,-28.63 228.44,-20.36 218.11,-22.69 221.82,-28.63"/>
</a>
</g>
</g>
<!-- Node20&#45;&gt;Node13 -->
<g id="edge45_Node000020_Node000013" class="edge">
<title>Node20&#45;&gt;Node13</title>
<g id="a_edge45_Node000020_Node000013"><a xlink:title=" ">
<path fill="none" stroke="#63b8ff" d="M175.77,-223.62C199.39,-204.79 252.84,-162.18 282.04,-138.91"/>
<polygon fill="#63b8ff" stroke="#63b8ff" points="283.63,-141.32 289.26,-132.35 279.26,-135.85 283.63,-141.32"/>
</a>
</g>
</g>
<!-- Node20&#45;&gt;Node21 -->
<g id="edge46_Node000020_Node000021" class="edge">
<title>Node20&#45;&gt;Node21</title>
<g id="a_edge46_Node000020_Node000021"><a xlink:title=" ">
<path fill="none" stroke="#63b8ff" d="M153.2,-223.59C144.31,-215.85 131.49,-204.69 120.91,-195.47"/>
<polygon fill="#63b8ff" stroke="#63b8ff" points="123.52,-192.23 113.68,-188.3 118.92,-197.51 123.52,-192.23"/>
</a>
</g>
</g>
<!-- Node21&#45;&gt;Node2 -->
<g id="edge47_Node000021_Node000002" class="edge">
<title>Node21&#45;&gt;Node2</title>
<g id="a_edge47_Node000021_Node000002"><a xlink:title=" ">
<path fill="none" stroke="#63b8ff" d="M103.5,-167.55C107.49,-145.35 120.3,-89.21 152,-56 167.33,-39.94 189.54,-29.02 208.73,-21.96"/>
<polygon fill="#63b8ff" stroke="#63b8ff" points="209.7,-24.99 218.02,-18.43 207.43,-18.37 209.7,-24.99"/>
</a>
</g>
</g>
<!-- Node21&#45;&gt;Node13 -->
<g id="edge48_Node000021_Node000013" class="edge">
<title>Node21&#45;&gt;Node13</title>
<g id="a_edge48_Node000021_Node000013"><a xlink:title=" ">
<path fill="none" stroke="#63b8ff" d="M136.84,-167.59C173.2,-157.78 229.93,-142.46 266.53,-132.58"/>
<polygon fill="#63b8ff" stroke="#63b8ff" points="267,-135.81 275.74,-129.82 265.17,-129.05 267,-135.81"/>
</a>
</g>
</g>
<!-- Node22&#45;&gt;Node6 -->
<g id="edge51_Node000022_Node000006" class="edge">
<title>Node22&#45;&gt;Node6</title>
<g id="a_edge51_Node000022_Node000006"><a xlink:title=" ">
<path fill="none" stroke="#63b8ff" d="M1210.97,-335.59C1216.42,-328.24 1224.15,-317.8 1230.77,-308.87"/>
<polygon fill="#63b8ff" stroke="#63b8ff" points="1233.97,-311.42 1237.11,-301.3 1228.35,-307.25 1233.97,-311.42"/>
</a>
</g>
</g>
</g>
</svg>
