<?xml version="1.0" encoding="UTF-8" standalone="no"?>
<!DOCTYPE svg PUBLIC "-//W3C//DTD SVG 1.1//EN"
 "http://www.w3.org/Graphics/SVG/1.1/DTD/svg11.dtd">
<!-- Generated by graphviz version 8.1.0 (20230707.0739)
 -->
<!-- Title: ControllerData.h Pages: 1 -->
<svg width="258pt" height="196pt"
 viewBox="0.00 0.00 257.63 196.00" xmlns="http://www.w3.org/2000/svg" xmlns:xlink="http://www.w3.org/1999/xlink">

<svg id="main" version="1.1" xmlns="http://www.w3.org/2000/svg" xmlns:xlink="http://www.w3.org/1999/xlink" xml:space="preserve" onload="init(evt)">
<style type="text/css"><![CDATA[
.node, .edge {opacity: 0.7;}
.node.selected, .edge.selected {opacity: 1;}
.edge:hover path { stroke: red; }
.edge:hover polygon { stroke: red; fill: red; }
]]></style>
<script type="application/ecmascript" xlink:href="svg.min.js"/>
<svg id="graph" class="graph">
<g id="graph0" class="graph" transform="scale(1 1) rotate(0) translate(4 192)">
<title>ControllerData.h</title>
<!-- Node1 -->
<g id="Node000001" class="node">
<title>Node1</title>
<g id="a_Node000001"><a xlink:title="Declares a class used to store data for controllers to access.">
<polygon fill="#999999" stroke="#666666" points="125,-188 39.25,-188 39.25,-168 125,-168 125,-188"/>
<text text-anchor="middle" x="82.13" y="-174.5" font-family="Helvetica,sans-Serif" font-size="10.00">ControllerData.h</text>
</a>
</g>
</g>
<!-- Node2 -->
<g id="Node000002" class="node">
<title>Node2</title>
<g id="a_Node000002"><a xlink:title=" ">
<polygon fill="#e0e0e0" stroke="#999999" points="48.25,-76 0,-76 0,-56 48.25,-56 48.25,-76"/>
<text text-anchor="middle" x="24.13" y="-62.5" font-family="Helvetica,sans-Serif" font-size="10.00">stdint.h</text>
</a>
</g>
</g>
<!-- Node1&#45;&gt;Node2 -->
<g id="edge1_Node000001_Node000002" class="edge">
<title>Node1&#45;&gt;Node2</title>
<g id="a_edge1_Node000001_Node000002"><a xlink:title=" ">
<path fill="none" stroke="#63b8ff" d="M56.97,-167.63C41.59,-160.43 23.17,-148.83 14.13,-132 6.61,-118.01 10.21,-100.04 15.07,-86.54"/>
<polygon fill="#63b8ff" stroke="#63b8ff" points="18.66,-88.02 19.23,-77.44 12.18,-85.35 18.66,-88.02"/>
</a>
</g>
</g>
<!-- Node3 -->
<g id="Node000003" class="node">
<title>Node3</title>
<g id="a_Node000003"><a xlink:title=" ">
<polygon fill="#e0e0e0" stroke="#999999" points="164.75,-20 107.5,-20 107.5,0 164.75,0 164.75,-20"/>
<text text-anchor="middle" x="136.13" y="-6.5" font-family="Helvetica,sans-Serif" font-size="10.00">Arduino.h</text>
</a>
</g>
</g>
<!-- Node1&#45;&gt;Node3 -->
<g id="edge2_Node000001_Node000003" class="edge">
<title>Node1&#45;&gt;Node3</title>
<g id="a_edge2_Node000001_Node000003"><a xlink:title=" ">
<path fill="none" stroke="#63b8ff" d="M85.18,-167.6C93.76,-141.23 118.17,-66.19 129.81,-30.42"/>
<polygon fill="#63b8ff" stroke="#63b8ff" points="133.34,-31.89 133.1,-21.3 126.68,-29.72 133.34,-31.89"/>
</a>
</g>
</g>
<!-- Node4 -->
<g id="Node000004" class="node">
<title>Node4</title>
<g id="a_Node000004"><a xlink:href="_board_8h.html" target="_top" xlink:title="Defines the pins and peripherals for the board being used.">
<polygon fill="white" stroke="#666666" points="189,-132 139.25,-132 139.25,-112 189,-112 189,-132"/>
<text text-anchor="middle" x="164.13" y="-118.5" font-family="Helvetica,sans-Serif" font-size="10.00">Board.h</text>
</a>
</g>
</g>
<!-- Node1&#45;&gt;Node4 -->
<g id="edge3_Node000001_Node000004" class="edge">
<title>Node1&#45;&gt;Node4</title>
<g id="a_edge3_Node000001_Node000004"><a xlink:title=" ">
<path fill="none" stroke="#63b8ff" d="M96.41,-167.59C108.68,-159.51 126.61,-147.71 140.93,-138.27"/>
<polygon fill="#63b8ff" stroke="#63b8ff" points="142.3,-140.9 148.73,-132.48 138.45,-135.06 142.3,-140.9"/>
</a>
</g>
</g>
<!-- Node7 -->
<g id="Node000007" class="node">
<title>Node7</title>
<g id="a_Node000007"><a xlink:href="_parse_ini_8h.html" target="_top" xlink:title="Declares the functions needed and defines mapping between the INI keys and the exo components.">
<polygon fill="white" stroke="#666666" points="82.88,-132 23.37,-132 23.37,-112 82.88,-112 82.88,-132"/>
<text text-anchor="middle" x="53.13" y="-118.5" font-family="Helvetica,sans-Serif" font-size="10.00">ParseIni.h</text>
</a>
</g>
</g>
<!-- Node1&#45;&gt;Node7 -->
<g id="edge8_Node000001_Node000007" class="edge">
<title>Node1&#45;&gt;Node7</title>
<g id="a_edge8_Node000001_Node000007"><a xlink:title=" ">
<path fill="none" stroke="#63b8ff" d="M77.07,-167.59C73.25,-160.47 67.87,-150.45 63.18,-141.72"/>
<polygon fill="#63b8ff" stroke="#63b8ff" points="65.93,-140.45 58.12,-133.3 59.77,-143.76 65.93,-140.45"/>
</a>
</g>
</g>
<!-- Node4&#45;&gt;Node3 -->
<g id="edge7_Node000004_Node000003" class="edge">
<title>Node4&#45;&gt;Node3</title>
<g id="a_edge7_Node000004_Node000003"><a xlink:title=" ">
<path fill="none" stroke="#63b8ff" d="M161.74,-111.62C157.21,-93.84 147.3,-54.88 141.22,-31"/>
<polygon fill="#63b8ff" stroke="#63b8ff" points="144.36,-30.18 138.51,-21.35 137.58,-31.91 144.36,-30.18"/>
</a>
</g>
</g>
<!-- Node5 -->
<g id="Node000005" class="node">
<title>Node5</title>
<g id="a_Node000005"><a xlink:href="_config_8h.html" target="_top" xlink:title="Configuration variables for the codebase.">
<polygon fill="white" stroke="#666666" points="228.75,-76 177.5,-76 177.5,-56 228.75,-56 228.75,-76"/>
<text text-anchor="middle" x="203.13" y="-62.5" font-family="Helvetica,sans-Serif" font-size="10.00">Config.h</text>
</a>
</g>
</g>
<!-- Node4&#45;&gt;Node5 -->
<g id="edge4_Node000004_Node000005" class="edge">
<title>Node4&#45;&gt;Node5</title>
<g id="a_edge4_Node000004_Node000005"><a xlink:title=" ">
<path fill="none" stroke="#63b8ff" d="M170.92,-111.59C176.18,-104.32 183.61,-94.02 190.02,-85.15"/>
<polygon fill="#63b8ff" stroke="#63b8ff" points="193.39,-87.45 196.41,-77.3 187.72,-83.36 193.39,-87.45"/>
</a>
</g>
</g>
<!-- Node5&#45;&gt;Node3 -->
<g id="edge5_Node000005_Node000003" class="edge">
<title>Node5&#45;&gt;Node3</title>
<g id="a_edge5_Node000005_Node000003"><a xlink:title=" ">
<path fill="none" stroke="#63b8ff" d="M191.45,-55.59C181.75,-47.77 167.72,-36.46 156.22,-27.19"/>
<polygon fill="#63b8ff" stroke="#63b8ff" points="158.64,-23.85 148.66,-20.3 154.25,-29.3 158.64,-23.85"/>
</a>
</g>
</g>
<!-- Node6 -->
<g id="Node000006" class="node">
<title>Node6</title>
<g id="a_Node000006"><a xlink:href="_log_levels_8h.html" target="_top" xlink:title=" ">
<polygon fill="white" stroke="#666666" points="249.63,-20 182.63,-20 182.63,0 249.63,0 249.63,-20"/>
<text text-anchor="middle" x="216.13" y="-6.5" font-family="Helvetica,sans-Serif" font-size="10.00">LogLevels.h</text>
</a>
</g>
</g>
<!-- Node5&#45;&gt;Node6 -->
<g id="edge6_Node000005_Node000006" class="edge">
<title>Node5&#45;&gt;Node6</title>
<g id="a_edge6_Node000005_Node000006"><a xlink:title=" ">
<path fill="none" stroke="#63b8ff" d="M205.39,-55.59C207.03,-48.78 209.31,-39.32 211.34,-30.86"/>
<polygon fill="#63b8ff" stroke="#63b8ff" points="214.95,-31.84 213.89,-21.3 208.14,-30.2 214.95,-31.84"/>
</a>
</g>
</g>
<!-- Node7&#45;&gt;Node2 -->
<g id="edge9_Node000007_Node000002" class="edge">
<title>Node7&#45;&gt;Node2</title>
<g id="a_edge9_Node000007_Node000002"><a xlink:title=" ">
<path fill="none" stroke="#63b8ff" d="M48.07,-111.59C44.25,-104.47 38.87,-94.45 34.18,-85.72"/>
<polygon fill="#63b8ff" stroke="#63b8ff" points="36.93,-84.45 29.12,-77.3 30.77,-87.76 36.93,-84.45"/>
</a>
</g>
</g>
</g>
</svg>
</svg>

<style type='text/css'>
<![CDATA[
[data-mouse-over-selected='false'] { opacity: 0.7; }
[data-mouse-over-selected='true']  { opacity: 1.0; }
]]>
</style>
<script type="application/ecmascript"><![CDATA[
document.addEventListener('DOMContentLoaded', (event) => {
  highlightEdges();
  highlightAdjacentNodes();
});
]]></script>
</svg>
