<?xml version="1.0" encoding="UTF-8" standalone="no"?>
<!DOCTYPE svg PUBLIC "-//W3C//DTD SVG 1.1//EN"
 "http://www.w3.org/Graphics/SVG/1.1/DTD/svg11.dtd">
<!-- Generated by graphviz version 8.1.0 (20230707.0739)
 -->
<!-- Title: Controller.cpp Pages: 1 -->
<svg width="199pt" height="196pt"
 viewBox="0.00 0.00 199.25 196.00" xmlns="http://www.w3.org/2000/svg" xmlns:xlink="http://www.w3.org/1999/xlink">
<g id="graph0" class="graph" transform="scale(1 1) rotate(0) translate(4 192)">
<title>Controller.cpp</title>
<!-- Node1 -->
<g id="Node000001" class="node">
<title>Node1</title>
<g id="a_Node000001"><a xlink:title=" ">
<polygon fill="#999999" stroke="#666666" points="109.75,-188 33.75,-188 33.75,-168 109.75,-168 109.75,-188"/>
<text text-anchor="middle" x="71.75" y="-174.5" font-family="Helvetica,sans-Serif" font-size="10.00">Controller.cpp</text>
</a>
</g>
</g>
<!-- Node2 -->
<g id="Node000002" class="node">
<title>Node2</title>
<g id="a_Node000002"><a xlink:href="_controller_8h.html" target="_top" xlink:title="Declares for the different controllers the exo can use. Controllers should inherit from _Controller c...">
<polygon fill="white" stroke="#666666" points="65.5,-132 0,-132 0,-112 65.5,-112 65.5,-132"/>
<text text-anchor="middle" x="32.75" y="-118.5" font-family="Helvetica,sans-Serif" font-size="10.00">Controller.h</text>
</a>
</g>
</g>
<!-- Node1&#45;&gt;Node2 -->
<g id="edge1_Node000001_Node000002" class="edge">
<title>Node1&#45;&gt;Node2</title>
<g id="a_edge1_Node000001_Node000002"><a xlink:title=" ">
<path fill="none" stroke="#63b8ff" d="M64.96,-167.59C59.7,-160.32 52.26,-150.02 45.86,-141.15"/>
<polygon fill="#63b8ff" stroke="#63b8ff" points="48.16,-139.36 39.47,-133.3 42.48,-143.45 48.16,-139.36"/>
</a>
</g>
</g>
<!-- Node3 -->
<g id="Node000003" class="node">
<title>Node3</title>
<g id="a_Node000003"><a xlink:href="_logger_8h.html" target="_top" xlink:title=" ">
<polygon fill="white" stroke="#666666" points="137.5,-132 84,-132 84,-112 137.5,-112 137.5,-132"/>
<text text-anchor="middle" x="110.75" y="-118.5" font-family="Helvetica,sans-Serif" font-size="10.00">Logger.h</text>
</a>
</g>
</g>
<!-- Node1&#45;&gt;Node3 -->
<g id="edge2_Node000001_Node000003" class="edge">
<title>Node1&#45;&gt;Node3</title>
<g id="a_edge2_Node000001_Node000003"><a xlink:title=" ">
<path fill="none" stroke="#63b8ff" d="M78.54,-167.59C83.8,-160.32 91.24,-150.02 97.64,-141.15"/>
<polygon fill="#63b8ff" stroke="#63b8ff" points="101.02,-143.45 104.03,-133.3 95.34,-139.36 101.02,-143.45"/>
</a>
</g>
</g>
<!-- Node4 -->
<g id="Node000004" class="node">
<title>Node4</title>
<g id="a_Node000004"><a xlink:title=" ">
<polygon fill="#e0e0e0" stroke="#999999" points="99.38,-20 42.13,-20 42.13,0 99.38,0 99.38,-20"/>
<text text-anchor="middle" x="70.75" y="-6.5" font-family="Helvetica,sans-Serif" font-size="10.00">Arduino.h</text>
</a>
</g>
</g>
<!-- Node3&#45;&gt;Node4 -->
<g id="edge3_Node000003_Node000004" class="edge">
<title>Node3&#45;&gt;Node4</title>
<g id="a_edge3_Node000003_Node000004"><a xlink:title=" ">
<path fill="none" stroke="#63b8ff" d="M100.8,-111.7C92.5,-103.27 81.17,-90.03 75.75,-76 70.19,-61.61 69.13,-44.12 69.36,-30.91"/>
<polygon fill="#63b8ff" stroke="#63b8ff" points="72.89,-31.34 69.84,-21.19 65.89,-31.03 72.89,-31.34"/>
</a>
</g>
</g>
<!-- Node5 -->
<g id="Node000005" class="node">
<title>Node5</title>
<g id="a_Node000005"><a xlink:href="_log_levels_8h.html" target="_top" xlink:title=" ">
<polygon fill="white" stroke="#666666" points="191.25,-20 124.25,-20 124.25,0 191.25,0 191.25,-20"/>
<text text-anchor="middle" x="157.75" y="-6.5" font-family="Helvetica,sans-Serif" font-size="10.00">LogLevels.h</text>
</a>
</g>
</g>
<!-- Node3&#45;&gt;Node5 -->
<g id="edge4_Node000003_Node000005" class="edge">
<title>Node3&#45;&gt;Node5</title>
<g id="a_edge4_Node000003_Node000005"><a xlink:title=" ">
<path fill="none" stroke="#63b8ff" d="M120.34,-111.55C128.41,-103.02 139.59,-89.73 145.75,-76 152.15,-61.73 155.14,-44.23 156.53,-30.99"/>
<polygon fill="#63b8ff" stroke="#63b8ff" points="160.09,-31.49 157.42,-21.24 153.11,-30.92 160.09,-31.49"/>
</a>
</g>
</g>
<!-- Node6 -->
<g id="Node000006" class="node">
<title>Node6</title>
<g id="a_Node000006"><a xlink:href="_config_8h.html" target="_top" xlink:title="Configuration variables for the codebase.">
<polygon fill="white" stroke="#666666" points="136.38,-76 85.13,-76 85.13,-56 136.38,-56 136.38,-76"/>
<text text-anchor="middle" x="110.75" y="-62.5" font-family="Helvetica,sans-Serif" font-size="10.00">Config.h</text>
</a>
</g>
</g>
<!-- Node3&#45;&gt;Node6 -->
<g id="edge5_Node000003_Node000006" class="edge">
<title>Node3&#45;&gt;Node6</title>
<g id="a_edge5_Node000003_Node000006"><a xlink:title=" ">
<path fill="none" stroke="#63b8ff" d="M110.75,-111.59C110.75,-104.86 110.75,-95.53 110.75,-87.15"/>
<polygon fill="#63b8ff" stroke="#63b8ff" points="114.25,-87.3 110.75,-77.3 107.25,-87.3 114.25,-87.3"/>
</a>
</g>
</g>
<!-- Node6&#45;&gt;Node4 -->
<g id="edge6_Node000006_Node000004" class="edge">
<title>Node6&#45;&gt;Node4</title>
<g id="a_edge6_Node000006_Node000004"><a xlink:title=" ">
<path fill="none" stroke="#63b8ff" d="M103.78,-55.59C98.33,-48.24 90.6,-37.8 83.98,-28.87"/>
<polygon fill="#63b8ff" stroke="#63b8ff" points="86.4,-27.25 77.64,-21.3 80.78,-31.42 86.4,-27.25"/>
</a>
</g>
</g>
<!-- Node6&#45;&gt;Node5 -->
<g id="edge7_Node000006_Node000005" class="edge">
<title>Node6&#45;&gt;Node5</title>
<g id="a_edge7_Node000006_Node000005"><a xlink:title=" ">
<path fill="none" stroke="#63b8ff" d="M118.94,-55.59C125.41,-48.16 134.62,-37.58 142.45,-28.58"/>
<polygon fill="#63b8ff" stroke="#63b8ff" points="145.73,-31.14 149.66,-21.3 140.45,-26.54 145.73,-31.14"/>
</a>
</g>
</g>
</g>
</svg>
