<?xml version="1.0" encoding="UTF-8" standalone="no"?>
<!DOCTYPE svg PUBLIC "-//W3C//DTD SVG 1.1//EN"
 "http://www.w3.org/Graphics/SVG/1.1/DTD/svg11.dtd">
<!-- Generated by graphviz version 8.1.0 (20230707.0739)
 -->
<!-- Title: ErrorReporter.h Pages: 1 -->
<!--zoomable 532 -->

<svg id="main" version="1.1" xmlns="http://www.w3.org/2000/svg" xmlns:xlink="http://www.w3.org/1999/xlink" xml:space="preserve" onload="init(evt)">
<style type="text/css"><![CDATA[
.node, .edge {opacity: 0.7;}
.node.selected, .edge.selected {opacity: 1;}
.edge:hover path { stroke: red; }
.edge:hover polygon { stroke: red; fill: red; }
]]></style>

<defs>
  <circle id="rim" cx="0" cy="0" r="7"/>
  <circle id="rim2" cx="0" cy="0" r="3.5"/>
  <g id="zoomPlus">
    <use xlink:href="#rim" fill="#404040"><set attributeName="fill" to="#808080" begin="zoomplus.mouseover" end="zoomplus.mouseout"/></use>
    <path d="M-4,0h8M0,-4v8" fill="none" stroke="white" stroke-width="1.5" pointer-events="none"/>
  </g>
  <g id="zoomMin">
    <use xlink:href="#rim" fill="#404040"><set attributeName="fill" to="#808080" begin="zoomminus.mouseover" end="zoomminus.mouseout"/></use>
    <path d="M-4,0h8" fill="none" stroke="white" stroke-width="1.5" pointer-events="none"/>
  </g>
  <g id="arrowUp" transform="translate(30 24)">
    <use xlink:href="#rim"/>
    <path pointer-events="none" fill="none" stroke="white" stroke-width="1.5" d="M0,-3.0v7 M-2.5,-0.5L0,-3.0L2.5,-0.5"/>
  </g>
  <g id="arrowRight" transform="rotate(90) translate(36 -43)">
    <use xlink:href="#rim"/>
    <path pointer-events="none" fill="none" stroke="white" stroke-width="1.5" d="M0,-3.0v7 M-2.5,-0.5L0,-3.0L2.5,-0.5"/>
  </g>
  <g id="arrowDown" transform="rotate(180) translate(-30 -48)">
    <use xlink:href="#rim"/>
    <path pointer-events="none" fill="none" stroke="white" stroke-width="1.5" d="M0,-3.0v7 M-2.5,-0.5L0,-3.0L2.5,-0.5"/>
  </g>
  <g id="arrowLeft" transform="rotate(270) translate(-36 17)">
    <use xlink:href="#rim"/>
    <path pointer-events="none" fill="none" stroke="white" stroke-width="1.5" d="M0,-3.0v7 M-2.5,-0.5L0,-3.0L2.5,-0.5"/>
  </g>
  <g id="resetDef">
    <use xlink:href="#rim2" fill="#404040"><set attributeName="fill" to="#808080" begin="reset.mouseover" end="reset.mouseout"/></use>
  </g>
</defs>
<script type="application/ecmascript">
var viewWidth = 1494;
var viewHeight = 532;
var sectionId = 'dynsection-0';
</script>
<script type="application/ecmascript" xlink:href="svg.min.js"/>
<svg id="graph" class="graph">
<g id="viewport">
<title>ErrorReporter.h</title>
<!-- Node1 -->
<g id="Node000001" class="node">
<title>Node1</title>
<g id="a_Node000001"><a xlink:title="Singleton class to report errors to the other microcontroller.">
<polygon fill="#999999" stroke="#666666" points="1088.75,-524 1006.75,-524 1006.75,-504 1088.75,-504 1088.75,-524"/>
<text text-anchor="middle" x="1047.75" y="-510.5" font-family="Helvetica,sans-Serif" font-size="10.00">ErrorReporter.h</text>
</a>
</g>
</g>
<!-- Node2 -->
<g id="Node000002" class="node">
<title>Node2</title>
<g id="a_Node000002"><a xlink:href="_u_a_r_t_handler_8h.html" target="_top" xlink:title="Singleton class that manages the UART data. NOT THREAD SAFE. The class queues recieved messages.">
<polygon fill="white" stroke="#666666" points="229.13,-244 146.38,-244 146.38,-224 229.13,-224 229.13,-244"/>
<text text-anchor="middle" x="187.75" y="-230.5" font-family="Helvetica,sans-Serif" font-size="10.00">UARTHandler.h</text>
</a>
</g>
</g>
<!-- Node1&#45;&gt;Node2 -->
<g id="edge1_Node000001_Node000002" class="edge">
<title>Node1&#45;&gt;Node2</title>
<g id="a_edge1_Node000001_Node000002"><a xlink:title=" ">
<path fill="none" stroke="#63b8ff" d="M1006.54,-505.05C904.31,-484.86 631.36,-428.03 410.75,-356 343.5,-334.04 322.42,-336.38 261.75,-300 239.44,-286.62 217.51,-266.19 203.39,-251.81"/>
<polygon fill="#63b8ff" stroke="#63b8ff" points="206.48,-249.94 197.03,-245.14 201.43,-254.78 206.48,-249.94"/>
</a>
</g>
</g>
<!-- Node3 -->
<g id="Node000003" class="node">
<title>Node3</title>
<g id="a_Node000003"><a xlink:href="_u_a_r_t__msg__t_8h.html" target="_top" xlink:title=" ">
<polygon fill="white" stroke="#666666" points="121.75,-188 39.75,-188 39.75,-168 121.75,-168 121.75,-188"/>
<text text-anchor="middle" x="80.75" y="-174.5" font-family="Helvetica,sans-Serif" font-size="10.00">UART_msg_t.h</text>
</a>
</g>
</g>
<!-- Node1&#45;&gt;Node3 -->
<g id="edge76_Node000001_Node000003" class="edge">
<title>Node1&#45;&gt;Node3</title>
<g id="a_edge76_Node000001_Node000003"><a xlink:title=" ">
<path fill="none" stroke="#63b8ff" d="M1006.48,-512.89C817.36,-511.86 42.75,-501.62 42.75,-403 42.75,-403 42.75,-403 42.75,-345 42.75,-290.73 62.29,-228.95 73.34,-198.32"/>
<polygon fill="#63b8ff" stroke="#63b8ff" points="76.9,-199.78 77.11,-189.19 70.34,-197.35 76.9,-199.78"/>
</a>
</g>
</g>
<!-- Node9 -->
<g id="Node000009" class="node">
<title>Node9</title>
<g id="a_Node000009"><a xlink:href="uart__commands_8h.html" target="_top" xlink:title=" ">
<polygon fill="white" stroke="#666666" points="1094.75,-468 1000.75,-468 1000.75,-448 1094.75,-448 1094.75,-468"/>
<text text-anchor="middle" x="1047.75" y="-454.5" font-family="Helvetica,sans-Serif" font-size="10.00">uart_commands.h</text>
</a>
</g>
</g>
<!-- Node1&#45;&gt;Node9 -->
<g id="edge12_Node000001_Node000009" class="edge">
<title>Node1&#45;&gt;Node9</title>
<g id="a_edge12_Node000001_Node000009"><a xlink:title=" ">
<path fill="none" stroke="#63b8ff" d="M1047.75,-503.59C1047.75,-496.86 1047.75,-487.53 1047.75,-479.15"/>
<polygon fill="#63b8ff" stroke="#63b8ff" points="1051.25,-479.3 1047.75,-469.3 1044.25,-479.3 1051.25,-479.3"/>
</a>
</g>
</g>
<!-- Node10 -->
<g id="Node000010" class="node">
<title>Node10</title>
<g id="a_Node000010"><a xlink:href="_parse_ini_8h.html" target="_top" xlink:title="Declares the functions needed and defines mapping between the INI keys and the exo components.">
<polygon fill="white" stroke="#666666" points="1152.5,-132 1093,-132 1093,-112 1152.5,-112 1152.5,-132"/>
<text text-anchor="middle" x="1122.75" y="-118.5" font-family="Helvetica,sans-Serif" font-size="10.00">ParseIni.h</text>
</a>
</g>
</g>
<!-- Node1&#45;&gt;Node10 -->
<g id="edge75_Node000001_Node000010" class="edge">
<title>Node1&#45;&gt;Node10</title>
<g id="a_edge75_Node000001_Node000010"><a xlink:title=" ">
<path fill="none" stroke="#63b8ff" d="M1089.11,-506.82C1171.82,-493.29 1349.75,-457.82 1349.75,-403 1349.75,-403 1349.75,-403 1349.75,-233 1349.75,-151.24 1229.02,-130.23 1163.65,-124.84"/>
<polygon fill="#63b8ff" stroke="#63b8ff" points="1164.12,-121.3 1153.89,-124.06 1163.61,-128.28 1164.12,-121.3"/>
</a>
</g>
</g>
<!-- Node29 -->
<g id="Node000029" class="node">
<title>Node29</title>
<g id="a_Node000029"><a xlink:href="error__codes_8h.html" target="_top" xlink:title="Error codes for the exoskeleton. These are used to index the error map.">
<polygon fill="white" stroke="#666666" points="1453.38,-468 1378.13,-468 1378.13,-448 1453.38,-448 1453.38,-468"/>
<text text-anchor="middle" x="1415.75" y="-454.5" font-family="Helvetica,sans-Serif" font-size="10.00">error_codes.h</text>
</a>
</g>
</g>
<!-- Node1&#45;&gt;Node29 -->
<g id="edge74_Node000001_Node000029" class="edge">
<title>Node1&#45;&gt;Node29</title>
<g id="a_edge74_Node000001_Node000029"><a xlink:title=" ">
<path fill="none" stroke="#63b8ff" d="M1089.22,-507.5C1149.67,-499.38 1265.5,-483.5 1363.75,-468 1364.88,-467.82 1366.03,-467.64 1367.18,-467.45"/>
<polygon fill="#63b8ff" stroke="#63b8ff" points="1367.42,-470.8 1376.72,-465.72 1366.28,-463.89 1367.42,-470.8"/>
</a>
</g>
</g>
<!-- Node2&#45;&gt;Node3 -->
<g id="edge2_Node000002_Node000003" class="edge">
<title>Node2&#45;&gt;Node3</title>
<g id="a_edge2_Node000002_Node000003"><a xlink:title=" ">
<path fill="none" stroke="#63b8ff" d="M169.11,-223.59C152.57,-215.24 128.14,-202.92 109.16,-193.34"/>
<polygon fill="#63b8ff" stroke="#63b8ff" points="111.04,-189.86 100.53,-188.48 107.88,-196.11 111.04,-189.86"/>
</a>
</g>
</g>
<!-- Node4 -->
<g id="Node000004" class="node">
<title>Node4</title>
<g id="a_Node000004"><a xlink:title=" ">
<polygon fill="#e0e0e0" stroke="#999999" points="548.38,-20 491.13,-20 491.13,0 548.38,0 548.38,-20"/>
<text text-anchor="middle" x="519.75" y="-6.5" font-family="Helvetica,sans-Serif" font-size="10.00">Arduino.h</text>
</a>
</g>
</g>
<!-- Node2&#45;&gt;Node4 -->
<g id="edge10_Node000002_Node000004" class="edge">
<title>Node2&#45;&gt;Node4</title>
<g id="a_edge10_Node000002_Node000004"><a xlink:title=" ">
<path fill="none" stroke="#63b8ff" d="M190.91,-223.86C195.81,-210.55 206.22,-185.55 220.75,-168 272.67,-105.27 293.19,-92.95 365.75,-56 402.39,-37.34 447.97,-25.24 480,-18.34"/>
<polygon fill="#63b8ff" stroke="#63b8ff" points="480.65,-21.57 489.73,-16.11 479.23,-14.72 480.65,-21.57"/>
</a>
</g>
</g>
<!-- Node8 -->
<g id="Node000008" class="node">
<title>Node8</title>
<g id="a_Node000008"><a xlink:title=" ">
<polygon fill="#e0e0e0" stroke="#999999" points="948.88,-76 900.63,-76 900.63,-56 948.88,-56 948.88,-76"/>
<text text-anchor="middle" x="924.75" y="-62.5" font-family="Helvetica,sans-Serif" font-size="10.00">stdint.h</text>
</a>
</g>
</g>
<!-- Node2&#45;&gt;Node8 -->
<g id="edge11_Node000002_Node000008" class="edge">
<title>Node2&#45;&gt;Node8</title>
<g id="a_edge11_Node000002_Node000008"><a xlink:title=" ">
<path fill="none" stroke="#63b8ff" d="M194.2,-223.51C204.35,-209.31 225.43,-182.63 249.75,-168 328.48,-120.63 358.43,-128.84 448.75,-112 611.69,-81.63 810.04,-71.26 889.43,-68.17"/>
<polygon fill="#63b8ff" stroke="#63b8ff" points="889.4,-71.63 899.26,-67.76 889.14,-64.64 889.4,-71.63"/>
</a>
</g>
</g>
<!-- Node3&#45;&gt;Node4 -->
<g id="edge3_Node000003_Node000004" class="edge">
<title>Node3&#45;&gt;Node4</title>
<g id="a_edge3_Node000003_Node000004"><a xlink:title=" ">
<path fill="none" stroke="#63b8ff" d="M83.64,-167.75C91.45,-144.45 115.37,-83.26 158.75,-56 211.48,-22.86 397.23,-14.07 479.74,-11.79"/>
<polygon fill="#63b8ff" stroke="#63b8ff" points="479.76,-15.26 489.67,-11.5 479.58,-8.26 479.76,-15.26"/>
</a>
</g>
</g>
<!-- Node5 -->
<g id="Node000005" class="node">
<title>Node5</title>
<g id="a_Node000005"><a xlink:href="_logger_8h.html" target="_top" xlink:title=" ">
<polygon fill="white" stroke="#666666" points="53.5,-132 0,-132 0,-112 53.5,-112 53.5,-132"/>
<text text-anchor="middle" x="26.75" y="-118.5" font-family="Helvetica,sans-Serif" font-size="10.00">Logger.h</text>
</a>
</g>
</g>
<!-- Node3&#45;&gt;Node5 -->
<g id="edge4_Node000003_Node000005" class="edge">
<title>Node3&#45;&gt;Node5</title>
<g id="a_edge4_Node000003_Node000005"><a xlink:title=" ">
<path fill="none" stroke="#63b8ff" d="M71.34,-167.59C63.76,-160.01 52.88,-149.13 43.77,-140.02"/>
<polygon fill="#63b8ff" stroke="#63b8ff" points="46.59,-137.89 37.05,-133.3 41.64,-142.84 46.59,-137.89"/>
</a>
</g>
</g>
<!-- Node5&#45;&gt;Node4 -->
<g id="edge5_Node000005_Node000004" class="edge">
<title>Node5&#45;&gt;Node4</title>
<g id="a_edge5_Node000005_Node000004"><a xlink:title=" ">
<path fill="none" stroke="#63b8ff" d="M26.46,-111.74C26.55,-97.33 29.07,-69.78 45.75,-56 78.95,-28.57 372.15,-15.98 480.09,-12.24"/>
<polygon fill="#63b8ff" stroke="#63b8ff" points="479.96,-15.72 489.83,-11.88 479.72,-8.72 479.96,-15.72"/>
</a>
</g>
</g>
<!-- Node6 -->
<g id="Node000006" class="node">
<title>Node6</title>
<g id="a_Node000006"><a xlink:href="_log_levels_8h.html" target="_top" xlink:title=" ">
<polygon fill="white" stroke="#666666" points="68.25,-20 1.25,-20 1.25,0 68.25,0 68.25,-20"/>
<text text-anchor="middle" x="34.75" y="-6.5" font-family="Helvetica,sans-Serif" font-size="10.00">LogLevels.h</text>
</a>
</g>
</g>
<!-- Node5&#45;&gt;Node6 -->
<g id="edge6_Node000005_Node000006" class="edge">
<title>Node5&#45;&gt;Node6</title>
<g id="a_edge6_Node000005_Node000006"><a xlink:title=" ">
<path fill="none" stroke="#63b8ff" d="M22.16,-111.72C16.51,-99.09 8.17,-75.79 12.75,-56 14.85,-46.91 19.05,-37.54 23.23,-29.72"/>
<polygon fill="#63b8ff" stroke="#63b8ff" points="26.76,-31.6 28.7,-21.18 20.69,-28.11 26.76,-31.6"/>
</a>
</g>
</g>
<!-- Node7 -->
<g id="Node000007" class="node">
<title>Node7</title>
<g id="a_Node000007"><a xlink:href="_config_8h.html" target="_top" xlink:title="Configuration variables for the codebase.">
<polygon fill="white" stroke="#666666" points="106.38,-76 55.13,-76 55.13,-56 106.38,-56 106.38,-76"/>
<text text-anchor="middle" x="80.75" y="-62.5" font-family="Helvetica,sans-Serif" font-size="10.00">Config.h</text>
</a>
</g>
</g>
<!-- Node5&#45;&gt;Node7 -->
<g id="edge7_Node000005_Node000007" class="edge">
<title>Node5&#45;&gt;Node7</title>
<g id="a_edge7_Node000005_Node000007"><a xlink:title=" ">
<path fill="none" stroke="#63b8ff" d="M36.16,-111.59C43.74,-104.01 54.62,-93.13 63.73,-84.02"/>
<polygon fill="#63b8ff" stroke="#63b8ff" points="65.86,-86.84 70.45,-77.3 60.91,-81.89 65.86,-86.84"/>
</a>
</g>
</g>
<!-- Node7&#45;&gt;Node4 -->
<g id="edge8_Node000007_Node000004" class="edge">
<title>Node7&#45;&gt;Node4</title>
<g id="a_edge8_Node000007_Node000004"><a xlink:title=" ">
<path fill="none" stroke="#63b8ff" d="M106.49,-58.78C111.21,-57.76 116.12,-56.78 120.75,-56 251.58,-33.97 408.41,-19.83 480.27,-14.02"/>
<polygon fill="#63b8ff" stroke="#63b8ff" points="480.37,-17.44 490.06,-13.16 479.81,-10.46 480.37,-17.44"/>
</a>
</g>
</g>
<!-- Node7&#45;&gt;Node6 -->
<g id="edge9_Node000007_Node000006" class="edge">
<title>Node7&#45;&gt;Node6</title>
<g id="a_edge9_Node000007_Node000006"><a xlink:title=" ">
<path fill="none" stroke="#63b8ff" d="M72.74,-55.59C66.41,-48.16 57.39,-37.58 49.73,-28.58"/>
<polygon fill="#63b8ff" stroke="#63b8ff" points="51.82,-26.64 42.67,-21.3 46.49,-31.18 51.82,-26.64"/>
</a>
</g>
</g>
<!-- Node9&#45;&gt;Node2 -->
<g id="edge14_Node000009_Node000002" class="edge">
<title>Node9&#45;&gt;Node2</title>
<g id="a_edge14_Node000009_Node000002"><a xlink:title=" ">
<path fill="none" stroke="#63b8ff" d="M1000.59,-452.86C880.81,-441.1 556.73,-401.58 307.75,-300 273.01,-285.83 235.32,-264.31 211.64,-249.96"/>
<polygon fill="#63b8ff" stroke="#63b8ff" points="213.74,-246.54 203.39,-244.3 210.09,-252.51 213.74,-246.54"/>
</a>
</g>
</g>
<!-- Node9&#45;&gt;Node3 -->
<g id="edge15_Node000009_Node000003" class="edge">
<title>Node9&#45;&gt;Node3</title>
<g id="a_edge15_Node000009_Node000003"><a xlink:title=" ">
<path fill="none" stroke="#63b8ff" d="M1000.27,-454.73C919.76,-450.29 751.56,-438.49 611.75,-412 520.64,-394.73 498.91,-384.78 410.75,-356 343.5,-334.04 327.13,-327.02 261.75,-300 205.86,-276.91 186.34,-279.99 137.75,-244 119.92,-230.79 103.67,-211.15 93.12,-196.92"/>
<polygon fill="#63b8ff" stroke="#63b8ff" points="95.45,-195.17 86.78,-189.08 89.76,-199.24 95.45,-195.17"/>
</a>
</g>
</g>
<!-- Node9&#45;&gt;Node4 -->
<g id="edge13_Node000009_Node000004" class="edge">
<title>Node9&#45;&gt;Node4</title>
<g id="a_edge13_Node000009_Node000004"><a xlink:title=" ">
<path fill="none" stroke="#63b8ff" d="M1095.04,-455.11C1208.3,-449.28 1485.75,-426.87 1485.75,-347 1485.75,-347 1485.75,-347 1485.75,-121 1485.75,-26.19 741.65,-13.07 559.59,-11.28"/>
<polygon fill="#63b8ff" stroke="#63b8ff" points="559.69,-7.77 549.66,-11.18 559.63,-14.77 559.69,-7.77"/>
</a>
</g>
</g>
<!-- Node9&#45;&gt;Node5 -->
<g id="edge71_Node000009_Node000005" class="edge">
<title>Node9&#45;&gt;Node5</title>
<g id="a_edge71_Node000009_Node000005"><a xlink:title=" ">
<path fill="none" stroke="#63b8ff" d="M1000.26,-456.62C907.13,-455.06 694.42,-447.54 519.75,-412 441.38,-396.05 424.11,-382.77 348.75,-356 283.26,-332.73 264.98,-330.94 202.75,-300 121.07,-259.39 75.8,-267.32 30.75,-188 22.98,-174.31 22.47,-156.29 23.63,-142.69"/>
<polygon fill="#63b8ff" stroke="#63b8ff" points="27.19,-143.46 24.94,-133.11 20.24,-142.6 27.19,-143.46"/>
</a>
</g>
</g>
<!-- Node9&#45;&gt;Node10 -->
<g id="edge16_Node000009_Node000010" class="edge">
<title>Node9&#45;&gt;Node10</title>
<g id="a_edge16_Node000009_Node000010"><a xlink:title=" ">
<path fill="none" stroke="#63b8ff" d="M1094.95,-457.57C1170.88,-455.75 1311.75,-439.85 1311.75,-347 1311.75,-347 1311.75,-347 1311.75,-233 1311.75,-199.76 1300.79,-188.66 1274.75,-168 1242.69,-142.57 1196.59,-131.5 1163.58,-126.69"/>
<polygon fill="#63b8ff" stroke="#63b8ff" points="1164.3,-123.12 1153.93,-125.28 1163.39,-130.06 1164.3,-123.12"/>
</a>
</g>
</g>
<!-- Node11 -->
<g id="Node000011" class="node">
<title>Node11</title>
<g id="a_Node000011"><a xlink:href="_exo_data_8h.html" target="_top" xlink:title="Declares a class used to store data for the Exo to access.">
<polygon fill="white" stroke="#666666" points="574.63,-356 512.88,-356 512.88,-336 574.63,-336 574.63,-356"/>
<text text-anchor="middle" x="543.75" y="-342.5" font-family="Helvetica,sans-Serif" font-size="10.00">ExoData.h</text>
</a>
</g>
</g>
<!-- Node9&#45;&gt;Node11 -->
<g id="edge18_Node000009_Node000011" class="edge">
<title>Node9&#45;&gt;Node11</title>
<g id="a_edge18_Node000009_Node000011"><a xlink:title=" ">
<path fill="none" stroke="#63b8ff" d="M1004.34,-447.53C908.45,-426.6 679.61,-376.65 585.38,-356.09"/>
<polygon fill="#63b8ff" stroke="#63b8ff" points="586.36,-352.5 575.84,-353.79 584.87,-359.34 586.36,-352.5"/>
</a>
</g>
</g>
<!-- Node13 -->
<g id="Node000013" class="node">
<title>Node13</title>
<g id="a_Node000013"><a xlink:href="_joint_data_8h.html" target="_top" xlink:title="Declares a class used to store data for joint to access.">
<polygon fill="white" stroke="#666666" points="913.13,-244 848.38,-244 848.38,-224 913.13,-224 913.13,-244"/>
<text text-anchor="middle" x="880.75" y="-230.5" font-family="Helvetica,sans-Serif" font-size="10.00">JointData.h</text>
</a>
</g>
</g>
<!-- Node9&#45;&gt;Node13 -->
<g id="edge57_Node000009_Node000013" class="edge">
<title>Node9&#45;&gt;Node13</title>
<g id="a_edge57_Node000009_Node000013"><a xlink:title=" ">
<path fill="none" stroke="#63b8ff" d="M1063.1,-447.64C1094.34,-427.39 1160.09,-377.96 1131.75,-336 1085.19,-267.07 982.94,-245.18 924.32,-238.23"/>
<polygon fill="#63b8ff" stroke="#63b8ff" points="924.88,-234.66 914.56,-237.06 924.13,-241.62 924.88,-234.66"/>
</a>
</g>
</g>
<!-- Node22 -->
<g id="Node000022" class="node">
<title>Node22</title>
<g id="a_Node000022"><a xlink:href="_params_from_s_d_8h.html" target="_top" xlink:title="Declares the functions to pull controller parameters from the SD card and defines the mapping to the ...">
<polygon fill="white" stroke="#666666" points="1094.75,-412 1000.75,-412 1000.75,-392 1094.75,-392 1094.75,-412"/>
<text text-anchor="middle" x="1047.75" y="-398.5" font-family="Helvetica,sans-Serif" font-size="10.00">ParamsFromSD.h</text>
</a>
</g>
</g>
<!-- Node9&#45;&gt;Node22 -->
<g id="edge58_Node000009_Node000022" class="edge">
<title>Node9&#45;&gt;Node22</title>
<g id="a_edge58_Node000009_Node000022"><a xlink:title=" ">
<path fill="none" stroke="#63b8ff" d="M1047.75,-447.59C1047.75,-440.86 1047.75,-431.53 1047.75,-423.15"/>
<polygon fill="#63b8ff" stroke="#63b8ff" points="1051.25,-423.3 1047.75,-413.3 1044.25,-423.3 1051.25,-423.3"/>
</a>
</g>
</g>
<!-- Node28 -->
<g id="Node000028" class="node">
<title>Node28</title>
<g id="a_Node000028"><a xlink:href="_real_time_i2_c_8h.html" target="_top" xlink:title=" ">
<polygon fill="white" stroke="#666666" points="1457.25,-300 1378.25,-300 1378.25,-280 1457.25,-280 1457.25,-300"/>
<text text-anchor="middle" x="1417.75" y="-286.5" font-family="Helvetica,sans-Serif" font-size="10.00">RealTimeI2C.h</text>
</a>
</g>
</g>
<!-- Node9&#45;&gt;Node28 -->
<g id="edge72_Node000009_Node000028" class="edge">
<title>Node9&#45;&gt;Node28</title>
<g id="a_edge72_Node000009_Node000028"><a xlink:title=" ">
<path fill="none" stroke="#63b8ff" d="M1095.01,-453.59C1163.87,-447.91 1287.71,-434.83 1325.75,-412 1366.7,-387.42 1395.73,-337.12 1409.23,-309.75"/>
<polygon fill="#63b8ff" stroke="#63b8ff" points="1412.65,-311.71 1413.77,-301.18 1406.32,-308.71 1412.65,-311.71"/>
</a>
</g>
</g>
<!-- Node10&#45;&gt;Node8 -->
<g id="edge17_Node000010_Node000008" class="edge">
<title>Node10&#45;&gt;Node8</title>
<g id="a_edge17_Node000010_Node000008"><a xlink:title=" ">
<path fill="none" stroke="#63b8ff" d="M1092.68,-112.8C1056.94,-103.05 997.4,-86.81 959.66,-76.52"/>
<polygon fill="#63b8ff" stroke="#63b8ff" points="960.73,-72.91 950.16,-73.66 958.89,-79.67 960.73,-72.91"/>
</a>
</g>
</g>
<!-- Node11&#45;&gt;Node4 -->
<g id="edge19_Node000011_Node000004" class="edge">
<title>Node11&#45;&gt;Node4</title>
<g id="a_edge19_Node000011_Node000004"><a xlink:title=" ">
<path fill="none" stroke="#63b8ff" d="M521.23,-335.55C488,-319.91 429.75,-285.33 429.75,-235 429.75,-235 429.75,-235 429.75,-121 429.75,-79.5 468.59,-45.06 495.24,-26.31"/>
<polygon fill="#63b8ff" stroke="#63b8ff" points="496.74,-28.84 503.07,-20.34 492.83,-23.04 496.74,-28.84"/>
</a>
</g>
</g>
<!-- Node11&#45;&gt;Node8 -->
<g id="edge47_Node000011_Node000008" class="edge">
<title>Node11&#45;&gt;Node8</title>
<g id="a_edge47_Node000011_Node000008"><a xlink:title=" ">
<path fill="none" stroke="#63b8ff" d="M546.85,-335.56C559.32,-299.29 609.56,-168.1 700.75,-112 759.89,-75.61 842.9,-67.95 889.47,-66.74"/>
<polygon fill="#63b8ff" stroke="#63b8ff" points="889.28,-70.23 899.22,-66.56 889.16,-63.23 889.28,-70.23"/>
</a>
</g>
</g>
<!-- Node11&#45;&gt;Node10 -->
<g id="edge48_Node000011_Node000010" class="edge">
<title>Node11&#45;&gt;Node10</title>
<g id="a_edge48_Node000011_Node000010"><a xlink:title=" ">
<path fill="none" stroke="#63b8ff" d="M575.06,-340.29C648.96,-328.67 839.45,-295.76 991.75,-244 1047.86,-224.93 1077.12,-235.35 1112.75,-188 1122.31,-175.3 1124.43,-157.19 1124.37,-143.31"/>
<polygon fill="#63b8ff" stroke="#63b8ff" points="1127.83,-143.28 1123.9,-133.44 1120.84,-143.59 1127.83,-143.28"/>
</a>
</g>
</g>
<!-- Node12 -->
<g id="Node000012" class="node">
<title>Node12</title>
<g id="a_Node000012"><a xlink:href="_leg_data_8h.html" target="_top" xlink:title="Declares a class used to store data for leg to access.">
<polygon fill="white" stroke="#666666" points="649.88,-300 589.63,-300 589.63,-280 649.88,-280 649.88,-300"/>
<text text-anchor="middle" x="619.75" y="-286.5" font-family="Helvetica,sans-Serif" font-size="10.00">LegData.h</text>
</a>
</g>
</g>
<!-- Node11&#45;&gt;Node12 -->
<g id="edge20_Node000011_Node000012" class="edge">
<title>Node11&#45;&gt;Node12</title>
<g id="a_edge20_Node000011_Node000012"><a xlink:title=" ">
<path fill="none" stroke="#63b8ff" d="M556.99,-335.59C568.14,-327.67 584.34,-316.16 597.49,-306.82"/>
<polygon fill="#63b8ff" stroke="#63b8ff" points="599.28,-309.12 605.41,-300.48 595.23,-303.42 599.28,-309.12"/>
</a>
</g>
</g>
<!-- Node15 -->
<g id="Node000015" class="node">
<title>Node15</title>
<g id="a_Node000015"><a xlink:href="_board_8h.html" target="_top" xlink:title="Defines the pins and peripherals for the board being used.">
<polygon fill="white" stroke="#666666" points="507.63,-132 457.88,-132 457.88,-112 507.63,-112 507.63,-132"/>
<text text-anchor="middle" x="482.75" y="-118.5" font-family="Helvetica,sans-Serif" font-size="10.00">Board.h</text>
</a>
</g>
</g>
<!-- Node11&#45;&gt;Node15 -->
<g id="edge49_Node000011_Node000015" class="edge">
<title>Node11&#45;&gt;Node15</title>
<g id="a_edge49_Node000011_Node000015"><a xlink:title=" ">
<path fill="none" stroke="#63b8ff" d="M512.79,-345.11C452.85,-343.37 323.32,-329.47 283.75,-244 271.16,-216.81 309.3,-168.37 309.75,-168 330.46,-150.73 402.76,-136.17 447.08,-128.6"/>
<polygon fill="#63b8ff" stroke="#63b8ff" points="447.41,-131.93 456.69,-126.83 446.25,-125.02 447.41,-131.93"/>
</a>
</g>
</g>
<!-- Node20 -->
<g id="Node000020" class="node">
<title>Node20</title>
<g id="a_Node000020"><a xlink:href="_status_led_8h.html" target="_top" xlink:title="Class to set an RGB LED to different colors based on the state of the system.">
<polygon fill="white" stroke="#666666" points="361,-244 292.5,-244 292.5,-224 361,-224 361,-244"/>
<text text-anchor="middle" x="326.75" y="-230.5" font-family="Helvetica,sans-Serif" font-size="10.00">StatusLed.h</text>
</a>
</g>
</g>
<!-- Node11&#45;&gt;Node20 -->
<g id="edge50_Node000011_Node000020" class="edge">
<title>Node11&#45;&gt;Node20</title>
<g id="a_edge50_Node000011_Node000020"><a xlink:title=" ">
<path fill="none" stroke="#63b8ff" d="M512.43,-342.72C476.66,-338.82 417.68,-328.28 375.75,-300 358.4,-288.3 344.73,-268.39 336.28,-253.68"/>
<polygon fill="#63b8ff" stroke="#63b8ff" points="338.92,-252.21 331.08,-245.08 332.77,-255.54 338.92,-252.21"/>
</a>
</g>
</g>
<!-- Node21 -->
<g id="Node000021" class="node">
<title>Node21</title>
<g id="a_Node000021"><a xlink:href="_status_defs_8h.html" target="_top" xlink:title="Stores the different status messages for the system.">
<polygon fill="white" stroke="#666666" points="401.88,-188 329.63,-188 329.63,-168 401.88,-168 401.88,-188"/>
<text text-anchor="middle" x="365.75" y="-174.5" font-family="Helvetica,sans-Serif" font-size="10.00">StatusDefs.h</text>
</a>
</g>
</g>
<!-- Node11&#45;&gt;Node21 -->
<g id="edge56_Node000011_Node000021" class="edge">
<title>Node11&#45;&gt;Node21</title>
<g id="a_edge56_Node000011_Node000021"><a xlink:title=" ">
<path fill="none" stroke="#63b8ff" d="M512.63,-341.34C484.12,-336.46 442.42,-325.28 415.75,-300 386.71,-272.48 373.96,-225.59 368.84,-198.98"/>
<polygon fill="#63b8ff" stroke="#63b8ff" points="372.15,-198.58 366.99,-189.33 365.25,-199.78 372.15,-198.58"/>
</a>
</g>
</g>
<!-- Node12&#45;&gt;Node4 -->
<g id="edge21_Node000012_Node000004" class="edge">
<title>Node12&#45;&gt;Node4</title>
<g id="a_edge21_Node000012_Node000004"><a xlink:title=" ">
<path fill="none" stroke="#63b8ff" d="M616.42,-279.75C602.22,-240.26 546.47,-85.29 526.73,-30.4"/>
<polygon fill="#63b8ff" stroke="#63b8ff" points="529.77,-29.51 523.09,-21.28 523.18,-31.88 529.77,-29.51"/>
</a>
</g>
</g>
<!-- Node12&#45;&gt;Node8 -->
<g id="edge46_Node000012_Node000008" class="edge">
<title>Node12&#45;&gt;Node8</title>
<g id="a_edge46_Node000012_Node000008"><a xlink:title=" ">
<path fill="none" stroke="#63b8ff" d="M622.16,-279.79C630.73,-249.16 662.91,-150.46 730.75,-112 781.2,-83.4 848.82,-72.96 889.46,-69.16"/>
<polygon fill="#63b8ff" stroke="#63b8ff" points="889.49,-72.58 899.16,-68.25 888.9,-65.61 889.49,-72.58"/>
</a>
</g>
</g>
<!-- Node12&#45;&gt;Node10 -->
<g id="edge40_Node000012_Node000010" class="edge">
<title>Node12&#45;&gt;Node10</title>
<g id="a_edge40_Node000012_Node000010"><a xlink:title=" ">
<path fill="none" stroke="#63b8ff" d="M650.22,-286.34C743.82,-277.59 1024.93,-246.84 1091.75,-188 1105.22,-176.13 1113.34,-157.13 1117.86,-142.72"/>
<polygon fill="#63b8ff" stroke="#63b8ff" points="1121.43,-143.96 1120.76,-133.38 1114.69,-142.07 1121.43,-143.96"/>
</a>
</g>
</g>
<!-- Node12&#45;&gt;Node13 -->
<g id="edge22_Node000012_Node000013" class="edge">
<title>Node12&#45;&gt;Node13</title>
<g id="a_edge22_Node000012_Node000013"><a xlink:title=" ">
<path fill="none" stroke="#63b8ff" d="M650.2,-282.7C696.4,-273.14 784.41,-254.93 837.31,-243.99"/>
<polygon fill="#63b8ff" stroke="#63b8ff" points="837.96,-247.22 847.04,-241.77 836.54,-240.37 837.96,-247.22"/>
</a>
</g>
</g>
<!-- Node12&#45;&gt;Node15 -->
<g id="edge41_Node000012_Node000015" class="edge">
<title>Node12&#45;&gt;Node15</title>
<g id="a_edge41_Node000012_Node000015"><a xlink:title=" ">
<path fill="none" stroke="#63b8ff" d="M607.43,-279.76C596.39,-271.15 580.08,-257.64 567.75,-244 537.63,-210.67 508.97,-166.36 493.85,-141.66"/>
<polygon fill="#63b8ff" stroke="#63b8ff" points="496.4,-140.12 488.23,-133.37 490.41,-143.74 496.4,-140.12"/>
</a>
</g>
</g>
<!-- Node18 -->
<g id="Node000018" class="node">
<title>Node18</title>
<g id="a_Node000018"><a xlink:href="_inclination_detector_8h.html" target="_top" xlink:title=" ">
<polygon fill="white" stroke="#666666" points="790,-188 685.5,-188 685.5,-168 790,-168 790,-188"/>
<text text-anchor="middle" x="737.75" y="-174.5" font-family="Helvetica,sans-Serif" font-size="10.00">InclinationDetector.h</text>
</a>
</g>
</g>
<!-- Node12&#45;&gt;Node18 -->
<g id="edge42_Node000012_Node000018" class="edge">
<title>Node12&#45;&gt;Node18</title>
<g id="a_edge42_Node000012_Node000018"><a xlink:title=" ">
<path fill="none" stroke="#63b8ff" d="M629.81,-279.62C649.75,-261.03 694.54,-219.28 719.7,-195.82"/>
<polygon fill="#63b8ff" stroke="#63b8ff" points="721.79,-198.73 726.71,-189.35 717.01,-193.61 721.79,-198.73"/>
</a>
</g>
</g>
<!-- Node13&#45;&gt;Node4 -->
<g id="edge23_Node000013_Node000004" class="edge">
<title>Node13&#45;&gt;Node4</title>
<g id="a_edge23_Node000013_Node000004"><a xlink:title=" ">
<path fill="none" stroke="#63b8ff" d="M848.12,-231.95C805.85,-229.27 731.16,-219.97 676.75,-188 641.01,-167 564.05,-69.11 533.07,-28.61"/>
<polygon fill="#63b8ff" stroke="#63b8ff" points="535.39,-26.88 526.55,-21.04 529.82,-31.12 535.39,-26.88"/>
</a>
</g>
</g>
<!-- Node13&#45;&gt;Node8 -->
<g id="edge38_Node000013_Node000008" class="edge">
<title>Node13&#45;&gt;Node8</title>
<g id="a_edge38_Node000013_Node000008"><a xlink:title=" ">
<path fill="none" stroke="#63b8ff" d="M894.38,-223.73C904.89,-215.68 918.65,-202.97 924.75,-188 938.38,-154.57 933.71,-111.48 929.17,-86.78"/>
<polygon fill="#63b8ff" stroke="#63b8ff" points="932.45,-86.35 927.03,-77.25 925.59,-87.75 932.45,-86.35"/>
</a>
</g>
</g>
<!-- Node13&#45;&gt;Node10 -->
<g id="edge36_Node000013_Node000010" class="edge">
<title>Node13&#45;&gt;Node10</title>
<g id="a_edge36_Node000013_Node000010"><a xlink:title=" ">
<path fill="none" stroke="#63b8ff" d="M913.3,-231.15C952.35,-227.63 1018.56,-217.45 1066.75,-188 1085.75,-176.39 1101.66,-156.17 1111.6,-141.36"/>
<polygon fill="#63b8ff" stroke="#63b8ff" points="1115.06,-143.45 1117.5,-133.14 1109.16,-139.68 1115.06,-143.45"/>
</a>
</g>
</g>
<!-- Node14 -->
<g id="Node000014" class="node">
<title>Node14</title>
<g id="a_Node000014"><a xlink:href="_motor_data_8h.html" target="_top" xlink:title="Declares a class used to store data for motors to access.">
<polygon fill="white" stroke="#666666" points="915.38,-188 846.13,-188 846.13,-168 915.38,-168 915.38,-188"/>
<text text-anchor="middle" x="880.75" y="-174.5" font-family="Helvetica,sans-Serif" font-size="10.00">MotorData.h</text>
</a>
</g>
</g>
<!-- Node13&#45;&gt;Node14 -->
<g id="edge24_Node000013_Node000014" class="edge">
<title>Node13&#45;&gt;Node14</title>
<g id="a_edge24_Node000013_Node000014"><a xlink:title=" ">
<path fill="none" stroke="#63b8ff" d="M880.75,-223.59C880.75,-216.86 880.75,-207.53 880.75,-199.15"/>
<polygon fill="#63b8ff" stroke="#63b8ff" points="884.25,-199.3 880.75,-189.3 877.25,-199.3 884.25,-199.3"/>
</a>
</g>
</g>
<!-- Node13&#45;&gt;Node15 -->
<g id="edge37_Node000013_Node000015" class="edge">
<title>Node13&#45;&gt;Node15</title>
<g id="a_edge37_Node000013_Node000015"><a xlink:title=" ">
<path fill="none" stroke="#63b8ff" d="M848.07,-228.86C801.92,-222.56 715.28,-209.01 643.75,-188 596.46,-174.11 543.9,-151.45 512.09,-136.88"/>
<polygon fill="#63b8ff" stroke="#63b8ff" points="513.68,-133.3 503.14,-132.28 510.74,-139.65 513.68,-133.3"/>
</a>
</g>
</g>
<!-- Node16 -->
<g id="Node000016" class="node">
<title>Node16</title>
<g id="a_Node000016"><a xlink:href="_controller_data_8h.html" target="_top" xlink:title="Declares a class used to store data for controllers to access.">
<polygon fill="white" stroke="#666666" points="1057.63,-188 971.88,-188 971.88,-168 1057.63,-168 1057.63,-188"/>
<text text-anchor="middle" x="1014.75" y="-174.5" font-family="Helvetica,sans-Serif" font-size="10.00">ControllerData.h</text>
</a>
</g>
</g>
<!-- Node13&#45;&gt;Node16 -->
<g id="edge31_Node000013_Node000016" class="edge">
<title>Node13&#45;&gt;Node16</title>
<g id="a_edge31_Node000013_Node000016"><a xlink:title=" ">
<path fill="none" stroke="#63b8ff" d="M904.09,-223.59C925.38,-215.01 957.1,-202.23 981.12,-192.55"/>
<polygon fill="#63b8ff" stroke="#63b8ff" points="982.26,-195.46 990.23,-188.48 979.64,-188.97 982.26,-195.46"/>
</a>
</g>
</g>
<!-- Node17 -->
<g id="Node000017" class="node">
<title>Node17</title>
<g id="a_Node000017"><a xlink:title=" ">
<polygon fill="#e0e0e0" stroke="#999999" points="781.88,-132 739.63,-132 739.63,-112 781.88,-112 781.88,-132"/>
<text text-anchor="middle" x="760.75" y="-118.5" font-family="Helvetica,sans-Serif" font-size="10.00">queue</text>
</a>
</g>
</g>
<!-- Node13&#45;&gt;Node17 -->
<g id="edge39_Node000013_Node000017" class="edge">
<title>Node13&#45;&gt;Node17</title>
<g id="a_edge39_Node000013_Node000017"><a xlink:title=" ">
<path fill="none" stroke="#63b8ff" d="M870.52,-223.62C850.15,-204.95 804.3,-162.92 778.77,-139.52"/>
<polygon fill="#63b8ff" stroke="#63b8ff" points="781.69,-137.53 771.96,-133.35 776.96,-142.69 781.69,-137.53"/>
</a>
</g>
</g>
<!-- Node14&#45;&gt;Node4 -->
<g id="edge25_Node000014_Node000004" class="edge">
<title>Node14&#45;&gt;Node4</title>
<g id="a_edge25_Node000014_Node000004"><a xlink:title=" ">
<path fill="none" stroke="#63b8ff" d="M869.75,-167.54C853.41,-153.85 821.34,-128.36 790.75,-112 712.46,-70.13 613.04,-37.92 559.02,-21.99"/>
<polygon fill="#63b8ff" stroke="#63b8ff" points="560.11,-18.37 549.53,-18.94 558.15,-25.09 560.11,-18.37"/>
</a>
</g>
</g>
<!-- Node14&#45;&gt;Node8 -->
<g id="edge30_Node000014_Node000008" class="edge">
<title>Node14&#45;&gt;Node8</title>
<g id="a_edge30_Node000014_Node000008"><a xlink:title=" ">
<path fill="none" stroke="#63b8ff" d="M884.5,-167.62C891.68,-149.68 907.48,-110.17 917.01,-86.35"/>
<polygon fill="#63b8ff" stroke="#63b8ff" points="920.54,-87.94 921.01,-77.35 914.04,-85.34 920.54,-87.94"/>
</a>
</g>
</g>
<!-- Node14&#45;&gt;Node10 -->
<g id="edge26_Node000014_Node000010" class="edge">
<title>Node14&#45;&gt;Node10</title>
<g id="a_edge26_Node000014_Node000010"><a xlink:title=" ">
<path fill="none" stroke="#63b8ff" d="M915.68,-169.21C959.79,-159.36 1035.54,-142.46 1082.17,-132.06"/>
<polygon fill="#63b8ff" stroke="#63b8ff" points="1082.79,-135.28 1091.79,-129.69 1081.27,-128.45 1082.79,-135.28"/>
</a>
</g>
</g>
<!-- Node14&#45;&gt;Node15 -->
<g id="edge27_Node000014_Node000015" class="edge">
<title>Node14&#45;&gt;Node15</title>
<g id="a_edge27_Node000014_Node000015"><a xlink:title=" ">
<path fill="none" stroke="#63b8ff" d="M845.78,-172.26C770.72,-162.07 594.85,-138.21 518.82,-127.89"/>
<polygon fill="#63b8ff" stroke="#63b8ff" points="519.31,-124.29 508.93,-126.42 518.37,-131.23 519.31,-124.29"/>
</a>
</g>
</g>
<!-- Node15&#45;&gt;Node4 -->
<g id="edge29_Node000015_Node000004" class="edge">
<title>Node15&#45;&gt;Node4</title>
<g id="a_edge29_Node000015_Node000004"><a xlink:title=" ">
<path fill="none" stroke="#63b8ff" d="M485.9,-111.62C491.91,-93.76 505.11,-54.53 513.13,-30.67"/>
<polygon fill="#63b8ff" stroke="#63b8ff" points="516.73,-31.95 516.6,-21.35 510.1,-29.72 516.73,-31.95"/>
</a>
</g>
</g>
<!-- Node15&#45;&gt;Node7 -->
<g id="edge28_Node000015_Node000007" class="edge">
<title>Node15&#45;&gt;Node7</title>
<g id="a_edge28_Node000015_Node000007"><a xlink:title=" ">
<path fill="none" stroke="#63b8ff" d="M457.6,-117.62C388.9,-108.39 197.8,-82.72 117.27,-71.91"/>
<polygon fill="#63b8ff" stroke="#63b8ff" points="118.04,-68.34 107.67,-70.48 117.11,-75.28 118.04,-68.34"/>
</a>
</g>
</g>
<!-- Node16&#45;&gt;Node4 -->
<g id="edge33_Node000016_Node000004" class="edge">
<title>Node16&#45;&gt;Node4</title>
<g id="a_edge33_Node000016_Node000004"><a xlink:title=" ">
<path fill="none" stroke="#63b8ff" d="M1013.49,-167.78C1009.78,-144.56 996.59,-83.52 957.75,-56 894.37,-11.09 655.56,-9.13 559.82,-10.22"/>
<polygon fill="#63b8ff" stroke="#63b8ff" points="559.83,-6.74 549.87,-10.37 559.92,-13.74 559.83,-6.74"/>
</a>
</g>
</g>
<!-- Node16&#45;&gt;Node8 -->
<g id="edge32_Node000016_Node000008" class="edge">
<title>Node16&#45;&gt;Node8</title>
<g id="a_edge32_Node000016_Node000008"><a xlink:title=" ">
<path fill="none" stroke="#63b8ff" d="M1007.08,-167.62C992.07,-149.27 958.6,-108.37 939.28,-84.75"/>
<polygon fill="#63b8ff" stroke="#63b8ff" points="941.45,-82.88 932.4,-77.35 936.03,-87.31 941.45,-82.88"/>
</a>
</g>
</g>
<!-- Node16&#45;&gt;Node10 -->
<g id="edge35_Node000016_Node000010" class="edge">
<title>Node16&#45;&gt;Node10</title>
<g id="a_edge35_Node000016_Node000010"><a xlink:title=" ">
<path fill="none" stroke="#63b8ff" d="M1033.56,-167.59C1050.26,-159.24 1074.92,-146.92 1094.07,-137.34"/>
<polygon fill="#63b8ff" stroke="#63b8ff" points="1095.41,-140.08 1102.79,-132.48 1092.28,-133.82 1095.41,-140.08"/>
</a>
</g>
</g>
<!-- Node16&#45;&gt;Node15 -->
<g id="edge34_Node000016_Node000015" class="edge">
<title>Node16&#45;&gt;Node15</title>
<g id="a_edge34_Node000016_Node000015"><a xlink:title=" ">
<path fill="none" stroke="#63b8ff" d="M971.66,-172.63C869.33,-162.24 613.19,-136.24 518.59,-126.64"/>
<polygon fill="#63b8ff" stroke="#63b8ff" points="519.18,-123.08 508.88,-125.55 518.47,-130.04 519.18,-123.08"/>
</a>
</g>
</g>
<!-- Node18&#45;&gt;Node4 -->
<g id="edge43_Node000018_Node000004" class="edge">
<title>Node18&#45;&gt;Node4</title>
<g id="a_edge43_Node000018_Node000004"><a xlink:title=" ">
<path fill="none" stroke="#63b8ff" d="M727.51,-167.7C704.22,-146.71 645.13,-94.54 591.75,-56 576.8,-45.2 559.26,-34.21 545.24,-25.79"/>
<polygon fill="#63b8ff" stroke="#63b8ff" points="547.55,-22.5 537.17,-20.41 543.98,-28.52 547.55,-22.5"/>
</a>
</g>
</g>
<!-- Node18&#45;&gt;Node17 -->
<g id="edge44_Node000018_Node000017" class="edge">
<title>Node18&#45;&gt;Node17</title>
<g id="a_edge44_Node000018_Node000017"><a xlink:title=" ">
<path fill="none" stroke="#63b8ff" d="M741.76,-167.59C744.72,-160.63 748.87,-150.89 752.54,-142.29"/>
<polygon fill="#63b8ff" stroke="#63b8ff" points="756.09,-143.87 756.79,-133.3 749.65,-141.13 756.09,-143.87"/>
</a>
</g>
</g>
<!-- Node19 -->
<g id="Node000019" class="node">
<title>Node19</title>
<g id="a_Node000019"><a xlink:title=" ">
<polygon fill="#e0e0e0" stroke="#999999" points="877.38,-132 838.13,-132 838.13,-112 877.38,-112 877.38,-132"/>
<text text-anchor="middle" x="857.75" y="-118.5" font-family="Helvetica,sans-Serif" font-size="10.00">utility</text>
</a>
</g>
</g>
<!-- Node18&#45;&gt;Node19 -->
<g id="edge45_Node000018_Node000019" class="edge">
<title>Node18&#45;&gt;Node19</title>
<g id="a_edge45_Node000018_Node000019"><a xlink:title=" ">
<path fill="none" stroke="#63b8ff" d="M758.65,-167.59C777.81,-158.97 806.39,-146.11 827.94,-136.41"/>
<polygon fill="#63b8ff" stroke="#63b8ff" points="829.2,-139.24 836.88,-131.94 826.33,-132.85 829.2,-139.24"/>
</a>
</g>
</g>
<!-- Node20&#45;&gt;Node4 -->
<g id="edge51_Node000020_Node000004" class="edge">
<title>Node20&#45;&gt;Node4</title>
<g id="a_edge51_Node000020_Node000004"><a xlink:title=" ">
<path fill="none" stroke="#63b8ff" d="M320.87,-223.62C313.66,-210.87 303.15,-187.44 309.75,-168 329.93,-108.57 345.11,-93.08 395.75,-56 420.89,-37.59 454.34,-26.04 480.16,-19.25"/>
<polygon fill="#63b8ff" stroke="#63b8ff" points="480.85,-22.44 489.71,-16.63 479.16,-15.65 480.85,-22.44"/>
</a>
</g>
</g>
<!-- Node20&#45;&gt;Node15 -->
<g id="edge52_Node000020_Node000015" class="edge">
<title>Node20&#45;&gt;Node15</title>
<g id="a_edge52_Node000020_Node000015"><a xlink:title=" ">
<path fill="none" stroke="#63b8ff" d="M322.21,-223.51C316.39,-209.78 308.41,-184.24 320.75,-168 335.91,-148.05 403.58,-134.62 446.52,-127.94"/>
<polygon fill="#63b8ff" stroke="#63b8ff" points="447.02,-131.25 456.39,-126.31 445.98,-124.33 447.02,-131.25"/>
</a>
</g>
</g>
<!-- Node20&#45;&gt;Node21 -->
<g id="edge53_Node000020_Node000021" class="edge">
<title>Node20&#45;&gt;Node21</title>
<g id="a_edge53_Node000020_Node000021"><a xlink:title=" ">
<path fill="none" stroke="#63b8ff" d="M333.54,-223.59C338.8,-216.32 346.24,-206.02 352.64,-197.15"/>
<polygon fill="#63b8ff" stroke="#63b8ff" points="356.02,-199.45 359.03,-189.3 350.34,-195.36 356.02,-199.45"/>
</a>
</g>
</g>
<!-- Node21&#45;&gt;Node4 -->
<g id="edge54_Node000021_Node000004" class="edge">
<title>Node21&#45;&gt;Node4</title>
<g id="a_edge54_Node000021_Node000004"><a xlink:title=" ">
<path fill="none" stroke="#63b8ff" d="M367.13,-167.82C370.91,-145.71 383.39,-88.9 415.75,-56 433.22,-38.24 458.84,-27.04 480.29,-20.26"/>
<polygon fill="#63b8ff" stroke="#63b8ff" points="481.13,-23.36 489.74,-17.19 479.16,-16.65 481.13,-23.36"/>
</a>
</g>
</g>
<!-- Node21&#45;&gt;Node15 -->
<g id="edge55_Node000021_Node000015" class="edge">
<title>Node21&#45;&gt;Node15</title>
<g id="a_edge55_Node000021_Node000015"><a xlink:title=" ">
<path fill="none" stroke="#63b8ff" d="M386.13,-167.59C404.39,-159.17 431.42,-146.69 452.26,-137.07"/>
<polygon fill="#63b8ff" stroke="#63b8ff" points="453.6,-139.85 461.21,-132.48 450.66,-133.49 453.6,-139.85"/>
</a>
</g>
</g>
<!-- Node22&#45;&gt;Node10 -->
<g id="edge60_Node000022_Node000010" class="edge">
<title>Node22&#45;&gt;Node10</title>
<g id="a_edge60_Node000022_Node000010"><a xlink:title=" ">
<path fill="none" stroke="#63b8ff" d="M1095.13,-398.49C1161.4,-392.14 1273.75,-369.76 1273.75,-291 1273.75,-291 1273.75,-291 1273.75,-233 1273.75,-202.9 1275.56,-189.75 1254.75,-168 1230.93,-143.1 1192.8,-131.98 1163.63,-127.01"/>
<polygon fill="#63b8ff" stroke="#63b8ff" points="1164.35,-123.43 1153.94,-125.39 1163.3,-130.35 1164.35,-123.43"/>
</a>
</g>
</g>
<!-- Node22&#45;&gt;Node11 -->
<g id="edge59_Node000022_Node000011" class="edge">
<title>Node22&#45;&gt;Node11</title>
<g id="a_edge59_Node000022_Node000011"><a xlink:title=" ">
<path fill="none" stroke="#63b8ff" d="M1000.33,-395.92C902.26,-385.41 678.52,-361.44 585.5,-351.47"/>
<polygon fill="#63b8ff" stroke="#63b8ff" points="586.14,-347.91 575.83,-350.33 585.4,-354.88 586.14,-347.91"/>
</a>
</g>
</g>
<!-- Node23 -->
<g id="Node000023" class="node">
<title>Node23</title>
<g id="a_Node000023"><a xlink:href="_utilities_8h.html" target="_top" xlink:title=" ">
<polygon fill="white" stroke="#666666" points="1246,-188 1189.5,-188 1189.5,-168 1246,-168 1246,-188"/>
<text text-anchor="middle" x="1217.75" y="-174.5" font-family="Helvetica,sans-Serif" font-size="10.00">Utilities.h</text>
</a>
</g>
</g>
<!-- Node22&#45;&gt;Node23 -->
<g id="edge61_Node000022_Node000023" class="edge">
<title>Node22&#45;&gt;Node23</title>
<g id="a_edge61_Node000022_Node000023"><a xlink:title=" ">
<path fill="none" stroke="#63b8ff" d="M1073.57,-391.54C1091.49,-384 1115.04,-372.04 1131.75,-356 1178.69,-310.93 1203.39,-234.95 1212.96,-199"/>
<polygon fill="#63b8ff" stroke="#63b8ff" points="1216.57,-200 1215.63,-189.44 1209.78,-198.28 1216.57,-200"/>
</a>
</g>
</g>
<!-- Node24 -->
<g id="Node000024" class="node">
<title>Node24</title>
<g id="a_Node000024"><a xlink:title=" ">
<polygon fill="#e0e0e0" stroke="#999999" points="954.63,-356 916.88,-356 916.88,-336 954.63,-336 954.63,-356"/>
<text text-anchor="middle" x="935.75" y="-342.5" font-family="Helvetica,sans-Serif" font-size="10.00">SD.h</text>
</a>
</g>
</g>
<!-- Node22&#45;&gt;Node24 -->
<g id="edge67_Node000022_Node000024" class="edge">
<title>Node22&#45;&gt;Node24</title>
<g id="a_edge67_Node000022_Node000024"><a xlink:title=" ">
<path fill="none" stroke="#63b8ff" d="M1028.24,-391.59C1010.74,-383.15 984.8,-370.65 964.85,-361.03"/>
<polygon fill="#63b8ff" stroke="#63b8ff" points="966.56,-357.49 956.04,-356.3 963.52,-363.79 966.56,-357.49"/>
</a>
</g>
</g>
<!-- Node25 -->
<g id="Node000025" class="node">
<title>Node25</title>
<g id="a_Node000025"><a xlink:title=" ">
<polygon fill="#e0e0e0" stroke="#999999" points="1012.75,-356 972.75,-356 972.75,-336 1012.75,-336 1012.75,-356"/>
<text text-anchor="middle" x="992.75" y="-342.5" font-family="Helvetica,sans-Serif" font-size="10.00">SPI.h</text>
</a>
</g>
</g>
<!-- Node22&#45;&gt;Node25 -->
<g id="edge68_Node000022_Node000025" class="edge">
<title>Node22&#45;&gt;Node25</title>
<g id="a_edge68_Node000022_Node000025"><a xlink:title=" ">
<path fill="none" stroke="#63b8ff" d="M1038.17,-391.59C1030.36,-383.93 1019.14,-372.91 1009.81,-363.75"/>
<polygon fill="#63b8ff" stroke="#63b8ff" points="1012.81,-361.81 1003.22,-357.3 1007.9,-366.8 1012.81,-361.81"/>
</a>
</g>
</g>
<!-- Node26 -->
<g id="Node000026" class="node">
<title>Node26</title>
<g id="a_Node000026"><a xlink:title=" ">
<polygon fill="#e0e0e0" stroke="#999999" points="1065.13,-356 1030.38,-356 1030.38,-336 1065.13,-336 1065.13,-356"/>
<text text-anchor="middle" x="1047.75" y="-342.5" font-family="Helvetica,sans-Serif" font-size="10.00">map</text>
</a>
</g>
</g>
<!-- Node22&#45;&gt;Node26 -->
<g id="edge69_Node000022_Node000026" class="edge">
<title>Node22&#45;&gt;Node26</title>
<g id="a_edge69_Node000022_Node000026"><a xlink:title=" ">
<path fill="none" stroke="#63b8ff" d="M1047.75,-391.59C1047.75,-384.86 1047.75,-375.53 1047.75,-367.15"/>
<polygon fill="#63b8ff" stroke="#63b8ff" points="1051.25,-367.3 1047.75,-357.3 1044.25,-367.3 1051.25,-367.3"/>
</a>
</g>
</g>
<!-- Node27 -->
<g id="Node000027" class="node">
<title>Node27</title>
<g id="a_Node000027"><a xlink:title=" ">
<polygon fill="#e0e0e0" stroke="#999999" points="1122.75,-356 1082.75,-356 1082.75,-336 1122.75,-336 1122.75,-356"/>
<text text-anchor="middle" x="1102.75" y="-342.5" font-family="Helvetica,sans-Serif" font-size="10.00">string</text>
</a>
</g>
</g>
<!-- Node22&#45;&gt;Node27 -->
<g id="edge70_Node000022_Node000027" class="edge">
<title>Node22&#45;&gt;Node27</title>
<g id="a_edge70_Node000022_Node000027"><a xlink:title=" ">
<path fill="none" stroke="#63b8ff" d="M1057.33,-391.59C1065.14,-383.93 1076.36,-372.91 1085.69,-363.75"/>
<polygon fill="#63b8ff" stroke="#63b8ff" points="1087.6,-366.8 1092.28,-357.3 1082.69,-361.81 1087.6,-366.8"/>
</a>
</g>
</g>
<!-- Node23&#45;&gt;Node4 -->
<g id="edge63_Node000023_Node000004" class="edge">
<title>Node23&#45;&gt;Node4</title>
<g id="a_edge63_Node000023_Node000004"><a xlink:title=" ">
<path fill="none" stroke="#63b8ff" d="M1215.85,-167.5C1212.51,-153.29 1204.21,-126.59 1186.75,-112 1114.28,-51.43 1074.64,-73.08 981.75,-56 826.95,-27.53 639.43,-16.31 559.23,-12.59"/>
<polygon fill="#63b8ff" stroke="#63b8ff" points="559.79,-9.06 549.64,-12.11 559.47,-16.06 559.79,-9.06"/>
</a>
</g>
</g>
<!-- Node23&#45;&gt;Node8 -->
<g id="edge64_Node000023_Node000008" class="edge">
<title>Node23&#45;&gt;Node8</title>
<g id="a_edge64_Node000023_Node000008"><a xlink:title=" ">
<path fill="none" stroke="#63b8ff" d="M1212.58,-167.72C1204.03,-153.29 1185.48,-125.7 1161.75,-112 1097.45,-74.87 1008.54,-67.59 959.95,-66.62"/>
<polygon fill="#63b8ff" stroke="#63b8ff" points="960.12,-63.11 950.08,-66.49 960.04,-70.11 960.12,-63.11"/>
</a>
</g>
</g>
<!-- Node23&#45;&gt;Node10 -->
<g id="edge62_Node000023_Node000010" class="edge">
<title>Node23&#45;&gt;Node10</title>
<g id="a_edge62_Node000023_Node000010"><a xlink:title=" ">
<path fill="none" stroke="#63b8ff" d="M1201.2,-167.59C1186.72,-159.36 1165.42,-147.26 1148.68,-137.74"/>
<polygon fill="#63b8ff" stroke="#63b8ff" points="1150.85,-134.38 1140.43,-132.48 1147.39,-140.46 1150.85,-134.38"/>
</a>
</g>
</g>
<!-- Node23&#45;&gt;Node17 -->
<g id="edge66_Node000023_Node000017" class="edge">
<title>Node23&#45;&gt;Node17</title>
<g id="a_edge66_Node000023_Node000017"><a xlink:title=" ">
<path fill="none" stroke="#63b8ff" d="M1189.42,-173.88C1125.21,-166.79 963.69,-148.73 828.75,-132 817.05,-130.55 804.23,-128.87 792.91,-127.37"/>
<polygon fill="#63b8ff" stroke="#63b8ff" points="793.55,-123.79 783.18,-125.93 792.62,-130.73 793.55,-123.79"/>
</a>
</g>
</g>
<!-- Node23&#45;&gt;Node19 -->
<g id="edge65_Node000023_Node000019" class="edge">
<title>Node23&#45;&gt;Node19</title>
<g id="a_edge65_Node000023_Node000019"><a xlink:title=" ">
<path fill="none" stroke="#63b8ff" d="M1189.2,-172.72C1122.41,-162.7 956.44,-137.8 888,-127.54"/>
<polygon fill="#63b8ff" stroke="#63b8ff" points="888.92,-123.99 878.51,-125.96 887.88,-130.91 888.92,-123.99"/>
</a>
</g>
</g>
<!-- Node28&#45;&gt;Node4 -->
<g id="edge73_Node000028_Node000004" class="edge">
<title>Node28&#45;&gt;Node4</title>
<g id="a_edge73_Node000028_Node000004"><a xlink:title=" ">
<path fill="none" stroke="#63b8ff" d="M1415.6,-279.64C1411.45,-260.73 1402.75,-216.58 1402.75,-179 1402.75,-179 1402.75,-179 1402.75,-121 1402.75,-34.78 731.31,-15.29 559.44,-11.71"/>
<polygon fill="#63b8ff" stroke="#63b8ff" points="559.7,-8.19 549.63,-11.49 559.55,-15.19 559.7,-8.19"/>
</a>
</g>
</g>
</g>
</svg>

<g id="navigator" transform="translate(0 0)" fill="#404254">
  <rect fill="#f2f5e9" fill-opacity="0.5" stroke="#606060" stroke-width=".5" x="0" y="0" width="60" height="60"/>
  <use id="zoomplus" xlink:href="#zoomPlus" x="17" y="9" onmousedown="handleZoom(evt,'in')"/>
  <use id="zoomminus" xlink:href="#zoomMin" x="42" y="9" onmousedown="handleZoom(evt,'out')"/>
  <use id="reset" xlink:href="#resetDef" x="30" y="36" onmousedown="handleReset()"/>
   <use id="arrowup" xlink:href="#arrowUp" x="0" y="0" onmousedown="handlePan(0,-1)"/>
  <use id="arrowright" xlink:href="#arrowRight" x="0" y="0" onmousedown="handlePan(1,0)"/>
  <use id="arrowdown" xlink:href="#arrowDown" x="0" y="0" onmousedown="handlePan(0,1)"/>
  <use id="arrowleft" xlink:href="#arrowLeft" x="0" y="0" onmousedown="handlePan(-1,0)"/>
</g>
<svg viewBox="0 0 15 15" width="100%" height="30px" preserveAspectRatio="xMaxYMin meet">
 <g id="arrow_out" transform="scale(0.3 0.3)">
  <a xlink:href="_error_reporter_8h__incl_org.svg" target="_base">
   <rect id="button" ry="5" rx="5" y="6" x="6" height="38" width="38"
        fill="#f2f5e9" fill-opacity="0.5" stroke="#606060" stroke-width="1.0"/>
   <path id="arrow"
     d="M 11.500037,31.436501 C 11.940474,20.09759 22.043105,11.32322 32.158766,21.979434 L 37.068811,17.246167 C 37.068811,17.246167 37.088388,32 37.088388,32 L 22.160133,31.978069 C 22.160133,31.978069 26.997745,27.140456 26.997745,27.140456 C 18.528582,18.264221 13.291696,25.230495 11.500037,31.436501 z"
     style="fill:#404040;"/>
  </a>
 </g>
</svg>

<style type='text/css'>
<![CDATA[
[data-mouse-over-selected='false'] { opacity: 0.7; }
[data-mouse-over-selected='true']  { opacity: 1.0; }
]]>
</style>
<script type="application/ecmascript"><![CDATA[
document.addEventListener('DOMContentLoaded', (event) => {
  highlightEdges();
  highlightAdjacentNodes();
});
]]></script>
</svg>
