<?xml version="1.0" encoding="UTF-8" standalone="no"?>
<!DOCTYPE svg PUBLIC "-//W3C//DTD SVG 1.1//EN"
 "http://www.w3.org/Graphics/SVG/1.1/DTD/svg11.dtd">
<!-- Generated by graphviz version 8.1.0 (20230707.0739)
 -->
<!-- Title: ExoData.cpp Pages: 1 -->
<svg width="1156pt" height="476pt"
 viewBox="0.00 0.00 1155.50 476.00" xmlns="http://www.w3.org/2000/svg" xmlns:xlink="http://www.w3.org/1999/xlink">
<g id="graph0" class="graph" transform="scale(1 1) rotate(0) translate(4 472)">
<title>ExoData.cpp</title>
<!-- Node1 -->
<g id="Node000001" class="node">
<title>Node1</title>
<g id="a_Node000001"><a xlink:title=" ">
<polygon fill="#999999" stroke="#666666" points="657.13,-468 584.88,-468 584.88,-448 657.13,-448 657.13,-468"/>
<text text-anchor="middle" x="621" y="-454.5" font-family="Helvetica,sans-Serif" font-size="10.00">ExoData.cpp</text>
</a>
</g>
</g>
<!-- Node2 -->
<g id="Node000002" class="node">
<title>Node2</title>
<g id="a_Node000002"><a xlink:href="_exo_data_8h.html" target="_top" xlink:title="Declares a class used to store data for the Exo to access.">
<polygon fill="white" stroke="#666666" points="684.88,-356 623.13,-356 623.13,-336 684.88,-336 684.88,-356"/>
<text text-anchor="middle" x="654" y="-342.5" font-family="Helvetica,sans-Serif" font-size="10.00">ExoData.h</text>
</a>
</g>
</g>
<!-- Node1&#45;&gt;Node2 -->
<g id="edge1_Node000001_Node000002" class="edge">
<title>Node1&#45;&gt;Node2</title>
<g id="a_edge1_Node000001_Node000002"><a xlink:title=" ">
<path fill="none" stroke="#63b8ff" d="M623.94,-447.71C626.81,-438.62 631.27,-424.38 635,-412 639.58,-396.83 644.6,-379.62 648.33,-366.72"/>
<polygon fill="#63b8ff" stroke="#63b8ff" points="651.94,-367.85 651.34,-357.27 645.21,-365.91 651.94,-367.85"/>
</a>
</g>
</g>
<!-- Node18 -->
<g id="Node000018" class="node">
<title>Node18</title>
<g id="a_Node000018"><a xlink:href="error__codes_8h.html" target="_top" xlink:title="Error codes for the exoskeleton. These are used to index the error map.">
<polygon fill="white" stroke="#666666" points="625.63,-412 550.38,-412 550.38,-392 625.63,-392 625.63,-412"/>
<text text-anchor="middle" x="588" y="-398.5" font-family="Helvetica,sans-Serif" font-size="10.00">error_codes.h</text>
</a>
</g>
</g>
<!-- Node1&#45;&gt;Node18 -->
<g id="edge43_Node000001_Node000018" class="edge">
<title>Node1&#45;&gt;Node18</title>
<g id="a_edge43_Node000001_Node000018"><a xlink:title=" ">
<path fill="none" stroke="#63b8ff" d="M615.25,-447.59C610.85,-440.39 604.64,-430.23 599.26,-421.43"/>
<polygon fill="#63b8ff" stroke="#63b8ff" points="601.88,-420.01 593.68,-413.3 595.91,-423.66 601.88,-420.01"/>
</a>
</g>
</g>
<!-- Node19 -->
<g id="Node000019" class="node">
<title>Node19</title>
<g id="a_Node000019"><a xlink:href="_logger_8h.html" target="_top" xlink:title=" ">
<polygon fill="white" stroke="#666666" points="1113.75,-132 1060.25,-132 1060.25,-112 1113.75,-112 1113.75,-132"/>
<text text-anchor="middle" x="1087" y="-118.5" font-family="Helvetica,sans-Serif" font-size="10.00">Logger.h</text>
</a>
</g>
</g>
<!-- Node1&#45;&gt;Node19 -->
<g id="edge44_Node000001_Node000019" class="edge">
<title>Node1&#45;&gt;Node19</title>
<g id="a_edge44_Node000001_Node000019"><a xlink:title=" ">
<path fill="none" stroke="#63b8ff" d="M657.57,-456.18C767.42,-452.73 1087,-435.11 1087,-347 1087,-347 1087,-347 1087,-233 1087,-201.72 1087,-165.45 1087,-143.37"/>
<polygon fill="#63b8ff" stroke="#63b8ff" points="1090.5,-143.42 1087,-133.42 1083.5,-143.42 1090.5,-143.42"/>
</a>
</g>
</g>
<!-- Node20 -->
<g id="Node000020" class="node">
<title>Node20</title>
<g id="a_Node000020"><a xlink:href="_params_from_s_d_8h.html" target="_top" xlink:title="Declares the functions to pull controller parameters from the SD card and defines the mapping to the ...">
<polygon fill="white" stroke="#666666" points="296,-412 202,-412 202,-392 296,-392 296,-412"/>
<text text-anchor="middle" x="249" y="-398.5" font-family="Helvetica,sans-Serif" font-size="10.00">ParamsFromSD.h</text>
</a>
</g>
</g>
<!-- Node1&#45;&gt;Node20 -->
<g id="edge48_Node000001_Node000020" class="edge">
<title>Node1&#45;&gt;Node20</title>
<g id="a_edge48_Node000001_Node000020"><a xlink:title=" ">
<path fill="none" stroke="#63b8ff" d="M584.65,-451.72C519.96,-442.33 384.36,-422.65 306.77,-411.39"/>
<polygon fill="#63b8ff" stroke="#63b8ff" points="307.62,-407.83 297.22,-409.85 306.61,-414.75 307.62,-407.83"/>
</a>
</g>
</g>
<!-- Node3 -->
<g id="Node000003" class="node">
<title>Node3</title>
<g id="a_Node000003"><a xlink:title=" ">
<polygon fill="#e0e0e0" stroke="#999999" points="723.63,-20 666.38,-20 666.38,0 723.63,0 723.63,-20"/>
<text text-anchor="middle" x="695" y="-6.5" font-family="Helvetica,sans-Serif" font-size="10.00">Arduino.h</text>
</a>
</g>
</g>
<!-- Node2&#45;&gt;Node3 -->
<g id="edge2_Node000002_Node000003" class="edge">
<title>Node2&#45;&gt;Node3</title>
<g id="a_edge2_Node000002_Node000003"><a xlink:title=" ">
<path fill="none" stroke="#63b8ff" d="M622.9,-343.89C492.93,-338.44 0,-309.17 0,-179 0,-179 0,-179 0,-121 0,-49.16 78.36,-73.63 148,-56 244.24,-31.64 546.22,-17.12 655.24,-12.56"/>
<polygon fill="#63b8ff" stroke="#63b8ff" points="655.23,-16.03 665.08,-12.12 654.94,-9.03 655.23,-16.03"/>
</a>
</g>
</g>
<!-- Node4 -->
<g id="Node000004" class="node">
<title>Node4</title>
<g id="a_Node000004"><a xlink:href="_leg_data_8h.html" target="_top" xlink:title="Declares a class used to store data for leg to access.">
<polygon fill="white" stroke="#666666" points="493.13,-300 432.88,-300 432.88,-280 493.13,-280 493.13,-300"/>
<text text-anchor="middle" x="463" y="-286.5" font-family="Helvetica,sans-Serif" font-size="10.00">LegData.h</text>
</a>
</g>
</g>
<!-- Node2&#45;&gt;Node4 -->
<g id="edge3_Node000002_Node000004" class="edge">
<title>Node2&#45;&gt;Node4</title>
<g id="a_edge3_Node000002_Node000004"><a xlink:title=" ">
<path fill="none" stroke="#63b8ff" d="M622.89,-336.2C590.51,-327.05 539.64,-312.67 504,-302.59"/>
<polygon fill="#63b8ff" stroke="#63b8ff" points="505.04,-298.97 494.47,-299.61 503.14,-305.7 505.04,-298.97"/>
</a>
</g>
</g>
<!-- Node7 -->
<g id="Node000007" class="node">
<title>Node7</title>
<g id="a_Node000007"><a xlink:href="_parse_ini_8h.html" target="_top" xlink:title="Declares the functions needed and defines mapping between the INI keys and the exo components.">
<polygon fill="white" stroke="#666666" points="425.75,-132 366.25,-132 366.25,-112 425.75,-112 425.75,-132"/>
<text text-anchor="middle" x="396" y="-118.5" font-family="Helvetica,sans-Serif" font-size="10.00">ParseIni.h</text>
</a>
</g>
</g>
<!-- Node2&#45;&gt;Node7 -->
<g id="edge34_Node000002_Node000007" class="edge">
<title>Node2&#45;&gt;Node7</title>
<g id="a_edge34_Node000002_Node000007"><a xlink:title=" ">
<path fill="none" stroke="#63b8ff" d="M622.71,-343.21C566.33,-339.31 451.04,-328.04 424,-300 382.67,-257.14 387.49,-179.45 392.55,-142.95"/>
<polygon fill="#63b8ff" stroke="#63b8ff" points="396.13,-143.69 394.21,-133.27 389.22,-142.61 396.13,-143.69"/>
</a>
</g>
</g>
<!-- Node8 -->
<g id="Node000008" class="node">
<title>Node8</title>
<g id="a_Node000008"><a xlink:title=" ">
<polygon fill="#e0e0e0" stroke="#999999" points="525.13,-76 476.88,-76 476.88,-56 525.13,-56 525.13,-76"/>
<text text-anchor="middle" x="501" y="-62.5" font-family="Helvetica,sans-Serif" font-size="10.00">stdint.h</text>
</a>
</g>
</g>
<!-- Node2&#45;&gt;Node8 -->
<g id="edge33_Node000002_Node000008" class="edge">
<title>Node2&#45;&gt;Node8</title>
<g id="a_edge33_Node000002_Node000008"><a xlink:title=" ">
<path fill="none" stroke="#63b8ff" d="M662.12,-335.87C685.38,-308.54 748.37,-225.73 712,-168 673.24,-106.47 585.48,-81.6 536.22,-72.21"/>
<polygon fill="#63b8ff" stroke="#63b8ff" points="536.92,-68.6 526.46,-70.29 535.68,-75.49 536.92,-68.6"/>
</a>
</g>
</g>
<!-- Node9 -->
<g id="Node000009" class="node">
<title>Node9</title>
<g id="a_Node000009"><a xlink:href="_board_8h.html" target="_top" xlink:title="Defines the pins and peripherals for the board being used.">
<polygon fill="white" stroke="#666666" points="831.88,-132 782.13,-132 782.13,-112 831.88,-112 831.88,-132"/>
<text text-anchor="middle" x="807" y="-118.5" font-family="Helvetica,sans-Serif" font-size="10.00">Board.h</text>
</a>
</g>
</g>
<!-- Node2&#45;&gt;Node9 -->
<g id="edge35_Node000002_Node000009" class="edge">
<title>Node2&#45;&gt;Node9</title>
<g id="a_edge35_Node000002_Node000009"><a xlink:title=" ">
<path fill="none" stroke="#63b8ff" d="M685.27,-344.97C736.93,-343.82 842.28,-336.68 922,-300 957.26,-283.78 971.63,-278.71 989,-244 1004.13,-213.77 1012.89,-194.58 992,-168 973.81,-144.85 891.37,-132.13 842.89,-126.53"/>
<polygon fill="#63b8ff" stroke="#63b8ff" points="843.55,-122.97 833.23,-125.35 842.78,-129.93 843.55,-122.97"/>
</a>
</g>
</g>
<!-- Node16 -->
<g id="Node000016" class="node">
<title>Node16</title>
<g id="a_Node000016"><a xlink:href="_status_led_8h.html" target="_top" xlink:title="Class to set an RGB LED to different colors based on the state of the system.">
<polygon fill="white" stroke="#666666" points="980.25,-244 911.75,-244 911.75,-224 980.25,-224 980.25,-244"/>
<text text-anchor="middle" x="946" y="-230.5" font-family="Helvetica,sans-Serif" font-size="10.00">StatusLed.h</text>
</a>
</g>
</g>
<!-- Node2&#45;&gt;Node16 -->
<g id="edge36_Node000002_Node000016" class="edge">
<title>Node2&#45;&gt;Node16</title>
<g id="a_edge36_Node000002_Node000016"><a xlink:title=" ">
<path fill="none" stroke="#63b8ff" d="M685.1,-342.12C742.59,-336.34 862.84,-321.97 898,-300 915.61,-288.99 928.91,-268.97 936.99,-254.05"/>
<polygon fill="#63b8ff" stroke="#63b8ff" points="940.54,-255.79 941.94,-245.29 934.3,-252.62 940.54,-255.79"/>
</a>
</g>
</g>
<!-- Node17 -->
<g id="Node000017" class="node">
<title>Node17</title>
<g id="a_Node000017"><a xlink:href="_status_defs_8h.html" target="_top" xlink:title="Stores the different status messages for the system.">
<polygon fill="white" stroke="#666666" points="983.13,-188 910.88,-188 910.88,-168 983.13,-168 983.13,-188"/>
<text text-anchor="middle" x="947" y="-174.5" font-family="Helvetica,sans-Serif" font-size="10.00">StatusDefs.h</text>
</a>
</g>
</g>
<!-- Node2&#45;&gt;Node17 -->
<g id="edge42_Node000002_Node000017" class="edge">
<title>Node2&#45;&gt;Node17</title>
<g id="a_edge42_Node000002_Node000017"><a xlink:title=" ">
<path fill="none" stroke="#63b8ff" d="M685.28,-345.67C728.42,-345.04 806.78,-338.16 859,-300 890.51,-276.97 879.4,-255.08 903,-224 910.63,-213.95 920.33,-203.81 928.68,-195.7"/>
<polygon fill="#63b8ff" stroke="#63b8ff" points="930.59,-198.77 935.46,-189.36 925.79,-193.68 930.59,-198.77"/>
</a>
</g>
</g>
<!-- Node4&#45;&gt;Node3 -->
<g id="edge4_Node000004_Node000003" class="edge">
<title>Node4&#45;&gt;Node3</title>
<g id="a_edge4_Node000004_Node000003"><a xlink:title=" ">
<path fill="none" stroke="#63b8ff" d="M432.54,-286.2C332.73,-276.33 23.78,-239.75 57,-168 91.21,-94.1 125.61,-84.22 202,-56 285.05,-25.32 553.74,-14.88 655.47,-11.97"/>
<polygon fill="#63b8ff" stroke="#63b8ff" points="655.29,-15.45 665.19,-11.67 655.1,-8.45 655.29,-15.45"/>
</a>
</g>
</g>
<!-- Node5 -->
<g id="Node000005" class="node">
<title>Node5</title>
<g id="a_Node000005"><a xlink:href="_joint_data_8h.html" target="_top" xlink:title="Declares a class used to store data for joint to access.">
<polygon fill="white" stroke="#666666" points="576.38,-244 511.63,-244 511.63,-224 576.38,-224 576.38,-244"/>
<text text-anchor="middle" x="544" y="-230.5" font-family="Helvetica,sans-Serif" font-size="10.00">JointData.h</text>
</a>
</g>
</g>
<!-- Node4&#45;&gt;Node5 -->
<g id="edge5_Node000004_Node000005" class="edge">
<title>Node4&#45;&gt;Node5</title>
<g id="a_edge5_Node000004_Node000005"><a xlink:title=" ">
<path fill="none" stroke="#63b8ff" d="M477.11,-279.59C489.11,-271.59 506.6,-259.93 520.68,-250.54"/>
<polygon fill="#63b8ff" stroke="#63b8ff" points="522.4,-252.94 528.78,-244.48 518.52,-247.11 522.4,-252.94"/>
</a>
</g>
</g>
<!-- Node4&#45;&gt;Node7 -->
<g id="edge26_Node000004_Node000007" class="edge">
<title>Node4&#45;&gt;Node7</title>
<g id="a_edge26_Node000004_Node000007"><a xlink:title=" ">
<path fill="none" stroke="#63b8ff" d="M459.21,-279.6C448.56,-253.23 418.27,-178.19 403.84,-142.42"/>
<polygon fill="#63b8ff" stroke="#63b8ff" points="406.74,-141.26 399.75,-133.3 400.25,-143.88 406.74,-141.26"/>
</a>
</g>
</g>
<!-- Node4&#45;&gt;Node8 -->
<g id="edge32_Node000004_Node000008" class="edge">
<title>Node4&#45;&gt;Node8</title>
<g id="a_edge32_Node000004_Node000008"><a xlink:title=" ">
<path fill="none" stroke="#63b8ff" d="M464.58,-279.74C470.26,-246.6 489.64,-133.35 497.57,-87.01"/>
<polygon fill="#63b8ff" stroke="#63b8ff" points="501.17,-87.74 499.41,-77.3 494.27,-86.56 501.17,-87.74"/>
</a>
</g>
</g>
<!-- Node4&#45;&gt;Node9 -->
<g id="edge27_Node000004_Node000009" class="edge">
<title>Node4&#45;&gt;Node9</title>
<g id="a_edge27_Node000004_Node000009"><a xlink:title=" ">
<path fill="none" stroke="#63b8ff" d="M493.18,-286.39C552.68,-279.81 686.65,-257.75 771,-188 785.42,-176.08 795.05,-156.8 800.7,-142.33"/>
<polygon fill="#63b8ff" stroke="#63b8ff" points="804.18,-144 804.25,-133.4 797.59,-141.64 804.18,-144"/>
</a>
</g>
</g>
<!-- Node14 -->
<g id="Node000014" class="node">
<title>Node14</title>
<g id="a_Node000014"><a xlink:href="_inclination_detector_8h.html" target="_top" xlink:title=" ">
<polygon fill="white" stroke="#666666" points="170.25,-188 65.75,-188 65.75,-168 170.25,-168 170.25,-188"/>
<text text-anchor="middle" x="118" y="-174.5" font-family="Helvetica,sans-Serif" font-size="10.00">InclinationDetector.h</text>
</a>
</g>
</g>
<!-- Node4&#45;&gt;Node14 -->
<g id="edge28_Node000004_Node000014" class="edge">
<title>Node4&#45;&gt;Node14</title>
<g id="a_edge28_Node000004_Node000014"><a xlink:title=" ">
<path fill="none" stroke="#63b8ff" d="M451.83,-279.58C434.18,-265.21 398.2,-238.02 363,-224 346.29,-217.35 247.85,-200.34 180.95,-189.24"/>
<polygon fill="#63b8ff" stroke="#63b8ff" points="181.93,-185.69 171.5,-187.51 180.79,-192.6 181.93,-185.69"/>
</a>
</g>
</g>
<!-- Node5&#45;&gt;Node3 -->
<g id="edge6_Node000005_Node000003" class="edge">
<title>Node5&#45;&gt;Node3</title>
<g id="a_edge6_Node000005_Node000003"><a xlink:title=" ">
<path fill="none" stroke="#63b8ff" d="M576.73,-228.95C620.81,-222.75 695.64,-209.32 712,-188 748.11,-140.95 720.44,-64.83 704.39,-29.77"/>
<polygon fill="#63b8ff" stroke="#63b8ff" points="707.33,-28.81 699.86,-21.29 701.01,-31.82 707.33,-28.81"/>
</a>
</g>
</g>
<!-- Node6 -->
<g id="Node000006" class="node">
<title>Node6</title>
<g id="a_Node000006"><a xlink:href="_motor_data_8h.html" target="_top" xlink:title="Declares a class used to store data for motors to access.">
<polygon fill="white" stroke="#666666" points="598.63,-188 529.38,-188 529.38,-168 598.63,-168 598.63,-188"/>
<text text-anchor="middle" x="564" y="-174.5" font-family="Helvetica,sans-Serif" font-size="10.00">MotorData.h</text>
</a>
</g>
</g>
<!-- Node5&#45;&gt;Node6 -->
<g id="edge7_Node000005_Node000006" class="edge">
<title>Node5&#45;&gt;Node6</title>
<g id="a_edge7_Node000005_Node000006"><a xlink:title=" ">
<path fill="none" stroke="#63b8ff" d="M547.48,-223.59C550.04,-216.7 553.59,-207.1 556.75,-198.57"/>
<polygon fill="#63b8ff" stroke="#63b8ff" points="560.37,-199.89 560.56,-189.3 553.8,-197.46 560.37,-199.89"/>
</a>
</g>
</g>
<!-- Node5&#45;&gt;Node7 -->
<g id="edge22_Node000005_Node000007" class="edge">
<title>Node5&#45;&gt;Node7</title>
<g id="a_edge22_Node000005_Node000007"><a xlink:title=" ">
<path fill="none" stroke="#63b8ff" d="M531.38,-223.62C506.04,-204.79 448.72,-162.18 417.41,-138.91"/>
<polygon fill="#63b8ff" stroke="#63b8ff" points="419.7,-135.51 409.59,-132.35 415.52,-141.13 419.7,-135.51"/>
</a>
</g>
</g>
<!-- Node5&#45;&gt;Node8 -->
<g id="edge24_Node000005_Node000008" class="edge">
<title>Node5&#45;&gt;Node8</title>
<g id="a_edge24_Node000005_Node000008"><a xlink:title=" ">
<path fill="none" stroke="#63b8ff" d="M537.88,-223.76C532.34,-214.94 524.38,-201.1 520,-188 508.51,-153.67 503.9,-111.49 502.1,-87.08"/>
<polygon fill="#63b8ff" stroke="#63b8ff" points="505.55,-87.11 501.41,-77.36 498.56,-87.56 505.55,-87.11"/>
</a>
</g>
</g>
<!-- Node5&#45;&gt;Node9 -->
<g id="edge23_Node000005_Node000009" class="edge">
<title>Node5&#45;&gt;Node9</title>
<g id="a_edge23_Node000005_Node000009"><a xlink:title=" ">
<path fill="none" stroke="#63b8ff" d="M576.7,-231.48C618.29,-228.3 691.15,-218.45 745,-188 765.49,-176.41 783.37,-155.89 794.6,-141"/>
<polygon fill="#63b8ff" stroke="#63b8ff" points="797.95,-143.34 800.97,-133.18 792.28,-139.24 797.95,-143.34"/>
</a>
</g>
</g>
<!-- Node12 -->
<g id="Node000012" class="node">
<title>Node12</title>
<g id="a_Node000012"><a xlink:href="_controller_data_8h.html" target="_top" xlink:title="Declares a class used to store data for controllers to access.">
<polygon fill="white" stroke="#666666" points="702.88,-188 617.13,-188 617.13,-168 702.88,-168 702.88,-188"/>
<text text-anchor="middle" x="660" y="-174.5" font-family="Helvetica,sans-Serif" font-size="10.00">ControllerData.h</text>
</a>
</g>
</g>
<!-- Node5&#45;&gt;Node12 -->
<g id="edge17_Node000005_Node000012" class="edge">
<title>Node5&#45;&gt;Node12</title>
<g id="a_edge17_Node000005_Node000012"><a xlink:title=" ">
<path fill="none" stroke="#63b8ff" d="M564.21,-223.59C582.31,-215.17 609.11,-202.69 629.77,-193.07"/>
<polygon fill="#63b8ff" stroke="#63b8ff" points="631.05,-195.87 638.64,-188.48 628.09,-189.53 631.05,-195.87"/>
</a>
</g>
</g>
<!-- Node13 -->
<g id="Node000013" class="node">
<title>Node13</title>
<g id="a_Node000013"><a xlink:title=" ">
<polygon fill="#e0e0e0" stroke="#999999" points="325.13,-132 282.88,-132 282.88,-112 325.13,-112 325.13,-132"/>
<text text-anchor="middle" x="304" y="-118.5" font-family="Helvetica,sans-Serif" font-size="10.00">queue</text>
</a>
</g>
</g>
<!-- Node5&#45;&gt;Node13 -->
<g id="edge25_Node000005_Node000013" class="edge">
<title>Node5&#45;&gt;Node13</title>
<g id="a_edge25_Node000005_Node000013"><a xlink:title=" ">
<path fill="none" stroke="#63b8ff" d="M523.54,-223.62C481.21,-204.22 383.84,-159.59 334.23,-136.86"/>
<polygon fill="#63b8ff" stroke="#63b8ff" points="335.96,-133.34 325.41,-132.35 333.04,-139.7 335.96,-133.34"/>
</a>
</g>
</g>
<!-- Node6&#45;&gt;Node3 -->
<g id="edge8_Node000006_Node000003" class="edge">
<title>Node6&#45;&gt;Node3</title>
<g id="a_edge8_Node000006_Node000003"><a xlink:title=" ">
<path fill="none" stroke="#63b8ff" d="M571.42,-167.6C592.58,-140.78 653.51,-63.57 681.11,-28.6"/>
<polygon fill="#63b8ff" stroke="#63b8ff" points="684.22,-31.32 687.66,-21.3 678.72,-26.98 684.22,-31.32"/>
</a>
</g>
</g>
<!-- Node6&#45;&gt;Node7 -->
<g id="edge9_Node000006_Node000007" class="edge">
<title>Node6&#45;&gt;Node7</title>
<g id="a_edge9_Node000006_Node000007"><a xlink:title=" ">
<path fill="none" stroke="#63b8ff" d="M534.74,-167.59C507.32,-158.78 466.13,-145.54 435.75,-135.78"/>
<polygon fill="#63b8ff" stroke="#63b8ff" points="437.08,-132.21 426.49,-132.48 434.94,-138.87 437.08,-132.21"/>
</a>
</g>
</g>
<!-- Node6&#45;&gt;Node8 -->
<g id="edge16_Node000006_Node000008" class="edge">
<title>Node6&#45;&gt;Node8</title>
<g id="a_edge16_Node000006_Node000008"><a xlink:title=" ">
<path fill="none" stroke="#63b8ff" d="M558.63,-167.62C548.26,-149.52 525.31,-109.45 511.71,-85.7"/>
<polygon fill="#63b8ff" stroke="#63b8ff" points="514.36,-84.29 506.36,-77.35 508.29,-87.77 514.36,-84.29"/>
</a>
</g>
</g>
<!-- Node6&#45;&gt;Node9 -->
<g id="edge11_Node000006_Node000009" class="edge">
<title>Node6&#45;&gt;Node9</title>
<g id="a_edge11_Node000006_Node000009"><a xlink:title=" ">
<path fill="none" stroke="#63b8ff" d="M599.07,-169.21C644.97,-159.01 724.99,-141.23 771.23,-130.95"/>
<polygon fill="#63b8ff" stroke="#63b8ff" points="771.93,-134.16 780.94,-128.57 770.42,-127.32 771.93,-134.16"/>
</a>
</g>
</g>
<!-- Node7&#45;&gt;Node8 -->
<g id="edge10_Node000007_Node000008" class="edge">
<title>Node7&#45;&gt;Node8</title>
<g id="a_edge10_Node000007_Node000008"><a xlink:title=" ">
<path fill="none" stroke="#63b8ff" d="M414.29,-111.59C430.45,-103.28 454.27,-91.03 472.86,-81.47"/>
<polygon fill="#63b8ff" stroke="#63b8ff" points="474.28,-84.17 481.57,-76.48 471.07,-77.94 474.28,-84.17"/>
</a>
</g>
</g>
<!-- Node9&#45;&gt;Node3 -->
<g id="edge15_Node000009_Node000003" class="edge">
<title>Node9&#45;&gt;Node3</title>
<g id="a_edge15_Node000009_Node000003"><a xlink:title=" ">
<path fill="none" stroke="#63b8ff" d="M799.15,-111.87C787.97,-99.01 766.64,-75.02 747,-56 736.76,-46.08 724.75,-35.62 714.86,-27.29"/>
<polygon fill="#63b8ff" stroke="#63b8ff" points="717.4,-24.02 707.48,-20.3 712.92,-29.39 717.4,-24.02"/>
</a>
</g>
</g>
<!-- Node10 -->
<g id="Node000010" class="node">
<title>Node10</title>
<g id="a_Node000010"><a xlink:href="_config_8h.html" target="_top" xlink:title="Configuration variables for the codebase.">
<polygon fill="white" stroke="#666666" points="1112.63,-76 1061.38,-76 1061.38,-56 1112.63,-56 1112.63,-76"/>
<text text-anchor="middle" x="1087" y="-62.5" font-family="Helvetica,sans-Serif" font-size="10.00">Config.h</text>
</a>
</g>
</g>
<!-- Node9&#45;&gt;Node10 -->
<g id="edge12_Node000009_Node000010" class="edge">
<title>Node9&#45;&gt;Node10</title>
<g id="a_edge12_Node000009_Node000010"><a xlink:title=" ">
<path fill="none" stroke="#63b8ff" d="M832.34,-116.11C882.17,-106.5 993.05,-85.12 1050.66,-74.01"/>
<polygon fill="#63b8ff" stroke="#63b8ff" points="1050.95,-77.32 1060.11,-71.99 1049.63,-70.45 1050.95,-77.32"/>
</a>
</g>
</g>
<!-- Node10&#45;&gt;Node3 -->
<g id="edge13_Node000010_Node000003" class="edge">
<title>Node10&#45;&gt;Node3</title>
<g id="a_edge13_Node000010_Node000003"><a xlink:title=" ">
<path fill="none" stroke="#63b8ff" d="M1061.25,-58.83C1056.53,-57.81 1051.63,-56.81 1047,-56 934.29,-36.16 799.82,-21.42 734.51,-14.82"/>
<polygon fill="#63b8ff" stroke="#63b8ff" points="735.18,-11.27 724.88,-13.76 734.49,-18.24 735.18,-11.27"/>
</a>
</g>
</g>
<!-- Node11 -->
<g id="Node000011" class="node">
<title>Node11</title>
<g id="a_Node000011"><a xlink:href="_log_levels_8h.html" target="_top" xlink:title=" ">
<polygon fill="white" stroke="#666666" points="1147.5,-20 1080.5,-20 1080.5,0 1147.5,0 1147.5,-20"/>
<text text-anchor="middle" x="1114" y="-6.5" font-family="Helvetica,sans-Serif" font-size="10.00">LogLevels.h</text>
</a>
</g>
</g>
<!-- Node10&#45;&gt;Node11 -->
<g id="edge14_Node000010_Node000011" class="edge">
<title>Node10&#45;&gt;Node11</title>
<g id="a_edge14_Node000010_Node000011"><a xlink:title=" ">
<path fill="none" stroke="#63b8ff" d="M1091.7,-55.59C1095.23,-48.55 1100.17,-38.67 1104.5,-30"/>
<polygon fill="#63b8ff" stroke="#63b8ff" points="1108.01,-31.81 1109.35,-21.3 1101.75,-28.68 1108.01,-31.81"/>
</a>
</g>
</g>
<!-- Node12&#45;&gt;Node3 -->
<g id="edge19_Node000012_Node000003" class="edge">
<title>Node12&#45;&gt;Node3</title>
<g id="a_edge19_Node000012_Node000003"><a xlink:title=" ">
<path fill="none" stroke="#63b8ff" d="M661.98,-167.6C667.52,-141.35 683.23,-66.84 690.81,-30.89"/>
<polygon fill="#63b8ff" stroke="#63b8ff" points="694.4,-31.8 693.04,-21.3 687.55,-30.36 694.4,-31.8"/>
</a>
</g>
</g>
<!-- Node12&#45;&gt;Node7 -->
<g id="edge21_Node000012_Node000007" class="edge">
<title>Node12&#45;&gt;Node7</title>
<g id="a_edge21_Node000012_Node000007"><a xlink:title=" ">
<path fill="none" stroke="#63b8ff" d="M616.7,-168.14C566.79,-157.93 485.39,-141.28 436.63,-131.31"/>
<polygon fill="#63b8ff" stroke="#63b8ff" points="437.66,-127.74 427.16,-129.17 436.26,-134.6 437.66,-127.74"/>
</a>
</g>
</g>
<!-- Node12&#45;&gt;Node8 -->
<g id="edge18_Node000012_Node000008" class="edge">
<title>Node12&#45;&gt;Node8</title>
<g id="a_edge18_Node000012_Node000008"><a xlink:title=" ">
<path fill="none" stroke="#63b8ff" d="M646.44,-167.62C619.1,-148.71 557.11,-105.82 523.56,-82.61"/>
<polygon fill="#63b8ff" stroke="#63b8ff" points="525.74,-79.17 515.52,-76.35 521.75,-84.92 525.74,-79.17"/>
</a>
</g>
</g>
<!-- Node12&#45;&gt;Node9 -->
<g id="edge20_Node000012_Node000009" class="edge">
<title>Node12&#45;&gt;Node9</title>
<g id="a_edge20_Node000012_Node000009"><a xlink:title=" ">
<path fill="none" stroke="#63b8ff" d="M685.61,-167.59C709.42,-158.84 745.13,-145.73 771.66,-135.98"/>
<polygon fill="#63b8ff" stroke="#63b8ff" points="772.51,-139.03 780.69,-132.3 770.09,-132.46 772.51,-139.03"/>
</a>
</g>
</g>
<!-- Node14&#45;&gt;Node3 -->
<g id="edge29_Node000014_Node000003" class="edge">
<title>Node14&#45;&gt;Node3</title>
<g id="a_edge29_Node000014_Node000003"><a xlink:title=" ">
<path fill="none" stroke="#63b8ff" d="M118.38,-167.63C119.46,-153.57 123.56,-127.09 139,-112 212.76,-39.92 540.39,-18.11 655.14,-12.62"/>
<polygon fill="#63b8ff" stroke="#63b8ff" points="655.05,-16.08 664.88,-12.12 654.73,-9.09 655.05,-16.08"/>
</a>
</g>
</g>
<!-- Node14&#45;&gt;Node13 -->
<g id="edge30_Node000014_Node000013" class="edge">
<title>Node14&#45;&gt;Node13</title>
<g id="a_edge30_Node000014_Node000013"><a xlink:title=" ">
<path fill="none" stroke="#63b8ff" d="M150.4,-167.59C184.58,-157.67 238.12,-142.13 272.11,-132.26"/>
<polygon fill="#63b8ff" stroke="#63b8ff" points="272.79,-135.42 281.41,-129.27 270.83,-128.69 272.79,-135.42"/>
</a>
</g>
</g>
<!-- Node15 -->
<g id="Node000015" class="node">
<title>Node15</title>
<g id="a_Node000015"><a xlink:title=" ">
<polygon fill="#e0e0e0" stroke="#999999" points="187.63,-132 148.38,-132 148.38,-112 187.63,-112 187.63,-132"/>
<text text-anchor="middle" x="168" y="-118.5" font-family="Helvetica,sans-Serif" font-size="10.00">utility</text>
</a>
</g>
</g>
<!-- Node14&#45;&gt;Node15 -->
<g id="edge31_Node000014_Node000015" class="edge">
<title>Node14&#45;&gt;Node15</title>
<g id="a_edge31_Node000014_Node000015"><a xlink:title=" ">
<path fill="none" stroke="#63b8ff" d="M126.71,-167.59C133.66,-160.08 143.6,-149.35 151.98,-140.3"/>
<polygon fill="#63b8ff" stroke="#63b8ff" points="154.16,-143.01 158.39,-133.3 149.03,-138.26 154.16,-143.01"/>
</a>
</g>
</g>
<!-- Node16&#45;&gt;Node3 -->
<g id="edge37_Node000016_Node000003" class="edge">
<title>Node16&#45;&gt;Node3</title>
<g id="a_edge37_Node000016_Node000003"><a xlink:title=" ">
<path fill="none" stroke="#63b8ff" d="M960.84,-223.67C978.47,-211.37 1004.05,-188.82 992,-168 936.92,-72.85 801.92,-32.7 734.56,-18.14"/>
<polygon fill="#63b8ff" stroke="#63b8ff" points="735.47,-14.55 724.97,-15.94 734.05,-21.4 735.47,-14.55"/>
</a>
</g>
</g>
<!-- Node16&#45;&gt;Node9 -->
<g id="edge38_Node000016_Node000009" class="edge">
<title>Node16&#45;&gt;Node9</title>
<g id="a_edge38_Node000016_Node000009"><a xlink:title=" ">
<path fill="none" stroke="#63b8ff" d="M934.15,-223.62C910.35,-204.79 856.51,-162.18 827.1,-138.91"/>
<polygon fill="#63b8ff" stroke="#63b8ff" points="829.83,-135.82 819.82,-132.35 825.49,-141.3 829.83,-135.82"/>
</a>
</g>
</g>
<!-- Node16&#45;&gt;Node17 -->
<g id="edge39_Node000016_Node000017" class="edge">
<title>Node16&#45;&gt;Node17</title>
<g id="a_edge39_Node000016_Node000017"><a xlink:title=" ">
<path fill="none" stroke="#63b8ff" d="M946.17,-223.59C946.3,-216.86 946.47,-207.53 946.63,-199.15"/>
<polygon fill="#63b8ff" stroke="#63b8ff" points="950.14,-199.36 946.83,-189.3 943.14,-199.23 950.14,-199.36"/>
</a>
</g>
</g>
<!-- Node17&#45;&gt;Node3 -->
<g id="edge40_Node000017_Node000003" class="edge">
<title>Node17&#45;&gt;Node3</title>
<g id="a_edge40_Node000017_Node000003"><a xlink:title=" ">
<path fill="none" stroke="#63b8ff" d="M933.86,-167.62C904.73,-146.92 832.36,-95.97 770,-56 753.8,-45.61 735.25,-34.48 720.66,-25.89"/>
<polygon fill="#63b8ff" stroke="#63b8ff" points="722.66,-22.42 712.26,-20.38 719.12,-28.46 722.66,-22.42"/>
</a>
</g>
</g>
<!-- Node17&#45;&gt;Node9 -->
<g id="edge41_Node000017_Node000009" class="edge">
<title>Node17&#45;&gt;Node9</title>
<g id="a_edge41_Node000017_Node000009"><a xlink:title=" ">
<path fill="none" stroke="#63b8ff" d="M922.61,-167.59C900.27,-158.97 866.93,-146.12 841.79,-136.42"/>
<polygon fill="#63b8ff" stroke="#63b8ff" points="843.17,-132.81 832.58,-132.48 840.65,-139.34 843.17,-132.81"/>
</a>
</g>
</g>
<!-- Node19&#45;&gt;Node3 -->
<g id="edge45_Node000019_Node000003" class="edge">
<title>Node19&#45;&gt;Node3</title>
<g id="a_edge45_Node000019_Node000003"><a xlink:title=" ">
<path fill="none" stroke="#63b8ff" d="M1078.99,-111.6C1065.96,-96.99 1038.63,-69.18 1009,-56 960.54,-34.44 807.25,-19.85 734.31,-13.95"/>
<polygon fill="#63b8ff" stroke="#63b8ff" points="734.98,-10.41 724.73,-13.11 734.43,-17.39 734.98,-10.41"/>
</a>
</g>
</g>
<!-- Node19&#45;&gt;Node10 -->
<g id="edge47_Node000019_Node000010" class="edge">
<title>Node19&#45;&gt;Node10</title>
<g id="a_edge47_Node000019_Node000010"><a xlink:title=" ">
<path fill="none" stroke="#63b8ff" d="M1087,-111.59C1087,-104.86 1087,-95.53 1087,-87.15"/>
<polygon fill="#63b8ff" stroke="#63b8ff" points="1090.5,-87.3 1087,-77.3 1083.5,-87.3 1090.5,-87.3"/>
</a>
</g>
</g>
<!-- Node19&#45;&gt;Node11 -->
<g id="edge46_Node000019_Node000011" class="edge">
<title>Node19&#45;&gt;Node11</title>
<g id="a_edge46_Node000019_Node000011"><a xlink:title=" ">
<path fill="none" stroke="#63b8ff" d="M1097.22,-111.8C1105.69,-103.43 1117.12,-90.23 1122,-76 1127.08,-61.19 1124.38,-43.51 1120.8,-30.33"/>
<polygon fill="#63b8ff" stroke="#63b8ff" points="1123.93,-29.6 1117.6,-21.09 1117.25,-31.68 1123.93,-29.6"/>
</a>
</g>
</g>
<!-- Node20&#45;&gt;Node2 -->
<g id="edge49_Node000020_Node000002" class="edge">
<title>Node20&#45;&gt;Node2</title>
<g id="a_edge49_Node000020_Node000002"><a xlink:title=" ">
<path fill="none" stroke="#63b8ff" d="M296.25,-394.7C376,-384.07 536.04,-362.73 612.06,-352.59"/>
<polygon fill="#63b8ff" stroke="#63b8ff" points="612.2,-355.97 621.65,-351.18 611.27,-349.03 612.2,-355.97"/>
</a>
</g>
</g>
<!-- Node20&#45;&gt;Node7 -->
<g id="edge50_Node000020_Node000007" class="edge">
<title>Node20&#45;&gt;Node7</title>
<g id="a_edge50_Node000020_Node000007"><a xlink:title=" ">
<path fill="none" stroke="#63b8ff" d="M252.44,-391.73C259.07,-372.99 273,-329.12 273,-291 273,-291 273,-291 273,-233 273,-185.6 324.37,-153.53 360.72,-136.76"/>
<polygon fill="#63b8ff" stroke="#63b8ff" points="361.78,-139.68 369.51,-132.44 358.95,-133.27 361.78,-139.68"/>
</a>
</g>
</g>
<!-- Node21 -->
<g id="Node000021" class="node">
<title>Node21</title>
<g id="a_Node000021"><a xlink:href="_utilities_8h.html" target="_top" xlink:title=" ">
<polygon fill="white" stroke="#666666" points="245.25,-188 188.75,-188 188.75,-168 245.25,-168 245.25,-188"/>
<text text-anchor="middle" x="217" y="-174.5" font-family="Helvetica,sans-Serif" font-size="10.00">Utilities.h</text>
</a>
</g>
</g>
<!-- Node20&#45;&gt;Node21 -->
<g id="edge51_Node000020_Node000021" class="edge">
<title>Node20&#45;&gt;Node21</title>
<g id="a_edge51_Node000020_Node000021"><a xlink:title=" ">
<path fill="none" stroke="#63b8ff" d="M201.8,-394.38C158.85,-387.27 100.05,-374.45 86,-356 40.73,-296.54 140.97,-224.69 190.9,-194.04"/>
<polygon fill="#63b8ff" stroke="#63b8ff" points="192.39,-196.62 199.16,-188.47 188.78,-190.62 192.39,-196.62"/>
</a>
</g>
</g>
<!-- Node22 -->
<g id="Node000022" class="node">
<title>Node22</title>
<g id="a_Node000022"><a xlink:title=" ">
<polygon fill="#e0e0e0" stroke="#999999" points="338.88,-356 301.13,-356 301.13,-336 338.88,-336 338.88,-356"/>
<text text-anchor="middle" x="320" y="-342.5" font-family="Helvetica,sans-Serif" font-size="10.00">SD.h</text>
</a>
</g>
</g>
<!-- Node20&#45;&gt;Node22 -->
<g id="edge57_Node000020_Node000022" class="edge">
<title>Node20&#45;&gt;Node22</title>
<g id="a_edge57_Node000020_Node000022"><a xlink:title=" ">
<path fill="none" stroke="#63b8ff" d="M261.37,-391.59C271.75,-383.7 286.81,-372.24 299.07,-362.92"/>
<polygon fill="#63b8ff" stroke="#63b8ff" points="300.93,-365.14 306.77,-356.3 296.7,-359.57 300.93,-365.14"/>
</a>
</g>
</g>
<!-- Node23 -->
<g id="Node000023" class="node">
<title>Node23</title>
<g id="a_Node000023"><a xlink:title=" ">
<polygon fill="#e0e0e0" stroke="#999999" points="135,-356 95,-356 95,-336 135,-336 135,-356"/>
<text text-anchor="middle" x="115" y="-342.5" font-family="Helvetica,sans-Serif" font-size="10.00">SPI.h</text>
</a>
</g>
</g>
<!-- Node20&#45;&gt;Node23 -->
<g id="edge58_Node000020_Node000023" class="edge">
<title>Node20&#45;&gt;Node23</title>
<g id="a_edge58_Node000020_Node000023"><a xlink:title=" ">
<path fill="none" stroke="#63b8ff" d="M225.66,-391.59C203.45,-382.64 169.91,-369.13 145.57,-359.32"/>
<polygon fill="#63b8ff" stroke="#63b8ff" points="147.03,-355.73 136.44,-355.24 144.41,-362.22 147.03,-355.73"/>
</a>
</g>
</g>
<!-- Node24 -->
<g id="Node000024" class="node">
<title>Node24</title>
<g id="a_Node000024"><a xlink:title=" ">
<polygon fill="#e0e0e0" stroke="#999999" points="187.38,-356 152.63,-356 152.63,-336 187.38,-336 187.38,-356"/>
<text text-anchor="middle" x="170" y="-342.5" font-family="Helvetica,sans-Serif" font-size="10.00">map</text>
</a>
</g>
</g>
<!-- Node20&#45;&gt;Node24 -->
<g id="edge59_Node000020_Node000024" class="edge">
<title>Node20&#45;&gt;Node24</title>
<g id="a_edge59_Node000020_Node000024"><a xlink:title=" ">
<path fill="none" stroke="#63b8ff" d="M235.24,-391.59C223.53,-383.59 206.48,-371.93 192.74,-362.54"/>
<polygon fill="#63b8ff" stroke="#63b8ff" points="195.1,-359.23 184.87,-356.48 191.15,-365.01 195.1,-359.23"/>
</a>
</g>
</g>
<!-- Node25 -->
<g id="Node000025" class="node">
<title>Node25</title>
<g id="a_Node000025"><a xlink:title=" ">
<polygon fill="#e0e0e0" stroke="#999999" points="245,-356 205,-356 205,-336 245,-336 245,-356"/>
<text text-anchor="middle" x="225" y="-342.5" font-family="Helvetica,sans-Serif" font-size="10.00">string</text>
</a>
</g>
</g>
<!-- Node20&#45;&gt;Node25 -->
<g id="edge60_Node000020_Node000025" class="edge">
<title>Node20&#45;&gt;Node25</title>
<g id="a_edge60_Node000020_Node000025"><a xlink:title=" ">
<path fill="none" stroke="#63b8ff" d="M244.82,-391.59C241.72,-384.63 237.39,-374.89 233.57,-366.29"/>
<polygon fill="#63b8ff" stroke="#63b8ff" points="236.39,-365.01 229.13,-357.3 230,-367.86 236.39,-365.01"/>
</a>
</g>
</g>
<!-- Node21&#45;&gt;Node3 -->
<g id="edge53_Node000021_Node000003" class="edge">
<title>Node21&#45;&gt;Node3</title>
<g id="a_edge53_Node000021_Node000003"><a xlink:title=" ">
<path fill="none" stroke="#63b8ff" d="M218.61,-167.94C221.61,-153.8 229.41,-126.61 247,-112 309.6,-59.99 557.3,-26.7 655.04,-15.35"/>
<polygon fill="#63b8ff" stroke="#63b8ff" points="655.38,-18.72 664.92,-14.1 654.59,-11.76 655.38,-18.72"/>
</a>
</g>
</g>
<!-- Node21&#45;&gt;Node7 -->
<g id="edge52_Node000021_Node000007" class="edge">
<title>Node21&#45;&gt;Node7</title>
<g id="a_edge52_Node000021_Node000007"><a xlink:title=" ">
<path fill="none" stroke="#63b8ff" d="M245.36,-168.44C275.07,-159.48 322,-145.32 355.58,-135.19"/>
<polygon fill="#63b8ff" stroke="#63b8ff" points="356.42,-138.3 364.98,-132.06 354.39,-131.59 356.42,-138.3"/>
</a>
</g>
</g>
<!-- Node21&#45;&gt;Node8 -->
<g id="edge54_Node000021_Node000008" class="edge">
<title>Node21&#45;&gt;Node8</title>
<g id="a_edge54_Node000021_Node000008"><a xlink:title=" ">
<path fill="none" stroke="#63b8ff" d="M222.31,-167.74C231.1,-153.34 250.08,-125.8 274,-112 335.08,-76.76 419.12,-68.69 465.92,-67.1"/>
<polygon fill="#63b8ff" stroke="#63b8ff" points="465.79,-70.58 475.7,-66.82 465.61,-63.58 465.79,-70.58"/>
</a>
</g>
</g>
<!-- Node21&#45;&gt;Node13 -->
<g id="edge56_Node000021_Node000013" class="edge">
<title>Node21&#45;&gt;Node13</title>
<g id="a_edge56_Node000021_Node000013"><a xlink:title=" ">
<path fill="none" stroke="#63b8ff" d="M232.15,-167.59C245.17,-159.51 264.19,-147.71 279.39,-138.27"/>
<polygon fill="#63b8ff" stroke="#63b8ff" points="281.08,-140.73 287.73,-132.48 277.39,-134.78 281.08,-140.73"/>
</a>
</g>
</g>
<!-- Node21&#45;&gt;Node15 -->
<g id="edge55_Node000021_Node000015" class="edge">
<title>Node21&#45;&gt;Node15</title>
<g id="a_edge55_Node000021_Node000015"><a xlink:title=" ">
<path fill="none" stroke="#63b8ff" d="M208.46,-167.59C201.65,-160.08 191.91,-149.35 183.7,-140.3"/>
<polygon fill="#63b8ff" stroke="#63b8ff" points="186.75,-138.35 177.44,-133.3 181.57,-143.06 186.75,-138.35"/>
</a>
</g>
</g>
</g>
</svg>
