<?xml version="1.0" encoding="UTF-8" standalone="no"?>
<!DOCTYPE svg PUBLIC "-//W3C//DTD SVG 1.1//EN"
 "http://www.w3.org/Graphics/SVG/1.1/DTD/svg11.dtd">
<!-- Generated by graphviz version 8.1.0 (20230707.0739)
 -->
<!-- Title: FSR.cpp Pages: 1 -->
<svg width="230pt" height="196pt"
 viewBox="0.00 0.00 230.38 196.00" xmlns="http://www.w3.org/2000/svg" xmlns:xlink="http://www.w3.org/1999/xlink">

<svg id="main" version="1.1" xmlns="http://www.w3.org/2000/svg" xmlns:xlink="http://www.w3.org/1999/xlink" xml:space="preserve" onload="init(evt)">
<style type="text/css"><![CDATA[
.node, .edge {opacity: 0.7;}
.node.selected, .edge.selected {opacity: 1;}
.edge:hover path { stroke: red; }
.edge:hover polygon { stroke: red; fill: red; }
]]></style>
<script type="application/ecmascript" xlink:href="svg.min.js"/>
<svg id="graph" class="graph">
<g id="graph0" class="graph" transform="scale(1 1) rotate(0) translate(4 192)">
<title>FSR.cpp</title>
<!-- Node1 -->
<g id="Node000001" class="node">
<title>Node1</title>
<g id="a_Node000001"><a xlink:title=" ">
<polygon fill="#999999" stroke="#666666" points="114,-188 59.75,-188 59.75,-168 114,-168 114,-188"/>
<text text-anchor="middle" x="86.88" y="-174.5" font-family="Helvetica,sans-Serif" font-size="10.00">FSR.cpp</text>
</a>
</g>
</g>
<!-- Node2 -->
<g id="Node000002" class="node">
<title>Node2</title>
<g id="a_Node000002"><a xlink:href="_f_s_r_8h.html" target="_top" xlink:title="Declares a class used to interface with a force sensitive resistor.">
<polygon fill="white" stroke="#666666" points="43.75,-132 0,-132 0,-112 43.75,-112 43.75,-132"/>
<text text-anchor="middle" x="21.88" y="-118.5" font-family="Helvetica,sans-Serif" font-size="10.00">FSR.h</text>
</a>
</g>
</g>
<!-- Node1&#45;&gt;Node2 -->
<g id="edge1_Node000001_Node000002" class="edge">
<title>Node1&#45;&gt;Node2</title>
<g id="a_edge1_Node000001_Node000002"><a xlink:title=" ">
<path fill="none" stroke="#63b8ff" d="M75.55,-167.59C66.14,-159.77 52.53,-148.46 41.37,-139.19"/>
<polygon fill="#63b8ff" stroke="#63b8ff" points="44,-136 34.07,-132.3 39.52,-141.38 44,-136"/>
</a>
</g>
</g>
<!-- Node3 -->
<g id="Node000003" class="node">
<title>Node3</title>
<g id="a_Node000003"><a xlink:href="_board_8h.html" target="_top" xlink:title="Defines the pins and peripherals for the board being used.">
<polygon fill="white" stroke="#666666" points="111.75,-132 62,-132 62,-112 111.75,-112 111.75,-132"/>
<text text-anchor="middle" x="86.88" y="-118.5" font-family="Helvetica,sans-Serif" font-size="10.00">Board.h</text>
</a>
</g>
</g>
<!-- Node1&#45;&gt;Node3 -->
<g id="edge2_Node000001_Node000003" class="edge">
<title>Node1&#45;&gt;Node3</title>
<g id="a_edge2_Node000001_Node000003"><a xlink:title=" ">
<path fill="none" stroke="#63b8ff" d="M86.88,-167.59C86.88,-160.86 86.88,-151.53 86.88,-143.15"/>
<polygon fill="#63b8ff" stroke="#63b8ff" points="90.38,-143.3 86.88,-133.3 83.38,-143.3 90.38,-143.3"/>
</a>
</g>
</g>
<!-- Node7 -->
<g id="Node000007" class="node">
<title>Node7</title>
<g id="a_Node000007"><a xlink:href="_logger_8h.html" target="_top" xlink:title=" ">
<polygon fill="white" stroke="#666666" points="183.63,-132 130.13,-132 130.13,-112 183.63,-112 183.63,-132"/>
<text text-anchor="middle" x="156.88" y="-118.5" font-family="Helvetica,sans-Serif" font-size="10.00">Logger.h</text>
</a>
</g>
</g>
<!-- Node1&#45;&gt;Node7 -->
<g id="edge7_Node000001_Node000007" class="edge">
<title>Node1&#45;&gt;Node7</title>
<g id="a_edge7_Node000001_Node000007"><a xlink:title=" ">
<path fill="none" stroke="#63b8ff" d="M99.07,-167.59C109.31,-159.7 124.16,-148.24 136.24,-138.92"/>
<polygon fill="#63b8ff" stroke="#63b8ff" points="138.04,-141.18 143.82,-132.3 133.77,-135.64 138.04,-141.18"/>
</a>
</g>
</g>
<!-- Node4 -->
<g id="Node000004" class="node">
<title>Node4</title>
<g id="a_Node000004"><a xlink:href="_config_8h.html" target="_top" xlink:title="Configuration variables for the codebase.">
<polygon fill="white" stroke="#666666" points="128.5,-76 77.25,-76 77.25,-56 128.5,-56 128.5,-76"/>
<text text-anchor="middle" x="102.88" y="-62.5" font-family="Helvetica,sans-Serif" font-size="10.00">Config.h</text>
</a>
</g>
</g>
<!-- Node3&#45;&gt;Node4 -->
<g id="edge3_Node000003_Node000004" class="edge">
<title>Node3&#45;&gt;Node4</title>
<g id="a_edge3_Node000003_Node000004"><a xlink:title=" ">
<path fill="none" stroke="#63b8ff" d="M89.66,-111.59C91.7,-104.7 94.55,-95.1 97.08,-86.57"/>
<polygon fill="#63b8ff" stroke="#63b8ff" points="100.63,-87.88 100.12,-77.3 93.92,-85.89 100.63,-87.88"/>
</a>
</g>
</g>
<!-- Node5 -->
<g id="Node000005" class="node">
<title>Node5</title>
<g id="a_Node000005"><a xlink:title=" ">
<polygon fill="#e0e0e0" stroke="#999999" points="131.5,-20 74.25,-20 74.25,0 131.5,0 131.5,-20"/>
<text text-anchor="middle" x="102.88" y="-6.5" font-family="Helvetica,sans-Serif" font-size="10.00">Arduino.h</text>
</a>
</g>
</g>
<!-- Node3&#45;&gt;Node5 -->
<g id="edge6_Node000003_Node000005" class="edge">
<title>Node3&#45;&gt;Node5</title>
<g id="a_edge6_Node000003_Node000005"><a xlink:title=" ">
<path fill="none" stroke="#63b8ff" d="M80.5,-111.66C72.66,-98.96 61.16,-75.57 67.88,-56 71.42,-45.66 78.42,-35.87 85.24,-28.07"/>
<polygon fill="#63b8ff" stroke="#63b8ff" points="87.35,-30.88 91.66,-21.2 82.25,-26.08 87.35,-30.88"/>
</a>
</g>
</g>
<!-- Node4&#45;&gt;Node5 -->
<g id="edge4_Node000004_Node000005" class="edge">
<title>Node4&#45;&gt;Node5</title>
<g id="a_edge4_Node000004_Node000005"><a xlink:title=" ">
<path fill="none" stroke="#63b8ff" d="M102.88,-55.59C102.88,-48.86 102.88,-39.53 102.88,-31.15"/>
<polygon fill="#63b8ff" stroke="#63b8ff" points="106.38,-31.3 102.88,-21.3 99.38,-31.3 106.38,-31.3"/>
</a>
</g>
</g>
<!-- Node6 -->
<g id="Node000006" class="node">
<title>Node6</title>
<g id="a_Node000006"><a xlink:href="_log_levels_8h.html" target="_top" xlink:title=" ">
<polygon fill="white" stroke="#666666" points="222.38,-20 155.38,-20 155.38,0 222.38,0 222.38,-20"/>
<text text-anchor="middle" x="188.88" y="-6.5" font-family="Helvetica,sans-Serif" font-size="10.00">LogLevels.h</text>
</a>
</g>
</g>
<!-- Node4&#45;&gt;Node6 -->
<g id="edge5_Node000004_Node000006" class="edge">
<title>Node4&#45;&gt;Node6</title>
<g id="a_edge5_Node000004_Node000006"><a xlink:title=" ">
<path fill="none" stroke="#63b8ff" d="M117.86,-55.59C130.72,-47.51 149.52,-35.71 164.55,-26.27"/>
<polygon fill="#63b8ff" stroke="#63b8ff" points="166.17,-28.76 172.78,-20.48 162.45,-22.83 166.17,-28.76"/>
</a>
</g>
</g>
<!-- Node7&#45;&gt;Node4 -->
<g id="edge10_Node000007_Node000004" class="edge">
<title>Node7&#45;&gt;Node4</title>
<g id="a_edge10_Node000007_Node000004"><a xlink:title=" ">
<path fill="none" stroke="#63b8ff" d="M147.47,-111.59C139.88,-104.01 129.01,-93.13 119.9,-84.02"/>
<polygon fill="#63b8ff" stroke="#63b8ff" points="122.72,-81.89 113.17,-77.3 117.77,-86.84 122.72,-81.89"/>
</a>
</g>
</g>
<!-- Node7&#45;&gt;Node5 -->
<g id="edge8_Node000007_Node000005" class="edge">
<title>Node7&#45;&gt;Node5</title>
<g id="a_edge8_Node000007_Node000005"><a xlink:title=" ">
<path fill="none" stroke="#63b8ff" d="M155.31,-111.76C152.87,-98.78 147.4,-74.63 137.88,-56 132.83,-46.14 125.51,-36.3 118.87,-28.35"/>
<polygon fill="#63b8ff" stroke="#63b8ff" points="121.03,-26.5 111.81,-21.28 115.76,-31.11 121.03,-26.5"/>
</a>
</g>
</g>
<!-- Node7&#45;&gt;Node6 -->
<g id="edge9_Node000007_Node000006" class="edge">
<title>Node7&#45;&gt;Node6</title>
<g id="a_edge9_Node000007_Node000006"><a xlink:title=" ">
<path fill="none" stroke="#63b8ff" d="M159.86,-111.72C162.75,-102.64 167.23,-88.4 170.88,-76 175.32,-60.86 180.08,-43.65 183.58,-30.74"/>
<polygon fill="#63b8ff" stroke="#63b8ff" points="187.18,-31.85 186.4,-21.28 180.42,-30.03 187.18,-31.85"/>
</a>
</g>
</g>
</g>
</svg>
</svg>

<style type='text/css'>
<![CDATA[
[data-mouse-over-selected='false'] { opacity: 0.7; }
[data-mouse-over-selected='true']  { opacity: 1.0; }
]]>
</style>
<script type="application/ecmascript"><![CDATA[
document.addEventListener('DOMContentLoaded', (event) => {
  highlightEdges();
  highlightAdjacentNodes();
});
]]></script>
</svg>
