<?xml version="1.0" encoding="UTF-8" standalone="no"?>
<!DOCTYPE svg PUBLIC "-//W3C//DTD SVG 1.1//EN"
 "http://www.w3.org/Graphics/SVG/1.1/DTD/svg11.dtd">
<!-- Generated by graphviz version 8.1.0 (20230707.0739)
 -->
<!-- Title: I2CHandler.h Pages: 1 -->
<svg width="169pt" height="196pt"
 viewBox="0.00 0.00 169.13 196.00" xmlns="http://www.w3.org/2000/svg" xmlns:xlink="http://www.w3.org/1999/xlink">
<g id="graph0" class="graph" transform="scale(1 1) rotate(0) translate(4 192)">
<title>I2CHandler.h</title>
<!-- Node1 -->
<g id="Node000001" class="node">
<title>Node1</title>
<g id="a_Node000001"><a xlink:title="This file defines the I2CHandler which is using the singleton pattern. To use you must first get a re...">
<polygon fill="#999999" stroke="#666666" points="111.88,-188 40.38,-188 40.38,-168 111.88,-168 111.88,-188"/>
<text text-anchor="middle" x="76.13" y="-174.5" font-family="Helvetica,sans-Serif" font-size="10.00">I2CHandler.h</text>
</a>
</g>
</g>
<!-- Node2 -->
<g id="Node000002" class="node">
<title>Node2</title>
<g id="a_Node000002"><a xlink:href="_battery_8h.html" target="_top" xlink:title="Defines the battery interface and implements the child battery classes.">
<polygon fill="white" stroke="#666666" points="104,-132 48.25,-132 48.25,-112 104,-112 104,-132"/>
<text text-anchor="middle" x="76.13" y="-118.5" font-family="Helvetica,sans-Serif" font-size="10.00">Battery.h</text>
</a>
</g>
</g>
<!-- Node1&#45;&gt;Node2 -->
<g id="edge1_Node000001_Node000002" class="edge">
<title>Node1&#45;&gt;Node2</title>
<g id="a_edge1_Node000001_Node000002"><a xlink:title=" ">
<path fill="none" stroke="#63b8ff" d="M76.13,-156.71C76.13,-148.32 76.13,-139.01 76.13,-132.3"/>
<polygon fill="#63b8ff" stroke="#63b8ff" points="72.63,-156.59 76.13,-166.59 79.63,-156.59 72.63,-156.59"/>
</a>
</g>
</g>
<!-- Node3 -->
<g id="Node000003" class="node">
<title>Node3</title>
<g id="a_Node000003"><a xlink:href="_battery_8cpp.html" target="_top" xlink:title=" ">
<polygon fill="white" stroke="#666666" points="66.25,-76 0,-76 0,-56 66.25,-56 66.25,-76"/>
<text text-anchor="middle" x="33.13" y="-62.5" font-family="Helvetica,sans-Serif" font-size="10.00">Battery.cpp</text>
</a>
</g>
</g>
<!-- Node2&#45;&gt;Node3 -->
<g id="edge2_Node000002_Node000003" class="edge">
<title>Node2&#45;&gt;Node3</title>
<g id="a_edge2_Node000002_Node000003"><a xlink:title=" ">
<path fill="none" stroke="#63b8ff" d="M61.79,-103C54.67,-94.06 46.36,-83.62 40.53,-76.3"/>
<polygon fill="#63b8ff" stroke="#63b8ff" points="59.67,-104.95 68.63,-110.59 65.14,-100.59 59.67,-104.95"/>
</a>
</g>
</g>
<!-- Node4 -->
<g id="Node000004" class="node">
<title>Node4</title>
<g id="a_Node000004"><a xlink:href="_coms_m_c_u_8h.html" target="_top" xlink:title="The top of the composite structure for the communication microcontroller. This class manages the blue...">
<polygon fill="white" stroke="#666666" points="155.88,-76 84.38,-76 84.38,-56 155.88,-56 155.88,-76"/>
<text text-anchor="middle" x="120.13" y="-62.5" font-family="Helvetica,sans-Serif" font-size="10.00">ComsMCU.h</text>
</a>
</g>
</g>
<!-- Node2&#45;&gt;Node4 -->
<g id="edge3_Node000002_Node000004" class="edge">
<title>Node2&#45;&gt;Node4</title>
<g id="a_edge3_Node000002_Node000004"><a xlink:title=" ">
<path fill="none" stroke="#63b8ff" d="M90.56,-103.29C97.9,-94.28 106.52,-83.7 112.55,-76.3"/>
<polygon fill="#63b8ff" stroke="#63b8ff" points="87.39,-100.63 83.79,-110.59 92.82,-105.05 87.39,-100.63"/>
</a>
</g>
</g>
<!-- Node5 -->
<g id="Node000005" class="node">
<title>Node5</title>
<g id="a_Node000005"><a xlink:href="_coms_m_c_u_8cpp.html" target="_top" xlink:title=" ">
<polygon fill="white" stroke="#666666" points="161.13,-20 79.13,-20 79.13,0 161.13,0 161.13,-20"/>
<text text-anchor="middle" x="120.13" y="-6.5" font-family="Helvetica,sans-Serif" font-size="10.00">ComsMCU.cpp</text>
</a>
</g>
</g>
<!-- Node4&#45;&gt;Node5 -->
<g id="edge4_Node000004_Node000005" class="edge">
<title>Node4&#45;&gt;Node5</title>
<g id="a_edge4_Node000004_Node000005"><a xlink:title=" ">
<path fill="none" stroke="#63b8ff" d="M120.13,-44.71C120.13,-36.32 120.13,-27.01 120.13,-20.3"/>
<polygon fill="#63b8ff" stroke="#63b8ff" points="116.63,-44.59 120.13,-54.59 123.63,-44.59 116.63,-44.59"/>
</a>
</g>
</g>
</g>
</svg>
