<?xml version="1.0" encoding="UTF-8" standalone="no"?>
<!DOCTYPE svg PUBLIC "-//W3C//DTD SVG 1.1//EN"
 "http://www.w3.org/Graphics/SVG/1.1/DTD/svg11.dtd">
<!-- Generated by graphviz version 8.1.0 (20230707.0739)
 -->
<!-- Title: InclinationDetector.cpp Pages: 1 -->
<svg width="507pt" height="196pt"
 viewBox="0.00 0.00 507.25 196.00" xmlns="http://www.w3.org/2000/svg" xmlns:xlink="http://www.w3.org/1999/xlink">
<g id="graph0" class="graph" transform="scale(1 1) rotate(0) translate(4 192)">
<title>InclinationDetector.cpp</title>
<!-- Node1 -->
<g id="Node000001" class="node">
<title>Node1</title>
<g id="a_Node000001"><a xlink:title=" ">
<polygon fill="#999999" stroke="#666666" points="237,-188 122,-188 122,-168 237,-168 237,-188"/>
<text text-anchor="middle" x="179.5" y="-174.5" font-family="Helvetica,sans-Serif" font-size="10.00">InclinationDetector.cpp</text>
</a>
</g>
</g>
<!-- Node2 -->
<g id="Node000002" class="node">
<title>Node2</title>
<g id="a_Node000002"><a xlink:href="_inclination_detector_8h.html" target="_top" xlink:title=" ">
<polygon fill="white" stroke="#666666" points="314.75,-132 210.25,-132 210.25,-112 314.75,-112 314.75,-132"/>
<text text-anchor="middle" x="262.5" y="-118.5" font-family="Helvetica,sans-Serif" font-size="10.00">InclinationDetector.h</text>
</a>
</g>
</g>
<!-- Node1&#45;&gt;Node2 -->
<g id="edge1_Node000001_Node000002" class="edge">
<title>Node1&#45;&gt;Node2</title>
<g id="a_edge1_Node000001_Node000002"><a xlink:title=" ">
<path fill="none" stroke="#63b8ff" d="M193.96,-167.59C206.38,-159.51 224.52,-147.71 239.02,-138.27"/>
<polygon fill="#63b8ff" stroke="#63b8ff" points="240.46,-140.87 246.93,-132.48 236.64,-135 240.46,-140.87"/>
</a>
</g>
</g>
<!-- Node3 -->
<g id="Node000003" class="node">
<title>Node3</title>
<g id="a_Node000003"><a xlink:title=" ">
<polygon fill="#e0e0e0" stroke="#999999" points="208.13,-20 150.88,-20 150.88,0 208.13,0 208.13,-20"/>
<text text-anchor="middle" x="179.5" y="-6.5" font-family="Helvetica,sans-Serif" font-size="10.00">Arduino.h</text>
</a>
</g>
</g>
<!-- Node1&#45;&gt;Node3 -->
<g id="edge5_Node000001_Node000003" class="edge">
<title>Node1&#45;&gt;Node3</title>
<g id="a_edge5_Node000001_Node000003"><a xlink:title=" ">
<path fill="none" stroke="#63b8ff" d="M179.5,-167.6C179.5,-141.35 179.5,-66.84 179.5,-30.89"/>
<polygon fill="#63b8ff" stroke="#63b8ff" points="183,-31.3 179.5,-21.3 176,-31.3 183,-31.3"/>
</a>
</g>
</g>
<!-- Node6 -->
<g id="Node000006" class="node">
<title>Node6</title>
<g id="a_Node000006"><a xlink:href="_logger_8h.html" target="_top" xlink:title=" ">
<polygon fill="white" stroke="#666666" points="132.25,-132 78.75,-132 78.75,-112 132.25,-112 132.25,-132"/>
<text text-anchor="middle" x="105.5" y="-118.5" font-family="Helvetica,sans-Serif" font-size="10.00">Logger.h</text>
</a>
</g>
</g>
<!-- Node1&#45;&gt;Node6 -->
<g id="edge6_Node000001_Node000006" class="edge">
<title>Node1&#45;&gt;Node6</title>
<g id="a_edge6_Node000001_Node000006"><a xlink:title=" ">
<path fill="none" stroke="#63b8ff" d="M166.61,-167.59C155.68,-159.62 139.78,-148.02 126.94,-138.64"/>
<polygon fill="#63b8ff" stroke="#63b8ff" points="129.38,-135.37 119.24,-132.3 125.26,-141.02 129.38,-135.37"/>
</a>
</g>
</g>
<!-- Node7 -->
<g id="Node000007" class="node">
<title>Node7</title>
<g id="a_Node000007"><a xlink:href="_log_levels_8h.html" target="_top" xlink:title=" ">
<polygon fill="white" stroke="#666666" points="67,-20 0,-20 0,0 67,0 67,-20"/>
<text text-anchor="middle" x="33.5" y="-6.5" font-family="Helvetica,sans-Serif" font-size="10.00">LogLevels.h</text>
</a>
</g>
</g>
<!-- Node1&#45;&gt;Node7 -->
<g id="edge12_Node000001_Node000007" class="edge">
<title>Node1&#45;&gt;Node7</title>
<g id="a_edge12_Node000001_Node000007"><a xlink:title=" ">
<path fill="none" stroke="#63b8ff" d="M138.42,-167.52C115.97,-160.67 88.89,-149.48 69.5,-132 40.7,-106.04 34.51,-58.18 33.44,-31.08"/>
<polygon fill="#63b8ff" stroke="#63b8ff" points="36.92,-31.18 33.24,-21.24 29.92,-31.31 36.92,-31.18"/>
</a>
</g>
</g>
<!-- Node9 -->
<g id="Node000009" class="node">
<title>Node9</title>
<g id="a_Node000009"><a xlink:href="_utilities_8h.html" target="_top" xlink:title=" ">
<polygon fill="white" stroke="#666666" points="395.75,-132 339.25,-132 339.25,-112 395.75,-112 395.75,-132"/>
<text text-anchor="middle" x="367.5" y="-118.5" font-family="Helvetica,sans-Serif" font-size="10.00">Utilities.h</text>
</a>
</g>
</g>
<!-- Node1&#45;&gt;Node9 -->
<g id="edge13_Node000001_Node000009" class="edge">
<title>Node1&#45;&gt;Node9</title>
<g id="a_edge13_Node000001_Node000009"><a xlink:title=" ">
<path fill="none" stroke="#63b8ff" d="M212.25,-167.59C244.66,-158.28 294.29,-144.03 328.67,-134.15"/>
<polygon fill="#63b8ff" stroke="#63b8ff" points="329.17,-137.36 337.82,-131.24 327.24,-130.63 329.17,-137.36"/>
</a>
</g>
</g>
<!-- Node2&#45;&gt;Node3 -->
<g id="edge2_Node000002_Node000003" class="edge">
<title>Node2&#45;&gt;Node3</title>
<g id="a_edge2_Node000002_Node000003"><a xlink:title=" ">
<path fill="none" stroke="#63b8ff" d="M255.42,-111.62C241.64,-93.36 210.99,-52.73 193.13,-29.07"/>
<polygon fill="#63b8ff" stroke="#63b8ff" points="195.38,-27.23 186.56,-21.35 189.79,-31.45 195.38,-27.23"/>
</a>
</g>
</g>
<!-- Node4 -->
<g id="Node000004" class="node">
<title>Node4</title>
<g id="a_Node000004"><a xlink:title=" ">
<polygon fill="#e0e0e0" stroke="#999999" points="345.63,-76 303.38,-76 303.38,-56 345.63,-56 345.63,-76"/>
<text text-anchor="middle" x="324.5" y="-62.5" font-family="Helvetica,sans-Serif" font-size="10.00">queue</text>
</a>
</g>
</g>
<!-- Node2&#45;&gt;Node4 -->
<g id="edge3_Node000002_Node000004" class="edge">
<title>Node2&#45;&gt;Node4</title>
<g id="a_edge3_Node000002_Node000004"><a xlink:title=" ">
<path fill="none" stroke="#63b8ff" d="M273.3,-111.59C282.19,-103.85 295.01,-92.69 305.59,-83.47"/>
<polygon fill="#63b8ff" stroke="#63b8ff" points="307.58,-85.51 312.82,-76.3 302.98,-80.23 307.58,-85.51"/>
</a>
</g>
</g>
<!-- Node5 -->
<g id="Node000005" class="node">
<title>Node5</title>
<g id="a_Node000005"><a xlink:title=" ">
<polygon fill="#e0e0e0" stroke="#999999" points="285.13,-76 245.88,-76 245.88,-56 285.13,-56 285.13,-76"/>
<text text-anchor="middle" x="265.5" y="-62.5" font-family="Helvetica,sans-Serif" font-size="10.00">utility</text>
</a>
</g>
</g>
<!-- Node2&#45;&gt;Node5 -->
<g id="edge4_Node000002_Node000005" class="edge">
<title>Node2&#45;&gt;Node5</title>
<g id="a_edge4_Node000002_Node000005"><a xlink:title=" ">
<path fill="none" stroke="#63b8ff" d="M263.02,-111.59C263.4,-104.86 263.91,-95.53 264.38,-87.15"/>
<polygon fill="#63b8ff" stroke="#63b8ff" points="267.92,-87.48 264.98,-77.3 260.93,-87.09 267.92,-87.48"/>
</a>
</g>
</g>
<!-- Node6&#45;&gt;Node3 -->
<g id="edge7_Node000006_Node000003" class="edge">
<title>Node6&#45;&gt;Node3</title>
<g id="a_edge7_Node000006_Node000003"><a xlink:title=" ">
<path fill="none" stroke="#63b8ff" d="M111.81,-111.62C124.04,-93.44 151.18,-53.09 167.13,-29.38"/>
<polygon fill="#63b8ff" stroke="#63b8ff" points="170.53,-31.61 173.21,-21.35 164.72,-27.7 170.53,-31.61"/>
</a>
</g>
</g>
<!-- Node6&#45;&gt;Node7 -->
<g id="edge8_Node000006_Node000007" class="edge">
<title>Node6&#45;&gt;Node7</title>
<g id="a_edge8_Node000006_Node000007"><a xlink:title=" ">
<path fill="none" stroke="#63b8ff" d="M90.35,-111.73C78.42,-103.68 62.22,-90.99 52.5,-76 43.59,-62.27 38.75,-44.25 36.19,-30.67"/>
<polygon fill="#63b8ff" stroke="#63b8ff" points="39.53,-30.4 34.48,-21.09 32.62,-31.52 39.53,-30.4"/>
</a>
</g>
</g>
<!-- Node8 -->
<g id="Node000008" class="node">
<title>Node8</title>
<g id="a_Node000008"><a xlink:href="_config_8h.html" target="_top" xlink:title="Configuration variables for the codebase.">
<polygon fill="white" stroke="#666666" points="113.13,-76 61.88,-76 61.88,-56 113.13,-56 113.13,-76"/>
<text text-anchor="middle" x="87.5" y="-62.5" font-family="Helvetica,sans-Serif" font-size="10.00">Config.h</text>
</a>
</g>
</g>
<!-- Node6&#45;&gt;Node8 -->
<g id="edge9_Node000006_Node000008" class="edge">
<title>Node6&#45;&gt;Node8</title>
<g id="a_edge9_Node000006_Node000008"><a xlink:title=" ">
<path fill="none" stroke="#63b8ff" d="M102.36,-111.59C100.07,-104.7 96.87,-95.1 94.02,-86.57"/>
<polygon fill="#63b8ff" stroke="#63b8ff" points="97.08,-85.68 90.6,-77.3 90.44,-87.89 97.08,-85.68"/>
</a>
</g>
</g>
<!-- Node8&#45;&gt;Node3 -->
<g id="edge10_Node000008_Node000003" class="edge">
<title>Node8&#45;&gt;Node3</title>
<g id="a_edge10_Node000008_Node000003"><a xlink:title=" ">
<path fill="none" stroke="#63b8ff" d="M103.53,-55.59C117.42,-47.44 137.79,-35.48 153.94,-26"/>
<polygon fill="#63b8ff" stroke="#63b8ff" points="155.5,-28.56 162.35,-20.48 151.95,-22.52 155.5,-28.56"/>
</a>
</g>
</g>
<!-- Node8&#45;&gt;Node7 -->
<g id="edge11_Node000008_Node000007" class="edge">
<title>Node8&#45;&gt;Node7</title>
<g id="a_edge11_Node000008_Node000007"><a xlink:title=" ">
<path fill="none" stroke="#63b8ff" d="M78.09,-55.59C70.51,-48.01 59.63,-37.13 50.52,-28.02"/>
<polygon fill="#63b8ff" stroke="#63b8ff" points="53.34,-25.89 43.8,-21.3 48.39,-30.84 53.34,-25.89"/>
</a>
</g>
</g>
<!-- Node9&#45;&gt;Node3 -->
<g id="edge16_Node000009_Node000003" class="edge">
<title>Node9&#45;&gt;Node3</title>
<g id="a_edge16_Node000009_Node000003"><a xlink:title=" ">
<path fill="none" stroke="#63b8ff" d="M368.48,-111.66C369.4,-97.64 368.9,-71.21 354.5,-56 336.17,-36.64 265.02,-23.15 219.28,-16.27"/>
<polygon fill="#63b8ff" stroke="#63b8ff" points="219.93,-12.68 209.53,-14.7 218.92,-19.61 219.93,-12.68"/>
</a>
</g>
</g>
<!-- Node9&#45;&gt;Node4 -->
<g id="edge19_Node000009_Node000004" class="edge">
<title>Node9&#45;&gt;Node4</title>
<g id="a_edge19_Node000009_Node000004"><a xlink:title=" ">
<path fill="none" stroke="#63b8ff" d="M360.01,-111.59C354.15,-104.24 345.84,-93.8 338.73,-84.87"/>
<polygon fill="#63b8ff" stroke="#63b8ff" points="340.87,-82.94 331.9,-77.3 335.4,-87.3 340.87,-82.94"/>
</a>
</g>
</g>
<!-- Node9&#45;&gt;Node5 -->
<g id="edge18_Node000009_Node000005" class="edge">
<title>Node9&#45;&gt;Node5</title>
<g id="a_edge18_Node000009_Node000005"><a xlink:title=" ">
<path fill="none" stroke="#63b8ff" d="M349.73,-111.59C334.11,-103.32 311.11,-91.14 293.09,-81.6"/>
<polygon fill="#63b8ff" stroke="#63b8ff" points="294.88,-78.07 284.41,-76.48 291.61,-84.25 294.88,-78.07"/>
</a>
</g>
</g>
<!-- Node10 -->
<g id="Node000010" class="node">
<title>Node10</title>
<g id="a_Node000010"><a xlink:href="_parse_ini_8h.html" target="_top" xlink:title="Declares the functions needed and defines mapping between the INI keys and the exo components.">
<polygon fill="white" stroke="#666666" points="499.25,-76 439.75,-76 439.75,-56 499.25,-56 499.25,-76"/>
<text text-anchor="middle" x="469.5" y="-62.5" font-family="Helvetica,sans-Serif" font-size="10.00">ParseIni.h</text>
</a>
</g>
</g>
<!-- Node9&#45;&gt;Node10 -->
<g id="edge14_Node000009_Node000010" class="edge">
<title>Node9&#45;&gt;Node10</title>
<g id="a_edge14_Node000009_Node000010"><a xlink:title=" ">
<path fill="none" stroke="#63b8ff" d="M385.27,-111.59C400.89,-103.32 423.89,-91.14 441.91,-81.6"/>
<polygon fill="#63b8ff" stroke="#63b8ff" points="443.39,-84.25 450.59,-76.48 440.12,-78.07 443.39,-84.25"/>
</a>
</g>
</g>
<!-- Node11 -->
<g id="Node000011" class="node">
<title>Node11</title>
<g id="a_Node000011"><a xlink:title=" ">
<polygon fill="#e0e0e0" stroke="#999999" points="464.63,-20 416.38,-20 416.38,0 464.63,0 464.63,-20"/>
<text text-anchor="middle" x="440.5" y="-6.5" font-family="Helvetica,sans-Serif" font-size="10.00">stdint.h</text>
</a>
</g>
</g>
<!-- Node9&#45;&gt;Node11 -->
<g id="edge17_Node000009_Node000011" class="edge">
<title>Node9&#45;&gt;Node11</title>
<g id="a_edge17_Node000009_Node000011"><a xlink:title=" ">
<path fill="none" stroke="#63b8ff" d="M373.72,-111.62C385.79,-93.44 412.57,-53.09 428.3,-29.38"/>
<polygon fill="#63b8ff" stroke="#63b8ff" points="431.68,-31.62 434.29,-21.35 425.85,-27.75 431.68,-31.62"/>
</a>
</g>
</g>
<!-- Node10&#45;&gt;Node11 -->
<g id="edge15_Node000010_Node000011" class="edge">
<title>Node10&#45;&gt;Node11</title>
<g id="a_edge15_Node000010_Node000011"><a xlink:title=" ">
<path fill="none" stroke="#63b8ff" d="M464.45,-55.59C460.62,-48.47 455.24,-38.45 450.55,-29.72"/>
<polygon fill="#63b8ff" stroke="#63b8ff" points="453.31,-28.45 445.49,-21.3 447.14,-31.76 453.31,-28.45"/>
</a>
</g>
</g>
</g>
</svg>
