<?xml version="1.0" encoding="UTF-8" standalone="no"?>
<!DOCTYPE svg PUBLIC "-//W3C//DTD SVG 1.1//EN"
 "http://www.w3.org/Graphics/SVG/1.1/DTD/svg11.dtd">
<!-- Generated by graphviz version 8.1.0 (20230707.0739)
 -->
<!-- Title: Joint.cpp Pages: 1 -->
<svg width="1567pt" height="588pt"
 viewBox="0.00 0.00 1567.25 588.00" xmlns="http://www.w3.org/2000/svg" xmlns:xlink="http://www.w3.org/1999/xlink">
<g id="graph0" class="graph" transform="scale(1 1) rotate(0) translate(4 584)">
<title>Joint.cpp</title>
<!-- Node1 -->
<g id="Node000001" class="node">
<title>Node1</title>
<g id="a_Node000001"><a xlink:title=" ">
<polygon fill="#999999" stroke="#666666" points="195.75,-580 140.75,-580 140.75,-560 195.75,-560 195.75,-580"/>
<text text-anchor="middle" x="168.25" y="-566.5" font-family="Helvetica,sans-Serif" font-size="10.00">Joint.cpp</text>
</a>
</g>
</g>
<!-- Node2 -->
<g id="Node000002" class="node">
<title>Node2</title>
<g id="a_Node000002"><a xlink:href="_joint_8h.html" target="_top" xlink:title="Declares a class for controlling and reading sensors for a joint.">
<polygon fill="white" stroke="#666666" points="44.5,-524 0,-524 0,-504 44.5,-504 44.5,-524"/>
<text text-anchor="middle" x="22.25" y="-510.5" font-family="Helvetica,sans-Serif" font-size="10.00">Joint.h</text>
</a>
</g>
</g>
<!-- Node1&#45;&gt;Node2 -->
<g id="edge1_Node000001_Node000002" class="edge">
<title>Node1&#45;&gt;Node2</title>
<g id="a_edge1_Node000001_Node000002"><a xlink:title=" ">
<path fill="none" stroke="#63b8ff" d="M142.82,-559.59C118.44,-550.58 81.53,-536.92 54.97,-527.1"/>
<polygon fill="#63b8ff" stroke="#63b8ff" points="56.59,-523.6 45.99,-523.41 54.16,-530.16 56.59,-523.6"/>
</a>
</g>
</g>
<!-- Node3 -->
<g id="Node000003" class="node">
<title>Node3</title>
<g id="a_Node000003"><a xlink:href="_time___helper_8h.html" target="_top" xlink:title=" ">
<polygon fill="white" stroke="#666666" points="140.38,-524 62.13,-524 62.13,-504 140.38,-504 140.38,-524"/>
<text text-anchor="middle" x="101.25" y="-510.5" font-family="Helvetica,sans-Serif" font-size="10.00">Time_Helper.h</text>
</a>
</g>
</g>
<!-- Node1&#45;&gt;Node3 -->
<g id="edge2_Node000001_Node000003" class="edge">
<title>Node1&#45;&gt;Node3</title>
<g id="a_edge2_Node000001_Node000003"><a xlink:title=" ">
<path fill="none" stroke="#63b8ff" d="M156.58,-559.59C146.88,-551.77 132.84,-540.46 121.34,-531.19"/>
<polygon fill="#63b8ff" stroke="#63b8ff" points="123.77,-527.85 113.79,-524.3 119.38,-533.3 123.77,-527.85"/>
</a>
</g>
</g>
<!-- Node5 -->
<g id="Node000005" class="node">
<title>Node5</title>
<g id="a_Node000005"><a xlink:href="_logger_8h.html" target="_top" xlink:title=" ">
<polygon fill="white" stroke="#666666" points="205,-244 151.5,-244 151.5,-224 205,-224 205,-244"/>
<text text-anchor="middle" x="178.25" y="-230.5" font-family="Helvetica,sans-Serif" font-size="10.00">Logger.h</text>
</a>
</g>
</g>
<!-- Node1&#45;&gt;Node5 -->
<g id="edge4_Node000001_Node000005" class="edge">
<title>Node1&#45;&gt;Node5</title>
<g id="a_edge4_Node000001_Node000005"><a xlink:title=" ">
<path fill="none" stroke="#63b8ff" d="M168.25,-559.58C168.25,-540.57 168.25,-496.24 168.25,-459 168.25,-459 168.25,-459 168.25,-345 168.25,-313.45 172.38,-277.02 175.33,-255.01"/>
<polygon fill="#63b8ff" stroke="#63b8ff" points="178.9,-255.78 176.82,-245.39 171.97,-254.81 178.9,-255.78"/>
</a>
</g>
</g>
<!-- Node9 -->
<g id="Node000009" class="node">
<title>Node9</title>
<g id="a_Node000009"><a xlink:href="_error_reporter_8h.html" target="_top" xlink:title="Singleton class to report errors to the other microcontroller.">
<polygon fill="white" stroke="#666666" points="626.25,-524 544.25,-524 544.25,-504 626.25,-504 626.25,-524"/>
<text text-anchor="middle" x="585.25" y="-510.5" font-family="Helvetica,sans-Serif" font-size="10.00">ErrorReporter.h</text>
</a>
</g>
</g>
<!-- Node1&#45;&gt;Node9 -->
<g id="edge10_Node000001_Node000009" class="edge">
<title>Node1&#45;&gt;Node9</title>
<g id="a_edge10_Node000001_Node000009"><a xlink:title=" ">
<path fill="none" stroke="#63b8ff" d="M195.93,-565.42C264.65,-556.52 443.88,-533.31 533.16,-521.75"/>
<polygon fill="#63b8ff" stroke="#63b8ff" points="533.38,-525.12 542.84,-520.36 532.48,-518.18 533.38,-525.12"/>
</a>
</g>
</g>
<!-- Node33 -->
<g id="Node000033" class="node">
<title>Node33</title>
<g id="a_Node000033"><a xlink:href="error__codes_8h.html" target="_top" xlink:title="Error codes for the exoskeleton. These are used to index the error map.">
<polygon fill="white" stroke="#666666" points="1427.88,-468 1352.63,-468 1352.63,-448 1427.88,-448 1427.88,-468"/>
<text text-anchor="middle" x="1390.25" y="-454.5" font-family="Helvetica,sans-Serif" font-size="10.00">error_codes.h</text>
</a>
</g>
</g>
<!-- Node1&#45;&gt;Node33 -->
<g id="edge82_Node000001_Node000033" class="edge">
<title>Node1&#45;&gt;Node33</title>
<g id="a_edge82_Node000001_Node000033"><a xlink:title=" ">
<path fill="none" stroke="#63b8ff" d="M195.98,-567.48C325.52,-560.21 883.82,-526.83 1338.25,-468 1339.39,-467.85 1340.53,-467.7 1341.69,-467.54"/>
<polygon fill="#63b8ff" stroke="#63b8ff" points="1341.88,-470.9 1351.25,-465.96 1340.84,-463.98 1341.88,-470.9"/>
</a>
</g>
</g>
<!-- Node4 -->
<g id="Node000004" class="node">
<title>Node4</title>
<g id="a_Node000004"><a xlink:title=" ">
<polygon fill="#e0e0e0" stroke="#999999" points="122,-468 80.5,-468 80.5,-448 122,-448 122,-468"/>
<text text-anchor="middle" x="101.25" y="-454.5" font-family="Helvetica,sans-Serif" font-size="10.00">vector</text>
</a>
</g>
</g>
<!-- Node3&#45;&gt;Node4 -->
<g id="edge3_Node000003_Node000004" class="edge">
<title>Node3&#45;&gt;Node4</title>
<g id="a_edge3_Node000003_Node000004"><a xlink:title=" ">
<path fill="none" stroke="#63b8ff" d="M101.25,-503.59C101.25,-496.86 101.25,-487.53 101.25,-479.15"/>
<polygon fill="#63b8ff" stroke="#63b8ff" points="104.75,-479.3 101.25,-469.3 97.75,-479.3 104.75,-479.3"/>
</a>
</g>
</g>
<!-- Node6 -->
<g id="Node000006" class="node">
<title>Node6</title>
<g id="a_Node000006"><a xlink:title=" ">
<polygon fill="#e0e0e0" stroke="#999999" points="608.88,-20 551.63,-20 551.63,0 608.88,0 608.88,-20"/>
<text text-anchor="middle" x="580.25" y="-6.5" font-family="Helvetica,sans-Serif" font-size="10.00">Arduino.h</text>
</a>
</g>
</g>
<!-- Node5&#45;&gt;Node6 -->
<g id="edge5_Node000005_Node000006" class="edge">
<title>Node5&#45;&gt;Node6</title>
<g id="a_edge5_Node000005_Node000006"><a xlink:title=" ">
<path fill="none" stroke="#63b8ff" d="M179.59,-223.96C184.66,-191.08 203.69,-78.66 230.25,-56 276.15,-16.83 458.64,-11.3 540.34,-10.83"/>
<polygon fill="#63b8ff" stroke="#63b8ff" points="540.19,-14.32 550.18,-10.79 540.17,-7.32 540.19,-14.32"/>
</a>
</g>
</g>
<!-- Node7 -->
<g id="Node000007" class="node">
<title>Node7</title>
<g id="a_Node000007"><a xlink:href="_log_levels_8h.html" target="_top" xlink:title=" ">
<polygon fill="white" stroke="#666666" points="158.75,-20 91.75,-20 91.75,0 158.75,0 158.75,-20"/>
<text text-anchor="middle" x="125.25" y="-6.5" font-family="Helvetica,sans-Serif" font-size="10.00">LogLevels.h</text>
</a>
</g>
</g>
<!-- Node5&#45;&gt;Node7 -->
<g id="edge6_Node000005_Node000007" class="edge">
<title>Node5&#45;&gt;Node7</title>
<g id="a_edge6_Node000005_Node000007"><a xlink:title=" ">
<path fill="none" stroke="#63b8ff" d="M173.27,-223.8C160.77,-200.15 128.29,-134.92 117.25,-76 114.43,-60.94 116.79,-43.73 119.67,-30.8"/>
<polygon fill="#63b8ff" stroke="#63b8ff" points="123.26,-31.87 122.31,-21.31 116.47,-30.15 123.26,-31.87"/>
</a>
</g>
</g>
<!-- Node8 -->
<g id="Node000008" class="node">
<title>Node8</title>
<g id="a_Node000008"><a xlink:href="_config_8h.html" target="_top" xlink:title="Configuration variables for the codebase.">
<polygon fill="white" stroke="#666666" points="177.88,-76 126.63,-76 126.63,-56 177.88,-56 177.88,-76"/>
<text text-anchor="middle" x="152.25" y="-62.5" font-family="Helvetica,sans-Serif" font-size="10.00">Config.h</text>
</a>
</g>
</g>
<!-- Node5&#45;&gt;Node8 -->
<g id="edge7_Node000005_Node000008" class="edge">
<title>Node5&#45;&gt;Node8</title>
<g id="a_edge7_Node000005_Node000008"><a xlink:title=" ">
<path fill="none" stroke="#63b8ff" d="M176.78,-223.6C172.67,-197.35 161,-122.84 155.36,-86.89"/>
<polygon fill="#63b8ff" stroke="#63b8ff" points="158.71,-86.64 153.71,-77.3 151.8,-87.72 158.71,-86.64"/>
</a>
</g>
</g>
<!-- Node8&#45;&gt;Node6 -->
<g id="edge8_Node000008_Node000006" class="edge">
<title>Node8&#45;&gt;Node6</title>
<g id="a_edge8_Node000008_Node000006"><a xlink:title=" ">
<path fill="none" stroke="#63b8ff" d="M177.99,-58.79C182.72,-57.77 187.62,-56.79 192.25,-56 318.85,-34.48 470.46,-20.17 540.81,-14.18"/>
<polygon fill="#63b8ff" stroke="#63b8ff" points="540.71,-17.62 550.38,-13.3 540.13,-10.65 540.71,-17.62"/>
</a>
</g>
</g>
<!-- Node8&#45;&gt;Node7 -->
<g id="edge9_Node000008_Node000007" class="edge">
<title>Node8&#45;&gt;Node7</title>
<g id="a_edge9_Node000008_Node000007"><a xlink:title=" ">
<path fill="none" stroke="#63b8ff" d="M147.55,-55.59C144.02,-48.55 139.08,-38.67 134.75,-30"/>
<polygon fill="#63b8ff" stroke="#63b8ff" points="137.5,-28.68 129.9,-21.3 131.24,-31.81 137.5,-28.68"/>
</a>
</g>
</g>
<!-- Node10 -->
<g id="Node000010" class="node">
<title>Node10</title>
<g id="a_Node000010"><a xlink:href="_u_a_r_t_handler_8h.html" target="_top" xlink:title="Singleton class that manages the UART data. NOT THREAD SAFE. The class queues recieved messages.">
<polygon fill="white" stroke="#666666" points="370.63,-412 287.88,-412 287.88,-392 370.63,-392 370.63,-412"/>
<text text-anchor="middle" x="329.25" y="-398.5" font-family="Helvetica,sans-Serif" font-size="10.00">UARTHandler.h</text>
</a>
</g>
</g>
<!-- Node9&#45;&gt;Node10 -->
<g id="edge11_Node000009_Node000010" class="edge">
<title>Node9&#45;&gt;Node10</title>
<g id="a_edge11_Node000009_Node000010"><a xlink:title=" ">
<path fill="none" stroke="#63b8ff" d="M563.42,-503.62C518.08,-484.14 413.54,-439.22 360.84,-416.57"/>
<polygon fill="#63b8ff" stroke="#63b8ff" points="362.59,-413.09 352.02,-412.35 359.83,-419.52 362.59,-413.09"/>
</a>
</g>
</g>
<!-- Node11 -->
<g id="Node000011" class="node">
<title>Node11</title>
<g id="a_Node000011"><a xlink:href="_u_a_r_t__msg__t_8h.html" target="_top" xlink:title=" ">
<polygon fill="white" stroke="#666666" points="278.25,-356 196.25,-356 196.25,-336 278.25,-336 278.25,-356"/>
<text text-anchor="middle" x="237.25" y="-342.5" font-family="Helvetica,sans-Serif" font-size="10.00">UART_msg_t.h</text>
</a>
</g>
</g>
<!-- Node9&#45;&gt;Node11 -->
<g id="edge81_Node000009_Node000011" class="edge">
<title>Node9&#45;&gt;Node11</title>
<g id="a_edge81_Node000009_Node000011"><a xlink:title=" ">
<path fill="none" stroke="#63b8ff" d="M543.99,-512.41C474.59,-509.11 334.46,-492.21 256.25,-412 244.58,-400.03 240.01,-381.31 238.26,-367.02"/>
<polygon fill="#63b8ff" stroke="#63b8ff" points="241.68,-366.98 237.35,-357.31 234.71,-367.57 241.68,-366.98"/>
</a>
</g>
</g>
<!-- Node13 -->
<g id="Node000013" class="node">
<title>Node13</title>
<g id="a_Node000013"><a xlink:href="uart__commands_8h.html" target="_top" xlink:title=" ">
<polygon fill="white" stroke="#666666" points="747.25,-468 653.25,-468 653.25,-448 747.25,-448 747.25,-468"/>
<text text-anchor="middle" x="700.25" y="-454.5" font-family="Helvetica,sans-Serif" font-size="10.00">uart_commands.h</text>
</a>
</g>
</g>
<!-- Node9&#45;&gt;Node13 -->
<g id="edge17_Node000009_Node000013" class="edge">
<title>Node9&#45;&gt;Node13</title>
<g id="a_edge17_Node000009_Node000013"><a xlink:title=" ">
<path fill="none" stroke="#63b8ff" d="M605.28,-503.59C623.23,-495.17 649.8,-482.69 670.28,-473.07"/>
<polygon fill="#63b8ff" stroke="#63b8ff" points="671.5,-475.9 679.06,-468.48 668.52,-469.56 671.5,-475.9"/>
</a>
</g>
</g>
<!-- Node14 -->
<g id="Node000014" class="node">
<title>Node14</title>
<g id="a_Node000014"><a xlink:href="_parse_ini_8h.html" target="_top" xlink:title="Declares the functions needed and defines mapping between the INI keys and the exo components.">
<polygon fill="white" stroke="#666666" points="1145,-132 1085.5,-132 1085.5,-112 1145,-112 1145,-132"/>
<text text-anchor="middle" x="1115.25" y="-118.5" font-family="Helvetica,sans-Serif" font-size="10.00">ParseIni.h</text>
</a>
</g>
</g>
<!-- Node9&#45;&gt;Node14 -->
<g id="edge80_Node000009_Node000014" class="edge">
<title>Node9&#45;&gt;Node14</title>
<g id="a_edge80_Node000009_Node000014"><a xlink:title=" ">
<path fill="none" stroke="#63b8ff" d="M626.63,-509.21C743.54,-497.98 1074.02,-462.48 1169.25,-412 1246.17,-371.23 1241.75,-309.28 1224.25,-224 1218.81,-197.47 1218.6,-187.92 1200.25,-168 1187.51,-154.17 1169.53,-143.8 1153.38,-136.52"/>
<polygon fill="#63b8ff" stroke="#63b8ff" points="1155.2,-133.07 1144.63,-132.38 1152.47,-139.51 1155.2,-133.07"/>
</a>
</g>
</g>
<!-- Node9&#45;&gt;Node33 -->
<g id="edge79_Node000009_Node000033" class="edge">
<title>Node9&#45;&gt;Node33</title>
<g id="a_edge79_Node000009_Node000033"><a xlink:title=" ">
<path fill="none" stroke="#63b8ff" d="M626.61,-512.15C740.47,-509.46 1067.99,-499.36 1338.25,-468 1339.39,-467.87 1340.54,-467.73 1341.7,-467.58"/>
<polygon fill="#63b8ff" stroke="#63b8ff" points="1341.86,-470.95 1351.27,-466.08 1340.87,-464.02 1341.86,-470.95"/>
</a>
</g>
</g>
<!-- Node10&#45;&gt;Node6 -->
<g id="edge15_Node000010_Node000006" class="edge">
<title>Node10&#45;&gt;Node6</title>
<g id="a_edge15_Node000010_Node000006"><a xlink:title=" ">
<path fill="none" stroke="#63b8ff" d="M324.57,-391.54C312.68,-366.59 282.25,-296.7 282.25,-235 282.25,-235 282.25,-235 282.25,-121 282.25,-84 302.49,-74.97 334.25,-56 368.46,-35.56 480.1,-21.3 540.54,-14.86"/>
<polygon fill="#63b8ff" stroke="#63b8ff" points="540.61,-18.27 550.19,-13.75 539.89,-11.3 540.61,-18.27"/>
</a>
</g>
</g>
<!-- Node10&#45;&gt;Node11 -->
<g id="edge12_Node000010_Node000011" class="edge">
<title>Node10&#45;&gt;Node11</title>
<g id="a_edge12_Node000010_Node000011"><a xlink:title=" ">
<path fill="none" stroke="#63b8ff" d="M313.22,-391.59C299.33,-383.44 278.96,-371.48 262.81,-362"/>
<polygon fill="#63b8ff" stroke="#63b8ff" points="264.8,-358.52 254.4,-356.48 261.25,-364.56 264.8,-358.52"/>
</a>
</g>
</g>
<!-- Node12 -->
<g id="Node000012" class="node">
<title>Node12</title>
<g id="a_Node000012"><a xlink:title=" ">
<polygon fill="#e0e0e0" stroke="#999999" points="1025.38,-76 977.13,-76 977.13,-56 1025.38,-56 1025.38,-76"/>
<text text-anchor="middle" x="1001.25" y="-62.5" font-family="Helvetica,sans-Serif" font-size="10.00">stdint.h</text>
</a>
</g>
</g>
<!-- Node10&#45;&gt;Node12 -->
<g id="edge16_Node000010_Node000012" class="edge">
<title>Node10&#45;&gt;Node12</title>
<g id="a_edge16_Node000010_Node000012"><a xlink:title=" ">
<path fill="none" stroke="#63b8ff" d="M370.92,-395.1C455.27,-381.99 638.25,-347.09 638.25,-291 638.25,-291 638.25,-291 638.25,-233 638.25,-89.79 874.81,-69.62 966,-67.16"/>
<polygon fill="#63b8ff" stroke="#63b8ff" points="965.94,-70.64 975.87,-66.94 965.8,-63.65 965.94,-70.64"/>
</a>
</g>
</g>
<!-- Node11&#45;&gt;Node5 -->
<g id="edge14_Node000011_Node000005" class="edge">
<title>Node11&#45;&gt;Node5</title>
<g id="a_edge14_Node000011_Node000005"><a xlink:title=" ">
<path fill="none" stroke="#63b8ff" d="M232.22,-335.62C222.55,-317.6 201.21,-277.81 188.45,-254.02"/>
<polygon fill="#63b8ff" stroke="#63b8ff" points="191.08,-252.51 183.27,-245.35 184.91,-255.82 191.08,-252.51"/>
</a>
</g>
</g>
<!-- Node11&#45;&gt;Node6 -->
<g id="edge13_Node000011_Node000006" class="edge">
<title>Node11&#45;&gt;Node6</title>
<g id="a_edge13_Node000011_Node000006"><a xlink:title=" ">
<path fill="none" stroke="#63b8ff" d="M238.25,-335.6C240.19,-316.61 244.25,-272.31 244.25,-235 244.25,-235 244.25,-235 244.25,-121 244.25,-90.2 244.31,-75.37 268.25,-56 309.33,-22.77 465.93,-14.07 540.43,-11.8"/>
<polygon fill="#63b8ff" stroke="#63b8ff" points="540.32,-15.27 550.22,-11.5 540.13,-8.28 540.32,-15.27"/>
</a>
</g>
</g>
<!-- Node13&#45;&gt;Node5 -->
<g id="edge76_Node000013_Node000005" class="edge">
<title>Node13&#45;&gt;Node5</title>
<g id="a_edge76_Node000013_Node000005"><a xlink:title=" ">
<path fill="none" stroke="#63b8ff" d="M673.64,-447.62C649,-438.81 611.44,-425.07 579.25,-412 439.05,-355.05 274.69,-279.77 208.31,-249"/>
<polygon fill="#63b8ff" stroke="#63b8ff" points="210.06,-245.49 199.51,-244.46 207.11,-251.84 210.06,-245.49"/>
</a>
</g>
</g>
<!-- Node13&#45;&gt;Node6 -->
<g id="edge18_Node000013_Node000006" class="edge">
<title>Node13&#45;&gt;Node6</title>
<g id="a_edge18_Node000013_Node000006"><a xlink:title=" ">
<path fill="none" stroke="#63b8ff" d="M747.66,-455.06C927.74,-446.41 1559.25,-404.05 1559.25,-235 1559.25,-235 1559.25,-235 1559.25,-121 1559.25,-24.83 803.56,-12.74 620.05,-11.22"/>
<polygon fill="#63b8ff" stroke="#63b8ff" points="620.31,-7.71 610.28,-11.14 620.26,-14.71 620.31,-7.71"/>
</a>
</g>
</g>
<!-- Node13&#45;&gt;Node10 -->
<g id="edge19_Node000013_Node000010" class="edge">
<title>Node13&#45;&gt;Node10</title>
<g id="a_edge19_Node000013_Node000010"><a xlink:title=" ">
<path fill="none" stroke="#63b8ff" d="M652.83,-450.56C590.97,-442.09 479.43,-426.56 384.25,-412 383.44,-411.88 382.63,-411.75 381.81,-411.62"/>
<polygon fill="#63b8ff" stroke="#63b8ff" points="382.4,-408.02 371.98,-409.92 381.31,-414.93 382.4,-408.02"/>
</a>
</g>
</g>
<!-- Node13&#45;&gt;Node11 -->
<g id="edge20_Node000013_Node000011" class="edge">
<title>Node13&#45;&gt;Node11</title>
<g id="a_edge20_Node000013_Node000011"><a xlink:title=" ">
<path fill="none" stroke="#63b8ff" d="M652.93,-456.98C556.43,-456.13 340.83,-449.91 279.25,-412 262.31,-401.57 250.92,-381.46 244.32,-366.36"/>
<polygon fill="#63b8ff" stroke="#63b8ff" points="247.32,-365.44 240.35,-357.46 240.82,-368.04 247.32,-365.44"/>
</a>
</g>
</g>
<!-- Node13&#45;&gt;Node14 -->
<g id="edge21_Node000013_Node000014" class="edge">
<title>Node13&#45;&gt;Node14</title>
<g id="a_edge21_Node000013_Node000014"><a xlink:title=" ">
<path fill="none" stroke="#63b8ff" d="M747.32,-456.78C873.57,-454.94 1210.25,-441.2 1210.25,-347 1210.25,-347 1210.25,-347 1210.25,-233 1210.25,-190.61 1169.33,-156.48 1141.21,-138.03"/>
<polygon fill="#63b8ff" stroke="#63b8ff" points="1143.56,-134.75 1133.23,-132.38 1139.83,-140.67 1143.56,-134.75"/>
</a>
</g>
</g>
<!-- Node15 -->
<g id="Node000015" class="node">
<title>Node15</title>
<g id="a_Node000015"><a xlink:href="_exo_data_8h.html" target="_top" xlink:title="Declares a class used to store data for the Exo to access.">
<polygon fill="white" stroke="#666666" points="766.13,-356 704.38,-356 704.38,-336 766.13,-336 766.13,-356"/>
<text text-anchor="middle" x="735.25" y="-342.5" font-family="Helvetica,sans-Serif" font-size="10.00">ExoData.h</text>
</a>
</g>
</g>
<!-- Node13&#45;&gt;Node15 -->
<g id="edge23_Node000013_Node000015" class="edge">
<title>Node13&#45;&gt;Node15</title>
<g id="a_edge23_Node000013_Node000015"><a xlink:title=" ">
<path fill="none" stroke="#63b8ff" d="M703.23,-447.62C708.92,-429.76 721.4,-390.53 728.99,-366.67"/>
<polygon fill="#63b8ff" stroke="#63b8ff" points="732.58,-367.95 732.27,-357.35 725.91,-365.82 732.58,-367.95"/>
</a>
</g>
</g>
<!-- Node17 -->
<g id="Node000017" class="node">
<title>Node17</title>
<g id="a_Node000017"><a xlink:href="_joint_data_8h.html" target="_top" xlink:title="Declares a class used to store data for joint to access.">
<polygon fill="white" stroke="#666666" points="942.63,-244 877.88,-244 877.88,-224 942.63,-224 942.63,-244"/>
<text text-anchor="middle" x="910.25" y="-230.5" font-family="Helvetica,sans-Serif" font-size="10.00">JointData.h</text>
</a>
</g>
</g>
<!-- Node13&#45;&gt;Node17 -->
<g id="edge62_Node000013_Node000017" class="edge">
<title>Node13&#45;&gt;Node17</title>
<g id="a_edge62_Node000013_Node000017"><a xlink:title=" ">
<path fill="none" stroke="#63b8ff" d="M709.01,-447.74C741.03,-413.89 852.08,-296.5 894.03,-252.15"/>
<polygon fill="#63b8ff" stroke="#63b8ff" points="896.13,-254.97 900.46,-245.3 891.04,-250.16 896.13,-254.97"/>
</a>
</g>
</g>
<!-- Node26 -->
<g id="Node000026" class="node">
<title>Node26</title>
<g id="a_Node000026"><a xlink:href="_params_from_s_d_8h.html" target="_top" xlink:title="Declares the functions to pull controller parameters from the SD card and defines the mapping to the ...">
<polygon fill="white" stroke="#666666" points="1071.25,-412 977.25,-412 977.25,-392 1071.25,-392 1071.25,-412"/>
<text text-anchor="middle" x="1024.25" y="-398.5" font-family="Helvetica,sans-Serif" font-size="10.00">ParamsFromSD.h</text>
</a>
</g>
</g>
<!-- Node13&#45;&gt;Node26 -->
<g id="edge63_Node000013_Node000026" class="edge">
<title>Node13&#45;&gt;Node26</title>
<g id="a_edge63_Node000013_Node000026"><a xlink:title=" ">
<path fill="none" stroke="#63b8ff" d="M747.71,-449.09C805.66,-439.43 903.65,-423.1 966.08,-412.69"/>
<polygon fill="#63b8ff" stroke="#63b8ff" points="966.64,-415.98 975.93,-410.89 965.49,-409.08 966.64,-415.98"/>
</a>
</g>
</g>
<!-- Node32 -->
<g id="Node000032" class="node">
<title>Node32</title>
<g id="a_Node000032"><a xlink:href="_real_time_i2_c_8h.html" target="_top" xlink:title=" ">
<polygon fill="white" stroke="#666666" points="427.75,-300 348.75,-300 348.75,-280 427.75,-280 427.75,-300"/>
<text text-anchor="middle" x="388.25" y="-286.5" font-family="Helvetica,sans-Serif" font-size="10.00">RealTimeI2C.h</text>
</a>
</g>
</g>
<!-- Node13&#45;&gt;Node32 -->
<g id="edge77_Node000013_Node000032" class="edge">
<title>Node13&#45;&gt;Node32</title>
<g id="a_edge77_Node000013_Node000032"><a xlink:title=" ">
<path fill="none" stroke="#63b8ff" d="M682.58,-447.6C630.56,-419.92 477.71,-338.6 415.28,-305.38"/>
<polygon fill="#63b8ff" stroke="#63b8ff" points="417.2,-301.9 406.72,-300.3 413.91,-308.08 417.2,-301.9"/>
</a>
</g>
</g>
<!-- Node14&#45;&gt;Node12 -->
<g id="edge22_Node000014_Node000012" class="edge">
<title>Node14&#45;&gt;Node12</title>
<g id="a_edge22_Node000014_Node000012"><a xlink:title=" ">
<path fill="none" stroke="#63b8ff" d="M1095.39,-111.59C1077.6,-103.17 1051.26,-90.69 1030.96,-81.07"/>
<polygon fill="#63b8ff" stroke="#63b8ff" points="1032.8,-77.6 1022.26,-76.48 1029.8,-83.92 1032.8,-77.6"/>
</a>
</g>
</g>
<!-- Node15&#45;&gt;Node6 -->
<g id="edge24_Node000015_Node000006" class="edge">
<title>Node15&#45;&gt;Node6</title>
<g id="a_edge24_Node000015_Node000006"><a xlink:title=" ">
<path fill="none" stroke="#63b8ff" d="M704.01,-341.27C635.69,-331.18 474.38,-296.37 415.25,-188 376.43,-116.85 489.82,-52.42 548.06,-24.99"/>
<polygon fill="#63b8ff" stroke="#63b8ff" points="549.29,-27.81 556.91,-20.45 546.36,-21.45 549.29,-27.81"/>
</a>
</g>
</g>
<!-- Node15&#45;&gt;Node12 -->
<g id="edge52_Node000015_Node000012" class="edge">
<title>Node15&#45;&gt;Node12</title>
<g id="a_edge52_Node000015_Node000012"><a xlink:title=" ">
<path fill="none" stroke="#63b8ff" d="M766.3,-343.66C897.83,-337.26 1406.65,-305.15 1502.25,-188 1528.15,-156.26 1484.72,-126.87 1457.25,-112 1384.72,-72.74 1130.53,-67.56 1036.54,-67"/>
<polygon fill="#63b8ff" stroke="#63b8ff" points="1036.65,-63.5 1026.64,-66.96 1036.62,-70.5 1036.65,-63.5"/>
</a>
</g>
</g>
<!-- Node15&#45;&gt;Node14 -->
<g id="edge53_Node000015_Node000014" class="edge">
<title>Node15&#45;&gt;Node14</title>
<g id="a_edge53_Node000015_Node000014"><a xlink:title=" ">
<path fill="none" stroke="#63b8ff" d="M766.61,-339.96C834.92,-327.31 998.04,-287.79 1085.25,-188 1096.75,-174.84 1104.67,-156.52 1109.47,-142.69"/>
<polygon fill="#63b8ff" stroke="#63b8ff" points="1113.07,-143.92 1112.78,-133.33 1106.4,-141.79 1113.07,-143.92"/>
</a>
</g>
</g>
<!-- Node16 -->
<g id="Node000016" class="node">
<title>Node16</title>
<g id="a_Node000016"><a xlink:href="_leg_data_8h.html" target="_top" xlink:title="Declares a class used to store data for leg to access.">
<polygon fill="white" stroke="#666666" points="782.38,-300 722.13,-300 722.13,-280 782.38,-280 782.38,-300"/>
<text text-anchor="middle" x="752.25" y="-286.5" font-family="Helvetica,sans-Serif" font-size="10.00">LegData.h</text>
</a>
</g>
</g>
<!-- Node15&#45;&gt;Node16 -->
<g id="edge25_Node000015_Node000016" class="edge">
<title>Node15&#45;&gt;Node16</title>
<g id="a_edge25_Node000015_Node000016"><a xlink:title=" ">
<path fill="none" stroke="#63b8ff" d="M738.21,-335.59C740.38,-328.7 743.4,-319.1 746.09,-310.57"/>
<polygon fill="#63b8ff" stroke="#63b8ff" points="749.66,-311.89 749.32,-301.3 742.98,-309.79 749.66,-311.89"/>
</a>
</g>
</g>
<!-- Node19 -->
<g id="Node000019" class="node">
<title>Node19</title>
<g id="a_Node000019"><a xlink:href="_board_8h.html" target="_top" xlink:title="Defines the pins and peripherals for the board being used.">
<polygon fill="white" stroke="#666666" points="572.13,-132 522.38,-132 522.38,-112 572.13,-112 572.13,-132"/>
<text text-anchor="middle" x="547.25" y="-118.5" font-family="Helvetica,sans-Serif" font-size="10.00">Board.h</text>
</a>
</g>
</g>
<!-- Node15&#45;&gt;Node19 -->
<g id="edge54_Node000015_Node000019" class="edge">
<title>Node15&#45;&gt;Node19</title>
<g id="a_edge54_Node000015_Node000019"><a xlink:title=" ">
<path fill="none" stroke="#63b8ff" d="M703.91,-342.75C644.01,-337.94 516,-324.97 480.25,-300 426.64,-262.55 377.19,-221.18 415.25,-168 436.9,-137.75 480.1,-127.6 511.19,-124.32"/>
<polygon fill="#63b8ff" stroke="#63b8ff" points="511.37,-127.73 521.04,-123.4 510.78,-120.76 511.37,-127.73"/>
</a>
</g>
</g>
<!-- Node24 -->
<g id="Node000024" class="node">
<title>Node24</title>
<g id="a_Node000024"><a xlink:href="_status_led_8h.html" target="_top" xlink:title="Class to set an RGB LED to different colors based on the state of the system.">
<polygon fill="white" stroke="#666666" points="610.5,-244 542,-244 542,-224 610.5,-224 610.5,-244"/>
<text text-anchor="middle" x="576.25" y="-230.5" font-family="Helvetica,sans-Serif" font-size="10.00">StatusLed.h</text>
</a>
</g>
</g>
<!-- Node15&#45;&gt;Node24 -->
<g id="edge55_Node000015_Node000024" class="edge">
<title>Node15&#45;&gt;Node24</title>
<g id="a_edge55_Node000015_Node000024"><a xlink:title=" ">
<path fill="none" stroke="#63b8ff" d="M721.69,-335.62C694.35,-316.71 632.36,-273.82 598.81,-250.61"/>
<polygon fill="#63b8ff" stroke="#63b8ff" points="600.99,-247.17 590.77,-244.35 597,-252.92 600.99,-247.17"/>
</a>
</g>
</g>
<!-- Node25 -->
<g id="Node000025" class="node">
<title>Node25</title>
<g id="a_Node000025"><a xlink:href="_status_defs_8h.html" target="_top" xlink:title="Stores the different status messages for the system.">
<polygon fill="white" stroke="#666666" points="496.38,-188 424.13,-188 424.13,-168 496.38,-168 496.38,-188"/>
<text text-anchor="middle" x="460.25" y="-174.5" font-family="Helvetica,sans-Serif" font-size="10.00">StatusDefs.h</text>
</a>
</g>
</g>
<!-- Node15&#45;&gt;Node25 -->
<g id="edge61_Node000015_Node000025" class="edge">
<title>Node15&#45;&gt;Node25</title>
<g id="a_edge61_Node000015_Node000025"><a xlink:title=" ">
<path fill="none" stroke="#63b8ff" d="M710.97,-335.6C671.7,-319.82 592.67,-285.6 533.25,-244 512.33,-229.36 490.78,-209.47 476.57,-195.57"/>
<polygon fill="#63b8ff" stroke="#63b8ff" points="479.68,-193.72 470.12,-189.15 474.74,-198.68 479.68,-193.72"/>
</a>
</g>
</g>
<!-- Node16&#45;&gt;Node6 -->
<g id="edge26_Node000016_Node000006" class="edge">
<title>Node16&#45;&gt;Node6</title>
<g id="a_edge26_Node000016_Node000006"><a xlink:title=" ">
<path fill="none" stroke="#63b8ff" d="M746.53,-279.75C721.94,-240.01 625.01,-83.34 591.62,-29.38"/>
<polygon fill="#63b8ff" stroke="#63b8ff" points="594.23,-27.95 585.99,-21.28 588.28,-31.63 594.23,-27.95"/>
</a>
</g>
</g>
<!-- Node16&#45;&gt;Node12 -->
<g id="edge51_Node000016_Node000012" class="edge">
<title>Node16&#45;&gt;Node12</title>
<g id="a_edge51_Node000016_Node000012"><a xlink:title=" ">
<path fill="none" stroke="#63b8ff" d="M754.47,-279.66C760.12,-257.67 776.92,-201.98 809.25,-168 853.67,-121.31 924.49,-91.91 966.57,-77.55"/>
<polygon fill="#63b8ff" stroke="#63b8ff" points="967.47,-80.61 975.87,-74.14 965.27,-73.96 967.47,-80.61"/>
</a>
</g>
</g>
<!-- Node16&#45;&gt;Node14 -->
<g id="edge45_Node000016_Node000014" class="edge">
<title>Node16&#45;&gt;Node14</title>
<g id="a_edge45_Node000016_Node000014"><a xlink:title=" ">
<path fill="none" stroke="#63b8ff" d="M782.47,-286.25C842.07,-279.44 976.44,-256.97 1062.25,-188 1078.85,-174.66 1093.78,-155.35 1103.53,-141.24"/>
<polygon fill="#63b8ff" stroke="#63b8ff" points="1106.76,-143.7 1109.41,-133.44 1100.94,-139.81 1106.76,-143.7"/>
</a>
</g>
</g>
<!-- Node16&#45;&gt;Node17 -->
<g id="edge27_Node000016_Node000017" class="edge">
<title>Node16&#45;&gt;Node17</title>
<g id="a_edge27_Node000016_Node000017"><a xlink:title=" ">
<path fill="none" stroke="#63b8ff" d="M779.77,-279.59C805.33,-270.86 843.62,-257.77 872.12,-248.03"/>
<polygon fill="#63b8ff" stroke="#63b8ff" points="873.18,-251.03 881.51,-244.48 870.92,-244.4 873.18,-251.03"/>
</a>
</g>
</g>
<!-- Node16&#45;&gt;Node19 -->
<g id="edge46_Node000016_Node000019" class="edge">
<title>Node16&#45;&gt;Node19</title>
<g id="a_edge46_Node000016_Node000019"><a xlink:title=" ">
<path fill="none" stroke="#63b8ff" d="M740.64,-279.6C707.03,-252.38 609.32,-173.26 567.09,-139.06"/>
<polygon fill="#63b8ff" stroke="#63b8ff" points="569.71,-135.87 559.73,-132.3 565.3,-141.31 569.71,-135.87"/>
</a>
</g>
</g>
<!-- Node22 -->
<g id="Node000022" class="node">
<title>Node22</title>
<g id="a_Node000022"><a xlink:href="_inclination_detector_8h.html" target="_top" xlink:title=" ">
<polygon fill="white" stroke="#666666" points="1493.5,-188 1389,-188 1389,-168 1493.5,-168 1493.5,-188"/>
<text text-anchor="middle" x="1441.25" y="-174.5" font-family="Helvetica,sans-Serif" font-size="10.00">InclinationDetector.h</text>
</a>
</g>
</g>
<!-- Node16&#45;&gt;Node22 -->
<g id="edge47_Node000016_Node000022" class="edge">
<title>Node16&#45;&gt;Node22</title>
<g id="a_edge47_Node000016_Node000022"><a xlink:title=" ">
<path fill="none" stroke="#63b8ff" d="M782.75,-285.07C839.71,-277.65 966.14,-260.8 1072.25,-244 1180.95,-226.79 1307.13,-203.94 1380.22,-190.42"/>
<polygon fill="#63b8ff" stroke="#63b8ff" points="1380.41,-193.76 1389.61,-188.49 1379.14,-186.87 1380.41,-193.76"/>
</a>
</g>
</g>
<!-- Node17&#45;&gt;Node6 -->
<g id="edge28_Node000017_Node000006" class="edge">
<title>Node17&#45;&gt;Node6</title>
<g id="a_edge28_Node000017_Node000006"><a xlink:title=" ">
<path fill="none" stroke="#63b8ff" d="M880.68,-223.55C859.57,-215.94 831.15,-203.91 809.25,-188 745.34,-141.58 754.87,-101.43 690.25,-56 668.78,-40.91 641.49,-29.7 619.47,-22.25"/>
<polygon fill="#63b8ff" stroke="#63b8ff" points="620.72,-18.65 610.13,-18.89 618.56,-25.31 620.72,-18.65"/>
</a>
</g>
</g>
<!-- Node17&#45;&gt;Node12 -->
<g id="edge43_Node000017_Node000012" class="edge">
<title>Node17&#45;&gt;Node12</title>
<g id="a_edge43_Node000017_Node000012"><a xlink:title=" ">
<path fill="none" stroke="#63b8ff" d="M942.7,-226.17C963.34,-219.96 988.51,-208.51 1001.25,-188 1020.48,-157.04 1013.64,-112.46 1007.24,-86.94"/>
<polygon fill="#63b8ff" stroke="#63b8ff" points="1010.36,-86.1 1004.33,-77.39 1003.61,-87.96 1010.36,-86.1"/>
</a>
</g>
</g>
<!-- Node17&#45;&gt;Node14 -->
<g id="edge41_Node000017_Node000014" class="edge">
<title>Node17&#45;&gt;Node14</title>
<g id="a_edge41_Node000017_Node000014"><a xlink:title=" ">
<path fill="none" stroke="#63b8ff" d="M943.11,-224.29C968.87,-216.72 1005.1,-204.39 1034.25,-188 1058.39,-174.43 1082.71,-153.75 1098.31,-139.38"/>
<polygon fill="#63b8ff" stroke="#63b8ff" points="1100.14,-142.52 1105.03,-133.12 1095.35,-137.42 1100.14,-142.52"/>
</a>
</g>
</g>
<!-- Node18 -->
<g id="Node000018" class="node">
<title>Node18</title>
<g id="a_Node000018"><a xlink:href="_motor_data_8h.html" target="_top" xlink:title="Declares a class used to store data for motors to access.">
<polygon fill="white" stroke="#666666" points="991.88,-188 922.63,-188 922.63,-168 991.88,-168 991.88,-188"/>
<text text-anchor="middle" x="957.25" y="-174.5" font-family="Helvetica,sans-Serif" font-size="10.00">MotorData.h</text>
</a>
</g>
</g>
<!-- Node17&#45;&gt;Node18 -->
<g id="edge29_Node000017_Node000018" class="edge">
<title>Node17&#45;&gt;Node18</title>
<g id="a_edge29_Node000017_Node000018"><a xlink:title=" ">
<path fill="none" stroke="#63b8ff" d="M918.44,-223.59C924.91,-216.16 934.12,-205.58 941.95,-196.58"/>
<polygon fill="#63b8ff" stroke="#63b8ff" points="945.23,-199.14 949.16,-189.3 939.95,-194.54 945.23,-199.14"/>
</a>
</g>
</g>
<!-- Node17&#45;&gt;Node19 -->
<g id="edge42_Node000017_Node000019" class="edge">
<title>Node17&#45;&gt;Node19</title>
<g id="a_edge42_Node000017_Node000019"><a xlink:title=" ">
<path fill="none" stroke="#63b8ff" d="M878.99,-223.53C811.59,-203.1 653.02,-155.05 582.33,-133.63"/>
<polygon fill="#63b8ff" stroke="#63b8ff" points="583.75,-130.1 573.16,-130.55 581.72,-136.8 583.75,-130.1"/>
</a>
</g>
</g>
<!-- Node20 -->
<g id="Node000020" class="node">
<title>Node20</title>
<g id="a_Node000020"><a xlink:href="_controller_data_8h.html" target="_top" xlink:title="Declares a class used to store data for controllers to access.">
<polygon fill="white" stroke="#666666" points="904.13,-188 818.38,-188 818.38,-168 904.13,-168 904.13,-188"/>
<text text-anchor="middle" x="861.25" y="-174.5" font-family="Helvetica,sans-Serif" font-size="10.00">ControllerData.h</text>
</a>
</g>
</g>
<!-- Node17&#45;&gt;Node20 -->
<g id="edge36_Node000017_Node000020" class="edge">
<title>Node17&#45;&gt;Node20</title>
<g id="a_edge36_Node000017_Node000020"><a xlink:title=" ">
<path fill="none" stroke="#63b8ff" d="M901.71,-223.59C894.9,-216.08 885.16,-205.35 876.95,-196.3"/>
<polygon fill="#63b8ff" stroke="#63b8ff" points="880,-194.35 870.69,-189.3 874.82,-199.06 880,-194.35"/>
</a>
</g>
</g>
<!-- Node21 -->
<g id="Node000021" class="node">
<title>Node21</title>
<g id="a_Node000021"><a xlink:title=" ">
<polygon fill="#e0e0e0" stroke="#999999" points="1307.38,-132 1265.13,-132 1265.13,-112 1307.38,-112 1307.38,-132"/>
<text text-anchor="middle" x="1286.25" y="-118.5" font-family="Helvetica,sans-Serif" font-size="10.00">queue</text>
</a>
</g>
</g>
<!-- Node17&#45;&gt;Node21 -->
<g id="edge44_Node000017_Node000021" class="edge">
<title>Node17&#45;&gt;Node21</title>
<g id="a_edge44_Node000017_Node000021"><a xlink:title=" ">
<path fill="none" stroke="#63b8ff" d="M942.63,-223.53C1013.82,-202.7 1183.21,-153.14 1254.14,-132.39"/>
<polygon fill="#63b8ff" stroke="#63b8ff" points="1255.04,-135.49 1263.65,-129.32 1253.07,-128.77 1255.04,-135.49"/>
</a>
</g>
</g>
<!-- Node18&#45;&gt;Node6 -->
<g id="edge30_Node000018_Node000006" class="edge">
<title>Node18&#45;&gt;Node6</title>
<g id="a_edge30_Node000018_Node000006"><a xlink:title=" ">
<path fill="none" stroke="#63b8ff" d="M944.78,-167.69C914.22,-145.29 832.53,-87.9 756.25,-56 711.16,-37.14 656.17,-24.63 619.78,-17.68"/>
<polygon fill="#63b8ff" stroke="#63b8ff" points="620.59,-14.09 610.12,-15.71 619.31,-20.97 620.59,-14.09"/>
</a>
</g>
</g>
<!-- Node18&#45;&gt;Node12 -->
<g id="edge35_Node000018_Node000012" class="edge">
<title>Node18&#45;&gt;Node12</title>
<g id="a_edge35_Node000018_Node000012"><a xlink:title=" ">
<path fill="none" stroke="#63b8ff" d="M961,-167.62C968.18,-149.68 983.98,-110.17 993.51,-86.35"/>
<polygon fill="#63b8ff" stroke="#63b8ff" points="997.04,-87.94 997.51,-77.35 990.54,-85.34 997.04,-87.94"/>
</a>
</g>
</g>
<!-- Node18&#45;&gt;Node14 -->
<g id="edge31_Node000018_Node000014" class="edge">
<title>Node18&#45;&gt;Node14</title>
<g id="a_edge31_Node000018_Node000014"><a xlink:title=" ">
<path fill="none" stroke="#63b8ff" d="M984.77,-167.59C1010.33,-158.86 1048.62,-145.77 1077.12,-136.03"/>
<polygon fill="#63b8ff" stroke="#63b8ff" points="1078.18,-139.03 1086.51,-132.48 1075.92,-132.4 1078.18,-139.03"/>
</a>
</g>
</g>
<!-- Node18&#45;&gt;Node19 -->
<g id="edge32_Node000018_Node000019" class="edge">
<title>Node18&#45;&gt;Node19</title>
<g id="a_edge32_Node000018_Node000019"><a xlink:title=" ">
<path fill="none" stroke="#63b8ff" d="M922.23,-169.58C919.2,-169.01 916.17,-168.48 913.25,-168 792.6,-148.28 648.3,-132.94 582.76,-126.42"/>
<polygon fill="#63b8ff" stroke="#63b8ff" points="583.49,-122.88 573.2,-125.38 582.81,-129.84 583.49,-122.88"/>
</a>
</g>
</g>
<!-- Node19&#45;&gt;Node6 -->
<g id="edge34_Node000019_Node000006" class="edge">
<title>Node19&#45;&gt;Node6</title>
<g id="a_edge34_Node000019_Node000006"><a xlink:title=" ">
<path fill="none" stroke="#63b8ff" d="M550.06,-111.62C555.42,-93.76 567.19,-54.53 574.35,-30.67"/>
<polygon fill="#63b8ff" stroke="#63b8ff" points="577.92,-31.94 577.44,-21.35 571.22,-29.93 577.92,-31.94"/>
</a>
</g>
</g>
<!-- Node19&#45;&gt;Node8 -->
<g id="edge33_Node000019_Node000008" class="edge">
<title>Node19&#45;&gt;Node8</title>
<g id="a_edge33_Node000019_Node000008"><a xlink:title=" ">
<path fill="none" stroke="#63b8ff" d="M521.94,-117.54C454.04,-108.26 267.68,-82.78 188.55,-71.96"/>
<polygon fill="#63b8ff" stroke="#63b8ff" points="189.5,-68.42 179.12,-70.54 188.55,-75.36 189.5,-68.42"/>
</a>
</g>
</g>
<!-- Node20&#45;&gt;Node6 -->
<g id="edge38_Node000020_Node000006" class="edge">
<title>Node20&#45;&gt;Node6</title>
<g id="a_edge38_Node000020_Node000006"><a xlink:title=" ">
<path fill="none" stroke="#63b8ff" d="M853.59,-167.61C834.69,-145.05 783.35,-87.3 728.25,-56 694.1,-36.6 650.66,-24.68 619.7,-18.02"/>
<polygon fill="#63b8ff" stroke="#63b8ff" points="620.8,-14.47 610.3,-15.88 619.39,-21.33 620.8,-14.47"/>
</a>
</g>
</g>
<!-- Node20&#45;&gt;Node12 -->
<g id="edge37_Node000020_Node000012" class="edge">
<title>Node20&#45;&gt;Node12</title>
<g id="a_edge37_Node000020_Node000012"><a xlink:title=" ">
<path fill="none" stroke="#63b8ff" d="M873.19,-167.62C897.16,-148.79 951.38,-106.18 981,-82.91"/>
<polygon fill="#63b8ff" stroke="#63b8ff" points="982.64,-85.29 988.34,-76.35 978.32,-79.78 982.64,-85.29"/>
</a>
</g>
</g>
<!-- Node20&#45;&gt;Node14 -->
<g id="edge40_Node000020_Node000014" class="edge">
<title>Node20&#45;&gt;Node14</title>
<g id="a_edge40_Node000020_Node000014"><a xlink:title=" ">
<path fill="none" stroke="#63b8ff" d="M904.34,-167.84C951.9,-157.73 1027.89,-141.57 1074.5,-131.66"/>
<polygon fill="#63b8ff" stroke="#63b8ff" points="1075.06,-134.91 1084.11,-129.41 1073.6,-128.06 1075.06,-134.91"/>
</a>
</g>
</g>
<!-- Node20&#45;&gt;Node19 -->
<g id="edge39_Node000020_Node000019" class="edge">
<title>Node20&#45;&gt;Node19</title>
<g id="a_edge39_Node000020_Node000019"><a xlink:title=" ">
<path fill="none" stroke="#63b8ff" d="M817.92,-169.55C755.46,-158.81 641.27,-139.17 583.21,-129.18"/>
<polygon fill="#63b8ff" stroke="#63b8ff" points="583.82,-125.57 573.38,-127.32 582.64,-132.47 583.82,-125.57"/>
</a>
</g>
</g>
<!-- Node22&#45;&gt;Node6 -->
<g id="edge48_Node000022_Node000006" class="edge">
<title>Node22&#45;&gt;Node6</title>
<g id="a_edge48_Node000022_Node000006"><a xlink:title=" ">
<path fill="none" stroke="#63b8ff" d="M1447.85,-167.95C1456.91,-154.31 1470.65,-128.37 1457.25,-112 1377.41,-14.47 1304.11,-73.2 1179.25,-56 970.03,-27.18 716.97,-15.8 620.36,-12.3"/>
<polygon fill="#63b8ff" stroke="#63b8ff" points="620.49,-8.77 610.37,-11.91 620.24,-15.76 620.49,-8.77"/>
</a>
</g>
</g>
<!-- Node22&#45;&gt;Node21 -->
<g id="edge49_Node000022_Node000021" class="edge">
<title>Node22&#45;&gt;Node21</title>
<g id="a_edge49_Node000022_Node000021"><a xlink:title=" ">
<path fill="none" stroke="#63b8ff" d="M1414.25,-167.59C1387.33,-158.22 1346.02,-143.82 1317.65,-133.94"/>
<polygon fill="#63b8ff" stroke="#63b8ff" points="1319.06,-130.38 1308.47,-130.39 1316.76,-136.99 1319.06,-130.38"/>
</a>
</g>
</g>
<!-- Node23 -->
<g id="Node000023" class="node">
<title>Node23</title>
<g id="a_Node000023"><a xlink:title=" ">
<polygon fill="#e0e0e0" stroke="#999999" points="1447.88,-132 1408.63,-132 1408.63,-112 1447.88,-112 1447.88,-132"/>
<text text-anchor="middle" x="1428.25" y="-118.5" font-family="Helvetica,sans-Serif" font-size="10.00">utility</text>
</a>
</g>
</g>
<!-- Node22&#45;&gt;Node23 -->
<g id="edge50_Node000022_Node000023" class="edge">
<title>Node22&#45;&gt;Node23</title>
<g id="a_edge50_Node000022_Node000023"><a xlink:title=" ">
<path fill="none" stroke="#63b8ff" d="M1438.99,-167.59C1437.35,-160.78 1435.07,-151.32 1433.03,-142.86"/>
<polygon fill="#63b8ff" stroke="#63b8ff" points="1436.23,-142.2 1430.49,-133.3 1429.43,-143.84 1436.23,-142.2"/>
</a>
</g>
</g>
<!-- Node24&#45;&gt;Node6 -->
<g id="edge56_Node000024_Node000006" class="edge">
<title>Node24&#45;&gt;Node6</title>
<g id="a_edge56_Node000024_Node000006"><a xlink:title=" ">
<path fill="none" stroke="#63b8ff" d="M576.87,-223.54C578.02,-205.66 580.42,-165.7 581.25,-132 582.13,-96.59 581.41,-55.34 580.83,-31.3"/>
<polygon fill="#63b8ff" stroke="#63b8ff" points="584.3,-31.32 580.54,-21.42 577.3,-31.5 584.3,-31.32"/>
</a>
</g>
</g>
<!-- Node24&#45;&gt;Node19 -->
<g id="edge57_Node000024_Node000019" class="edge">
<title>Node24&#45;&gt;Node19</title>
<g id="a_edge57_Node000024_Node000019"><a xlink:title=" ">
<path fill="none" stroke="#63b8ff" d="M568.36,-223.74C561.57,-215.12 552.25,-201.59 548.25,-188 543.96,-173.41 543.91,-156.17 544.82,-143.11"/>
<polygon fill="#63b8ff" stroke="#63b8ff" points="548.37,-143.78 545.84,-133.49 541.4,-143.11 548.37,-143.78"/>
</a>
</g>
</g>
<!-- Node24&#45;&gt;Node25 -->
<g id="edge58_Node000024_Node000025" class="edge">
<title>Node24&#45;&gt;Node25</title>
<g id="a_edge58_Node000024_Node000025"><a xlink:title=" ">
<path fill="none" stroke="#63b8ff" d="M556.04,-223.59C537.94,-215.17 511.14,-202.69 490.48,-193.07"/>
<polygon fill="#63b8ff" stroke="#63b8ff" points="492.16,-189.53 481.61,-188.48 489.2,-195.87 492.16,-189.53"/>
</a>
</g>
</g>
<!-- Node25&#45;&gt;Node6 -->
<g id="edge59_Node000025_Node000006" class="edge">
<title>Node25&#45;&gt;Node6</title>
<g id="a_edge59_Node000025_Node000006"><a xlink:title=" ">
<path fill="none" stroke="#63b8ff" d="M467.05,-167.6C486.35,-140.89 541.77,-64.23 567.21,-29.05"/>
<polygon fill="#63b8ff" stroke="#63b8ff" points="570.51,-31.45 573.53,-21.3 564.83,-27.35 570.51,-31.45"/>
</a>
</g>
</g>
<!-- Node25&#45;&gt;Node19 -->
<g id="edge60_Node000025_Node000019" class="edge">
<title>Node25&#45;&gt;Node19</title>
<g id="a_edge60_Node000025_Node000019"><a xlink:title=" ">
<path fill="none" stroke="#63b8ff" d="M475.4,-167.59C488.42,-159.51 507.44,-147.71 522.64,-138.27"/>
<polygon fill="#63b8ff" stroke="#63b8ff" points="524.33,-140.73 530.98,-132.48 520.64,-134.78 524.33,-140.73"/>
</a>
</g>
</g>
<!-- Node26&#45;&gt;Node14 -->
<g id="edge65_Node000026_Node000014" class="edge">
<title>Node26&#45;&gt;Node14</title>
<g id="a_edge65_Node000026_Node000014"><a xlink:title=" ">
<path fill="none" stroke="#63b8ff" d="M1004.77,-391.6C991.51,-384.02 975,-372 967.25,-356 963.37,-348 963.99,-344.27 967.25,-336 1000.21,-252.32 1066.01,-268.92 1105.25,-188 1112.04,-174 1114.43,-156.48 1115.19,-143.16"/>
<polygon fill="#63b8ff" stroke="#63b8ff" points="1118.71,-143.43 1115.5,-133.33 1111.71,-143.23 1118.71,-143.43"/>
</a>
</g>
</g>
<!-- Node26&#45;&gt;Node15 -->
<g id="edge64_Node000026_Node000015" class="edge">
<title>Node26&#45;&gt;Node15</title>
<g id="a_edge64_Node000026_Node000015"><a xlink:title=" ">
<path fill="none" stroke="#63b8ff" d="M976.85,-392.14C921.39,-381.78 830.4,-364.78 777.33,-354.86"/>
<polygon fill="#63b8ff" stroke="#63b8ff" points="778.08,-351.26 767.61,-352.86 776.8,-358.14 778.08,-351.26"/>
</a>
</g>
</g>
<!-- Node27 -->
<g id="Node000027" class="node">
<title>Node27</title>
<g id="a_Node000027"><a xlink:href="_utilities_8h.html" target="_top" xlink:title=" ">
<polygon fill="white" stroke="#666666" points="1370.5,-188 1314,-188 1314,-168 1370.5,-168 1370.5,-188"/>
<text text-anchor="middle" x="1342.25" y="-174.5" font-family="Helvetica,sans-Serif" font-size="10.00">Utilities.h</text>
</a>
</g>
</g>
<!-- Node26&#45;&gt;Node27 -->
<g id="edge66_Node000026_Node000027" class="edge">
<title>Node26&#45;&gt;Node27</title>
<g id="a_edge66_Node000026_Node000027"><a xlink:title=" ">
<path fill="none" stroke="#63b8ff" d="M1071.56,-395.91C1106.77,-390.38 1154.83,-379.03 1191.25,-356 1257.43,-314.15 1309.97,-234.18 1331.58,-197.82"/>
<polygon fill="#63b8ff" stroke="#63b8ff" points="1335.05,-199.82 1337.06,-189.41 1329,-196.29 1335.05,-199.82"/>
</a>
</g>
</g>
<!-- Node28 -->
<g id="Node000028" class="node">
<title>Node28</title>
<g id="a_Node000028"><a xlink:title=" ">
<polygon fill="#e0e0e0" stroke="#999999" points="1014.13,-356 976.38,-356 976.38,-336 1014.13,-336 1014.13,-356"/>
<text text-anchor="middle" x="995.25" y="-342.5" font-family="Helvetica,sans-Serif" font-size="10.00">SD.h</text>
</a>
</g>
</g>
<!-- Node26&#45;&gt;Node28 -->
<g id="edge72_Node000026_Node000028" class="edge">
<title>Node26&#45;&gt;Node28</title>
<g id="a_edge72_Node000026_Node000028"><a xlink:title=" ">
<path fill="none" stroke="#63b8ff" d="M1019.2,-391.59C1015.37,-384.47 1009.99,-374.45 1005.3,-365.72"/>
<polygon fill="#63b8ff" stroke="#63b8ff" points="1008.06,-364.45 1000.24,-357.3 1001.89,-367.76 1008.06,-364.45"/>
</a>
</g>
</g>
<!-- Node29 -->
<g id="Node000029" class="node">
<title>Node29</title>
<g id="a_Node000029"><a xlink:title=" ">
<polygon fill="#e0e0e0" stroke="#999999" points="1072.25,-356 1032.25,-356 1032.25,-336 1072.25,-336 1072.25,-356"/>
<text text-anchor="middle" x="1052.25" y="-342.5" font-family="Helvetica,sans-Serif" font-size="10.00">SPI.h</text>
</a>
</g>
</g>
<!-- Node26&#45;&gt;Node29 -->
<g id="edge73_Node000026_Node000029" class="edge">
<title>Node26&#45;&gt;Node29</title>
<g id="a_edge73_Node000026_Node000029"><a xlink:title=" ">
<path fill="none" stroke="#63b8ff" d="M1029.13,-391.59C1032.78,-384.55 1037.9,-374.67 1042.4,-366"/>
<polygon fill="#63b8ff" stroke="#63b8ff" points="1045.93,-367.79 1047.43,-357.3 1039.72,-364.56 1045.93,-367.79"/>
</a>
</g>
</g>
<!-- Node30 -->
<g id="Node000030" class="node">
<title>Node30</title>
<g id="a_Node000030"><a xlink:title=" ">
<polygon fill="#e0e0e0" stroke="#999999" points="1124.63,-356 1089.88,-356 1089.88,-336 1124.63,-336 1124.63,-356"/>
<text text-anchor="middle" x="1107.25" y="-342.5" font-family="Helvetica,sans-Serif" font-size="10.00">map</text>
</a>
</g>
</g>
<!-- Node26&#45;&gt;Node30 -->
<g id="edge74_Node000026_Node000030" class="edge">
<title>Node26&#45;&gt;Node30</title>
<g id="a_edge74_Node000026_Node000030"><a xlink:title=" ">
<path fill="none" stroke="#63b8ff" d="M1038.71,-391.59C1051.13,-383.51 1069.27,-371.71 1083.77,-362.27"/>
<polygon fill="#63b8ff" stroke="#63b8ff" points="1085.21,-364.87 1091.68,-356.48 1081.39,-359 1085.21,-364.87"/>
</a>
</g>
</g>
<!-- Node31 -->
<g id="Node000031" class="node">
<title>Node31</title>
<g id="a_Node000031"><a xlink:title=" ">
<polygon fill="#e0e0e0" stroke="#999999" points="1182.25,-356 1142.25,-356 1142.25,-336 1182.25,-336 1182.25,-356"/>
<text text-anchor="middle" x="1162.25" y="-342.5" font-family="Helvetica,sans-Serif" font-size="10.00">string</text>
</a>
</g>
</g>
<!-- Node26&#45;&gt;Node31 -->
<g id="edge75_Node000026_Node000031" class="edge">
<title>Node26&#45;&gt;Node31</title>
<g id="a_edge75_Node000026_Node000031"><a xlink:title=" ">
<path fill="none" stroke="#63b8ff" d="M1048.29,-391.59C1071.53,-382.5 1106.83,-368.68 1131.98,-358.84"/>
<polygon fill="#63b8ff" stroke="#63b8ff" points="1133.04,-361.8 1141.07,-354.9 1130.48,-355.28 1133.04,-361.8"/>
</a>
</g>
</g>
<!-- Node27&#45;&gt;Node6 -->
<g id="edge68_Node000027_Node000006" class="edge">
<title>Node27&#45;&gt;Node6</title>
<g id="a_edge68_Node000027_Node000006"><a xlink:title=" ">
<path fill="none" stroke="#63b8ff" d="M1344.69,-167.69C1347.74,-153.71 1351.02,-127.32 1337.25,-112 1288.7,-58.01 769.02,-22.47 619.99,-13.33"/>
<polygon fill="#63b8ff" stroke="#63b8ff" points="620.3,-9.78 610.11,-12.67 619.88,-16.77 620.3,-9.78"/>
</a>
</g>
</g>
<!-- Node27&#45;&gt;Node12 -->
<g id="edge69_Node000027_Node000012" class="edge">
<title>Node27&#45;&gt;Node12</title>
<g id="a_edge69_Node000027_Node000012"><a xlink:title=" ">
<path fill="none" stroke="#63b8ff" d="M1341.41,-167.75C1339.57,-153.35 1333.83,-125.82 1316.25,-112 1273.37,-78.3 1109.27,-69.82 1036.43,-67.7"/>
<polygon fill="#63b8ff" stroke="#63b8ff" points="1036.64,-64.17 1026.56,-67.41 1036.46,-71.17 1036.64,-64.17"/>
</a>
</g>
</g>
<!-- Node27&#45;&gt;Node14 -->
<g id="edge67_Node000027_Node000014" class="edge">
<title>Node27&#45;&gt;Node14</title>
<g id="a_edge67_Node000027_Node000014"><a xlink:title=" ">
<path fill="none" stroke="#63b8ff" d="M1313.5,-170.16C1273.6,-160.67 1201.24,-143.46 1155.85,-132.66"/>
<polygon fill="#63b8ff" stroke="#63b8ff" points="1156.75,-129.04 1146.21,-130.13 1155.13,-135.85 1156.75,-129.04"/>
</a>
</g>
</g>
<!-- Node27&#45;&gt;Node21 -->
<g id="edge71_Node000027_Node000021" class="edge">
<title>Node27&#45;&gt;Node21</title>
<g id="a_edge71_Node000027_Node000021"><a xlink:title=" ">
<path fill="none" stroke="#63b8ff" d="M1332.5,-167.59C1324.55,-159.93 1313.12,-148.91 1303.62,-139.75"/>
<polygon fill="#63b8ff" stroke="#63b8ff" points="1306.52,-137.72 1296.89,-133.3 1301.66,-142.76 1306.52,-137.72"/>
</a>
</g>
</g>
<!-- Node27&#45;&gt;Node23 -->
<g id="edge70_Node000027_Node000023" class="edge">
<title>Node27&#45;&gt;Node23</title>
<g id="a_edge70_Node000027_Node000023"><a xlink:title=" ">
<path fill="none" stroke="#63b8ff" d="M1357.23,-167.59C1370.1,-159.51 1388.9,-147.71 1403.92,-138.27"/>
<polygon fill="#63b8ff" stroke="#63b8ff" points="1405.55,-140.76 1412.15,-132.48 1401.82,-134.83 1405.55,-140.76"/>
</a>
</g>
</g>
<!-- Node32&#45;&gt;Node6 -->
<g id="edge78_Node000032_Node000006" class="edge">
<title>Node32&#45;&gt;Node6</title>
<g id="a_edge78_Node000032_Node000006"><a xlink:title=" ">
<path fill="none" stroke="#63b8ff" d="M377.32,-279.62C358.1,-262.01 320.25,-221.88 320.25,-179 320.25,-179 320.25,-179 320.25,-121 320.25,-26.48 467.8,-11.94 540.59,-10.52"/>
<polygon fill="#63b8ff" stroke="#63b8ff" points="540.22,-14.02 550.18,-10.4 540.14,-7.02 540.22,-14.02"/>
</a>
</g>
</g>
</g>
</svg>
