<?xml version="1.0" encoding="UTF-8" standalone="no"?>
<!DOCTYPE svg PUBLIC "-//W3C//DTD SVG 1.1//EN"
 "http://www.w3.org/Graphics/SVG/1.1/DTD/svg11.dtd">
<!-- Generated by graphviz version 8.1.0 (20230707.0739)
 -->
<!-- Title: JointData.h Pages: 1 -->
<!--zoomable 420 -->

<svg id="main" version="1.1" xmlns="http://www.w3.org/2000/svg" xmlns:xlink="http://www.w3.org/1999/xlink" xml:space="preserve" onload="init(evt)">
<style type="text/css"><![CDATA[
.node, .edge {opacity: 0.7;}
.node.selected, .edge.selected {opacity: 1;}
.edge:hover path { stroke: red; }
.edge:hover polygon { stroke: red; fill: red; }
]]></style>

<defs>
  <circle id="rim" cx="0" cy="0" r="7"/>
  <circle id="rim2" cx="0" cy="0" r="3.5"/>
  <g id="zoomPlus">
    <use xlink:href="#rim" fill="#404040"><set attributeName="fill" to="#808080" begin="zoomplus.mouseover" end="zoomplus.mouseout"/></use>
    <path d="M-4,0h8M0,-4v8" fill="none" stroke="white" stroke-width="1.5" pointer-events="none"/>
  </g>
  <g id="zoomMin">
    <use xlink:href="#rim" fill="#404040"><set attributeName="fill" to="#808080" begin="zoomminus.mouseover" end="zoomminus.mouseout"/></use>
    <path d="M-4,0h8" fill="none" stroke="white" stroke-width="1.5" pointer-events="none"/>
  </g>
  <g id="arrowUp" transform="translate(30 24)">
    <use xlink:href="#rim"/>
    <path pointer-events="none" fill="none" stroke="white" stroke-width="1.5" d="M0,-3.0v7 M-2.5,-0.5L0,-3.0L2.5,-0.5"/>
  </g>
  <g id="arrowRight" transform="rotate(90) translate(36 -43)">
    <use xlink:href="#rim"/>
    <path pointer-events="none" fill="none" stroke="white" stroke-width="1.5" d="M0,-3.0v7 M-2.5,-0.5L0,-3.0L2.5,-0.5"/>
  </g>
  <g id="arrowDown" transform="rotate(180) translate(-30 -48)">
    <use xlink:href="#rim"/>
    <path pointer-events="none" fill="none" stroke="white" stroke-width="1.5" d="M0,-3.0v7 M-2.5,-0.5L0,-3.0L2.5,-0.5"/>
  </g>
  <g id="arrowLeft" transform="rotate(270) translate(-36 17)">
    <use xlink:href="#rim"/>
    <path pointer-events="none" fill="none" stroke="white" stroke-width="1.5" d="M0,-3.0v7 M-2.5,-0.5L0,-3.0L2.5,-0.5"/>
  </g>
  <g id="resetDef">
    <use xlink:href="#rim2" fill="#404040"><set attributeName="fill" to="#808080" begin="reset.mouseover" end="reset.mouseout"/></use>
  </g>
</defs>
<script type="application/ecmascript">
var viewWidth = 539;
var viewHeight = 420;
var sectionId = 'dynsection-1';
</script>
<script type="application/ecmascript" xlink:href="svg.min.js"/>
<svg id="graph" class="graph">
<g id="viewport">
<title>JointData.h</title>
<!-- Node1 -->
<g id="Node000001" class="node">
<title>Node1</title>
<g id="a_Node000001"><a xlink:title="Declares a class used to store data for joint to access.">
<polygon fill="#999999" stroke="#666666" points="138.88,-412 74.13,-412 74.13,-392 138.88,-392 138.88,-412"/>
<text text-anchor="middle" x="106.5" y="-398.5" font-family="Helvetica,sans-Serif" font-size="10.00">JointData.h</text>
</a>
</g>
</g>
<!-- Node2 -->
<g id="Node000002" class="node">
<title>Node2</title>
<g id="a_Node000002"><a xlink:href="_joint_data_8cpp.html" target="_top" xlink:title=" ">
<polygon fill="white" stroke="#666666" points="78.13,-356 2.88,-356 2.88,-336 78.13,-336 78.13,-356"/>
<text text-anchor="middle" x="40.5" y="-342.5" font-family="Helvetica,sans-Serif" font-size="10.00">JointData.cpp</text>
</a>
</g>
</g>
<!-- Node1&#45;&gt;Node2 -->
<g id="edge1_Node000001_Node000002" class="edge">
<title>Node1&#45;&gt;Node2</title>
<g id="a_edge1_Node000001_Node000002"><a xlink:title=" ">
<path fill="none" stroke="#63b8ff" d="M86.55,-384.68C75.2,-375.39 61.38,-364.09 51.86,-356.3"/>
<polygon fill="#63b8ff" stroke="#63b8ff" points="84.05,-387.97 94,-391.59 88.48,-382.55 84.05,-387.97"/>
</a>
</g>
</g>
<!-- Node3 -->
<g id="Node000003" class="node">
<title>Node3</title>
<g id="a_Node000003"><a xlink:href="_leg_data_8h.html" target="_top" xlink:title="Declares a class used to store data for leg to access.">
<polygon fill="white" stroke="#666666" points="222.63,-356 162.38,-356 162.38,-336 222.63,-336 222.63,-356"/>
<text text-anchor="middle" x="192.5" y="-342.5" font-family="Helvetica,sans-Serif" font-size="10.00">LegData.h</text>
</a>
</g>
</g>
<!-- Node1&#45;&gt;Node3 -->
<g id="edge2_Node000001_Node000003" class="edge">
<title>Node1&#45;&gt;Node3</title>
<g id="a_edge2_Node000001_Node000003"><a xlink:title=" ">
<path fill="none" stroke="#63b8ff" d="M130.69,-385.81C145.69,-376.39 164.5,-364.58 177.4,-356.48"/>
<polygon fill="#63b8ff" stroke="#63b8ff" points="129.09,-383.31 122.48,-391.59 132.81,-389.24 129.09,-383.31"/>
</a>
</g>
</g>
<!-- Node13 -->
<g id="Node000013" class="node">
<title>Node13</title>
<g id="a_Node000013"><a xlink:href="uart__commands_8h.html" target="_top" xlink:title=" ">
<polygon fill="white" stroke="#666666" points="153.5,-188 59.5,-188 59.5,-168 153.5,-168 153.5,-188"/>
<text text-anchor="middle" x="106.5" y="-174.5" font-family="Helvetica,sans-Serif" font-size="10.00">uart_commands.h</text>
</a>
</g>
</g>
<!-- Node1&#45;&gt;Node13 -->
<g id="edge25_Node000001_Node000013" class="edge">
<title>Node1&#45;&gt;Node13</title>
<g id="a_edge25_Node000001_Node000013"><a xlink:title=" ">
<path fill="none" stroke="#63b8ff" d="M106.5,-380.75C106.5,-334.28 106.5,-221.43 106.5,-188.3"/>
<polygon fill="#63b8ff" stroke="#63b8ff" points="103,-380.74 106.5,-390.74 110,-380.74 103,-380.74"/>
</a>
</g>
</g>
<!-- Node4 -->
<g id="Node000004" class="node">
<title>Node4</title>
<g id="a_Node000004"><a xlink:href="_exo_data_8h.html" target="_top" xlink:title="Declares a class used to store data for the Exo to access.">
<polygon fill="white" stroke="#666666" points="330.38,-300 268.63,-300 268.63,-280 330.38,-280 330.38,-300"/>
<text text-anchor="middle" x="299.5" y="-286.5" font-family="Helvetica,sans-Serif" font-size="10.00">ExoData.h</text>
</a>
</g>
</g>
<!-- Node3&#45;&gt;Node4 -->
<g id="edge3_Node000003_Node000004" class="edge">
<title>Node3&#45;&gt;Node4</title>
<g id="a_edge3_Node000003_Node000004"><a xlink:title=" ">
<path fill="none" stroke="#63b8ff" d="M220.75,-330.75C239.69,-321.18 264.12,-308.85 280.72,-300.48"/>
<polygon fill="#63b8ff" stroke="#63b8ff" points="219.49,-327.96 212.14,-335.59 222.64,-334.21 219.49,-327.96"/>
</a>
</g>
</g>
<!-- Node19 -->
<g id="Node000019" class="node">
<title>Node19</title>
<g id="a_Node000019"><a xlink:href="_leg_data_8cpp.html" target="_top" xlink:title=" ">
<polygon fill="white" stroke="#666666" points="227.88,-300 157.13,-300 157.13,-280 227.88,-280 227.88,-300"/>
<text text-anchor="middle" x="192.5" y="-286.5" font-family="Helvetica,sans-Serif" font-size="10.00">LegData.cpp</text>
</a>
</g>
</g>
<!-- Node3&#45;&gt;Node19 -->
<g id="edge24_Node000003_Node000019" class="edge">
<title>Node3&#45;&gt;Node19</title>
<g id="a_edge24_Node000003_Node000019"><a xlink:title=" ">
<path fill="none" stroke="#63b8ff" d="M192.5,-324.71C192.5,-316.32 192.5,-307.01 192.5,-300.3"/>
<polygon fill="#63b8ff" stroke="#63b8ff" points="189,-324.59 192.5,-334.59 196,-324.59 189,-324.59"/>
</a>
</g>
</g>
<!-- Node5 -->
<g id="Node000005" class="node">
<title>Node5</title>
<g id="a_Node000005"><a xlink:href="_coms_m_c_u_8h.html" target="_top" xlink:title="The top of the composite structure for the communication microcontroller. This class manages the blue...">
<polygon fill="white" stroke="#666666" points="531.25,-244 459.75,-244 459.75,-224 531.25,-224 531.25,-244"/>
<text text-anchor="middle" x="495.5" y="-230.5" font-family="Helvetica,sans-Serif" font-size="10.00">ComsMCU.h</text>
</a>
</g>
</g>
<!-- Node4&#45;&gt;Node5 -->
<g id="edge4_Node000004_Node000005" class="edge">
<title>Node4&#45;&gt;Node5</title>
<g id="a_edge4_Node000004_Node000005"><a xlink:title=" ">
<path fill="none" stroke="#63b8ff" d="M341.13,-277.53C376.91,-267.67 427.86,-253.64 461.29,-244.42"/>
<polygon fill="#63b8ff" stroke="#63b8ff" points="340.27,-274.41 331.56,-280.44 342.13,-281.16 340.27,-274.41"/>
</a>
</g>
</g>
<!-- Node7 -->
<g id="Node000007" class="node">
<title>Node7</title>
<g id="a_Node000007"><a xlink:href="_exo_data_8cpp.html" target="_top" xlink:title=" ">
<polygon fill="white" stroke="#666666" points="403.63,-188 331.38,-188 331.38,-168 403.63,-168 403.63,-188"/>
<text text-anchor="middle" x="367.5" y="-174.5" font-family="Helvetica,sans-Serif" font-size="10.00">ExoData.cpp</text>
</a>
</g>
</g>
<!-- Node4&#45;&gt;Node7 -->
<g id="edge6_Node000004_Node000007" class="edge">
<title>Node4&#45;&gt;Node7</title>
<g id="a_edge6_Node000004_Node000007"><a xlink:title=" ">
<path fill="none" stroke="#63b8ff" d="M326.11,-273.56C336.86,-265.99 348.38,-255.93 355.5,-244 366.09,-226.26 367.72,-201.33 367.75,-188.1"/>
<polygon fill="#63b8ff" stroke="#63b8ff" points="324.43,-271.13 317.99,-279.55 328.27,-276.98 324.43,-271.13"/>
</a>
</g>
</g>
<!-- Node8 -->
<g id="Node000008" class="node">
<title>Node8</title>
<g id="a_Node000008"><a xlink:href="_params_from_s_d_8h.html" target="_top" xlink:title="Declares the functions to pull controller parameters from the SD card and defines the mapping to the ...">
<polygon fill="white" stroke="#666666" points="346.5,-244 252.5,-244 252.5,-224 346.5,-224 346.5,-244"/>
<text text-anchor="middle" x="299.5" y="-230.5" font-family="Helvetica,sans-Serif" font-size="10.00">ParamsFromSD.h</text>
</a>
</g>
</g>
<!-- Node4&#45;&gt;Node8 -->
<g id="edge7_Node000004_Node000008" class="edge">
<title>Node4&#45;&gt;Node8</title>
<g id="a_edge7_Node000004_Node000008"><a xlink:title=" ">
<path fill="none" stroke="#63b8ff" d="M299.5,-268.71C299.5,-260.32 299.5,-251.01 299.5,-244.3"/>
<polygon fill="#63b8ff" stroke="#63b8ff" points="296,-268.59 299.5,-278.59 303,-268.59 296,-268.59"/>
</a>
</g>
</g>
<!-- Node10 -->
<g id="Node000010" class="node">
<title>Node10</title>
<g id="a_Node000010"><a xlink:href="ble__commands_8h.html" target="_top" xlink:title="This file declares the BLE commands, and the functions that should be called when they are received.">
<polygon fill="white" stroke="#666666" points="348.63,-132 258.38,-132 258.38,-112 348.63,-112 348.63,-132"/>
<text text-anchor="middle" x="303.5" y="-118.5" font-family="Helvetica,sans-Serif" font-size="10.00">ble_commands.h</text>
</a>
</g>
</g>
<!-- Node4&#45;&gt;Node10 -->
<g id="edge22_Node000004_Node000010" class="edge">
<title>Node4&#45;&gt;Node10</title>
<g id="a_edge22_Node000004_Node000010"><a xlink:title=" ">
<path fill="none" stroke="#63b8ff" d="M329.81,-274.72C344.35,-266.95 361.41,-256.38 374.5,-244 396.35,-223.33 403.67,-216.75 412.5,-188 415.11,-179.5 417.44,-175.39 412.5,-168 398.33,-146.82 372.16,-135.59 349.02,-129.65"/>
<polygon fill="#63b8ff" stroke="#63b8ff" points="328.51,-271.97 321.22,-279.65 331.71,-278.19 328.51,-271.97"/>
</a>
</g>
</g>
<!-- Node4&#45;&gt;Node13 -->
<g id="edge23_Node000004_Node000013" class="edge">
<title>Node4&#45;&gt;Node13</title>
<g id="a_edge23_Node000004_Node000013"><a xlink:title=" ">
<path fill="none" stroke="#63b8ff" d="M257.89,-281.26C229.57,-274.61 192.18,-263 163.5,-244 140.73,-228.91 121.53,-202.42 112.33,-188.37"/>
<polygon fill="#63b8ff" stroke="#63b8ff" points="256.74,-284.81 267.26,-283.58 258.26,-277.98 256.74,-284.81"/>
</a>
</g>
</g>
<!-- Node18 -->
<g id="Node000018" class="node">
<title>Node18</title>
<g id="a_Node000018"><a xlink:href="_pi_logger_8h.html" target="_top" xlink:title=" ">
<polygon fill="white" stroke="#666666" points="234.75,-244 172.25,-244 172.25,-224 234.75,-224 234.75,-244"/>
<text text-anchor="middle" x="203.5" y="-230.5" font-family="Helvetica,sans-Serif" font-size="10.00">PiLogger.h</text>
</a>
</g>
</g>
<!-- Node4&#45;&gt;Node18 -->
<g id="edge21_Node000004_Node000018" class="edge">
<title>Node4&#45;&gt;Node18</title>
<g id="a_edge21_Node000004_Node000018"><a xlink:title=" ">
<path fill="none" stroke="#63b8ff" d="M273.45,-274.35C256.55,-264.84 235.03,-252.74 220.35,-244.48"/>
<polygon fill="#63b8ff" stroke="#63b8ff" points="271.35,-277.74 281.78,-279.59 274.78,-271.64 271.35,-277.74"/>
</a>
</g>
</g>
<!-- Node6 -->
<g id="Node000006" class="node">
<title>Node6</title>
<g id="a_Node000006"><a xlink:href="_coms_m_c_u_8cpp.html" target="_top" xlink:title=" ">
<polygon fill="white" stroke="#666666" points="479.5,-132 397.5,-132 397.5,-112 479.5,-112 479.5,-132"/>
<text text-anchor="middle" x="438.5" y="-118.5" font-family="Helvetica,sans-Serif" font-size="10.00">ComsMCU.cpp</text>
</a>
</g>
</g>
<!-- Node5&#45;&gt;Node6 -->
<g id="edge5_Node000005_Node000006" class="edge">
<title>Node5&#45;&gt;Node6</title>
<g id="a_edge5_Node000005_Node000006"><a xlink:title=" ">
<path fill="none" stroke="#63b8ff" d="M485.63,-213.95C473.29,-190.14 452.68,-150.36 443.35,-132.35"/>
<polygon fill="#63b8ff" stroke="#63b8ff" points="482.93,-215.35 490.64,-222.62 489.15,-212.13 482.93,-215.35"/>
</a>
</g>
</g>
<!-- Node8&#45;&gt;Node7 -->
<g id="edge8_Node000008_Node000007" class="edge">
<title>Node8&#45;&gt;Node7</title>
<g id="a_edge8_Node000008_Node000007"><a xlink:title=" ">
<path fill="none" stroke="#63b8ff" d="M319.7,-216.95C331.47,-207.61 345.89,-196.16 355.79,-188.3"/>
<polygon fill="#63b8ff" stroke="#63b8ff" points="318,-214.63 312.34,-223.59 322.35,-220.12 318,-214.63"/>
</a>
</g>
</g>
<!-- Node9 -->
<g id="Node000009" class="node">
<title>Node9</title>
<g id="a_Node000009"><a xlink:href="_params_from_s_d_8cpp.html" target="_top" xlink:title=" ">
<polygon fill="white" stroke="#666666" points="275.75,-188 171.25,-188 171.25,-168 275.75,-168 275.75,-188"/>
<text text-anchor="middle" x="223.5" y="-174.5" font-family="Helvetica,sans-Serif" font-size="10.00">ParamsFromSD.cpp</text>
</a>
</g>
</g>
<!-- Node8&#45;&gt;Node9 -->
<g id="edge9_Node000008_Node000009" class="edge">
<title>Node8&#45;&gt;Node9</title>
<g id="a_edge9_Node000008_Node000009"><a xlink:title=" ">
<path fill="none" stroke="#63b8ff" d="M277.36,-217.27C264.23,-207.94 248.03,-196.43 236.84,-188.48"/>
<polygon fill="#63b8ff" stroke="#63b8ff" points="275.08,-220.65 285.26,-223.59 279.14,-214.95 275.08,-220.65"/>
</a>
</g>
</g>
<!-- Node8&#45;&gt;Node10 -->
<g id="edge10_Node000008_Node000010" class="edge">
<title>Node8&#45;&gt;Node10</title>
<g id="a_edge10_Node000008_Node000010"><a xlink:title=" ">
<path fill="none" stroke="#63b8ff" d="M300.24,-212.64C301.11,-188.72 302.52,-150.03 303.16,-132.35"/>
<polygon fill="#63b8ff" stroke="#63b8ff" points="296.71,-212.5 299.84,-222.62 303.7,-212.76 296.71,-212.5"/>
</a>
</g>
</g>
<!-- Node8&#45;&gt;Node13 -->
<g id="edge14_Node000008_Node000013" class="edge">
<title>Node8&#45;&gt;Node13</title>
<g id="a_edge14_Node000008_Node000013"><a xlink:title=" ">
<path fill="none" stroke="#63b8ff" d="M255.49,-220.69C220.54,-210.91 172.38,-197.43 140.38,-188.48"/>
<polygon fill="#63b8ff" stroke="#63b8ff" points="254.31,-224.27 264.88,-223.59 256.19,-217.53 254.31,-224.27"/>
</a>
</g>
</g>
<!-- Node11 -->
<g id="Node000011" class="node">
<title>Node11</title>
<g id="a_Node000011"><a xlink:href="_ble_parser_8cpp.html" target="_top" xlink:title=" ">
<polygon fill="white" stroke="#666666" points="342.25,-20 264.75,-20 264.75,0 342.25,0 342.25,-20"/>
<text text-anchor="middle" x="303.5" y="-6.5" font-family="Helvetica,sans-Serif" font-size="10.00">BleParser.cpp</text>
</a>
</g>
</g>
<!-- Node10&#45;&gt;Node11 -->
<g id="edge11_Node000010_Node000011" class="edge">
<title>Node10&#45;&gt;Node11</title>
<g id="a_edge11_Node000010_Node000011"><a xlink:title=" ">
<path fill="none" stroke="#63b8ff" d="M297.13,-101.54C294.87,-93.7 292.62,-84.51 291.5,-76 288.88,-55.97 295.53,-32.76 299.95,-20.21"/>
<polygon fill="#63b8ff" stroke="#63b8ff" points="294.01,-102.31 300.3,-110.83 300.7,-100.25 294.01,-102.31"/>
</a>
</g>
</g>
<!-- Node12 -->
<g id="Node000012" class="node">
<title>Node12</title>
<g id="a_Node000012"><a xlink:href="_ble_parser_8h.html" target="_top" xlink:title="This class is used to serialize and deserialize the BLE data. The application uses Nordic&#39;s UART serv...">
<polygon fill="white" stroke="#666666" points="368,-76 301,-76 301,-56 368,-56 368,-76"/>
<text text-anchor="middle" x="334.5" y="-62.5" font-family="Helvetica,sans-Serif" font-size="10.00">BleParser.h</text>
</a>
</g>
</g>
<!-- Node10&#45;&gt;Node12 -->
<g id="edge12_Node000010_Node000012" class="edge">
<title>Node10&#45;&gt;Node12</title>
<g id="a_edge12_Node000010_Node000012"><a xlink:title=" ">
<path fill="none" stroke="#63b8ff" d="M314.32,-102.15C319.34,-93.4 325.09,-83.39 329.16,-76.3"/>
<polygon fill="#63b8ff" stroke="#63b8ff" points="310.84,-100.18 308.9,-110.59 316.91,-103.66 310.84,-100.18"/>
</a>
</g>
</g>
<!-- Node12&#45;&gt;Node11 -->
<g id="edge13_Node000012_Node000011" class="edge">
<title>Node12&#45;&gt;Node11</title>
<g id="a_edge13_Node000012_Node000011"><a xlink:title=" ">
<path fill="none" stroke="#63b8ff" d="M323.68,-46.15C318.66,-37.4 312.91,-27.39 308.84,-20.3"/>
<polygon fill="#63b8ff" stroke="#63b8ff" points="321.09,-47.66 329.1,-54.59 327.16,-44.18 321.09,-47.66"/>
</a>
</g>
</g>
<!-- Node13&#45;&gt;Node6 -->
<g id="edge15_Node000013_Node000006" class="edge">
<title>Node13&#45;&gt;Node6</title>
<g id="a_edge15_Node000013_Node000006"><a xlink:title=" ">
<path fill="none" stroke="#63b8ff" d="M164.44,-167.58C231.01,-156.75 338.59,-139.25 397.2,-129.72"/>
<polygon fill="#63b8ff" stroke="#63b8ff" points="164.02,-164.26 154.71,-169.32 165.15,-171.17 164.02,-164.26"/>
</a>
</g>
</g>
<!-- Node13&#45;&gt;Node10 -->
<g id="edge20_Node000013_Node000010" class="edge">
<title>Node13&#45;&gt;Node10</title>
<g id="a_edge20_Node000013_Node000010"><a xlink:title=" ">
<path fill="none" stroke="#63b8ff" d="M151.42,-164.69C187.1,-154.91 236.26,-141.43 268.92,-132.48"/>
<polygon fill="#63b8ff" stroke="#63b8ff" points="150.53,-161.57 141.81,-167.59 152.38,-168.33 150.53,-161.57"/>
</a>
</g>
</g>
<!-- Node14 -->
<g id="Node000014" class="node">
<title>Node14</title>
<g id="a_Node000014"><a xlink:href="_error_reporter_8h.html" target="_top" xlink:title="Singleton class to report errors to the other microcontroller.">
<polygon fill="white" stroke="#666666" points="105.5,-132 23.5,-132 23.5,-112 105.5,-112 105.5,-132"/>
<text text-anchor="middle" x="64.5" y="-118.5" font-family="Helvetica,sans-Serif" font-size="10.00">ErrorReporter.h</text>
</a>
</g>
</g>
<!-- Node13&#45;&gt;Node14 -->
<g id="edge16_Node000013_Node000014" class="edge">
<title>Node13&#45;&gt;Node14</title>
<g id="a_edge16_Node000013_Node000014"><a xlink:title=" ">
<path fill="none" stroke="#63b8ff" d="M92.5,-159C85.55,-150.06 77.43,-139.62 71.73,-132.3"/>
<polygon fill="#63b8ff" stroke="#63b8ff" points="90.28,-160.85 99.18,-166.59 95.81,-156.55 90.28,-160.85"/>
</a>
</g>
</g>
<!-- Node17 -->
<g id="Node000017" class="node">
<title>Node17</title>
<g id="a_Node000017"><a xlink:href="_exo_8cpp.html" target="_top" xlink:title=" ">
<polygon fill="white" stroke="#666666" points="175.5,-132 123.5,-132 123.5,-112 175.5,-112 175.5,-132"/>
<text text-anchor="middle" x="149.5" y="-118.5" font-family="Helvetica,sans-Serif" font-size="10.00">Exo.cpp</text>
</a>
</g>
</g>
<!-- Node13&#45;&gt;Node17 -->
<g id="edge19_Node000013_Node000017" class="edge">
<title>Node13&#45;&gt;Node17</title>
<g id="a_edge19_Node000013_Node000017"><a xlink:title=" ">
<path fill="none" stroke="#63b8ff" d="M120.83,-159C127.95,-150.06 136.26,-139.62 142.1,-132.3"/>
<polygon fill="#63b8ff" stroke="#63b8ff" points="117.48,-156.59 113.99,-166.59 122.96,-160.95 117.48,-156.59"/>
</a>
</g>
</g>
<!-- Node15 -->
<g id="Node000015" class="node">
<title>Node15</title>
<g id="a_Node000015"><a xlink:href="_joint_8cpp.html" target="_top" xlink:title=" ">
<polygon fill="white" stroke="#666666" points="55,-76 0,-76 0,-56 55,-56 55,-76"/>
<text text-anchor="middle" x="27.5" y="-62.5" font-family="Helvetica,sans-Serif" font-size="10.00">Joint.cpp</text>
</a>
</g>
</g>
<!-- Node14&#45;&gt;Node15 -->
<g id="edge17_Node000014_Node000015" class="edge">
<title>Node14&#45;&gt;Node15</title>
<g id="a_edge17_Node000014_Node000015"><a xlink:title=" ">
<path fill="none" stroke="#63b8ff" d="M51.98,-102.72C45.89,-93.84 38.84,-83.55 33.87,-76.3"/>
<polygon fill="#63b8ff" stroke="#63b8ff" points="49.52,-104.32 58.06,-110.59 55.29,-100.37 49.52,-104.32"/>
</a>
</g>
</g>
<!-- Node16 -->
<g id="Node000016" class="node">
<title>Node16</title>
<g id="a_Node000016"><a xlink:href="_motor_8cpp.html" target="_top" xlink:title=" ">
<polygon fill="white" stroke="#666666" points="132.25,-76 72.75,-76 72.75,-56 132.25,-56 132.25,-76"/>
<text text-anchor="middle" x="102.5" y="-62.5" font-family="Helvetica,sans-Serif" font-size="10.00">Motor.cpp</text>
</a>
</g>
</g>
<!-- Node14&#45;&gt;Node16 -->
<g id="edge18_Node000014_Node000016" class="edge">
<title>Node14&#45;&gt;Node16</title>
<g id="a_edge18_Node000014_Node000016"><a xlink:title=" ">
<path fill="none" stroke="#63b8ff" d="M77.36,-102.72C83.61,-93.84 90.86,-83.55 95.96,-76.3"/>
<polygon fill="#63b8ff" stroke="#63b8ff" points="74.01,-100.4 71.12,-110.59 79.74,-104.43 74.01,-100.4"/>
</a>
</g>
</g>
</g>
</svg>

<g id="navigator" transform="translate(0 0)" fill="#404254">
  <rect fill="#f2f5e9" fill-opacity="0.5" stroke="#606060" stroke-width=".5" x="0" y="0" width="60" height="60"/>
  <use id="zoomplus" xlink:href="#zoomPlus" x="17" y="9" onmousedown="handleZoom(evt,'in')"/>
  <use id="zoomminus" xlink:href="#zoomMin" x="42" y="9" onmousedown="handleZoom(evt,'out')"/>
  <use id="reset" xlink:href="#resetDef" x="30" y="36" onmousedown="handleReset()"/>
   <use id="arrowup" xlink:href="#arrowUp" x="0" y="0" onmousedown="handlePan(0,-1)"/>
  <use id="arrowright" xlink:href="#arrowRight" x="0" y="0" onmousedown="handlePan(1,0)"/>
  <use id="arrowdown" xlink:href="#arrowDown" x="0" y="0" onmousedown="handlePan(0,1)"/>
  <use id="arrowleft" xlink:href="#arrowLeft" x="0" y="0" onmousedown="handlePan(-1,0)"/>
</g>
<svg viewBox="0 0 15 15" width="100%" height="30px" preserveAspectRatio="xMaxYMin meet">
 <g id="arrow_out" transform="scale(0.3 0.3)">
  <a xlink:href="_joint_data_8h__dep__incl_org.svg" target="_base">
   <rect id="button" ry="5" rx="5" y="6" x="6" height="38" width="38"
        fill="#f2f5e9" fill-opacity="0.5" stroke="#606060" stroke-width="1.0"/>
   <path id="arrow"
     d="M 11.500037,31.436501 C 11.940474,20.09759 22.043105,11.32322 32.158766,21.979434 L 37.068811,17.246167 C 37.068811,17.246167 37.088388,32 37.088388,32 L 22.160133,31.978069 C 22.160133,31.978069 26.997745,27.140456 26.997745,27.140456 C 18.528582,18.264221 13.291696,25.230495 11.500037,31.436501 z"
     style="fill:#404040;"/>
  </a>
 </g>
</svg>

<style type='text/css'>
<![CDATA[
[data-mouse-over-selected='false'] { opacity: 0.7; }
[data-mouse-over-selected='true']  { opacity: 1.0; }
]]>
</style>
<script type="application/ecmascript"><![CDATA[
document.addEventListener('DOMContentLoaded', (event) => {
  highlightEdges();
  highlightAdjacentNodes();
});
]]></script>
</svg>
