<?xml version="1.0" encoding="UTF-8" standalone="no"?>
<!DOCTYPE svg PUBLIC "-//W3C//DTD SVG 1.1//EN"
 "http://www.w3.org/Graphics/SVG/1.1/DTD/svg11.dtd">
<!-- Generated by graphviz version 8.1.0 (20230707.0739)
 -->
<!-- Title: JointData.cpp Pages: 1 -->
<svg width="396pt" height="308pt"
 viewBox="0.00 0.00 396.27 308.00" xmlns="http://www.w3.org/2000/svg" xmlns:xlink="http://www.w3.org/1999/xlink">
<g id="graph0" class="graph" transform="scale(1 1) rotate(0) translate(4 304)">
<title>JointData.cpp</title>
<!-- Node1 -->
<g id="Node000001" class="node">
<title>Node1</title>
<g id="a_Node000001"><a xlink:title=" ">
<polygon fill="#999999" stroke="#666666" points="270.15,-300 194.9,-300 194.9,-280 270.15,-280 270.15,-300"/>
<text text-anchor="middle" x="232.52" y="-286.5" font-family="Helvetica,sans-Serif" font-size="10.00">JointData.cpp</text>
</a>
</g>
</g>
<!-- Node2 -->
<g id="Node000002" class="node">
<title>Node2</title>
<g id="a_Node000002"><a xlink:href="_joint_data_8h.html" target="_top" xlink:title="Declares a class used to store data for joint to access.">
<polygon fill="white" stroke="#666666" points="172.9,-244 108.15,-244 108.15,-224 172.9,-224 172.9,-244"/>
<text text-anchor="middle" x="140.52" y="-230.5" font-family="Helvetica,sans-Serif" font-size="10.00">JointData.h</text>
</a>
</g>
</g>
<!-- Node1&#45;&gt;Node2 -->
<g id="edge1_Node000001_Node000002" class="edge">
<title>Node1&#45;&gt;Node2</title>
<g id="a_edge1_Node000001_Node000002"><a xlink:title=" ">
<path fill="none" stroke="#63b8ff" d="M216.5,-279.59C202.6,-271.44 182.23,-259.48 166.09,-250"/>
<polygon fill="#63b8ff" stroke="#63b8ff" points="168.07,-246.52 157.67,-244.48 164.52,-252.56 168.07,-246.52"/>
</a>
</g>
</g>
<!-- Node12 -->
<g id="Node000012" class="node">
<title>Node12</title>
<g id="a_Node000012"><a xlink:href="_logger_8h.html" target="_top" xlink:title=" ">
<polygon fill="white" stroke="#666666" points="388.27,-132 334.77,-132 334.77,-112 388.27,-112 388.27,-132"/>
<text text-anchor="middle" x="361.52" y="-118.5" font-family="Helvetica,sans-Serif" font-size="10.00">Logger.h</text>
</a>
</g>
</g>
<!-- Node1&#45;&gt;Node12 -->
<g id="edge22_Node000001_Node000012" class="edge">
<title>Node1&#45;&gt;Node12</title>
<g id="a_edge22_Node000001_Node000012"><a xlink:title=" ">
<path fill="none" stroke="#63b8ff" d="M240.53,-279.71C255.62,-262.13 289.09,-222.64 315.52,-188 327.29,-172.59 339.97,-154.55 349.03,-141.4"/>
<polygon fill="#63b8ff" stroke="#63b8ff" points="352.42,-143.64 355.18,-133.41 346.64,-139.69 352.42,-143.64"/>
</a>
</g>
</g>
<!-- Node3 -->
<g id="Node000003" class="node">
<title>Node3</title>
<g id="a_Node000003"><a xlink:title=" ">
<polygon fill="#e0e0e0" stroke="#999999" points="271.15,-20 213.9,-20 213.9,0 271.15,0 271.15,-20"/>
<text text-anchor="middle" x="242.52" y="-6.5" font-family="Helvetica,sans-Serif" font-size="10.00">Arduino.h</text>
</a>
</g>
</g>
<!-- Node2&#45;&gt;Node3 -->
<g id="edge2_Node000002_Node000003" class="edge">
<title>Node2&#45;&gt;Node3</title>
<g id="a_edge2_Node000002_Node000003"><a xlink:title=" ">
<path fill="none" stroke="#63b8ff" d="M107.67,-229.2C81.84,-224.32 47.34,-213.22 29.52,-188 -4.36,-140.05 -12.56,-101.52 24.52,-56 46.6,-28.89 146.37,-17.62 202.98,-13.35"/>
<polygon fill="#63b8ff" stroke="#63b8ff" points="202.97,-16.79 212.69,-12.58 202.47,-9.8 202.97,-16.79"/>
</a>
</g>
</g>
<!-- Node4 -->
<g id="Node000004" class="node">
<title>Node4</title>
<g id="a_Node000004"><a xlink:href="_motor_data_8h.html" target="_top" xlink:title="Declares a class used to store data for motors to access.">
<polygon fill="white" stroke="#666666" points="290.15,-188 220.9,-188 220.9,-168 290.15,-168 290.15,-188"/>
<text text-anchor="middle" x="255.52" y="-174.5" font-family="Helvetica,sans-Serif" font-size="10.00">MotorData.h</text>
</a>
</g>
</g>
<!-- Node2&#45;&gt;Node4 -->
<g id="edge3_Node000002_Node000004" class="edge">
<title>Node2&#45;&gt;Node4</title>
<g id="a_edge3_Node000002_Node000004"><a xlink:title=" ">
<path fill="none" stroke="#63b8ff" d="M160.55,-223.59C178.5,-215.17 205.07,-202.69 225.55,-193.07"/>
<polygon fill="#63b8ff" stroke="#63b8ff" points="226.77,-195.9 234.33,-188.48 223.8,-189.56 226.77,-195.9"/>
</a>
</g>
</g>
<!-- Node5 -->
<g id="Node000005" class="node">
<title>Node5</title>
<g id="a_Node000005"><a xlink:href="_parse_ini_8h.html" target="_top" xlink:title="Declares the functions needed and defines mapping between the INI keys and the exo components.">
<polygon fill="white" stroke="#666666" points="116.27,-132 56.77,-132 56.77,-112 116.27,-112 116.27,-132"/>
<text text-anchor="middle" x="86.52" y="-118.5" font-family="Helvetica,sans-Serif" font-size="10.00">ParseIni.h</text>
</a>
</g>
</g>
<!-- Node2&#45;&gt;Node5 -->
<g id="edge18_Node000002_Node000005" class="edge">
<title>Node2&#45;&gt;Node5</title>
<g id="a_edge18_Node000002_Node000005"><a xlink:title=" ">
<path fill="none" stroke="#63b8ff" d="M107.84,-226.5C86.67,-220.41 60.67,-208.97 47.52,-188 37.24,-171.6 51.65,-152.58 65.78,-139.37"/>
<polygon fill="#63b8ff" stroke="#63b8ff" points="67.63,-141.53 72.87,-132.33 63.03,-136.25 67.63,-141.53"/>
</a>
</g>
</g>
<!-- Node6 -->
<g id="Node000006" class="node">
<title>Node6</title>
<g id="a_Node000006"><a xlink:title=" ">
<polygon fill="#e0e0e0" stroke="#999999" points="81.65,-76 33.4,-76 33.4,-56 81.65,-56 81.65,-76"/>
<text text-anchor="middle" x="57.52" y="-62.5" font-family="Helvetica,sans-Serif" font-size="10.00">stdint.h</text>
</a>
</g>
</g>
<!-- Node2&#45;&gt;Node6 -->
<g id="edge20_Node000002_Node000006" class="edge">
<title>Node2&#45;&gt;Node6</title>
<g id="a_edge20_Node000002_Node000006"><a xlink:title=" ">
<path fill="none" stroke="#63b8ff" d="M107.91,-227.8C84.77,-222.22 55.3,-210.86 40.52,-188 20.36,-156.81 35.73,-111.68 47.46,-86.27"/>
<polygon fill="#63b8ff" stroke="#63b8ff" points="51.04,-87.92 52.3,-77.4 44.75,-84.84 51.04,-87.92"/>
</a>
</g>
</g>
<!-- Node7 -->
<g id="Node000007" class="node">
<title>Node7</title>
<g id="a_Node000007"><a xlink:href="_board_8h.html" target="_top" xlink:title="Defines the pins and peripherals for the board being used.">
<polygon fill="white" stroke="#666666" points="298.4,-132 248.65,-132 248.65,-112 298.4,-112 298.4,-132"/>
<text text-anchor="middle" x="273.52" y="-118.5" font-family="Helvetica,sans-Serif" font-size="10.00">Board.h</text>
</a>
</g>
</g>
<!-- Node2&#45;&gt;Node7 -->
<g id="edge19_Node000002_Node000007" class="edge">
<title>Node2&#45;&gt;Node7</title>
<g id="a_edge19_Node000002_Node000007"><a xlink:title=" ">
<path fill="none" stroke="#63b8ff" d="M173.3,-228.41C215.25,-221.78 284.34,-208.08 299.52,-188 310.35,-173.69 300.04,-154.26 289.37,-140.38"/>
<polygon fill="#63b8ff" stroke="#63b8ff" points="291.62,-138.61 282.53,-133.17 286.24,-143.09 291.62,-138.61"/>
</a>
</g>
</g>
<!-- Node10 -->
<g id="Node000010" class="node">
<title>Node10</title>
<g id="a_Node000010"><a xlink:href="_controller_data_8h.html" target="_top" xlink:title="Declares a class used to store data for controllers to access.">
<polygon fill="white" stroke="#666666" points="142.4,-188 56.65,-188 56.65,-168 142.4,-168 142.4,-188"/>
<text text-anchor="middle" x="99.52" y="-174.5" font-family="Helvetica,sans-Serif" font-size="10.00">ControllerData.h</text>
</a>
</g>
</g>
<!-- Node2&#45;&gt;Node10 -->
<g id="edge13_Node000002_Node000010" class="edge">
<title>Node2&#45;&gt;Node10</title>
<g id="a_edge13_Node000002_Node000010"><a xlink:title=" ">
<path fill="none" stroke="#63b8ff" d="M133.38,-223.59C127.8,-216.24 119.87,-205.8 113.09,-196.87"/>
<polygon fill="#63b8ff" stroke="#63b8ff" points="115.42,-195.15 106.58,-189.3 109.84,-199.38 115.42,-195.15"/>
</a>
</g>
</g>
<!-- Node11 -->
<g id="Node000011" class="node">
<title>Node11</title>
<g id="a_Node000011"><a xlink:title=" ">
<polygon fill="#e0e0e0" stroke="#999999" points="202.65,-188 160.4,-188 160.4,-168 202.65,-168 202.65,-188"/>
<text text-anchor="middle" x="181.52" y="-174.5" font-family="Helvetica,sans-Serif" font-size="10.00">queue</text>
</a>
</g>
</g>
<!-- Node2&#45;&gt;Node11 -->
<g id="edge21_Node000002_Node000011" class="edge">
<title>Node2&#45;&gt;Node11</title>
<g id="a_edge21_Node000002_Node000011"><a xlink:title=" ">
<path fill="none" stroke="#63b8ff" d="M147.66,-223.59C153.25,-216.24 161.18,-205.8 167.96,-196.87"/>
<polygon fill="#63b8ff" stroke="#63b8ff" points="171.2,-199.38 174.46,-189.3 165.63,-195.15 171.2,-199.38"/>
</a>
</g>
</g>
<!-- Node4&#45;&gt;Node3 -->
<g id="edge4_Node000004_Node000003" class="edge">
<title>Node4&#45;&gt;Node3</title>
<g id="a_edge4_Node000004_Node000003"><a xlink:title=" ">
<path fill="none" stroke="#63b8ff" d="M251.11,-167.6C247.18,-158.67 241.72,-144.75 239.52,-132 233.44,-96.75 236.77,-54.87 239.69,-30.77"/>
<polygon fill="#63b8ff" stroke="#63b8ff" points="243.25,-31.57 241.09,-21.2 236.31,-30.65 243.25,-31.57"/>
</a>
</g>
</g>
<!-- Node4&#45;&gt;Node5 -->
<g id="edge5_Node000004_Node000005" class="edge">
<title>Node4&#45;&gt;Node5</title>
<g id="a_edge5_Node000004_Node000005"><a xlink:title=" ">
<path fill="none" stroke="#63b8ff" d="M226.08,-167.59C198.51,-158.78 157.07,-145.54 126.51,-135.78"/>
<polygon fill="#63b8ff" stroke="#63b8ff" points="127.78,-132.19 117.19,-132.48 125.65,-138.86 127.78,-132.19"/>
</a>
</g>
</g>
<!-- Node4&#45;&gt;Node6 -->
<g id="edge12_Node000004_Node000006" class="edge">
<title>Node4&#45;&gt;Node6</title>
<g id="a_edge12_Node000004_Node000006"><a xlink:title=" ">
<path fill="none" stroke="#63b8ff" d="M238.64,-167.62C204.08,-148.42 125.06,-104.52 83.76,-81.58"/>
<polygon fill="#63b8ff" stroke="#63b8ff" points="85.8,-78.15 75.36,-76.35 82.4,-84.27 85.8,-78.15"/>
</a>
</g>
</g>
<!-- Node4&#45;&gt;Node7 -->
<g id="edge7_Node000004_Node000007" class="edge">
<title>Node4&#45;&gt;Node7</title>
<g id="a_edge7_Node000004_Node000007"><a xlink:title=" ">
<path fill="none" stroke="#63b8ff" d="M258.66,-167.59C260.95,-160.7 264.15,-151.1 267,-142.57"/>
<polygon fill="#63b8ff" stroke="#63b8ff" points="270.58,-143.89 270.42,-133.3 263.94,-141.68 270.58,-143.89"/>
</a>
</g>
</g>
<!-- Node5&#45;&gt;Node6 -->
<g id="edge6_Node000005_Node000006" class="edge">
<title>Node5&#45;&gt;Node6</title>
<g id="a_edge6_Node000005_Node000006"><a xlink:title=" ">
<path fill="none" stroke="#63b8ff" d="M81.47,-111.59C77.65,-104.47 72.27,-94.45 67.57,-85.72"/>
<polygon fill="#63b8ff" stroke="#63b8ff" points="70.33,-84.45 62.52,-77.3 64.16,-87.76 70.33,-84.45"/>
</a>
</g>
</g>
<!-- Node7&#45;&gt;Node3 -->
<g id="edge11_Node000007_Node000003" class="edge">
<title>Node7&#45;&gt;Node3</title>
<g id="a_edge11_Node000007_Node000003"><a xlink:title=" ">
<path fill="none" stroke="#63b8ff" d="M270.88,-111.62C265.85,-93.76 254.79,-54.53 248.07,-30.67"/>
<polygon fill="#63b8ff" stroke="#63b8ff" points="251.24,-30.03 245.16,-21.35 244.5,-31.93 251.24,-30.03"/>
</a>
</g>
</g>
<!-- Node8 -->
<g id="Node000008" class="node">
<title>Node8</title>
<g id="a_Node000008"><a xlink:href="_config_8h.html" target="_top" xlink:title="Configuration variables for the codebase.">
<polygon fill="white" stroke="#666666" points="338.15,-76 286.9,-76 286.9,-56 338.15,-56 338.15,-76"/>
<text text-anchor="middle" x="312.52" y="-62.5" font-family="Helvetica,sans-Serif" font-size="10.00">Config.h</text>
</a>
</g>
</g>
<!-- Node7&#45;&gt;Node8 -->
<g id="edge8_Node000007_Node000008" class="edge">
<title>Node7&#45;&gt;Node8</title>
<g id="a_edge8_Node000007_Node000008"><a xlink:title=" ">
<path fill="none" stroke="#63b8ff" d="M280.32,-111.59C285.57,-104.32 293.01,-94.02 299.42,-85.15"/>
<polygon fill="#63b8ff" stroke="#63b8ff" points="302.79,-87.45 305.81,-77.3 297.11,-83.36 302.79,-87.45"/>
</a>
</g>
</g>
<!-- Node8&#45;&gt;Node3 -->
<g id="edge9_Node000008_Node000003" class="edge">
<title>Node8&#45;&gt;Node3</title>
<g id="a_edge9_Node000008_Node000003"><a xlink:title=" ">
<path fill="none" stroke="#63b8ff" d="M300.33,-55.59C290.09,-47.7 275.24,-36.24 263.16,-26.92"/>
<polygon fill="#63b8ff" stroke="#63b8ff" points="265.63,-23.64 255.58,-20.3 261.36,-29.18 265.63,-23.64"/>
</a>
</g>
</g>
<!-- Node9 -->
<g id="Node000009" class="node">
<title>Node9</title>
<g id="a_Node000009"><a xlink:href="_log_levels_8h.html" target="_top" xlink:title=" ">
<polygon fill="white" stroke="#666666" points="362.02,-20 295.02,-20 295.02,0 362.02,0 362.02,-20"/>
<text text-anchor="middle" x="328.52" y="-6.5" font-family="Helvetica,sans-Serif" font-size="10.00">LogLevels.h</text>
</a>
</g>
</g>
<!-- Node8&#45;&gt;Node9 -->
<g id="edge10_Node000008_Node000009" class="edge">
<title>Node8&#45;&gt;Node9</title>
<g id="a_edge10_Node000008_Node000009"><a xlink:title=" ">
<path fill="none" stroke="#63b8ff" d="M315.31,-55.59C317.35,-48.7 320.2,-39.1 322.72,-30.57"/>
<polygon fill="#63b8ff" stroke="#63b8ff" points="326.28,-31.88 325.77,-21.3 319.57,-29.89 326.28,-31.88"/>
</a>
</g>
</g>
<!-- Node10&#45;&gt;Node3 -->
<g id="edge15_Node000010_Node000003" class="edge">
<title>Node10&#45;&gt;Node3</title>
<g id="a_edge15_Node000010_Node000003"><a xlink:title=" ">
<path fill="none" stroke="#63b8ff" d="M107.62,-167.6C130.73,-140.78 197.23,-63.57 227.36,-28.6"/>
<polygon fill="#63b8ff" stroke="#63b8ff" points="230.64,-31.16 234.51,-21.3 225.33,-26.59 230.64,-31.16"/>
</a>
</g>
</g>
<!-- Node10&#45;&gt;Node5 -->
<g id="edge17_Node000010_Node000005" class="edge">
<title>Node10&#45;&gt;Node5</title>
<g id="a_edge17_Node000010_Node000005"><a xlink:title=" ">
<path fill="none" stroke="#63b8ff" d="M97.26,-167.59C95.62,-160.78 93.34,-151.32 91.3,-142.86"/>
<polygon fill="#63b8ff" stroke="#63b8ff" points="94.5,-142.2 88.76,-133.3 87.7,-143.84 94.5,-142.2"/>
</a>
</g>
</g>
<!-- Node10&#45;&gt;Node6 -->
<g id="edge14_Node000010_Node000006" class="edge">
<title>Node10&#45;&gt;Node6</title>
<g id="a_edge14_Node000010_Node000006"><a xlink:title=" ">
<path fill="none" stroke="#63b8ff" d="M82.22,-167.51C70.01,-159.75 54.62,-147.53 47.52,-132 40.92,-117.56 44.44,-99.63 49.04,-86.26"/>
<polygon fill="#63b8ff" stroke="#63b8ff" points="52.56,-87.87 52.95,-77.28 46.04,-85.31 52.56,-87.87"/>
</a>
</g>
</g>
<!-- Node10&#45;&gt;Node7 -->
<g id="edge16_Node000010_Node000007" class="edge">
<title>Node10&#45;&gt;Node7</title>
<g id="a_edge16_Node000010_Node000007"><a xlink:title=" ">
<path fill="none" stroke="#63b8ff" d="M129.83,-167.59C160.01,-158.23 206.31,-143.86 238.15,-133.98"/>
<polygon fill="#63b8ff" stroke="#63b8ff" points="238.84,-137.12 247.35,-130.81 236.77,-130.43 238.84,-137.12"/>
</a>
</g>
</g>
<!-- Node12&#45;&gt;Node3 -->
<g id="edge23_Node000012_Node000003" class="edge">
<title>Node12&#45;&gt;Node3</title>
<g id="a_edge23_Node000012_Node000003"><a xlink:title=" ">
<path fill="none" stroke="#63b8ff" d="M362.04,-111.91C362.32,-98.23 360.88,-72.22 347.52,-56 338.66,-45.24 307.85,-32.72 281.88,-23.62"/>
<polygon fill="#63b8ff" stroke="#63b8ff" points="283.08,-19.99 272.49,-20.07 280.82,-26.62 283.08,-19.99"/>
</a>
</g>
</g>
<!-- Node12&#45;&gt;Node8 -->
<g id="edge25_Node000012_Node000008" class="edge">
<title>Node12&#45;&gt;Node8</title>
<g id="a_edge25_Node000012_Node000008"><a xlink:title=" ">
<path fill="none" stroke="#63b8ff" d="M352.99,-111.59C346.17,-104.08 336.44,-93.35 328.22,-84.3"/>
<polygon fill="#63b8ff" stroke="#63b8ff" points="331.27,-82.35 321.96,-77.3 326.09,-87.06 331.27,-82.35"/>
</a>
</g>
</g>
<!-- Node12&#45;&gt;Node9 -->
<g id="edge24_Node000012_Node000009" class="edge">
<title>Node12&#45;&gt;Node9</title>
<g id="a_edge24_Node000012_Node000009"><a xlink:title=" ">
<path fill="none" stroke="#63b8ff" d="M368.16,-111.88C376.64,-99.02 389.22,-75.03 380.52,-56 375.09,-44.11 364.79,-34.16 354.78,-26.67"/>
<polygon fill="#63b8ff" stroke="#63b8ff" points="357.04,-23.28 346.82,-20.49 353.07,-29.05 357.04,-23.28"/>
</a>
</g>
</g>
</g>
</svg>
