<?xml version="1.0" encoding="UTF-8" standalone="no"?>
<!DOCTYPE svg PUBLIC "-//W3C//DTD SVG 1.1//EN"
 "http://www.w3.org/Graphics/SVG/1.1/DTD/svg11.dtd">
<!-- Generated by graphviz version 8.1.0 (20230707.0739)
 -->
<!-- Title: JointData.h Pages: 1 -->
<svg width="355pt" height="252pt"
 viewBox="0.00 0.00 355.00 252.00" xmlns="http://www.w3.org/2000/svg" xmlns:xlink="http://www.w3.org/1999/xlink">
<g id="graph0" class="graph" transform="scale(1 1) rotate(0) translate(4 248)">
<title>JointData.h</title>
<!-- Node1 -->
<g id="Node000001" class="node">
<title>Node1</title>
<g id="a_Node000001"><a xlink:title="Declares a class used to store data for joint to access.">
<polygon fill="#999999" stroke="#666666" points="139.88,-244 75.13,-244 75.13,-224 139.88,-224 139.88,-244"/>
<text text-anchor="middle" x="107.5" y="-230.5" font-family="Helvetica,sans-Serif" font-size="10.00">JointData.h</text>
</a>
</g>
</g>
<!-- Node2 -->
<g id="Node000002" class="node">
<title>Node2</title>
<g id="a_Node000002"><a xlink:title=" ">
<polygon fill="#e0e0e0" stroke="#999999" points="250.13,-20 192.88,-20 192.88,0 250.13,0 250.13,-20"/>
<text text-anchor="middle" x="221.5" y="-6.5" font-family="Helvetica,sans-Serif" font-size="10.00">Arduino.h</text>
</a>
</g>
</g>
<!-- Node1&#45;&gt;Node2 -->
<g id="edge1_Node000001_Node000002" class="edge">
<title>Node1&#45;&gt;Node2</title>
<g id="a_edge1_Node000001_Node000002"><a xlink:title=" ">
<path fill="none" stroke="#63b8ff" d="M81.47,-223.63C64.18,-216.26 42.07,-204.47 27.5,-188 4.13,-161.56 -6.46,-145.54 4.5,-112 14.09,-82.68 19.95,-73.28 45.5,-56 86.76,-28.1 144.09,-17.5 181.96,-13.47"/>
<polygon fill="#63b8ff" stroke="#63b8ff" points="181.95,-16.89 191.57,-12.46 181.29,-9.92 181.95,-16.89"/>
</a>
</g>
</g>
<!-- Node3 -->
<g id="Node000003" class="node">
<title>Node3</title>
<g id="a_Node000003"><a xlink:href="_motor_data_8h.html" target="_top" xlink:title="Declares a class used to store data for motors to access.">
<polygon fill="white" stroke="#666666" points="142.13,-188 72.88,-188 72.88,-168 142.13,-168 142.13,-188"/>
<text text-anchor="middle" x="107.5" y="-174.5" font-family="Helvetica,sans-Serif" font-size="10.00">MotorData.h</text>
</a>
</g>
</g>
<!-- Node1&#45;&gt;Node3 -->
<g id="edge2_Node000001_Node000003" class="edge">
<title>Node1&#45;&gt;Node3</title>
<g id="a_edge2_Node000001_Node000003"><a xlink:title=" ">
<path fill="none" stroke="#63b8ff" d="M107.5,-223.59C107.5,-216.86 107.5,-207.53 107.5,-199.15"/>
<polygon fill="#63b8ff" stroke="#63b8ff" points="111,-199.3 107.5,-189.3 104,-199.3 111,-199.3"/>
</a>
</g>
</g>
<!-- Node4 -->
<g id="Node000004" class="node">
<title>Node4</title>
<g id="a_Node000004"><a xlink:href="_parse_ini_8h.html" target="_top" xlink:title="Declares the functions needed and defines mapping between the INI keys and the exo components.">
<polygon fill="white" stroke="#666666" points="79.25,-132 19.75,-132 19.75,-112 79.25,-112 79.25,-132"/>
<text text-anchor="middle" x="49.5" y="-118.5" font-family="Helvetica,sans-Serif" font-size="10.00">ParseIni.h</text>
</a>
</g>
</g>
<!-- Node1&#45;&gt;Node4 -->
<g id="edge17_Node000001_Node000004" class="edge">
<title>Node1&#45;&gt;Node4</title>
<g id="a_edge17_Node000001_Node000004"><a xlink:title=" ">
<path fill="none" stroke="#63b8ff" d="M95.11,-223.67C85.04,-215.4 71.26,-202.44 63.5,-188 56.06,-174.14 52.57,-156.62 50.94,-143.26"/>
<polygon fill="#63b8ff" stroke="#63b8ff" points="54.34,-143.01 49.9,-133.38 47.37,-143.67 54.34,-143.01"/>
</a>
</g>
</g>
<!-- Node5 -->
<g id="Node000005" class="node">
<title>Node5</title>
<g id="a_Node000005"><a xlink:title=" ">
<polygon fill="#e0e0e0" stroke="#999999" points="102.63,-76 54.38,-76 54.38,-56 102.63,-56 102.63,-76"/>
<text text-anchor="middle" x="78.5" y="-62.5" font-family="Helvetica,sans-Serif" font-size="10.00">stdint.h</text>
</a>
</g>
</g>
<!-- Node1&#45;&gt;Node5 -->
<g id="edge19_Node000001_Node000005" class="edge">
<title>Node1&#45;&gt;Node5</title>
<g id="a_edge19_Node000001_Node000005"><a xlink:title=" ">
<path fill="none" stroke="#63b8ff" d="M92.16,-223.6C68.57,-208.05 24.65,-174.44 10.5,-132 7.69,-123.57 6.3,-119.83 10.5,-112 17.82,-98.39 31.26,-88.2 44.28,-80.99"/>
<polygon fill="#63b8ff" stroke="#63b8ff" points="45.69,-83.69 53.04,-76.06 42.53,-77.45 45.69,-83.69"/>
</a>
</g>
</g>
<!-- Node6 -->
<g id="Node000006" class="node">
<title>Node6</title>
<g id="a_Node000006"><a xlink:href="_board_8h.html" target="_top" xlink:title="Defines the pins and peripherals for the board being used.">
<polygon fill="white" stroke="#666666" points="299.38,-132 249.63,-132 249.63,-112 299.38,-112 299.38,-132"/>
<text text-anchor="middle" x="274.5" y="-118.5" font-family="Helvetica,sans-Serif" font-size="10.00">Board.h</text>
</a>
</g>
</g>
<!-- Node1&#45;&gt;Node6 -->
<g id="edge18_Node000001_Node000006" class="edge">
<title>Node1&#45;&gt;Node6</title>
<g id="a_edge18_Node000001_Node000006"><a xlink:title=" ">
<path fill="none" stroke="#63b8ff" d="M140.34,-231.76C173.77,-228.73 224.91,-218.93 255.5,-188 267.26,-176.12 271.82,-157.38 273.55,-143.07"/>
<polygon fill="#63b8ff" stroke="#63b8ff" points="277.1,-143.59 274.43,-133.34 270.12,-143.02 277.1,-143.59"/>
</a>
</g>
</g>
<!-- Node9 -->
<g id="Node000009" class="node">
<title>Node9</title>
<g id="a_Node000009"><a xlink:href="_controller_data_8h.html" target="_top" xlink:title="Declares a class used to store data for controllers to access.">
<polygon fill="white" stroke="#666666" points="246.38,-188 160.63,-188 160.63,-168 246.38,-168 246.38,-188"/>
<text text-anchor="middle" x="203.5" y="-174.5" font-family="Helvetica,sans-Serif" font-size="10.00">ControllerData.h</text>
</a>
</g>
</g>
<!-- Node1&#45;&gt;Node9 -->
<g id="edge12_Node000001_Node000009" class="edge">
<title>Node1&#45;&gt;Node9</title>
<g id="a_edge12_Node000001_Node000009"><a xlink:title=" ">
<path fill="none" stroke="#63b8ff" d="M124.23,-223.59C138.87,-215.36 160.38,-203.26 177.3,-193.74"/>
<polygon fill="#63b8ff" stroke="#63b8ff" points="178.65,-196.43 185.65,-188.48 175.22,-190.33 178.65,-196.43"/>
</a>
</g>
</g>
<!-- Node10 -->
<g id="Node000010" class="node">
<title>Node10</title>
<g id="a_Node000010"><a xlink:title=" ">
<polygon fill="#e0e0e0" stroke="#999999" points="344.63,-188 302.38,-188 302.38,-168 344.63,-168 344.63,-188"/>
<text text-anchor="middle" x="323.5" y="-174.5" font-family="Helvetica,sans-Serif" font-size="10.00">queue</text>
</a>
</g>
</g>
<!-- Node1&#45;&gt;Node10 -->
<g id="edge20_Node000001_Node000010" class="edge">
<title>Node1&#45;&gt;Node10</title>
<g id="a_edge20_Node000001_Node000010"><a xlink:title=" ">
<path fill="none" stroke="#63b8ff" d="M140.22,-224.95C176.49,-216.01 236.71,-201.1 288.5,-188 289.46,-187.76 290.44,-187.51 291.42,-187.26"/>
<polygon fill="#63b8ff" stroke="#63b8ff" points="292.22,-190.41 301.04,-184.55 290.49,-183.63 292.22,-190.41"/>
</a>
</g>
</g>
<!-- Node3&#45;&gt;Node2 -->
<g id="edge3_Node000003_Node000002" class="edge">
<title>Node3&#45;&gt;Node2</title>
<g id="a_edge3_Node000003_Node000002"><a xlink:title=" ">
<path fill="none" stroke="#63b8ff" d="M113.96,-167.6C132.3,-140.89 184.95,-64.23 209.11,-29.05"/>
<polygon fill="#63b8ff" stroke="#63b8ff" points="212.34,-31.52 215.12,-21.3 206.57,-27.56 212.34,-31.52"/>
</a>
</g>
</g>
<!-- Node3&#45;&gt;Node4 -->
<g id="edge4_Node000003_Node000004" class="edge">
<title>Node3&#45;&gt;Node4</title>
<g id="a_edge4_Node000003_Node000004"><a xlink:title=" ">
<path fill="none" stroke="#63b8ff" d="M97.4,-167.59C89.17,-159.93 77.33,-148.91 67.49,-139.75"/>
<polygon fill="#63b8ff" stroke="#63b8ff" points="70.2,-137.55 60.49,-133.3 65.43,-142.67 70.2,-137.55"/>
</a>
</g>
</g>
<!-- Node3&#45;&gt;Node5 -->
<g id="edge11_Node000003_Node000005" class="edge">
<title>Node3&#45;&gt;Node5</title>
<g id="a_edge11_Node000003_Node000005"><a xlink:title=" ">
<path fill="none" stroke="#63b8ff" d="M105.03,-167.62C100.32,-149.76 89.98,-110.53 83.69,-86.67"/>
<polygon fill="#63b8ff" stroke="#63b8ff" points="86.9,-86.13 80.97,-77.35 80.14,-87.92 86.9,-86.13"/>
</a>
</g>
</g>
<!-- Node3&#45;&gt;Node6 -->
<g id="edge6_Node000003_Node000006" class="edge">
<title>Node3&#45;&gt;Node6</title>
<g id="a_edge6_Node000003_Node000006"><a xlink:title=" ">
<path fill="none" stroke="#63b8ff" d="M136.59,-167.59C165.1,-158.38 208.59,-144.31 239.09,-134.45"/>
<polygon fill="#63b8ff" stroke="#63b8ff" points="239.86,-137.56 248.29,-131.15 237.7,-130.9 239.86,-137.56"/>
</a>
</g>
</g>
<!-- Node4&#45;&gt;Node5 -->
<g id="edge5_Node000004_Node000005" class="edge">
<title>Node4&#45;&gt;Node5</title>
<g id="a_edge5_Node000004_Node000005"><a xlink:title=" ">
<path fill="none" stroke="#63b8ff" d="M54.56,-111.59C58.38,-104.47 63.76,-94.45 68.45,-85.72"/>
<polygon fill="#63b8ff" stroke="#63b8ff" points="71.86,-87.76 73.51,-77.3 65.7,-84.45 71.86,-87.76"/>
</a>
</g>
</g>
<!-- Node6&#45;&gt;Node2 -->
<g id="edge10_Node000006_Node000002" class="edge">
<title>Node6&#45;&gt;Node2</title>
<g id="a_edge10_Node000006_Node000002"><a xlink:title=" ">
<path fill="none" stroke="#63b8ff" d="M269.99,-111.62C261.3,-93.6 242.13,-53.81 230.67,-30.02"/>
<polygon fill="#63b8ff" stroke="#63b8ff" points="233.51,-28.84 226.01,-21.35 227.2,-31.88 233.51,-28.84"/>
</a>
</g>
</g>
<!-- Node7 -->
<g id="Node000007" class="node">
<title>Node7</title>
<g id="a_Node000007"><a xlink:href="_config_8h.html" target="_top" xlink:title="Configuration variables for the codebase.">
<polygon fill="white" stroke="#666666" points="339.13,-76 287.88,-76 287.88,-56 339.13,-56 339.13,-76"/>
<text text-anchor="middle" x="313.5" y="-62.5" font-family="Helvetica,sans-Serif" font-size="10.00">Config.h</text>
</a>
</g>
</g>
<!-- Node6&#45;&gt;Node7 -->
<g id="edge7_Node000006_Node000007" class="edge">
<title>Node6&#45;&gt;Node7</title>
<g id="a_edge7_Node000006_Node000007"><a xlink:title=" ">
<path fill="none" stroke="#63b8ff" d="M281.3,-111.59C286.55,-104.32 293.99,-94.02 300.4,-85.15"/>
<polygon fill="#63b8ff" stroke="#63b8ff" points="303.77,-87.45 306.79,-77.3 298.1,-83.36 303.77,-87.45"/>
</a>
</g>
</g>
<!-- Node7&#45;&gt;Node2 -->
<g id="edge8_Node000007_Node000002" class="edge">
<title>Node7&#45;&gt;Node2</title>
<g id="a_edge8_Node000007_Node000002"><a xlink:title=" ">
<path fill="none" stroke="#63b8ff" d="M297.48,-55.59C283.58,-47.44 263.22,-35.48 247.07,-26"/>
<polygon fill="#63b8ff" stroke="#63b8ff" points="249.05,-22.52 238.65,-20.48 245.51,-28.56 249.05,-22.52"/>
</a>
</g>
</g>
<!-- Node8 -->
<g id="Node000008" class="node">
<title>Node8</title>
<g id="a_Node000008"><a xlink:href="_log_levels_8h.html" target="_top" xlink:title=" ">
<polygon fill="white" stroke="#666666" points="347,-20 280,-20 280,0 347,0 347,-20"/>
<text text-anchor="middle" x="313.5" y="-6.5" font-family="Helvetica,sans-Serif" font-size="10.00">LogLevels.h</text>
</a>
</g>
</g>
<!-- Node7&#45;&gt;Node8 -->
<g id="edge9_Node000007_Node000008" class="edge">
<title>Node7&#45;&gt;Node8</title>
<g id="a_edge9_Node000007_Node000008"><a xlink:title=" ">
<path fill="none" stroke="#63b8ff" d="M313.5,-55.59C313.5,-48.86 313.5,-39.53 313.5,-31.15"/>
<polygon fill="#63b8ff" stroke="#63b8ff" points="317,-31.3 313.5,-21.3 310,-31.3 317,-31.3"/>
</a>
</g>
</g>
<!-- Node9&#45;&gt;Node2 -->
<g id="edge14_Node000009_Node000002" class="edge">
<title>Node9&#45;&gt;Node2</title>
<g id="a_edge14_Node000009_Node000002"><a xlink:title=" ">
<path fill="none" stroke="#63b8ff" d="M204.52,-167.6C207.37,-141.35 215.45,-66.84 219.35,-30.89"/>
<polygon fill="#63b8ff" stroke="#63b8ff" points="222.9,-31.62 220.5,-21.3 215.94,-30.86 222.9,-31.62"/>
</a>
</g>
</g>
<!-- Node9&#45;&gt;Node4 -->
<g id="edge16_Node000009_Node000004" class="edge">
<title>Node9&#45;&gt;Node4</title>
<g id="a_edge16_Node000009_Node000004"><a xlink:title=" ">
<path fill="none" stroke="#63b8ff" d="M176.68,-167.59C151.77,-158.86 114.45,-145.77 86.67,-136.03"/>
<polygon fill="#63b8ff" stroke="#63b8ff" points="88.13,-132.49 77.54,-132.48 85.82,-139.09 88.13,-132.49"/>
</a>
</g>
</g>
<!-- Node9&#45;&gt;Node5 -->
<g id="edge13_Node000009_Node000005" class="edge">
<title>Node9&#45;&gt;Node5</title>
<g id="a_edge13_Node000009_Node000005"><a xlink:title=" ">
<path fill="none" stroke="#63b8ff" d="M192.85,-167.62C171.63,-148.95 123.86,-106.92 97.27,-83.52"/>
<polygon fill="#63b8ff" stroke="#63b8ff" points="99.95,-80.33 90.13,-76.35 95.33,-85.59 99.95,-80.33"/>
</a>
</g>
</g>
<!-- Node9&#45;&gt;Node6 -->
<g id="edge15_Node000009_Node000006" class="edge">
<title>Node9&#45;&gt;Node6</title>
<g id="a_edge15_Node000009_Node000006"><a xlink:title=" ">
<path fill="none" stroke="#63b8ff" d="M215.87,-167.59C226.26,-159.7 241.32,-148.24 253.58,-138.92"/>
<polygon fill="#63b8ff" stroke="#63b8ff" points="255.44,-141.14 261.28,-132.3 251.2,-135.57 255.44,-141.14"/>
</a>
</g>
</g>
</g>
</svg>
