<?xml version="1.0" encoding="UTF-8" standalone="no"?>
<!DOCTYPE svg PUBLIC "-//W3C//DTD SVG 1.1//EN"
 "http://www.w3.org/Graphics/SVG/1.1/DTD/svg11.dtd">
<!-- Generated by graphviz version 8.1.0 (20230707.0739)
 -->
<!-- Title: LegData.h Pages: 1 -->
<!--zoomable 364 -->

<svg id="main" version="1.1" xmlns="http://www.w3.org/2000/svg" xmlns:xlink="http://www.w3.org/1999/xlink" xml:space="preserve" onload="init(evt)">
<style type="text/css"><![CDATA[
.node, .edge {opacity: 0.7;}
.node.selected, .edge.selected {opacity: 1;}
.edge:hover path { stroke: red; }
.edge:hover polygon { stroke: red; fill: red; }
]]></style>

<defs>
  <circle id="rim" cx="0" cy="0" r="7"/>
  <circle id="rim2" cx="0" cy="0" r="3.5"/>
  <g id="zoomPlus">
    <use xlink:href="#rim" fill="#404040"><set attributeName="fill" to="#808080" begin="zoomplus.mouseover" end="zoomplus.mouseout"/></use>
    <path d="M-4,0h8M0,-4v8" fill="none" stroke="white" stroke-width="1.5" pointer-events="none"/>
  </g>
  <g id="zoomMin">
    <use xlink:href="#rim" fill="#404040"><set attributeName="fill" to="#808080" begin="zoomminus.mouseover" end="zoomminus.mouseout"/></use>
    <path d="M-4,0h8" fill="none" stroke="white" stroke-width="1.5" pointer-events="none"/>
  </g>
  <g id="arrowUp" transform="translate(30 24)">
    <use xlink:href="#rim"/>
    <path pointer-events="none" fill="none" stroke="white" stroke-width="1.5" d="M0,-3.0v7 M-2.5,-0.5L0,-3.0L2.5,-0.5"/>
  </g>
  <g id="arrowRight" transform="rotate(90) translate(36 -43)">
    <use xlink:href="#rim"/>
    <path pointer-events="none" fill="none" stroke="white" stroke-width="1.5" d="M0,-3.0v7 M-2.5,-0.5L0,-3.0L2.5,-0.5"/>
  </g>
  <g id="arrowDown" transform="rotate(180) translate(-30 -48)">
    <use xlink:href="#rim"/>
    <path pointer-events="none" fill="none" stroke="white" stroke-width="1.5" d="M0,-3.0v7 M-2.5,-0.5L0,-3.0L2.5,-0.5"/>
  </g>
  <g id="arrowLeft" transform="rotate(270) translate(-36 17)">
    <use xlink:href="#rim"/>
    <path pointer-events="none" fill="none" stroke="white" stroke-width="1.5" d="M0,-3.0v7 M-2.5,-0.5L0,-3.0L2.5,-0.5"/>
  </g>
  <g id="resetDef">
    <use xlink:href="#rim2" fill="#404040"><set attributeName="fill" to="#808080" begin="reset.mouseover" end="reset.mouseout"/></use>
  </g>
</defs>
<script type="application/ecmascript">
var viewWidth = 545;
var viewHeight = 364;
var sectionId = 'dynsection-1';
</script>
<script type="application/ecmascript" xlink:href="svg.min.js"/>
<svg id="graph" class="graph">
<g id="viewport">
<title>LegData.h</title>
<!-- Node1 -->
<g id="Node000001" class="node">
<title>Node1</title>
<g id="a_Node000001"><a xlink:title="Declares a class used to store data for leg to access.">
<polygon fill="#999999" stroke="#666666" points="386.13,-356 325.88,-356 325.88,-336 386.13,-336 386.13,-356"/>
<text text-anchor="middle" x="356" y="-342.5" font-family="Helvetica,sans-Serif" font-size="10.00">LegData.h</text>
</a>
</g>
</g>
<!-- Node2 -->
<g id="Node000002" class="node">
<title>Node2</title>
<g id="a_Node000002"><a xlink:href="_exo_data_8h.html" target="_top" xlink:title="Declares a class used to store data for the Exo to access.">
<polygon fill="white" stroke="#666666" points="344.88,-300 283.13,-300 283.13,-280 344.88,-280 344.88,-300"/>
<text text-anchor="middle" x="314" y="-286.5" font-family="Helvetica,sans-Serif" font-size="10.00">ExoData.h</text>
</a>
</g>
</g>
<!-- Node1&#45;&gt;Node2 -->
<g id="edge1_Node000001_Node000002" class="edge">
<title>Node1&#45;&gt;Node2</title>
<g id="a_edge1_Node000001_Node000002"><a xlink:title=" ">
<path fill="none" stroke="#63b8ff" d="M342,-327C335.05,-318.06 326.93,-307.62 321.23,-300.3"/>
<polygon fill="#63b8ff" stroke="#63b8ff" points="339.78,-328.85 348.68,-334.59 345.31,-324.55 339.78,-328.85"/>
</a>
</g>
</g>
<!-- Node17 -->
<g id="Node000017" class="node">
<title>Node17</title>
<g id="a_Node000017"><a xlink:href="_leg_data_8cpp.html" target="_top" xlink:title=" ">
<polygon fill="white" stroke="#666666" points="433.38,-300 362.63,-300 362.63,-280 433.38,-280 433.38,-300"/>
<text text-anchor="middle" x="398" y="-286.5" font-family="Helvetica,sans-Serif" font-size="10.00">LegData.cpp</text>
</a>
</g>
</g>
<!-- Node1&#45;&gt;Node17 -->
<g id="edge22_Node000001_Node000017" class="edge">
<title>Node1&#45;&gt;Node17</title>
<g id="a_edge22_Node000001_Node000017"><a xlink:title=" ">
<path fill="none" stroke="#63b8ff" d="M370,-327C376.95,-318.06 385.07,-307.62 390.77,-300.3"/>
<polygon fill="#63b8ff" stroke="#63b8ff" points="366.69,-324.55 363.32,-334.59 372.22,-328.85 366.69,-324.55"/>
</a>
</g>
</g>
<!-- Node3 -->
<g id="Node000003" class="node">
<title>Node3</title>
<g id="a_Node000003"><a xlink:href="_coms_m_c_u_8h.html" target="_top" xlink:title="The top of the composite structure for the communication microcontroller. This class manages the blue...">
<polygon fill="white" stroke="#666666" points="174.75,-244 103.25,-244 103.25,-224 174.75,-224 174.75,-244"/>
<text text-anchor="middle" x="139" y="-230.5" font-family="Helvetica,sans-Serif" font-size="10.00">ComsMCU.h</text>
</a>
</g>
</g>
<!-- Node2&#45;&gt;Node3 -->
<g id="edge2_Node000002_Node000003" class="edge">
<title>Node2&#45;&gt;Node3</title>
<g id="a_edge2_Node000002_Node000003"><a xlink:title=" ">
<path fill="none" stroke="#63b8ff" d="M273.27,-276.43C241.65,-266.67 198.48,-253.35 169.72,-244.48"/>
<polygon fill="#63b8ff" stroke="#63b8ff" points="271.93,-279.99 282.52,-279.59 273.99,-273.3 271.93,-279.99"/>
</a>
</g>
</g>
<!-- Node5 -->
<g id="Node000005" class="node">
<title>Node5</title>
<g id="a_Node000005"><a xlink:href="_exo_data_8cpp.html" target="_top" xlink:title=" ">
<polygon fill="white" stroke="#666666" points="537.13,-188 464.88,-188 464.88,-168 537.13,-168 537.13,-188"/>
<text text-anchor="middle" x="501" y="-174.5" font-family="Helvetica,sans-Serif" font-size="10.00">ExoData.cpp</text>
</a>
</g>
</g>
<!-- Node2&#45;&gt;Node5 -->
<g id="edge4_Node000002_Node000005" class="edge">
<title>Node2&#45;&gt;Node5</title>
<g id="a_edge4_Node000002_Node000005"><a xlink:title=" ">
<path fill="none" stroke="#63b8ff" d="M346.15,-275.19C364.62,-266.86 388.05,-255.64 408,-244 438.45,-226.23 471.79,-201.53 489.09,-188.28"/>
<polygon fill="#63b8ff" stroke="#63b8ff" points="344.89,-272.36 337.18,-279.62 347.74,-278.76 344.89,-272.36"/>
</a>
</g>
</g>
<!-- Node6 -->
<g id="Node000006" class="node">
<title>Node6</title>
<g id="a_Node000006"><a xlink:href="_params_from_s_d_8h.html" target="_top" xlink:title="Declares the functions to pull controller parameters from the SD card and defines the mapping to the ...">
<polygon fill="white" stroke="#666666" points="399,-244 305,-244 305,-224 399,-224 399,-244"/>
<text text-anchor="middle" x="352" y="-230.5" font-family="Helvetica,sans-Serif" font-size="10.00">ParamsFromSD.h</text>
</a>
</g>
</g>
<!-- Node2&#45;&gt;Node6 -->
<g id="edge5_Node000002_Node000006" class="edge">
<title>Node2&#45;&gt;Node6</title>
<g id="a_edge5_Node000002_Node000006"><a xlink:title=" ">
<path fill="none" stroke="#63b8ff" d="M326.86,-270.72C333.11,-261.84 340.36,-251.55 345.46,-244.3"/>
<polygon fill="#63b8ff" stroke="#63b8ff" points="323.51,-268.4 320.62,-278.59 329.24,-272.43 323.51,-268.4"/>
</a>
</g>
</g>
<!-- Node8 -->
<g id="Node000008" class="node">
<title>Node8</title>
<g id="a_Node000008"><a xlink:href="ble__commands_8h.html" target="_top" xlink:title="This file declares the BLE commands, and the functions that should be called when they are received.">
<polygon fill="white" stroke="#666666" points="360.13,-132 269.88,-132 269.88,-112 360.13,-112 360.13,-132"/>
<text text-anchor="middle" x="315" y="-118.5" font-family="Helvetica,sans-Serif" font-size="10.00">ble_commands.h</text>
</a>
</g>
</g>
<!-- Node2&#45;&gt;Node8 -->
<g id="edge20_Node000002_Node000008" class="edge">
<title>Node2&#45;&gt;Node8</title>
<g id="a_edge20_Node000002_Node000008"><a xlink:title=" ">
<path fill="none" stroke="#63b8ff" d="M304.44,-269.78C301.06,-261.98 297.69,-252.76 296,-244 288.04,-202.66 303.76,-152.88 311.29,-132.45"/>
<polygon fill="#63b8ff" stroke="#63b8ff" points="301.65,-271.08 309.04,-278.67 308,-268.12 301.65,-271.08"/>
</a>
</g>
</g>
<!-- Node11 -->
<g id="Node000011" class="node">
<title>Node11</title>
<g id="a_Node000011"><a xlink:href="uart__commands_8h.html" target="_top" xlink:title=" ">
<polygon fill="white" stroke="#666666" points="249,-188 155,-188 155,-168 249,-168 249,-188"/>
<text text-anchor="middle" x="202" y="-174.5" font-family="Helvetica,sans-Serif" font-size="10.00">uart_commands.h</text>
</a>
</g>
</g>
<!-- Node2&#45;&gt;Node11 -->
<g id="edge21_Node000002_Node000011" class="edge">
<title>Node2&#45;&gt;Node11</title>
<g id="a_edge21_Node000002_Node000011"><a xlink:title=" ">
<path fill="none" stroke="#63b8ff" d="M294.59,-272.63C284.9,-264.27 273.12,-253.82 263,-244 243.22,-224.82 221.46,-200.89 210.03,-188.08"/>
<polygon fill="#63b8ff" stroke="#63b8ff" points="291.91,-275.8 301.79,-279.64 296.46,-270.48 291.91,-275.8"/>
</a>
</g>
</g>
<!-- Node16 -->
<g id="Node000016" class="node">
<title>Node16</title>
<g id="a_Node000016"><a xlink:href="_pi_logger_8h.html" target="_top" xlink:title=" ">
<polygon fill="white" stroke="#666666" points="517.25,-244 454.75,-244 454.75,-224 517.25,-224 517.25,-244"/>
<text text-anchor="middle" x="486" y="-230.5" font-family="Helvetica,sans-Serif" font-size="10.00">PiLogger.h</text>
</a>
</g>
</g>
<!-- Node2&#45;&gt;Node16 -->
<g id="edge19_Node000002_Node000016" class="edge">
<title>Node2&#45;&gt;Node16</title>
<g id="a_edge19_Node000002_Node000016"><a xlink:title=" ">
<path fill="none" stroke="#63b8ff" d="M354.43,-276.31C385.48,-266.56 427.66,-253.32 455.81,-244.48"/>
<polygon fill="#63b8ff" stroke="#63b8ff" points="353.45,-273.26 344.96,-279.59 355.55,-279.94 353.45,-273.26"/>
</a>
</g>
</g>
<!-- Node4 -->
<g id="Node000004" class="node">
<title>Node4</title>
<g id="a_Node000004"><a xlink:href="_coms_m_c_u_8cpp.html" target="_top" xlink:title=" ">
<polygon fill="white" stroke="#666666" points="82,-132 0,-132 0,-112 82,-112 82,-132"/>
<text text-anchor="middle" x="41" y="-118.5" font-family="Helvetica,sans-Serif" font-size="10.00">ComsMCU.cpp</text>
</a>
</g>
</g>
<!-- Node3&#45;&gt;Node4 -->
<g id="edge3_Node000003_Node000004" class="edge">
<title>Node3&#45;&gt;Node4</title>
<g id="a_edge3_Node000003_Node000004"><a xlink:title=" ">
<path fill="none" stroke="#63b8ff" d="M123.43,-215.53C102.42,-191.95 65.73,-150.76 49.33,-132.35"/>
<polygon fill="#63b8ff" stroke="#63b8ff" points="120.38,-217.48 129.64,-222.62 125.61,-212.83 120.38,-217.48"/>
</a>
</g>
</g>
<!-- Node6&#45;&gt;Node5 -->
<g id="edge6_Node000006_Node000005" class="edge">
<title>Node6&#45;&gt;Node5</title>
<g id="a_edge6_Node000006_Node000005"><a xlink:title=" ">
<path fill="none" stroke="#63b8ff" d="M388.09,-219.92C414.88,-210.21 450.78,-197.2 474.84,-188.48"/>
<polygon fill="#63b8ff" stroke="#63b8ff" points="387.16,-216.9 378.95,-223.59 389.55,-223.48 387.16,-216.9"/>
</a>
</g>
</g>
<!-- Node7 -->
<g id="Node000007" class="node">
<title>Node7</title>
<g id="a_Node000007"><a xlink:href="_params_from_s_d_8cpp.html" target="_top" xlink:title=" ">
<polygon fill="white" stroke="#666666" points="447.25,-188 342.75,-188 342.75,-168 447.25,-168 447.25,-188"/>
<text text-anchor="middle" x="395" y="-174.5" font-family="Helvetica,sans-Serif" font-size="10.00">ParamsFromSD.cpp</text>
</a>
</g>
</g>
<!-- Node6&#45;&gt;Node7 -->
<g id="edge7_Node000006_Node000007" class="edge">
<title>Node6&#45;&gt;Node7</title>
<g id="a_edge7_Node000006_Node000007"><a xlink:title=" ">
<path fill="none" stroke="#63b8ff" d="M366.33,-215C373.45,-206.06 381.76,-195.62 387.6,-188.3"/>
<polygon fill="#63b8ff" stroke="#63b8ff" points="362.98,-212.59 359.49,-222.59 368.46,-216.95 362.98,-212.59"/>
</a>
</g>
</g>
<!-- Node6&#45;&gt;Node8 -->
<g id="edge8_Node000006_Node000008" class="edge">
<title>Node6&#45;&gt;Node8</title>
<g id="a_edge8_Node000006_Node000008"><a xlink:title=" ">
<path fill="none" stroke="#63b8ff" d="M343.83,-213.75C340.59,-205.84 336.95,-196.54 334,-188 327.25,-168.44 320.8,-145.05 317.43,-132.35"/>
<polygon fill="#63b8ff" stroke="#63b8ff" points="340.93,-214.91 348.01,-222.79 347.4,-212.21 340.93,-214.91"/>
</a>
</g>
</g>
<!-- Node6&#45;&gt;Node11 -->
<g id="edge12_Node000006_Node000011" class="edge">
<title>Node6&#45;&gt;Node11</title>
<g id="a_edge12_Node000006_Node000011"><a xlink:title=" ">
<path fill="none" stroke="#63b8ff" d="M315.67,-219.92C288.7,-210.21 252.56,-197.2 228.33,-188.48"/>
<polygon fill="#63b8ff" stroke="#63b8ff" points="314.28,-223.5 324.87,-223.59 316.65,-216.91 314.28,-223.5"/>
</a>
</g>
</g>
<!-- Node9 -->
<g id="Node000009" class="node">
<title>Node9</title>
<g id="a_Node000009"><a xlink:href="_ble_parser_8cpp.html" target="_top" xlink:title=" ">
<polygon fill="white" stroke="#666666" points="346.75,-20 269.25,-20 269.25,0 346.75,0 346.75,-20"/>
<text text-anchor="middle" x="308" y="-6.5" font-family="Helvetica,sans-Serif" font-size="10.00">BleParser.cpp</text>
</a>
</g>
</g>
<!-- Node8&#45;&gt;Node9 -->
<g id="edge9_Node000008_Node000009" class="edge">
<title>Node8&#45;&gt;Node9</title>
<g id="a_edge9_Node000008_Node000009"><a xlink:title=" ">
<path fill="none" stroke="#63b8ff" d="M305.44,-101.78C302.06,-93.98 298.69,-84.76 297,-76 293.19,-56.22 299.82,-32.91 304.33,-20.28"/>
<polygon fill="#63b8ff" stroke="#63b8ff" points="302.65,-103.08 310.04,-110.67 309,-100.12 302.65,-103.08"/>
</a>
</g>
</g>
<!-- Node10 -->
<g id="Node000010" class="node">
<title>Node10</title>
<g id="a_Node000010"><a xlink:href="_ble_parser_8h.html" target="_top" xlink:title="This class is used to serialize and deserialize the BLE data. The application uses Nordic&#39;s UART serv...">
<polygon fill="white" stroke="#666666" points="372.5,-76 305.5,-76 305.5,-56 372.5,-56 372.5,-76"/>
<text text-anchor="middle" x="339" y="-62.5" font-family="Helvetica,sans-Serif" font-size="10.00">BleParser.h</text>
</a>
</g>
</g>
<!-- Node8&#45;&gt;Node10 -->
<g id="edge10_Node000008_Node000010" class="edge">
<title>Node8&#45;&gt;Node10</title>
<g id="a_edge10_Node000008_Node000010"><a xlink:title=" ">
<path fill="none" stroke="#63b8ff" d="M323.63,-101.58C327.46,-92.97 331.78,-83.24 334.87,-76.3"/>
<polygon fill="#63b8ff" stroke="#63b8ff" points="320.04,-100.03 319.18,-110.59 326.44,-102.88 320.04,-100.03"/>
</a>
</g>
</g>
<!-- Node10&#45;&gt;Node9 -->
<g id="edge11_Node000010_Node000009" class="edge">
<title>Node10&#45;&gt;Node9</title>
<g id="a_edge11_Node000010_Node000009"><a xlink:title=" ">
<path fill="none" stroke="#63b8ff" d="M328.18,-46.15C323.16,-37.4 317.41,-27.39 313.34,-20.3"/>
<polygon fill="#63b8ff" stroke="#63b8ff" points="325.59,-47.66 333.6,-54.59 331.66,-44.18 325.59,-47.66"/>
</a>
</g>
</g>
<!-- Node11&#45;&gt;Node4 -->
<g id="edge13_Node000011_Node000004" class="edge">
<title>Node11&#45;&gt;Node4</title>
<g id="a_edge13_Node000011_Node000004"><a xlink:title=" ">
<path fill="none" stroke="#63b8ff" d="M163.77,-164.18C134.75,-154.44 95.49,-141.28 69.26,-132.48"/>
<polygon fill="#63b8ff" stroke="#63b8ff" points="162.36,-167.73 172.96,-167.59 164.59,-161.1 162.36,-167.73"/>
</a>
</g>
</g>
<!-- Node11&#45;&gt;Node8 -->
<g id="edge18_Node000011_Node000008" class="edge">
<title>Node11&#45;&gt;Node8</title>
<g id="a_edge18_Node000011_Node000008"><a xlink:title=" ">
<path fill="none" stroke="#63b8ff" d="M231.55,-162.88C251.6,-153.3 277.56,-140.89 295.16,-132.48"/>
<polygon fill="#63b8ff" stroke="#63b8ff" points="230.2,-160.12 222.68,-167.59 233.21,-166.44 230.2,-160.12"/>
</a>
</g>
</g>
<!-- Node12 -->
<g id="Node000012" class="node">
<title>Node12</title>
<g id="a_Node000012"><a xlink:href="_error_reporter_8h.html" target="_top" xlink:title="Singleton class to report errors to the other microcontroller.">
<polygon fill="white" stroke="#666666" points="182,-132 100,-132 100,-112 182,-112 182,-132"/>
<text text-anchor="middle" x="141" y="-118.5" font-family="Helvetica,sans-Serif" font-size="10.00">ErrorReporter.h</text>
</a>
</g>
</g>
<!-- Node11&#45;&gt;Node12 -->
<g id="edge14_Node000011_Node000012" class="edge">
<title>Node11&#45;&gt;Node12</title>
<g id="a_edge14_Node000011_Node000012"><a xlink:title=" ">
<path fill="none" stroke="#63b8ff" d="M183.25,-160.4C172.82,-151.17 160.21,-140.01 151.5,-132.3"/>
<polygon fill="#63b8ff" stroke="#63b8ff" points="180.57,-162.59 190.37,-166.59 185.21,-157.34 180.57,-162.59"/>
</a>
</g>
</g>
<!-- Node15 -->
<g id="Node000015" class="node">
<title>Node15</title>
<g id="a_Node000015"><a xlink:href="_exo_8cpp.html" target="_top" xlink:title=" ">
<polygon fill="white" stroke="#666666" points="252,-132 200,-132 200,-112 252,-112 252,-132"/>
<text text-anchor="middle" x="226" y="-118.5" font-family="Helvetica,sans-Serif" font-size="10.00">Exo.cpp</text>
</a>
</g>
</g>
<!-- Node11&#45;&gt;Node15 -->
<g id="edge17_Node000011_Node000015" class="edge">
<title>Node11&#45;&gt;Node15</title>
<g id="a_edge17_Node000011_Node000015"><a xlink:title=" ">
<path fill="none" stroke="#63b8ff" d="M210.63,-157.58C214.46,-148.97 218.78,-139.24 221.87,-132.3"/>
<polygon fill="#63b8ff" stroke="#63b8ff" points="207.04,-156.03 206.18,-166.59 213.44,-158.88 207.04,-156.03"/>
</a>
</g>
</g>
<!-- Node13 -->
<g id="Node000013" class="node">
<title>Node13</title>
<g id="a_Node000013"><a xlink:href="_joint_8cpp.html" target="_top" xlink:title=" ">
<polygon fill="white" stroke="#666666" points="144.5,-76 89.5,-76 89.5,-56 144.5,-56 144.5,-76"/>
<text text-anchor="middle" x="117" y="-62.5" font-family="Helvetica,sans-Serif" font-size="10.00">Joint.cpp</text>
</a>
</g>
</g>
<!-- Node12&#45;&gt;Node13 -->
<g id="edge15_Node000012_Node000013" class="edge">
<title>Node12&#45;&gt;Node13</title>
<g id="a_edge15_Node000012_Node000013"><a xlink:title=" ">
<path fill="none" stroke="#63b8ff" d="M132.37,-101.58C128.54,-92.97 124.22,-83.24 121.13,-76.3"/>
<polygon fill="#63b8ff" stroke="#63b8ff" points="129.56,-102.88 136.82,-110.59 135.96,-100.03 129.56,-102.88"/>
</a>
</g>
</g>
<!-- Node14 -->
<g id="Node000014" class="node">
<title>Node14</title>
<g id="a_Node000014"><a xlink:href="_motor_8cpp.html" target="_top" xlink:title=" ">
<polygon fill="white" stroke="#666666" points="221.75,-76 162.25,-76 162.25,-56 221.75,-56 221.75,-76"/>
<text text-anchor="middle" x="192" y="-62.5" font-family="Helvetica,sans-Serif" font-size="10.00">Motor.cpp</text>
</a>
</g>
</g>
<!-- Node12&#45;&gt;Node14 -->
<g id="edge16_Node000012_Node000014" class="edge">
<title>Node12&#45;&gt;Node14</title>
<g id="a_edge16_Node000012_Node000014"><a xlink:title=" ">
<path fill="none" stroke="#63b8ff" d="M157.2,-103.85C165.82,-94.72 176.08,-83.86 183.22,-76.3"/>
<polygon fill="#63b8ff" stroke="#63b8ff" points="155.21,-100.92 150.88,-110.59 160.29,-105.73 155.21,-100.92"/>
</a>
</g>
</g>
</g>
</svg>

<g id="navigator" transform="translate(0 0)" fill="#404254">
  <rect fill="#f2f5e9" fill-opacity="0.5" stroke="#606060" stroke-width=".5" x="0" y="0" width="60" height="60"/>
  <use id="zoomplus" xlink:href="#zoomPlus" x="17" y="9" onmousedown="handleZoom(evt,'in')"/>
  <use id="zoomminus" xlink:href="#zoomMin" x="42" y="9" onmousedown="handleZoom(evt,'out')"/>
  <use id="reset" xlink:href="#resetDef" x="30" y="36" onmousedown="handleReset()"/>
   <use id="arrowup" xlink:href="#arrowUp" x="0" y="0" onmousedown="handlePan(0,-1)"/>
  <use id="arrowright" xlink:href="#arrowRight" x="0" y="0" onmousedown="handlePan(1,0)"/>
  <use id="arrowdown" xlink:href="#arrowDown" x="0" y="0" onmousedown="handlePan(0,1)"/>
  <use id="arrowleft" xlink:href="#arrowLeft" x="0" y="0" onmousedown="handlePan(-1,0)"/>
</g>
<svg viewBox="0 0 15 15" width="100%" height="30px" preserveAspectRatio="xMaxYMin meet">
 <g id="arrow_out" transform="scale(0.3 0.3)">
  <a xlink:href="_leg_data_8h__dep__incl_org.svg" target="_base">
   <rect id="button" ry="5" rx="5" y="6" x="6" height="38" width="38"
        fill="#f2f5e9" fill-opacity="0.5" stroke="#606060" stroke-width="1.0"/>
   <path id="arrow"
     d="M 11.500037,31.436501 C 11.940474,20.09759 22.043105,11.32322 32.158766,21.979434 L 37.068811,17.246167 C 37.068811,17.246167 37.088388,32 37.088388,32 L 22.160133,31.978069 C 22.160133,31.978069 26.997745,27.140456 26.997745,27.140456 C 18.528582,18.264221 13.291696,25.230495 11.500037,31.436501 z"
     style="fill:#404040;"/>
  </a>
 </g>
</svg>

<style type='text/css'>
<![CDATA[
[data-mouse-over-selected='false'] { opacity: 0.7; }
[data-mouse-over-selected='true']  { opacity: 1.0; }
]]>
</style>
<script type="application/ecmascript"><![CDATA[
document.addEventListener('DOMContentLoaded', (event) => {
  highlightEdges();
  highlightAdjacentNodes();
});
]]></script>
</svg>
