<?xml version="1.0" encoding="UTF-8" standalone="no"?>
<!DOCTYPE svg PUBLIC "-//W3C//DTD SVG 1.1//EN"
 "http://www.w3.org/Graphics/SVG/1.1/DTD/svg11.dtd">
<!-- Generated by graphviz version 8.1.0 (20230707.0739)
 -->
<!-- Title: LegData.h Pages: 1 -->
<svg width="746pt" height="308pt"
 viewBox="0.00 0.00 745.75 308.00" xmlns="http://www.w3.org/2000/svg" xmlns:xlink="http://www.w3.org/1999/xlink">
<g id="graph0" class="graph" transform="scale(1 1) rotate(0) translate(4 304)">
<title>LegData.h</title>
<!-- Node1 -->
<g id="Node000001" class="node">
<title>Node1</title>
<g id="a_Node000001"><a xlink:title="Declares a class used to store data for leg to access.">
<polygon fill="#999999" stroke="#666666" points="498.63,-300 438.38,-300 438.38,-280 498.63,-280 498.63,-300"/>
<text text-anchor="middle" x="468.5" y="-286.5" font-family="Helvetica,sans-Serif" font-size="10.00">LegData.h</text>
</a>
</g>
</g>
<!-- Node2 -->
<g id="Node000002" class="node">
<title>Node2</title>
<g id="a_Node000002"><a xlink:title=" ">
<polygon fill="#e0e0e0" stroke="#999999" points="230.13,-20 172.88,-20 172.88,0 230.13,0 230.13,-20"/>
<text text-anchor="middle" x="201.5" y="-6.5" font-family="Helvetica,sans-Serif" font-size="10.00">Arduino.h</text>
</a>
</g>
</g>
<!-- Node1&#45;&gt;Node2 -->
<g id="edge1_Node000001_Node000002" class="edge">
<title>Node1&#45;&gt;Node2</title>
<g id="a_edge1_Node000001_Node000002"><a xlink:title=" ">
<path fill="none" stroke="#63b8ff" d="M437.97,-286.78C347.56,-279.39 87.5,-251.81 87.5,-179 87.5,-179 87.5,-179 87.5,-121 87.5,-75.19 135.76,-42.43 169.48,-25.12"/>
<polygon fill="#63b8ff" stroke="#63b8ff" points="170.55,-28.01 177.98,-20.45 167.46,-21.72 170.55,-28.01"/>
</a>
</g>
</g>
<!-- Node3 -->
<g id="Node000003" class="node">
<title>Node3</title>
<g id="a_Node000003"><a xlink:href="_joint_data_8h.html" target="_top" xlink:title="Declares a class used to store data for joint to access.">
<polygon fill="white" stroke="#666666" points="427.88,-244 363.13,-244 363.13,-224 427.88,-224 427.88,-244"/>
<text text-anchor="middle" x="395.5" y="-230.5" font-family="Helvetica,sans-Serif" font-size="10.00">JointData.h</text>
</a>
</g>
</g>
<!-- Node1&#45;&gt;Node3 -->
<g id="edge2_Node000001_Node000003" class="edge">
<title>Node1&#45;&gt;Node3</title>
<g id="a_edge2_Node000001_Node000003"><a xlink:title=" ">
<path fill="none" stroke="#63b8ff" d="M455.78,-279.59C445,-271.62 429.32,-260.02 416.65,-250.64"/>
<polygon fill="#63b8ff" stroke="#63b8ff" points="419.19,-247.43 409.07,-244.3 415.03,-253.06 419.19,-247.43"/>
</a>
</g>
</g>
<!-- Node5 -->
<g id="Node000005" class="node">
<title>Node5</title>
<g id="a_Node000005"><a xlink:href="_parse_ini_8h.html" target="_top" xlink:title="Declares the functions needed and defines mapping between the INI keys and the exo components.">
<polygon fill="white" stroke="#666666" points="456.25,-132 396.75,-132 396.75,-112 456.25,-112 456.25,-132"/>
<text text-anchor="middle" x="426.5" y="-118.5" font-family="Helvetica,sans-Serif" font-size="10.00">ParseIni.h</text>
</a>
</g>
</g>
<!-- Node1&#45;&gt;Node5 -->
<g id="edge23_Node000001_Node000005" class="edge">
<title>Node1&#45;&gt;Node5</title>
<g id="a_edge23_Node000001_Node000005"><a xlink:title=" ">
<path fill="none" stroke="#63b8ff" d="M466.12,-279.6C459.48,-253.35 440.63,-178.84 431.53,-142.89"/>
<polygon fill="#63b8ff" stroke="#63b8ff" points="434.7,-142.13 428.85,-133.3 427.91,-143.85 434.7,-142.13"/>
</a>
</g>
</g>
<!-- Node6 -->
<g id="Node000006" class="node">
<title>Node6</title>
<g id="a_Node000006"><a xlink:title=" ">
<polygon fill="#e0e0e0" stroke="#999999" points="450.63,-76 402.38,-76 402.38,-56 450.63,-56 450.63,-76"/>
<text text-anchor="middle" x="426.5" y="-62.5" font-family="Helvetica,sans-Serif" font-size="10.00">stdint.h</text>
</a>
</g>
</g>
<!-- Node1&#45;&gt;Node6 -->
<g id="edge29_Node000001_Node000006" class="edge">
<title>Node1&#45;&gt;Node6</title>
<g id="a_edge29_Node000001_Node000006"><a xlink:title=" ">
<path fill="none" stroke="#63b8ff" d="M491.39,-279.63C532.89,-261.18 613.84,-217.59 586.5,-168 559.97,-119.88 499.8,-91.52 461.28,-77.65"/>
<polygon fill="#63b8ff" stroke="#63b8ff" points="462.63,-74.06 452.03,-74.11 460.34,-80.68 462.63,-74.06"/>
</a>
</g>
</g>
<!-- Node7 -->
<g id="Node000007" class="node">
<title>Node7</title>
<g id="a_Node000007"><a xlink:href="_board_8h.html" target="_top" xlink:title="Defines the pins and peripherals for the board being used.">
<polygon fill="white" stroke="#666666" points="226.38,-132 176.63,-132 176.63,-112 226.38,-112 226.38,-132"/>
<text text-anchor="middle" x="201.5" y="-118.5" font-family="Helvetica,sans-Serif" font-size="10.00">Board.h</text>
</a>
</g>
</g>
<!-- Node1&#45;&gt;Node7 -->
<g id="edge24_Node000001_Node000007" class="edge">
<title>Node1&#45;&gt;Node7</title>
<g id="a_edge24_Node000001_Node000007"><a xlink:title=" ">
<path fill="none" stroke="#63b8ff" d="M438.04,-287.57C381.22,-283.09 259.83,-264.57 204.5,-188 195.2,-175.12 195.21,-156.78 197.11,-142.86"/>
<polygon fill="#63b8ff" stroke="#63b8ff" points="200.66,-143.89 198.99,-133.43 193.77,-142.65 200.66,-143.89"/>
</a>
</g>
</g>
<!-- Node12 -->
<g id="Node000012" class="node">
<title>Node12</title>
<g id="a_Node000012"><a xlink:href="_inclination_detector_8h.html" target="_top" xlink:title=" ">
<polygon fill="white" stroke="#666666" points="737.75,-244 633.25,-244 633.25,-224 737.75,-224 737.75,-244"/>
<text text-anchor="middle" x="685.5" y="-230.5" font-family="Helvetica,sans-Serif" font-size="10.00">InclinationDetector.h</text>
</a>
</g>
</g>
<!-- Node1&#45;&gt;Node12 -->
<g id="edge25_Node000001_Node000012" class="edge">
<title>Node1&#45;&gt;Node12</title>
<g id="a_edge25_Node000001_Node000012"><a xlink:title=" ">
<path fill="none" stroke="#63b8ff" d="M498.67,-281.49C534.45,-272.59 594.57,-257.63 636.93,-247.09"/>
<polygon fill="#63b8ff" stroke="#63b8ff" points="637.7,-250.25 646.56,-244.44 636.01,-243.46 637.7,-250.25"/>
</a>
</g>
</g>
<!-- Node3&#45;&gt;Node2 -->
<g id="edge3_Node000003_Node000002" class="edge">
<title>Node3&#45;&gt;Node2</title>
<g id="a_edge3_Node000003_Node000002"><a xlink:title=" ">
<path fill="none" stroke="#63b8ff" d="M362.82,-232.47C322.26,-230.32 252.56,-221.53 204.5,-188 173.69,-166.5 161.43,-149.07 167.5,-112 172.3,-82.71 184.43,-50.47 192.83,-30.48"/>
<polygon fill="#63b8ff" stroke="#63b8ff" points="196.39,-32.05 197.14,-21.48 189.96,-29.28 196.39,-32.05"/>
</a>
</g>
</g>
<!-- Node4 -->
<g id="Node000004" class="node">
<title>Node4</title>
<g id="a_Node000004"><a xlink:href="_motor_data_8h.html" target="_top" xlink:title="Declares a class used to store data for motors to access.">
<polygon fill="white" stroke="#666666" points="299.13,-188 229.88,-188 229.88,-168 299.13,-168 299.13,-188"/>
<text text-anchor="middle" x="264.5" y="-174.5" font-family="Helvetica,sans-Serif" font-size="10.00">MotorData.h</text>
</a>
</g>
</g>
<!-- Node3&#45;&gt;Node4 -->
<g id="edge4_Node000003_Node000004" class="edge">
<title>Node3&#45;&gt;Node4</title>
<g id="a_edge4_Node000003_Node000004"><a xlink:title=" ">
<path fill="none" stroke="#63b8ff" d="M372.68,-223.59C351.86,-215.01 320.86,-202.23 297.37,-192.55"/>
<polygon fill="#63b8ff" stroke="#63b8ff" points="299.08,-189.05 288.5,-188.48 296.41,-195.53 299.08,-189.05"/>
</a>
</g>
</g>
<!-- Node3&#45;&gt;Node5 -->
<g id="edge19_Node000003_Node000005" class="edge">
<title>Node3&#45;&gt;Node5</title>
<g id="a_edge19_Node000003_Node000005"><a xlink:title=" ">
<path fill="none" stroke="#63b8ff" d="M399.43,-223.83C403.17,-214.83 408.77,-200.66 412.5,-188 416.9,-173.08 420.55,-155.86 423.01,-142.89"/>
<polygon fill="#63b8ff" stroke="#63b8ff" points="426.58,-143.83 424.94,-133.37 419.7,-142.57 426.58,-143.83"/>
</a>
</g>
</g>
<!-- Node3&#45;&gt;Node6 -->
<g id="edge21_Node000003_Node000006" class="edge">
<title>Node3&#45;&gt;Node6</title>
<g id="a_edge21_Node000003_Node000006"><a xlink:title=" ">
<path fill="none" stroke="#63b8ff" d="M405.3,-223.55C421.74,-206.91 454.2,-170.48 465.5,-132 468,-123.47 468.61,-120.33 465.5,-112 461.52,-101.33 453.74,-91.51 446.18,-83.79"/>
<polygon fill="#63b8ff" stroke="#63b8ff" points="448.91,-81.61 439.23,-77.28 444.1,-86.69 448.91,-81.61"/>
</a>
</g>
</g>
<!-- Node3&#45;&gt;Node7 -->
<g id="edge20_Node000003_Node000007" class="edge">
<title>Node3&#45;&gt;Node7</title>
<g id="a_edge20_Node000003_Node000007"><a xlink:title=" ">
<path fill="none" stroke="#63b8ff" d="M362.84,-233.74C323.8,-232.81 258.93,-225.2 220.5,-188 208.49,-176.37 203.96,-157.61 202.3,-143.23"/>
<polygon fill="#63b8ff" stroke="#63b8ff" points="205.73,-143.13 201.49,-133.42 198.75,-143.66 205.73,-143.13"/>
</a>
</g>
</g>
<!-- Node10 -->
<g id="Node000010" class="node">
<title>Node10</title>
<g id="a_Node000010"><a xlink:href="_controller_data_8h.html" target="_top" xlink:title="Declares a class used to store data for controllers to access.">
<polygon fill="white" stroke="#666666" points="403.38,-188 317.63,-188 317.63,-168 403.38,-168 403.38,-188"/>
<text text-anchor="middle" x="360.5" y="-174.5" font-family="Helvetica,sans-Serif" font-size="10.00">ControllerData.h</text>
</a>
</g>
</g>
<!-- Node3&#45;&gt;Node10 -->
<g id="edge14_Node000003_Node000010" class="edge">
<title>Node3&#45;&gt;Node10</title>
<g id="a_edge14_Node000003_Node000010"><a xlink:title=" ">
<path fill="none" stroke="#63b8ff" d="M389.4,-223.59C384.74,-216.39 378.15,-206.23 372.45,-197.43"/>
<polygon fill="#63b8ff" stroke="#63b8ff" points="374.9,-195.79 366.53,-189.3 369.03,-199.59 374.9,-195.79"/>
</a>
</g>
</g>
<!-- Node11 -->
<g id="Node000011" class="node">
<title>Node11</title>
<g id="a_Node000011"><a xlink:title=" ">
<polygon fill="#e0e0e0" stroke="#999999" points="577.63,-188 535.38,-188 535.38,-168 577.63,-168 577.63,-188"/>
<text text-anchor="middle" x="556.5" y="-174.5" font-family="Helvetica,sans-Serif" font-size="10.00">queue</text>
</a>
</g>
</g>
<!-- Node3&#45;&gt;Node11 -->
<g id="edge22_Node000003_Node000011" class="edge">
<title>Node3&#45;&gt;Node11</title>
<g id="a_edge22_Node000003_Node000011"><a xlink:title=" ">
<path fill="none" stroke="#63b8ff" d="M423.54,-223.59C451.79,-214.12 495.29,-199.53 524.78,-189.64"/>
<polygon fill="#63b8ff" stroke="#63b8ff" points="525.59,-192.72 533.95,-186.23 523.36,-186.09 525.59,-192.72"/>
</a>
</g>
</g>
<!-- Node4&#45;&gt;Node2 -->
<g id="edge5_Node000004_Node000002" class="edge">
<title>Node4&#45;&gt;Node2</title>
<g id="a_edge5_Node000004_Node000002"><a xlink:title=" ">
<path fill="none" stroke="#63b8ff" d="M260.93,-167.6C250.93,-141.23 222.44,-66.19 208.87,-30.42"/>
<polygon fill="#63b8ff" stroke="#63b8ff" points="211.85,-29.4 205.03,-21.3 205.3,-31.89 211.85,-29.4"/>
</a>
</g>
</g>
<!-- Node4&#45;&gt;Node5 -->
<g id="edge6_Node000004_Node000005" class="edge">
<title>Node4&#45;&gt;Node5</title>
<g id="a_edge6_Node000004_Node000005"><a xlink:title=" ">
<path fill="none" stroke="#63b8ff" d="M292.72,-167.59C319.04,-158.82 358.53,-145.66 387.79,-135.9"/>
<polygon fill="#63b8ff" stroke="#63b8ff" points="388.68,-138.96 397.06,-132.48 386.47,-132.32 388.68,-138.96"/>
</a>
</g>
</g>
<!-- Node4&#45;&gt;Node6 -->
<g id="edge13_Node000004_Node000006" class="edge">
<title>Node4&#45;&gt;Node6</title>
<g id="a_edge13_Node000004_Node000006"><a xlink:title=" ">
<path fill="none" stroke="#63b8ff" d="M278.31,-167.62C306.29,-148.63 369.88,-105.45 403.95,-82.31"/>
<polygon fill="#63b8ff" stroke="#63b8ff" points="405.42,-84.87 411.72,-76.35 401.48,-79.08 405.42,-84.87"/>
</a>
</g>
</g>
<!-- Node4&#45;&gt;Node7 -->
<g id="edge8_Node000004_Node000007" class="edge">
<title>Node4&#45;&gt;Node7</title>
<g id="a_edge8_Node000004_Node000007"><a xlink:title=" ">
<path fill="none" stroke="#63b8ff" d="M253.53,-167.59C244.4,-159.77 231.21,-148.46 220.39,-139.19"/>
<polygon fill="#63b8ff" stroke="#63b8ff" points="223.22,-136.15 213.35,-132.3 218.66,-141.46 223.22,-136.15"/>
</a>
</g>
</g>
<!-- Node5&#45;&gt;Node6 -->
<g id="edge7_Node000005_Node000006" class="edge">
<title>Node5&#45;&gt;Node6</title>
<g id="a_edge7_Node000005_Node000006"><a xlink:title=" ">
<path fill="none" stroke="#63b8ff" d="M426.5,-111.59C426.5,-104.86 426.5,-95.53 426.5,-87.15"/>
<polygon fill="#63b8ff" stroke="#63b8ff" points="430,-87.3 426.5,-77.3 423,-87.3 430,-87.3"/>
</a>
</g>
</g>
<!-- Node7&#45;&gt;Node2 -->
<g id="edge12_Node000007_Node000002" class="edge">
<title>Node7&#45;&gt;Node2</title>
<g id="a_edge12_Node000007_Node000002"><a xlink:title=" ">
<path fill="none" stroke="#63b8ff" d="M201.5,-111.62C201.5,-93.92 201.5,-55.24 201.5,-31.32"/>
<polygon fill="#63b8ff" stroke="#63b8ff" points="205,-31.35 201.5,-21.35 198,-31.35 205,-31.35"/>
</a>
</g>
</g>
<!-- Node8 -->
<g id="Node000008" class="node">
<title>Node8</title>
<g id="a_Node000008"><a xlink:href="_config_8h.html" target="_top" xlink:title="Configuration variables for the codebase.">
<polygon fill="white" stroke="#666666" points="59.13,-76 7.88,-76 7.88,-56 59.13,-56 59.13,-76"/>
<text text-anchor="middle" x="33.5" y="-62.5" font-family="Helvetica,sans-Serif" font-size="10.00">Config.h</text>
</a>
</g>
</g>
<!-- Node7&#45;&gt;Node8 -->
<g id="edge9_Node000007_Node000008" class="edge">
<title>Node7&#45;&gt;Node8</title>
<g id="a_edge9_Node000007_Node000008"><a xlink:title=" ">
<path fill="none" stroke="#63b8ff" d="M176.35,-112.92C148.06,-103.82 101.87,-88.98 69.7,-78.64"/>
<polygon fill="#63b8ff" stroke="#63b8ff" points="70.97,-75.05 60.38,-75.32 68.83,-81.71 70.97,-75.05"/>
</a>
</g>
</g>
<!-- Node8&#45;&gt;Node2 -->
<g id="edge10_Node000008_Node000002" class="edge">
<title>Node8&#45;&gt;Node2</title>
<g id="a_edge10_Node000008_Node000002"><a xlink:title=" ">
<path fill="none" stroke="#63b8ff" d="M59.38,-56.68C86.84,-47.86 130.54,-33.81 162.24,-23.62"/>
<polygon fill="#63b8ff" stroke="#63b8ff" points="163.04,-26.72 171.49,-20.33 160.89,-20.05 163.04,-26.72"/>
</a>
</g>
</g>
<!-- Node9 -->
<g id="Node000009" class="node">
<title>Node9</title>
<g id="a_Node000009"><a xlink:href="_log_levels_8h.html" target="_top" xlink:title=" ">
<polygon fill="white" stroke="#666666" points="67,-20 0,-20 0,0 67,0 67,-20"/>
<text text-anchor="middle" x="33.5" y="-6.5" font-family="Helvetica,sans-Serif" font-size="10.00">LogLevels.h</text>
</a>
</g>
</g>
<!-- Node8&#45;&gt;Node9 -->
<g id="edge11_Node000008_Node000009" class="edge">
<title>Node8&#45;&gt;Node9</title>
<g id="a_edge11_Node000008_Node000009"><a xlink:title=" ">
<path fill="none" stroke="#63b8ff" d="M33.5,-55.59C33.5,-48.86 33.5,-39.53 33.5,-31.15"/>
<polygon fill="#63b8ff" stroke="#63b8ff" points="37,-31.3 33.5,-21.3 30,-31.3 37,-31.3"/>
</a>
</g>
</g>
<!-- Node10&#45;&gt;Node2 -->
<g id="edge16_Node000010_Node000002" class="edge">
<title>Node10&#45;&gt;Node2</title>
<g id="a_edge16_Node000010_Node000002"><a xlink:title=" ">
<path fill="none" stroke="#63b8ff" d="M351.5,-167.6C325.7,-140.66 251.23,-62.92 217.93,-28.15"/>
<polygon fill="#63b8ff" stroke="#63b8ff" points="220.85,-26.1 211.41,-21.3 215.79,-30.94 220.85,-26.1"/>
</a>
</g>
</g>
<!-- Node10&#45;&gt;Node5 -->
<g id="edge18_Node000010_Node000005" class="edge">
<title>Node10&#45;&gt;Node5</title>
<g id="a_edge18_Node000010_Node000005"><a xlink:title=" ">
<path fill="none" stroke="#63b8ff" d="M372,-167.59C381.55,-159.77 395.38,-148.46 406.71,-139.19"/>
<polygon fill="#63b8ff" stroke="#63b8ff" points="408.61,-141.34 414.14,-132.3 404.18,-135.92 408.61,-141.34"/>
</a>
</g>
</g>
<!-- Node10&#45;&gt;Node6 -->
<g id="edge15_Node000010_Node000006" class="edge">
<title>Node10&#45;&gt;Node6</title>
<g id="a_edge15_Node000010_Node000006"><a xlink:title=" ">
<path fill="none" stroke="#63b8ff" d="M363.31,-167.73C367.47,-154.7 376.06,-130.5 387.5,-112 393.65,-102.06 401.98,-92.12 409.36,-84.12"/>
<polygon fill="#63b8ff" stroke="#63b8ff" points="411.46,-86.93 415.85,-77.29 406.41,-82.1 411.46,-86.93"/>
</a>
</g>
</g>
<!-- Node10&#45;&gt;Node7 -->
<g id="edge17_Node000010_Node000007" class="edge">
<title>Node10&#45;&gt;Node7</title>
<g id="a_edge17_Node000010_Node000007"><a xlink:title=" ">
<path fill="none" stroke="#63b8ff" d="M332.8,-167.59C306.18,-158.55 265.82,-144.85 236.88,-135.02"/>
<polygon fill="#63b8ff" stroke="#63b8ff" points="238.38,-131.49 227.78,-131.59 236.13,-138.12 238.38,-131.49"/>
</a>
</g>
</g>
<!-- Node12&#45;&gt;Node2 -->
<g id="edge26_Node000012_Node000002" class="edge">
<title>Node12&#45;&gt;Node2</title>
<g id="a_edge26_Node000012_Node000002"><a xlink:title=" ">
<path fill="none" stroke="#63b8ff" d="M677.15,-223.72C657.62,-202.33 606.87,-148.62 557.5,-112 517.21,-82.11 506.69,-73.01 459.5,-56 385.18,-29.21 292.89,-18.06 241.27,-13.66"/>
<polygon fill="#63b8ff" stroke="#63b8ff" points="241.83,-10.11 231.58,-12.79 241.27,-17.09 241.83,-10.11"/>
</a>
</g>
</g>
<!-- Node12&#45;&gt;Node11 -->
<g id="edge27_Node000012_Node000011" class="edge">
<title>Node12&#45;&gt;Node11</title>
<g id="a_edge27_Node000012_Node000011"><a xlink:title=" ">
<path fill="none" stroke="#63b8ff" d="M663.03,-223.59C642.25,-214.89 611.15,-201.88 587.91,-192.15"/>
<polygon fill="#63b8ff" stroke="#63b8ff" points="589.43,-188.57 578.86,-187.94 586.73,-195.03 589.43,-188.57"/>
</a>
</g>
</g>
<!-- Node13 -->
<g id="Node000013" class="node">
<title>Node13</title>
<g id="a_Node000013"><a xlink:title=" ">
<polygon fill="#e0e0e0" stroke="#999999" points="711.13,-188 671.88,-188 671.88,-168 711.13,-168 711.13,-188"/>
<text text-anchor="middle" x="691.5" y="-174.5" font-family="Helvetica,sans-Serif" font-size="10.00">utility</text>
</a>
</g>
</g>
<!-- Node12&#45;&gt;Node13 -->
<g id="edge28_Node000012_Node000013" class="edge">
<title>Node12&#45;&gt;Node13</title>
<g id="a_edge28_Node000012_Node000013"><a xlink:title=" ">
<path fill="none" stroke="#63b8ff" d="M686.55,-223.59C687.29,-216.86 688.33,-207.53 689.26,-199.15"/>
<polygon fill="#63b8ff" stroke="#63b8ff" points="692.84,-199.62 690.47,-189.3 685.88,-198.85 692.84,-199.62"/>
</a>
</g>
</g>
</g>
</svg>
