<?xml version="1.0" encoding="UTF-8" standalone="no"?>
<!DOCTYPE svg PUBLIC "-//W3C//DTD SVG 1.1//EN"
 "http://www.w3.org/Graphics/SVG/1.1/DTD/svg11.dtd">
<!-- Generated by graphviz version 8.1.0 (20230707.0739)
 -->
<!-- Title: Leg.cpp Pages: 1 -->
<svg width="174pt" height="196pt"
 viewBox="0.00 0.00 173.50 196.00" xmlns="http://www.w3.org/2000/svg" xmlns:xlink="http://www.w3.org/1999/xlink">
<g id="graph0" class="graph" transform="scale(1 1) rotate(0) translate(4 192)">
<title>Leg.cpp</title>
<!-- Node1 -->
<g id="Node000001" class="node">
<title>Node1</title>
<g id="a_Node000001"><a xlink:title=" ">
<polygon fill="#999999" stroke="#666666" points="77.25,-188 26.75,-188 26.75,-168 77.25,-168 77.25,-188"/>
<text text-anchor="middle" x="52" y="-174.5" font-family="Helvetica,sans-Serif" font-size="10.00">Leg.cpp</text>
</a>
</g>
</g>
<!-- Node2 -->
<g id="Node000002" class="node">
<title>Node2</title>
<g id="a_Node000002"><a xlink:href="_leg_8h.html" target="_top" xlink:title="Declares a class used to operate a leg.">
<polygon fill="white" stroke="#666666" points="40,-132 0,-132 0,-112 40,-112 40,-132"/>
<text text-anchor="middle" x="20" y="-118.5" font-family="Helvetica,sans-Serif" font-size="10.00">Leg.h</text>
</a>
</g>
</g>
<!-- Node1&#45;&gt;Node2 -->
<g id="edge1_Node000001_Node000002" class="edge">
<title>Node1&#45;&gt;Node2</title>
<g id="a_edge1_Node000001_Node000002"><a xlink:title=" ">
<path fill="none" stroke="#63b8ff" d="M46.43,-167.59C42.2,-160.47 36.27,-150.45 31.09,-141.72"/>
<polygon fill="#63b8ff" stroke="#63b8ff" points="33.62,-140.12 25.51,-133.3 27.6,-143.69 33.62,-140.12"/>
</a>
</g>
</g>
<!-- Node3 -->
<g id="Node000003" class="node">
<title>Node3</title>
<g id="a_Node000003"><a xlink:href="_logger_8h.html" target="_top" xlink:title=" ">
<polygon fill="white" stroke="#666666" points="111.75,-132 58.25,-132 58.25,-112 111.75,-112 111.75,-132"/>
<text text-anchor="middle" x="85" y="-118.5" font-family="Helvetica,sans-Serif" font-size="10.00">Logger.h</text>
</a>
</g>
</g>
<!-- Node1&#45;&gt;Node3 -->
<g id="edge2_Node000001_Node000003" class="edge">
<title>Node1&#45;&gt;Node3</title>
<g id="a_edge2_Node000001_Node000003"><a xlink:title=" ">
<path fill="none" stroke="#63b8ff" d="M57.75,-167.59C62.15,-160.39 68.36,-150.23 73.74,-141.43"/>
<polygon fill="#63b8ff" stroke="#63b8ff" points="77.09,-143.66 79.32,-133.3 71.12,-140.01 77.09,-143.66"/>
</a>
</g>
</g>
<!-- Node4 -->
<g id="Node000004" class="node">
<title>Node4</title>
<g id="a_Node000004"><a xlink:title=" ">
<polygon fill="#e0e0e0" stroke="#999999" points="73.63,-20 16.38,-20 16.38,0 73.63,0 73.63,-20"/>
<text text-anchor="middle" x="45" y="-6.5" font-family="Helvetica,sans-Serif" font-size="10.00">Arduino.h</text>
</a>
</g>
</g>
<!-- Node3&#45;&gt;Node4 -->
<g id="edge3_Node000003_Node000004" class="edge">
<title>Node3&#45;&gt;Node4</title>
<g id="a_edge3_Node000003_Node000004"><a xlink:title=" ">
<path fill="none" stroke="#63b8ff" d="M75.05,-111.7C66.75,-103.27 55.42,-90.03 50,-76 44.44,-61.61 43.38,-44.12 43.61,-30.91"/>
<polygon fill="#63b8ff" stroke="#63b8ff" points="47.14,-31.34 44.09,-21.19 40.14,-31.03 47.14,-31.34"/>
</a>
</g>
</g>
<!-- Node5 -->
<g id="Node000005" class="node">
<title>Node5</title>
<g id="a_Node000005"><a xlink:href="_log_levels_8h.html" target="_top" xlink:title=" ">
<polygon fill="white" stroke="#666666" points="165.5,-20 98.5,-20 98.5,0 165.5,0 165.5,-20"/>
<text text-anchor="middle" x="132" y="-6.5" font-family="Helvetica,sans-Serif" font-size="10.00">LogLevels.h</text>
</a>
</g>
</g>
<!-- Node3&#45;&gt;Node5 -->
<g id="edge4_Node000003_Node000005" class="edge">
<title>Node3&#45;&gt;Node5</title>
<g id="a_edge4_Node000003_Node000005"><a xlink:title=" ">
<path fill="none" stroke="#63b8ff" d="M94.59,-111.55C102.66,-103.02 113.84,-89.73 120,-76 126.4,-61.73 129.39,-44.23 130.78,-30.99"/>
<polygon fill="#63b8ff" stroke="#63b8ff" points="134.34,-31.49 131.67,-21.24 127.36,-30.92 134.34,-31.49"/>
</a>
</g>
</g>
<!-- Node6 -->
<g id="Node000006" class="node">
<title>Node6</title>
<g id="a_Node000006"><a xlink:href="_config_8h.html" target="_top" xlink:title="Configuration variables for the codebase.">
<polygon fill="white" stroke="#666666" points="110.63,-76 59.38,-76 59.38,-56 110.63,-56 110.63,-76"/>
<text text-anchor="middle" x="85" y="-62.5" font-family="Helvetica,sans-Serif" font-size="10.00">Config.h</text>
</a>
</g>
</g>
<!-- Node3&#45;&gt;Node6 -->
<g id="edge5_Node000003_Node000006" class="edge">
<title>Node3&#45;&gt;Node6</title>
<g id="a_edge5_Node000003_Node000006"><a xlink:title=" ">
<path fill="none" stroke="#63b8ff" d="M85,-111.59C85,-104.86 85,-95.53 85,-87.15"/>
<polygon fill="#63b8ff" stroke="#63b8ff" points="88.5,-87.3 85,-77.3 81.5,-87.3 88.5,-87.3"/>
</a>
</g>
</g>
<!-- Node6&#45;&gt;Node4 -->
<g id="edge6_Node000006_Node000004" class="edge">
<title>Node6&#45;&gt;Node4</title>
<g id="a_edge6_Node000006_Node000004"><a xlink:title=" ">
<path fill="none" stroke="#63b8ff" d="M78.03,-55.59C72.58,-48.24 64.85,-37.8 58.23,-28.87"/>
<polygon fill="#63b8ff" stroke="#63b8ff" points="60.65,-27.25 51.89,-21.3 55.03,-31.42 60.65,-27.25"/>
</a>
</g>
</g>
<!-- Node6&#45;&gt;Node5 -->
<g id="edge7_Node000006_Node000005" class="edge">
<title>Node6&#45;&gt;Node5</title>
<g id="a_edge7_Node000006_Node000005"><a xlink:title=" ">
<path fill="none" stroke="#63b8ff" d="M93.19,-55.59C99.66,-48.16 108.87,-37.58 116.7,-28.58"/>
<polygon fill="#63b8ff" stroke="#63b8ff" points="119.98,-31.14 123.91,-21.3 114.7,-26.54 119.98,-31.14"/>
</a>
</g>
</g>
</g>
</svg>
