<?xml version="1.0" encoding="UTF-8" standalone="no"?>
<!DOCTYPE svg PUBLIC "-//W3C//DTD SVG 1.1//EN"
 "http://www.w3.org/Graphics/SVG/1.1/DTD/svg11.dtd">
<!-- Generated by graphviz version 8.1.0 (20230707.0739)
 -->
<!-- Title: LegData.cpp Pages: 1 -->
<!--zoomable 364 -->

<svg id="main" version="1.1" xmlns="http://www.w3.org/2000/svg" xmlns:xlink="http://www.w3.org/1999/xlink" xml:space="preserve" onload="init(evt)">
<style type="text/css"><![CDATA[
.node, .edge {opacity: 0.7;}
.node.selected, .edge.selected {opacity: 1;}
.edge:hover path { stroke: red; }
.edge:hover polygon { stroke: red; fill: red; }
]]></style>

<defs>
  <circle id="rim" cx="0" cy="0" r="7"/>
  <circle id="rim2" cx="0" cy="0" r="3.5"/>
  <g id="zoomPlus">
    <use xlink:href="#rim" fill="#404040"><set attributeName="fill" to="#808080" begin="zoomplus.mouseover" end="zoomplus.mouseout"/></use>
    <path d="M-4,0h8M0,-4v8" fill="none" stroke="white" stroke-width="1.5" pointer-events="none"/>
  </g>
  <g id="zoomMin">
    <use xlink:href="#rim" fill="#404040"><set attributeName="fill" to="#808080" begin="zoomminus.mouseover" end="zoomminus.mouseout"/></use>
    <path d="M-4,0h8" fill="none" stroke="white" stroke-width="1.5" pointer-events="none"/>
  </g>
  <g id="arrowUp" transform="translate(30 24)">
    <use xlink:href="#rim"/>
    <path pointer-events="none" fill="none" stroke="white" stroke-width="1.5" d="M0,-3.0v7 M-2.5,-0.5L0,-3.0L2.5,-0.5"/>
  </g>
  <g id="arrowRight" transform="rotate(90) translate(36 -43)">
    <use xlink:href="#rim"/>
    <path pointer-events="none" fill="none" stroke="white" stroke-width="1.5" d="M0,-3.0v7 M-2.5,-0.5L0,-3.0L2.5,-0.5"/>
  </g>
  <g id="arrowDown" transform="rotate(180) translate(-30 -48)">
    <use xlink:href="#rim"/>
    <path pointer-events="none" fill="none" stroke="white" stroke-width="1.5" d="M0,-3.0v7 M-2.5,-0.5L0,-3.0L2.5,-0.5"/>
  </g>
  <g id="arrowLeft" transform="rotate(270) translate(-36 17)">
    <use xlink:href="#rim"/>
    <path pointer-events="none" fill="none" stroke="white" stroke-width="1.5" d="M0,-3.0v7 M-2.5,-0.5L0,-3.0L2.5,-0.5"/>
  </g>
  <g id="resetDef">
    <use xlink:href="#rim2" fill="#404040"><set attributeName="fill" to="#808080" begin="reset.mouseover" end="reset.mouseout"/></use>
  </g>
</defs>
<script type="application/ecmascript">
var viewWidth = 674;
var viewHeight = 364;
var sectionId = 'dynsection-0';
</script>
<script type="application/ecmascript" xlink:href="svg.min.js"/>
<svg id="graph" class="graph">
<g id="viewport">
<title>LegData.cpp</title>
<!-- Node1 -->
<g id="Node000001" class="node">
<title>Node1</title>
<g id="a_Node000001"><a xlink:title=" ">
<polygon fill="#999999" stroke="#666666" points="516.38,-356 445.63,-356 445.63,-336 516.38,-336 516.38,-356"/>
<text text-anchor="middle" x="481" y="-342.5" font-family="Helvetica,sans-Serif" font-size="10.00">LegData.cpp</text>
</a>
</g>
</g>
<!-- Node2 -->
<g id="Node000002" class="node">
<title>Node2</title>
<g id="a_Node000002"><a xlink:href="_leg_data_8h.html" target="_top" xlink:title="Declares a class used to store data for leg to access.">
<polygon fill="white" stroke="#666666" points="341.13,-300 280.88,-300 280.88,-280 341.13,-280 341.13,-300"/>
<text text-anchor="middle" x="311" y="-286.5" font-family="Helvetica,sans-Serif" font-size="10.00">LegData.h</text>
</a>
</g>
</g>
<!-- Node1&#45;&gt;Node2 -->
<g id="edge1_Node000001_Node000002" class="edge">
<title>Node1&#45;&gt;Node2</title>
<g id="a_edge1_Node000001_Node000002"><a xlink:title=" ">
<path fill="none" stroke="#63b8ff" d="M451.39,-335.59C423.65,-326.78 381.96,-313.54 351.22,-303.78"/>
<polygon fill="#63b8ff" stroke="#63b8ff" points="352.43,-300.17 341.84,-300.48 350.31,-306.84 352.43,-300.17"/>
</a>
</g>
</g>
<!-- Node15 -->
<g id="Node000015" class="node">
<title>Node15</title>
<g id="a_Node000015"><a xlink:href="_logger_8h.html" target="_top" xlink:title=" ">
<polygon fill="white" stroke="#666666" points="665.75,-132 612.25,-132 612.25,-112 665.75,-112 665.75,-132"/>
<text text-anchor="middle" x="639" y="-118.5" font-family="Helvetica,sans-Serif" font-size="10.00">Logger.h</text>
</a>
</g>
</g>
<!-- Node1&#45;&gt;Node15 -->
<g id="edge31_Node000001_Node000015" class="edge">
<title>Node1&#45;&gt;Node15</title>
<g id="a_edge31_Node000001_Node000015"><a xlink:title=" ">
<path fill="none" stroke="#63b8ff" d="M492.27,-335.58C511.99,-318.69 553.29,-281.51 581,-244 597.77,-221.29 598.74,-213.43 611,-188 618.26,-172.93 625.72,-155.51 631.11,-142.5"/>
<polygon fill="#63b8ff" stroke="#63b8ff" points="634.71,-143.95 635.26,-133.37 628.23,-141.3 634.71,-143.95"/>
</a>
</g>
</g>
<!-- Node3 -->
<g id="Node000003" class="node">
<title>Node3</title>
<g id="a_Node000003"><a xlink:title=" ">
<polygon fill="#e0e0e0" stroke="#999999" points="441.63,-20 384.38,-20 384.38,0 441.63,0 441.63,-20"/>
<text text-anchor="middle" x="413" y="-6.5" font-family="Helvetica,sans-Serif" font-size="10.00">Arduino.h</text>
</a>
</g>
</g>
<!-- Node2&#45;&gt;Node3 -->
<g id="edge2_Node000002_Node000003" class="edge">
<title>Node2&#45;&gt;Node3</title>
<g id="a_edge2_Node000002_Node000003"><a xlink:title=" ">
<path fill="none" stroke="#63b8ff" d="M280.61,-284.88C202.36,-273.44 0,-238.13 0,-179 0,-179 0,-179 0,-121 0,-44.29 269.38,-19.74 373.02,-13.13"/>
<polygon fill="#63b8ff" stroke="#63b8ff" points="373.19,-16.57 382.96,-12.46 372.76,-9.58 373.19,-16.57"/>
</a>
</g>
</g>
<!-- Node4 -->
<g id="Node000004" class="node">
<title>Node4</title>
<g id="a_Node000004"><a xlink:href="_joint_data_8h.html" target="_top" xlink:title="Declares a class used to store data for joint to access.">
<polygon fill="white" stroke="#666666" points="343.38,-244 278.63,-244 278.63,-224 343.38,-224 343.38,-244"/>
<text text-anchor="middle" x="311" y="-230.5" font-family="Helvetica,sans-Serif" font-size="10.00">JointData.h</text>
</a>
</g>
</g>
<!-- Node2&#45;&gt;Node4 -->
<g id="edge3_Node000002_Node000004" class="edge">
<title>Node2&#45;&gt;Node4</title>
<g id="a_edge3_Node000002_Node000004"><a xlink:title=" ">
<path fill="none" stroke="#63b8ff" d="M311,-279.59C311,-272.86 311,-263.53 311,-255.15"/>
<polygon fill="#63b8ff" stroke="#63b8ff" points="314.5,-255.3 311,-245.3 307.5,-255.3 314.5,-255.3"/>
</a>
</g>
</g>
<!-- Node6 -->
<g id="Node000006" class="node">
<title>Node6</title>
<g id="a_Node000006"><a xlink:href="_parse_ini_8h.html" target="_top" xlink:title="Declares the functions needed and defines mapping between the INI keys and the exo components.">
<polygon fill="white" stroke="#666666" points="186.75,-132 127.25,-132 127.25,-112 186.75,-112 186.75,-132"/>
<text text-anchor="middle" x="157" y="-118.5" font-family="Helvetica,sans-Serif" font-size="10.00">ParseIni.h</text>
</a>
</g>
</g>
<!-- Node2&#45;&gt;Node6 -->
<g id="edge24_Node000002_Node000006" class="edge">
<title>Node2&#45;&gt;Node6</title>
<g id="a_edge24_Node000002_Node000006"><a xlink:title=" ">
<path fill="none" stroke="#63b8ff" d="M281.54,-279.5C244.73,-265.85 183.36,-236.81 157,-188 149.53,-174.18 150.19,-156.16 152.34,-142.61"/>
<polygon fill="#63b8ff" stroke="#63b8ff" points="155.92,-143.55 154.45,-133.06 149.06,-142.18 155.92,-143.55"/>
</a>
</g>
</g>
<!-- Node7 -->
<g id="Node000007" class="node">
<title>Node7</title>
<g id="a_Node000007"><a xlink:title=" ">
<polygon fill="#e0e0e0" stroke="#999999" points="181.13,-76 132.88,-76 132.88,-56 181.13,-56 181.13,-76"/>
<text text-anchor="middle" x="157" y="-62.5" font-family="Helvetica,sans-Serif" font-size="10.00">stdint.h</text>
</a>
</g>
</g>
<!-- Node2&#45;&gt;Node7 -->
<g id="edge30_Node000002_Node000007" class="edge">
<title>Node2&#45;&gt;Node7</title>
<g id="a_edge30_Node000002_Node000007"><a xlink:title=" ">
<path fill="none" stroke="#63b8ff" d="M280.6,-283.99C253.04,-278.19 212.49,-266.43 184,-244 137.31,-207.25 127.92,-188.96 111,-132 108.47,-123.48 107.55,-120.19 111,-112 115.74,-100.72 124.85,-90.86 133.71,-83.27"/>
<polygon fill="#63b8ff" stroke="#63b8ff" points="135.65,-85.4 141.32,-76.46 131.31,-79.91 135.65,-85.4"/>
</a>
</g>
</g>
<!-- Node8 -->
<g id="Node000008" class="node">
<title>Node8</title>
<g id="a_Node000008"><a xlink:href="_board_8h.html" target="_top" xlink:title="Defines the pins and peripherals for the board being used.">
<polygon fill="white" stroke="#666666" points="406.88,-132 357.13,-132 357.13,-112 406.88,-112 406.88,-132"/>
<text text-anchor="middle" x="382" y="-118.5" font-family="Helvetica,sans-Serif" font-size="10.00">Board.h</text>
</a>
</g>
</g>
<!-- Node2&#45;&gt;Node8 -->
<g id="edge25_Node000002_Node000008" class="edge">
<title>Node2&#45;&gt;Node8</title>
<g id="a_edge25_Node000002_Node000008"><a xlink:title=" ">
<path fill="none" stroke="#63b8ff" d="M341.54,-286.17C398.63,-280.42 518.94,-266.03 554,-244 580.12,-227.59 585.41,-217.32 595,-188 597.76,-179.55 600.6,-174.9 595,-168 573.11,-141 472.74,-129.57 417.95,-125.27"/>
<polygon fill="#63b8ff" stroke="#63b8ff" points="418.22,-121.71 407.99,-124.46 417.7,-128.69 418.22,-121.71"/>
</a>
</g>
</g>
<!-- Node13 -->
<g id="Node000013" class="node">
<title>Node13</title>
<g id="a_Node000013"><a xlink:href="_inclination_detector_8h.html" target="_top" xlink:title=" ">
<polygon fill="white" stroke="#666666" points="545.25,-244 440.75,-244 440.75,-224 545.25,-224 545.25,-244"/>
<text text-anchor="middle" x="493" y="-230.5" font-family="Helvetica,sans-Serif" font-size="10.00">InclinationDetector.h</text>
</a>
</g>
</g>
<!-- Node2&#45;&gt;Node13 -->
<g id="edge26_Node000002_Node000013" class="edge">
<title>Node2&#45;&gt;Node13</title>
<g id="a_edge26_Node000002_Node000013"><a xlink:title=" ">
<path fill="none" stroke="#63b8ff" d="M341.46,-279.96C371.41,-271.08 417.37,-257.44 450.83,-247.51"/>
<polygon fill="#63b8ff" stroke="#63b8ff" points="451.62,-250.63 460.21,-244.43 449.63,-243.92 451.62,-250.63"/>
</a>
</g>
</g>
<!-- Node4&#45;&gt;Node3 -->
<g id="edge4_Node000004_Node000003" class="edge">
<title>Node4&#45;&gt;Node3</title>
<g id="a_edge4_Node000004_Node000003"><a xlink:title=" ">
<path fill="none" stroke="#63b8ff" d="M330.8,-223.64C346.08,-215.71 367.08,-203.21 382,-188 402.39,-167.21 408.15,-160.04 416,-132 425.64,-97.55 421.13,-55.41 417.03,-31.04"/>
<polygon fill="#63b8ff" stroke="#63b8ff" points="420.31,-30.54 415.06,-21.34 413.43,-31.8 420.31,-30.54"/>
</a>
</g>
</g>
<!-- Node5 -->
<g id="Node000005" class="node">
<title>Node5</title>
<g id="a_Node000005"><a xlink:href="_motor_data_8h.html" target="_top" xlink:title="Declares a class used to store data for motors to access.">
<polygon fill="white" stroke="#666666" points="249.63,-188 180.38,-188 180.38,-168 249.63,-168 249.63,-188"/>
<text text-anchor="middle" x="215" y="-174.5" font-family="Helvetica,sans-Serif" font-size="10.00">MotorData.h</text>
</a>
</g>
</g>
<!-- Node4&#45;&gt;Node5 -->
<g id="edge5_Node000004_Node000005" class="edge">
<title>Node4&#45;&gt;Node5</title>
<g id="a_edge5_Node000004_Node000005"><a xlink:title=" ">
<path fill="none" stroke="#63b8ff" d="M294.28,-223.59C279.64,-215.36 258.12,-203.26 241.2,-193.74"/>
<polygon fill="#63b8ff" stroke="#63b8ff" points="243.28,-190.33 232.85,-188.48 239.85,-196.43 243.28,-190.33"/>
</a>
</g>
</g>
<!-- Node4&#45;&gt;Node6 -->
<g id="edge20_Node000004_Node000006" class="edge">
<title>Node4&#45;&gt;Node6</title>
<g id="a_edge20_Node000004_Node000006"><a xlink:title=" ">
<path fill="none" stroke="#63b8ff" d="M278.27,-231.53C246.25,-228.29 198.42,-218.28 171,-188 159.98,-175.83 156.88,-157.13 156.31,-142.91"/>
<polygon fill="#63b8ff" stroke="#63b8ff" points="159.81,-143.25 156.3,-133.25 152.81,-143.25 159.81,-143.25"/>
</a>
</g>
</g>
<!-- Node4&#45;&gt;Node7 -->
<g id="edge22_Node000004_Node000007" class="edge">
<title>Node4&#45;&gt;Node7</title>
<g id="a_edge22_Node000004_Node000007"><a xlink:title=" ">
<path fill="none" stroke="#63b8ff" d="M278.16,-229.82C244.93,-225.23 193.41,-214.18 157,-188 126.18,-165.84 104.73,-147.57 118,-112 121.98,-101.33 129.76,-91.51 137.32,-83.79"/>
<polygon fill="#63b8ff" stroke="#63b8ff" points="139.4,-86.69 144.27,-77.28 134.59,-81.61 139.4,-86.69"/>
</a>
</g>
</g>
<!-- Node4&#45;&gt;Node8 -->
<g id="edge21_Node000004_Node000008" class="edge">
<title>Node4&#45;&gt;Node8</title>
<g id="a_edge21_Node000004_Node000008"><a xlink:title=" ">
<path fill="none" stroke="#63b8ff" d="M325.86,-223.67C337.56,-215.58 353.45,-202.87 363,-188 371.85,-174.23 376.69,-156.21 379.27,-142.64"/>
<polygon fill="#63b8ff" stroke="#63b8ff" points="382.84,-143.51 380.99,-133.08 375.93,-142.38 382.84,-143.51"/>
</a>
</g>
</g>
<!-- Node11 -->
<g id="Node000011" class="node">
<title>Node11</title>
<g id="a_Node000011"><a xlink:href="_controller_data_8h.html" target="_top" xlink:title="Declares a class used to store data for controllers to access.">
<polygon fill="white" stroke="#666666" points="353.88,-188 268.13,-188 268.13,-168 353.88,-168 353.88,-188"/>
<text text-anchor="middle" x="311" y="-174.5" font-family="Helvetica,sans-Serif" font-size="10.00">ControllerData.h</text>
</a>
</g>
</g>
<!-- Node4&#45;&gt;Node11 -->
<g id="edge15_Node000004_Node000011" class="edge">
<title>Node4&#45;&gt;Node11</title>
<g id="a_edge15_Node000004_Node000011"><a xlink:title=" ">
<path fill="none" stroke="#63b8ff" d="M311,-223.59C311,-216.86 311,-207.53 311,-199.15"/>
<polygon fill="#63b8ff" stroke="#63b8ff" points="314.5,-199.3 311,-189.3 307.5,-199.3 314.5,-199.3"/>
</a>
</g>
</g>
<!-- Node12 -->
<g id="Node000012" class="node">
<title>Node12</title>
<g id="a_Node000012"><a xlink:title=" ">
<polygon fill="#e0e0e0" stroke="#999999" points="490.13,-188 447.88,-188 447.88,-168 490.13,-168 490.13,-188"/>
<text text-anchor="middle" x="469" y="-174.5" font-family="Helvetica,sans-Serif" font-size="10.00">queue</text>
</a>
</g>
</g>
<!-- Node4&#45;&gt;Node12 -->
<g id="edge23_Node000004_Node000012" class="edge">
<title>Node4&#45;&gt;Node12</title>
<g id="a_edge23_Node000004_Node000012"><a xlink:title=" ">
<path fill="none" stroke="#63b8ff" d="M338.52,-223.59C366.12,-214.16 408.56,-199.66 437.49,-189.77"/>
<polygon fill="#63b8ff" stroke="#63b8ff" points="438.52,-192.77 446.86,-186.23 436.26,-186.15 438.52,-192.77"/>
</a>
</g>
</g>
<!-- Node5&#45;&gt;Node3 -->
<g id="edge6_Node000005_Node000003" class="edge">
<title>Node5&#45;&gt;Node3</title>
<g id="a_edge6_Node000005_Node000003"><a xlink:title=" ">
<path fill="none" stroke="#63b8ff" d="M226.21,-167.6C258.61,-140.44 352.65,-61.6 393.58,-27.28"/>
<polygon fill="#63b8ff" stroke="#63b8ff" points="395.5,-29.4 400.91,-20.3 391,-24.04 395.5,-29.4"/>
</a>
</g>
</g>
<!-- Node5&#45;&gt;Node6 -->
<g id="edge7_Node000005_Node000006" class="edge">
<title>Node5&#45;&gt;Node6</title>
<g id="a_edge7_Node000005_Node000006"><a xlink:title=" ">
<path fill="none" stroke="#63b8ff" d="M204.9,-167.59C196.66,-159.93 184.83,-148.91 174.99,-139.75"/>
<polygon fill="#63b8ff" stroke="#63b8ff" points="177.69,-137.55 167.99,-133.3 172.92,-142.67 177.69,-137.55"/>
</a>
</g>
</g>
<!-- Node5&#45;&gt;Node7 -->
<g id="edge14_Node000005_Node000007" class="edge">
<title>Node5&#45;&gt;Node7</title>
<g id="a_edge14_Node000005_Node000007"><a xlink:title=" ">
<path fill="none" stroke="#63b8ff" d="M213.57,-167.69C211.29,-154.62 206.02,-130.37 196,-112 190.48,-101.87 182.35,-92.02 174.95,-84.13"/>
<polygon fill="#63b8ff" stroke="#63b8ff" points="177.87,-82.08 168.36,-77.42 172.88,-87 177.87,-82.08"/>
</a>
</g>
</g>
<!-- Node5&#45;&gt;Node8 -->
<g id="edge9_Node000005_Node000008" class="edge">
<title>Node5&#45;&gt;Node8</title>
<g id="a_edge9_Node000005_Node000008"><a xlink:title=" ">
<path fill="none" stroke="#63b8ff" d="M244.09,-167.59C272.59,-158.38 316.09,-144.31 346.59,-134.45"/>
<polygon fill="#63b8ff" stroke="#63b8ff" points="347.35,-137.56 355.79,-131.15 345.2,-130.9 347.35,-137.56"/>
</a>
</g>
</g>
<!-- Node6&#45;&gt;Node7 -->
<g id="edge8_Node000006_Node000007" class="edge">
<title>Node6&#45;&gt;Node7</title>
<g id="a_edge8_Node000006_Node000007"><a xlink:title=" ">
<path fill="none" stroke="#63b8ff" d="M157,-111.59C157,-104.86 157,-95.53 157,-87.15"/>
<polygon fill="#63b8ff" stroke="#63b8ff" points="160.5,-87.3 157,-77.3 153.5,-87.3 160.5,-87.3"/>
</a>
</g>
</g>
<!-- Node8&#45;&gt;Node3 -->
<g id="edge13_Node000008_Node000003" class="edge">
<title>Node8&#45;&gt;Node3</title>
<g id="a_edge13_Node000008_Node000003"><a xlink:title=" ">
<path fill="none" stroke="#63b8ff" d="M384.64,-111.62C389.68,-93.76 400.73,-54.53 407.46,-30.67"/>
<polygon fill="#63b8ff" stroke="#63b8ff" points="411.02,-31.93 410.36,-21.35 404.28,-30.03 411.02,-31.93"/>
</a>
</g>
</g>
<!-- Node9 -->
<g id="Node000009" class="node">
<title>Node9</title>
<g id="a_Node000009"><a xlink:href="_config_8h.html" target="_top" xlink:title="Configuration variables for the codebase.">
<polygon fill="white" stroke="#666666" points="597.63,-76 546.38,-76 546.38,-56 597.63,-56 597.63,-76"/>
<text text-anchor="middle" x="572" y="-62.5" font-family="Helvetica,sans-Serif" font-size="10.00">Config.h</text>
</a>
</g>
</g>
<!-- Node8&#45;&gt;Node9 -->
<g id="edge10_Node000008_Node000009" class="edge">
<title>Node8&#45;&gt;Node9</title>
<g id="a_edge10_Node000008_Node000009"><a xlink:title=" ">
<path fill="none" stroke="#63b8ff" d="M407.23,-113.83C440.12,-104.48 497.88,-88.07 535.54,-77.36"/>
<polygon fill="#63b8ff" stroke="#63b8ff" points="536.39,-80.47 545.06,-74.37 534.48,-73.74 536.39,-80.47"/>
</a>
</g>
</g>
<!-- Node9&#45;&gt;Node3 -->
<g id="edge11_Node000009_Node000003" class="edge">
<title>Node9&#45;&gt;Node3</title>
<g id="a_edge11_Node000009_Node000003"><a xlink:title=" ">
<path fill="none" stroke="#63b8ff" d="M546.1,-56.2C520.32,-47.45 480.45,-33.91 451.07,-23.93"/>
<polygon fill="#63b8ff" stroke="#63b8ff" points="452.35,-20.33 441.76,-20.43 450.1,-26.96 452.35,-20.33"/>
</a>
</g>
</g>
<!-- Node10 -->
<g id="Node000010" class="node">
<title>Node10</title>
<g id="a_Node000010"><a xlink:href="_log_levels_8h.html" target="_top" xlink:title=" ">
<polygon fill="white" stroke="#666666" points="651.5,-20 584.5,-20 584.5,0 651.5,0 651.5,-20"/>
<text text-anchor="middle" x="618" y="-6.5" font-family="Helvetica,sans-Serif" font-size="10.00">LogLevels.h</text>
</a>
</g>
</g>
<!-- Node9&#45;&gt;Node10 -->
<g id="edge12_Node000009_Node000010" class="edge">
<title>Node9&#45;&gt;Node10</title>
<g id="a_edge12_Node000009_Node000010"><a xlink:title=" ">
<path fill="none" stroke="#63b8ff" d="M580.01,-55.59C586.34,-48.16 595.36,-37.58 603.02,-28.58"/>
<polygon fill="#63b8ff" stroke="#63b8ff" points="606.26,-31.18 610.08,-21.3 600.93,-26.64 606.26,-31.18"/>
</a>
</g>
</g>
<!-- Node11&#45;&gt;Node3 -->
<g id="edge17_Node000011_Node000003" class="edge">
<title>Node11&#45;&gt;Node3</title>
<g id="a_edge17_Node000011_Node000003"><a xlink:title=" ">
<path fill="none" stroke="#63b8ff" d="M316.11,-167.65C323.11,-154.94 336.16,-131.55 348,-112 365.75,-82.71 387.48,-49.43 400.78,-29.33"/>
<polygon fill="#63b8ff" stroke="#63b8ff" points="404.12,-31.63 406.73,-21.36 398.29,-27.76 404.12,-31.63"/>
</a>
</g>
</g>
<!-- Node11&#45;&gt;Node6 -->
<g id="edge19_Node000011_Node000006" class="edge">
<title>Node11&#45;&gt;Node6</title>
<g id="a_edge19_Node000011_Node000006"><a xlink:title=" ">
<path fill="none" stroke="#63b8ff" d="M284.18,-167.59C259.26,-158.86 221.94,-145.77 194.17,-136.03"/>
<polygon fill="#63b8ff" stroke="#63b8ff" points="195.63,-132.49 185.03,-132.48 193.31,-139.09 195.63,-132.49"/>
</a>
</g>
</g>
<!-- Node11&#45;&gt;Node7 -->
<g id="edge16_Node000011_Node000007" class="edge">
<title>Node11&#45;&gt;Node7</title>
<g id="a_edge16_Node000011_Node000007"><a xlink:title=" ">
<path fill="none" stroke="#63b8ff" d="M297.87,-167.62C271.39,-148.71 211.34,-105.82 178.85,-82.61"/>
<polygon fill="#63b8ff" stroke="#63b8ff" points="181.27,-79.32 171.1,-76.35 177.2,-85.02 181.27,-79.32"/>
</a>
</g>
</g>
<!-- Node11&#45;&gt;Node8 -->
<g id="edge18_Node000011_Node000008" class="edge">
<title>Node11&#45;&gt;Node8</title>
<g id="a_edge18_Node000011_Node000008"><a xlink:title=" ">
<path fill="none" stroke="#63b8ff" d="M323.37,-167.59C333.75,-159.7 348.81,-148.24 361.07,-138.92"/>
<polygon fill="#63b8ff" stroke="#63b8ff" points="362.93,-141.14 368.77,-132.3 358.7,-135.57 362.93,-141.14"/>
</a>
</g>
</g>
<!-- Node13&#45;&gt;Node3 -->
<g id="edge27_Node000013_Node000003" class="edge">
<title>Node13&#45;&gt;Node3</title>
<g id="a_edge27_Node000013_Node000003"><a xlink:title=" ">
<path fill="none" stroke="#63b8ff" d="M495.61,-223.64C498.76,-210.91 503.16,-187.51 499,-168 487.64,-114.68 477.37,-102.55 449,-56 443.17,-46.44 435.56,-36.64 428.84,-28.64"/>
<polygon fill="#63b8ff" stroke="#63b8ff" points="430.96,-26.74 421.77,-21.47 425.67,-31.32 430.96,-26.74"/>
</a>
</g>
</g>
<!-- Node13&#45;&gt;Node12 -->
<g id="edge28_Node000013_Node000012" class="edge">
<title>Node13&#45;&gt;Node12</title>
<g id="a_edge28_Node000013_Node000012"><a xlink:title=" ">
<path fill="none" stroke="#63b8ff" d="M488.82,-223.59C485.72,-216.63 481.39,-206.89 477.57,-198.29"/>
<polygon fill="#63b8ff" stroke="#63b8ff" points="480.39,-197.01 473.13,-189.3 474,-199.86 480.39,-197.01"/>
</a>
</g>
</g>
<!-- Node14 -->
<g id="Node000014" class="node">
<title>Node14</title>
<g id="a_Node000014"><a xlink:title=" ">
<polygon fill="#e0e0e0" stroke="#999999" points="585.63,-188 546.38,-188 546.38,-168 585.63,-168 585.63,-188"/>
<text text-anchor="middle" x="566" y="-174.5" font-family="Helvetica,sans-Serif" font-size="10.00">utility</text>
</a>
</g>
</g>
<!-- Node13&#45;&gt;Node14 -->
<g id="edge29_Node000013_Node000014" class="edge">
<title>Node13&#45;&gt;Node14</title>
<g id="a_edge29_Node000013_Node000014"><a xlink:title=" ">
<path fill="none" stroke="#63b8ff" d="M505.72,-223.59C516.5,-215.62 532.18,-204.02 544.85,-194.64"/>
<polygon fill="#63b8ff" stroke="#63b8ff" points="546.47,-197.06 552.43,-188.3 542.31,-191.43 546.47,-197.06"/>
</a>
</g>
</g>
<!-- Node15&#45;&gt;Node3 -->
<g id="edge32_Node000015_Node000003" class="edge">
<title>Node15&#45;&gt;Node3</title>
<g id="a_edge32_Node000015_Node000003"><a xlink:title=" ">
<path fill="none" stroke="#63b8ff" d="M637.13,-111.88C633.73,-97.67 625.13,-70.38 607,-56 562.49,-20.69 495.19,-12.17 452.7,-10.6"/>
<polygon fill="#63b8ff" stroke="#63b8ff" points="453.02,-7.08 442.94,-10.33 452.84,-14.08 453.02,-7.08"/>
</a>
</g>
</g>
<!-- Node15&#45;&gt;Node9 -->
<g id="edge34_Node000015_Node000009" class="edge">
<title>Node15&#45;&gt;Node9</title>
<g id="a_edge34_Node000015_Node000009"><a xlink:title=" ">
<path fill="none" stroke="#63b8ff" d="M627.33,-111.59C617.63,-103.77 603.59,-92.46 592.09,-83.19"/>
<polygon fill="#63b8ff" stroke="#63b8ff" points="594.52,-79.85 584.54,-76.3 590.13,-85.3 594.52,-79.85"/>
</a>
</g>
</g>
<!-- Node15&#45;&gt;Node10 -->
<g id="edge33_Node000015_Node000010" class="edge">
<title>Node15&#45;&gt;Node10</title>
<g id="a_edge33_Node000015_Node000010"><a xlink:title=" ">
<path fill="none" stroke="#63b8ff" d="M640.54,-111.59C642.33,-98.82 644.48,-75.35 640,-56 637.9,-46.91 633.7,-37.54 629.52,-29.72"/>
<polygon fill="#63b8ff" stroke="#63b8ff" points="632.06,-28.11 624.05,-21.18 625.99,-31.6 632.06,-28.11"/>
</a>
</g>
</g>
</g>
</svg>

<g id="navigator" transform="translate(0 0)" fill="#404254">
  <rect fill="#f2f5e9" fill-opacity="0.5" stroke="#606060" stroke-width=".5" x="0" y="0" width="60" height="60"/>
  <use id="zoomplus" xlink:href="#zoomPlus" x="17" y="9" onmousedown="handleZoom(evt,'in')"/>
  <use id="zoomminus" xlink:href="#zoomMin" x="42" y="9" onmousedown="handleZoom(evt,'out')"/>
  <use id="reset" xlink:href="#resetDef" x="30" y="36" onmousedown="handleReset()"/>
   <use id="arrowup" xlink:href="#arrowUp" x="0" y="0" onmousedown="handlePan(0,-1)"/>
  <use id="arrowright" xlink:href="#arrowRight" x="0" y="0" onmousedown="handlePan(1,0)"/>
  <use id="arrowdown" xlink:href="#arrowDown" x="0" y="0" onmousedown="handlePan(0,1)"/>
  <use id="arrowleft" xlink:href="#arrowLeft" x="0" y="0" onmousedown="handlePan(-1,0)"/>
</g>
<svg viewBox="0 0 15 15" width="100%" height="30px" preserveAspectRatio="xMaxYMin meet">
 <g id="arrow_out" transform="scale(0.3 0.3)">
  <a xlink:href="_leg_data_8cpp__incl_org.svg" target="_base">
   <rect id="button" ry="5" rx="5" y="6" x="6" height="38" width="38"
        fill="#f2f5e9" fill-opacity="0.5" stroke="#606060" stroke-width="1.0"/>
   <path id="arrow"
     d="M 11.500037,31.436501 C 11.940474,20.09759 22.043105,11.32322 32.158766,21.979434 L 37.068811,17.246167 C 37.068811,17.246167 37.088388,32 37.088388,32 L 22.160133,31.978069 C 22.160133,31.978069 26.997745,27.140456 26.997745,27.140456 C 18.528582,18.264221 13.291696,25.230495 11.500037,31.436501 z"
     style="fill:#404040;"/>
  </a>
 </g>
</svg>

<style type='text/css'>
<![CDATA[
[data-mouse-over-selected='false'] { opacity: 0.7; }
[data-mouse-over-selected='true']  { opacity: 1.0; }
]]>
</style>
<script type="application/ecmascript"><![CDATA[
document.addEventListener('DOMContentLoaded', (event) => {
  highlightEdges();
  highlightAdjacentNodes();
});
]]></script>
</svg>
