<?xml version="1.0" encoding="UTF-8" standalone="no"?>
<!DOCTYPE svg PUBLIC "-//W3C//DTD SVG 1.1//EN"
 "http://www.w3.org/Graphics/SVG/1.1/DTD/svg11.dtd">
<!-- Generated by graphviz version 8.1.0 (20230707.0739)
 -->
<!-- Title: Logger.h Pages: 1 -->
<!--zoomable 364 -->

<svg id="main" version="1.1" xmlns="http://www.w3.org/2000/svg" xmlns:xlink="http://www.w3.org/1999/xlink" xml:space="preserve" onload="init(evt)">
<style type="text/css"><![CDATA[
.node, .edge {opacity: 0.7;}
.node.selected, .edge.selected {opacity: 1;}
.edge:hover path { stroke: red; }
.edge:hover polygon { stroke: red; fill: red; }
]]></style>

<defs>
  <circle id="rim" cx="0" cy="0" r="7"/>
  <circle id="rim2" cx="0" cy="0" r="3.5"/>
  <g id="zoomPlus">
    <use xlink:href="#rim" fill="#404040"><set attributeName="fill" to="#808080" begin="zoomplus.mouseover" end="zoomplus.mouseout"/></use>
    <path d="M-4,0h8M0,-4v8" fill="none" stroke="white" stroke-width="1.5" pointer-events="none"/>
  </g>
  <g id="zoomMin">
    <use xlink:href="#rim" fill="#404040"><set attributeName="fill" to="#808080" begin="zoomminus.mouseover" end="zoomminus.mouseout"/></use>
    <path d="M-4,0h8" fill="none" stroke="white" stroke-width="1.5" pointer-events="none"/>
  </g>
  <g id="arrowUp" transform="translate(30 24)">
    <use xlink:href="#rim"/>
    <path pointer-events="none" fill="none" stroke="white" stroke-width="1.5" d="M0,-3.0v7 M-2.5,-0.5L0,-3.0L2.5,-0.5"/>
  </g>
  <g id="arrowRight" transform="rotate(90) translate(36 -43)">
    <use xlink:href="#rim"/>
    <path pointer-events="none" fill="none" stroke="white" stroke-width="1.5" d="M0,-3.0v7 M-2.5,-0.5L0,-3.0L2.5,-0.5"/>
  </g>
  <g id="arrowDown" transform="rotate(180) translate(-30 -48)">
    <use xlink:href="#rim"/>
    <path pointer-events="none" fill="none" stroke="white" stroke-width="1.5" d="M0,-3.0v7 M-2.5,-0.5L0,-3.0L2.5,-0.5"/>
  </g>
  <g id="arrowLeft" transform="rotate(270) translate(-36 17)">
    <use xlink:href="#rim"/>
    <path pointer-events="none" fill="none" stroke="white" stroke-width="1.5" d="M0,-3.0v7 M-2.5,-0.5L0,-3.0L2.5,-0.5"/>
  </g>
  <g id="resetDef">
    <use xlink:href="#rim2" fill="#404040"><set attributeName="fill" to="#808080" begin="reset.mouseover" end="reset.mouseout"/></use>
  </g>
</defs>
<script type="application/ecmascript">
var viewWidth = 2923;
var viewHeight = 364;
var sectionId = 'dynsection-1';
</script>
<script type="application/ecmascript" xlink:href="svg.min.js"/>
<svg id="graph" class="graph">
<g id="viewport">
<title>Logger.h</title>
<!-- Node1 -->
<g id="Node000001" class="node">
<title>Node1</title>
<g id="a_Node000001"><a xlink:title=" ">
<polygon fill="#999999" stroke="#666666" points="1410.5,-356 1357,-356 1357,-336 1410.5,-336 1410.5,-356"/>
<text text-anchor="middle" x="1383.75" y="-342.5" font-family="Helvetica,sans-Serif" font-size="10.00">Logger.h</text>
</a>
</g>
</g>
<!-- Node2 -->
<g id="Node000002" class="node">
<title>Node2</title>
<g id="a_Node000002"><a xlink:href="_ankle_angles_8cpp.html" target="_top" xlink:title=" ">
<polygon fill="white" stroke="#666666" points="89.5,-300 0,-300 0,-280 89.5,-280 89.5,-300"/>
<text text-anchor="middle" x="44.75" y="-286.5" font-family="Helvetica,sans-Serif" font-size="10.00">AnkleAngles.cpp</text>
</a>
</g>
</g>
<!-- Node1&#45;&gt;Node2 -->
<g id="edge1_Node000001_Node000002" class="edge">
<title>Node1&#45;&gt;Node2</title>
<g id="a_edge1_Node000001_Node000002"><a xlink:title=" ">
<path fill="none" stroke="#63b8ff" d="M1345.93,-344.34C1160.93,-341.01 350.03,-325.23 98.75,-300 95.82,-299.71 92.8,-299.35 89.77,-298.95"/>
<polygon fill="#63b8ff" stroke="#63b8ff" points="1345.66,-347.85 1355.72,-344.53 1345.78,-340.86 1345.66,-347.85"/>
</a>
</g>
</g>
<!-- Node3 -->
<g id="Node000003" class="node">
<title>Node3</title>
<g id="a_Node000003"><a xlink:href="_ankle_i_m_u_8cpp.html" target="_top" xlink:title=" ">
<polygon fill="white" stroke="#666666" points="184.13,-300 107.38,-300 107.38,-280 184.13,-280 184.13,-300"/>
<text text-anchor="middle" x="145.75" y="-286.5" font-family="Helvetica,sans-Serif" font-size="10.00">AnkleIMU.cpp</text>
</a>
</g>
</g>
<!-- Node1&#45;&gt;Node3 -->
<g id="edge2_Node000001_Node000003" class="edge">
<title>Node1&#45;&gt;Node3</title>
<g id="a_edge2_Node000001_Node000003"><a xlink:title=" ">
<path fill="none" stroke="#63b8ff" d="M1345.93,-344.32C1169.36,-341.04 424.95,-325.9 193.75,-300 190.72,-299.66 187.59,-299.24 184.45,-298.76"/>
<polygon fill="#63b8ff" stroke="#63b8ff" points="1345.67,-347.84 1355.73,-344.52 1345.8,-340.84 1345.67,-347.84"/>
</a>
</g>
</g>
<!-- Node4 -->
<g id="Node000004" class="node">
<title>Node4</title>
<g id="a_Node000004"><a xlink:href="_battery_8cpp.html" target="_top" xlink:title=" ">
<polygon fill="white" stroke="#666666" points="268.88,-300 202.63,-300 202.63,-280 268.88,-280 268.88,-300"/>
<text text-anchor="middle" x="235.75" y="-286.5" font-family="Helvetica,sans-Serif" font-size="10.00">Battery.cpp</text>
</a>
</g>
</g>
<!-- Node1&#45;&gt;Node4 -->
<g id="edge3_Node000001_Node000004" class="edge">
<title>Node1&#45;&gt;Node4</title>
<g id="a_edge3_Node000001_Node000004"><a xlink:title=" ">
<path fill="none" stroke="#63b8ff" d="M1345.95,-344.3C1177.24,-341.06 492.01,-326.48 278.75,-300 275.57,-299.61 272.28,-299.1 268.99,-298.53"/>
<polygon fill="#63b8ff" stroke="#63b8ff" points="1345.68,-347.82 1355.75,-344.51 1345.82,-340.82 1345.68,-347.82"/>
</a>
</g>
</g>
<!-- Node5 -->
<g id="Node000005" class="node">
<title>Node5</title>
<g id="a_Node000005"><a xlink:href="_ble_message_8cpp.html" target="_top" xlink:title=" ">
<polygon fill="white" stroke="#666666" points="376.13,-300 287.38,-300 287.38,-280 376.13,-280 376.13,-300"/>
<text text-anchor="middle" x="331.75" y="-286.5" font-family="Helvetica,sans-Serif" font-size="10.00">BleMessage.cpp</text>
</a>
</g>
</g>
<!-- Node1&#45;&gt;Node5 -->
<g id="edge4_Node000001_Node000005" class="edge">
<title>Node1&#45;&gt;Node5</title>
<g id="a_edge4_Node000001_Node000005"><a xlink:title=" ">
<path fill="none" stroke="#63b8ff" d="M1345.88,-344.97C1213.31,-344.51 757.97,-339.94 384.75,-300 382.06,-299.71 379.3,-299.37 376.52,-299"/>
<polygon fill="#63b8ff" stroke="#63b8ff" points="1345.63,-348.47 1355.64,-345 1345.65,-341.47 1345.63,-348.47"/>
</a>
</g>
</g>
<!-- Node6 -->
<g id="Node000006" class="node">
<title>Node6</title>
<g id="a_Node000006"><a xlink:href="_ble_message_queue_8cpp.html" target="_top" xlink:title=" ">
<polygon fill="white" stroke="#666666" points="511.38,-300 394.13,-300 394.13,-280 511.38,-280 511.38,-300"/>
<text text-anchor="middle" x="452.75" y="-286.5" font-family="Helvetica,sans-Serif" font-size="10.00">BleMessageQueue.cpp</text>
</a>
</g>
</g>
<!-- Node1&#45;&gt;Node6 -->
<g id="edge5_Node000001_Node000006" class="edge">
<title>Node1&#45;&gt;Node6</title>
<g id="a_edge5_Node000001_Node000006"><a xlink:title=" ">
<path fill="none" stroke="#63b8ff" d="M1345.85,-343.96C1225.63,-340.47 842.08,-327.76 525.75,-300 521.17,-299.6 516.44,-299.13 511.68,-298.63"/>
<polygon fill="#63b8ff" stroke="#63b8ff" points="1345.56,-347.48 1355.65,-344.27 1345.76,-340.49 1345.56,-347.48"/>
</a>
</g>
</g>
<!-- Node7 -->
<g id="Node000007" class="node">
<title>Node7</title>
<g id="a_Node000007"><a xlink:href="_ble_parser_8cpp.html" target="_top" xlink:title=" ">
<polygon fill="white" stroke="#666666" points="616.5,-20 539,-20 539,0 616.5,0 616.5,-20"/>
<text text-anchor="middle" x="577.75" y="-6.5" font-family="Helvetica,sans-Serif" font-size="10.00">BleParser.cpp</text>
</a>
</g>
</g>
<!-- Node1&#45;&gt;Node7 -->
<g id="edge6_Node000001_Node000007" class="edge">
<title>Node1&#45;&gt;Node7</title>
<g id="a_edge6_Node000001_Node000007"><a xlink:title=" ">
<path fill="none" stroke="#63b8ff" d="M1346.1,-344.12C1182.29,-339.78 539.75,-317.52 539.75,-235 539.75,-235 539.75,-235 539.75,-121 539.75,-81.8 561.57,-38.84 572.14,-20.33"/>
<polygon fill="#63b8ff" stroke="#63b8ff" points="1345.54,-347.63 1355.62,-344.39 1345.72,-340.63 1345.54,-347.63"/>
</a>
</g>
</g>
<!-- Node8 -->
<g id="Node000008" class="node">
<title>Node8</title>
<g id="a_Node000008"><a xlink:href="_c_a_n_8h.html" target="_top" xlink:title="Uses the FlexCan library to send and receive CAN messages.">
<polygon fill="white" stroke="#666666" points="1268,-244 1223.5,-244 1223.5,-224 1268,-224 1268,-244"/>
<text text-anchor="middle" x="1245.75" y="-230.5" font-family="Helvetica,sans-Serif" font-size="10.00">CAN.h</text>
</a>
</g>
</g>
<!-- Node1&#45;&gt;Node8 -->
<g id="edge7_Node000001_Node000008" class="edge">
<title>Node1&#45;&gt;Node8</title>
<g id="a_edge7_Node000001_Node000008"><a xlink:title=" ">
<path fill="none" stroke="#63b8ff" d="M1345.93,-341.49C1317.45,-336.78 1279.68,-325.77 1257.75,-300 1244.21,-284.1 1243.86,-257.95 1244.79,-244.17"/>
<polygon fill="#63b8ff" stroke="#63b8ff" points="1345.32,-345.08 1355.72,-343.05 1346.33,-338.15 1345.32,-345.08"/>
</a>
</g>
</g>
<!-- Node9 -->
<g id="Node000009" class="node">
<title>Node9</title>
<g id="a_Node000009"><a xlink:href="_motor_8cpp.html" target="_top" xlink:title=" ">
<polygon fill="white" stroke="#666666" points="1249.5,-76 1190,-76 1190,-56 1249.5,-56 1249.5,-76"/>
<text text-anchor="middle" x="1219.75" y="-62.5" font-family="Helvetica,sans-Serif" font-size="10.00">Motor.cpp</text>
</a>
</g>
</g>
<!-- Node1&#45;&gt;Node9 -->
<g id="edge19_Node000001_Node000009" class="edge">
<title>Node1&#45;&gt;Node9</title>
<g id="a_edge19_Node000001_Node000009"><a xlink:title=" ">
<path fill="none" stroke="#63b8ff" d="M1345.88,-340.83C1315.31,-335.74 1272.74,-324.52 1243.75,-300 1175.59,-242.36 1206.67,-112.27 1216.92,-76.34"/>
<polygon fill="#63b8ff" stroke="#63b8ff" points="1345.15,-344.41 1355.56,-342.45 1346.19,-337.49 1345.15,-344.41"/>
</a>
</g>
</g>
<!-- Node10 -->
<g id="Node000010" class="node">
<title>Node10</title>
<g id="a_Node000010"><a xlink:href="_coms_m_c_u_8cpp.html" target="_top" xlink:title=" ">
<polygon fill="white" stroke="#666666" points="809.75,-132 727.75,-132 727.75,-112 809.75,-112 809.75,-132"/>
<text text-anchor="middle" x="768.75" y="-118.5" font-family="Helvetica,sans-Serif" font-size="10.00">ComsMCU.cpp</text>
</a>
</g>
</g>
<!-- Node1&#45;&gt;Node10 -->
<g id="edge9_Node000001_Node000010" class="edge">
<title>Node1&#45;&gt;Node10</title>
<g id="a_edge9_Node000001_Node000010"><a xlink:title=" ">
<path fill="none" stroke="#63b8ff" d="M1345.62,-343.61C1228.29,-339.11 877.89,-323.79 832.75,-300 776.01,-270.1 763.21,-248.44 741.75,-188 734.55,-167.73 750.01,-144.61 760.38,-132.14"/>
<polygon fill="#63b8ff" stroke="#63b8ff" points="1345.42,-347.15 1355.54,-344.03 1345.68,-340.15 1345.42,-347.15"/>
</a>
</g>
</g>
<!-- Node11 -->
<g id="Node000011" class="node">
<title>Node11</title>
<g id="a_Node000011"><a xlink:href="_controller_8cpp.html" target="_top" xlink:title=" ">
<polygon fill="white" stroke="#666666" points="1375.75,-300 1299.75,-300 1299.75,-280 1375.75,-280 1375.75,-300"/>
<text text-anchor="middle" x="1337.75" y="-286.5" font-family="Helvetica,sans-Serif" font-size="10.00">Controller.cpp</text>
</a>
</g>
</g>
<!-- Node1&#45;&gt;Node11 -->
<g id="edge10_Node000001_Node000011" class="edge">
<title>Node1&#45;&gt;Node11</title>
<g id="a_edge10_Node000001_Node000011"><a xlink:title=" ">
<path fill="none" stroke="#63b8ff" d="M1368.66,-327.29C1360.99,-318.28 1351.98,-307.7 1345.67,-300.3"/>
<polygon fill="#63b8ff" stroke="#63b8ff" points="1366.59,-329.25 1375.74,-334.59 1371.92,-324.71 1366.59,-329.25"/>
</a>
</g>
</g>
<!-- Node12 -->
<g id="Node000012" class="node">
<title>Node12</title>
<g id="a_Node000012"><a xlink:href="_exo_8cpp.html" target="_top" xlink:title=" ">
<polygon fill="white" stroke="#666666" points="1057.75,-132 1005.75,-132 1005.75,-112 1057.75,-112 1057.75,-132"/>
<text text-anchor="middle" x="1031.75" y="-118.5" font-family="Helvetica,sans-Serif" font-size="10.00">Exo.cpp</text>
</a>
</g>
</g>
<!-- Node1&#45;&gt;Node12 -->
<g id="edge11_Node000001_Node000012" class="edge">
<title>Node1&#45;&gt;Node12</title>
<g id="a_edge11_Node000001_Node000012"><a xlink:title=" ">
<path fill="none" stroke="#63b8ff" d="M1345.74,-341.63C1293.53,-336.17 1203.59,-323.57 1181.75,-300 1141.47,-256.52 1200.54,-213.66 1162.75,-168 1136.91,-136.79 1088.33,-127.17 1058.15,-124.24"/>
<polygon fill="#63b8ff" stroke="#63b8ff" points="1345.28,-345.2 1355.58,-342.71 1345.98,-338.23 1345.28,-345.2"/>
</a>
</g>
</g>
<!-- Node13 -->
<g id="Node000013" class="node">
<title>Node13</title>
<g id="a_Node000013"><a xlink:href="_exo_data_8cpp.html" target="_top" xlink:title=" ">
<polygon fill="white" stroke="#666666" points="1465.88,-300 1393.63,-300 1393.63,-280 1465.88,-280 1465.88,-300"/>
<text text-anchor="middle" x="1429.75" y="-286.5" font-family="Helvetica,sans-Serif" font-size="10.00">ExoData.cpp</text>
</a>
</g>
</g>
<!-- Node1&#45;&gt;Node13 -->
<g id="edge12_Node000001_Node000013" class="edge">
<title>Node1&#45;&gt;Node13</title>
<g id="a_edge12_Node000001_Node000013"><a xlink:title=" ">
<path fill="none" stroke="#63b8ff" d="M1398.84,-327.29C1406.51,-318.28 1415.52,-307.7 1421.83,-300.3"/>
<polygon fill="#63b8ff" stroke="#63b8ff" points="1395.58,-324.71 1391.76,-334.59 1400.91,-329.25 1395.58,-324.71"/>
</a>
</g>
</g>
<!-- Node14 -->
<g id="Node000014" class="node">
<title>Node14</title>
<g id="a_Node000014"><a xlink:href="_f_s_r_8cpp.html" target="_top" xlink:title=" ">
<polygon fill="white" stroke="#666666" points="1537.88,-300 1483.63,-300 1483.63,-280 1537.88,-280 1537.88,-300"/>
<text text-anchor="middle" x="1510.75" y="-286.5" font-family="Helvetica,sans-Serif" font-size="10.00">FSR.cpp</text>
</a>
</g>
</g>
<!-- Node1&#45;&gt;Node14 -->
<g id="edge13_Node000001_Node000014" class="edge">
<title>Node1&#45;&gt;Node14</title>
<g id="a_edge13_Node000001_Node000014"><a xlink:title=" ">
<path fill="none" stroke="#63b8ff" d="M1415.73,-331.4C1438.42,-321.75 1468.31,-309.05 1488.46,-300.48"/>
<polygon fill="#63b8ff" stroke="#63b8ff" points="1414.7,-328.46 1406.87,-335.59 1417.44,-334.9 1414.7,-328.46"/>
</a>
</g>
</g>
<!-- Node15 -->
<g id="Node000015" class="node">
<title>Node15</title>
<g id="a_Node000015"><a xlink:href="_inclination_detector_8cpp.html" target="_top" xlink:title=" ">
<polygon fill="white" stroke="#666666" points="1671.25,-300 1556.25,-300 1556.25,-280 1671.25,-280 1671.25,-300"/>
<text text-anchor="middle" x="1613.75" y="-286.5" font-family="Helvetica,sans-Serif" font-size="10.00">InclinationDetector.cpp</text>
</a>
</g>
</g>
<!-- Node1&#45;&gt;Node15 -->
<g id="edge14_Node000001_Node000015" class="edge">
<title>Node1&#45;&gt;Node15</title>
<g id="a_edge14_Node000001_Node000015"><a xlink:title=" ">
<path fill="none" stroke="#63b8ff" d="M1421.16,-336.22C1463.03,-326.39 1530.64,-310.51 1573.6,-300.43"/>
<polygon fill="#63b8ff" stroke="#63b8ff" points="1420.52,-333.01 1411.58,-338.7 1422.12,-339.82 1420.52,-333.01"/>
</a>
</g>
</g>
<!-- Node16 -->
<g id="Node000016" class="node">
<title>Node16</title>
<g id="a_Node000016"><a xlink:href="_joint_8cpp.html" target="_top" xlink:title=" ">
<polygon fill="white" stroke="#666666" points="1322.25,-76 1267.25,-76 1267.25,-56 1322.25,-56 1322.25,-76"/>
<text text-anchor="middle" x="1294.75" y="-62.5" font-family="Helvetica,sans-Serif" font-size="10.00">Joint.cpp</text>
</a>
</g>
</g>
<!-- Node1&#45;&gt;Node16 -->
<g id="edge15_Node000001_Node000016" class="edge">
<title>Node1&#45;&gt;Node16</title>
<g id="a_edge15_Node000001_Node000016"><a xlink:title=" ">
<path fill="none" stroke="#63b8ff" d="M1346.4,-337.09C1326.2,-330.7 1302.95,-319.45 1290.75,-300 1266.95,-262.04 1287.33,-115.34 1293.25,-76.49"/>
<polygon fill="#63b8ff" stroke="#63b8ff" points="1345.33,-340.71 1355.91,-340.08 1347.25,-333.98 1345.33,-340.71"/>
</a>
</g>
</g>
<!-- Node17 -->
<g id="Node000017" class="node">
<title>Node17</title>
<g id="a_Node000017"><a xlink:href="_joint_data_8cpp.html" target="_top" xlink:title=" ">
<polygon fill="white" stroke="#666666" points="1764.38,-300 1689.13,-300 1689.13,-280 1764.38,-280 1764.38,-300"/>
<text text-anchor="middle" x="1726.75" y="-286.5" font-family="Helvetica,sans-Serif" font-size="10.00">JointData.cpp</text>
</a>
</g>
</g>
<!-- Node1&#45;&gt;Node17 -->
<g id="edge16_Node000001_Node000017" class="edge">
<title>Node1&#45;&gt;Node17</title>
<g id="a_edge16_Node000001_Node000017"><a xlink:title=" ">
<path fill="none" stroke="#63b8ff" d="M1421.4,-339.82C1477.86,-331.94 1587.78,-316.13 1680.75,-300 1683.48,-299.53 1686.29,-299.02 1689.12,-298.5"/>
<polygon fill="#63b8ff" stroke="#63b8ff" points="1421.26,-336.45 1411.84,-341.29 1422.23,-343.38 1421.26,-336.45"/>
</a>
</g>
</g>
<!-- Node18 -->
<g id="Node000018" class="node">
<title>Node18</title>
<g id="a_Node000018"><a xlink:href="_leg_8cpp.html" target="_top" xlink:title=" ">
<polygon fill="white" stroke="#666666" points="1833,-300 1782.5,-300 1782.5,-280 1833,-280 1833,-300"/>
<text text-anchor="middle" x="1807.75" y="-286.5" font-family="Helvetica,sans-Serif" font-size="10.00">Leg.cpp</text>
</a>
</g>
</g>
<!-- Node1&#45;&gt;Node18 -->
<g id="edge17_Node000001_Node000018" class="edge">
<title>Node1&#45;&gt;Node18</title>
<g id="a_edge17_Node000001_Node000018"><a xlink:title=" ">
<path fill="none" stroke="#63b8ff" d="M1421.81,-342.44C1491.9,-337.31 1645.92,-324.16 1773.75,-300 1776.51,-299.48 1779.38,-298.85 1782.22,-298.18"/>
<polygon fill="#63b8ff" stroke="#63b8ff" points="1421.63,-339.01 1411.9,-343.22 1422.13,-345.99 1421.63,-339.01"/>
</a>
</g>
</g>
<!-- Node19 -->
<g id="Node000019" class="node">
<title>Node19</title>
<g id="a_Node000019"><a xlink:href="_leg_data_8cpp.html" target="_top" xlink:title=" ">
<polygon fill="white" stroke="#666666" points="1922.13,-300 1851.38,-300 1851.38,-280 1922.13,-280 1922.13,-300"/>
<text text-anchor="middle" x="1886.75" y="-286.5" font-family="Helvetica,sans-Serif" font-size="10.00">LegData.cpp</text>
</a>
</g>
</g>
<!-- Node1&#45;&gt;Node19 -->
<g id="edge18_Node000001_Node000019" class="edge">
<title>Node1&#45;&gt;Node19</title>
<g id="a_edge18_Node000001_Node000019"><a xlink:title=" ">
<path fill="none" stroke="#63b8ff" d="M1421.78,-342.55C1500.47,-337.19 1686.77,-323.05 1841.75,-300 1844.74,-299.55 1847.84,-299.04 1850.94,-298.49"/>
<polygon fill="#63b8ff" stroke="#63b8ff" points="1421.71,-339.11 1411.97,-343.27 1422.18,-346.1 1421.71,-339.11"/>
</a>
</g>
</g>
<!-- Node20 -->
<g id="Node000020" class="node">
<title>Node20</title>
<g id="a_Node000020"><a xlink:href="_motor_data_8cpp.html" target="_top" xlink:title=" ">
<polygon fill="white" stroke="#666666" points="2019.63,-300 1939.88,-300 1939.88,-280 2019.63,-280 2019.63,-300"/>
<text text-anchor="middle" x="1979.75" y="-286.5" font-family="Helvetica,sans-Serif" font-size="10.00">MotorData.cpp</text>
</a>
</g>
</g>
<!-- Node1&#45;&gt;Node20 -->
<g id="edge20_Node000001_Node000020" class="edge">
<title>Node1&#45;&gt;Node20</title>
<g id="a_edge20_Node000001_Node000020"><a xlink:title=" ">
<path fill="none" stroke="#63b8ff" d="M1421.79,-343.18C1511,-338.62 1740.49,-325.24 1930.75,-300 1933.58,-299.62 1936.49,-299.2 1939.42,-298.74"/>
<polygon fill="#63b8ff" stroke="#63b8ff" points="1421.7,-339.73 1411.89,-343.73 1422.05,-346.72 1421.7,-339.73"/>
</a>
</g>
</g>
<!-- Node21 -->
<g id="Node000021" class="node">
<title>Node21</title>
<g id="a_Node000021"><a xlink:href="_params_from_s_d_8cpp.html" target="_top" xlink:title=" ">
<polygon fill="white" stroke="#666666" points="2142,-300 2037.5,-300 2037.5,-280 2142,-280 2142,-300"/>
<text text-anchor="middle" x="2089.75" y="-286.5" font-family="Helvetica,sans-Serif" font-size="10.00">ParamsFromSD.cpp</text>
</a>
</g>
</g>
<!-- Node1&#45;&gt;Node21 -->
<g id="edge21_Node000001_Node000021" class="edge">
<title>Node1&#45;&gt;Node21</title>
<g id="a_edge21_Node000001_Node000021"><a xlink:title=" ">
<path fill="none" stroke="#63b8ff" d="M1421.56,-343.38C1521.14,-338.89 1798.8,-324.95 2028.75,-300 2031.52,-299.7 2034.35,-299.37 2037.21,-299.01"/>
<polygon fill="#63b8ff" stroke="#63b8ff" points="1421.69,-339.91 1411.85,-343.86 1422,-346.91 1421.69,-339.91"/>
</a>
</g>
</g>
<!-- Node22 -->
<g id="Node000022" class="node">
<title>Node22</title>
<g id="a_Node000022"><a xlink:href="_parse_ini_8cpp.html" target="_top" xlink:title=" ">
<polygon fill="white" stroke="#666666" points="2229.75,-300 2159.75,-300 2159.75,-280 2229.75,-280 2229.75,-300"/>
<text text-anchor="middle" x="2194.75" y="-286.5" font-family="Helvetica,sans-Serif" font-size="10.00">ParseIni.cpp</text>
</a>
</g>
</g>
<!-- Node1&#45;&gt;Node22 -->
<g id="edge22_Node000001_Node000022" class="edge">
<title>Node1&#45;&gt;Node22</title>
<g id="a_edge22_Node000001_Node000022"><a xlink:title=" ">
<path fill="none" stroke="#63b8ff" d="M1421.41,-344.7C1533.14,-343.38 1872.32,-336.45 2150.75,-300 2153.53,-299.64 2156.4,-299.2 2159.28,-298.71"/>
<polygon fill="#63b8ff" stroke="#63b8ff" points="1421.68,-341.2 1411.71,-344.81 1421.75,-348.2 1421.68,-341.2"/>
</a>
</g>
</g>
<!-- Node23 -->
<g id="Node000023" class="node">
<title>Node23</title>
<g id="a_Node000023"><a xlink:href="_real_time_i2_c_8cpp.html" target="_top" xlink:title=" ">
<polygon fill="white" stroke="#666666" points="2337.5,-300 2248,-300 2248,-280 2337.5,-280 2337.5,-300"/>
<text text-anchor="middle" x="2292.75" y="-286.5" font-family="Helvetica,sans-Serif" font-size="10.00">RealTimeI2C.cpp</text>
</a>
</g>
</g>
<!-- Node1&#45;&gt;Node23 -->
<g id="edge23_Node000001_Node000023" class="edge">
<title>Node1&#45;&gt;Node23</title>
<g id="a_edge23_Node000001_Node000023"><a xlink:title=" ">
<path fill="none" stroke="#63b8ff" d="M1421.57,-344.53C1541.54,-342.7 1924.19,-334.38 2238.75,-300 2241.68,-299.68 2244.69,-299.31 2247.72,-298.89"/>
<polygon fill="#63b8ff" stroke="#63b8ff" points="1421.74,-341.04 1411.79,-344.68 1421.84,-348.04 1421.74,-341.04"/>
</a>
</g>
</g>
<!-- Node24 -->
<g id="Node000024" class="node">
<title>Node24</title>
<g id="a_Node000024"><a xlink:href="_status_defs_8cpp.html" target="_top" xlink:title=" ">
<polygon fill="white" stroke="#666666" points="2438.13,-300 2355.38,-300 2355.38,-280 2438.13,-280 2438.13,-300"/>
<text text-anchor="middle" x="2396.75" y="-286.5" font-family="Helvetica,sans-Serif" font-size="10.00">StatusDefs.cpp</text>
</a>
</g>
</g>
<!-- Node1&#45;&gt;Node24 -->
<g id="edge24_Node000001_Node000024" class="edge">
<title>Node1&#45;&gt;Node24</title>
<g id="a_edge24_Node000001_Node000024"><a xlink:title=" ">
<path fill="none" stroke="#63b8ff" d="M1421.53,-345.01C1550.96,-344.69 1988.35,-340.45 2346.75,-300 2349.47,-299.69 2352.26,-299.33 2355.07,-298.93"/>
<polygon fill="#63b8ff" stroke="#63b8ff" points="1421.65,-341.52 1411.66,-345.03 1421.67,-348.52 1421.65,-341.52"/>
</a>
</g>
</g>
<!-- Node25 -->
<g id="Node000025" class="node">
<title>Node25</title>
<g id="a_Node000025"><a xlink:href="_sync_led_8cpp.html" target="_top" xlink:title=" ">
<polygon fill="white" stroke="#666666" points="2529.25,-300 2456.25,-300 2456.25,-280 2529.25,-280 2529.25,-300"/>
<text text-anchor="middle" x="2492.75" y="-286.5" font-family="Helvetica,sans-Serif" font-size="10.00">SyncLed.cpp</text>
</a>
</g>
</g>
<!-- Node1&#45;&gt;Node25 -->
<g id="edge25_Node000001_Node000025" class="edge">
<title>Node1&#45;&gt;Node25</title>
<g id="a_edge25_Node000001_Node000025"><a xlink:title=" ">
<path fill="none" stroke="#63b8ff" d="M1421.79,-345.46C1559.94,-346.68 2047.98,-347.18 2446.75,-300 2449.74,-299.65 2452.83,-299.21 2455.92,-298.71"/>
<polygon fill="#63b8ff" stroke="#63b8ff" points="1422.01,-341.95 1411.97,-345.35 1421.94,-348.95 1422.01,-341.95"/>
</a>
</g>
</g>
<!-- Node26 -->
<g id="Node000026" class="node">
<title>Node26</title>
<g id="a_Node000026"><a xlink:href="_th_i_m_u_8cpp.html" target="_top" xlink:title=" ">
<polygon fill="white" stroke="#666666" points="2610,-300 2547.5,-300 2547.5,-280 2610,-280 2610,-300"/>
<text text-anchor="middle" x="2578.75" y="-286.5" font-family="Helvetica,sans-Serif" font-size="10.00">ThIMU.cpp</text>
</a>
</g>
</g>
<!-- Node1&#45;&gt;Node26 -->
<g id="edge26_Node000001_Node000026" class="edge">
<title>Node1&#45;&gt;Node26</title>
<g id="a_edge26_Node000001_Node000026"><a xlink:title=" ">
<path fill="none" stroke="#63b8ff" d="M1421.86,-344.45C1595.81,-341.8 2315.44,-329.22 2538.75,-300 2541.57,-299.63 2544.49,-299.16 2547.4,-298.62"/>
<polygon fill="#63b8ff" stroke="#63b8ff" points="1421.92,-340.96 1411.98,-344.61 1422.03,-347.96 1421.92,-340.96"/>
</a>
</g>
</g>
<!-- Node27 -->
<g id="Node000027" class="node">
<title>Node27</title>
<g id="a_Node000027"><a xlink:href="_time___helper_8cpp.html" target="_top" xlink:title=" ">
<polygon fill="white" stroke="#666666" points="2717.13,-300 2628.38,-300 2628.38,-280 2717.13,-280 2717.13,-300"/>
<text text-anchor="middle" x="2672.75" y="-286.5" font-family="Helvetica,sans-Serif" font-size="10.00">Time_Helper.cpp</text>
</a>
</g>
</g>
<!-- Node1&#45;&gt;Node27 -->
<g id="edge27_Node000001_Node000027" class="edge">
<title>Node1&#45;&gt;Node27</title>
<g id="a_edge27_Node000001_Node000027"><a xlink:title=" ">
<path fill="none" stroke="#63b8ff" d="M1421.75,-345.39C1573.22,-346.59 2148.57,-347.55 2618.75,-300 2621.78,-299.69 2624.89,-299.32 2628.02,-298.91"/>
<polygon fill="#63b8ff" stroke="#63b8ff" points="1421.81,-341.89 1411.78,-345.3 1421.75,-348.89 1421.81,-341.89"/>
</a>
</g>
</g>
<!-- Node28 -->
<g id="Node000028" class="node">
<title>Node28</title>
<g id="a_Node000028"><a xlink:href="_torque_sensor_8cpp.html" target="_top" xlink:title=" ">
<polygon fill="white" stroke="#666666" points="2830.13,-300 2735.38,-300 2735.38,-280 2830.13,-280 2830.13,-300"/>
<text text-anchor="middle" x="2782.75" y="-286.5" font-family="Helvetica,sans-Serif" font-size="10.00">TorqueSensor.cpp</text>
</a>
</g>
</g>
<!-- Node1&#45;&gt;Node28 -->
<g id="edge28_Node000001_Node000028" class="edge">
<title>Node1&#45;&gt;Node28</title>
<g id="a_edge28_Node000001_Node000028"><a xlink:title=" ">
<path fill="none" stroke="#63b8ff" d="M1421.38,-345.43C1580.13,-346.89 2210.74,-349.1 2725.75,-300 2728.74,-299.71 2731.82,-299.37 2734.91,-298.99"/>
<polygon fill="#63b8ff" stroke="#63b8ff" points="1421.81,-341.92 1411.77,-345.33 1421.74,-348.92 1421.81,-341.92"/>
</a>
</g>
</g>
<!-- Node29 -->
<g id="Node000029" class="node">
<title>Node29</title>
<g id="a_Node000029"><a xlink:href="_u_a_r_t_handler_8cpp.html" target="_top" xlink:title=" ">
<polygon fill="white" stroke="#666666" points="1153.38,-188 1060.13,-188 1060.13,-168 1153.38,-168 1153.38,-188"/>
<text text-anchor="middle" x="1106.75" y="-174.5" font-family="Helvetica,sans-Serif" font-size="10.00">UARTHandler.cpp</text>
</a>
</g>
</g>
<!-- Node1&#45;&gt;Node29 -->
<g id="edge29_Node000001_Node000029" class="edge">
<title>Node1&#45;&gt;Node29</title>
<g id="a_edge29_Node000001_Node000029"><a xlink:title=" ">
<path fill="none" stroke="#63b8ff" d="M1345.88,-342.61C1285.96,-338.07 1173.06,-326.22 1143.75,-300 1110.35,-270.13 1106.68,-211.03 1106.58,-188.25"/>
<polygon fill="#63b8ff" stroke="#63b8ff" points="1345.54,-346.17 1355.77,-343.4 1346.05,-339.18 1345.54,-346.17"/>
</a>
</g>
</g>
<!-- Node30 -->
<g id="Node000030" class="node">
<title>Node30</title>
<g id="a_Node000030"><a xlink:href="_u_a_r_t__msg__t_8h.html" target="_top" xlink:title=" ">
<polygon fill="white" stroke="#666666" points="947.75,-300 865.75,-300 865.75,-280 947.75,-280 947.75,-300"/>
<text text-anchor="middle" x="906.75" y="-286.5" font-family="Helvetica,sans-Serif" font-size="10.00">UART_msg_t.h</text>
</a>
</g>
</g>
<!-- Node1&#45;&gt;Node30 -->
<g id="edge30_Node000001_Node000030" class="edge">
<title>Node1&#45;&gt;Node30</title>
<g id="a_edge30_Node000001_Node000030"><a xlink:title=" ">
<path fill="none" stroke="#63b8ff" d="M1345.93,-340.72C1257.83,-330.75 1039.55,-306.03 948.1,-295.68"/>
<polygon fill="#63b8ff" stroke="#63b8ff" points="1345.41,-344.29 1355.74,-341.94 1346.19,-337.34 1345.41,-344.29"/>
</a>
</g>
</g>
<!-- Node33 -->
<g id="Node000033" class="node">
<title>Node33</title>
<g id="a_Node000033"><a xlink:href="ble__commands_8h.html" target="_top" xlink:title="This file declares the BLE commands, and the functions that should be called when they are received.">
<polygon fill="white" stroke="#666666" points="672.88,-132 582.63,-132 582.63,-112 672.88,-112 672.88,-132"/>
<text text-anchor="middle" x="627.75" y="-118.5" font-family="Helvetica,sans-Serif" font-size="10.00">ble_commands.h</text>
</a>
</g>
</g>
<!-- Node1&#45;&gt;Node33 -->
<g id="edge53_Node000001_Node000033" class="edge">
<title>Node1&#45;&gt;Node33</title>
<g id="a_edge53_Node000001_Node000033"><a xlink:title=" ">
<path fill="none" stroke="#63b8ff" d="M1345.78,-345.18C1232.27,-345.24 897.22,-341.79 797.75,-300 713.3,-264.52 650.79,-163.79 632.94,-132.44"/>
<polygon fill="#63b8ff" stroke="#63b8ff" points="1345.68,-348.68 1355.67,-345.16 1345.67,-341.68 1345.68,-348.68"/>
</a>
</g>
</g>
<!-- Node35 -->
<g id="Node000035" class="node">
<title>Node35</title>
<g id="a_Node000035"><a xlink:href="uart__commands_8h.html" target="_top" xlink:title=" ">
<polygon fill="white" stroke="#666666" points="851.75,-188 757.75,-188 757.75,-168 851.75,-168 851.75,-188"/>
<text text-anchor="middle" x="804.75" y="-174.5" font-family="Helvetica,sans-Serif" font-size="10.00">uart_commands.h</text>
</a>
</g>
</g>
<!-- Node1&#45;&gt;Node35 -->
<g id="edge54_Node000001_Node000035" class="edge">
<title>Node1&#45;&gt;Node35</title>
<g id="a_edge54_Node000001_Node000035"><a xlink:title=" ">
<path fill="none" stroke="#63b8ff" d="M1345.85,-343.99C1231.63,-340.65 896.21,-328.47 856.75,-300 818.74,-272.57 808.26,-211.48 805.59,-188.23"/>
<polygon fill="#63b8ff" stroke="#63b8ff" points="1345.71,-347.52 1355.81,-344.3 1345.91,-340.52 1345.71,-347.52"/>
</a>
</g>
</g>
<!-- Node36 -->
<g id="Node000036" class="node">
<title>Node36</title>
<g id="a_Node000036"><a xlink:href="_utilities_8cpp.html" target="_top" xlink:title=" ">
<polygon fill="white" stroke="#666666" points="2915.25,-300 2848.25,-300 2848.25,-280 2915.25,-280 2915.25,-300"/>
<text text-anchor="middle" x="2881.75" y="-286.5" font-family="Helvetica,sans-Serif" font-size="10.00">Utilities.cpp</text>
</a>
</g>
</g>
<!-- Node1&#45;&gt;Node36 -->
<g id="edge52_Node000001_Node000036" class="edge">
<title>Node1&#45;&gt;Node36</title>
<g id="a_edge52_Node000001_Node000036"><a xlink:title=" ">
<path fill="none" stroke="#63b8ff" d="M1421.7,-344.73C1621.45,-343.16 2552.58,-334.11 2838.75,-300 2841.78,-299.64 2844.91,-299.17 2848.04,-298.64"/>
<polygon fill="#63b8ff" stroke="#63b8ff" points="1421.88,-341.23 1411.91,-344.81 1421.93,-348.23 1421.88,-341.23"/>
</a>
</g>
</g>
<!-- Node8&#45;&gt;Node9 -->
<g id="edge8_Node000008_Node000009" class="edge">
<title>Node8&#45;&gt;Node9</title>
<g id="a_edge8_Node000008_Node000009"><a xlink:title=" ">
<path fill="none" stroke="#63b8ff" d="M1245,-212.89C1243.82,-188.72 1240.87,-147.06 1233.75,-112 1231.18,-99.33 1226.45,-85.16 1223.2,-76.16"/>
<polygon fill="#63b8ff" stroke="#63b8ff" points="1241.55,-212.96 1245.47,-222.8 1248.54,-212.66 1241.55,-212.96"/>
</a>
</g>
</g>
<!-- Node30&#45;&gt;Node10 -->
<g id="edge31_Node000030_Node000010" class="edge">
<title>Node30&#45;&gt;Node10</title>
<g id="a_edge31_Node000030_Node000010"><a xlink:title=" ">
<path fill="none" stroke="#63b8ff" d="M865.61,-275.69C827.57,-260.93 773.34,-233.06 748.75,-188 738.68,-169.55 752.29,-145.33 761.51,-132.29"/>
<polygon fill="#63b8ff" stroke="#63b8ff" points="864.28,-279.3 874.87,-279.51 866.72,-272.74 864.28,-279.3"/>
</a>
</g>
</g>
<!-- Node30&#45;&gt;Node12 -->
<g id="edge35_Node000030_Node000012" class="edge">
<title>Node30&#45;&gt;Node12</title>
<g id="a_edge35_Node000030_Node000012"><a xlink:title=" ">
<path fill="none" stroke="#63b8ff" d="M935.09,-274.17C947.8,-266.47 962.27,-256.12 972.75,-244 1003.48,-208.47 1022.33,-154.14 1029.01,-132.44"/>
<polygon fill="#63b8ff" stroke="#63b8ff" points="933.71,-271.5 926.8,-279.53 937.21,-277.57 933.71,-271.5"/>
</a>
</g>
</g>
<!-- Node31 -->
<g id="Node000031" class="node">
<title>Node31</title>
<g id="a_Node000031"><a xlink:href="_error_reporter_8h.html" target="_top" xlink:title="Singleton class to report errors to the other microcontroller.">
<polygon fill="white" stroke="#666666" points="987.75,-132 905.75,-132 905.75,-112 987.75,-112 987.75,-132"/>
<text text-anchor="middle" x="946.75" y="-118.5" font-family="Helvetica,sans-Serif" font-size="10.00">ErrorReporter.h</text>
</a>
</g>
</g>
<!-- Node30&#45;&gt;Node31 -->
<g id="edge32_Node000030_Node000031" class="edge">
<title>Node30&#45;&gt;Node31</title>
<g id="a_edge32_Node000030_Node000031"><a xlink:title=" ">
<path fill="none" stroke="#63b8ff" d="M931.82,-273.29C941.51,-265.74 951.51,-255.76 956.75,-244 973.9,-205.49 958.15,-153.3 950.44,-132.31"/>
<polygon fill="#63b8ff" stroke="#63b8ff" points="930.23,-270.84 924.16,-279.52 934.32,-276.52 930.23,-270.84"/>
</a>
</g>
</g>
<!-- Node32 -->
<g id="Node000032" class="node">
<title>Node32</title>
<g id="a_Node000032"><a xlink:href="_u_a_r_t_handler_8h.html" target="_top" xlink:title="Singleton class that manages the UART data. NOT THREAD SAFE. The class queues recieved messages.">
<polygon fill="white" stroke="#666666" points="948.13,-244 865.38,-244 865.38,-224 948.13,-224 948.13,-244"/>
<text text-anchor="middle" x="906.75" y="-230.5" font-family="Helvetica,sans-Serif" font-size="10.00">UARTHandler.h</text>
</a>
</g>
</g>
<!-- Node30&#45;&gt;Node32 -->
<g id="edge36_Node000030_Node000032" class="edge">
<title>Node30&#45;&gt;Node32</title>
<g id="a_edge36_Node000030_Node000032"><a xlink:title=" ">
<path fill="none" stroke="#63b8ff" d="M906.75,-268.71C906.75,-260.32 906.75,-251.01 906.75,-244.3"/>
<polygon fill="#63b8ff" stroke="#63b8ff" points="903.25,-268.59 906.75,-278.59 910.25,-268.59 903.25,-268.59"/>
</a>
</g>
</g>
<!-- Node30&#45;&gt;Node33 -->
<g id="edge50_Node000030_Node000033" class="edge">
<title>Node30&#45;&gt;Node33</title>
<g id="a_edge50_Node000030_Node000033"><a xlink:title=" ">
<path fill="none" stroke="#63b8ff" d="M856.53,-276.51C831.1,-269.06 800.28,-258.24 774.75,-244 716.14,-211.32 658.05,-154.39 636.51,-132.21"/>
<polygon fill="#63b8ff" stroke="#63b8ff" points="855.49,-280.14 866.07,-279.5 857.4,-273.41 855.49,-280.14"/>
</a>
</g>
</g>
<!-- Node30&#45;&gt;Node35 -->
<g id="edge51_Node000030_Node000035" class="edge">
<title>Node30&#45;&gt;Node35</title>
<g id="a_edge51_Node000030_Node000035"><a xlink:title=" ">
<path fill="none" stroke="#63b8ff" d="M887.42,-272.91C877.85,-264.62 866.32,-254.15 856.75,-244 839.1,-225.29 820.85,-201.17 811.37,-188.21"/>
<polygon fill="#63b8ff" stroke="#63b8ff" points="884.66,-276.01 894.55,-279.83 889.2,-270.68 884.66,-276.01"/>
</a>
</g>
</g>
<!-- Node31&#45;&gt;Node9 -->
<g id="edge34_Node000031_Node000009" class="edge">
<title>Node31&#45;&gt;Node9</title>
<g id="a_edge34_Node000031_Node000009"><a xlink:title=" ">
<path fill="none" stroke="#63b8ff" d="M998.73,-110.72C1055.28,-99.53 1143.75,-82.03 1189.73,-72.94"/>
<polygon fill="#63b8ff" stroke="#63b8ff" points="998.34,-107.42 989.21,-112.8 999.7,-114.29 998.34,-107.42"/>
</a>
</g>
</g>
<!-- Node31&#45;&gt;Node16 -->
<g id="edge33_Node000031_Node000016" class="edge">
<title>Node31&#45;&gt;Node16</title>
<g id="a_edge33_Node000031_Node000016"><a xlink:title=" ">
<path fill="none" stroke="#63b8ff" d="M998.92,-111.72C1114.7,-93.84 1146.72,-97.63 1258.75,-76 1261.41,-75.49 1264.16,-74.9 1266.91,-74.28"/>
<polygon fill="#63b8ff" stroke="#63b8ff" points="998.54,-108.4 989.2,-113.4 999.62,-115.31 998.54,-108.4"/>
</a>
</g>
</g>
<!-- Node32&#45;&gt;Node10 -->
<g id="edge37_Node000032_Node000010" class="edge">
<title>Node32&#45;&gt;Node10</title>
<g id="a_edge37_Node000032_Node000010"><a xlink:title=" ">
<path fill="none" stroke="#63b8ff" d="M897.16,-214.69C889,-200.5 876.17,-181.12 860.75,-168 841.79,-151.87 816.05,-139.92 796.62,-132.41"/>
<polygon fill="#63b8ff" stroke="#63b8ff" points="894.36,-215.86 902.25,-222.93 900.49,-212.48 894.36,-215.86"/>
</a>
</g>
</g>
<!-- Node32&#45;&gt;Node12 -->
<g id="edge39_Node000032_Node000012" class="edge">
<title>Node32&#45;&gt;Node12</title>
<g id="a_edge39_Node000032_Node000012"><a xlink:title=" ">
<path fill="none" stroke="#63b8ff" d="M925.55,-216.45C952.16,-193.04 999.92,-151.01 1021.12,-132.35"/>
<polygon fill="#63b8ff" stroke="#63b8ff" points="923.6,-214.39 918.41,-223.62 928.23,-219.64 923.6,-214.39"/>
</a>
</g>
</g>
<!-- Node32&#45;&gt;Node29 -->
<g id="edge40_Node000032_Node000029" class="edge">
<title>Node32&#45;&gt;Node29</title>
<g id="a_edge40_Node000032_Node000029"><a xlink:title=" ">
<path fill="none" stroke="#63b8ff" d="M951.89,-220.81C988.15,-211.02 1038.34,-197.47 1071.64,-188.48"/>
<polygon fill="#63b8ff" stroke="#63b8ff" points="951.33,-217.61 942.59,-223.59 953.15,-224.37 951.33,-217.61"/>
</a>
</g>
</g>
<!-- Node32&#45;&gt;Node31 -->
<g id="edge38_Node000032_Node000031" class="edge">
<title>Node32&#45;&gt;Node31</title>
<g id="a_edge38_Node000032_Node000031"><a xlink:title=" ">
<path fill="none" stroke="#63b8ff" d="M913.91,-213.3C922.59,-189.43 936.86,-150.2 943.35,-132.35"/>
<polygon fill="#63b8ff" stroke="#63b8ff" points="910.29,-212.03 910.16,-222.62 916.87,-214.42 910.29,-212.03"/>
</a>
</g>
</g>
<!-- Node32&#45;&gt;Node33 -->
<g id="edge41_Node000032_Node000033" class="edge">
<title>Node32&#45;&gt;Node33</title>
<g id="a_edge41_Node000032_Node000033"><a xlink:title=" ">
<path fill="none" stroke="#63b8ff" d="M854.36,-221.1C823.14,-213.27 783.03,-201.9 748.75,-188 708.75,-171.78 664.83,-146 642.52,-132.29"/>
<polygon fill="#63b8ff" stroke="#63b8ff" points="853.47,-224.73 864.01,-223.72 855.14,-217.93 853.47,-224.73"/>
</a>
</g>
</g>
<!-- Node32&#45;&gt;Node35 -->
<g id="edge45_Node000032_Node000035" class="edge">
<title>Node32&#45;&gt;Node35</title>
<g id="a_edge45_Node000032_Node000035"><a xlink:title=" ">
<path fill="none" stroke="#63b8ff" d="M879.32,-218.48C861.33,-208.96 838.33,-196.78 822.66,-188.48"/>
<polygon fill="#63b8ff" stroke="#63b8ff" points="877.51,-222.01 887.98,-223.59 880.78,-215.82 877.51,-222.01"/>
</a>
</g>
</g>
<!-- Node33&#45;&gt;Node7 -->
<g id="edge42_Node000033_Node000007" class="edge">
<title>Node33&#45;&gt;Node7</title>
<g id="a_edge42_Node000033_Node000007"><a xlink:title=" ">
<path fill="none" stroke="#63b8ff" d="M613.29,-102.87C607.52,-94.97 601.21,-85.38 596.75,-76 587.76,-57.1 582.09,-33.06 579.46,-20.16"/>
<polygon fill="#63b8ff" stroke="#63b8ff" points="611.05,-104.71 619.9,-110.55 616.62,-100.47 611.05,-104.71"/>
</a>
</g>
</g>
<!-- Node34 -->
<g id="Node000034" class="node">
<title>Node34</title>
<g id="a_Node000034"><a xlink:href="_ble_parser_8h.html" target="_top" xlink:title="This class is used to serialize and deserialize the BLE data. The application uses Nordic&#39;s UART serv...">
<polygon fill="white" stroke="#666666" points="673.25,-76 606.25,-76 606.25,-56 673.25,-56 673.25,-76"/>
<text text-anchor="middle" x="639.75" y="-62.5" font-family="Helvetica,sans-Serif" font-size="10.00">BleParser.h</text>
</a>
</g>
</g>
<!-- Node33&#45;&gt;Node34 -->
<g id="edge43_Node000033_Node000034" class="edge">
<title>Node33&#45;&gt;Node34</title>
<g id="a_edge43_Node000033_Node000034"><a xlink:title=" ">
<path fill="none" stroke="#63b8ff" d="M632.19,-101C634.07,-92.54 636.18,-83.08 637.68,-76.3"/>
<polygon fill="#63b8ff" stroke="#63b8ff" points="628.59,-100.07 629.84,-110.59 635.43,-101.59 628.59,-100.07"/>
</a>
</g>
</g>
<!-- Node34&#45;&gt;Node7 -->
<g id="edge44_Node000034_Node000007" class="edge">
<title>Node34&#45;&gt;Node7</title>
<g id="a_edge44_Node000034_Node000007"><a xlink:title=" ">
<path fill="none" stroke="#63b8ff" d="M620.69,-48.4C610.09,-39.17 597.28,-28.01 588.43,-20.3"/>
<polygon fill="#63b8ff" stroke="#63b8ff" points="618.11,-51.67 627.95,-55.59 622.71,-46.39 618.11,-51.67"/>
</a>
</g>
</g>
<!-- Node35&#45;&gt;Node10 -->
<g id="edge46_Node000035_Node000010" class="edge">
<title>Node35&#45;&gt;Node10</title>
<g id="a_edge46_Node000035_Node000010"><a xlink:title=" ">
<path fill="none" stroke="#63b8ff" d="M792.56,-158.72C786.64,-149.84 779.78,-139.55 774.95,-132.3"/>
<polygon fill="#63b8ff" stroke="#63b8ff" points="790.02,-160.21 798.48,-166.59 795.84,-156.33 790.02,-160.21"/>
</a>
</g>
</g>
<!-- Node35&#45;&gt;Node12 -->
<g id="edge48_Node000035_Node000012" class="edge">
<title>Node35&#45;&gt;Node12</title>
<g id="a_edge48_Node000035_Node000012"><a xlink:title=" ">
<path fill="none" stroke="#63b8ff" d="M856.86,-165.1C895.52,-156.2 949.49,-143.61 996.75,-132 999.55,-131.31 1002.48,-130.58 1005.39,-129.84"/>
<polygon fill="#63b8ff" stroke="#63b8ff" points="856.35,-161.86 847.38,-167.51 857.91,-168.68 856.35,-161.86"/>
</a>
</g>
</g>
<!-- Node35&#45;&gt;Node31 -->
<g id="edge47_Node000035_Node000031" class="edge">
<title>Node35&#45;&gt;Node31</title>
<g id="a_edge47_Node000035_Node000031"><a xlink:title=" ">
<path fill="none" stroke="#63b8ff" d="M839.48,-163.79C864.97,-154.1 898.99,-141.16 921.82,-132.48"/>
<polygon fill="#63b8ff" stroke="#63b8ff" points="838.59,-160.77 830.48,-167.59 841.08,-167.31 838.59,-160.77"/>
</a>
</g>
</g>
<!-- Node35&#45;&gt;Node33 -->
<g id="edge49_Node000035_Node000033" class="edge">
<title>Node35&#45;&gt;Node33</title>
<g id="a_edge49_Node000035_Node000033"><a xlink:title=" ">
<path fill="none" stroke="#63b8ff" d="M763.56,-164.43C731.57,-154.67 687.91,-141.35 658.82,-132.48"/>
<polygon fill="#63b8ff" stroke="#63b8ff" points="762.33,-168.02 772.92,-167.59 764.38,-161.33 762.33,-168.02"/>
</a>
</g>
</g>
</g>
</svg>

<g id="navigator" transform="translate(0 0)" fill="#404254">
  <rect fill="#f2f5e9" fill-opacity="0.5" stroke="#606060" stroke-width=".5" x="0" y="0" width="60" height="60"/>
  <use id="zoomplus" xlink:href="#zoomPlus" x="17" y="9" onmousedown="handleZoom(evt,'in')"/>
  <use id="zoomminus" xlink:href="#zoomMin" x="42" y="9" onmousedown="handleZoom(evt,'out')"/>
  <use id="reset" xlink:href="#resetDef" x="30" y="36" onmousedown="handleReset()"/>
   <use id="arrowup" xlink:href="#arrowUp" x="0" y="0" onmousedown="handlePan(0,-1)"/>
  <use id="arrowright" xlink:href="#arrowRight" x="0" y="0" onmousedown="handlePan(1,0)"/>
  <use id="arrowdown" xlink:href="#arrowDown" x="0" y="0" onmousedown="handlePan(0,1)"/>
  <use id="arrowleft" xlink:href="#arrowLeft" x="0" y="0" onmousedown="handlePan(-1,0)"/>
</g>
<svg viewBox="0 0 15 15" width="100%" height="30px" preserveAspectRatio="xMaxYMin meet">
 <g id="arrow_out" transform="scale(0.3 0.3)">
  <a xlink:href="_logger_8h__dep__incl_org.svg" target="_base">
   <rect id="button" ry="5" rx="5" y="6" x="6" height="38" width="38"
        fill="#f2f5e9" fill-opacity="0.5" stroke="#606060" stroke-width="1.0"/>
   <path id="arrow"
     d="M 11.500037,31.436501 C 11.940474,20.09759 22.043105,11.32322 32.158766,21.979434 L 37.068811,17.246167 C 37.068811,17.246167 37.088388,32 37.088388,32 L 22.160133,31.978069 C 22.160133,31.978069 26.997745,27.140456 26.997745,27.140456 C 18.528582,18.264221 13.291696,25.230495 11.500037,31.436501 z"
     style="fill:#404040;"/>
  </a>
 </g>
</svg>

<style type='text/css'>
<![CDATA[
[data-mouse-over-selected='false'] { opacity: 0.7; }
[data-mouse-over-selected='true']  { opacity: 1.0; }
]]>
</style>
<script type="application/ecmascript"><![CDATA[
document.addEventListener('DOMContentLoaded', (event) => {
  highlightEdges();
  highlightAdjacentNodes();
});
]]></script>
</svg>
