<?xml version="1.0" encoding="UTF-8" standalone="no"?>
<!DOCTYPE svg PUBLIC "-//W3C//DTD SVG 1.1//EN"
 "http://www.w3.org/Graphics/SVG/1.1/DTD/svg11.dtd">
<!-- Generated by graphviz version 8.1.0 (20230707.0739)
 -->
<!-- Title: MotorData.cpp Pages: 1 -->
<svg width="331pt" height="252pt"
 viewBox="0.00 0.00 331.25 252.00" xmlns="http://www.w3.org/2000/svg" xmlns:xlink="http://www.w3.org/1999/xlink">
<g id="graph0" class="graph" transform="scale(1 1) rotate(0) translate(4 248)">
<title>MotorData.cpp</title>
<!-- Node1 -->
<g id="Node000001" class="node">
<title>Node1</title>
<g id="a_Node000001"><a xlink:title=" ">
<polygon fill="#999999" stroke="#666666" points="156.63,-244 76.88,-244 76.88,-224 156.63,-224 156.63,-244"/>
<text text-anchor="middle" x="116.75" y="-230.5" font-family="Helvetica,sans-Serif" font-size="10.00">MotorData.cpp</text>
</a>
</g>
</g>
<!-- Node2 -->
<g id="Node000002" class="node">
<title>Node2</title>
<g id="a_Node000002"><a xlink:href="_motor_data_8h.html" target="_top" xlink:title="Declares a class used to store data for motors to access.">
<polygon fill="white" stroke="#666666" points="151.38,-188 82.13,-188 82.13,-168 151.38,-168 151.38,-188"/>
<text text-anchor="middle" x="116.75" y="-174.5" font-family="Helvetica,sans-Serif" font-size="10.00">MotorData.h</text>
</a>
</g>
</g>
<!-- Node1&#45;&gt;Node2 -->
<g id="edge1_Node000001_Node000002" class="edge">
<title>Node1&#45;&gt;Node2</title>
<g id="a_edge1_Node000001_Node000002"><a xlink:title=" ">
<path fill="none" stroke="#63b8ff" d="M116.75,-223.59C116.75,-216.86 116.75,-207.53 116.75,-199.15"/>
<polygon fill="#63b8ff" stroke="#63b8ff" points="120.25,-199.3 116.75,-189.3 113.25,-199.3 120.25,-199.3"/>
</a>
</g>
</g>
<!-- Node4 -->
<g id="Node000004" class="node">
<title>Node4</title>
<g id="a_Node000004"><a xlink:href="_parse_ini_8h.html" target="_top" xlink:title="Declares the functions needed and defines mapping between the INI keys and the exo components.">
<polygon fill="white" stroke="#666666" points="59.5,-132 0,-132 0,-112 59.5,-112 59.5,-132"/>
<text text-anchor="middle" x="29.75" y="-118.5" font-family="Helvetica,sans-Serif" font-size="10.00">ParseIni.h</text>
</a>
</g>
</g>
<!-- Node1&#45;&gt;Node4 -->
<g id="edge11_Node000001_Node000004" class="edge">
<title>Node1&#45;&gt;Node4</title>
<g id="a_edge11_Node000001_Node000004"><a xlink:title=" ">
<path fill="none" stroke="#63b8ff" d="M106.76,-223.84C97.46,-215.07 83.46,-201.26 72.75,-188 60.69,-173.07 48.8,-154.73 40.58,-141.34"/>
<polygon fill="#63b8ff" stroke="#63b8ff" points="43.24,-139.97 35.08,-133.21 37.24,-143.58 43.24,-139.97"/>
</a>
</g>
</g>
<!-- Node9 -->
<g id="Node000009" class="node">
<title>Node9</title>
<g id="a_Node000009"><a xlink:href="_logger_8h.html" target="_top" xlink:title=" ">
<polygon fill="white" stroke="#666666" points="287.5,-132 234,-132 234,-112 287.5,-112 287.5,-132"/>
<text text-anchor="middle" x="260.75" y="-118.5" font-family="Helvetica,sans-Serif" font-size="10.00">Logger.h</text>
</a>
</g>
</g>
<!-- Node1&#45;&gt;Node9 -->
<g id="edge12_Node000001_Node000009" class="edge">
<title>Node1&#45;&gt;Node9</title>
<g id="a_edge12_Node000001_Node000009"><a xlink:title=" ">
<path fill="none" stroke="#63b8ff" d="M129.03,-223.62C153.68,-204.79 209.45,-162.18 239.92,-138.91"/>
<polygon fill="#63b8ff" stroke="#63b8ff" points="241.68,-141.21 247.5,-132.35 237.43,-135.64 241.68,-141.21"/>
</a>
</g>
</g>
<!-- Node3 -->
<g id="Node000003" class="node">
<title>Node3</title>
<g id="a_Node000003"><a xlink:title=" ">
<polygon fill="#e0e0e0" stroke="#999999" points="219.38,-20 162.13,-20 162.13,0 219.38,0 219.38,-20"/>
<text text-anchor="middle" x="190.75" y="-6.5" font-family="Helvetica,sans-Serif" font-size="10.00">Arduino.h</text>
</a>
</g>
</g>
<!-- Node2&#45;&gt;Node3 -->
<g id="edge2_Node000002_Node000003" class="edge">
<title>Node2&#45;&gt;Node3</title>
<g id="a_edge2_Node000002_Node000003"><a xlink:title=" ">
<path fill="none" stroke="#63b8ff" d="M120.68,-167.72C126.04,-155.08 135.99,-131.77 144.75,-112 157.39,-83.46 172.46,-50.6 181.81,-30.31"/>
<polygon fill="#63b8ff" stroke="#63b8ff" points="185.36,-31.99 186.37,-21.44 179,-29.05 185.36,-31.99"/>
</a>
</g>
</g>
<!-- Node2&#45;&gt;Node4 -->
<g id="edge3_Node000002_Node000004" class="edge">
<title>Node2&#45;&gt;Node4</title>
<g id="a_edge3_Node000002_Node000004"><a xlink:title=" ">
<path fill="none" stroke="#63b8ff" d="M101.6,-167.59C88.58,-159.51 69.56,-147.71 54.36,-138.27"/>
<polygon fill="#63b8ff" stroke="#63b8ff" points="56.36,-134.78 46.02,-132.48 52.67,-140.73 56.36,-134.78"/>
</a>
</g>
</g>
<!-- Node5 -->
<g id="Node000005" class="node">
<title>Node5</title>
<g id="a_Node000005"><a xlink:title=" ">
<polygon fill="#e0e0e0" stroke="#999999" points="75.88,-76 27.63,-76 27.63,-56 75.88,-56 75.88,-76"/>
<text text-anchor="middle" x="51.75" y="-62.5" font-family="Helvetica,sans-Serif" font-size="10.00">stdint.h</text>
</a>
</g>
</g>
<!-- Node2&#45;&gt;Node5 -->
<g id="edge10_Node000002_Node000005" class="edge">
<title>Node2&#45;&gt;Node5</title>
<g id="a_edge10_Node000002_Node000005"><a xlink:title=" ">
<path fill="none" stroke="#63b8ff" d="M111.21,-167.62C100.51,-149.52 76.84,-109.45 62.8,-85.7"/>
<polygon fill="#63b8ff" stroke="#63b8ff" points="65.38,-84.18 57.28,-77.35 59.35,-87.74 65.38,-84.18"/>
</a>
</g>
</g>
<!-- Node6 -->
<g id="Node000006" class="node">
<title>Node6</title>
<g id="a_Node000006"><a xlink:href="_board_8h.html" target="_top" xlink:title="Defines the pins and peripherals for the board being used.">
<polygon fill="white" stroke="#666666" points="203.63,-132 153.88,-132 153.88,-112 203.63,-112 203.63,-132"/>
<text text-anchor="middle" x="178.75" y="-118.5" font-family="Helvetica,sans-Serif" font-size="10.00">Board.h</text>
</a>
</g>
</g>
<!-- Node2&#45;&gt;Node6 -->
<g id="edge5_Node000002_Node000006" class="edge">
<title>Node2&#45;&gt;Node6</title>
<g id="a_edge5_Node000002_Node000006"><a xlink:title=" ">
<path fill="none" stroke="#63b8ff" d="M127.55,-167.59C136.44,-159.85 149.26,-148.69 159.84,-139.47"/>
<polygon fill="#63b8ff" stroke="#63b8ff" points="161.83,-141.51 167.07,-132.3 157.23,-136.23 161.83,-141.51"/>
</a>
</g>
</g>
<!-- Node4&#45;&gt;Node5 -->
<g id="edge4_Node000004_Node000005" class="edge">
<title>Node4&#45;&gt;Node5</title>
<g id="a_edge4_Node000004_Node000005"><a xlink:title=" ">
<path fill="none" stroke="#63b8ff" d="M33.58,-111.59C36.42,-104.63 40.39,-94.89 43.89,-86.29"/>
<polygon fill="#63b8ff" stroke="#63b8ff" points="47.43,-87.88 47.96,-77.3 40.95,-85.24 47.43,-87.88"/>
</a>
</g>
</g>
<!-- Node6&#45;&gt;Node3 -->
<g id="edge9_Node000006_Node000003" class="edge">
<title>Node6&#45;&gt;Node3</title>
<g id="a_edge9_Node000006_Node000003"><a xlink:title=" ">
<path fill="none" stroke="#63b8ff" d="M178.99,-111.71C179.39,-99.07 180.39,-75.76 182.75,-56 183.74,-47.73 185.26,-38.68 186.71,-30.88"/>
<polygon fill="#63b8ff" stroke="#63b8ff" points="190.3,-31.75 188.78,-21.26 183.43,-30.41 190.3,-31.75"/>
</a>
</g>
</g>
<!-- Node7 -->
<g id="Node000007" class="node">
<title>Node7</title>
<g id="a_Node000007"><a xlink:href="_config_8h.html" target="_top" xlink:title="Configuration variables for the codebase.">
<polygon fill="white" stroke="#666666" points="243.38,-76 192.13,-76 192.13,-56 243.38,-56 243.38,-76"/>
<text text-anchor="middle" x="217.75" y="-62.5" font-family="Helvetica,sans-Serif" font-size="10.00">Config.h</text>
</a>
</g>
</g>
<!-- Node6&#45;&gt;Node7 -->
<g id="edge6_Node000006_Node000007" class="edge">
<title>Node6&#45;&gt;Node7</title>
<g id="a_edge6_Node000006_Node000007"><a xlink:title=" ">
<path fill="none" stroke="#63b8ff" d="M185.54,-111.59C190.8,-104.32 198.24,-94.02 204.64,-85.15"/>
<polygon fill="#63b8ff" stroke="#63b8ff" points="208.02,-87.45 211.03,-77.3 202.34,-83.36 208.02,-87.45"/>
</a>
</g>
</g>
<!-- Node7&#45;&gt;Node3 -->
<g id="edge7_Node000007_Node000003" class="edge">
<title>Node7&#45;&gt;Node3</title>
<g id="a_edge7_Node000007_Node000003"><a xlink:title=" ">
<path fill="none" stroke="#63b8ff" d="M213.05,-55.59C209.52,-48.55 204.58,-38.67 200.25,-30"/>
<polygon fill="#63b8ff" stroke="#63b8ff" points="203,-28.68 195.4,-21.3 196.74,-31.81 203,-28.68"/>
</a>
</g>
</g>
<!-- Node8 -->
<g id="Node000008" class="node">
<title>Node8</title>
<g id="a_Node000008"><a xlink:href="_log_levels_8h.html" target="_top" xlink:title=" ">
<polygon fill="white" stroke="#666666" points="323.25,-20 256.25,-20 256.25,0 323.25,0 323.25,-20"/>
<text text-anchor="middle" x="289.75" y="-6.5" font-family="Helvetica,sans-Serif" font-size="10.00">LogLevels.h</text>
</a>
</g>
</g>
<!-- Node7&#45;&gt;Node8 -->
<g id="edge8_Node000007_Node000008" class="edge">
<title>Node7&#45;&gt;Node8</title>
<g id="a_edge8_Node000007_Node000008"><a xlink:title=" ">
<path fill="none" stroke="#63b8ff" d="M230.29,-55.59C240.93,-47.62 256.4,-36.02 268.89,-26.64"/>
<polygon fill="#63b8ff" stroke="#63b8ff" points="270.45,-29.1 276.35,-20.3 266.25,-23.5 270.45,-29.1"/>
</a>
</g>
</g>
<!-- Node9&#45;&gt;Node3 -->
<g id="edge13_Node000009_Node000003" class="edge">
<title>Node9&#45;&gt;Node3</title>
<g id="a_edge13_Node000009_Node000003"><a xlink:title=" ">
<path fill="none" stroke="#63b8ff" d="M261.8,-111.88C262.88,-98.6 263.14,-73.63 252.75,-56 245.29,-43.34 232.72,-33.23 220.84,-25.82"/>
<polygon fill="#63b8ff" stroke="#63b8ff" points="222.99,-22.44 212.58,-20.46 219.48,-28.5 222.99,-22.44"/>
</a>
</g>
</g>
<!-- Node9&#45;&gt;Node7 -->
<g id="edge15_Node000009_Node000007" class="edge">
<title>Node9&#45;&gt;Node7</title>
<g id="a_edge15_Node000009_Node000007"><a xlink:title=" ">
<path fill="none" stroke="#63b8ff" d="M253.26,-111.59C247.4,-104.24 239.09,-93.8 231.98,-84.87"/>
<polygon fill="#63b8ff" stroke="#63b8ff" points="234.12,-82.94 225.15,-77.3 228.65,-87.3 234.12,-82.94"/>
</a>
</g>
</g>
<!-- Node9&#45;&gt;Node8 -->
<g id="edge14_Node000009_Node000008" class="edge">
<title>Node9&#45;&gt;Node8</title>
<g id="a_edge14_Node000009_Node000008"><a xlink:title=" ">
<path fill="none" stroke="#63b8ff" d="M267.66,-111.55C273.63,-102.81 281.89,-89.21 285.75,-76 290.02,-61.38 290.91,-44.14 290.78,-31.09"/>
<polygon fill="#63b8ff" stroke="#63b8ff" points="294.26,-31.37 290.46,-21.48 287.27,-31.58 294.26,-31.37"/>
</a>
</g>
</g>
</g>
</svg>
