<?xml version="1.0" encoding="UTF-8" standalone="no"?>
<!DOCTYPE svg PUBLIC "-//W3C//DTD SVG 1.1//EN"
 "http://www.w3.org/Graphics/SVG/1.1/DTD/svg11.dtd">
<!-- Generated by graphviz version 8.1.0 (20230707.0739)
 -->
<!-- Title: ParamsFromSD.h Pages: 1 -->
<svg width="531pt" height="252pt"
 viewBox="0.00 0.00 531.13 252.00" xmlns="http://www.w3.org/2000/svg" xmlns:xlink="http://www.w3.org/1999/xlink">
<g id="graph0" class="graph" transform="scale(1 1) rotate(0) translate(4 248)">
<title>ParamsFromSD.h</title>
<!-- Node1 -->
<g id="Node000001" class="node">
<title>Node1</title>
<g id="a_Node000001"><a xlink:title="Declares the functions to pull controller parameters from the SD card and defines the mapping to the ...">
<polygon fill="#999999" stroke="#666666" points="229.13,-244 135.13,-244 135.13,-224 229.13,-224 229.13,-244"/>
<text text-anchor="middle" x="182.13" y="-230.5" font-family="Helvetica,sans-Serif" font-size="10.00">ParamsFromSD.h</text>
</a>
</g>
</g>
<!-- Node2 -->
<g id="Node000002" class="node">
<title>Node2</title>
<g id="a_Node000002"><a xlink:href="_exo_data_8cpp.html" target="_top" xlink:title=" ">
<polygon fill="white" stroke="#666666" points="72.25,-188 0,-188 0,-168 72.25,-168 72.25,-188"/>
<text text-anchor="middle" x="36.13" y="-174.5" font-family="Helvetica,sans-Serif" font-size="10.00">ExoData.cpp</text>
</a>
</g>
</g>
<!-- Node1&#45;&gt;Node2 -->
<g id="edge1_Node000001_Node000002" class="edge">
<title>Node1&#45;&gt;Node2</title>
<g id="a_edge1_Node000001_Node000002"><a xlink:title=" ">
<path fill="none" stroke="#63b8ff" d="M146.41,-219.79C120.2,-210.1 85.23,-197.16 61.75,-188.48"/>
<polygon fill="#63b8ff" stroke="#63b8ff" points="145.1,-223.41 155.69,-223.59 147.53,-216.84 145.1,-223.41"/>
</a>
</g>
</g>
<!-- Node3 -->
<g id="Node000003" class="node">
<title>Node3</title>
<g id="a_Node000003"><a xlink:href="_params_from_s_d_8cpp.html" target="_top" xlink:title=" ">
<polygon fill="white" stroke="#666666" points="194.38,-188 89.88,-188 89.88,-168 194.38,-168 194.38,-188"/>
<text text-anchor="middle" x="142.13" y="-174.5" font-family="Helvetica,sans-Serif" font-size="10.00">ParamsFromSD.cpp</text>
</a>
</g>
</g>
<!-- Node1&#45;&gt;Node3 -->
<g id="edge2_Node000001_Node000003" class="edge">
<title>Node1&#45;&gt;Node3</title>
<g id="a_edge2_Node000001_Node000003"><a xlink:title=" ">
<path fill="none" stroke="#63b8ff" d="M168.79,-215C162.17,-206.06 154.44,-195.62 149.01,-188.3"/>
<polygon fill="#63b8ff" stroke="#63b8ff" points="166.39,-216.64 175.16,-222.59 172.02,-212.48 166.39,-216.64"/>
</a>
</g>
</g>
<!-- Node4 -->
<g id="Node000004" class="node">
<title>Node4</title>
<g id="a_Node000004"><a xlink:href="ble__commands_8h.html" target="_top" xlink:title="This file declares the BLE commands, and the functions that should be called when they are received.">
<polygon fill="white" stroke="#666666" points="253.25,-132 163,-132 163,-112 253.25,-112 253.25,-132"/>
<text text-anchor="middle" x="208.13" y="-118.5" font-family="Helvetica,sans-Serif" font-size="10.00">ble_commands.h</text>
</a>
</g>
</g>
<!-- Node1&#45;&gt;Node4 -->
<g id="edge3_Node000001_Node000004" class="edge">
<title>Node1&#45;&gt;Node4</title>
<g id="a_edge3_Node000001_Node000004"><a xlink:title=" ">
<path fill="none" stroke="#63b8ff" d="M192.78,-214.14C196.71,-206.29 200.78,-196.94 203.13,-188 208.18,-168.73 208.65,-145.24 208.45,-132.43"/>
<polygon fill="#63b8ff" stroke="#63b8ff" points="189.28,-212.25 187.67,-222.72 195.46,-215.54 189.28,-212.25"/>
</a>
</g>
</g>
<!-- Node7 -->
<g id="Node000007" class="node">
<title>Node7</title>
<g id="a_Node000007"><a xlink:href="uart__commands_8h.html" target="_top" xlink:title=" ">
<polygon fill="white" stroke="#666666" points="359.13,-188 265.13,-188 265.13,-168 359.13,-168 359.13,-188"/>
<text text-anchor="middle" x="312.13" y="-174.5" font-family="Helvetica,sans-Serif" font-size="10.00">uart_commands.h</text>
</a>
</g>
</g>
<!-- Node1&#45;&gt;Node7 -->
<g id="edge7_Node000001_Node000007" class="edge">
<title>Node1&#45;&gt;Node7</title>
<g id="a_edge7_Node000001_Node000007"><a xlink:title=" ">
<path fill="none" stroke="#63b8ff" d="M214.86,-219.4C238.09,-209.75 268.68,-197.05 289.3,-188.48"/>
<polygon fill="#63b8ff" stroke="#63b8ff" points="213.66,-216.53 205.77,-223.59 216.35,-222.99 213.66,-216.53"/>
</a>
</g>
</g>
<!-- Node5 -->
<g id="Node000005" class="node">
<title>Node5</title>
<g id="a_Node000005"><a xlink:href="_ble_parser_8cpp.html" target="_top" xlink:title=" ">
<polygon fill="white" stroke="#666666" points="271.88,-20 194.38,-20 194.38,0 271.88,0 271.88,-20"/>
<text text-anchor="middle" x="233.13" y="-6.5" font-family="Helvetica,sans-Serif" font-size="10.00">BleParser.cpp</text>
</a>
</g>
</g>
<!-- Node4&#45;&gt;Node5 -->
<g id="edge4_Node000004_Node000005" class="edge">
<title>Node4&#45;&gt;Node5</title>
<g id="a_edge4_Node000004_Node000005"><a xlink:title=" ">
<path fill="none" stroke="#63b8ff" d="M211.74,-101.23C214.19,-88.32 217.6,-71.1 221.13,-56 224.02,-43.56 227.92,-29.33 230.47,-20.26"/>
<polygon fill="#63b8ff" stroke="#63b8ff" points="208.18,-100.23 209.79,-110.7 215.06,-101.51 208.18,-100.23"/>
</a>
</g>
</g>
<!-- Node6 -->
<g id="Node000006" class="node">
<title>Node6</title>
<g id="a_Node000006"><a xlink:href="_ble_parser_8h.html" target="_top" xlink:title="This class is used to serialize and deserialize the BLE data. The application uses Nordic&#39;s UART serv...">
<polygon fill="white" stroke="#666666" points="297.63,-76 230.63,-76 230.63,-56 297.63,-56 297.63,-76"/>
<text text-anchor="middle" x="264.13" y="-62.5" font-family="Helvetica,sans-Serif" font-size="10.00">BleParser.h</text>
</a>
</g>
</g>
<!-- Node4&#45;&gt;Node6 -->
<g id="edge5_Node000004_Node000006" class="edge">
<title>Node4&#45;&gt;Node6</title>
<g id="a_edge5_Node000004_Node000006"><a xlink:title=" ">
<path fill="none" stroke="#63b8ff" d="M225.62,-104.13C235.15,-94.94 246.57,-83.93 254.48,-76.3"/>
<polygon fill="#63b8ff" stroke="#63b8ff" points="223.65,-101.13 218.88,-110.59 228.51,-106.17 223.65,-101.13"/>
</a>
</g>
</g>
<!-- Node6&#45;&gt;Node5 -->
<g id="edge6_Node000006_Node000005" class="edge">
<title>Node6&#45;&gt;Node5</title>
<g id="a_edge6_Node000006_Node000005"><a xlink:title=" ">
<path fill="none" stroke="#63b8ff" d="M253.3,-46.15C248.28,-37.4 242.54,-27.39 238.46,-20.3"/>
<polygon fill="#63b8ff" stroke="#63b8ff" points="250.71,-47.66 258.73,-54.59 256.78,-44.18 250.71,-47.66"/>
</a>
</g>
</g>
<!-- Node7&#45;&gt;Node4 -->
<g id="edge13_Node000007_Node000004" class="edge">
<title>Node7&#45;&gt;Node4</title>
<g id="a_edge13_Node000007_Node000004"><a xlink:title=" ">
<path fill="none" stroke="#63b8ff" d="M284.42,-162.61C266.04,-153.07 242.43,-140.81 226.38,-132.48"/>
<polygon fill="#63b8ff" stroke="#63b8ff" points="282.52,-166.09 293.01,-167.59 285.75,-159.88 282.52,-166.09"/>
</a>
</g>
</g>
<!-- Node8 -->
<g id="Node000008" class="node">
<title>Node8</title>
<g id="a_Node000008"><a xlink:href="_coms_m_c_u_8cpp.html" target="_top" xlink:title=" ">
<polygon fill="white" stroke="#666666" points="353.13,-132 271.13,-132 271.13,-112 353.13,-112 353.13,-132"/>
<text text-anchor="middle" x="312.13" y="-118.5" font-family="Helvetica,sans-Serif" font-size="10.00">ComsMCU.cpp</text>
</a>
</g>
</g>
<!-- Node7&#45;&gt;Node8 -->
<g id="edge8_Node000007_Node000008" class="edge">
<title>Node7&#45;&gt;Node8</title>
<g id="a_edge8_Node000007_Node000008"><a xlink:title=" ">
<path fill="none" stroke="#63b8ff" d="M312.13,-156.71C312.13,-148.32 312.13,-139.01 312.13,-132.3"/>
<polygon fill="#63b8ff" stroke="#63b8ff" points="308.63,-156.59 312.13,-166.59 315.63,-156.59 308.63,-156.59"/>
</a>
</g>
</g>
<!-- Node9 -->
<g id="Node000009" class="node">
<title>Node9</title>
<g id="a_Node000009"><a xlink:href="_error_reporter_8h.html" target="_top" xlink:title="Singleton class to report errors to the other microcontroller.">
<polygon fill="white" stroke="#666666" points="453.13,-132 371.13,-132 371.13,-112 453.13,-112 453.13,-132"/>
<text text-anchor="middle" x="412.13" y="-118.5" font-family="Helvetica,sans-Serif" font-size="10.00">ErrorReporter.h</text>
</a>
</g>
</g>
<!-- Node7&#45;&gt;Node9 -->
<g id="edge9_Node000007_Node000009" class="edge">
<title>Node7&#45;&gt;Node9</title>
<g id="a_edge9_Node000007_Node000009"><a xlink:title=" ">
<path fill="none" stroke="#63b8ff" d="M338.77,-162.61C356.44,-153.07 379.14,-140.81 394.57,-132.48"/>
<polygon fill="#63b8ff" stroke="#63b8ff" points="337.68,-159.76 330.54,-167.59 341.01,-165.92 337.68,-159.76"/>
</a>
</g>
</g>
<!-- Node12 -->
<g id="Node000012" class="node">
<title>Node12</title>
<g id="a_Node000012"><a xlink:href="_exo_8cpp.html" target="_top" xlink:title=" ">
<polygon fill="white" stroke="#666666" points="523.13,-132 471.13,-132 471.13,-112 523.13,-112 523.13,-132"/>
<text text-anchor="middle" x="497.13" y="-118.5" font-family="Helvetica,sans-Serif" font-size="10.00">Exo.cpp</text>
</a>
</g>
</g>
<!-- Node7&#45;&gt;Node12 -->
<g id="edge12_Node000007_Node000012" class="edge">
<title>Node7&#45;&gt;Node12</title>
<g id="a_edge12_Node000007_Node000012"><a xlink:title=" ">
<path fill="none" stroke="#63b8ff" d="M354.49,-164.63C390.25,-154.2 440.34,-139.58 470.66,-130.73"/>
<polygon fill="#63b8ff" stroke="#63b8ff" points="353.97,-161.43 345.35,-167.59 355.93,-168.15 353.97,-161.43"/>
</a>
</g>
</g>
<!-- Node10 -->
<g id="Node000010" class="node">
<title>Node10</title>
<g id="a_Node000010"><a xlink:href="_joint_8cpp.html" target="_top" xlink:title=" ">
<polygon fill="white" stroke="#666666" points="404.63,-76 349.63,-76 349.63,-56 404.63,-56 404.63,-76"/>
<text text-anchor="middle" x="377.13" y="-62.5" font-family="Helvetica,sans-Serif" font-size="10.00">Joint.cpp</text>
</a>
</g>
</g>
<!-- Node9&#45;&gt;Node10 -->
<g id="edge10_Node000009_Node000010" class="edge">
<title>Node9&#45;&gt;Node10</title>
<g id="a_edge10_Node000009_Node000010"><a xlink:title=" ">
<path fill="none" stroke="#63b8ff" d="M400.09,-102.44C394.38,-93.62 387.8,-83.47 383.15,-76.3"/>
<polygon fill="#63b8ff" stroke="#63b8ff" points="397.65,-104.11 406.03,-110.59 403.53,-100.3 397.65,-104.11"/>
</a>
</g>
</g>
<!-- Node11 -->
<g id="Node000011" class="node">
<title>Node11</title>
<g id="a_Node000011"><a xlink:href="_motor_8cpp.html" target="_top" xlink:title=" ">
<polygon fill="white" stroke="#666666" points="481.88,-76 422.38,-76 422.38,-56 481.88,-56 481.88,-76"/>
<text text-anchor="middle" x="452.13" y="-62.5" font-family="Helvetica,sans-Serif" font-size="10.00">Motor.cpp</text>
</a>
</g>
</g>
<!-- Node9&#45;&gt;Node11 -->
<g id="edge11_Node000009_Node000011" class="edge">
<title>Node9&#45;&gt;Node11</title>
<g id="a_edge11_Node000009_Node000011"><a xlink:title=" ">
<path fill="none" stroke="#63b8ff" d="M425.46,-103C432.08,-94.06 439.81,-83.62 445.24,-76.3"/>
<polygon fill="#63b8ff" stroke="#63b8ff" points="422.23,-100.48 419.09,-110.59 427.86,-104.64 422.23,-100.48"/>
</a>
</g>
</g>
</g>
</svg>
