<?xml version="1.0" encoding="UTF-8" standalone="no"?>
<!DOCTYPE svg PUBLIC "-//W3C//DTD SVG 1.1//EN"
 "http://www.w3.org/Graphics/SVG/1.1/DTD/svg11.dtd">
<!-- Generated by graphviz version 8.1.0 (20230707.0739)
 -->
<!-- Title: ParamsFromSD.h Pages: 1 -->
<!--zoomable 252 -->

<svg id="main" version="1.1" xmlns="http://www.w3.org/2000/svg" xmlns:xlink="http://www.w3.org/1999/xlink" xml:space="preserve" onload="init(evt)">
<style type="text/css"><![CDATA[
.node, .edge {opacity: 0.7;}
.node.selected, .edge.selected {opacity: 1;}
.edge:hover path { stroke: red; }
.edge:hover polygon { stroke: red; fill: red; }
]]></style>

<defs>
  <circle id="rim" cx="0" cy="0" r="7"/>
  <circle id="rim2" cx="0" cy="0" r="3.5"/>
  <g id="zoomPlus">
    <use xlink:href="#rim" fill="#404040"><set attributeName="fill" to="#808080" begin="zoomplus.mouseover" end="zoomplus.mouseout"/></use>
    <path d="M-4,0h8M0,-4v8" fill="none" stroke="white" stroke-width="1.5" pointer-events="none"/>
  </g>
  <g id="zoomMin">
    <use xlink:href="#rim" fill="#404040"><set attributeName="fill" to="#808080" begin="zoomminus.mouseover" end="zoomminus.mouseout"/></use>
    <path d="M-4,0h8" fill="none" stroke="white" stroke-width="1.5" pointer-events="none"/>
  </g>
  <g id="arrowUp" transform="translate(30 24)">
    <use xlink:href="#rim"/>
    <path pointer-events="none" fill="none" stroke="white" stroke-width="1.5" d="M0,-3.0v7 M-2.5,-0.5L0,-3.0L2.5,-0.5"/>
  </g>
  <g id="arrowRight" transform="rotate(90) translate(36 -43)">
    <use xlink:href="#rim"/>
    <path pointer-events="none" fill="none" stroke="white" stroke-width="1.5" d="M0,-3.0v7 M-2.5,-0.5L0,-3.0L2.5,-0.5"/>
  </g>
  <g id="arrowDown" transform="rotate(180) translate(-30 -48)">
    <use xlink:href="#rim"/>
    <path pointer-events="none" fill="none" stroke="white" stroke-width="1.5" d="M0,-3.0v7 M-2.5,-0.5L0,-3.0L2.5,-0.5"/>
  </g>
  <g id="arrowLeft" transform="rotate(270) translate(-36 17)">
    <use xlink:href="#rim"/>
    <path pointer-events="none" fill="none" stroke="white" stroke-width="1.5" d="M0,-3.0v7 M-2.5,-0.5L0,-3.0L2.5,-0.5"/>
  </g>
  <g id="resetDef">
    <use xlink:href="#rim2" fill="#404040"><set attributeName="fill" to="#808080" begin="reset.mouseover" end="reset.mouseout"/></use>
  </g>
</defs>
<script type="application/ecmascript">
var viewWidth = 531;
var viewHeight = 252;
var sectionId = 'dynsection-1';
</script>
<script type="application/ecmascript" xlink:href="svg.min.js"/>
<svg id="graph" class="graph">
<g id="viewport">
<title>ParamsFromSD.h</title>
<!-- Node1 -->
<g id="Node000001" class="node">
<title>Node1</title>
<g id="a_Node000001"><a xlink:title="Declares the functions to pull controller parameters from the SD card and defines the mapping to the ...">
<polygon fill="#999999" stroke="#666666" points="229.13,-244 135.13,-244 135.13,-224 229.13,-224 229.13,-244"/>
<text text-anchor="middle" x="182.13" y="-230.5" font-family="Helvetica,sans-Serif" font-size="10.00">ParamsFromSD.h</text>
</a>
</g>
</g>
<!-- Node2 -->
<g id="Node000002" class="node">
<title>Node2</title>
<g id="a_Node000002"><a xlink:href="_exo_data_8cpp.html" target="_top" xlink:title=" ">
<polygon fill="white" stroke="#666666" points="72.25,-188 0,-188 0,-168 72.25,-168 72.25,-188"/>
<text text-anchor="middle" x="36.13" y="-174.5" font-family="Helvetica,sans-Serif" font-size="10.00">ExoData.cpp</text>
</a>
</g>
</g>
<!-- Node1&#45;&gt;Node2 -->
<g id="edge1_Node000001_Node000002" class="edge">
<title>Node1&#45;&gt;Node2</title>
<g id="a_edge1_Node000001_Node000002"><a xlink:title=" ">
<path fill="none" stroke="#63b8ff" d="M146.41,-219.79C120.2,-210.1 85.23,-197.16 61.75,-188.48"/>
<polygon fill="#63b8ff" stroke="#63b8ff" points="145.1,-223.41 155.69,-223.59 147.53,-216.84 145.1,-223.41"/>
</a>
</g>
</g>
<!-- Node3 -->
<g id="Node000003" class="node">
<title>Node3</title>
<g id="a_Node000003"><a xlink:href="_params_from_s_d_8cpp.html" target="_top" xlink:title=" ">
<polygon fill="white" stroke="#666666" points="194.38,-188 89.88,-188 89.88,-168 194.38,-168 194.38,-188"/>
<text text-anchor="middle" x="142.13" y="-174.5" font-family="Helvetica,sans-Serif" font-size="10.00">ParamsFromSD.cpp</text>
</a>
</g>
</g>
<!-- Node1&#45;&gt;Node3 -->
<g id="edge2_Node000001_Node000003" class="edge">
<title>Node1&#45;&gt;Node3</title>
<g id="a_edge2_Node000001_Node000003"><a xlink:title=" ">
<path fill="none" stroke="#63b8ff" d="M168.79,-215C162.17,-206.06 154.44,-195.62 149.01,-188.3"/>
<polygon fill="#63b8ff" stroke="#63b8ff" points="166.39,-216.64 175.16,-222.59 172.02,-212.48 166.39,-216.64"/>
</a>
</g>
</g>
<!-- Node4 -->
<g id="Node000004" class="node">
<title>Node4</title>
<g id="a_Node000004"><a xlink:href="ble__commands_8h.html" target="_top" xlink:title="This file declares the BLE commands, and the functions that should be called when they are received.">
<polygon fill="white" stroke="#666666" points="253.25,-132 163,-132 163,-112 253.25,-112 253.25,-132"/>
<text text-anchor="middle" x="208.13" y="-118.5" font-family="Helvetica,sans-Serif" font-size="10.00">ble_commands.h</text>
</a>
</g>
</g>
<!-- Node1&#45;&gt;Node4 -->
<g id="edge3_Node000001_Node000004" class="edge">
<title>Node1&#45;&gt;Node4</title>
<g id="a_edge3_Node000001_Node000004"><a xlink:title=" ">
<path fill="none" stroke="#63b8ff" d="M192.78,-214.14C196.71,-206.29 200.78,-196.94 203.13,-188 208.18,-168.73 208.65,-145.24 208.45,-132.43"/>
<polygon fill="#63b8ff" stroke="#63b8ff" points="189.28,-212.25 187.67,-222.72 195.46,-215.54 189.28,-212.25"/>
</a>
</g>
</g>
<!-- Node7 -->
<g id="Node000007" class="node">
<title>Node7</title>
<g id="a_Node000007"><a xlink:href="uart__commands_8h.html" target="_top" xlink:title=" ">
<polygon fill="white" stroke="#666666" points="359.13,-188 265.13,-188 265.13,-168 359.13,-168 359.13,-188"/>
<text text-anchor="middle" x="312.13" y="-174.5" font-family="Helvetica,sans-Serif" font-size="10.00">uart_commands.h</text>
</a>
</g>
</g>
<!-- Node1&#45;&gt;Node7 -->
<g id="edge7_Node000001_Node000007" class="edge">
<title>Node1&#45;&gt;Node7</title>
<g id="a_edge7_Node000001_Node000007"><a xlink:title=" ">
<path fill="none" stroke="#63b8ff" d="M214.86,-219.4C238.09,-209.75 268.68,-197.05 289.3,-188.48"/>
<polygon fill="#63b8ff" stroke="#63b8ff" points="213.66,-216.53 205.77,-223.59 216.35,-222.99 213.66,-216.53"/>
</a>
</g>
</g>
<!-- Node5 -->
<g id="Node000005" class="node">
<title>Node5</title>
<g id="a_Node000005"><a xlink:href="_ble_parser_8cpp.html" target="_top" xlink:title=" ">
<polygon fill="white" stroke="#666666" points="271.88,-20 194.38,-20 194.38,0 271.88,0 271.88,-20"/>
<text text-anchor="middle" x="233.13" y="-6.5" font-family="Helvetica,sans-Serif" font-size="10.00">BleParser.cpp</text>
</a>
</g>
</g>
<!-- Node4&#45;&gt;Node5 -->
<g id="edge4_Node000004_Node000005" class="edge">
<title>Node4&#45;&gt;Node5</title>
<g id="a_edge4_Node000004_Node000005"><a xlink:title=" ">
<path fill="none" stroke="#63b8ff" d="M211.74,-101.23C214.19,-88.32 217.6,-71.1 221.13,-56 224.02,-43.56 227.92,-29.33 230.47,-20.26"/>
<polygon fill="#63b8ff" stroke="#63b8ff" points="208.18,-100.23 209.79,-110.7 215.06,-101.51 208.18,-100.23"/>
</a>
</g>
</g>
<!-- Node6 -->
<g id="Node000006" class="node">
<title>Node6</title>
<g id="a_Node000006"><a xlink:href="_ble_parser_8h.html" target="_top" xlink:title="This class is used to serialize and deserialize the BLE data. The application uses Nordic&#39;s UART serv...">
<polygon fill="white" stroke="#666666" points="297.63,-76 230.63,-76 230.63,-56 297.63,-56 297.63,-76"/>
<text text-anchor="middle" x="264.13" y="-62.5" font-family="Helvetica,sans-Serif" font-size="10.00">BleParser.h</text>
</a>
</g>
</g>
<!-- Node4&#45;&gt;Node6 -->
<g id="edge5_Node000004_Node000006" class="edge">
<title>Node4&#45;&gt;Node6</title>
<g id="a_edge5_Node000004_Node000006"><a xlink:title=" ">
<path fill="none" stroke="#63b8ff" d="M225.62,-104.13C235.15,-94.94 246.57,-83.93 254.48,-76.3"/>
<polygon fill="#63b8ff" stroke="#63b8ff" points="223.65,-101.13 218.88,-110.59 228.51,-106.17 223.65,-101.13"/>
</a>
</g>
</g>
<!-- Node6&#45;&gt;Node5 -->
<g id="edge6_Node000006_Node000005" class="edge">
<title>Node6&#45;&gt;Node5</title>
<g id="a_edge6_Node000006_Node000005"><a xlink:title=" ">
<path fill="none" stroke="#63b8ff" d="M253.3,-46.15C248.28,-37.4 242.54,-27.39 238.46,-20.3"/>
<polygon fill="#63b8ff" stroke="#63b8ff" points="250.71,-47.66 258.73,-54.59 256.78,-44.18 250.71,-47.66"/>
</a>
</g>
</g>
<!-- Node7&#45;&gt;Node4 -->
<g id="edge13_Node000007_Node000004" class="edge">
<title>Node7&#45;&gt;Node4</title>
<g id="a_edge13_Node000007_Node000004"><a xlink:title=" ">
<path fill="none" stroke="#63b8ff" d="M284.42,-162.61C266.04,-153.07 242.43,-140.81 226.38,-132.48"/>
<polygon fill="#63b8ff" stroke="#63b8ff" points="282.52,-166.09 293.01,-167.59 285.75,-159.88 282.52,-166.09"/>
</a>
</g>
</g>
<!-- Node8 -->
<g id="Node000008" class="node">
<title>Node8</title>
<g id="a_Node000008"><a xlink:href="_coms_m_c_u_8cpp.html" target="_top" xlink:title=" ">
<polygon fill="white" stroke="#666666" points="353.13,-132 271.13,-132 271.13,-112 353.13,-112 353.13,-132"/>
<text text-anchor="middle" x="312.13" y="-118.5" font-family="Helvetica,sans-Serif" font-size="10.00">ComsMCU.cpp</text>
</a>
</g>
</g>
<!-- Node7&#45;&gt;Node8 -->
<g id="edge8_Node000007_Node000008" class="edge">
<title>Node7&#45;&gt;Node8</title>
<g id="a_edge8_Node000007_Node000008"><a xlink:title=" ">
<path fill="none" stroke="#63b8ff" d="M312.13,-156.71C312.13,-148.32 312.13,-139.01 312.13,-132.3"/>
<polygon fill="#63b8ff" stroke="#63b8ff" points="308.63,-156.59 312.13,-166.59 315.63,-156.59 308.63,-156.59"/>
</a>
</g>
</g>
<!-- Node9 -->
<g id="Node000009" class="node">
<title>Node9</title>
<g id="a_Node000009"><a xlink:href="_error_reporter_8h.html" target="_top" xlink:title="Singleton class to report errors to the other microcontroller.">
<polygon fill="white" stroke="#666666" points="453.13,-132 371.13,-132 371.13,-112 453.13,-112 453.13,-132"/>
<text text-anchor="middle" x="412.13" y="-118.5" font-family="Helvetica,sans-Serif" font-size="10.00">ErrorReporter.h</text>
</a>
</g>
</g>
<!-- Node7&#45;&gt;Node9 -->
<g id="edge9_Node000007_Node000009" class="edge">
<title>Node7&#45;&gt;Node9</title>
<g id="a_edge9_Node000007_Node000009"><a xlink:title=" ">
<path fill="none" stroke="#63b8ff" d="M338.77,-162.61C356.44,-153.07 379.14,-140.81 394.57,-132.48"/>
<polygon fill="#63b8ff" stroke="#63b8ff" points="337.68,-159.76 330.54,-167.59 341.01,-165.92 337.68,-159.76"/>
</a>
</g>
</g>
<!-- Node12 -->
<g id="Node000012" class="node">
<title>Node12</title>
<g id="a_Node000012"><a xlink:href="_exo_8cpp.html" target="_top" xlink:title=" ">
<polygon fill="white" stroke="#666666" points="523.13,-132 471.13,-132 471.13,-112 523.13,-112 523.13,-132"/>
<text text-anchor="middle" x="497.13" y="-118.5" font-family="Helvetica,sans-Serif" font-size="10.00">Exo.cpp</text>
</a>
</g>
</g>
<!-- Node7&#45;&gt;Node12 -->
<g id="edge12_Node000007_Node000012" class="edge">
<title>Node7&#45;&gt;Node12</title>
<g id="a_edge12_Node000007_Node000012"><a xlink:title=" ">
<path fill="none" stroke="#63b8ff" d="M354.49,-164.63C390.25,-154.2 440.34,-139.58 470.66,-130.73"/>
<polygon fill="#63b8ff" stroke="#63b8ff" points="353.97,-161.43 345.35,-167.59 355.93,-168.15 353.97,-161.43"/>
</a>
</g>
</g>
<!-- Node10 -->
<g id="Node000010" class="node">
<title>Node10</title>
<g id="a_Node000010"><a xlink:href="_joint_8cpp.html" target="_top" xlink:title=" ">
<polygon fill="white" stroke="#666666" points="404.63,-76 349.63,-76 349.63,-56 404.63,-56 404.63,-76"/>
<text text-anchor="middle" x="377.13" y="-62.5" font-family="Helvetica,sans-Serif" font-size="10.00">Joint.cpp</text>
</a>
</g>
</g>
<!-- Node9&#45;&gt;Node10 -->
<g id="edge10_Node000009_Node000010" class="edge">
<title>Node9&#45;&gt;Node10</title>
<g id="a_edge10_Node000009_Node000010"><a xlink:title=" ">
<path fill="none" stroke="#63b8ff" d="M400.09,-102.44C394.38,-93.62 387.8,-83.47 383.15,-76.3"/>
<polygon fill="#63b8ff" stroke="#63b8ff" points="397.65,-104.11 406.03,-110.59 403.53,-100.3 397.65,-104.11"/>
</a>
</g>
</g>
<!-- Node11 -->
<g id="Node000011" class="node">
<title>Node11</title>
<g id="a_Node000011"><a xlink:href="_motor_8cpp.html" target="_top" xlink:title=" ">
<polygon fill="white" stroke="#666666" points="481.88,-76 422.38,-76 422.38,-56 481.88,-56 481.88,-76"/>
<text text-anchor="middle" x="452.13" y="-62.5" font-family="Helvetica,sans-Serif" font-size="10.00">Motor.cpp</text>
</a>
</g>
</g>
<!-- Node9&#45;&gt;Node11 -->
<g id="edge11_Node000009_Node000011" class="edge">
<title>Node9&#45;&gt;Node11</title>
<g id="a_edge11_Node000009_Node000011"><a xlink:title=" ">
<path fill="none" stroke="#63b8ff" d="M425.46,-103C432.08,-94.06 439.81,-83.62 445.24,-76.3"/>
<polygon fill="#63b8ff" stroke="#63b8ff" points="422.23,-100.48 419.09,-110.59 427.86,-104.64 422.23,-100.48"/>
</a>
</g>
</g>
</g>
</svg>

<g id="navigator" transform="translate(0 0)" fill="#404254">
  <rect fill="#f2f5e9" fill-opacity="0.5" stroke="#606060" stroke-width=".5" x="0" y="0" width="60" height="60"/>
  <use id="zoomplus" xlink:href="#zoomPlus" x="17" y="9" onmousedown="handleZoom(evt,'in')"/>
  <use id="zoomminus" xlink:href="#zoomMin" x="42" y="9" onmousedown="handleZoom(evt,'out')"/>
  <use id="reset" xlink:href="#resetDef" x="30" y="36" onmousedown="handleReset()"/>
   <use id="arrowup" xlink:href="#arrowUp" x="0" y="0" onmousedown="handlePan(0,-1)"/>
  <use id="arrowright" xlink:href="#arrowRight" x="0" y="0" onmousedown="handlePan(1,0)"/>
  <use id="arrowdown" xlink:href="#arrowDown" x="0" y="0" onmousedown="handlePan(0,1)"/>
  <use id="arrowleft" xlink:href="#arrowLeft" x="0" y="0" onmousedown="handlePan(-1,0)"/>
</g>
<svg viewBox="0 0 15 15" width="100%" height="30px" preserveAspectRatio="xMaxYMin meet">
 <g id="arrow_out" transform="scale(0.3 0.3)">
  <a xlink:href="_params_from_s_d_8h__dep__incl_org.svg" target="_base">
   <rect id="button" ry="5" rx="5" y="6" x="6" height="38" width="38"
        fill="#f2f5e9" fill-opacity="0.5" stroke="#606060" stroke-width="1.0"/>
   <path id="arrow"
     d="M 11.500037,31.436501 C 11.940474,20.09759 22.043105,11.32322 32.158766,21.979434 L 37.068811,17.246167 C 37.068811,17.246167 37.088388,32 37.088388,32 L 22.160133,31.978069 C 22.160133,31.978069 26.997745,27.140456 26.997745,27.140456 C 18.528582,18.264221 13.291696,25.230495 11.500037,31.436501 z"
     style="fill:#404040;"/>
  </a>
 </g>
</svg>

<style type='text/css'>
<![CDATA[
[data-mouse-over-selected='false'] { opacity: 0.7; }
[data-mouse-over-selected='true']  { opacity: 1.0; }
]]>
</style>
<script type="application/ecmascript"><![CDATA[
document.addEventListener('DOMContentLoaded', (event) => {
  highlightEdges();
  highlightAdjacentNodes();
});
]]></script>
</svg>
