<?xml version="1.0" encoding="UTF-8" standalone="no"?>
<!DOCTYPE svg PUBLIC "-//W3C//DTD SVG 1.1//EN"
 "http://www.w3.org/Graphics/SVG/1.1/DTD/svg11.dtd">
<!-- Generated by graphviz version 8.1.0 (20230707.0739)
 -->
<!-- Title: ParseIni.h Pages: 1 -->
<svg width="1206pt" height="532pt"
 viewBox="0.00 0.00 1205.71 532.00" xmlns="http://www.w3.org/2000/svg" xmlns:xlink="http://www.w3.org/1999/xlink">
<g id="graph0" class="graph" transform="scale(1 1) rotate(0) translate(4 528)">
<title>ParseIni.h</title>
<!-- Node1 -->
<g id="Node000001" class="node">
<title>Node1</title>
<g id="a_Node000001"><a xlink:title="Declares the functions needed and defines mapping between the INI keys and the exo components.">
<polygon fill="#999999" stroke="#666666" points="455.5,-524 396,-524 396,-504 455.5,-504 455.5,-524"/>
<text text-anchor="middle" x="425.75" y="-510.5" font-family="Helvetica,sans-Serif" font-size="10.00">ParseIni.h</text>
</a>
</g>
</g>
<!-- Node2 -->
<g id="Node000002" class="node">
<title>Node2</title>
<g id="a_Node000002"><a xlink:href="_coms_m_c_u_8h.html" target="_top" xlink:title="The top of the composite structure for the communication microcontroller. This class manages the blue...">
<polygon fill="white" stroke="#666666" points="71.5,-244 0,-244 0,-224 71.5,-224 71.5,-244"/>
<text text-anchor="middle" x="35.75" y="-230.5" font-family="Helvetica,sans-Serif" font-size="10.00">ComsMCU.h</text>
</a>
</g>
</g>
<!-- Node1&#45;&gt;Node2 -->
<g id="edge1_Node000001_Node000002" class="edge">
<title>Node1&#45;&gt;Node2</title>
<g id="a_edge1_Node000001_Node000002"><a xlink:title=" ">
<path fill="none" stroke="#63b8ff" d="M384.85,-512.54C303.83,-510.87 126.62,-503.17 78.75,-468 53.11,-449.16 48.75,-434.82 48.75,-403 48.75,-403 48.75,-403 48.75,-345 48.75,-307.5 41.21,-263.31 37.61,-244.37"/>
<polygon fill="#63b8ff" stroke="#63b8ff" points="384.56,-516.05 394.62,-512.74 384.69,-509.06 384.56,-516.05"/>
</a>
</g>
</g>
<!-- Node4 -->
<g id="Node000004" class="node">
<title>Node4</title>
<g id="a_Node000004"><a xlink:href="_controller_data_8h.html" target="_top" xlink:title="Declares a class used to store data for controllers to access.">
<polygon fill="white" stroke="#666666" points="233.63,-468 147.88,-468 147.88,-448 233.63,-448 233.63,-468"/>
<text text-anchor="middle" x="190.75" y="-454.5" font-family="Helvetica,sans-Serif" font-size="10.00">ControllerData.h</text>
</a>
</g>
</g>
<!-- Node1&#45;&gt;Node4 -->
<g id="edge3_Node000001_Node000004" class="edge">
<title>Node1&#45;&gt;Node4</title>
<g id="a_edge3_Node000001_Node000004"><a xlink:title=" ">
<path fill="none" stroke="#63b8ff" d="M384.89,-503.61C342,-493.76 274.95,-478.35 231.94,-468.46"/>
<polygon fill="#63b8ff" stroke="#63b8ff" points="383.98,-507.22 394.51,-506.05 385.55,-500.4 383.98,-507.22"/>
</a>
</g>
</g>
<!-- Node6 -->
<g id="Node000006" class="node">
<title>Node6</title>
<g id="a_Node000006"><a xlink:href="_joint_data_8h.html" target="_top" xlink:title="Declares a class used to store data for joint to access.">
<polygon fill="white" stroke="#666666" points="300.13,-412 235.38,-412 235.38,-392 300.13,-392 300.13,-412"/>
<text text-anchor="middle" x="267.75" y="-398.5" font-family="Helvetica,sans-Serif" font-size="10.00">JointData.h</text>
</a>
</g>
</g>
<!-- Node1&#45;&gt;Node6 -->
<g id="edge32_Node000001_Node000006" class="edge">
<title>Node1&#45;&gt;Node6</title>
<g id="a_edge32_Node000001_Node000006"><a xlink:title=" ">
<path fill="none" stroke="#63b8ff" d="M385.1,-511.32C352.21,-507.71 307.15,-497.29 280.75,-468 266.73,-452.44 266.07,-426.15 266.87,-412.25"/>
<polygon fill="#63b8ff" stroke="#63b8ff" points="384.47,-514.87 394.75,-512.3 385.11,-507.9 384.47,-514.87"/>
</a>
</g>
</g>
<!-- Node8 -->
<g id="Node000008" class="node">
<title>Node8</title>
<g id="a_Node000008"><a xlink:href="_leg_data_8h.html" target="_top" xlink:title="Declares a class used to store data for leg to access.">
<polygon fill="white" stroke="#666666" points="396.88,-356 336.63,-356 336.63,-336 396.88,-336 396.88,-356"/>
<text text-anchor="middle" x="366.75" y="-342.5" font-family="Helvetica,sans-Serif" font-size="10.00">LegData.h</text>
</a>
</g>
</g>
<!-- Node1&#45;&gt;Node8 -->
<g id="edge33_Node000001_Node000008" class="edge">
<title>Node1&#45;&gt;Node8</title>
<g id="a_edge33_Node000001_Node000008"><a xlink:title=" ">
<path fill="none" stroke="#63b8ff" d="M425.99,-492.75C425.54,-467.87 422.29,-424.9 406.75,-392 400.05,-377.82 387.47,-364.81 378.2,-356.46"/>
<polygon fill="#63b8ff" stroke="#63b8ff" points="422.5,-492.69 426.03,-502.68 429.5,-492.67 422.5,-492.69"/>
</a>
</g>
</g>
<!-- Node9 -->
<g id="Node000009" class="node">
<title>Node9</title>
<g id="a_Node000009"><a xlink:href="_exo_data_8h.html" target="_top" xlink:title="Declares a class used to store data for the Exo to access.">
<polygon fill="white" stroke="#666666" points="436.63,-300 374.88,-300 374.88,-280 436.63,-280 436.63,-300"/>
<text text-anchor="middle" x="405.75" y="-286.5" font-family="Helvetica,sans-Serif" font-size="10.00">ExoData.h</text>
</a>
</g>
</g>
<!-- Node1&#45;&gt;Node9 -->
<g id="edge31_Node000001_Node000009" class="edge">
<title>Node1&#45;&gt;Node9</title>
<g id="a_edge31_Node000001_Node000009"><a xlink:title=" ">
<path fill="none" stroke="#63b8ff" d="M452.01,-497.33C462.02,-489.84 472.32,-479.89 477.75,-468 491.79,-437.28 485.03,-424.98 477.75,-392 471.83,-365.2 467.59,-358.4 451.75,-336 441.95,-322.14 427.57,-308.87 417.5,-300.38"/>
<polygon fill="#63b8ff" stroke="#63b8ff" points="450.3,-494.95 444.05,-503.51 454.27,-500.72 450.3,-494.95"/>
</a>
</g>
</g>
<!-- Node11 -->
<g id="Node000011" class="node">
<title>Node11</title>
<g id="a_Node000011"><a xlink:href="_params_from_s_d_8h.html" target="_top" xlink:title="Declares the functions to pull controller parameters from the SD card and defines the mapping to the ...">
<polygon fill="white" stroke="#666666" points="586.75,-244 492.75,-244 492.75,-224 586.75,-224 586.75,-244"/>
<text text-anchor="middle" x="539.75" y="-230.5" font-family="Helvetica,sans-Serif" font-size="10.00">ParamsFromSD.h</text>
</a>
</g>
</g>
<!-- Node1&#45;&gt;Node11 -->
<g id="edge38_Node000001_Node000011" class="edge">
<title>Node1&#45;&gt;Node11</title>
<g id="a_edge38_Node000001_Node000011"><a xlink:title=" ">
<path fill="none" stroke="#63b8ff" d="M457.77,-498.88C491.49,-481.57 539.75,-448.81 539.75,-403 539.75,-403 539.75,-403 539.75,-345 539.75,-307.76 539.75,-263.43 539.75,-244.42"/>
<polygon fill="#63b8ff" stroke="#63b8ff" points="456.7,-495.99 449.27,-503.55 459.79,-502.28 456.7,-495.99"/>
</a>
</g>
</g>
<!-- Node13 -->
<g id="Node000013" class="node">
<title>Node13</title>
<g id="a_Node000013"><a xlink:href="ble__commands_8h.html" target="_top" xlink:title="This file declares the BLE commands, and the functions that should be called when they are received.">
<polygon fill="white" stroke="#666666" points="641.88,-132 551.63,-132 551.63,-112 641.88,-112 641.88,-132"/>
<text text-anchor="middle" x="596.75" y="-118.5" font-family="Helvetica,sans-Serif" font-size="10.00">ble_commands.h</text>
</a>
</g>
</g>
<!-- Node1&#45;&gt;Node13 -->
<g id="edge48_Node000001_Node000013" class="edge">
<title>Node1&#45;&gt;Node13</title>
<g id="a_edge48_Node000001_Node000013"><a xlink:title=" ">
<path fill="none" stroke="#63b8ff" d="M466.27,-507.66C521.8,-497.82 614.75,-471.16 614.75,-403 614.75,-403 614.75,-403 614.75,-289 614.75,-228.99 602.98,-157.49 598.48,-132.32"/>
<polygon fill="#63b8ff" stroke="#63b8ff" points="465.99,-504.33 456.7,-509.42 467.14,-511.23 465.99,-504.33"/>
</a>
</g>
</g>
<!-- Node16 -->
<g id="Node000016" class="node">
<title>Node16</title>
<g id="a_Node000016"><a xlink:href="uart__commands_8h.html" target="_top" xlink:title=" ">
<polygon fill="white" stroke="#666666" points="242.75,-188 148.75,-188 148.75,-168 242.75,-168 242.75,-188"/>
<text text-anchor="middle" x="195.75" y="-174.5" font-family="Helvetica,sans-Serif" font-size="10.00">uart_commands.h</text>
</a>
</g>
</g>
<!-- Node1&#45;&gt;Node16 -->
<g id="edge49_Node000001_Node000016" class="edge">
<title>Node1&#45;&gt;Node16</title>
<g id="a_edge49_Node000001_Node000016"><a xlink:title=" ">
<path fill="none" stroke="#63b8ff" d="M384.91,-511.2C315.18,-507.39 177.02,-496.4 138.75,-468 46.97,-399.88 158.89,-230.42 188.79,-188.5"/>
<polygon fill="#63b8ff" stroke="#63b8ff" points="384.72,-514.75 394.88,-511.77 385.08,-507.76 384.72,-514.75"/>
</a>
</g>
</g>
<!-- Node17 -->
<g id="Node000017" class="node">
<title>Node17</title>
<g id="a_Node000017"><a xlink:href="_error_reporter_8h.html" target="_top" xlink:title="Singleton class to report errors to the other microcontroller.">
<polygon fill="white" stroke="#666666" points="311.75,-132 229.75,-132 229.75,-112 311.75,-112 311.75,-132"/>
<text text-anchor="middle" x="270.75" y="-118.5" font-family="Helvetica,sans-Serif" font-size="10.00">ErrorReporter.h</text>
</a>
</g>
</g>
<!-- Node1&#45;&gt;Node17 -->
<g id="edge30_Node000001_Node000017" class="edge">
<title>Node1&#45;&gt;Node17</title>
<g id="a_edge30_Node000001_Node000017"><a xlink:title=" ">
<path fill="none" stroke="#63b8ff" d="M431.67,-493.23C433.71,-485.45 435.74,-476.38 436.75,-468 440.85,-433.98 432.88,-425.03 423.75,-392 416.79,-366.8 419.96,-357.95 405.75,-336 392.75,-315.92 380.51,-318.82 365.75,-300 320.33,-242.11 285.24,-159.4 274.31,-132.12"/>
<polygon fill="#63b8ff" stroke="#63b8ff" points="428.03,-492.24 428.68,-502.81 434.77,-494.14 428.03,-492.24"/>
</a>
</g>
</g>
<!-- Node23 -->
<g id="Node000023" class="node">
<title>Node23</title>
<g id="a_Node000023"><a xlink:href="_motor_data_8cpp.html" target="_top" xlink:title=" ">
<polygon fill="white" stroke="#666666" points="397.63,-412 317.88,-412 317.88,-392 397.63,-392 397.63,-412"/>
<text text-anchor="middle" x="357.75" y="-398.5" font-family="Helvetica,sans-Serif" font-size="10.00">MotorData.cpp</text>
</a>
</g>
</g>
<!-- Node1&#45;&gt;Node23 -->
<g id="edge34_Node000001_Node000023" class="edge">
<title>Node1&#45;&gt;Node23</title>
<g id="a_edge34_Node000001_Node000023"><a xlink:title=" ">
<path fill="none" stroke="#63b8ff" d="M414.17,-494.27C399.48,-470.5 374.71,-430.44 363.53,-412.35"/>
<polygon fill="#63b8ff" stroke="#63b8ff" points="411.72,-495.96 419.95,-502.62 417.67,-492.28 411.72,-495.96"/>
</a>
</g>
</g>
<!-- Node24 -->
<g id="Node000024" class="node">
<title>Node24</title>
<g id="a_Node000024"><a xlink:href="_motor_data_8h.html" target="_top" xlink:title="Declares a class used to store data for motors to access.">
<polygon fill="white" stroke="#666666" points="359.38,-468 290.13,-468 290.13,-448 359.38,-448 359.38,-468"/>
<text text-anchor="middle" x="324.75" y="-454.5" font-family="Helvetica,sans-Serif" font-size="10.00">MotorData.h</text>
</a>
</g>
</g>
<!-- Node1&#45;&gt;Node24 -->
<g id="edge35_Node000001_Node000024" class="edge">
<title>Node1&#45;&gt;Node24</title>
<g id="a_edge35_Node000001_Node000024"><a xlink:title=" ">
<path fill="none" stroke="#63b8ff" d="M398.84,-498.61C380.99,-489.07 358.07,-476.81 342.48,-468.48"/>
<polygon fill="#63b8ff" stroke="#63b8ff" points="396.69,-501.97 407.16,-503.59 399.99,-495.79 396.69,-501.97"/>
</a>
</g>
</g>
<!-- Node25 -->
<g id="Node000025" class="node">
<title>Node25</title>
<g id="a_Node000025"><a xlink:href="_parse_ini_8cpp.html" target="_top" xlink:title=" ">
<polygon fill="white" stroke="#666666" points="750.75,-468 680.75,-468 680.75,-448 750.75,-448 750.75,-468"/>
<text text-anchor="middle" x="715.75" y="-454.5" font-family="Helvetica,sans-Serif" font-size="10.00">ParseIni.cpp</text>
</a>
</g>
</g>
<!-- Node1&#45;&gt;Node25 -->
<g id="edge39_Node000001_Node000025" class="edge">
<title>Node1&#45;&gt;Node25</title>
<g id="a_edge39_Node000001_Node000025"><a xlink:title=" ">
<path fill="none" stroke="#63b8ff" d="M466.77,-505.36C524,-494.7 626.81,-475.56 680.67,-465.53"/>
<polygon fill="#63b8ff" stroke="#63b8ff" points="466.15,-502.1 456.96,-507.37 467.44,-508.98 466.15,-502.1"/>
</a>
</g>
</g>
<!-- Node26 -->
<g id="Node000026" class="node">
<title>Node26</title>
<g id="a_Node000026"><a xlink:href="_utilities_8h.html" target="_top" xlink:title=" ">
<polygon fill="white" stroke="#666666" points="864,-300 807.5,-300 807.5,-280 864,-280 864,-300"/>
<text text-anchor="middle" x="835.75" y="-286.5" font-family="Helvetica,sans-Serif" font-size="10.00">Utilities.h</text>
</a>
</g>
</g>
<!-- Node1&#45;&gt;Node26 -->
<g id="edge40_Node000001_Node000026" class="edge">
<title>Node1&#45;&gt;Node26</title>
<g id="a_edge40_Node000001_Node000026"><a xlink:title=" ">
<path fill="none" stroke="#63b8ff" d="M466.58,-509.82C509.01,-505.2 576.41,-494.11 628.75,-468 718.87,-423.04 802.33,-330.36 827.82,-300.5"/>
<polygon fill="#63b8ff" stroke="#63b8ff" points="466.42,-506.41 456.83,-510.91 467.13,-513.38 466.42,-506.41"/>
</a>
</g>
</g>
<!-- Node3 -->
<g id="Node000003" class="node">
<title>Node3</title>
<g id="a_Node000003"><a xlink:href="_coms_m_c_u_8cpp.html" target="_top" xlink:title=" ">
<polygon fill="white" stroke="#666666" points="125.75,-132 43.75,-132 43.75,-112 125.75,-112 125.75,-132"/>
<text text-anchor="middle" x="84.75" y="-118.5" font-family="Helvetica,sans-Serif" font-size="10.00">ComsMCU.cpp</text>
</a>
</g>
</g>
<!-- Node2&#45;&gt;Node3 -->
<g id="edge2_Node000002_Node000003" class="edge">
<title>Node2&#45;&gt;Node3</title>
<g id="a_edge2_Node000002_Node000003"><a xlink:title=" ">
<path fill="none" stroke="#63b8ff" d="M44.38,-213.62C55,-189.78 72.6,-150.28 80.58,-132.35"/>
<polygon fill="#63b8ff" stroke="#63b8ff" points="40.8,-212.06 39.93,-222.62 47.19,-214.91 40.8,-212.06"/>
</a>
</g>
</g>
<!-- Node5 -->
<g id="Node000005" class="node">
<title>Node5</title>
<g id="a_Node000005"><a xlink:href="_controller_data_8cpp.html" target="_top" xlink:title=" ">
<polygon fill="white" stroke="#666666" points="216.88,-412 120.63,-412 120.63,-392 216.88,-392 216.88,-412"/>
<text text-anchor="middle" x="168.75" y="-398.5" font-family="Helvetica,sans-Serif" font-size="10.00">ControllerData.cpp</text>
</a>
</g>
</g>
<!-- Node4&#45;&gt;Node5 -->
<g id="edge4_Node000004_Node000005" class="edge">
<title>Node4&#45;&gt;Node5</title>
<g id="a_edge4_Node000004_Node000005"><a xlink:title=" ">
<path fill="none" stroke="#63b8ff" d="M182.84,-437.58C179.33,-428.97 175.37,-419.24 172.54,-412.3"/>
<polygon fill="#63b8ff" stroke="#63b8ff" points="179.9,-438.65 186.92,-446.59 186.39,-436.01 179.9,-438.65"/>
</a>
</g>
</g>
<!-- Node4&#45;&gt;Node6 -->
<g id="edge5_Node000004_Node000006" class="edge">
<title>Node4&#45;&gt;Node6</title>
<g id="a_edge5_Node000004_Node000006"><a xlink:title=" ">
<path fill="none" stroke="#63b8ff" d="M212.79,-441.54C226.16,-432.17 242.79,-420.51 254.23,-412.48"/>
<polygon fill="#63b8ff" stroke="#63b8ff" points="211.34,-438.99 205.16,-447.59 215.36,-444.72 211.34,-438.99"/>
</a>
</g>
</g>
<!-- Node7 -->
<g id="Node000007" class="node">
<title>Node7</title>
<g id="a_Node000007"><a xlink:href="_joint_data_8cpp.html" target="_top" xlink:title=" ">
<polygon fill="white" stroke="#666666" points="305.38,-356 230.13,-356 230.13,-336 305.38,-336 305.38,-356"/>
<text text-anchor="middle" x="267.75" y="-342.5" font-family="Helvetica,sans-Serif" font-size="10.00">JointData.cpp</text>
</a>
</g>
</g>
<!-- Node6&#45;&gt;Node7 -->
<g id="edge6_Node000006_Node000007" class="edge">
<title>Node6&#45;&gt;Node7</title>
<g id="a_edge6_Node000006_Node000007"><a xlink:title=" ">
<path fill="none" stroke="#63b8ff" d="M267.75,-380.71C267.75,-372.32 267.75,-363.01 267.75,-356.3"/>
<polygon fill="#63b8ff" stroke="#63b8ff" points="264.25,-380.59 267.75,-390.59 271.25,-380.59 264.25,-380.59"/>
</a>
</g>
</g>
<!-- Node6&#45;&gt;Node8 -->
<g id="edge7_Node000006_Node000008" class="edge">
<title>Node6&#45;&gt;Node8</title>
<g id="a_edge7_Node000006_Node000008"><a xlink:title=" ">
<path fill="none" stroke="#63b8ff" d="M294.61,-386.35C312.04,-376.84 334.23,-364.74 349.37,-356.48"/>
<polygon fill="#63b8ff" stroke="#63b8ff" points="293.1,-383.73 285.99,-391.59 296.45,-389.88 293.1,-383.73"/>
</a>
</g>
</g>
<!-- Node6&#45;&gt;Node16 -->
<g id="edge29_Node000006_Node000016" class="edge">
<title>Node6&#45;&gt;Node16</title>
<g id="a_edge29_Node000006_Node000016"><a xlink:title=" ">
<path fill="none" stroke="#63b8ff" d="M245.38,-385.02C236.27,-377.31 226.53,-367.27 220.75,-356 191.02,-298.01 193.24,-216.05 195,-188.47"/>
<polygon fill="#63b8ff" stroke="#63b8ff" points="242.77,-388.21 252.79,-391.67 247.12,-382.72 242.77,-388.21"/>
</a>
</g>
</g>
<!-- Node8&#45;&gt;Node9 -->
<g id="edge8_Node000008_Node000009" class="edge">
<title>Node8&#45;&gt;Node9</title>
<g id="a_edge8_Node000008_Node000009"><a xlink:title=" ">
<path fill="none" stroke="#63b8ff" d="M379.95,-326.72C386.37,-317.84 393.8,-307.55 399.03,-300.3"/>
<polygon fill="#63b8ff" stroke="#63b8ff" points="376.56,-324.44 373.54,-334.59 382.24,-328.54 376.56,-324.44"/>
</a>
</g>
</g>
<!-- Node22 -->
<g id="Node000022" class="node">
<title>Node22</title>
<g id="a_Node000022"><a xlink:href="_leg_data_8cpp.html" target="_top" xlink:title=" ">
<polygon fill="white" stroke="#666666" points="319.13,-300 248.38,-300 248.38,-280 319.13,-280 319.13,-300"/>
<text text-anchor="middle" x="283.75" y="-286.5" font-family="Helvetica,sans-Serif" font-size="10.00">LegData.cpp</text>
</a>
</g>
</g>
<!-- Node8&#45;&gt;Node22 -->
<g id="edge28_Node000008_Node000022" class="edge">
<title>Node8&#45;&gt;Node22</title>
<g id="a_edge28_Node000008_Node000022"><a xlink:title=" ">
<path fill="none" stroke="#63b8ff" d="M343.4,-329.81C328.93,-320.39 310.78,-308.58 298.32,-300.48"/>
<polygon fill="#63b8ff" stroke="#63b8ff" points="341,-333.07 351.29,-335.59 344.82,-327.21 341,-333.07"/>
</a>
</g>
</g>
<!-- Node9&#45;&gt;Node2 -->
<g id="edge9_Node000009_Node000002" class="edge">
<title>Node9&#45;&gt;Node2</title>
<g id="a_edge9_Node000009_Node000002"><a xlink:title=" ">
<path fill="none" stroke="#63b8ff" d="M363.88,-282.89C290.71,-272.21 140.8,-250.33 71.88,-240.27"/>
<polygon fill="#63b8ff" stroke="#63b8ff" points="363.12,-286.46 373.52,-284.44 364.13,-279.53 363.12,-286.46"/>
</a>
</g>
</g>
<!-- Node10 -->
<g id="Node000010" class="node">
<title>Node10</title>
<g id="a_Node000010"><a xlink:href="_exo_data_8cpp.html" target="_top" xlink:title=" ">
<polygon fill="white" stroke="#666666" points="446.88,-188 374.63,-188 374.63,-168 446.88,-168 446.88,-188"/>
<text text-anchor="middle" x="410.75" y="-174.5" font-family="Helvetica,sans-Serif" font-size="10.00">ExoData.cpp</text>
</a>
</g>
</g>
<!-- Node9&#45;&gt;Node10 -->
<g id="edge10_Node000009_Node000010" class="edge">
<title>Node9&#45;&gt;Node10</title>
<g id="a_edge10_Node000009_Node000010"><a xlink:title=" ">
<path fill="none" stroke="#63b8ff" d="M425.43,-272.79C433.34,-265.01 441.57,-254.99 445.75,-244 453.68,-223.15 434.66,-200.62 421.66,-188.32"/>
<polygon fill="#63b8ff" stroke="#63b8ff" points="423.8,-269.45 418.78,-278.78 428.52,-274.62 423.8,-269.45"/>
</a>
</g>
</g>
<!-- Node9&#45;&gt;Node11 -->
<g id="edge11_Node000009_Node000011" class="edge">
<title>Node9&#45;&gt;Node11</title>
<g id="a_edge11_Node000009_Node000011"><a xlink:title=" ">
<path fill="none" stroke="#63b8ff" d="M439.17,-275.53C463.15,-265.87 494.87,-253.08 516.23,-244.48"/>
<polygon fill="#63b8ff" stroke="#63b8ff" points="438.06,-272.61 430.09,-279.59 440.67,-279.1 438.06,-272.61"/>
</a>
</g>
</g>
<!-- Node9&#45;&gt;Node13 -->
<g id="edge26_Node000009_Node000013" class="edge">
<title>Node9&#45;&gt;Node13</title>
<g id="a_edge26_Node000009_Node000013"><a xlink:title=" ">
<path fill="none" stroke="#63b8ff" d="M386.07,-272.79C378.16,-265.01 369.93,-254.99 365.75,-244 353.75,-212.43 344.27,-194.07 365.75,-168 388.78,-140.05 490.66,-129.23 551.16,-125.22"/>
<polygon fill="#63b8ff" stroke="#63b8ff" points="382.98,-274.62 392.72,-278.78 387.7,-269.45 382.98,-274.62"/>
</a>
</g>
</g>
<!-- Node9&#45;&gt;Node16 -->
<g id="edge27_Node000009_Node000016" class="edge">
<title>Node9&#45;&gt;Node16</title>
<g id="a_edge27_Node000009_Node000016"><a xlink:title=" ">
<path fill="none" stroke="#63b8ff" d="M378.14,-274.54C334.38,-251.62 250.3,-207.57 213.61,-188.35"/>
<polygon fill="#63b8ff" stroke="#63b8ff" points="376.36,-278.08 386.85,-279.62 379.61,-271.88 376.36,-278.08"/>
</a>
</g>
</g>
<!-- Node21 -->
<g id="Node000021" class="node">
<title>Node21</title>
<g id="a_Node000021"><a xlink:href="_pi_logger_8h.html" target="_top" xlink:title=" ">
<polygon fill="white" stroke="#666666" points="437,-244 374.5,-244 374.5,-224 437,-224 437,-244"/>
<text text-anchor="middle" x="405.75" y="-230.5" font-family="Helvetica,sans-Serif" font-size="10.00">PiLogger.h</text>
</a>
</g>
</g>
<!-- Node9&#45;&gt;Node21 -->
<g id="edge25_Node000009_Node000021" class="edge">
<title>Node9&#45;&gt;Node21</title>
<g id="a_edge25_Node000009_Node000021"><a xlink:title=" ">
<path fill="none" stroke="#63b8ff" d="M405.75,-268.71C405.75,-260.32 405.75,-251.01 405.75,-244.3"/>
<polygon fill="#63b8ff" stroke="#63b8ff" points="402.25,-268.59 405.75,-278.59 409.25,-268.59 402.25,-268.59"/>
</a>
</g>
</g>
<!-- Node11&#45;&gt;Node10 -->
<g id="edge12_Node000011_Node000010" class="edge">
<title>Node11&#45;&gt;Node10</title>
<g id="a_edge12_Node000011_Node000010"><a xlink:title=" ">
<path fill="none" stroke="#63b8ff" d="M507.27,-219.4C484.22,-209.75 453.86,-197.05 433.4,-188.48"/>
<polygon fill="#63b8ff" stroke="#63b8ff" points="505.7,-222.96 516.28,-223.59 508.41,-216.5 505.7,-222.96"/>
</a>
</g>
</g>
<!-- Node12 -->
<g id="Node000012" class="node">
<title>Node12</title>
<g id="a_Node000012"><a xlink:href="_params_from_s_d_8cpp.html" target="_top" xlink:title=" ">
<polygon fill="white" stroke="#666666" points="569,-188 464.5,-188 464.5,-168 569,-168 569,-188"/>
<text text-anchor="middle" x="516.75" y="-174.5" font-family="Helvetica,sans-Serif" font-size="10.00">ParamsFromSD.cpp</text>
</a>
</g>
</g>
<!-- Node11&#45;&gt;Node12 -->
<g id="edge13_Node000011_Node000012" class="edge">
<title>Node11&#45;&gt;Node12</title>
<g id="a_edge13_Node000011_Node000012"><a xlink:title=" ">
<path fill="none" stroke="#63b8ff" d="M531.48,-213.58C527.81,-204.97 523.67,-195.24 520.71,-188.3"/>
<polygon fill="#63b8ff" stroke="#63b8ff" points="528.6,-214.77 535.74,-222.59 535.05,-212.02 528.6,-214.77"/>
</a>
</g>
</g>
<!-- Node11&#45;&gt;Node13 -->
<g id="edge14_Node000011_Node000013" class="edge">
<title>Node11&#45;&gt;Node13</title>
<g id="a_edge14_Node000011_Node000013"><a xlink:title=" ">
<path fill="none" stroke="#63b8ff" d="M557.22,-215.8C564.43,-207.9 572.35,-198.06 577.75,-188 587.65,-169.56 592.97,-145.34 595.29,-132.29"/>
<polygon fill="#63b8ff" stroke="#63b8ff" points="555.21,-212.89 550.83,-222.53 560.27,-217.73 555.21,-212.89"/>
</a>
</g>
</g>
<!-- Node11&#45;&gt;Node16 -->
<g id="edge18_Node000011_Node000016" class="edge">
<title>Node11&#45;&gt;Node16</title>
<g id="a_edge18_Node000011_Node000016"><a xlink:title=" ">
<path fill="none" stroke="#63b8ff" d="M481.46,-223.85C414.28,-213.3 305.15,-196.17 243.01,-186.42"/>
<polygon fill="#63b8ff" stroke="#63b8ff" points="480.86,-227.46 491.28,-225.55 481.94,-220.54 480.86,-227.46"/>
</a>
</g>
</g>
<!-- Node14 -->
<g id="Node000014" class="node">
<title>Node14</title>
<g id="a_Node000014"><a xlink:href="_ble_parser_8cpp.html" target="_top" xlink:title=" ">
<polygon fill="white" stroke="#666666" points="697.5,-20 620,-20 620,0 697.5,0 697.5,-20"/>
<text text-anchor="middle" x="658.75" y="-6.5" font-family="Helvetica,sans-Serif" font-size="10.00">BleParser.cpp</text>
</a>
</g>
</g>
<!-- Node13&#45;&gt;Node14 -->
<g id="edge15_Node000013_Node000014" class="edge">
<title>Node13&#45;&gt;Node14</title>
<g id="a_edge15_Node000013_Node000014"><a xlink:title=" ">
<path fill="none" stroke="#63b8ff" d="M600.4,-101.19C603.44,-87.8 608.61,-70.07 616.75,-56 624.89,-41.94 638.17,-28.71 647.62,-20.29"/>
<polygon fill="#63b8ff" stroke="#63b8ff" points="596.84,-100.14 598.26,-110.64 603.69,-101.55 596.84,-100.14"/>
</a>
</g>
</g>
<!-- Node15 -->
<g id="Node000015" class="node">
<title>Node15</title>
<g id="a_Node000015"><a xlink:href="_ble_parser_8h.html" target="_top" xlink:title="This class is used to serialize and deserialize the BLE data. The application uses Nordic&#39;s UART serv...">
<polygon fill="white" stroke="#666666" points="692.25,-76 625.25,-76 625.25,-56 692.25,-56 692.25,-76"/>
<text text-anchor="middle" x="658.75" y="-62.5" font-family="Helvetica,sans-Serif" font-size="10.00">BleParser.h</text>
</a>
</g>
</g>
<!-- Node13&#45;&gt;Node15 -->
<g id="edge16_Node000013_Node000015" class="edge">
<title>Node13&#45;&gt;Node15</title>
<g id="a_edge16_Node000013_Node000015"><a xlink:title=" ">
<path fill="none" stroke="#63b8ff" d="M615.81,-104.4C626.41,-95.17 639.22,-84.01 648.07,-76.3"/>
<polygon fill="#63b8ff" stroke="#63b8ff" points="613.79,-102.39 608.55,-111.59 618.39,-107.67 613.79,-102.39"/>
</a>
</g>
</g>
<!-- Node15&#45;&gt;Node14 -->
<g id="edge17_Node000015_Node000014" class="edge">
<title>Node15&#45;&gt;Node14</title>
<g id="a_edge17_Node000015_Node000014"><a xlink:title=" ">
<path fill="none" stroke="#63b8ff" d="M658.75,-44.71C658.75,-36.32 658.75,-27.01 658.75,-20.3"/>
<polygon fill="#63b8ff" stroke="#63b8ff" points="655.25,-44.59 658.75,-54.59 662.25,-44.59 655.25,-44.59"/>
</a>
</g>
</g>
<!-- Node16&#45;&gt;Node3 -->
<g id="edge19_Node000016_Node000003" class="edge">
<title>Node16&#45;&gt;Node3</title>
<g id="a_edge19_Node000016_Node000003"><a xlink:title=" ">
<path fill="none" stroke="#63b8ff" d="M166.72,-162.88C147.03,-153.3 121.53,-140.89 104.24,-132.48"/>
<polygon fill="#63b8ff" stroke="#63b8ff" points="164.89,-166.37 175.42,-167.59 167.95,-160.07 164.89,-166.37"/>
</a>
</g>
</g>
<!-- Node16&#45;&gt;Node13 -->
<g id="edge24_Node000016_Node000013" class="edge">
<title>Node16&#45;&gt;Node13</title>
<g id="a_edge24_Node000016_Node000013"><a xlink:title=" ">
<path fill="none" stroke="#63b8ff" d="M253.36,-169.24C333.76,-158.41 477.98,-138.99 551.29,-129.12"/>
<polygon fill="#63b8ff" stroke="#63b8ff" points="253.37,-165.84 243.93,-170.65 254.31,-172.78 253.37,-165.84"/>
</a>
</g>
</g>
<!-- Node16&#45;&gt;Node17 -->
<g id="edge20_Node000016_Node000017" class="edge">
<title>Node16&#45;&gt;Node17</title>
<g id="a_edge20_Node000016_Node000017"><a xlink:title=" ">
<path fill="none" stroke="#63b8ff" d="M217.6,-161.27C230.55,-151.94 246.54,-140.43 257.58,-132.48"/>
<polygon fill="#63b8ff" stroke="#63b8ff" points="215.88,-158.91 209.81,-167.59 219.97,-164.59 215.88,-158.91"/>
</a>
</g>
</g>
<!-- Node20 -->
<g id="Node000020" class="node">
<title>Node20</title>
<g id="a_Node000020"><a xlink:href="_exo_8cpp.html" target="_top" xlink:title=" ">
<polygon fill="white" stroke="#666666" points="211.75,-132 159.75,-132 159.75,-112 211.75,-112 211.75,-132"/>
<text text-anchor="middle" x="185.75" y="-118.5" font-family="Helvetica,sans-Serif" font-size="10.00">Exo.cpp</text>
</a>
</g>
</g>
<!-- Node16&#45;&gt;Node20 -->
<g id="edge23_Node000016_Node000020" class="edge">
<title>Node16&#45;&gt;Node20</title>
<g id="a_edge23_Node000016_Node000020"><a xlink:title=" ">
<path fill="none" stroke="#63b8ff" d="M192.05,-157C190.48,-148.54 188.73,-139.08 187.47,-132.3"/>
<polygon fill="#63b8ff" stroke="#63b8ff" points="188.75,-157.4 194.01,-166.59 195.63,-156.12 188.75,-157.4"/>
</a>
</g>
</g>
<!-- Node18 -->
<g id="Node000018" class="node">
<title>Node18</title>
<g id="a_Node000018"><a xlink:href="_joint_8cpp.html" target="_top" xlink:title=" ">
<polygon fill="white" stroke="#666666" points="336.25,-76 281.25,-76 281.25,-56 336.25,-56 336.25,-76"/>
<text text-anchor="middle" x="308.75" y="-62.5" font-family="Helvetica,sans-Serif" font-size="10.00">Joint.cpp</text>
</a>
</g>
</g>
<!-- Node17&#45;&gt;Node18 -->
<g id="edge21_Node000017_Node000018" class="edge">
<title>Node17&#45;&gt;Node18</title>
<g id="a_edge21_Node000017_Node000018"><a xlink:title=" ">
<path fill="none" stroke="#63b8ff" d="M283.61,-102.72C289.86,-93.84 297.11,-83.55 302.21,-76.3"/>
<polygon fill="#63b8ff" stroke="#63b8ff" points="280.26,-100.4 277.37,-110.59 285.99,-104.43 280.26,-100.4"/>
</a>
</g>
</g>
<!-- Node19 -->
<g id="Node000019" class="node">
<title>Node19</title>
<g id="a_Node000019"><a xlink:href="_motor_8cpp.html" target="_top" xlink:title=" ">
<polygon fill="white" stroke="#666666" points="263.5,-76 204,-76 204,-56 263.5,-56 263.5,-76"/>
<text text-anchor="middle" x="233.75" y="-62.5" font-family="Helvetica,sans-Serif" font-size="10.00">Motor.cpp</text>
</a>
</g>
</g>
<!-- Node17&#45;&gt;Node19 -->
<g id="edge22_Node000017_Node000019" class="edge">
<title>Node17&#45;&gt;Node19</title>
<g id="a_edge22_Node000017_Node000019"><a xlink:title=" ">
<path fill="none" stroke="#63b8ff" d="M258.23,-102.72C252.14,-93.84 245.09,-83.55 240.12,-76.3"/>
<polygon fill="#63b8ff" stroke="#63b8ff" points="255.77,-104.32 264.31,-110.59 261.54,-100.37 255.77,-104.32"/>
</a>
</g>
</g>
<!-- Node24&#45;&gt;Node6 -->
<g id="edge36_Node000024_Node000006" class="edge">
<title>Node24&#45;&gt;Node6</title>
<g id="a_edge36_Node000024_Node000006"><a xlink:title=" ">
<path fill="none" stroke="#63b8ff" d="M306.94,-440.13C297.24,-430.94 285.62,-419.93 277.56,-412.3"/>
<polygon fill="#63b8ff" stroke="#63b8ff" points="304.15,-442.26 313.82,-446.59 308.97,-437.18 304.15,-442.26"/>
</a>
</g>
</g>
<!-- Node24&#45;&gt;Node23 -->
<g id="edge37_Node000024_Node000023" class="edge">
<title>Node24&#45;&gt;Node23</title>
<g id="a_edge37_Node000024_Node000023"><a xlink:title=" ">
<path fill="none" stroke="#63b8ff" d="M336.09,-438.44C341.48,-429.62 347.69,-419.47 352.07,-412.3"/>
<polygon fill="#63b8ff" stroke="#63b8ff" points="332.73,-436.24 330.5,-446.59 338.7,-439.89 332.73,-436.24"/>
</a>
</g>
</g>
<!-- Node26&#45;&gt;Node11 -->
<g id="edge44_Node000026_Node000011" class="edge">
<title>Node26&#45;&gt;Node11</title>
<g id="a_edge44_Node000026_Node000011"><a xlink:title=" ">
<path fill="none" stroke="#63b8ff" d="M796.57,-281.85C742.5,-271.99 645.12,-254.22 587.06,-243.63"/>
<polygon fill="#63b8ff" stroke="#63b8ff" points="795.63,-285.42 806.1,-283.77 796.89,-278.54 795.63,-285.42"/>
</a>
</g>
</g>
<!-- Node26&#45;&gt;Node14 -->
<g id="edge42_Node000026_Node000014" class="edge">
<title>Node26&#45;&gt;Node14</title>
<g id="a_edge42_Node000026_Node000014"><a xlink:title=" ">
<path fill="none" stroke="#63b8ff" d="M875.05,-289.05C955.04,-288.33 1133.02,-282.34 1177.75,-244 1200.6,-224.41 1196.75,-209.1 1196.75,-179 1196.75,-179 1196.75,-179 1196.75,-121 1196.75,-19.11 821.68,-10.68 697.87,-10.67"/>
<polygon fill="#63b8ff" stroke="#63b8ff" points="875.41,-285.55 865.43,-289.11 875.46,-292.55 875.41,-285.55"/>
</a>
</g>
</g>
<!-- Node27 -->
<g id="Node000027" class="node">
<title>Node27</title>
<g id="a_Node000027"><a xlink:href="_ankle_angles_8cpp.html" target="_top" xlink:title=" ">
<polygon fill="white" stroke="#666666" points="928.5,-244 839,-244 839,-224 928.5,-224 928.5,-244"/>
<text text-anchor="middle" x="883.75" y="-230.5" font-family="Helvetica,sans-Serif" font-size="10.00">AnkleAngles.cpp</text>
</a>
</g>
</g>
<!-- Node26&#45;&gt;Node27 -->
<g id="edge41_Node000026_Node000027" class="edge">
<title>Node26&#45;&gt;Node27</title>
<g id="a_edge41_Node000026_Node000027"><a xlink:title=" ">
<path fill="none" stroke="#63b8ff" d="M851.25,-271.57C859.31,-262.5 868.84,-251.78 875.48,-244.3"/>
<polygon fill="#63b8ff" stroke="#63b8ff" points="849.14,-268.79 845.11,-278.59 854.37,-273.45 849.14,-268.79"/>
</a>
</g>
</g>
<!-- Node28 -->
<g id="Node000028" class="node">
<title>Node28</title>
<g id="a_Node000028"><a xlink:href="_inclination_detector_8cpp.html" target="_top" xlink:title=" ">
<polygon fill="white" stroke="#666666" points="1061.25,-244 946.25,-244 946.25,-224 1061.25,-224 1061.25,-244"/>
<text text-anchor="middle" x="1003.75" y="-230.5" font-family="Helvetica,sans-Serif" font-size="10.00">InclinationDetector.cpp</text>
</a>
</g>
</g>
<!-- Node26&#45;&gt;Node28 -->
<g id="edge43_Node000026_Node000028" class="edge">
<title>Node26&#45;&gt;Node28</title>
<g id="a_edge43_Node000026_Node000028"><a xlink:title=" ">
<path fill="none" stroke="#63b8ff" d="M874.49,-276.55C904.88,-266.78 946.54,-253.39 974.26,-244.48"/>
<polygon fill="#63b8ff" stroke="#63b8ff" points="873.7,-273.45 865.25,-279.84 875.84,-280.11 873.7,-273.45"/>
</a>
</g>
</g>
<!-- Node29 -->
<g id="Node000029" class="node">
<title>Node29</title>
<g id="a_Node000029"><a xlink:href="_real_time_i2_c_8cpp.html" target="_top" xlink:title=" ">
<polygon fill="white" stroke="#666666" points="1168.5,-244 1079,-244 1079,-224 1168.5,-224 1168.5,-244"/>
<text text-anchor="middle" x="1123.75" y="-230.5" font-family="Helvetica,sans-Serif" font-size="10.00">RealTimeI2C.cpp</text>
</a>
</g>
</g>
<!-- Node26&#45;&gt;Node29 -->
<g id="edge45_Node000026_Node000029" class="edge">
<title>Node26&#45;&gt;Node29</title>
<g id="a_edge45_Node000026_Node000029"><a xlink:title=" ">
<path fill="none" stroke="#63b8ff" d="M875.09,-281.62C928.19,-271.67 1022.57,-253.97 1078.53,-243.48"/>
<polygon fill="#63b8ff" stroke="#63b8ff" points="874.6,-278.34 865.42,-283.62 875.89,-285.22 874.6,-278.34"/>
</a>
</g>
</g>
<!-- Node30 -->
<g id="Node000030" class="node">
<title>Node30</title>
<g id="a_Node000030"><a xlink:href="_u_a_r_t_handler_8cpp.html" target="_top" xlink:title=" ">
<polygon fill="white" stroke="#666666" points="736.38,-244 643.13,-244 643.13,-224 736.38,-224 736.38,-244"/>
<text text-anchor="middle" x="689.75" y="-230.5" font-family="Helvetica,sans-Serif" font-size="10.00">UARTHandler.cpp</text>
</a>
</g>
</g>
<!-- Node26&#45;&gt;Node30 -->
<g id="edge46_Node000026_Node000030" class="edge">
<title>Node26&#45;&gt;Node30</title>
<g id="a_edge46_Node000026_Node000030"><a xlink:title=" ">
<path fill="none" stroke="#63b8ff" d="M800.04,-275.79C773.83,-266.1 738.85,-253.16 715.38,-244.48"/>
<polygon fill="#63b8ff" stroke="#63b8ff" points="798.73,-279.41 809.32,-279.59 801.15,-272.84 798.73,-279.41"/>
</a>
</g>
</g>
<!-- Node31 -->
<g id="Node000031" class="node">
<title>Node31</title>
<g id="a_Node000031"><a xlink:href="_utilities_8cpp.html" target="_top" xlink:title=" ">
<polygon fill="white" stroke="#666666" points="821.25,-244 754.25,-244 754.25,-224 821.25,-224 821.25,-244"/>
<text text-anchor="middle" x="787.75" y="-230.5" font-family="Helvetica,sans-Serif" font-size="10.00">Utilities.cpp</text>
</a>
</g>
</g>
<!-- Node26&#45;&gt;Node31 -->
<g id="edge47_Node000026_Node000031" class="edge">
<title>Node26&#45;&gt;Node31</title>
<g id="a_edge47_Node000026_Node000031"><a xlink:title=" ">
<path fill="none" stroke="#63b8ff" d="M820.25,-271.57C812.19,-262.5 802.66,-251.78 796.02,-244.3"/>
<polygon fill="#63b8ff" stroke="#63b8ff" points="817.13,-273.45 826.39,-278.59 822.36,-268.79 817.13,-273.45"/>
</a>
</g>
</g>
</g>
</svg>
