<?xml version="1.0" encoding="UTF-8" standalone="no"?>
<!DOCTYPE svg PUBLIC "-//W3C//DTD SVG 1.1//EN"
 "http://www.w3.org/Graphics/SVG/1.1/DTD/svg11.dtd">
<!-- Generated by graphviz version 8.1.0 (20230707.0739)
 -->
<!-- Title: ParamsFromSD.cpp Pages: 1 -->
<svg width="1156pt" height="476pt"
 viewBox="0.00 0.00 1155.50 476.00" xmlns="http://www.w3.org/2000/svg" xmlns:xlink="http://www.w3.org/1999/xlink">
<g id="graph0" class="graph" transform="scale(1 1) rotate(0) translate(4 472)">
<title>ParamsFromSD.cpp</title>
<!-- Node1 -->
<g id="Node000001" class="node">
<title>Node1</title>
<g id="a_Node000001"><a xlink:title=" ">
<polygon fill="#999999" stroke="#666666" points="446.75,-468 342.25,-468 342.25,-448 446.75,-448 446.75,-468"/>
<text text-anchor="middle" x="394.5" y="-454.5" font-family="Helvetica,sans-Serif" font-size="10.00">ParamsFromSD.cpp</text>
</a>
</g>
</g>
<!-- Node2 -->
<g id="Node000002" class="node">
<title>Node2</title>
<g id="a_Node000002"><a xlink:href="_params_from_s_d_8h.html" target="_top" xlink:title="Declares the functions to pull controller parameters from the SD card and defines the mapping to the ...">
<polygon fill="white" stroke="#666666" points="718.5,-412 624.5,-412 624.5,-392 718.5,-392 718.5,-412"/>
<text text-anchor="middle" x="671.5" y="-398.5" font-family="Helvetica,sans-Serif" font-size="10.00">ParamsFromSD.h</text>
</a>
</g>
</g>
<!-- Node1&#45;&gt;Node2 -->
<g id="edge1_Node000001_Node000002" class="edge">
<title>Node1&#45;&gt;Node2</title>
<g id="a_edge1_Node000001_Node000002"><a xlink:title=" ">
<path fill="none" stroke="#63b8ff" d="M443.07,-447.53C490.63,-438.26 563.11,-424.13 613.63,-414.28"/>
<polygon fill="#63b8ff" stroke="#63b8ff" points="614.23,-417.54 623.38,-412.19 612.89,-410.66 614.23,-417.54"/>
</a>
</g>
</g>
<!-- Node24 -->
<g id="Node000024" class="node">
<title>Node24</title>
<g id="a_Node000024"><a xlink:href="_logger_8h.html" target="_top" xlink:title=" ">
<polygon fill="white" stroke="#666666" points="87.25,-132 33.75,-132 33.75,-112 87.25,-112 87.25,-132"/>
<text text-anchor="middle" x="60.5" y="-118.5" font-family="Helvetica,sans-Serif" font-size="10.00">Logger.h</text>
</a>
</g>
</g>
<!-- Node1&#45;&gt;Node24 -->
<g id="edge55_Node000001_Node000024" class="edge">
<title>Node1&#45;&gt;Node24</title>
<g id="a_edge55_Node000001_Node000024"><a xlink:title=" ">
<path fill="none" stroke="#63b8ff" d="M341.95,-450.75C247.89,-438.09 60.5,-405.53 60.5,-347 60.5,-347 60.5,-347 60.5,-233 60.5,-201.72 60.5,-165.45 60.5,-143.37"/>
<polygon fill="#63b8ff" stroke="#63b8ff" points="64,-143.42 60.5,-133.42 57,-143.42 64,-143.42"/>
</a>
</g>
</g>
<!-- Node3 -->
<g id="Node000003" class="node">
<title>Node3</title>
<g id="a_Node000003"><a xlink:href="_exo_data_8h.html" target="_top" xlink:title="Declares a class used to store data for the Exo to access.">
<polygon fill="white" stroke="#666666" points="737.38,-356 675.63,-356 675.63,-336 737.38,-336 737.38,-356"/>
<text text-anchor="middle" x="706.5" y="-342.5" font-family="Helvetica,sans-Serif" font-size="10.00">ExoData.h</text>
</a>
</g>
</g>
<!-- Node2&#45;&gt;Node3 -->
<g id="edge2_Node000002_Node000003" class="edge">
<title>Node2&#45;&gt;Node3</title>
<g id="a_edge2_Node000002_Node000003"><a xlink:title=" ">
<path fill="none" stroke="#63b8ff" d="M677.6,-391.59C682.26,-384.39 688.85,-374.23 694.55,-365.43"/>
<polygon fill="#63b8ff" stroke="#63b8ff" points="697.97,-367.59 700.47,-357.3 692.1,-363.79 697.97,-367.59"/>
</a>
</g>
</g>
<!-- Node8 -->
<g id="Node000008" class="node">
<title>Node8</title>
<g id="a_Node000008"><a xlink:href="_parse_ini_8h.html" target="_top" xlink:title="Declares the functions needed and defines mapping between the INI keys and the exo components.">
<polygon fill="white" stroke="#666666" points="828.25,-132 768.75,-132 768.75,-112 828.25,-112 828.25,-132"/>
<text text-anchor="middle" x="798.5" y="-118.5" font-family="Helvetica,sans-Serif" font-size="10.00">ParseIni.h</text>
</a>
</g>
</g>
<!-- Node2&#45;&gt;Node8 -->
<g id="edge44_Node000002_Node000008" class="edge">
<title>Node2&#45;&gt;Node8</title>
<g id="a_edge44_Node000002_Node000008"><a xlink:title=" ">
<path fill="none" stroke="#63b8ff" d="M718.83,-399.82C789.01,-395.27 912.5,-375.28 912.5,-291 912.5,-291 912.5,-291 912.5,-233 912.5,-187.19 864.24,-154.43 830.52,-137.12"/>
<polygon fill="#63b8ff" stroke="#63b8ff" points="832.54,-133.72 822.02,-132.45 829.45,-140.01 832.54,-133.72"/>
</a>
</g>
</g>
<!-- Node19 -->
<g id="Node000019" class="node">
<title>Node19</title>
<g id="a_Node000019"><a xlink:href="_utilities_8h.html" target="_top" xlink:title=" ">
<polygon fill="white" stroke="#666666" points="996.75,-188 940.25,-188 940.25,-168 996.75,-168 996.75,-188"/>
<text text-anchor="middle" x="968.5" y="-174.5" font-family="Helvetica,sans-Serif" font-size="10.00">Utilities.h</text>
</a>
</g>
</g>
<!-- Node2&#45;&gt;Node19 -->
<g id="edge45_Node000002_Node000019" class="edge">
<title>Node2&#45;&gt;Node19</title>
<g id="a_edge45_Node000002_Node000019"><a xlink:title=" ">
<path fill="none" stroke="#63b8ff" d="M718.89,-398.73C784.22,-394.61 897.23,-383.61 926.5,-356 970.46,-314.53 972.17,-236.15 970.23,-199.22"/>
<polygon fill="#63b8ff" stroke="#63b8ff" points="973.66,-199.13 969.48,-189.4 966.68,-199.61 973.66,-199.13"/>
</a>
</g>
</g>
<!-- Node20 -->
<g id="Node000020" class="node">
<title>Node20</title>
<g id="a_Node000020"><a xlink:title=" ">
<polygon fill="#e0e0e0" stroke="#999999" points="1016.38,-356 978.63,-356 978.63,-336 1016.38,-336 1016.38,-356"/>
<text text-anchor="middle" x="997.5" y="-342.5" font-family="Helvetica,sans-Serif" font-size="10.00">SD.h</text>
</a>
</g>
</g>
<!-- Node2&#45;&gt;Node20 -->
<g id="edge51_Node000002_Node000020" class="edge">
<title>Node2&#45;&gt;Node20</title>
<g id="a_edge51_Node000002_Node000020"><a xlink:title=" ">
<path fill="none" stroke="#63b8ff" d="M719,-395.4C777.2,-388.14 878.67,-374.23 964.5,-356 965.63,-355.76 966.78,-355.5 967.95,-355.24"/>
<polygon fill="#63b8ff" stroke="#63b8ff" points="968.55,-358.44 977.4,-352.61 966.84,-351.65 968.55,-358.44"/>
</a>
</g>
</g>
<!-- Node21 -->
<g id="Node000021" class="node">
<title>Node21</title>
<g id="a_Node000021"><a xlink:title=" ">
<polygon fill="#e0e0e0" stroke="#999999" points="547.5,-356 507.5,-356 507.5,-336 547.5,-336 547.5,-356"/>
<text text-anchor="middle" x="527.5" y="-342.5" font-family="Helvetica,sans-Serif" font-size="10.00">SPI.h</text>
</a>
</g>
</g>
<!-- Node2&#45;&gt;Node21 -->
<g id="edge52_Node000002_Node000021" class="edge">
<title>Node2&#45;&gt;Node21</title>
<g id="a_edge52_Node000002_Node000021"><a xlink:title=" ">
<path fill="none" stroke="#63b8ff" d="M646.42,-391.59C621.77,-382.35 584.13,-368.24 557.82,-358.37"/>
<polygon fill="#63b8ff" stroke="#63b8ff" points="559.25,-354.79 548.66,-354.56 556.79,-361.35 559.25,-354.79"/>
</a>
</g>
</g>
<!-- Node22 -->
<g id="Node000022" class="node">
<title>Node22</title>
<g id="a_Node000022"><a xlink:title=" ">
<polygon fill="#e0e0e0" stroke="#999999" points="599.88,-356 565.13,-356 565.13,-336 599.88,-336 599.88,-356"/>
<text text-anchor="middle" x="582.5" y="-342.5" font-family="Helvetica,sans-Serif" font-size="10.00">map</text>
</a>
</g>
</g>
<!-- Node2&#45;&gt;Node22 -->
<g id="edge53_Node000002_Node000022" class="edge">
<title>Node2&#45;&gt;Node22</title>
<g id="a_edge53_Node000002_Node000022"><a xlink:title=" ">
<path fill="none" stroke="#63b8ff" d="M656,-391.59C642.55,-383.44 622.85,-371.48 607.23,-362"/>
<polygon fill="#63b8ff" stroke="#63b8ff" points="609.49,-358.67 599.12,-356.48 605.86,-364.66 609.49,-358.67"/>
</a>
</g>
</g>
<!-- Node23 -->
<g id="Node000023" class="node">
<title>Node23</title>
<g id="a_Node000023"><a xlink:title=" ">
<polygon fill="#e0e0e0" stroke="#999999" points="657.5,-356 617.5,-356 617.5,-336 657.5,-336 657.5,-356"/>
<text text-anchor="middle" x="637.5" y="-342.5" font-family="Helvetica,sans-Serif" font-size="10.00">string</text>
</a>
</g>
</g>
<!-- Node2&#45;&gt;Node23 -->
<g id="edge54_Node000002_Node000023" class="edge">
<title>Node2&#45;&gt;Node23</title>
<g id="a_edge54_Node000002_Node000023"><a xlink:title=" ">
<path fill="none" stroke="#63b8ff" d="M665.58,-391.59C661.04,-384.39 654.65,-374.23 649.1,-365.43"/>
<polygon fill="#63b8ff" stroke="#63b8ff" points="651.64,-363.9 643.35,-357.3 645.72,-367.63 651.64,-363.9"/>
</a>
</g>
</g>
<!-- Node4 -->
<g id="Node000004" class="node">
<title>Node4</title>
<g id="a_Node000004"><a xlink:title=" ">
<polygon fill="#e0e0e0" stroke="#999999" points="407.13,-20 349.88,-20 349.88,0 407.13,0 407.13,-20"/>
<text text-anchor="middle" x="378.5" y="-6.5" font-family="Helvetica,sans-Serif" font-size="10.00">Arduino.h</text>
</a>
</g>
</g>
<!-- Node3&#45;&gt;Node4 -->
<g id="edge3_Node000003_Node000004" class="edge">
<title>Node3&#45;&gt;Node4</title>
<g id="a_edge3_Node000003_Node000004"><a xlink:title=" ">
<path fill="none" stroke="#63b8ff" d="M675.3,-337.31C586.79,-315.28 340.5,-252.42 340.5,-235 340.5,-235 340.5,-235 340.5,-121 340.5,-87.47 356.47,-51.18 367.7,-29.81"/>
<polygon fill="#63b8ff" stroke="#63b8ff" points="371.16,-31.79 372.89,-21.33 365.02,-28.42 371.16,-31.79"/>
</a>
</g>
</g>
<!-- Node5 -->
<g id="Node000005" class="node">
<title>Node5</title>
<g id="a_Node000005"><a xlink:href="_leg_data_8h.html" target="_top" xlink:title="Declares a class used to store data for leg to access.">
<polygon fill="white" stroke="#666666" points="736.63,-300 676.38,-300 676.38,-280 736.63,-280 736.63,-300"/>
<text text-anchor="middle" x="706.5" y="-286.5" font-family="Helvetica,sans-Serif" font-size="10.00">LegData.h</text>
</a>
</g>
</g>
<!-- Node3&#45;&gt;Node5 -->
<g id="edge4_Node000003_Node000005" class="edge">
<title>Node3&#45;&gt;Node5</title>
<g id="a_edge4_Node000003_Node000005"><a xlink:title=" ">
<path fill="none" stroke="#63b8ff" d="M706.5,-335.59C706.5,-328.86 706.5,-319.53 706.5,-311.15"/>
<polygon fill="#63b8ff" stroke="#63b8ff" points="710,-311.3 706.5,-301.3 703,-311.3 710,-311.3"/>
</a>
</g>
</g>
<!-- Node3&#45;&gt;Node8 -->
<g id="edge35_Node000003_Node000008" class="edge">
<title>Node3&#45;&gt;Node8</title>
<g id="a_edge35_Node000003_Node000008"><a xlink:title=" ">
<path fill="none" stroke="#63b8ff" d="M716.74,-335.52C725.44,-326.97 737.74,-313.66 745.5,-300 775.13,-247.83 789.76,-177.42 795.48,-143.26"/>
<polygon fill="#63b8ff" stroke="#63b8ff" points="799.09,-143.84 797.2,-133.42 792.18,-142.75 799.09,-143.84"/>
</a>
</g>
</g>
<!-- Node9 -->
<g id="Node000009" class="node">
<title>Node9</title>
<g id="a_Node000009"><a xlink:title=" ">
<polygon fill="#e0e0e0" stroke="#999999" points="822.63,-76 774.38,-76 774.38,-56 822.63,-56 822.63,-76"/>
<text text-anchor="middle" x="798.5" y="-62.5" font-family="Helvetica,sans-Serif" font-size="10.00">stdint.h</text>
</a>
</g>
</g>
<!-- Node3&#45;&gt;Node9 -->
<g id="edge34_Node000003_Node000009" class="edge">
<title>Node3&#45;&gt;Node9</title>
<g id="a_edge34_Node000003_Node000009"><a xlink:title=" ">
<path fill="none" stroke="#63b8ff" d="M737.86,-343.92C838.61,-339.62 1147.5,-319.53 1147.5,-235 1147.5,-235 1147.5,-235 1147.5,-177 1147.5,-139.16 1125.52,-130.48 1092.5,-112 1048.64,-87.46 901.49,-74.22 833.49,-69.29"/>
<polygon fill="#63b8ff" stroke="#63b8ff" points="834.12,-65.75 823.9,-68.54 833.63,-72.73 834.12,-65.75"/>
</a>
</g>
</g>
<!-- Node10 -->
<g id="Node000010" class="node">
<title>Node10</title>
<g id="a_Node000010"><a xlink:href="_board_8h.html" target="_top" xlink:title="Defines the pins and peripherals for the board being used.">
<polygon fill="white" stroke="#666666" points="312.38,-132 262.63,-132 262.63,-112 312.38,-112 312.38,-132"/>
<text text-anchor="middle" x="287.5" y="-118.5" font-family="Helvetica,sans-Serif" font-size="10.00">Board.h</text>
</a>
</g>
</g>
<!-- Node3&#45;&gt;Node10 -->
<g id="edge36_Node000003_Node000010" class="edge">
<title>Node3&#45;&gt;Node10</title>
<g id="a_edge36_Node000003_Node000010"><a xlink:title=" ">
<path fill="none" stroke="#63b8ff" d="M675.56,-337.67C672.51,-337.06 669.45,-336.49 666.5,-336 591.53,-323.64 383.13,-350.65 326.5,-300 281.41,-259.67 282.05,-180.08 285.16,-142.95"/>
<polygon fill="#63b8ff" stroke="#63b8ff" points="288.74,-143.4 286.25,-133.1 281.77,-142.7 288.74,-143.4"/>
</a>
</g>
</g>
<!-- Node17 -->
<g id="Node000017" class="node">
<title>Node17</title>
<g id="a_Node000017"><a xlink:href="_status_led_8h.html" target="_top" xlink:title="Class to set an RGB LED to different colors based on the state of the system.">
<polygon fill="white" stroke="#666666" points="184.75,-244 116.25,-244 116.25,-224 184.75,-224 184.75,-244"/>
<text text-anchor="middle" x="150.5" y="-230.5" font-family="Helvetica,sans-Serif" font-size="10.00">StatusLed.h</text>
</a>
</g>
</g>
<!-- Node3&#45;&gt;Node17 -->
<g id="edge37_Node000003_Node000017" class="edge">
<title>Node3&#45;&gt;Node17</title>
<g id="a_edge37_Node000003_Node000017"><a xlink:title=" ">
<path fill="none" stroke="#63b8ff" d="M675.14,-337.49C672.23,-336.93 669.32,-336.42 666.5,-336 563.57,-320.54 290.8,-349.98 199.5,-300 180.77,-289.74 167.07,-268.95 159,-253.62"/>
<polygon fill="#63b8ff" stroke="#63b8ff" points="161.87,-252.52 154.32,-245.09 155.58,-255.61 161.87,-252.52"/>
</a>
</g>
</g>
<!-- Node18 -->
<g id="Node000018" class="node">
<title>Node18</title>
<g id="a_Node000018"><a xlink:href="_status_defs_8h.html" target="_top" xlink:title="Stores the different status messages for the system.">
<polygon fill="white" stroke="#666666" points="236.63,-188 164.38,-188 164.38,-168 236.63,-168 236.63,-188"/>
<text text-anchor="middle" x="200.5" y="-174.5" font-family="Helvetica,sans-Serif" font-size="10.00">StatusDefs.h</text>
</a>
</g>
</g>
<!-- Node3&#45;&gt;Node18 -->
<g id="edge43_Node000003_Node000018" class="edge">
<title>Node3&#45;&gt;Node18</title>
<g id="a_edge43_Node000003_Node000018"><a xlink:title=" ">
<path fill="none" stroke="#63b8ff" d="M675.13,-337.52C672.22,-336.96 669.31,-336.44 666.5,-336 574.81,-321.78 325.33,-354.86 250.5,-300 217.77,-276 206.37,-226.61 202.47,-198.92"/>
<polygon fill="#63b8ff" stroke="#63b8ff" points="205.85,-198.73 201.19,-189.21 198.9,-199.56 205.85,-198.73"/>
</a>
</g>
</g>
<!-- Node5&#45;&gt;Node4 -->
<g id="edge5_Node000005_Node000004" class="edge">
<title>Node5&#45;&gt;Node4</title>
<g id="a_edge5_Node000005_Node000004"><a xlink:title=" ">
<path fill="none" stroke="#63b8ff" d="M676.01,-284.12C601.56,-271.35 416.5,-234.06 416.5,-179 416.5,-179 416.5,-179 416.5,-121 416.5,-87.47 400.53,-51.18 389.3,-29.81"/>
<polygon fill="#63b8ff" stroke="#63b8ff" points="391.98,-28.42 384.11,-21.33 385.84,-31.79 391.98,-28.42"/>
</a>
</g>
</g>
<!-- Node6 -->
<g id="Node000006" class="node">
<title>Node6</title>
<g id="a_Node000006"><a xlink:href="_joint_data_8h.html" target="_top" xlink:title="Declares a class used to store data for joint to access.">
<polygon fill="white" stroke="#666666" points="680.88,-244 616.13,-244 616.13,-224 680.88,-224 680.88,-244"/>
<text text-anchor="middle" x="648.5" y="-230.5" font-family="Helvetica,sans-Serif" font-size="10.00">JointData.h</text>
</a>
</g>
</g>
<!-- Node5&#45;&gt;Node6 -->
<g id="edge6_Node000005_Node000006" class="edge">
<title>Node5&#45;&gt;Node6</title>
<g id="a_edge6_Node000005_Node000006"><a xlink:title=" ">
<path fill="none" stroke="#63b8ff" d="M696.4,-279.59C688.16,-271.93 676.33,-260.91 666.49,-251.75"/>
<polygon fill="#63b8ff" stroke="#63b8ff" points="669.19,-249.55 659.49,-245.3 664.42,-254.67 669.19,-249.55"/>
</a>
</g>
</g>
<!-- Node5&#45;&gt;Node8 -->
<g id="edge27_Node000005_Node000008" class="edge">
<title>Node5&#45;&gt;Node8</title>
<g id="a_edge27_Node000005_Node000008"><a xlink:title=" ">
<path fill="none" stroke="#63b8ff" d="M711.71,-279.6C726.45,-253.01 768.64,-176.89 788.25,-141.5"/>
<polygon fill="#63b8ff" stroke="#63b8ff" points="791.56,-143.74 793.35,-133.3 785.44,-140.35 791.56,-143.74"/>
</a>
</g>
</g>
<!-- Node5&#45;&gt;Node9 -->
<g id="edge33_Node000005_Node000009" class="edge">
<title>Node5&#45;&gt;Node9</title>
<g id="a_edge33_Node000005_Node000009"><a xlink:title=" ">
<path fill="none" stroke="#63b8ff" d="M718.81,-279.71C746.72,-257.76 814.18,-199.43 837.5,-132 840.41,-123.6 840.61,-120.33 837.5,-112 833.52,-101.33 825.74,-91.51 818.18,-83.79"/>
<polygon fill="#63b8ff" stroke="#63b8ff" points="820.91,-81.61 811.23,-77.28 816.1,-86.69 820.91,-81.61"/>
</a>
</g>
</g>
<!-- Node5&#45;&gt;Node10 -->
<g id="edge28_Node000005_Node000010" class="edge">
<title>Node5&#45;&gt;Node10</title>
<g id="a_edge28_Node000005_Node000010"><a xlink:title=" ">
<path fill="none" stroke="#63b8ff" d="M676.02,-287.01C608.76,-282.22 449.85,-268.58 402.5,-244 355.54,-219.62 317.07,-168.47 298.86,-141.13"/>
<polygon fill="#63b8ff" stroke="#63b8ff" points="301.47,-139.72 293.1,-133.23 295.6,-143.53 301.47,-139.72"/>
</a>
</g>
</g>
<!-- Node15 -->
<g id="Node000015" class="node">
<title>Node15</title>
<g id="a_Node000015"><a xlink:href="_inclination_detector_8h.html" target="_top" xlink:title=" ">
<polygon fill="white" stroke="#666666" points="1119.75,-188 1015.25,-188 1015.25,-168 1119.75,-168 1119.75,-188"/>
<text text-anchor="middle" x="1067.5" y="-174.5" font-family="Helvetica,sans-Serif" font-size="10.00">InclinationDetector.h</text>
</a>
</g>
</g>
<!-- Node5&#45;&gt;Node15 -->
<g id="edge29_Node000005_Node000015" class="edge">
<title>Node5&#45;&gt;Node15</title>
<g id="a_edge29_Node000005_Node000015"><a xlink:title=" ">
<path fill="none" stroke="#63b8ff" d="M736.97,-279.72C801.69,-259.99 952.96,-213.9 1026.25,-191.57"/>
<polygon fill="#63b8ff" stroke="#63b8ff" points="1026.93,-194.72 1035.47,-188.45 1024.89,-188.02 1026.93,-194.72"/>
</a>
</g>
</g>
<!-- Node6&#45;&gt;Node4 -->
<g id="edge7_Node000006_Node000004" class="edge">
<title>Node6&#45;&gt;Node4</title>
<g id="a_edge7_Node000006_Node000004"><a xlink:title=" ">
<path fill="none" stroke="#63b8ff" d="M615.69,-233.53C576.8,-232.37 512.38,-224.5 473.5,-188 428.51,-145.77 464.63,-107.4 430.5,-56 423.02,-44.73 411.97,-34.62 401.98,-26.85"/>
<polygon fill="#63b8ff" stroke="#63b8ff" points="404.36,-23.52 394.24,-20.41 400.21,-29.16 404.36,-23.52"/>
</a>
</g>
</g>
<!-- Node7 -->
<g id="Node000007" class="node">
<title>Node7</title>
<g id="a_Node000007"><a xlink:href="_motor_data_8h.html" target="_top" xlink:title="Declares a class used to store data for motors to access.">
<polygon fill="white" stroke="#666666" points="552.13,-188 482.88,-188 482.88,-168 552.13,-168 552.13,-188"/>
<text text-anchor="middle" x="517.5" y="-174.5" font-family="Helvetica,sans-Serif" font-size="10.00">MotorData.h</text>
</a>
</g>
</g>
<!-- Node6&#45;&gt;Node7 -->
<g id="edge8_Node000006_Node000007" class="edge">
<title>Node6&#45;&gt;Node7</title>
<g id="a_edge8_Node000006_Node000007"><a xlink:title=" ">
<path fill="none" stroke="#63b8ff" d="M625.68,-223.59C604.86,-215.01 573.86,-202.23 550.37,-192.55"/>
<polygon fill="#63b8ff" stroke="#63b8ff" points="552.08,-189.05 541.5,-188.48 549.41,-195.53 552.08,-189.05"/>
</a>
</g>
</g>
<!-- Node6&#45;&gt;Node8 -->
<g id="edge23_Node000006_Node000008" class="edge">
<title>Node6&#45;&gt;Node8</title>
<g id="a_edge23_Node000006_Node000008"><a xlink:title=" ">
<path fill="none" stroke="#63b8ff" d="M661.29,-223.62C687.08,-204.71 745.57,-161.82 777.21,-138.61"/>
<polygon fill="#63b8ff" stroke="#63b8ff" points="778.75,-141.09 784.74,-132.35 774.61,-135.45 778.75,-141.09"/>
</a>
</g>
</g>
<!-- Node6&#45;&gt;Node9 -->
<g id="edge25_Node000006_Node000009" class="edge">
<title>Node6&#45;&gt;Node9</title>
<g id="a_edge25_Node000006_Node000009"><a xlink:title=" ">
<path fill="none" stroke="#63b8ff" d="M656.55,-223.68C667.52,-211 687.84,-187.65 705.5,-168 732.15,-138.35 763.67,-104.33 782.33,-84.31"/>
<polygon fill="#63b8ff" stroke="#63b8ff" points="784.44,-87.1 788.7,-77.4 779.32,-82.32 784.44,-87.1"/>
</a>
</g>
</g>
<!-- Node6&#45;&gt;Node10 -->
<g id="edge24_Node000006_Node000010" class="edge">
<title>Node6&#45;&gt;Node10</title>
<g id="a_edge24_Node000006_Node000010"><a xlink:title=" ">
<path fill="none" stroke="#63b8ff" d="M615.94,-227.92C574.57,-221.01 501.25,-207.28 440.5,-188 395.96,-173.86 346.56,-151.61 316.26,-137.16"/>
<polygon fill="#63b8ff" stroke="#63b8ff" points="317.91,-133.58 307.38,-132.4 314.87,-139.89 317.91,-133.58"/>
</a>
</g>
</g>
<!-- Node13 -->
<g id="Node000013" class="node">
<title>Node13</title>
<g id="a_Node000013"><a xlink:href="_controller_data_8h.html" target="_top" xlink:title="Declares a class used to store data for controllers to access.">
<polygon fill="white" stroke="#666666" points="656.38,-188 570.63,-188 570.63,-168 656.38,-168 656.38,-188"/>
<text text-anchor="middle" x="613.5" y="-174.5" font-family="Helvetica,sans-Serif" font-size="10.00">ControllerData.h</text>
</a>
</g>
</g>
<!-- Node6&#45;&gt;Node13 -->
<g id="edge18_Node000006_Node000013" class="edge">
<title>Node6&#45;&gt;Node13</title>
<g id="a_edge18_Node000006_Node000013"><a xlink:title=" ">
<path fill="none" stroke="#63b8ff" d="M642.4,-223.59C637.74,-216.39 631.15,-206.23 625.45,-197.43"/>
<polygon fill="#63b8ff" stroke="#63b8ff" points="627.9,-195.79 619.53,-189.3 622.03,-199.59 627.9,-195.79"/>
</a>
</g>
</g>
<!-- Node14 -->
<g id="Node000014" class="node">
<title>Node14</title>
<g id="a_Node000014"><a xlink:title=" ">
<polygon fill="#e0e0e0" stroke="#999999" points="1020.63,-132 978.38,-132 978.38,-112 1020.63,-112 1020.63,-132"/>
<text text-anchor="middle" x="999.5" y="-118.5" font-family="Helvetica,sans-Serif" font-size="10.00">queue</text>
</a>
</g>
</g>
<!-- Node6&#45;&gt;Node14 -->
<g id="edge26_Node000006_Node000014" class="edge">
<title>Node6&#45;&gt;Node14</title>
<g id="a_edge26_Node000006_Node000014"><a xlink:title=" ">
<path fill="none" stroke="#63b8ff" d="M678.73,-223.53C744.57,-202.89 900.42,-154.05 967.68,-132.97"/>
<polygon fill="#63b8ff" stroke="#63b8ff" points="968.57,-136.05 977.06,-129.72 966.47,-129.37 968.57,-136.05"/>
</a>
</g>
</g>
<!-- Node7&#45;&gt;Node4 -->
<g id="edge9_Node000007_Node000004" class="edge">
<title>Node7&#45;&gt;Node4</title>
<g id="a_edge9_Node000007_Node000004"><a xlink:title=" ">
<path fill="none" stroke="#63b8ff" d="M516.03,-167.61C512.12,-145.52 499.57,-89.62 468.5,-56 454.72,-41.09 434.91,-30.45 417.38,-23.27"/>
<polygon fill="#63b8ff" stroke="#63b8ff" points="418.98,-19.75 408.39,-19.43 416.47,-26.28 418.98,-19.75"/>
</a>
</g>
</g>
<!-- Node7&#45;&gt;Node8 -->
<g id="edge10_Node000007_Node000008" class="edge">
<title>Node7&#45;&gt;Node8</title>
<g id="a_edge10_Node000007_Node000008"><a xlink:title=" ">
<path fill="none" stroke="#63b8ff" d="M552.56,-169.78C555.58,-169.17 558.59,-168.57 561.5,-168 630.35,-154.42 710.61,-139.34 757.84,-130.54"/>
<polygon fill="#63b8ff" stroke="#63b8ff" points="758.35,-133.82 767.54,-128.55 757.07,-126.94 758.35,-133.82"/>
</a>
</g>
</g>
<!-- Node7&#45;&gt;Node9 -->
<g id="edge17_Node000007_Node000009" class="edge">
<title>Node7&#45;&gt;Node9</title>
<g id="a_edge17_Node000007_Node000009"><a xlink:title=" ">
<path fill="none" stroke="#63b8ff" d="M533.48,-167.57C557.12,-153.92 603.07,-128.48 644.5,-112 684.32,-96.16 731.9,-83.1 763.53,-75.21"/>
<polygon fill="#63b8ff" stroke="#63b8ff" points="764.14,-78.42 773.02,-72.63 762.47,-71.62 764.14,-78.42"/>
</a>
</g>
</g>
<!-- Node7&#45;&gt;Node10 -->
<g id="edge12_Node000007_Node000010" class="edge">
<title>Node7&#45;&gt;Node10</title>
<g id="a_edge12_Node000007_Node000010"><a xlink:title=" ">
<path fill="none" stroke="#63b8ff" d="M482.57,-168.8C439.56,-158.7 366.9,-141.64 323.44,-131.44"/>
<polygon fill="#63b8ff" stroke="#63b8ff" points="324.33,-127.82 313.79,-128.94 322.73,-134.63 324.33,-127.82"/>
</a>
</g>
</g>
<!-- Node8&#45;&gt;Node9 -->
<g id="edge11_Node000008_Node000009" class="edge">
<title>Node8&#45;&gt;Node9</title>
<g id="a_edge11_Node000008_Node000009"><a xlink:title=" ">
<path fill="none" stroke="#63b8ff" d="M798.5,-111.59C798.5,-104.86 798.5,-95.53 798.5,-87.15"/>
<polygon fill="#63b8ff" stroke="#63b8ff" points="802,-87.3 798.5,-77.3 795,-87.3 802,-87.3"/>
</a>
</g>
</g>
<!-- Node10&#45;&gt;Node4 -->
<g id="edge16_Node000010_Node000004" class="edge">
<title>Node10&#45;&gt;Node4</title>
<g id="a_edge16_Node000010_Node000004"><a xlink:title=" ">
<path fill="none" stroke="#63b8ff" d="M291.96,-111.57C298.46,-98.35 311.43,-73.93 326.5,-56 335.44,-45.36 347,-35.1 356.95,-27.06"/>
<polygon fill="#63b8ff" stroke="#63b8ff" points="358.79,-29.29 364.51,-20.37 354.47,-23.77 358.79,-29.29"/>
</a>
</g>
</g>
<!-- Node11 -->
<g id="Node000011" class="node">
<title>Node11</title>
<g id="a_Node000011"><a xlink:href="_config_8h.html" target="_top" xlink:title="Configuration variables for the codebase.">
<polygon fill="white" stroke="#666666" points="86.13,-76 34.88,-76 34.88,-56 86.13,-56 86.13,-76"/>
<text text-anchor="middle" x="60.5" y="-62.5" font-family="Helvetica,sans-Serif" font-size="10.00">Config.h</text>
</a>
</g>
</g>
<!-- Node10&#45;&gt;Node11 -->
<g id="edge13_Node000010_Node000011" class="edge">
<title>Node10&#45;&gt;Node11</title>
<g id="a_edge13_Node000010_Node000011"><a xlink:title=" ">
<path fill="none" stroke="#63b8ff" d="M262.34,-115.01C222.16,-105.46 143.32,-86.7 96.96,-75.67"/>
<polygon fill="#63b8ff" stroke="#63b8ff" points="98.01,-72.09 87.47,-73.18 96.39,-78.9 98.01,-72.09"/>
</a>
</g>
</g>
<!-- Node11&#45;&gt;Node4 -->
<g id="edge14_Node000011_Node000004" class="edge">
<title>Node11&#45;&gt;Node4</title>
<g id="a_edge14_Node000011_Node000004"><a xlink:title=" ">
<path fill="none" stroke="#63b8ff" d="M86.27,-58.96C90.99,-57.92 95.89,-56.89 100.5,-56 184.98,-39.67 284.68,-24.53 338.76,-16.66"/>
<polygon fill="#63b8ff" stroke="#63b8ff" points="339.19,-19.99 348.58,-15.09 338.18,-13.06 339.19,-19.99"/>
</a>
</g>
</g>
<!-- Node12 -->
<g id="Node000012" class="node">
<title>Node12</title>
<g id="a_Node000012"><a xlink:href="_log_levels_8h.html" target="_top" xlink:title=" ">
<polygon fill="white" stroke="#666666" points="67,-20 0,-20 0,0 67,0 67,-20"/>
<text text-anchor="middle" x="33.5" y="-6.5" font-family="Helvetica,sans-Serif" font-size="10.00">LogLevels.h</text>
</a>
</g>
</g>
<!-- Node11&#45;&gt;Node12 -->
<g id="edge15_Node000011_Node000012" class="edge">
<title>Node11&#45;&gt;Node12</title>
<g id="a_edge15_Node000011_Node000012"><a xlink:title=" ">
<path fill="none" stroke="#63b8ff" d="M55.8,-55.59C52.27,-48.55 47.33,-38.67 43,-30"/>
<polygon fill="#63b8ff" stroke="#63b8ff" points="45.75,-28.68 38.15,-21.3 39.49,-31.81 45.75,-28.68"/>
</a>
</g>
</g>
<!-- Node13&#45;&gt;Node4 -->
<g id="edge20_Node000013_Node000004" class="edge">
<title>Node13&#45;&gt;Node4</title>
<g id="a_edge20_Node000013_Node000004"><a xlink:title=" ">
<path fill="none" stroke="#63b8ff" d="M606.06,-167.56C588.16,-145.37 540.35,-89.25 489.5,-56 467.37,-41.52 439.83,-30.33 417.72,-22.72"/>
<polygon fill="#63b8ff" stroke="#63b8ff" points="418.94,-19.11 408.35,-19.28 416.73,-25.75 418.94,-19.11"/>
</a>
</g>
</g>
<!-- Node13&#45;&gt;Node8 -->
<g id="edge22_Node000013_Node000008" class="edge">
<title>Node13&#45;&gt;Node8</title>
<g id="a_edge22_Node000013_Node000008"><a xlink:title=" ">
<path fill="none" stroke="#63b8ff" d="M645.72,-167.59C676.92,-158.49 724.33,-144.65 758.05,-134.81"/>
<polygon fill="#63b8ff" stroke="#63b8ff" points="758.86,-137.92 767.48,-131.76 756.9,-131.2 758.86,-137.92"/>
</a>
</g>
</g>
<!-- Node13&#45;&gt;Node9 -->
<g id="edge19_Node000013_Node000009" class="edge">
<title>Node13&#45;&gt;Node9</title>
<g id="a_edge19_Node000013_Node000009"><a xlink:title=" ">
<path fill="none" stroke="#63b8ff" d="M619.36,-167.68C628.61,-153.7 647.87,-127.3 670.5,-112 698.97,-92.75 736.56,-80.83 763.64,-74.13"/>
<polygon fill="#63b8ff" stroke="#63b8ff" points="764.24,-77.35 773.17,-71.65 762.64,-70.53 764.24,-77.35"/>
</a>
</g>
</g>
<!-- Node13&#45;&gt;Node10 -->
<g id="edge21_Node000013_Node000010" class="edge">
<title>Node13&#45;&gt;Node10</title>
<g id="a_edge21_Node000013_Node000010"><a xlink:title=" ">
<path fill="none" stroke="#63b8ff" d="M570.37,-169.51C567.37,-168.99 564.39,-168.49 561.5,-168 476.25,-153.62 375.97,-137.3 323.56,-128.82"/>
<polygon fill="#63b8ff" stroke="#63b8ff" points="324.25,-125.23 313.82,-127.08 323.13,-132.14 324.25,-125.23"/>
</a>
</g>
</g>
<!-- Node15&#45;&gt;Node4 -->
<g id="edge30_Node000015_Node000004" class="edge">
<title>Node15&#45;&gt;Node4</title>
<g id="a_edge30_Node000015_Node000004"><a xlink:title=" ">
<path fill="none" stroke="#63b8ff" d="M1076.35,-167.75C1088.11,-154.31 1105.92,-129.13 1092.5,-112 1050.46,-58.32 562.92,-22.86 418.54,-13.48"/>
<polygon fill="#63b8ff" stroke="#63b8ff" points="418.79,-9.93 408.58,-12.78 418.34,-16.91 418.79,-9.93"/>
</a>
</g>
</g>
<!-- Node15&#45;&gt;Node14 -->
<g id="edge31_Node000015_Node000014" class="edge">
<title>Node15&#45;&gt;Node14</title>
<g id="a_edge31_Node000015_Node000014"><a xlink:title=" ">
<path fill="none" stroke="#63b8ff" d="M1055.66,-167.59C1045.71,-159.7 1031.28,-148.24 1019.54,-138.92"/>
<polygon fill="#63b8ff" stroke="#63b8ff" points="1022.22,-135.78 1012.21,-132.3 1017.86,-141.26 1022.22,-135.78"/>
</a>
</g>
</g>
<!-- Node16 -->
<g id="Node000016" class="node">
<title>Node16</title>
<g id="a_Node000016"><a xlink:title=" ">
<polygon fill="#e0e0e0" stroke="#999999" points="1083.13,-132 1043.88,-132 1043.88,-112 1083.13,-112 1083.13,-132"/>
<text text-anchor="middle" x="1063.5" y="-118.5" font-family="Helvetica,sans-Serif" font-size="10.00">utility</text>
</a>
</g>
</g>
<!-- Node15&#45;&gt;Node16 -->
<g id="edge32_Node000015_Node000016" class="edge">
<title>Node15&#45;&gt;Node16</title>
<g id="a_edge32_Node000015_Node000016"><a xlink:title=" ">
<path fill="none" stroke="#63b8ff" d="M1066.8,-167.59C1066.3,-160.86 1065.61,-151.53 1064.99,-143.15"/>
<polygon fill="#63b8ff" stroke="#63b8ff" points="1068.42,-143.01 1064.19,-133.3 1061.44,-143.53 1068.42,-143.01"/>
</a>
</g>
</g>
<!-- Node17&#45;&gt;Node4 -->
<g id="edge38_Node000017_Node000004" class="edge">
<title>Node17&#45;&gt;Node4</title>
<g id="a_edge38_Node000017_Node000004"><a xlink:title=" ">
<path fill="none" stroke="#63b8ff" d="M146.5,-223.64C141.53,-210.51 134.72,-186.19 143.5,-168 181.98,-88.3 282.9,-42.97 339.17,-23.14"/>
<polygon fill="#63b8ff" stroke="#63b8ff" points="340.13,-26.17 348.46,-19.62 337.87,-19.55 340.13,-26.17"/>
</a>
</g>
</g>
<!-- Node17&#45;&gt;Node10 -->
<g id="edge39_Node000017_Node000010" class="edge">
<title>Node17&#45;&gt;Node10</title>
<g id="a_edge39_Node000017_Node000010"><a xlink:title=" ">
<path fill="none" stroke="#63b8ff" d="M148.35,-223.93C145.68,-210.26 142.88,-184.28 155.5,-168 178.16,-138.77 220.77,-128.4 251.46,-124.79"/>
<polygon fill="#63b8ff" stroke="#63b8ff" points="251.55,-128.2 261.17,-123.75 250.87,-121.24 251.55,-128.2"/>
</a>
</g>
</g>
<!-- Node17&#45;&gt;Node18 -->
<g id="edge40_Node000017_Node000018" class="edge">
<title>Node17&#45;&gt;Node18</title>
<g id="a_edge40_Node000017_Node000018"><a xlink:title=" ">
<path fill="none" stroke="#63b8ff" d="M159.21,-223.59C166.16,-216.08 176.1,-205.35 184.48,-196.3"/>
<polygon fill="#63b8ff" stroke="#63b8ff" points="186.66,-199.01 190.89,-189.3 181.53,-194.26 186.66,-199.01"/>
</a>
</g>
</g>
<!-- Node18&#45;&gt;Node4 -->
<g id="edge41_Node000018_Node000004" class="edge">
<title>Node18&#45;&gt;Node4</title>
<g id="a_edge41_Node000018_Node000004"><a xlink:title=" ">
<path fill="none" stroke="#63b8ff" d="M207.32,-167.6C223.34,-145.98 265.37,-91.81 309.5,-56 323.08,-44.98 339.44,-34.22 352.82,-25.98"/>
<polygon fill="#63b8ff" stroke="#63b8ff" points="354.2,-28.63 360.95,-20.46 350.58,-22.64 354.2,-28.63"/>
</a>
</g>
</g>
<!-- Node18&#45;&gt;Node10 -->
<g id="edge42_Node000018_Node000010" class="edge">
<title>Node18&#45;&gt;Node10</title>
<g id="a_edge42_Node000018_Node000010"><a xlink:title=" ">
<path fill="none" stroke="#63b8ff" d="M215.65,-167.59C228.67,-159.51 247.69,-147.71 262.89,-138.27"/>
<polygon fill="#63b8ff" stroke="#63b8ff" points="264.58,-140.73 271.23,-132.48 260.89,-134.78 264.58,-140.73"/>
</a>
</g>
</g>
<!-- Node19&#45;&gt;Node4 -->
<g id="edge47_Node000019_Node000004" class="edge">
<title>Node19&#45;&gt;Node4</title>
<g id="a_edge47_Node000019_Node000004"><a xlink:title=" ">
<path fill="none" stroke="#63b8ff" d="M962.39,-167.87C953.22,-154.6 934.9,-129.62 915.5,-112 882.29,-81.83 873.75,-71.11 831.5,-56 755.79,-28.92 514.24,-16.46 418.32,-12.49"/>
<polygon fill="#63b8ff" stroke="#63b8ff" points="418.5,-8.95 408.36,-12.04 418.21,-15.94 418.5,-8.95"/>
</a>
</g>
</g>
<!-- Node19&#45;&gt;Node8 -->
<g id="edge46_Node000019_Node000008" class="edge">
<title>Node19&#45;&gt;Node8</title>
<g id="a_edge46_Node000019_Node000008"><a xlink:title=" ">
<path fill="none" stroke="#63b8ff" d="M940.05,-167.96C912.19,-159.11 869.51,-145.56 838.3,-135.64"/>
<polygon fill="#63b8ff" stroke="#63b8ff" points="839.78,-132.12 829.19,-132.43 837.66,-138.79 839.78,-132.12"/>
</a>
</g>
</g>
<!-- Node19&#45;&gt;Node9 -->
<g id="edge48_Node000019_Node000009" class="edge">
<title>Node19&#45;&gt;Node9</title>
<g id="a_edge48_Node000019_Node000009"><a xlink:title=" ">
<path fill="none" stroke="#63b8ff" d="M958.69,-167.83C944.12,-154.5 915.57,-129.46 888.5,-112 870.09,-100.12 848.13,-89.09 830.5,-80.91"/>
<polygon fill="#63b8ff" stroke="#63b8ff" points="832.24,-77.4 821.69,-76.45 829.34,-83.78 832.24,-77.4"/>
</a>
</g>
</g>
<!-- Node19&#45;&gt;Node14 -->
<g id="edge50_Node000019_Node000014" class="edge">
<title>Node19&#45;&gt;Node14</title>
<g id="a_edge50_Node000019_Node000014"><a xlink:title=" ">
<path fill="none" stroke="#63b8ff" d="M973.9,-167.59C977.99,-160.47 983.74,-150.45 988.76,-141.72"/>
<polygon fill="#63b8ff" stroke="#63b8ff" points="992.22,-143.71 994.16,-133.3 986.15,-140.23 992.22,-143.71"/>
</a>
</g>
</g>
<!-- Node19&#45;&gt;Node16 -->
<g id="edge49_Node000019_Node000016" class="edge">
<title>Node19&#45;&gt;Node16</title>
<g id="a_edge49_Node000019_Node000016"><a xlink:title=" ">
<path fill="none" stroke="#63b8ff" d="M985.05,-167.59C999.53,-159.36 1020.83,-147.26 1037.57,-137.74"/>
<polygon fill="#63b8ff" stroke="#63b8ff" points="1038.86,-140.46 1045.82,-132.48 1035.4,-134.38 1038.86,-140.46"/>
</a>
</g>
</g>
<!-- Node24&#45;&gt;Node4 -->
<g id="edge56_Node000024_Node000004" class="edge">
<title>Node24&#45;&gt;Node4</title>
<g id="a_edge56_Node000024_Node000004"><a xlink:title=" ">
<path fill="none" stroke="#63b8ff" d="M68.58,-111.75C81.7,-97.35 109.16,-69.82 138.5,-56 204.33,-25.01 289.76,-15.34 338.93,-12.34"/>
<polygon fill="#63b8ff" stroke="#63b8ff" points="338.94,-15.79 348.73,-11.75 338.56,-8.8 338.94,-15.79"/>
</a>
</g>
</g>
<!-- Node24&#45;&gt;Node11 -->
<g id="edge58_Node000024_Node000011" class="edge">
<title>Node24&#45;&gt;Node11</title>
<g id="a_edge58_Node000024_Node000011"><a xlink:title=" ">
<path fill="none" stroke="#63b8ff" d="M60.5,-111.59C60.5,-104.86 60.5,-95.53 60.5,-87.15"/>
<polygon fill="#63b8ff" stroke="#63b8ff" points="64,-87.3 60.5,-77.3 57,-87.3 64,-87.3"/>
</a>
</g>
</g>
<!-- Node24&#45;&gt;Node12 -->
<g id="edge57_Node000024_Node000012" class="edge">
<title>Node24&#45;&gt;Node12</title>
<g id="a_edge57_Node000024_Node000012"><a xlink:title=" ">
<path fill="none" stroke="#63b8ff" d="M50.28,-111.8C41.81,-103.43 30.38,-90.23 25.5,-76 20.42,-61.19 23.12,-43.51 26.7,-30.33"/>
<polygon fill="#63b8ff" stroke="#63b8ff" points="30.25,-31.68 29.9,-21.09 23.57,-29.6 30.25,-31.68"/>
</a>
</g>
</g>
</g>
</svg>
