<?xml version="1.0" encoding="UTF-8" standalone="no"?>
<!DOCTYPE svg PUBLIC "-//W3C//DTD SVG 1.1//EN"
 "http://www.w3.org/Graphics/SVG/1.1/DTD/svg11.dtd">
<!-- Generated by graphviz version 8.1.0 (20230707.0739)
 -->
<!-- Title: ParseIni.cpp Pages: 1 -->
<svg width="219pt" height="196pt"
 viewBox="0.00 0.00 218.63 196.00" xmlns="http://www.w3.org/2000/svg" xmlns:xlink="http://www.w3.org/1999/xlink">
<g id="graph0" class="graph" transform="scale(1 1) rotate(0) translate(4 192)">
<title>ParseIni.cpp</title>
<!-- Node1 -->
<g id="Node000001" class="node">
<title>Node1</title>
<g id="a_Node000001"><a xlink:title=" ">
<polygon fill="#999999" stroke="#666666" points="111.13,-188 41.13,-188 41.13,-168 111.13,-168 111.13,-188"/>
<text text-anchor="middle" x="76.13" y="-174.5" font-family="Helvetica,sans-Serif" font-size="10.00">ParseIni.cpp</text>
</a>
</g>
</g>
<!-- Node2 -->
<g id="Node000002" class="node">
<title>Node2</title>
<g id="a_Node000002"><a xlink:href="_parse_ini_8h.html" target="_top" xlink:title="Declares the functions needed and defines mapping between the INI keys and the exo components.">
<polygon fill="white" stroke="#666666" points="68.88,-132 9.37,-132 9.37,-112 68.88,-112 68.88,-132"/>
<text text-anchor="middle" x="39.13" y="-118.5" font-family="Helvetica,sans-Serif" font-size="10.00">ParseIni.h</text>
</a>
</g>
</g>
<!-- Node1&#45;&gt;Node2 -->
<g id="edge1_Node000001_Node000002" class="edge">
<title>Node1&#45;&gt;Node2</title>
<g id="a_edge1_Node000001_Node000002"><a xlink:title=" ">
<path fill="none" stroke="#63b8ff" d="M69.68,-167.59C64.69,-160.32 57.64,-150.02 51.56,-141.15"/>
<polygon fill="#63b8ff" stroke="#63b8ff" points="54.04,-139.57 45.5,-133.3 48.26,-143.53 54.04,-139.57"/>
</a>
</g>
</g>
<!-- Node4 -->
<g id="Node000004" class="node">
<title>Node4</title>
<g id="a_Node000004"><a xlink:href="_logger_8h.html" target="_top" xlink:title=" ">
<polygon fill="white" stroke="#666666" points="148.88,-132 95.38,-132 95.38,-112 148.88,-112 148.88,-132"/>
<text text-anchor="middle" x="122.13" y="-118.5" font-family="Helvetica,sans-Serif" font-size="10.00">Logger.h</text>
</a>
</g>
</g>
<!-- Node1&#45;&gt;Node4 -->
<g id="edge3_Node000001_Node000004" class="edge">
<title>Node1&#45;&gt;Node4</title>
<g id="a_edge3_Node000001_Node000004"><a xlink:title=" ">
<path fill="none" stroke="#63b8ff" d="M84.14,-167.59C90.47,-160.16 99.49,-149.58 107.15,-140.58"/>
<polygon fill="#63b8ff" stroke="#63b8ff" points="110.38,-143.18 114.2,-133.3 105.06,-138.64 110.38,-143.18"/>
</a>
</g>
</g>
<!-- Node3 -->
<g id="Node000003" class="node">
<title>Node3</title>
<g id="a_Node000003"><a xlink:title=" ">
<polygon fill="#e0e0e0" stroke="#999999" points="48.25,-76 0,-76 0,-56 48.25,-56 48.25,-76"/>
<text text-anchor="middle" x="24.13" y="-62.5" font-family="Helvetica,sans-Serif" font-size="10.00">stdint.h</text>
</a>
</g>
</g>
<!-- Node2&#45;&gt;Node3 -->
<g id="edge2_Node000002_Node000003" class="edge">
<title>Node2&#45;&gt;Node3</title>
<g id="a_edge2_Node000002_Node000003"><a xlink:title=" ">
<path fill="none" stroke="#63b8ff" d="M36.51,-111.59C34.62,-104.78 31.99,-95.32 29.64,-86.86"/>
<polygon fill="#63b8ff" stroke="#63b8ff" points="32.76,-86 26.71,-77.3 26.01,-87.87 32.76,-86"/>
</a>
</g>
</g>
<!-- Node5 -->
<g id="Node000005" class="node">
<title>Node5</title>
<g id="a_Node000005"><a xlink:title=" ">
<polygon fill="#e0e0e0" stroke="#999999" points="118.75,-20 61.5,-20 61.5,0 118.75,0 118.75,-20"/>
<text text-anchor="middle" x="90.13" y="-6.5" font-family="Helvetica,sans-Serif" font-size="10.00">Arduino.h</text>
</a>
</g>
</g>
<!-- Node4&#45;&gt;Node5 -->
<g id="edge4_Node000004_Node000005" class="edge">
<title>Node4&#45;&gt;Node5</title>
<g id="a_edge4_Node000004_Node000005"><a xlink:title=" ">
<path fill="none" stroke="#63b8ff" d="M114.71,-111.63C108.29,-102.94 99.39,-89.37 95.13,-76 90.44,-61.3 89.33,-43.83 89.31,-30.71"/>
<polygon fill="#63b8ff" stroke="#63b8ff" points="92.82,-31.15 89.53,-21.08 85.82,-31 92.82,-31.15"/>
</a>
</g>
</g>
<!-- Node6 -->
<g id="Node000006" class="node">
<title>Node6</title>
<g id="a_Node000006"><a xlink:href="_log_levels_8h.html" target="_top" xlink:title=" ">
<polygon fill="white" stroke="#666666" points="210.63,-20 143.63,-20 143.63,0 210.63,0 210.63,-20"/>
<text text-anchor="middle" x="177.13" y="-6.5" font-family="Helvetica,sans-Serif" font-size="10.00">LogLevels.h</text>
</a>
</g>
</g>
<!-- Node4&#45;&gt;Node6 -->
<g id="edge5_Node000004_Node000006" class="edge">
<title>Node4&#45;&gt;Node6</title>
<g id="a_edge5_Node000004_Node000006"><a xlink:title=" ">
<path fill="none" stroke="#63b8ff" d="M134.34,-111.67C144.25,-103.4 157.75,-90.43 165.13,-76 172.24,-62.08 175.18,-44.56 176.38,-31.21"/>
<polygon fill="#63b8ff" stroke="#63b8ff" points="179.92,-31.56 177.05,-21.36 172.94,-31.12 179.92,-31.56"/>
</a>
</g>
</g>
<!-- Node7 -->
<g id="Node000007" class="node">
<title>Node7</title>
<g id="a_Node000007"><a xlink:href="_config_8h.html" target="_top" xlink:title="Configuration variables for the codebase.">
<polygon fill="white" stroke="#666666" points="155.75,-76 104.5,-76 104.5,-56 155.75,-56 155.75,-76"/>
<text text-anchor="middle" x="130.13" y="-62.5" font-family="Helvetica,sans-Serif" font-size="10.00">Config.h</text>
</a>
</g>
</g>
<!-- Node4&#45;&gt;Node7 -->
<g id="edge6_Node000004_Node000007" class="edge">
<title>Node4&#45;&gt;Node7</title>
<g id="a_edge6_Node000004_Node000007"><a xlink:title=" ">
<path fill="none" stroke="#63b8ff" d="M123.52,-111.59C124.52,-104.86 125.9,-95.53 127.14,-87.15"/>
<polygon fill="#63b8ff" stroke="#63b8ff" points="130.74,-87.7 128.75,-77.3 123.82,-86.68 130.74,-87.7"/>
</a>
</g>
</g>
<!-- Node7&#45;&gt;Node5 -->
<g id="edge7_Node000007_Node000005" class="edge">
<title>Node7&#45;&gt;Node5</title>
<g id="a_edge7_Node000007_Node000005"><a xlink:title=" ">
<path fill="none" stroke="#63b8ff" d="M123.16,-55.59C117.71,-48.24 109.97,-37.8 103.36,-28.87"/>
<polygon fill="#63b8ff" stroke="#63b8ff" points="105.78,-27.25 97.01,-21.3 100.15,-31.42 105.78,-27.25"/>
</a>
</g>
</g>
<!-- Node7&#45;&gt;Node6 -->
<g id="edge8_Node000007_Node000006" class="edge">
<title>Node7&#45;&gt;Node6</title>
<g id="a_edge8_Node000007_Node000006"><a xlink:title=" ">
<path fill="none" stroke="#63b8ff" d="M138.31,-55.59C144.78,-48.16 153.99,-37.58 161.82,-28.58"/>
<polygon fill="#63b8ff" stroke="#63b8ff" points="165.11,-31.14 169.03,-21.3 159.83,-26.54 165.11,-31.14"/>
</a>
</g>
</g>
</g>
</svg>
