<?xml version="1.0" encoding="UTF-8" standalone="no"?>
<!DOCTYPE svg PUBLIC "-//W3C//DTD SVG 1.1//EN"
 "http://www.w3.org/Graphics/SVG/1.1/DTD/svg11.dtd">
<!-- Generated by graphviz version 8.1.0 (20230707.0739)
 -->
<!-- Title: ParamsFromSD.h Pages: 1 -->
<svg width="1263pt" height="420pt"
 viewBox="0.00 0.00 1263.46 420.00" xmlns="http://www.w3.org/2000/svg" xmlns:xlink="http://www.w3.org/1999/xlink">
<g id="graph0" class="graph" transform="scale(1 1) rotate(0) translate(4 416)">
<title>ParamsFromSD.h</title>
<!-- Node1 -->
<g id="Node000001" class="node">
<title>Node1</title>
<g id="a_Node000001"><a xlink:title="Declares the functions to pull controller parameters from the SD card and defines the mapping to the ...">
<polygon fill="#999999" stroke="#666666" points="1115.46,-412 1021.46,-412 1021.46,-392 1115.46,-392 1115.46,-412"/>
<text text-anchor="middle" x="1068.46" y="-398.5" font-family="Helvetica,sans-Serif" font-size="10.00">ParamsFromSD.h</text>
</a>
</g>
</g>
<!-- Node2 -->
<g id="Node000002" class="node">
<title>Node2</title>
<g id="a_Node000002"><a xlink:href="_exo_data_8h.html" target="_top" xlink:title="Declares a class used to store data for the Exo to access.">
<polygon fill="white" stroke="#666666" points="659.33,-356 597.58,-356 597.58,-336 659.33,-336 659.33,-356"/>
<text text-anchor="middle" x="628.46" y="-342.5" font-family="Helvetica,sans-Serif" font-size="10.00">ExoData.h</text>
</a>
</g>
</g>
<!-- Node1&#45;&gt;Node2 -->
<g id="edge1_Node000001_Node000002" class="edge">
<title>Node1&#45;&gt;Node2</title>
<g id="a_edge1_Node000001_Node000002"><a xlink:title=" ">
<path fill="none" stroke="#63b8ff" d="M1021.37,-395.22C935,-384.62 752.57,-362.23 670.28,-352.13"/>
<polygon fill="#63b8ff" stroke="#63b8ff" points="670.94,-348.56 660.59,-350.82 670.09,-355.51 670.94,-348.56"/>
</a>
</g>
</g>
<!-- Node7 -->
<g id="Node000007" class="node">
<title>Node7</title>
<g id="a_Node000007"><a xlink:href="_parse_ini_8h.html" target="_top" xlink:title="Declares the functions needed and defines mapping between the INI keys and the exo components.">
<polygon fill="white" stroke="#666666" points="649.21,-132 589.71,-132 589.71,-112 649.21,-112 649.21,-132"/>
<text text-anchor="middle" x="619.46" y="-118.5" font-family="Helvetica,sans-Serif" font-size="10.00">ParseIni.h</text>
</a>
</g>
</g>
<!-- Node1&#45;&gt;Node7 -->
<g id="edge43_Node000001_Node000007" class="edge">
<title>Node1&#45;&gt;Node7</title>
<g id="a_edge43_Node000001_Node000007"><a xlink:title=" ">
<path fill="none" stroke="#63b8ff" d="M1053.26,-391.59C987.23,-350.71 724.94,-188.31 643.62,-137.96"/>
<polygon fill="#63b8ff" stroke="#63b8ff" points="645.77,-134.55 635.42,-132.26 642.08,-140.5 645.77,-134.55"/>
</a>
</g>
</g>
<!-- Node18 -->
<g id="Node000018" class="node">
<title>Node18</title>
<g id="a_Node000018"><a xlink:href="_utilities_8h.html" target="_top" xlink:title=" ">
<polygon fill="white" stroke="#666666" points="817.71,-188 761.21,-188 761.21,-168 817.71,-168 817.71,-188"/>
<text text-anchor="middle" x="789.46" y="-174.5" font-family="Helvetica,sans-Serif" font-size="10.00">Utilities.h</text>
</a>
</g>
</g>
<!-- Node1&#45;&gt;Node18 -->
<g id="edge44_Node000001_Node000018" class="edge">
<title>Node1&#45;&gt;Node18</title>
<g id="a_edge44_Node000001_Node000018"><a xlink:title=" ">
<path fill="none" stroke="#63b8ff" d="M1062.55,-391.76C1056.81,-382.71 1047.88,-368.5 1040.46,-356 1020.65,-322.63 1025.75,-306.57 997.46,-280 948.15,-233.7 873.65,-204.59 828.47,-190.11"/>
<polygon fill="#63b8ff" stroke="#63b8ff" points="829.79,-186.54 819.2,-186.9 827.7,-193.22 829.79,-186.54"/>
</a>
</g>
</g>
<!-- Node19 -->
<g id="Node000019" class="node">
<title>Node19</title>
<g id="a_Node000019"><a xlink:title=" ">
<polygon fill="#e0e0e0" stroke="#999999" points="1087.33,-356 1049.58,-356 1049.58,-336 1087.33,-336 1087.33,-356"/>
<text text-anchor="middle" x="1068.46" y="-342.5" font-family="Helvetica,sans-Serif" font-size="10.00">SD.h</text>
</a>
</g>
</g>
<!-- Node1&#45;&gt;Node19 -->
<g id="edge50_Node000001_Node000019" class="edge">
<title>Node1&#45;&gt;Node19</title>
<g id="a_edge50_Node000001_Node000019"><a xlink:title=" ">
<path fill="none" stroke="#63b8ff" d="M1068.46,-391.59C1068.46,-384.86 1068.46,-375.53 1068.46,-367.15"/>
<polygon fill="#63b8ff" stroke="#63b8ff" points="1071.96,-367.3 1068.46,-357.3 1064.96,-367.3 1071.96,-367.3"/>
</a>
</g>
</g>
<!-- Node20 -->
<g id="Node000020" class="node">
<title>Node20</title>
<g id="a_Node000020"><a xlink:title=" ">
<polygon fill="#e0e0e0" stroke="#999999" points="1145.46,-356 1105.46,-356 1105.46,-336 1145.46,-336 1145.46,-356"/>
<text text-anchor="middle" x="1125.46" y="-342.5" font-family="Helvetica,sans-Serif" font-size="10.00">SPI.h</text>
</a>
</g>
</g>
<!-- Node1&#45;&gt;Node20 -->
<g id="edge51_Node000001_Node000020" class="edge">
<title>Node1&#45;&gt;Node20</title>
<g id="a_edge51_Node000001_Node000020"><a xlink:title=" ">
<path fill="none" stroke="#63b8ff" d="M1078.39,-391.59C1086.48,-383.93 1098.11,-372.91 1107.78,-363.75"/>
<polygon fill="#63b8ff" stroke="#63b8ff" points="1109.79,-366.72 1114.64,-357.3 1104.98,-361.63 1109.79,-366.72"/>
</a>
</g>
</g>
<!-- Node21 -->
<g id="Node000021" class="node">
<title>Node21</title>
<g id="a_Node000021"><a xlink:title=" ">
<polygon fill="#e0e0e0" stroke="#999999" points="1197.83,-356 1163.08,-356 1163.08,-336 1197.83,-336 1197.83,-356"/>
<text text-anchor="middle" x="1180.46" y="-342.5" font-family="Helvetica,sans-Serif" font-size="10.00">map</text>
</a>
</g>
</g>
<!-- Node1&#45;&gt;Node21 -->
<g id="edge52_Node000001_Node000021" class="edge">
<title>Node1&#45;&gt;Node21</title>
<g id="a_edge52_Node000001_Node000021"><a xlink:title=" ">
<path fill="none" stroke="#63b8ff" d="M1087.97,-391.59C1105.9,-382.95 1132.67,-370.04 1152.81,-360.33"/>
<polygon fill="#63b8ff" stroke="#63b8ff" points="1154.16,-363.08 1161.65,-355.59 1151.12,-356.78 1154.16,-363.08"/>
</a>
</g>
</g>
<!-- Node22 -->
<g id="Node000022" class="node">
<title>Node22</title>
<g id="a_Node000022"><a xlink:title=" ">
<polygon fill="#e0e0e0" stroke="#999999" points="1255.46,-356 1215.46,-356 1215.46,-336 1255.46,-336 1255.46,-356"/>
<text text-anchor="middle" x="1235.46" y="-342.5" font-family="Helvetica,sans-Serif" font-size="10.00">string</text>
</a>
</g>
</g>
<!-- Node1&#45;&gt;Node22 -->
<g id="edge53_Node000001_Node000022" class="edge">
<title>Node1&#45;&gt;Node22</title>
<g id="a_edge53_Node000001_Node000022"><a xlink:title=" ">
<path fill="none" stroke="#63b8ff" d="M1097.55,-391.59C1127.64,-381.86 1174.44,-366.73 1205.02,-356.84"/>
<polygon fill="#63b8ff" stroke="#63b8ff" points="1205.67,-359.99 1214.11,-353.58 1203.51,-353.33 1205.67,-359.99"/>
</a>
</g>
</g>
<!-- Node3 -->
<g id="Node000003" class="node">
<title>Node3</title>
<g id="a_Node000003"><a xlink:title=" ">
<polygon fill="#e0e0e0" stroke="#999999" points="304.08,-20 246.83,-20 246.83,0 304.08,0 304.08,-20"/>
<text text-anchor="middle" x="275.46" y="-6.5" font-family="Helvetica,sans-Serif" font-size="10.00">Arduino.h</text>
</a>
</g>
</g>
<!-- Node2&#45;&gt;Node3 -->
<g id="edge2_Node000002_Node000003" class="edge">
<title>Node2&#45;&gt;Node3</title>
<g id="a_edge2_Node000002_Node000003"><a xlink:title=" ">
<path fill="none" stroke="#63b8ff" d="M659.47,-344.24C709.16,-342.01 808.83,-333.36 885.46,-300 948.36,-272.62 986.39,-233.33 965.46,-168 938.07,-82.54 884.42,-78.13 797.46,-56 706.13,-32.76 420.68,-17.66 315.17,-12.75"/>
<polygon fill="#63b8ff" stroke="#63b8ff" points="315.53,-9.22 305.38,-12.25 315.21,-16.21 315.53,-9.22"/>
</a>
</g>
</g>
<!-- Node4 -->
<g id="Node000004" class="node">
<title>Node4</title>
<g id="a_Node000004"><a xlink:href="_leg_data_8h.html" target="_top" xlink:title="Declares a class used to store data for leg to access.">
<polygon fill="white" stroke="#666666" points="629.58,-300 569.33,-300 569.33,-280 629.58,-280 629.58,-300"/>
<text text-anchor="middle" x="599.46" y="-286.5" font-family="Helvetica,sans-Serif" font-size="10.00">LegData.h</text>
</a>
</g>
</g>
<!-- Node2&#45;&gt;Node4 -->
<g id="edge3_Node000002_Node000004" class="edge">
<title>Node2&#45;&gt;Node4</title>
<g id="a_edge3_Node000002_Node000004"><a xlink:title=" ">
<path fill="none" stroke="#63b8ff" d="M623.41,-335.59C619.58,-328.47 614.2,-318.45 609.51,-309.72"/>
<polygon fill="#63b8ff" stroke="#63b8ff" points="612.27,-308.45 604.45,-301.3 606.1,-311.76 612.27,-308.45"/>
</a>
</g>
</g>
<!-- Node2&#45;&gt;Node7 -->
<g id="edge34_Node000002_Node000007" class="edge">
<title>Node2&#45;&gt;Node7</title>
<g id="a_edge34_Node000002_Node000007"><a xlink:title=" ">
<path fill="none" stroke="#63b8ff" d="M631.13,-335.79C633.59,-326.76 637.08,-312.57 638.46,-300 644.73,-242.82 631.84,-175.21 624.33,-142.57"/>
<polygon fill="#63b8ff" stroke="#63b8ff" points="627.59,-142.13 621.86,-133.21 620.78,-143.75 627.59,-142.13"/>
</a>
</g>
</g>
<!-- Node8 -->
<g id="Node000008" class="node">
<title>Node8</title>
<g id="a_Node000008"><a xlink:title=" ">
<polygon fill="#e0e0e0" stroke="#999999" points="643.58,-76 595.33,-76 595.33,-56 643.58,-56 643.58,-76"/>
<text text-anchor="middle" x="619.46" y="-62.5" font-family="Helvetica,sans-Serif" font-size="10.00">stdint.h</text>
</a>
</g>
</g>
<!-- Node2&#45;&gt;Node8 -->
<g id="edge33_Node000002_Node000008" class="edge">
<title>Node2&#45;&gt;Node8</title>
<g id="a_edge33_Node000002_Node000008"><a xlink:title=" ">
<path fill="none" stroke="#63b8ff" d="M659.59,-342.07C749.24,-332.09 998.48,-292.84 949.46,-168 937.04,-136.39 927.4,-128.03 897.46,-112 855.98,-89.8 719.76,-75.55 654.68,-69.84"/>
<polygon fill="#63b8ff" stroke="#63b8ff" points="655.03,-66.27 644.77,-68.9 654.43,-73.24 655.03,-66.27"/>
</a>
</g>
</g>
<!-- Node9 -->
<g id="Node000009" class="node">
<title>Node9</title>
<g id="a_Node000009"><a xlink:href="_board_8h.html" target="_top" xlink:title="Defines the pins and peripherals for the board being used.">
<polygon fill="white" stroke="#666666" points="184.33,-132 134.58,-132 134.58,-112 184.33,-112 184.33,-132"/>
<text text-anchor="middle" x="159.46" y="-118.5" font-family="Helvetica,sans-Serif" font-size="10.00">Board.h</text>
</a>
</g>
</g>
<!-- Node2&#45;&gt;Node9 -->
<g id="edge35_Node000002_Node000009" class="edge">
<title>Node2&#45;&gt;Node9</title>
<g id="a_edge35_Node000002_Node000009"><a xlink:title=" ">
<path fill="none" stroke="#63b8ff" d="M597.2,-344.91C495.83,-344.22 177.41,-338.95 83.46,-300 22.31,-274.65 -24.81,-221.3 14.46,-168 39.25,-134.35 88.96,-125.12 123.21,-122.97"/>
<polygon fill="#63b8ff" stroke="#63b8ff" points="123.34,-126.42 133.17,-122.49 123.03,-119.43 123.34,-126.42"/>
</a>
</g>
</g>
<!-- Node16 -->
<g id="Node000016" class="node">
<title>Node16</title>
<g id="a_Node000016"><a xlink:href="_status_led_8h.html" target="_top" xlink:title="Class to set an RGB LED to different colors based on the state of the system.">
<polygon fill="white" stroke="#666666" points="94.71,-244 26.21,-244 26.21,-224 94.71,-224 94.71,-244"/>
<text text-anchor="middle" x="60.46" y="-230.5" font-family="Helvetica,sans-Serif" font-size="10.00">StatusLed.h</text>
</a>
</g>
</g>
<!-- Node2&#45;&gt;Node16 -->
<g id="edge36_Node000002_Node000016" class="edge">
<title>Node2&#45;&gt;Node16</title>
<g id="a_edge36_Node000002_Node000016"><a xlink:title=" ">
<path fill="none" stroke="#63b8ff" d="M597.2,-345.6C498.16,-346.99 192.85,-347.27 108.46,-300 89.96,-289.64 76.57,-268.86 68.71,-253.57"/>
<polygon fill="#63b8ff" stroke="#63b8ff" points="71.63,-252.57 64.15,-245.06 65.32,-255.59 71.63,-252.57"/>
</a>
</g>
</g>
<!-- Node17 -->
<g id="Node000017" class="node">
<title>Node17</title>
<g id="a_Node000017"><a xlink:href="_status_defs_8h.html" target="_top" xlink:title="Stores the different status messages for the system.">
<polygon fill="white" stroke="#666666" points="95.58,-188 23.33,-188 23.33,-168 95.58,-168 95.58,-188"/>
<text text-anchor="middle" x="59.46" y="-174.5" font-family="Helvetica,sans-Serif" font-size="10.00">StatusDefs.h</text>
</a>
</g>
</g>
<!-- Node2&#45;&gt;Node17 -->
<g id="edge42_Node000002_Node000017" class="edge">
<title>Node2&#45;&gt;Node17</title>
<g id="a_edge42_Node000002_Node000017"><a xlink:title=" ">
<path fill="none" stroke="#63b8ff" d="M597.23,-341.71C521.32,-332.97 321.99,-305.5 167.46,-244 135.37,-231.23 101.79,-209.5 80.77,-194.71"/>
<polygon fill="#63b8ff" stroke="#63b8ff" points="83.2,-191.44 73.04,-188.46 79.13,-197.13 83.2,-191.44"/>
</a>
</g>
</g>
<!-- Node4&#45;&gt;Node3 -->
<g id="edge4_Node000004_Node000003" class="edge">
<title>Node4&#45;&gt;Node3</title>
<g id="a_edge4_Node000004_Node000003"><a xlink:title=" ">
<path fill="none" stroke="#63b8ff" d="M568.96,-288.94C504.88,-287.06 355.73,-273.22 277.46,-188 237.5,-144.5 256.42,-66.55 268.32,-30.4"/>
<polygon fill="#63b8ff" stroke="#63b8ff" points="271.88,-31.82 271.86,-21.22 265.27,-29.52 271.88,-31.82"/>
</a>
</g>
</g>
<!-- Node5 -->
<g id="Node000005" class="node">
<title>Node5</title>
<g id="a_Node000005"><a xlink:href="_joint_data_8h.html" target="_top" xlink:title="Declares a class used to store data for joint to access.">
<polygon fill="white" stroke="#666666" points="505.83,-244 441.08,-244 441.08,-224 505.83,-224 505.83,-244"/>
<text text-anchor="middle" x="473.46" y="-230.5" font-family="Helvetica,sans-Serif" font-size="10.00">JointData.h</text>
</a>
</g>
</g>
<!-- Node4&#45;&gt;Node5 -->
<g id="edge5_Node000004_Node000005" class="edge">
<title>Node4&#45;&gt;Node5</title>
<g id="a_edge5_Node000004_Node000005"><a xlink:title=" ">
<path fill="none" stroke="#63b8ff" d="M577.51,-279.59C557.67,-271.09 528.2,-258.46 505.68,-248.81"/>
<polygon fill="#63b8ff" stroke="#63b8ff" points="507.15,-245.2 496.58,-244.48 504.39,-251.64 507.15,-245.2"/>
</a>
</g>
</g>
<!-- Node4&#45;&gt;Node7 -->
<g id="edge26_Node000004_Node000007" class="edge">
<title>Node4&#45;&gt;Node7</title>
<g id="a_edge26_Node000004_Node000007"><a xlink:title=" ">
<path fill="none" stroke="#63b8ff" d="M600.59,-279.6C603.75,-253.35 612.73,-178.84 617.06,-142.89"/>
<polygon fill="#63b8ff" stroke="#63b8ff" points="620.62,-143.64 618.34,-133.3 613.67,-142.81 620.62,-143.64"/>
</a>
</g>
</g>
<!-- Node4&#45;&gt;Node8 -->
<g id="edge32_Node000004_Node000008" class="edge">
<title>Node4&#45;&gt;Node8</title>
<g id="a_edge32_Node000004_Node000008"><a xlink:title=" ">
<path fill="none" stroke="#63b8ff" d="M604.36,-279.8C616.66,-256.13 648.5,-190.86 658.46,-132 659.94,-123.24 661.56,-120.33 658.46,-112 654.48,-101.33 646.7,-91.51 639.13,-83.79"/>
<polygon fill="#63b8ff" stroke="#63b8ff" points="641.86,-81.61 632.19,-77.28 637.06,-86.69 641.86,-81.61"/>
</a>
</g>
</g>
<!-- Node4&#45;&gt;Node9 -->
<g id="edge27_Node000004_Node000009" class="edge">
<title>Node4&#45;&gt;Node9</title>
<g id="a_edge27_Node000004_Node000009"><a xlink:title=" ">
<path fill="none" stroke="#63b8ff" d="M568.85,-287.71C477.91,-283.61 213.85,-269.6 185.46,-244 157.23,-218.55 155.6,-170.49 157.28,-143.22"/>
<polygon fill="#63b8ff" stroke="#63b8ff" points="160.85,-143.58 158.21,-133.32 153.88,-142.98 160.85,-143.58"/>
</a>
</g>
</g>
<!-- Node14 -->
<g id="Node000014" class="node">
<title>Node14</title>
<g id="a_Node000014"><a xlink:href="_inclination_detector_8h.html" target="_top" xlink:title=" ">
<polygon fill="white" stroke="#666666" points="940.71,-188 836.21,-188 836.21,-168 940.71,-168 940.71,-188"/>
<text text-anchor="middle" x="888.46" y="-174.5" font-family="Helvetica,sans-Serif" font-size="10.00">InclinationDetector.h</text>
</a>
</g>
</g>
<!-- Node4&#45;&gt;Node14 -->
<g id="edge28_Node000004_Node000014" class="edge">
<title>Node4&#45;&gt;Node14</title>
<g id="a_edge28_Node000004_Node000014"><a xlink:title=" ">
<path fill="none" stroke="#63b8ff" d="M629.91,-281.05C660.12,-272.87 707.55,-259.18 747.46,-244 787.62,-228.72 832.44,-207.26 860.54,-193.25"/>
<polygon fill="#63b8ff" stroke="#63b8ff" points="861.74,-196.06 869.1,-188.45 858.59,-189.81 861.74,-196.06"/>
</a>
</g>
</g>
<!-- Node5&#45;&gt;Node3 -->
<g id="edge6_Node000005_Node000003" class="edge">
<title>Node5&#45;&gt;Node3</title>
<g id="a_edge6_Node000005_Node000003"><a xlink:title=" ">
<path fill="none" stroke="#63b8ff" d="M440.88,-229.26C394.64,-223.24 313.43,-209.82 294.46,-188 255.65,-143.37 264.24,-66.56 271.06,-30.62"/>
<polygon fill="#63b8ff" stroke="#63b8ff" points="274.63,-31.6 273.23,-21.1 267.78,-30.18 274.63,-31.6"/>
</a>
</g>
</g>
<!-- Node6 -->
<g id="Node000006" class="node">
<title>Node6</title>
<g id="a_Node000006"><a xlink:href="_motor_data_8h.html" target="_top" xlink:title="Declares a class used to store data for motors to access.">
<polygon fill="white" stroke="#666666" points="477.08,-188 407.83,-188 407.83,-168 477.08,-168 477.08,-188"/>
<text text-anchor="middle" x="442.46" y="-174.5" font-family="Helvetica,sans-Serif" font-size="10.00">MotorData.h</text>
</a>
</g>
</g>
<!-- Node5&#45;&gt;Node6 -->
<g id="edge7_Node000005_Node000006" class="edge">
<title>Node5&#45;&gt;Node6</title>
<g id="a_edge7_Node000005_Node000006"><a xlink:title=" ">
<path fill="none" stroke="#63b8ff" d="M468.06,-223.59C463.97,-216.47 458.22,-206.45 453.2,-197.72"/>
<polygon fill="#63b8ff" stroke="#63b8ff" points="455.81,-196.23 447.8,-189.3 449.74,-199.71 455.81,-196.23"/>
</a>
</g>
</g>
<!-- Node5&#45;&gt;Node7 -->
<g id="edge22_Node000005_Node000007" class="edge">
<title>Node5&#45;&gt;Node7</title>
<g id="a_edge22_Node000005_Node000007"><a xlink:title=" ">
<path fill="none" stroke="#63b8ff" d="M485.91,-223.62C510.9,-204.79 567.45,-162.18 598.34,-138.91"/>
<polygon fill="#63b8ff" stroke="#63b8ff" points="600.16,-141.17 606.04,-132.35 595.95,-135.58 600.16,-141.17"/>
</a>
</g>
</g>
<!-- Node5&#45;&gt;Node8 -->
<g id="edge24_Node000005_Node000008" class="edge">
<title>Node5&#45;&gt;Node8</title>
<g id="a_edge24_Node000005_Node000008"><a xlink:title=" ">
<path fill="none" stroke="#63b8ff" d="M481.2,-223.67C491.77,-210.97 511.34,-187.6 528.46,-168 554.42,-138.27 585.3,-104.27 603.59,-84.28"/>
<polygon fill="#63b8ff" stroke="#63b8ff" points="605.65,-87.12 609.83,-77.38 600.49,-82.39 605.65,-87.12"/>
</a>
</g>
</g>
<!-- Node5&#45;&gt;Node9 -->
<g id="edge23_Node000005_Node000009" class="edge">
<title>Node5&#45;&gt;Node9</title>
<g id="a_edge23_Node000005_Node000009"><a xlink:title=" ">
<path fill="none" stroke="#63b8ff" d="M440.79,-229.74C398.22,-224.67 322.05,-212.79 261.46,-188 230.89,-175.5 199.39,-153.83 179.63,-138.97"/>
<polygon fill="#63b8ff" stroke="#63b8ff" points="182,-135.61 171.93,-132.29 177.74,-141.16 182,-135.61"/>
</a>
</g>
</g>
<!-- Node12 -->
<g id="Node000012" class="node">
<title>Node12</title>
<g id="a_Node000012"><a xlink:href="_controller_data_8h.html" target="_top" xlink:title="Declares a class used to store data for controllers to access.">
<polygon fill="white" stroke="#666666" points="389.33,-188 303.58,-188 303.58,-168 389.33,-168 389.33,-188"/>
<text text-anchor="middle" x="346.46" y="-174.5" font-family="Helvetica,sans-Serif" font-size="10.00">ControllerData.h</text>
</a>
</g>
</g>
<!-- Node5&#45;&gt;Node12 -->
<g id="edge17_Node000005_Node000012" class="edge">
<title>Node5&#45;&gt;Node12</title>
<g id="a_edge17_Node000005_Node000012"><a xlink:title=" ">
<path fill="none" stroke="#63b8ff" d="M451.34,-223.59C431.24,-215.05 401.37,-202.35 378.63,-192.68"/>
<polygon fill="#63b8ff" stroke="#63b8ff" points="380.32,-189.17 369.75,-188.48 377.58,-195.61 380.32,-189.17"/>
</a>
</g>
</g>
<!-- Node13 -->
<g id="Node000013" class="node">
<title>Node13</title>
<g id="a_Node000013"><a xlink:title=" ">
<polygon fill="#e0e0e0" stroke="#999999" points="754.58,-132 712.33,-132 712.33,-112 754.58,-112 754.58,-132"/>
<text text-anchor="middle" x="733.46" y="-118.5" font-family="Helvetica,sans-Serif" font-size="10.00">queue</text>
</a>
</g>
</g>
<!-- Node5&#45;&gt;Node13 -->
<g id="edge25_Node000005_Node000013" class="edge">
<title>Node5&#45;&gt;Node13</title>
<g id="a_edge25_Node000005_Node000013"><a xlink:title=" ">
<path fill="none" stroke="#63b8ff" d="M495.62,-223.62C541.91,-204.04 648.92,-158.77 702.18,-136.23"/>
<polygon fill="#63b8ff" stroke="#63b8ff" points="703.23,-139.17 711.08,-132.05 700.5,-132.72 703.23,-139.17"/>
</a>
</g>
</g>
<!-- Node6&#45;&gt;Node3 -->
<g id="edge8_Node000006_Node000003" class="edge">
<title>Node6&#45;&gt;Node3</title>
<g id="a_edge8_Node000006_Node000003"><a xlink:title=" ">
<path fill="none" stroke="#63b8ff" d="M433,-167.6C405.79,-140.55 327.02,-62.26 292.27,-27.71"/>
<polygon fill="#63b8ff" stroke="#63b8ff" points="295.37,-25.86 285.81,-21.3 290.44,-30.83 295.37,-25.86"/>
</a>
</g>
</g>
<!-- Node6&#45;&gt;Node7 -->
<g id="edge9_Node000006_Node000007" class="edge">
<title>Node6&#45;&gt;Node7</title>
<g id="a_edge9_Node000006_Node000007"><a xlink:title=" ">
<path fill="none" stroke="#63b8ff" d="M473.29,-167.59C502.57,-158.66 546.76,-145.18 578.88,-135.38"/>
<polygon fill="#63b8ff" stroke="#63b8ff" points="579.73,-138.47 588.28,-132.21 577.69,-131.78 579.73,-138.47"/>
</a>
</g>
</g>
<!-- Node6&#45;&gt;Node8 -->
<g id="edge16_Node000006_Node000008" class="edge">
<title>Node6&#45;&gt;Node8</title>
<g id="a_edge16_Node000006_Node000008"><a xlink:title=" ">
<path fill="none" stroke="#63b8ff" d="M447.17,-167.65C454.69,-153.63 470.7,-127.18 491.46,-112 519.36,-91.59 557.35,-79.79 584.68,-73.44"/>
<polygon fill="#63b8ff" stroke="#63b8ff" points="585.29,-76.67 594.32,-71.11 583.8,-69.83 585.29,-76.67"/>
</a>
</g>
</g>
<!-- Node6&#45;&gt;Node9 -->
<g id="edge11_Node000006_Node000009" class="edge">
<title>Node6&#45;&gt;Node9</title>
<g id="a_edge11_Node000006_Node000009"><a xlink:title=" ">
<path fill="none" stroke="#63b8ff" d="M407.4,-169.78C404.38,-169.17 401.36,-168.57 398.46,-168 326.5,-153.87 242.17,-138.2 195.38,-129.58"/>
<polygon fill="#63b8ff" stroke="#63b8ff" points="196.07,-125.97 185.6,-127.6 194.8,-132.85 196.07,-125.97"/>
</a>
</g>
</g>
<!-- Node7&#45;&gt;Node8 -->
<g id="edge10_Node000007_Node000008" class="edge">
<title>Node7&#45;&gt;Node8</title>
<g id="a_edge10_Node000007_Node000008"><a xlink:title=" ">
<path fill="none" stroke="#63b8ff" d="M619.46,-111.59C619.46,-104.86 619.46,-95.53 619.46,-87.15"/>
<polygon fill="#63b8ff" stroke="#63b8ff" points="622.96,-87.3 619.46,-77.3 615.96,-87.3 622.96,-87.3"/>
</a>
</g>
</g>
<!-- Node9&#45;&gt;Node3 -->
<g id="edge15_Node000009_Node000003" class="edge">
<title>Node9&#45;&gt;Node3</title>
<g id="a_edge15_Node000009_Node000003"><a xlink:title=" ">
<path fill="none" stroke="#63b8ff" d="M163.27,-111.62C169.17,-98.02 181.61,-72.65 198.46,-56 211.25,-43.35 228.29,-32.92 243.09,-25.29"/>
<polygon fill="#63b8ff" stroke="#63b8ff" points="244.47,-28.02 251.9,-20.46 241.38,-21.74 244.47,-28.02"/>
</a>
</g>
</g>
<!-- Node10 -->
<g id="Node000010" class="node">
<title>Node10</title>
<g id="a_Node000010"><a xlink:href="_config_8h.html" target="_top" xlink:title="Configuration variables for the codebase.">
<polygon fill="white" stroke="#666666" points="146.08,-76 94.83,-76 94.83,-56 146.08,-56 146.08,-76"/>
<text text-anchor="middle" x="120.46" y="-62.5" font-family="Helvetica,sans-Serif" font-size="10.00">Config.h</text>
</a>
</g>
</g>
<!-- Node9&#45;&gt;Node10 -->
<g id="edge12_Node000009_Node000010" class="edge">
<title>Node9&#45;&gt;Node10</title>
<g id="a_edge12_Node000009_Node000010"><a xlink:title=" ">
<path fill="none" stroke="#63b8ff" d="M152.66,-111.59C147.41,-104.32 139.97,-94.02 133.56,-85.15"/>
<polygon fill="#63b8ff" stroke="#63b8ff" points="135.87,-83.36 127.17,-77.3 130.19,-87.45 135.87,-83.36"/>
</a>
</g>
</g>
<!-- Node10&#45;&gt;Node3 -->
<g id="edge13_Node000010_Node000003" class="edge">
<title>Node10&#45;&gt;Node3</title>
<g id="a_edge13_Node000010_Node000003"><a xlink:title=" ">
<path fill="none" stroke="#63b8ff" d="M146.4,-55.96C171.47,-47.23 209.7,-33.91 238.05,-24.03"/>
<polygon fill="#63b8ff" stroke="#63b8ff" points="239.09,-27.03 247.39,-20.43 236.79,-20.42 239.09,-27.03"/>
</a>
</g>
</g>
<!-- Node11 -->
<g id="Node000011" class="node">
<title>Node11</title>
<g id="a_Node000011"><a xlink:href="_log_levels_8h.html" target="_top" xlink:title=" ">
<polygon fill="white" stroke="#666666" points="153.96,-20 86.96,-20 86.96,0 153.96,0 153.96,-20"/>
<text text-anchor="middle" x="120.46" y="-6.5" font-family="Helvetica,sans-Serif" font-size="10.00">LogLevels.h</text>
</a>
</g>
</g>
<!-- Node10&#45;&gt;Node11 -->
<g id="edge14_Node000010_Node000011" class="edge">
<title>Node10&#45;&gt;Node11</title>
<g id="a_edge14_Node000010_Node000011"><a xlink:title=" ">
<path fill="none" stroke="#63b8ff" d="M120.46,-55.59C120.46,-48.86 120.46,-39.53 120.46,-31.15"/>
<polygon fill="#63b8ff" stroke="#63b8ff" points="123.96,-31.3 120.46,-21.3 116.96,-31.3 123.96,-31.3"/>
</a>
</g>
</g>
<!-- Node12&#45;&gt;Node3 -->
<g id="edge19_Node000012_Node000003" class="edge">
<title>Node12&#45;&gt;Node3</title>
<g id="a_edge19_Node000012_Node000003"><a xlink:title=" ">
<path fill="none" stroke="#63b8ff" d="M342.44,-167.6C331.11,-141.12 298.78,-65.54 283.57,-29.96"/>
<polygon fill="#63b8ff" stroke="#63b8ff" points="286.58,-29.12 279.43,-21.3 280.15,-31.87 286.58,-29.12"/>
</a>
</g>
</g>
<!-- Node12&#45;&gt;Node7 -->
<g id="edge21_Node000012_Node000007" class="edge">
<title>Node12&#45;&gt;Node7</title>
<g id="a_edge21_Node000012_Node000007"><a xlink:title=" ">
<path fill="none" stroke="#63b8ff" d="M389.72,-168.44C441.68,-158.16 528.19,-141.05 578.91,-131.02"/>
<polygon fill="#63b8ff" stroke="#63b8ff" points="579.34,-134.3 588.47,-128.93 577.98,-127.44 579.34,-134.3"/>
</a>
</g>
</g>
<!-- Node12&#45;&gt;Node8 -->
<g id="edge18_Node000012_Node000008" class="edge">
<title>Node12&#45;&gt;Node8</title>
<g id="a_edge18_Node000012_Node000008"><a xlink:title=" ">
<path fill="none" stroke="#63b8ff" d="M361.62,-167.53C384.07,-153.83 427.76,-128.33 467.46,-112 506.5,-95.93 553.34,-82.96 584.6,-75.15"/>
<polygon fill="#63b8ff" stroke="#63b8ff" points="585.1,-78.38 593.97,-72.6 583.43,-71.59 585.1,-78.38"/>
</a>
</g>
</g>
<!-- Node12&#45;&gt;Node9 -->
<g id="edge20_Node000012_Node000009" class="edge">
<title>Node12&#45;&gt;Node9</title>
<g id="a_edge20_Node000012_Node000009"><a xlink:title=" ">
<path fill="none" stroke="#63b8ff" d="M313.88,-167.59C280.74,-158.02 229.51,-143.23 195.25,-133.34"/>
<polygon fill="#63b8ff" stroke="#63b8ff" points="196.35,-129.72 185.77,-130.31 194.4,-136.45 196.35,-129.72"/>
</a>
</g>
</g>
<!-- Node14&#45;&gt;Node3 -->
<g id="edge29_Node000014_Node000003" class="edge">
<title>Node14&#45;&gt;Node3</title>
<g id="a_edge29_Node000014_Node000003"><a xlink:title=" ">
<path fill="none" stroke="#63b8ff" d="M893.6,-167.56C900.28,-153.9 909.7,-128.45 897.46,-112 845.65,-42.41 795.54,-72.98 710.46,-56 566.58,-27.28 392.04,-16.28 315.12,-12.61"/>
<polygon fill="#63b8ff" stroke="#63b8ff" points="315.65,-9.08 305.5,-12.12 315.33,-16.08 315.65,-9.08"/>
</a>
</g>
</g>
<!-- Node14&#45;&gt;Node13 -->
<g id="edge30_Node000014_Node000013" class="edge">
<title>Node14&#45;&gt;Node13</title>
<g id="a_edge30_Node000014_Node000013"><a xlink:title=" ">
<path fill="none" stroke="#63b8ff" d="M861.46,-167.59C834.54,-158.22 793.22,-143.82 764.86,-133.94"/>
<polygon fill="#63b8ff" stroke="#63b8ff" points="766.27,-130.38 755.67,-130.39 763.97,-136.99 766.27,-130.38"/>
</a>
</g>
</g>
<!-- Node15 -->
<g id="Node000015" class="node">
<title>Node15</title>
<g id="a_Node000015"><a xlink:title=" ">
<polygon fill="#e0e0e0" stroke="#999999" points="888.08,-132 848.83,-132 848.83,-112 888.08,-112 888.08,-132"/>
<text text-anchor="middle" x="868.46" y="-118.5" font-family="Helvetica,sans-Serif" font-size="10.00">utility</text>
</a>
</g>
</g>
<!-- Node14&#45;&gt;Node15 -->
<g id="edge31_Node000014_Node000015" class="edge">
<title>Node14&#45;&gt;Node15</title>
<g id="a_edge31_Node000014_Node000015"><a xlink:title=" ">
<path fill="none" stroke="#63b8ff" d="M884.97,-167.59C882.42,-160.7 878.87,-151.1 875.71,-142.57"/>
<polygon fill="#63b8ff" stroke="#63b8ff" points="878.66,-141.46 871.9,-133.3 872.09,-143.89 878.66,-141.46"/>
</a>
</g>
</g>
<!-- Node16&#45;&gt;Node3 -->
<g id="edge37_Node000016_Node000003" class="edge">
<title>Node16&#45;&gt;Node3</title>
<g id="a_edge37_Node000016_Node000003"><a xlink:title=" ">
<path fill="none" stroke="#63b8ff" d="M45.78,-223.54C34.85,-215.56 20.78,-203.03 14.46,-188 -6.47,-138.26 14.23,-98.77 68.46,-56 94,-35.85 183.1,-22.06 235.71,-15.46"/>
<polygon fill="#63b8ff" stroke="#63b8ff" points="235.85,-18.85 245.35,-14.16 235,-11.9 235.85,-18.85"/>
</a>
</g>
</g>
<!-- Node16&#45;&gt;Node9 -->
<g id="edge38_Node000016_Node000009" class="edge">
<title>Node16&#45;&gt;Node9</title>
<g id="a_edge38_Node000016_Node000009"><a xlink:title=" ">
<path fill="none" stroke="#63b8ff" d="M70.1,-223.54C79.16,-214.56 92.99,-200.61 104.46,-188 118.68,-172.36 134.18,-153.91 145.08,-140.67"/>
<polygon fill="#63b8ff" stroke="#63b8ff" points="148.2,-143.39 151.83,-133.44 142.79,-138.96 148.2,-143.39"/>
</a>
</g>
</g>
<!-- Node16&#45;&gt;Node17 -->
<g id="edge39_Node000016_Node000017" class="edge">
<title>Node16&#45;&gt;Node17</title>
<g id="a_edge39_Node000016_Node000017"><a xlink:title=" ">
<path fill="none" stroke="#63b8ff" d="M60.28,-223.59C60.16,-216.86 59.99,-207.53 59.83,-199.15"/>
<polygon fill="#63b8ff" stroke="#63b8ff" points="63.31,-199.23 59.63,-189.3 56.32,-199.36 63.31,-199.23"/>
</a>
</g>
</g>
<!-- Node17&#45;&gt;Node3 -->
<g id="edge40_Node000017_Node000003" class="edge">
<title>Node17&#45;&gt;Node3</title>
<g id="a_edge40_Node000017_Node000003"><a xlink:title=" ">
<path fill="none" stroke="#63b8ff" d="M58.41,-167.6C56.47,-144.99 54.94,-87.16 85.46,-56 106.13,-34.89 186.74,-21.66 236.08,-15.37"/>
<polygon fill="#63b8ff" stroke="#63b8ff" points="236.21,-18.76 245.7,-14.06 235.35,-11.81 236.21,-18.76"/>
</a>
</g>
</g>
<!-- Node17&#45;&gt;Node9 -->
<g id="edge41_Node000017_Node000009" class="edge">
<title>Node17&#45;&gt;Node9</title>
<g id="a_edge41_Node000017_Node000009"><a xlink:title=" ">
<path fill="none" stroke="#63b8ff" d="M76.88,-167.59C92.27,-159.28 114.96,-147.03 132.66,-137.47"/>
<polygon fill="#63b8ff" stroke="#63b8ff" points="133.77,-140.31 140.9,-132.48 130.44,-134.15 133.77,-140.31"/>
</a>
</g>
</g>
<!-- Node18&#45;&gt;Node3 -->
<g id="edge46_Node000018_Node000003" class="edge">
<title>Node18&#45;&gt;Node3</title>
<g id="a_edge46_Node000018_Node000003"><a xlink:title=" ">
<path fill="none" stroke="#63b8ff" d="M791.54,-167.59C793.99,-153.96 796.35,-128.54 784.46,-112 747.27,-60.25 714.04,-72.38 652.46,-56 532.38,-24.05 384.73,-14.76 315.22,-12.07"/>
<polygon fill="#63b8ff" stroke="#63b8ff" points="315.47,-8.54 305.35,-11.68 315.22,-15.54 315.47,-8.54"/>
</a>
</g>
</g>
<!-- Node18&#45;&gt;Node7 -->
<g id="edge45_Node000018_Node000007" class="edge">
<title>Node18&#45;&gt;Node7</title>
<g id="a_edge45_Node000018_Node000007"><a xlink:title=" ">
<path fill="none" stroke="#63b8ff" d="M761,-167.96C733.15,-159.11 690.47,-145.56 659.26,-135.64"/>
<polygon fill="#63b8ff" stroke="#63b8ff" points="660.74,-132.12 650.15,-132.43 658.62,-138.79 660.74,-132.12"/>
</a>
</g>
</g>
<!-- Node18&#45;&gt;Node8 -->
<g id="edge47_Node000018_Node000008" class="edge">
<title>Node18&#45;&gt;Node8</title>
<g id="a_edge47_Node000018_Node000008"><a xlink:title=" ">
<path fill="none" stroke="#63b8ff" d="M788.27,-167.61C785.99,-153.54 779.69,-127.02 763.46,-112 733.53,-84.31 686.77,-73.66 654.7,-69.56"/>
<polygon fill="#63b8ff" stroke="#63b8ff" points="655.35,-66 645.02,-68.37 654.57,-72.96 655.35,-66"/>
</a>
</g>
</g>
<!-- Node18&#45;&gt;Node13 -->
<g id="edge49_Node000018_Node000013" class="edge">
<title>Node18&#45;&gt;Node13</title>
<g id="a_edge49_Node000018_Node000013"><a xlink:title=" ">
<path fill="none" stroke="#63b8ff" d="M779.7,-167.59C771.75,-159.93 760.33,-148.91 750.82,-139.75"/>
<polygon fill="#63b8ff" stroke="#63b8ff" points="753.73,-137.72 744.1,-133.3 748.87,-142.76 753.73,-137.72"/>
</a>
</g>
</g>
<!-- Node18&#45;&gt;Node15 -->
<g id="edge48_Node000018_Node000015" class="edge">
<title>Node18&#45;&gt;Node15</title>
<g id="a_edge48_Node000018_Node000015"><a xlink:title=" ">
<path fill="none" stroke="#63b8ff" d="M803.22,-167.59C814.93,-159.59 831.98,-147.93 845.72,-138.54"/>
<polygon fill="#63b8ff" stroke="#63b8ff" points="847.31,-141.01 853.59,-132.48 843.36,-135.23 847.31,-141.01"/>
</a>
</g>
</g>
</g>
</svg>
