<?xml version="1.0" encoding="UTF-8" standalone="no"?>
<!DOCTYPE svg PUBLIC "-//W3C//DTD SVG 1.1//EN"
 "http://www.w3.org/Graphics/SVG/1.1/DTD/svg11.dtd">
<!-- Generated by graphviz version 8.1.0 (20230707.0739)
 -->
<!-- Title: PiLogger.h Pages: 1 -->
<!--zoomable 420 -->

<svg id="main" version="1.1" xmlns="http://www.w3.org/2000/svg" xmlns:xlink="http://www.w3.org/1999/xlink" xml:space="preserve" onload="init(evt)">
<style type="text/css"><![CDATA[
.node, .edge {opacity: 0.7;}
.node.selected, .edge.selected {opacity: 1;}
.edge:hover path { stroke: red; }
.edge:hover polygon { stroke: red; fill: red; }
]]></style>

<defs>
  <circle id="rim" cx="0" cy="0" r="7"/>
  <circle id="rim2" cx="0" cy="0" r="3.5"/>
  <g id="zoomPlus">
    <use xlink:href="#rim" fill="#404040"><set attributeName="fill" to="#808080" begin="zoomplus.mouseover" end="zoomplus.mouseout"/></use>
    <path d="M-4,0h8M0,-4v8" fill="none" stroke="white" stroke-width="1.5" pointer-events="none"/>
  </g>
  <g id="zoomMin">
    <use xlink:href="#rim" fill="#404040"><set attributeName="fill" to="#808080" begin="zoomminus.mouseover" end="zoomminus.mouseout"/></use>
    <path d="M-4,0h8" fill="none" stroke="white" stroke-width="1.5" pointer-events="none"/>
  </g>
  <g id="arrowUp" transform="translate(30 24)">
    <use xlink:href="#rim"/>
    <path pointer-events="none" fill="none" stroke="white" stroke-width="1.5" d="M0,-3.0v7 M-2.5,-0.5L0,-3.0L2.5,-0.5"/>
  </g>
  <g id="arrowRight" transform="rotate(90) translate(36 -43)">
    <use xlink:href="#rim"/>
    <path pointer-events="none" fill="none" stroke="white" stroke-width="1.5" d="M0,-3.0v7 M-2.5,-0.5L0,-3.0L2.5,-0.5"/>
  </g>
  <g id="arrowDown" transform="rotate(180) translate(-30 -48)">
    <use xlink:href="#rim"/>
    <path pointer-events="none" fill="none" stroke="white" stroke-width="1.5" d="M0,-3.0v7 M-2.5,-0.5L0,-3.0L2.5,-0.5"/>
  </g>
  <g id="arrowLeft" transform="rotate(270) translate(-36 17)">
    <use xlink:href="#rim"/>
    <path pointer-events="none" fill="none" stroke="white" stroke-width="1.5" d="M0,-3.0v7 M-2.5,-0.5L0,-3.0L2.5,-0.5"/>
  </g>
  <g id="resetDef">
    <use xlink:href="#rim2" fill="#404040"><set attributeName="fill" to="#808080" begin="reset.mouseover" end="reset.mouseout"/></use>
  </g>
</defs>
<script type="application/ecmascript">
var viewWidth = 923;
var viewHeight = 420;
var sectionId = 'dynsection-0';
</script>
<script type="application/ecmascript" xlink:href="svg.min.js"/>
<svg id="graph" class="graph">
<g id="viewport">
<title>PiLogger.h</title>
<!-- Node1 -->
<g id="Node000001" class="node">
<title>Node1</title>
<g id="a_Node000001"><a xlink:title=" ">
<polygon fill="#999999" stroke="#666666" points="557.25,-412 494.75,-412 494.75,-392 557.25,-392 557.25,-412"/>
<text text-anchor="middle" x="526" y="-398.5" font-family="Helvetica,sans-Serif" font-size="10.00">PiLogger.h</text>
</a>
</g>
</g>
<!-- Node2 -->
<g id="Node000002" class="node">
<title>Node2</title>
<g id="a_Node000002"><a xlink:href="_exo_data_8h.html" target="_top" xlink:title="Declares a class used to store data for the Exo to access.">
<polygon fill="white" stroke="#666666" points="556.88,-356 495.13,-356 495.13,-336 556.88,-336 556.88,-356"/>
<text text-anchor="middle" x="526" y="-342.5" font-family="Helvetica,sans-Serif" font-size="10.00">ExoData.h</text>
</a>
</g>
</g>
<!-- Node1&#45;&gt;Node2 -->
<g id="edge1_Node000001_Node000002" class="edge">
<title>Node1&#45;&gt;Node2</title>
<g id="a_edge1_Node000001_Node000002"><a xlink:title=" ">
<path fill="none" stroke="#63b8ff" d="M526,-391.59C526,-384.86 526,-375.53 526,-367.15"/>
<polygon fill="#63b8ff" stroke="#63b8ff" points="529.5,-367.3 526,-357.3 522.5,-367.3 529.5,-367.3"/>
</a>
</g>
</g>
<!-- Node3 -->
<g id="Node000003" class="node">
<title>Node3</title>
<g id="a_Node000003"><a xlink:title=" ">
<polygon fill="#e0e0e0" stroke="#999999" points="474.63,-20 417.38,-20 417.38,0 474.63,0 474.63,-20"/>
<text text-anchor="middle" x="446" y="-6.5" font-family="Helvetica,sans-Serif" font-size="10.00">Arduino.h</text>
</a>
</g>
</g>
<!-- Node2&#45;&gt;Node3 -->
<g id="edge2_Node000002_Node000003" class="edge">
<title>Node2&#45;&gt;Node3</title>
<g id="a_edge2_Node000002_Node000003"><a xlink:title=" ">
<path fill="none" stroke="#63b8ff" d="M494.67,-345.17C381.43,-344.96 0,-336.69 0,-235 0,-235 0,-235 0,-121 0,-37.72 296.87,-17.11 406.2,-12.34"/>
<polygon fill="#63b8ff" stroke="#63b8ff" points="406.23,-15.8 416.08,-11.9 405.94,-8.81 406.23,-15.8"/>
</a>
</g>
</g>
<!-- Node4 -->
<g id="Node000004" class="node">
<title>Node4</title>
<g id="a_Node000004"><a xlink:href="_leg_data_8h.html" target="_top" xlink:title="Declares a class used to store data for leg to access.">
<polygon fill="white" stroke="#666666" points="498.13,-300 437.88,-300 437.88,-280 498.13,-280 498.13,-300"/>
<text text-anchor="middle" x="468" y="-286.5" font-family="Helvetica,sans-Serif" font-size="10.00">LegData.h</text>
</a>
</g>
</g>
<!-- Node2&#45;&gt;Node4 -->
<g id="edge3_Node000002_Node000004" class="edge">
<title>Node2&#45;&gt;Node4</title>
<g id="a_edge3_Node000002_Node000004"><a xlink:title=" ">
<path fill="none" stroke="#63b8ff" d="M515.9,-335.59C507.66,-327.93 495.83,-316.91 485.99,-307.75"/>
<polygon fill="#63b8ff" stroke="#63b8ff" points="488.69,-305.55 478.99,-301.3 483.92,-310.67 488.69,-305.55"/>
</a>
</g>
</g>
<!-- Node7 -->
<g id="Node000007" class="node">
<title>Node7</title>
<g id="a_Node000007"><a xlink:href="_parse_ini_8h.html" target="_top" xlink:title="Declares the functions needed and defines mapping between the INI keys and the exo components.">
<polygon fill="white" stroke="#666666" points="514.75,-132 455.25,-132 455.25,-112 514.75,-112 514.75,-132"/>
<text text-anchor="middle" x="485" y="-118.5" font-family="Helvetica,sans-Serif" font-size="10.00">ParseIni.h</text>
</a>
</g>
</g>
<!-- Node2&#45;&gt;Node7 -->
<g id="edge34_Node000002_Node000007" class="edge">
<title>Node2&#45;&gt;Node7</title>
<g id="a_edge34_Node000002_Node000007"><a xlink:title=" ">
<path fill="none" stroke="#63b8ff" d="M524.29,-335.74C518.17,-302.6 497.25,-189.35 488.7,-143.01"/>
<polygon fill="#63b8ff" stroke="#63b8ff" points="491.97,-142.49 486.72,-133.3 485.09,-143.77 491.97,-142.49"/>
</a>
</g>
</g>
<!-- Node8 -->
<g id="Node000008" class="node">
<title>Node8</title>
<g id="a_Node000008"><a xlink:title=" ">
<polygon fill="#e0e0e0" stroke="#999999" points="478.13,-76 429.88,-76 429.88,-56 478.13,-56 478.13,-76"/>
<text text-anchor="middle" x="454" y="-62.5" font-family="Helvetica,sans-Serif" font-size="10.00">stdint.h</text>
</a>
</g>
</g>
<!-- Node2&#45;&gt;Node8 -->
<g id="edge33_Node000002_Node000008" class="edge">
<title>Node2&#45;&gt;Node8</title>
<g id="a_edge33_Node000002_Node000008"><a xlink:title=" ">
<path fill="none" stroke="#63b8ff" d="M494.88,-343.88C427.91,-339.98 267.99,-322.49 166,-244 143.11,-226.38 140.6,-215.87 133,-188 130.66,-179.42 127.74,-175.17 133,-168 167.5,-120.97 343.48,-85.86 419.24,-72.69"/>
<polygon fill="#63b8ff" stroke="#63b8ff" points="419.39,-76.04 428.66,-70.9 418.21,-69.14 419.39,-76.04"/>
</a>
</g>
</g>
<!-- Node9 -->
<g id="Node000009" class="node">
<title>Node9</title>
<g id="a_Node000009"><a xlink:href="_board_8h.html" target="_top" xlink:title="Defines the pins and peripherals for the board being used.">
<polygon fill="white" stroke="#666666" points="729.88,-132 680.13,-132 680.13,-112 729.88,-112 729.88,-132"/>
<text text-anchor="middle" x="705" y="-118.5" font-family="Helvetica,sans-Serif" font-size="10.00">Board.h</text>
</a>
</g>
</g>
<!-- Node2&#45;&gt;Node9 -->
<g id="edge35_Node000002_Node000009" class="edge">
<title>Node2&#45;&gt;Node9</title>
<g id="a_edge35_Node000002_Node000009"><a xlink:title=" ">
<path fill="none" stroke="#63b8ff" d="M549.19,-335.61C583.37,-320.74 647.5,-288.8 687,-244 710.61,-217.22 716.14,-203.56 713,-168 712.27,-159.71 710.79,-150.65 709.31,-142.85"/>
<polygon fill="#63b8ff" stroke="#63b8ff" points="712.57,-142.34 707.14,-133.24 705.71,-143.74 712.57,-142.34"/>
</a>
</g>
</g>
<!-- Node16 -->
<g id="Node000016" class="node">
<title>Node16</title>
<g id="a_Node000016"><a xlink:href="_status_led_8h.html" target="_top" xlink:title="Class to set an RGB LED to different colors based on the state of the system.">
<polygon fill="white" stroke="#666666" points="901.25,-244 832.75,-244 832.75,-224 901.25,-224 901.25,-244"/>
<text text-anchor="middle" x="867" y="-230.5" font-family="Helvetica,sans-Serif" font-size="10.00">StatusLed.h</text>
</a>
</g>
</g>
<!-- Node2&#45;&gt;Node16 -->
<g id="edge36_Node000002_Node000016" class="edge">
<title>Node2&#45;&gt;Node16</title>
<g id="a_edge36_Node000002_Node000016"><a xlink:title=" ">
<path fill="none" stroke="#63b8ff" d="M557.09,-343.21C623.2,-338.92 775.28,-326.42 819,-300 836.78,-289.26 850.05,-269.2 858.08,-254.19"/>
<polygon fill="#63b8ff" stroke="#63b8ff" points="861.65,-255.87 862.99,-245.36 855.39,-252.75 861.65,-255.87"/>
</a>
</g>
</g>
<!-- Node17 -->
<g id="Node000017" class="node">
<title>Node17</title>
<g id="a_Node000017"><a xlink:href="_status_defs_8h.html" target="_top" xlink:title="Stores the different status messages for the system.">
<polygon fill="white" stroke="#666666" points="904.13,-188 831.88,-188 831.88,-168 904.13,-168 904.13,-188"/>
<text text-anchor="middle" x="868" y="-174.5" font-family="Helvetica,sans-Serif" font-size="10.00">StatusDefs.h</text>
</a>
</g>
</g>
<!-- Node2&#45;&gt;Node17 -->
<g id="edge42_Node000002_Node000017" class="edge">
<title>Node2&#45;&gt;Node17</title>
<g id="a_edge42_Node000002_Node000017"><a xlink:title=" ">
<path fill="none" stroke="#63b8ff" d="M557.22,-342.74C616.89,-337.91 744.41,-324.91 780,-300 811.98,-277.62 800.4,-255.08 824,-224 831.63,-213.95 841.33,-203.81 849.68,-195.7"/>
<polygon fill="#63b8ff" stroke="#63b8ff" points="851.59,-198.77 856.46,-189.36 846.79,-193.68 851.59,-198.77"/>
</a>
</g>
</g>
<!-- Node4&#45;&gt;Node3 -->
<g id="edge4_Node000004_Node000003" class="edge">
<title>Node4&#45;&gt;Node3</title>
<g id="a_edge4_Node000004_Node000003"><a xlink:title=" ">
<path fill="none" stroke="#63b8ff" d="M437.46,-287.45C370.11,-283.57 211.21,-271.67 166,-244 139.91,-228.03 135.33,-217.13 126,-188 86.58,-64.98 311.99,-25.7 406.14,-14.76"/>
<polygon fill="#63b8ff" stroke="#63b8ff" points="406.39,-18.14 415.95,-13.56 405.62,-11.18 406.39,-18.14"/>
</a>
</g>
</g>
<!-- Node5 -->
<g id="Node000005" class="node">
<title>Node5</title>
<g id="a_Node000005"><a xlink:href="_joint_data_8h.html" target="_top" xlink:title="Declares a class used to store data for joint to access.">
<polygon fill="white" stroke="#666666" points="436.38,-244 371.63,-244 371.63,-224 436.38,-224 436.38,-244"/>
<text text-anchor="middle" x="404" y="-230.5" font-family="Helvetica,sans-Serif" font-size="10.00">JointData.h</text>
</a>
</g>
</g>
<!-- Node4&#45;&gt;Node5 -->
<g id="edge5_Node000004_Node000005" class="edge">
<title>Node4&#45;&gt;Node5</title>
<g id="a_edge5_Node000004_Node000005"><a xlink:title=" ">
<path fill="none" stroke="#63b8ff" d="M456.85,-279.59C447.58,-271.77 434.18,-260.46 423.19,-251.19"/>
<polygon fill="#63b8ff" stroke="#63b8ff" points="425.92,-248.07 416.02,-244.3 421.41,-253.42 425.92,-248.07"/>
</a>
</g>
</g>
<!-- Node4&#45;&gt;Node7 -->
<g id="edge26_Node000004_Node000007" class="edge">
<title>Node4&#45;&gt;Node7</title>
<g id="a_edge26_Node000004_Node000007"><a xlink:title=" ">
<path fill="none" stroke="#63b8ff" d="M468.96,-279.6C471.65,-253.35 479.28,-178.84 482.96,-142.89"/>
<polygon fill="#63b8ff" stroke="#63b8ff" points="486.51,-143.6 484.05,-133.3 479.55,-142.89 486.51,-143.6"/>
</a>
</g>
</g>
<!-- Node4&#45;&gt;Node8 -->
<g id="edge32_Node000004_Node000008" class="edge">
<title>Node4&#45;&gt;Node8</title>
<g id="a_edge32_Node000004_Node000008"><a xlink:title=" ">
<path fill="none" stroke="#63b8ff" d="M498.53,-281.71C554.65,-266.68 665.6,-228.51 633,-168 603.73,-113.67 532.32,-86.65 489.06,-74.84"/>
<polygon fill="#63b8ff" stroke="#63b8ff" points="490,-71.21 479.45,-72.09 488.25,-77.99 490,-71.21"/>
</a>
</g>
</g>
<!-- Node4&#45;&gt;Node9 -->
<g id="edge27_Node000004_Node000009" class="edge">
<title>Node4&#45;&gt;Node9</title>
<g id="a_edge27_Node000004_Node000009"><a xlink:title=" ">
<path fill="none" stroke="#63b8ff" d="M498.49,-285.76C547.75,-279.93 641.75,-266.2 666,-244 694.8,-217.64 702.42,-169.93 704.38,-142.96"/>
<polygon fill="#63b8ff" stroke="#63b8ff" points="707.92,-143.35 704.94,-133.19 700.93,-142.99 707.92,-143.35"/>
</a>
</g>
</g>
<!-- Node14 -->
<g id="Node000014" class="node">
<title>Node14</title>
<g id="a_Node000014"><a xlink:href="_inclination_detector_8h.html" target="_top" xlink:title=" ">
<polygon fill="white" stroke="#666666" points="279.25,-244 174.75,-244 174.75,-224 279.25,-224 279.25,-244"/>
<text text-anchor="middle" x="227" y="-230.5" font-family="Helvetica,sans-Serif" font-size="10.00">InclinationDetector.h</text>
</a>
</g>
</g>
<!-- Node4&#45;&gt;Node14 -->
<g id="edge28_Node000004_Node000014" class="edge">
<title>Node4&#45;&gt;Node14</title>
<g id="a_edge28_Node000004_Node000014"><a xlink:title=" ">
<path fill="none" stroke="#63b8ff" d="M437.48,-282.16C397.79,-273.27 327.86,-257.6 279.56,-246.78"/>
<polygon fill="#63b8ff" stroke="#63b8ff" points="280.52,-243.18 270,-244.41 278.99,-250.01 280.52,-243.18"/>
</a>
</g>
</g>
<!-- Node5&#45;&gt;Node3 -->
<g id="edge6_Node000005_Node000003" class="edge">
<title>Node5&#45;&gt;Node3</title>
<g id="a_edge6_Node000005_Node000003"><a xlink:title=" ">
<path fill="none" stroke="#63b8ff" d="M371.44,-224.59C352.87,-217.94 331.13,-206.59 320,-188 315.43,-180.37 317.07,-176.39 320,-168 341.06,-107.63 396.37,-53.37 426.22,-27.31"/>
<polygon fill="#63b8ff" stroke="#63b8ff" points="427.93,-29.6 433.26,-20.44 423.38,-24.28 427.93,-29.6"/>
</a>
</g>
</g>
<!-- Node6 -->
<g id="Node000006" class="node">
<title>Node6</title>
<g id="a_Node000006"><a xlink:href="_motor_data_8h.html" target="_top" xlink:title="Declares a class used to store data for motors to access.">
<polygon fill="white" stroke="#666666" points="623.63,-188 554.38,-188 554.38,-168 623.63,-168 623.63,-188"/>
<text text-anchor="middle" x="589" y="-174.5" font-family="Helvetica,sans-Serif" font-size="10.00">MotorData.h</text>
</a>
</g>
</g>
<!-- Node5&#45;&gt;Node6 -->
<g id="edge7_Node000005_Node000006" class="edge">
<title>Node5&#45;&gt;Node6</title>
<g id="a_edge7_Node000005_Node000006"><a xlink:title=" ">
<path fill="none" stroke="#63b8ff" d="M436.22,-223.59C466.68,-214.71 512.57,-201.31 546.1,-191.52"/>
<polygon fill="#63b8ff" stroke="#63b8ff" points="546.91,-194.64 555.52,-188.48 544.94,-187.92 546.91,-194.64"/>
</a>
</g>
</g>
<!-- Node5&#45;&gt;Node7 -->
<g id="edge22_Node000005_Node000007" class="edge">
<title>Node5&#45;&gt;Node7</title>
<g id="a_edge22_Node000005_Node000007"><a xlink:title=" ">
<path fill="none" stroke="#63b8ff" d="M410.91,-223.62C424.36,-205.36 454.27,-164.73 471.7,-141.07"/>
<polygon fill="#63b8ff" stroke="#63b8ff" points="475,-143.48 478.11,-133.35 469.36,-139.33 475,-143.48"/>
</a>
</g>
</g>
<!-- Node5&#45;&gt;Node8 -->
<g id="edge24_Node000005_Node000008" class="edge">
<title>Node5&#45;&gt;Node8</title>
<g id="a_edge24_Node000005_Node000008"><a xlink:title=" ">
<path fill="none" stroke="#63b8ff" d="M375.99,-223.67C349.21,-213.01 314.61,-193.68 327,-168 338.03,-145.14 396.46,-104.41 430.1,-82.3"/>
<polygon fill="#63b8ff" stroke="#63b8ff" points="431.79,-84.73 438.26,-76.34 427.97,-78.86 431.79,-84.73"/>
</a>
</g>
</g>
<!-- Node5&#45;&gt;Node9 -->
<g id="edge23_Node000005_Node000009" class="edge">
<title>Node5&#45;&gt;Node9</title>
<g id="a_edge23_Node000005_Node000009"><a xlink:title=" ">
<path fill="none" stroke="#63b8ff" d="M436.86,-232.01C482.99,-229.43 568.51,-220.29 633,-188 656.16,-176.4 677.48,-155.28 690.81,-140.26"/>
<polygon fill="#63b8ff" stroke="#63b8ff" points="693.84,-143.11 697.69,-133.24 688.52,-138.55 693.84,-143.11"/>
</a>
</g>
</g>
<!-- Node12 -->
<g id="Node000012" class="node">
<title>Node12</title>
<g id="a_Node000012"><a xlink:href="_controller_data_8h.html" target="_top" xlink:title="Declares a class used to store data for controllers to access.">
<polygon fill="white" stroke="#666666" points="421.88,-188 336.13,-188 336.13,-168 421.88,-168 421.88,-188"/>
<text text-anchor="middle" x="379" y="-174.5" font-family="Helvetica,sans-Serif" font-size="10.00">ControllerData.h</text>
</a>
</g>
</g>
<!-- Node5&#45;&gt;Node12 -->
<g id="edge17_Node000005_Node000012" class="edge">
<title>Node5&#45;&gt;Node12</title>
<g id="a_edge17_Node000005_Node000012"><a xlink:title=" ">
<path fill="none" stroke="#63b8ff" d="M399.65,-223.59C396.38,-216.55 391.81,-206.67 387.8,-198"/>
<polygon fill="#63b8ff" stroke="#63b8ff" points="390.68,-196.9 383.3,-189.3 384.33,-199.84 390.68,-196.9"/>
</a>
</g>
</g>
<!-- Node13 -->
<g id="Node000013" class="node">
<title>Node13</title>
<g id="a_Node000013"><a xlink:title=" ">
<polygon fill="#e0e0e0" stroke="#999999" points="242.13,-188 199.88,-188 199.88,-168 242.13,-168 242.13,-188"/>
<text text-anchor="middle" x="221" y="-174.5" font-family="Helvetica,sans-Serif" font-size="10.00">queue</text>
</a>
</g>
</g>
<!-- Node5&#45;&gt;Node13 -->
<g id="edge25_Node000005_Node000013" class="edge">
<title>Node5&#45;&gt;Node13</title>
<g id="a_edge25_Node000005_Node000013"><a xlink:title=" ">
<path fill="none" stroke="#63b8ff" d="M372.12,-223.59C338.58,-213.7 286.1,-198.21 252.65,-188.34"/>
<polygon fill="#63b8ff" stroke="#63b8ff" points="254.08,-184.82 243.5,-185.34 252.1,-191.53 254.08,-184.82"/>
</a>
</g>
</g>
<!-- Node6&#45;&gt;Node3 -->
<g id="edge8_Node000006_Node000003" class="edge">
<title>Node6&#45;&gt;Node3</title>
<g id="a_edge8_Node000006_Node000003"><a xlink:title=" ">
<path fill="none" stroke="#63b8ff" d="M584.04,-167.73C576.88,-154.71 562.87,-130.52 548,-112 521.94,-79.55 486.48,-46.46 464.97,-27.37"/>
<polygon fill="#63b8ff" stroke="#63b8ff" points="467.76,-24.28 457.93,-20.32 463.14,-29.54 467.76,-24.28"/>
</a>
</g>
</g>
<!-- Node6&#45;&gt;Node7 -->
<g id="edge9_Node000006_Node000007" class="edge">
<title>Node6&#45;&gt;Node7</title>
<g id="a_edge9_Node000006_Node000007"><a xlink:title=" ">
<path fill="none" stroke="#63b8ff" d="M570.88,-167.59C554.88,-159.28 531.28,-147.03 512.87,-137.47"/>
<polygon fill="#63b8ff" stroke="#63b8ff" points="514.74,-133.98 504.26,-132.48 511.52,-140.19 514.74,-133.98"/>
</a>
</g>
</g>
<!-- Node6&#45;&gt;Node8 -->
<g id="edge16_Node000006_Node000008" class="edge">
<title>Node6&#45;&gt;Node8</title>
<g id="a_edge16_Node000006_Node000008"><a xlink:title=" ">
<path fill="none" stroke="#63b8ff" d="M580.73,-167.54C568.9,-154.29 546.12,-129.83 524,-112 510.24,-100.91 493.65,-90.15 480.07,-81.93"/>
<polygon fill="#63b8ff" stroke="#63b8ff" points="482.19,-78.52 471.81,-76.42 478.62,-84.54 482.19,-78.52"/>
</a>
</g>
</g>
<!-- Node6&#45;&gt;Node9 -->
<g id="edge11_Node000006_Node000009" class="edge">
<title>Node6&#45;&gt;Node9</title>
<g id="a_edge11_Node000006_Node000009"><a xlink:title=" ">
<path fill="none" stroke="#63b8ff" d="M609.21,-167.59C627.31,-159.17 654.11,-146.69 674.77,-137.07"/>
<polygon fill="#63b8ff" stroke="#63b8ff" points="676.05,-139.87 683.64,-132.48 673.09,-133.53 676.05,-139.87"/>
</a>
</g>
</g>
<!-- Node7&#45;&gt;Node8 -->
<g id="edge10_Node000007_Node000008" class="edge">
<title>Node7&#45;&gt;Node8</title>
<g id="a_edge10_Node000007_Node000008"><a xlink:title=" ">
<path fill="none" stroke="#63b8ff" d="M479.6,-111.59C475.51,-104.47 469.76,-94.45 464.74,-85.72"/>
<polygon fill="#63b8ff" stroke="#63b8ff" points="467.35,-84.23 459.34,-77.3 461.28,-87.71 467.35,-84.23"/>
</a>
</g>
</g>
<!-- Node9&#45;&gt;Node3 -->
<g id="edge15_Node000009_Node000003" class="edge">
<title>Node9&#45;&gt;Node3</title>
<g id="a_edge15_Node000009_Node000003"><a xlink:title=" ">
<path fill="none" stroke="#63b8ff" d="M691.95,-111.65C672.22,-97.87 633.24,-72 597,-56 560.4,-39.84 516.33,-27.46 485.28,-19.81"/>
<polygon fill="#63b8ff" stroke="#63b8ff" points="486.41,-16.24 475.87,-17.31 484.77,-23.05 486.41,-16.24"/>
</a>
</g>
</g>
<!-- Node10 -->
<g id="Node000010" class="node">
<title>Node10</title>
<g id="a_Node000010"><a xlink:href="_config_8h.html" target="_top" xlink:title="Configuration variables for the codebase.">
<polygon fill="white" stroke="#666666" points="837.63,-76 786.38,-76 786.38,-56 837.63,-56 837.63,-76"/>
<text text-anchor="middle" x="812" y="-62.5" font-family="Helvetica,sans-Serif" font-size="10.00">Config.h</text>
</a>
</g>
</g>
<!-- Node9&#45;&gt;Node10 -->
<g id="edge12_Node000009_Node000010" class="edge">
<title>Node9&#45;&gt;Node10</title>
<g id="a_edge12_Node000009_Node000010"><a xlink:title=" ">
<path fill="none" stroke="#63b8ff" d="M723.64,-111.59C740.18,-103.24 764.61,-90.92 783.59,-81.34"/>
<polygon fill="#63b8ff" stroke="#63b8ff" points="784.87,-84.11 792.22,-76.48 781.71,-77.86 784.87,-84.11"/>
</a>
</g>
</g>
<!-- Node10&#45;&gt;Node3 -->
<g id="edge13_Node000010_Node000003" class="edge">
<title>Node10&#45;&gt;Node3</title>
<g id="a_edge13_Node000010_Node000003"><a xlink:title=" ">
<path fill="none" stroke="#63b8ff" d="M786.24,-58.87C781.52,-57.84 776.62,-56.84 772,-56 669.33,-37.4 547.23,-22.43 485.68,-15.39"/>
<polygon fill="#63b8ff" stroke="#63b8ff" points="486.24,-11.81 475.91,-14.16 485.45,-18.77 486.24,-11.81"/>
</a>
</g>
</g>
<!-- Node11 -->
<g id="Node000011" class="node">
<title>Node11</title>
<g id="a_Node000011"><a xlink:href="_log_levels_8h.html" target="_top" xlink:title=" ">
<polygon fill="white" stroke="#666666" points="845.5,-20 778.5,-20 778.5,0 845.5,0 845.5,-20"/>
<text text-anchor="middle" x="812" y="-6.5" font-family="Helvetica,sans-Serif" font-size="10.00">LogLevels.h</text>
</a>
</g>
</g>
<!-- Node10&#45;&gt;Node11 -->
<g id="edge14_Node000010_Node000011" class="edge">
<title>Node10&#45;&gt;Node11</title>
<g id="a_edge14_Node000010_Node000011"><a xlink:title=" ">
<path fill="none" stroke="#63b8ff" d="M812,-55.59C812,-48.86 812,-39.53 812,-31.15"/>
<polygon fill="#63b8ff" stroke="#63b8ff" points="815.5,-31.3 812,-21.3 808.5,-31.3 815.5,-31.3"/>
</a>
</g>
</g>
<!-- Node12&#45;&gt;Node3 -->
<g id="edge19_Node000012_Node000003" class="edge">
<title>Node12&#45;&gt;Node3</title>
<g id="a_edge19_Node000012_Node000003"><a xlink:title=" ">
<path fill="none" stroke="#63b8ff" d="M381.63,-167.68C387.58,-147.1 402.93,-96.39 421,-56 424.96,-47.15 430.05,-37.72 434.6,-29.79"/>
<polygon fill="#63b8ff" stroke="#63b8ff" points="438.07,-31.8 440.14,-21.41 432.05,-28.24 438.07,-31.8"/>
</a>
</g>
</g>
<!-- Node12&#45;&gt;Node7 -->
<g id="edge21_Node000012_Node000007" class="edge">
<title>Node12&#45;&gt;Node7</title>
<g id="a_edge21_Node000012_Node000007"><a xlink:title=" ">
<path fill="none" stroke="#63b8ff" d="M397.46,-167.59C413.78,-159.28 437.83,-147.03 456.59,-137.47"/>
<polygon fill="#63b8ff" stroke="#63b8ff" points="458.07,-140.14 465.39,-132.48 454.89,-133.9 458.07,-140.14"/>
</a>
</g>
</g>
<!-- Node12&#45;&gt;Node8 -->
<g id="edge18_Node000012_Node000008" class="edge">
<title>Node12&#45;&gt;Node8</title>
<g id="a_edge18_Node000012_Node000008"><a xlink:title=" ">
<path fill="none" stroke="#63b8ff" d="M385.39,-167.62C397.79,-149.44 425.3,-109.09 441.47,-85.38"/>
<polygon fill="#63b8ff" stroke="#63b8ff" points="444.88,-87.59 447.62,-77.35 439.1,-83.65 444.88,-87.59"/>
</a>
</g>
</g>
<!-- Node12&#45;&gt;Node9 -->
<g id="edge20_Node000012_Node000009" class="edge">
<title>Node12&#45;&gt;Node9</title>
<g id="a_edge20_Node000012_Node000009"><a xlink:title=" ">
<path fill="none" stroke="#63b8ff" d="M422.29,-169.83C487.35,-159.05 609.11,-138.88 669.36,-128.9"/>
<polygon fill="#63b8ff" stroke="#63b8ff" points="669.57,-132.25 678.86,-127.16 668.43,-125.34 669.57,-132.25"/>
</a>
</g>
</g>
<!-- Node14&#45;&gt;Node3 -->
<g id="edge29_Node000014_Node000003" class="edge">
<title>Node14&#45;&gt;Node3</title>
<g id="a_edge29_Node000014_Node000003"><a xlink:title=" ">
<path fill="none" stroke="#63b8ff" d="M189.29,-223.54C156.45,-213.3 116.48,-194.76 133,-168 193.76,-69.54 337.17,-30.7 406.76,-17.26"/>
<polygon fill="#63b8ff" stroke="#63b8ff" points="407.08,-20.57 416.27,-15.31 405.8,-13.69 407.08,-20.57"/>
</a>
</g>
</g>
<!-- Node14&#45;&gt;Node13 -->
<g id="edge30_Node000014_Node000013" class="edge">
<title>Node14&#45;&gt;Node13</title>
<g id="a_edge30_Node000014_Node000013"><a xlink:title=" ">
<path fill="none" stroke="#63b8ff" d="M225.95,-223.59C225.21,-216.86 224.17,-207.53 223.24,-199.15"/>
<polygon fill="#63b8ff" stroke="#63b8ff" points="226.62,-198.85 222.03,-189.3 219.66,-199.62 226.62,-198.85"/>
</a>
</g>
</g>
<!-- Node15 -->
<g id="Node000015" class="node">
<title>Node15</title>
<g id="a_Node000015"><a xlink:title=" ">
<polygon fill="#e0e0e0" stroke="#999999" points="181.63,-188 142.38,-188 142.38,-168 181.63,-168 181.63,-188"/>
<text text-anchor="middle" x="162" y="-174.5" font-family="Helvetica,sans-Serif" font-size="10.00">utility</text>
</a>
</g>
</g>
<!-- Node14&#45;&gt;Node15 -->
<g id="edge31_Node000014_Node000015" class="edge">
<title>Node14&#45;&gt;Node15</title>
<g id="a_edge31_Node000014_Node000015"><a xlink:title=" ">
<path fill="none" stroke="#63b8ff" d="M215.68,-223.59C206.26,-215.77 192.65,-204.46 181.49,-195.19"/>
<polygon fill="#63b8ff" stroke="#63b8ff" points="184.12,-192 174.19,-188.3 179.65,-197.38 184.12,-192"/>
</a>
</g>
</g>
<!-- Node16&#45;&gt;Node3 -->
<g id="edge37_Node000016_Node000003" class="edge">
<title>Node16&#45;&gt;Node3</title>
<g id="a_edge37_Node000016_Node000003"><a xlink:title=" ">
<path fill="none" stroke="#63b8ff" d="M881.68,-223.54C892.6,-215.56 906.68,-203.03 913,-188 916.45,-179.81 915.34,-176.58 913,-168 897.8,-112.26 895.49,-87.42 847,-56 788.01,-17.77 575.11,-11.83 485.84,-11.04"/>
<polygon fill="#63b8ff" stroke="#63b8ff" points="486.1,-7.54 476.08,-10.97 486.06,-14.54 486.1,-7.54"/>
</a>
</g>
</g>
<!-- Node16&#45;&gt;Node9 -->
<g id="edge38_Node000016_Node000009" class="edge">
<title>Node16&#45;&gt;Node9</title>
<g id="a_edge38_Node000016_Node000009"><a xlink:title=" ">
<path fill="none" stroke="#63b8ff" d="M855.18,-223.56C838.69,-210.55 807.71,-186.6 780,-168 764.12,-157.34 745.71,-146.28 731.11,-137.79"/>
<polygon fill="#63b8ff" stroke="#63b8ff" points="733.1,-134.32 722.68,-132.36 729.6,-140.39 733.1,-134.32"/>
</a>
</g>
</g>
<!-- Node16&#45;&gt;Node17 -->
<g id="edge39_Node000016_Node000017" class="edge">
<title>Node16&#45;&gt;Node17</title>
<g id="a_edge39_Node000016_Node000017"><a xlink:title=" ">
<path fill="none" stroke="#63b8ff" d="M867.17,-223.59C867.3,-216.86 867.47,-207.53 867.63,-199.15"/>
<polygon fill="#63b8ff" stroke="#63b8ff" points="871.14,-199.36 867.83,-189.3 864.14,-199.23 871.14,-199.36"/>
</a>
</g>
</g>
<!-- Node17&#45;&gt;Node3 -->
<g id="edge40_Node000017_Node000003" class="edge">
<title>Node17&#45;&gt;Node3</title>
<g id="a_edge40_Node000017_Node000003"><a xlink:title=" ">
<path fill="none" stroke="#63b8ff" d="M852.62,-167.64C815.45,-145.39 717.31,-88.73 629,-56 580.83,-38.15 522.92,-25.27 485.33,-17.98"/>
<polygon fill="#63b8ff" stroke="#63b8ff" points="486.29,-14.41 475.82,-15.98 484.99,-21.28 486.29,-14.41"/>
</a>
</g>
</g>
<!-- Node17&#45;&gt;Node9 -->
<g id="edge41_Node000017_Node000009" class="edge">
<title>Node17&#45;&gt;Node9</title>
<g id="a_edge41_Node000017_Node000009"><a xlink:title=" ">
<path fill="none" stroke="#63b8ff" d="M839.61,-167.59C812.07,-158.47 770.2,-144.6 740.48,-134.75"/>
<polygon fill="#63b8ff" stroke="#63b8ff" points="741.72,-131.15 731.13,-131.32 739.52,-137.79 741.72,-131.15"/>
</a>
</g>
</g>
</g>
</svg>

<g id="navigator" transform="translate(0 0)" fill="#404254">
  <rect fill="#f2f5e9" fill-opacity="0.5" stroke="#606060" stroke-width=".5" x="0" y="0" width="60" height="60"/>
  <use id="zoomplus" xlink:href="#zoomPlus" x="17" y="9" onmousedown="handleZoom(evt,'in')"/>
  <use id="zoomminus" xlink:href="#zoomMin" x="42" y="9" onmousedown="handleZoom(evt,'out')"/>
  <use id="reset" xlink:href="#resetDef" x="30" y="36" onmousedown="handleReset()"/>
   <use id="arrowup" xlink:href="#arrowUp" x="0" y="0" onmousedown="handlePan(0,-1)"/>
  <use id="arrowright" xlink:href="#arrowRight" x="0" y="0" onmousedown="handlePan(1,0)"/>
  <use id="arrowdown" xlink:href="#arrowDown" x="0" y="0" onmousedown="handlePan(0,1)"/>
  <use id="arrowleft" xlink:href="#arrowLeft" x="0" y="0" onmousedown="handlePan(-1,0)"/>
</g>
<svg viewBox="0 0 15 15" width="100%" height="30px" preserveAspectRatio="xMaxYMin meet">
 <g id="arrow_out" transform="scale(0.3 0.3)">
  <a xlink:href="_pi_logger_8h__incl_org.svg" target="_base">
   <rect id="button" ry="5" rx="5" y="6" x="6" height="38" width="38"
        fill="#f2f5e9" fill-opacity="0.5" stroke="#606060" stroke-width="1.0"/>
   <path id="arrow"
     d="M 11.500037,31.436501 C 11.940474,20.09759 22.043105,11.32322 32.158766,21.979434 L 37.068811,17.246167 C 37.068811,17.246167 37.088388,32 37.088388,32 L 22.160133,31.978069 C 22.160133,31.978069 26.997745,27.140456 26.997745,27.140456 C 18.528582,18.264221 13.291696,25.230495 11.500037,31.436501 z"
     style="fill:#404040;"/>
  </a>
 </g>
</svg>

<style type='text/css'>
<![CDATA[
[data-mouse-over-selected='false'] { opacity: 0.7; }
[data-mouse-over-selected='true']  { opacity: 1.0; }
]]>
</style>
<script type="application/ecmascript"><![CDATA[
document.addEventListener('DOMContentLoaded', (event) => {
  highlightEdges();
  highlightAdjacentNodes();
});
]]></script>
</svg>
