<?xml version="1.0" encoding="UTF-8" standalone="no"?>
<!DOCTYPE svg PUBLIC "-//W3C//DTD SVG 1.1//EN"
 "http://www.w3.org/Graphics/SVG/1.1/DTD/svg11.dtd">
<!-- Generated by graphviz version 8.1.0 (20230707.0739)
 -->
<!-- Title: RealTimeI2C.cpp Pages: 1 -->
<svg width="471pt" height="196pt"
 viewBox="0.00 0.00 471.38 196.00" xmlns="http://www.w3.org/2000/svg" xmlns:xlink="http://www.w3.org/1999/xlink">

<svg id="main" version="1.1" xmlns="http://www.w3.org/2000/svg" xmlns:xlink="http://www.w3.org/1999/xlink" xml:space="preserve" onload="init(evt)">
<style type="text/css"><![CDATA[
.node, .edge {opacity: 0.7;}
.node.selected, .edge.selected {opacity: 1;}
.edge:hover path { stroke: red; }
.edge:hover polygon { stroke: red; fill: red; }
]]></style>
<script type="application/ecmascript" xlink:href="svg.min.js"/>
<svg id="graph" class="graph">
<g id="graph0" class="graph" transform="scale(1 1) rotate(0) translate(4 192)">
<title>RealTimeI2C.cpp</title>
<!-- Node1 -->
<g id="Node000001" class="node">
<title>Node1</title>
<g id="a_Node000001"><a xlink:title=" ">
<polygon fill="#999999" stroke="#666666" points="363.88,-188 274.38,-188 274.38,-168 363.88,-168 363.88,-188"/>
<text text-anchor="middle" x="319.13" y="-174.5" font-family="Helvetica,sans-Serif" font-size="10.00">RealTimeI2C.cpp</text>
</a>
</g>
</g>
<!-- Node2 -->
<g id="Node000002" class="node">
<title>Node2</title>
<g id="a_Node000002"><a xlink:href="_real_time_i2_c_8h.html" target="_top" xlink:title=" ">
<polygon fill="white" stroke="#666666" points="290.63,-132 211.63,-132 211.63,-112 290.63,-112 290.63,-132"/>
<text text-anchor="middle" x="251.13" y="-118.5" font-family="Helvetica,sans-Serif" font-size="10.00">RealTimeI2C.h</text>
</a>
</g>
</g>
<!-- Node1&#45;&gt;Node2 -->
<g id="edge1_Node000001_Node000002" class="edge">
<title>Node1&#45;&gt;Node2</title>
<g id="a_edge1_Node000001_Node000002"><a xlink:title=" ">
<path fill="none" stroke="#63b8ff" d="M307.28,-167.59C297.33,-159.7 282.91,-148.24 271.17,-138.92"/>
<polygon fill="#63b8ff" stroke="#63b8ff" points="273.84,-135.78 263.83,-132.3 269.49,-141.26 273.84,-135.78"/>
</a>
</g>
</g>
<!-- Node4 -->
<g id="Node000004" class="node">
<title>Node4</title>
<g id="a_Node000004"><a xlink:href="_config_8h.html" target="_top" xlink:title="Configuration variables for the codebase.">
<polygon fill="white" stroke="#666666" points="345.75,-76 294.5,-76 294.5,-56 345.75,-56 345.75,-76"/>
<text text-anchor="middle" x="320.13" y="-62.5" font-family="Helvetica,sans-Serif" font-size="10.00">Config.h</text>
</a>
</g>
</g>
<!-- Node1&#45;&gt;Node4 -->
<g id="edge3_Node000001_Node000004" class="edge">
<title>Node1&#45;&gt;Node4</title>
<g id="a_edge3_Node000001_Node000004"><a xlink:title=" ">
<path fill="none" stroke="#63b8ff" d="M319.21,-167.62C319.37,-149.92 319.72,-111.24 319.94,-87.32"/>
<polygon fill="#63b8ff" stroke="#63b8ff" points="323.45,-87.39 320.04,-77.35 316.45,-87.32 323.45,-87.39"/>
</a>
</g>
</g>
<!-- Node6 -->
<g id="Node000006" class="node">
<title>Node6</title>
<g id="a_Node000006"><a xlink:href="_utilities_8h.html" target="_top" xlink:title=" ">
<polygon fill="white" stroke="#666666" points="171.38,-132 114.88,-132 114.88,-112 171.38,-112 171.38,-132"/>
<text text-anchor="middle" x="143.13" y="-118.5" font-family="Helvetica,sans-Serif" font-size="10.00">Utilities.h</text>
</a>
</g>
</g>
<!-- Node1&#45;&gt;Node6 -->
<g id="edge6_Node000001_Node000006" class="edge">
<title>Node1&#45;&gt;Node6</title>
<g id="a_edge6_Node000001_Node000006"><a xlink:title=" ">
<path fill="none" stroke="#63b8ff" d="M288.47,-167.59C258.91,-158.53 214.08,-144.77 182.02,-134.93"/>
<polygon fill="#63b8ff" stroke="#63b8ff" points="183.27,-131.35 172.68,-131.76 181.22,-138.04 183.27,-131.35"/>
</a>
</g>
</g>
<!-- Node11 -->
<g id="Node000011" class="node">
<title>Node11</title>
<g id="a_Node000011"><a xlink:href="_logger_8h.html" target="_top" xlink:title=" ">
<polygon fill="white" stroke="#666666" points="400.88,-132 347.38,-132 347.38,-112 400.88,-112 400.88,-132"/>
<text text-anchor="middle" x="374.13" y="-118.5" font-family="Helvetica,sans-Serif" font-size="10.00">Logger.h</text>
</a>
</g>
</g>
<!-- Node1&#45;&gt;Node11 -->
<g id="edge13_Node000001_Node000011" class="edge">
<title>Node1&#45;&gt;Node11</title>
<g id="a_edge13_Node000001_Node000011"><a xlink:title=" ">
<path fill="none" stroke="#63b8ff" d="M328.71,-167.59C336.51,-159.93 347.73,-148.91 357.07,-139.75"/>
<polygon fill="#63b8ff" stroke="#63b8ff" points="358.97,-142.8 363.65,-133.3 354.07,-137.81 358.97,-142.8"/>
</a>
</g>
</g>
<!-- Node12 -->
<g id="Node000012" class="node">
<title>Node12</title>
<g id="a_Node000012"><a xlink:title=" ">
<polygon fill="#e0e0e0" stroke="#999999" points="463.38,-132 418.88,-132 418.88,-112 463.38,-112 463.38,-132"/>
<text text-anchor="middle" x="441.13" y="-118.5" font-family="Helvetica,sans-Serif" font-size="10.00">Wire.h</text>
</a>
</g>
</g>
<!-- Node1&#45;&gt;Node12 -->
<g id="edge17_Node000001_Node000012" class="edge">
<title>Node1&#45;&gt;Node12</title>
<g id="a_edge17_Node000001_Node000012"><a xlink:title=" ">
<path fill="none" stroke="#63b8ff" d="M340.38,-167.59C359.59,-159.09 388.12,-146.46 409.92,-136.81"/>
<polygon fill="#63b8ff" stroke="#63b8ff" points="410.98,-139.73 418.71,-132.48 408.15,-133.33 410.98,-139.73"/>
</a>
</g>
</g>
<!-- Node3 -->
<g id="Node000003" class="node">
<title>Node3</title>
<g id="a_Node000003"><a xlink:title=" ">
<polygon fill="#e0e0e0" stroke="#999999" points="310.75,-20 253.5,-20 253.5,0 310.75,0 310.75,-20"/>
<text text-anchor="middle" x="282.13" y="-6.5" font-family="Helvetica,sans-Serif" font-size="10.00">Arduino.h</text>
</a>
</g>
</g>
<!-- Node2&#45;&gt;Node3 -->
<g id="edge2_Node000002_Node000003" class="edge">
<title>Node2&#45;&gt;Node3</title>
<g id="a_edge2_Node000002_Node000003"><a xlink:title=" ">
<path fill="none" stroke="#63b8ff" d="M253.77,-111.62C258.8,-93.76 269.86,-54.53 276.58,-30.67"/>
<polygon fill="#63b8ff" stroke="#63b8ff" points="280.14,-31.93 279.49,-21.35 273.41,-30.03 280.14,-31.93"/>
</a>
</g>
</g>
<!-- Node4&#45;&gt;Node3 -->
<g id="edge4_Node000004_Node000003" class="edge">
<title>Node4&#45;&gt;Node3</title>
<g id="a_edge4_Node000004_Node000003"><a xlink:title=" ">
<path fill="none" stroke="#63b8ff" d="M313.51,-55.59C308.38,-48.32 301.14,-38.02 294.9,-29.15"/>
<polygon fill="#63b8ff" stroke="#63b8ff" points="297.29,-27.46 288.67,-21.3 291.56,-31.49 297.29,-27.46"/>
</a>
</g>
</g>
<!-- Node5 -->
<g id="Node000005" class="node">
<title>Node5</title>
<g id="a_Node000005"><a xlink:href="_log_levels_8h.html" target="_top" xlink:title=" ">
<polygon fill="white" stroke="#666666" points="428.63,-20 361.63,-20 361.63,0 428.63,0 428.63,-20"/>
<text text-anchor="middle" x="395.13" y="-6.5" font-family="Helvetica,sans-Serif" font-size="10.00">LogLevels.h</text>
</a>
</g>
</g>
<!-- Node4&#45;&gt;Node5 -->
<g id="edge5_Node000004_Node000005" class="edge">
<title>Node4&#45;&gt;Node5</title>
<g id="a_edge5_Node000004_Node000005"><a xlink:title=" ">
<path fill="none" stroke="#63b8ff" d="M333.19,-55.59C344.2,-47.67 360.19,-36.16 373.16,-26.82"/>
<polygon fill="#63b8ff" stroke="#63b8ff" points="374.89,-29.16 380.96,-20.48 370.8,-23.48 374.89,-29.16"/>
</a>
</g>
</g>
<!-- Node6&#45;&gt;Node3 -->
<g id="edge9_Node000006_Node000003" class="edge">
<title>Node6&#45;&gt;Node3</title>
<g id="a_edge9_Node000006_Node000003"><a xlink:title=" ">
<path fill="none" stroke="#63b8ff" d="M158.19,-111.52C171.83,-102.76 192.29,-89.14 209.13,-76 229.03,-60.46 250.46,-41.03 264.91,-27.47"/>
<polygon fill="#63b8ff" stroke="#63b8ff" points="266.69,-30.66 271.55,-21.25 261.88,-25.58 266.69,-30.66"/>
</a>
</g>
</g>
<!-- Node7 -->
<g id="Node000007" class="node">
<title>Node7</title>
<g id="a_Node000007"><a xlink:href="_parse_ini_8h.html" target="_top" xlink:title="Declares the functions needed and defines mapping between the INI keys and the exo components.">
<polygon fill="white" stroke="#666666" points="82.88,-76 23.37,-76 23.37,-56 82.88,-56 82.88,-76"/>
<text text-anchor="middle" x="53.13" y="-62.5" font-family="Helvetica,sans-Serif" font-size="10.00">ParseIni.h</text>
</a>
</g>
</g>
<!-- Node6&#45;&gt;Node7 -->
<g id="edge7_Node000006_Node000007" class="edge">
<title>Node6&#45;&gt;Node7</title>
<g id="a_edge7_Node000006_Node000007"><a xlink:title=" ">
<path fill="none" stroke="#63b8ff" d="M127.45,-111.59C113.85,-103.44 93.93,-91.48 78.13,-82"/>
<polygon fill="#63b8ff" stroke="#63b8ff" points="80.3,-78.62 69.92,-76.48 76.7,-84.63 80.3,-78.62"/>
</a>
</g>
</g>
<!-- Node8 -->
<g id="Node000008" class="node">
<title>Node8</title>
<g id="a_Node000008"><a xlink:title=" ">
<polygon fill="#e0e0e0" stroke="#999999" points="48.25,-20 0,-20 0,0 48.25,0 48.25,-20"/>
<text text-anchor="middle" x="24.13" y="-6.5" font-family="Helvetica,sans-Serif" font-size="10.00">stdint.h</text>
</a>
</g>
</g>
<!-- Node6&#45;&gt;Node8 -->
<g id="edge10_Node000006_Node000008" class="edge">
<title>Node6&#45;&gt;Node8</title>
<g id="a_edge10_Node000006_Node000008"><a xlink:title=" ">
<path fill="none" stroke="#63b8ff" d="M114.4,-120.08C83.83,-117.38 36.79,-107.91 14.13,-76 4.73,-62.78 8.84,-44.22 14.36,-30.32"/>
<polygon fill="#63b8ff" stroke="#63b8ff" points="17.93,-31.91 18.86,-21.35 11.55,-29.03 17.93,-31.91"/>
</a>
</g>
</g>
<!-- Node9 -->
<g id="Node000009" class="node">
<title>Node9</title>
<g id="a_Node000009"><a xlink:title=" ">
<polygon fill="#e0e0e0" stroke="#999999" points="139.75,-76 100.5,-76 100.5,-56 139.75,-56 139.75,-76"/>
<text text-anchor="middle" x="120.13" y="-62.5" font-family="Helvetica,sans-Serif" font-size="10.00">utility</text>
</a>
</g>
</g>
<!-- Node6&#45;&gt;Node9 -->
<g id="edge11_Node000006_Node000009" class="edge">
<title>Node6&#45;&gt;Node9</title>
<g id="a_edge11_Node000006_Node000009"><a xlink:title=" ">
<path fill="none" stroke="#63b8ff" d="M139.12,-111.59C136.15,-104.63 132,-94.89 128.34,-86.29"/>
<polygon fill="#63b8ff" stroke="#63b8ff" points="131.22,-85.13 124.09,-77.3 124.78,-87.87 131.22,-85.13"/>
</a>
</g>
</g>
<!-- Node10 -->
<g id="Node000010" class="node">
<title>Node10</title>
<g id="a_Node000010"><a xlink:title=" ">
<polygon fill="#e0e0e0" stroke="#999999" points="200.25,-76 158,-76 158,-56 200.25,-56 200.25,-76"/>
<text text-anchor="middle" x="179.13" y="-62.5" font-family="Helvetica,sans-Serif" font-size="10.00">queue</text>
</a>
</g>
</g>
<!-- Node6&#45;&gt;Node10 -->
<g id="edge12_Node000006_Node000010" class="edge">
<title>Node6&#45;&gt;Node10</title>
<g id="a_edge12_Node000006_Node000010"><a xlink:title=" ">
<path fill="none" stroke="#63b8ff" d="M149.4,-111.59C154.2,-104.39 160.97,-94.23 166.84,-85.43"/>
<polygon fill="#63b8ff" stroke="#63b8ff" points="170.29,-87.56 172.93,-77.3 164.47,-83.68 170.29,-87.56"/>
</a>
</g>
</g>
<!-- Node7&#45;&gt;Node8 -->
<g id="edge8_Node000007_Node000008" class="edge">
<title>Node7&#45;&gt;Node8</title>
<g id="a_edge8_Node000007_Node000008"><a xlink:title=" ">
<path fill="none" stroke="#63b8ff" d="M48.07,-55.59C44.25,-48.47 38.87,-38.45 34.18,-29.72"/>
<polygon fill="#63b8ff" stroke="#63b8ff" points="36.93,-28.45 29.12,-21.3 30.77,-31.76 36.93,-28.45"/>
</a>
</g>
</g>
<!-- Node11&#45;&gt;Node3 -->
<g id="edge14_Node000011_Node000003" class="edge">
<title>Node11&#45;&gt;Node3</title>
<g id="a_edge14_Node000011_Node000003"><a xlink:title=" ">
<path fill="none" stroke="#63b8ff" d="M373.49,-111.66C372.14,-98.13 367.96,-72.83 355.13,-56 345.1,-42.85 330.04,-32.64 316.19,-25.3"/>
<polygon fill="#63b8ff" stroke="#63b8ff" points="317.93,-21.76 307.42,-20.45 314.82,-28.03 317.93,-21.76"/>
</a>
</g>
</g>
<!-- Node11&#45;&gt;Node4 -->
<g id="edge16_Node000011_Node000004" class="edge">
<title>Node11&#45;&gt;Node4</title>
<g id="a_edge16_Node000011_Node000004"><a xlink:title=" ">
<path fill="none" stroke="#63b8ff" d="M364.72,-111.59C357.13,-104.01 346.26,-93.13 337.15,-84.02"/>
<polygon fill="#63b8ff" stroke="#63b8ff" points="339.97,-81.89 330.42,-77.3 335.02,-86.84 339.97,-81.89"/>
</a>
</g>
</g>
<!-- Node11&#45;&gt;Node5 -->
<g id="edge15_Node000011_Node000005" class="edge">
<title>Node11&#45;&gt;Node5</title>
<g id="a_edge15_Node000011_Node000005"><a xlink:title=" ">
<path fill="none" stroke="#63b8ff" d="M377.56,-111.83C380.78,-102.83 385.5,-88.66 388.13,-76 391.2,-61.18 392.97,-44.16 393.96,-31.25"/>
<polygon fill="#63b8ff" stroke="#63b8ff" points="397.52,-31.56 394.69,-21.35 390.53,-31.09 397.52,-31.56"/>
</a>
</g>
</g>
</g>
</svg>
</svg>

<style type='text/css'>
<![CDATA[
[data-mouse-over-selected='false'] { opacity: 0.7; }
[data-mouse-over-selected='true']  { opacity: 1.0; }
]]>
</style>
<script type="application/ecmascript"><![CDATA[
document.addEventListener('DOMContentLoaded', (event) => {
  highlightEdges();
  highlightAdjacentNodes();
});
]]></script>
</svg>
