<?xml version="1.0" encoding="UTF-8" standalone="no"?>
<!DOCTYPE svg PUBLIC "-//W3C//DTD SVG 1.1//EN"
 "http://www.w3.org/Graphics/SVG/1.1/DTD/svg11.dtd">
<!-- Generated by graphviz version 8.1.0 (20230707.0739)
 -->
<!-- Title: RealTimeI2C.h Pages: 1 -->
<svg width="378pt" height="252pt"
 viewBox="0.00 0.00 377.50 252.00" xmlns="http://www.w3.org/2000/svg" xmlns:xlink="http://www.w3.org/1999/xlink">
<g id="graph0" class="graph" transform="scale(1 1) rotate(0) translate(4 248)">
<title>RealTimeI2C.h</title>
<!-- Node1 -->
<g id="Node000001" class="node">
<title>Node1</title>
<g id="a_Node000001"><a xlink:title=" ">
<polygon fill="#999999" stroke="#666666" points="167.5,-244 88.5,-244 88.5,-224 167.5,-224 167.5,-244"/>
<text text-anchor="middle" x="128" y="-230.5" font-family="Helvetica,sans-Serif" font-size="10.00">RealTimeI2C.h</text>
</a>
</g>
</g>
<!-- Node2 -->
<g id="Node000002" class="node">
<title>Node2</title>
<g id="a_Node000002"><a xlink:href="_real_time_i2_c_8cpp.html" target="_top" xlink:title=" ">
<polygon fill="white" stroke="#666666" points="117.75,-188 28.25,-188 28.25,-168 117.75,-168 117.75,-188"/>
<text text-anchor="middle" x="73" y="-174.5" font-family="Helvetica,sans-Serif" font-size="10.00">RealTimeI2C.cpp</text>
</a>
</g>
</g>
<!-- Node1&#45;&gt;Node2 -->
<g id="edge1_Node000001_Node000002" class="edge">
<title>Node1&#45;&gt;Node2</title>
<g id="a_edge1_Node000001_Node000002"><a xlink:title=" ">
<path fill="none" stroke="#63b8ff" d="M110.81,-216.13C101.46,-206.94 90.25,-195.93 82.47,-188.3"/>
<polygon fill="#63b8ff" stroke="#63b8ff" points="107.83,-218.09 117.42,-222.59 112.74,-213.09 107.83,-218.09"/>
</a>
</g>
</g>
<!-- Node3 -->
<g id="Node000003" class="node">
<title>Node3</title>
<g id="a_Node000003"><a xlink:href="uart__commands_8h.html" target="_top" xlink:title=" ">
<polygon fill="white" stroke="#666666" points="230,-188 136,-188 136,-168 230,-168 230,-188"/>
<text text-anchor="middle" x="183" y="-174.5" font-family="Helvetica,sans-Serif" font-size="10.00">uart_commands.h</text>
</a>
</g>
</g>
<!-- Node1&#45;&gt;Node3 -->
<g id="edge2_Node000001_Node000003" class="edge">
<title>Node1&#45;&gt;Node3</title>
<g id="a_edge2_Node000001_Node000003"><a xlink:title=" ">
<path fill="none" stroke="#63b8ff" d="M145.19,-216.13C154.54,-206.94 165.75,-195.93 173.53,-188.3"/>
<polygon fill="#63b8ff" stroke="#63b8ff" points="143.26,-213.09 138.58,-222.59 148.17,-218.09 143.26,-213.09"/>
</a>
</g>
</g>
<!-- Node4 -->
<g id="Node000004" class="node">
<title>Node4</title>
<g id="a_Node000004"><a xlink:href="_coms_m_c_u_8cpp.html" target="_top" xlink:title=" ">
<polygon fill="white" stroke="#666666" points="82,-132 0,-132 0,-112 82,-112 82,-132"/>
<text text-anchor="middle" x="41" y="-118.5" font-family="Helvetica,sans-Serif" font-size="10.00">ComsMCU.cpp</text>
</a>
</g>
</g>
<!-- Node3&#45;&gt;Node4 -->
<g id="edge3_Node000003_Node000004" class="edge">
<title>Node3&#45;&gt;Node4</title>
<g id="a_edge3_Node000003_Node000004"><a xlink:title=" ">
<path fill="none" stroke="#63b8ff" d="M148.27,-163.79C122.78,-154.1 88.76,-141.16 65.93,-132.48"/>
<polygon fill="#63b8ff" stroke="#63b8ff" points="146.67,-167.31 157.27,-167.59 149.16,-160.77 146.67,-167.31"/>
</a>
</g>
</g>
<!-- Node5 -->
<g id="Node000005" class="node">
<title>Node5</title>
<g id="a_Node000005"><a xlink:href="_error_reporter_8h.html" target="_top" xlink:title="Singleton class to report errors to the other microcontroller.">
<polygon fill="white" stroke="#666666" points="182,-132 100,-132 100,-112 182,-112 182,-132"/>
<text text-anchor="middle" x="141" y="-118.5" font-family="Helvetica,sans-Serif" font-size="10.00">ErrorReporter.h</text>
</a>
</g>
</g>
<!-- Node3&#45;&gt;Node5 -->
<g id="edge4_Node000003_Node000005" class="edge">
<title>Node3&#45;&gt;Node5</title>
<g id="a_edge4_Node000003_Node000005"><a xlink:title=" ">
<path fill="none" stroke="#63b8ff" d="M169,-159C162.05,-150.06 153.93,-139.62 148.23,-132.3"/>
<polygon fill="#63b8ff" stroke="#63b8ff" points="166.78,-160.85 175.68,-166.59 172.31,-156.55 166.78,-160.85"/>
</a>
</g>
</g>
<!-- Node8 -->
<g id="Node000008" class="node">
<title>Node8</title>
<g id="a_Node000008"><a xlink:href="_exo_8cpp.html" target="_top" xlink:title=" ">
<polygon fill="white" stroke="#666666" points="252,-132 200,-132 200,-112 252,-112 252,-132"/>
<text text-anchor="middle" x="226" y="-118.5" font-family="Helvetica,sans-Serif" font-size="10.00">Exo.cpp</text>
</a>
</g>
</g>
<!-- Node3&#45;&gt;Node8 -->
<g id="edge7_Node000003_Node000008" class="edge">
<title>Node3&#45;&gt;Node8</title>
<g id="a_edge7_Node000003_Node000008"><a xlink:title=" ">
<path fill="none" stroke="#63b8ff" d="M197.33,-159C204.45,-150.06 212.76,-139.62 218.6,-132.3"/>
<polygon fill="#63b8ff" stroke="#63b8ff" points="193.98,-156.59 190.49,-166.59 199.46,-160.95 193.98,-156.59"/>
</a>
</g>
</g>
<!-- Node9 -->
<g id="Node000009" class="node">
<title>Node9</title>
<g id="a_Node000009"><a xlink:href="ble__commands_8h.html" target="_top" xlink:title="This file declares the BLE commands, and the functions that should be called when they are received.">
<polygon fill="white" stroke="#666666" points="360.13,-132 269.88,-132 269.88,-112 360.13,-112 360.13,-132"/>
<text text-anchor="middle" x="315" y="-118.5" font-family="Helvetica,sans-Serif" font-size="10.00">ble_commands.h</text>
</a>
</g>
</g>
<!-- Node3&#45;&gt;Node9 -->
<g id="edge8_Node000003_Node000009" class="edge">
<title>Node3&#45;&gt;Node9</title>
<g id="a_edge8_Node000003_Node000009"><a xlink:title=" ">
<path fill="none" stroke="#63b8ff" d="M215.92,-163.53C239.54,-153.87 270.79,-141.08 291.83,-132.48"/>
<polygon fill="#63b8ff" stroke="#63b8ff" points="214.92,-160.57 206.99,-167.59 217.57,-167.05 214.92,-160.57"/>
</a>
</g>
</g>
<!-- Node6 -->
<g id="Node000006" class="node">
<title>Node6</title>
<g id="a_Node000006"><a xlink:href="_joint_8cpp.html" target="_top" xlink:title=" ">
<polygon fill="white" stroke="#666666" points="148.5,-76 93.5,-76 93.5,-56 148.5,-56 148.5,-76"/>
<text text-anchor="middle" x="121" y="-62.5" font-family="Helvetica,sans-Serif" font-size="10.00">Joint.cpp</text>
</a>
</g>
</g>
<!-- Node5&#45;&gt;Node6 -->
<g id="edge5_Node000005_Node000006" class="edge">
<title>Node5&#45;&gt;Node6</title>
<g id="a_edge5_Node000005_Node000006"><a xlink:title=" ">
<path fill="none" stroke="#63b8ff" d="M133.7,-101.29C130.54,-92.75 126.99,-83.16 124.44,-76.3"/>
<polygon fill="#63b8ff" stroke="#63b8ff" points="130.76,-102.43 137.52,-110.59 137.33,-100 130.76,-102.43"/>
</a>
</g>
</g>
<!-- Node7 -->
<g id="Node000007" class="node">
<title>Node7</title>
<g id="a_Node000007"><a xlink:href="_motor_8cpp.html" target="_top" xlink:title=" ">
<polygon fill="white" stroke="#666666" points="225.75,-76 166.25,-76 166.25,-56 225.75,-56 225.75,-76"/>
<text text-anchor="middle" x="196" y="-62.5" font-family="Helvetica,sans-Serif" font-size="10.00">Motor.cpp</text>
</a>
</g>
</g>
<!-- Node5&#45;&gt;Node7 -->
<g id="edge6_Node000005_Node000007" class="edge">
<title>Node5&#45;&gt;Node7</title>
<g id="a_edge6_Node000005_Node000007"><a xlink:title=" ">
<path fill="none" stroke="#63b8ff" d="M158.19,-104.13C167.54,-94.94 178.75,-83.93 186.53,-76.3"/>
<polygon fill="#63b8ff" stroke="#63b8ff" points="156.26,-101.09 151.58,-110.59 161.17,-106.09 156.26,-101.09"/>
</a>
</g>
</g>
<!-- Node10 -->
<g id="Node000010" class="node">
<title>Node10</title>
<g id="a_Node000010"><a xlink:href="_ble_parser_8cpp.html" target="_top" xlink:title=" ">
<polygon fill="white" stroke="#666666" points="343.75,-20 266.25,-20 266.25,0 343.75,0 343.75,-20"/>
<text text-anchor="middle" x="305" y="-6.5" font-family="Helvetica,sans-Serif" font-size="10.00">BleParser.cpp</text>
</a>
</g>
</g>
<!-- Node9&#45;&gt;Node10 -->
<g id="edge9_Node000009_Node000010" class="edge">
<title>Node9&#45;&gt;Node10</title>
<g id="a_edge9_Node000009_Node000010"><a xlink:title=" ">
<path fill="none" stroke="#63b8ff" d="M303.48,-102.28C299.3,-94.46 295.1,-85.09 293,-76 288.45,-56.32 295.83,-32.98 300.88,-20.31"/>
<polygon fill="#63b8ff" stroke="#63b8ff" points="300.94,-103.89 308.95,-110.82 307.01,-100.4 300.94,-103.89"/>
</a>
</g>
</g>
<!-- Node11 -->
<g id="Node000011" class="node">
<title>Node11</title>
<g id="a_Node000011"><a xlink:href="_ble_parser_8h.html" target="_top" xlink:title="This class is used to serialize and deserialize the BLE data. The application uses Nordic&#39;s UART serv...">
<polygon fill="white" stroke="#666666" points="369.5,-76 302.5,-76 302.5,-56 369.5,-56 369.5,-76"/>
<text text-anchor="middle" x="336" y="-62.5" font-family="Helvetica,sans-Serif" font-size="10.00">BleParser.h</text>
</a>
</g>
</g>
<!-- Node9&#45;&gt;Node11 -->
<g id="edge10_Node000009_Node000011" class="edge">
<title>Node9&#45;&gt;Node11</title>
<g id="a_edge10_Node000009_Node000011"><a xlink:title=" ">
<path fill="none" stroke="#63b8ff" d="M322.55,-101.58C325.9,-92.97 329.69,-83.24 332.38,-76.3"/>
<polygon fill="#63b8ff" stroke="#63b8ff" points="319.02,-100.01 318.66,-110.59 325.54,-102.54 319.02,-100.01"/>
</a>
</g>
</g>
<!-- Node11&#45;&gt;Node10 -->
<g id="edge11_Node000011_Node000010" class="edge">
<title>Node11&#45;&gt;Node10</title>
<g id="a_edge11_Node000011_Node000010"><a xlink:title=" ">
<path fill="none" stroke="#63b8ff" d="M325.18,-46.15C320.16,-37.4 314.41,-27.39 310.34,-20.3"/>
<polygon fill="#63b8ff" stroke="#63b8ff" points="322.59,-47.66 330.6,-54.59 328.66,-44.18 322.59,-47.66"/>
</a>
</g>
</g>
</g>
</svg>
