<?xml version="1.0" encoding="UTF-8" standalone="no"?>
<!DOCTYPE svg PUBLIC "-//W3C//DTD SVG 1.1//EN"
 "http://www.w3.org/Graphics/SVG/1.1/DTD/svg11.dtd">
<!-- Generated by graphviz version 8.1.0 (20230707.0739)
 -->
<!-- Title: StatusDefs.cpp Pages: 1 -->
<svg width="180pt" height="252pt"
 viewBox="0.00 0.00 179.50 252.00" xmlns="http://www.w3.org/2000/svg" xmlns:xlink="http://www.w3.org/1999/xlink">
<g id="graph0" class="graph" transform="scale(1 1) rotate(0) translate(4 248)">
<title>StatusDefs.cpp</title>
<!-- Node1 -->
<g id="Node000001" class="node">
<title>Node1</title>
<g id="a_Node000001"><a xlink:title=" ">
<polygon fill="#999999" stroke="#666666" points="111.38,-244 28.63,-244 28.63,-224 111.38,-224 111.38,-244"/>
<text text-anchor="middle" x="70" y="-230.5" font-family="Helvetica,sans-Serif" font-size="10.00">StatusDefs.cpp</text>
</a>
</g>
</g>
<!-- Node2 -->
<g id="Node000002" class="node">
<title>Node2</title>
<g id="a_Node000002"><a xlink:href="_status_defs_8h.html" target="_top" xlink:title="Stores the different status messages for the system.">
<polygon fill="white" stroke="#666666" points="74.13,-188 1.88,-188 1.88,-168 74.13,-168 74.13,-188"/>
<text text-anchor="middle" x="38" y="-174.5" font-family="Helvetica,sans-Serif" font-size="10.00">StatusDefs.h</text>
</a>
</g>
</g>
<!-- Node1&#45;&gt;Node2 -->
<g id="edge1_Node000001_Node000002" class="edge">
<title>Node1&#45;&gt;Node2</title>
<g id="a_edge1_Node000001_Node000002"><a xlink:title=" ">
<path fill="none" stroke="#63b8ff" d="M64.43,-223.59C60.21,-216.47 54.27,-206.45 49.09,-197.72"/>
<polygon fill="#63b8ff" stroke="#63b8ff" points="51.62,-196.12 43.51,-189.3 45.6,-199.69 51.62,-196.12"/>
</a>
</g>
</g>
<!-- Node7 -->
<g id="Node000007" class="node">
<title>Node7</title>
<g id="a_Node000007"><a xlink:href="_logger_8h.html" target="_top" xlink:title=" ">
<polygon fill="white" stroke="#666666" points="140.75,-132 87.25,-132 87.25,-112 140.75,-112 140.75,-132"/>
<text text-anchor="middle" x="114" y="-118.5" font-family="Helvetica,sans-Serif" font-size="10.00">Logger.h</text>
</a>
</g>
</g>
<!-- Node1&#45;&gt;Node7 -->
<g id="edge8_Node000001_Node000007" class="edge">
<title>Node1&#45;&gt;Node7</title>
<g id="a_edge8_Node000001_Node000007"><a xlink:title=" ">
<path fill="none" stroke="#63b8ff" d="M73.75,-223.62C80.93,-205.68 96.73,-166.17 106.26,-142.35"/>
<polygon fill="#63b8ff" stroke="#63b8ff" points="109.8,-143.94 110.26,-133.35 103.3,-141.34 109.8,-143.94"/>
</a>
</g>
</g>
<!-- Node3 -->
<g id="Node000003" class="node">
<title>Node3</title>
<g id="a_Node000003"><a xlink:title=" ">
<polygon fill="#e0e0e0" stroke="#999999" points="67.63,-20 10.38,-20 10.38,0 67.63,0 67.63,-20"/>
<text text-anchor="middle" x="39" y="-6.5" font-family="Helvetica,sans-Serif" font-size="10.00">Arduino.h</text>
</a>
</g>
</g>
<!-- Node2&#45;&gt;Node3 -->
<g id="edge2_Node000002_Node000003" class="edge">
<title>Node2&#45;&gt;Node3</title>
<g id="a_edge2_Node000002_Node000003"><a xlink:title=" ">
<path fill="none" stroke="#63b8ff" d="M28.07,-167.74C19.83,-159.33 8.73,-146.11 4,-132 -8.04,-96.08 12.24,-53.36 26.62,-29.5"/>
<polygon fill="#63b8ff" stroke="#63b8ff" points="29.92,-31.82 32.31,-21.5 24,-28.08 29.92,-31.82"/>
</a>
</g>
</g>
<!-- Node4 -->
<g id="Node000004" class="node">
<title>Node4</title>
<g id="a_Node000004"><a xlink:href="_board_8h.html" target="_top" xlink:title="Defines the pins and peripherals for the board being used.">
<polygon fill="white" stroke="#666666" points="62.88,-132 13.13,-132 13.13,-112 62.88,-112 62.88,-132"/>
<text text-anchor="middle" x="38" y="-118.5" font-family="Helvetica,sans-Serif" font-size="10.00">Board.h</text>
</a>
</g>
</g>
<!-- Node2&#45;&gt;Node4 -->
<g id="edge3_Node000002_Node000004" class="edge">
<title>Node2&#45;&gt;Node4</title>
<g id="a_edge3_Node000002_Node000004"><a xlink:title=" ">
<path fill="none" stroke="#63b8ff" d="M38,-167.59C38,-160.86 38,-151.53 38,-143.15"/>
<polygon fill="#63b8ff" stroke="#63b8ff" points="41.5,-143.3 38,-133.3 34.5,-143.3 41.5,-143.3"/>
</a>
</g>
</g>
<!-- Node4&#45;&gt;Node3 -->
<g id="edge7_Node000004_Node000003" class="edge">
<title>Node4&#45;&gt;Node3</title>
<g id="a_edge7_Node000004_Node000003"><a xlink:title=" ">
<path fill="none" stroke="#63b8ff" d="M35.86,-111.75C33.21,-99.16 29.25,-75.9 31,-56 31.73,-47.71 33.21,-38.65 34.7,-30.85"/>
<polygon fill="#63b8ff" stroke="#63b8ff" points="38.29,-31.74 36.87,-21.24 31.43,-30.34 38.29,-31.74"/>
</a>
</g>
</g>
<!-- Node5 -->
<g id="Node000005" class="node">
<title>Node5</title>
<g id="a_Node000005"><a xlink:href="_config_8h.html" target="_top" xlink:title="Configuration variables for the codebase.">
<polygon fill="white" stroke="#666666" points="91.63,-76 40.38,-76 40.38,-56 91.63,-56 91.63,-76"/>
<text text-anchor="middle" x="66" y="-62.5" font-family="Helvetica,sans-Serif" font-size="10.00">Config.h</text>
</a>
</g>
</g>
<!-- Node4&#45;&gt;Node5 -->
<g id="edge4_Node000004_Node000005" class="edge">
<title>Node4&#45;&gt;Node5</title>
<g id="a_edge4_Node000004_Node000005"><a xlink:title=" ">
<path fill="none" stroke="#63b8ff" d="M42.88,-111.59C46.53,-104.55 51.65,-94.67 56.15,-86"/>
<polygon fill="#63b8ff" stroke="#63b8ff" points="59.68,-87.79 61.18,-77.3 53.47,-84.56 59.68,-87.79"/>
</a>
</g>
</g>
<!-- Node5&#45;&gt;Node3 -->
<g id="edge5_Node000005_Node000003" class="edge">
<title>Node5&#45;&gt;Node3</title>
<g id="a_edge5_Node000005_Node000003"><a xlink:title=" ">
<path fill="none" stroke="#63b8ff" d="M61.3,-55.59C57.78,-48.55 52.84,-38.67 48.5,-30"/>
<polygon fill="#63b8ff" stroke="#63b8ff" points="51.25,-28.68 43.65,-21.3 44.99,-31.81 51.25,-28.68"/>
</a>
</g>
</g>
<!-- Node6 -->
<g id="Node000006" class="node">
<title>Node6</title>
<g id="a_Node000006"><a xlink:href="_log_levels_8h.html" target="_top" xlink:title=" ">
<polygon fill="white" stroke="#666666" points="171.5,-20 104.5,-20 104.5,0 171.5,0 171.5,-20"/>
<text text-anchor="middle" x="138" y="-6.5" font-family="Helvetica,sans-Serif" font-size="10.00">LogLevels.h</text>
</a>
</g>
</g>
<!-- Node5&#45;&gt;Node6 -->
<g id="edge6_Node000005_Node000006" class="edge">
<title>Node5&#45;&gt;Node6</title>
<g id="a_edge6_Node000005_Node000006"><a xlink:title=" ">
<path fill="none" stroke="#63b8ff" d="M78.54,-55.59C89.18,-47.62 104.65,-36.02 117.14,-26.64"/>
<polygon fill="#63b8ff" stroke="#63b8ff" points="118.7,-29.1 124.6,-20.3 114.5,-23.5 118.7,-29.1"/>
</a>
</g>
</g>
<!-- Node7&#45;&gt;Node3 -->
<g id="edge9_Node000007_Node000003" class="edge">
<title>Node7&#45;&gt;Node3</title>
<g id="a_edge9_Node000007_Node000003"><a xlink:title=" ">
<path fill="none" stroke="#63b8ff" d="M114.2,-111.83C114.07,-98.49 112.18,-73.44 101,-56 92.96,-43.45 80.08,-33.27 68.14,-25.78"/>
<polygon fill="#63b8ff" stroke="#63b8ff" points="70.27,-22.39 59.87,-20.37 66.74,-28.44 70.27,-22.39"/>
</a>
</g>
</g>
<!-- Node7&#45;&gt;Node5 -->
<g id="edge11_Node000007_Node000005" class="edge">
<title>Node7&#45;&gt;Node5</title>
<g id="a_edge11_Node000007_Node000005"><a xlink:title=" ">
<path fill="none" stroke="#63b8ff" d="M105.64,-111.59C98.96,-104.08 89.43,-93.35 81.38,-84.3"/>
<polygon fill="#63b8ff" stroke="#63b8ff" points="84.53,-82.45 75.27,-77.3 79.29,-87.1 84.53,-82.45"/>
</a>
</g>
</g>
<!-- Node7&#45;&gt;Node6 -->
<g id="edge10_Node000007_Node000006" class="edge">
<title>Node7&#45;&gt;Node6</title>
<g id="a_edge10_Node000007_Node000006"><a xlink:title=" ">
<path fill="none" stroke="#63b8ff" d="M119.32,-111.7C124.1,-102.83 130.83,-88.96 134,-76 137.58,-61.35 138.52,-44.32 138.59,-31.37"/>
<polygon fill="#63b8ff" stroke="#63b8ff" points="142.08,-31.37 138.46,-21.41 135.08,-31.46 142.08,-31.37"/>
</a>
</g>
</g>
</g>
</svg>
