<?xml version="1.0" encoding="UTF-8" standalone="no"?>
<!DOCTYPE svg PUBLIC "-//W3C//DTD SVG 1.1//EN"
 "http://www.w3.org/Graphics/SVG/1.1/DTD/svg11.dtd">
<!-- Generated by graphviz version 8.1.0 (20230707.0739)
 -->
<!-- Title: StatusLed.h Pages: 1 -->
<svg width="490pt" height="364pt"
 viewBox="0.00 0.00 489.89 364.00" xmlns="http://www.w3.org/2000/svg" xmlns:xlink="http://www.w3.org/1999/xlink">

<svg id="main" version="1.1" xmlns="http://www.w3.org/2000/svg" xmlns:xlink="http://www.w3.org/1999/xlink" xml:space="preserve" onload="init(evt)">
<style type="text/css"><![CDATA[
.node, .edge {opacity: 0.7;}
.node.selected, .edge.selected {opacity: 1;}
.edge:hover path { stroke: red; }
.edge:hover polygon { stroke: red; fill: red; }
]]></style>
<script type="application/ecmascript" xlink:href="svg.min.js"/>
<svg id="graph" class="graph">
<g id="graph0" class="graph" transform="scale(1 1) rotate(0) translate(4 360)">
<title>StatusLed.h</title>
<!-- Node1 -->
<g id="Node000001" class="node">
<title>Node1</title>
<g id="a_Node000001"><a xlink:title="Class to set an RGB LED to different colors based on the state of the system.">
<polygon fill="#999999" stroke="#666666" points="111.64,-356 43.14,-356 43.14,-336 111.64,-336 111.64,-356"/>
<text text-anchor="middle" x="77.39" y="-342.5" font-family="Helvetica,sans-Serif" font-size="10.00">StatusLed.h</text>
</a>
</g>
</g>
<!-- Node2 -->
<g id="Node000002" class="node">
<title>Node2</title>
<g id="a_Node000002"><a xlink:href="_coms_m_c_u_8cpp.html" target="_top" xlink:title=" ">
<polygon fill="white" stroke="#666666" points="89.39,-132 7.39,-132 7.39,-112 89.39,-112 89.39,-132"/>
<text text-anchor="middle" x="48.39" y="-118.5" font-family="Helvetica,sans-Serif" font-size="10.00">ComsMCU.cpp</text>
</a>
</g>
</g>
<!-- Node1&#45;&gt;Node2 -->
<g id="edge1_Node000001_Node000002" class="edge">
<title>Node1&#45;&gt;Node2</title>
<g id="a_edge1_Node000001_Node000002"><a xlink:title=" ">
<path fill="none" stroke="#63b8ff" d="M59.56,-328.04C41.4,-309.43 14.41,-277.68 3.39,-244 -10.41,-201.82 24.05,-152.51 40.38,-132.32"/>
<polygon fill="#63b8ff" stroke="#63b8ff" points="56.63,-330.06 66.19,-334.63 61.56,-325.1 56.63,-330.06"/>
</a>
</g>
</g>
<!-- Node3 -->
<g id="Node000003" class="node">
<title>Node3</title>
<g id="a_Node000003"><a xlink:href="_exo_data_8h.html" target="_top" xlink:title="Declares a class used to store data for the Exo to access.">
<polygon fill="white" stroke="#666666" points="202.26,-300 140.51,-300 140.51,-280 202.26,-280 202.26,-300"/>
<text text-anchor="middle" x="171.39" y="-286.5" font-family="Helvetica,sans-Serif" font-size="10.00">ExoData.h</text>
</a>
</g>
</g>
<!-- Node1&#45;&gt;Node3 -->
<g id="edge2_Node000001_Node000003" class="edge">
<title>Node1&#45;&gt;Node3</title>
<g id="a_edge2_Node000001_Node000003"><a xlink:title=" ">
<path fill="none" stroke="#63b8ff" d="M102.89,-330.35C119.44,-320.84 140.51,-308.74 154.89,-300.48"/>
<polygon fill="#63b8ff" stroke="#63b8ff" points="101.69,-327.58 94.76,-335.59 105.18,-333.65 101.69,-327.58"/>
</a>
</g>
</g>
<!-- Node4 -->
<g id="Node000004" class="node">
<title>Node4</title>
<g id="a_Node000004"><a xlink:href="_coms_m_c_u_8h.html" target="_top" xlink:title="The top of the composite structure for the communication microcontroller. This class manages the blue...">
<polygon fill="white" stroke="#666666" points="84.14,-244 12.64,-244 12.64,-224 84.14,-224 84.14,-244"/>
<text text-anchor="middle" x="48.39" y="-230.5" font-family="Helvetica,sans-Serif" font-size="10.00">ComsMCU.h</text>
</a>
</g>
</g>
<!-- Node3&#45;&gt;Node4 -->
<g id="edge3_Node000003_Node000004" class="edge">
<title>Node3&#45;&gt;Node4</title>
<g id="a_edge3_Node000003_Node000004"><a xlink:title=" ">
<path fill="none" stroke="#63b8ff" d="M140.12,-275.27C118.18,-265.64 89.4,-253.01 69.98,-244.48"/>
<polygon fill="#63b8ff" stroke="#63b8ff" points="138.4,-278.78 148.96,-279.59 141.21,-272.37 138.4,-278.78"/>
</a>
</g>
</g>
<!-- Node5 -->
<g id="Node000005" class="node">
<title>Node5</title>
<g id="a_Node000005"><a xlink:href="_exo_data_8cpp.html" target="_top" xlink:title=" ">
<polygon fill="white" stroke="#666666" points="148.51,-188 76.26,-188 76.26,-168 148.51,-168 148.51,-188"/>
<text text-anchor="middle" x="112.39" y="-174.5" font-family="Helvetica,sans-Serif" font-size="10.00">ExoData.cpp</text>
</a>
</g>
</g>
<!-- Node3&#45;&gt;Node5 -->
<g id="edge5_Node000003_Node000005" class="edge">
<title>Node3&#45;&gt;Node5</title>
<g id="a_edge5_Node000003_Node000005"><a xlink:title=" ">
<path fill="none" stroke="#63b8ff" d="M152.96,-271.95C145.37,-264.07 137.04,-254.21 131.39,-244 121.25,-225.69 116.03,-201.42 113.78,-188.33"/>
<polygon fill="#63b8ff" stroke="#63b8ff" points="150.18,-274.1 159.76,-278.64 155.1,-269.12 150.18,-274.1"/>
</a>
</g>
</g>
<!-- Node6 -->
<g id="Node000006" class="node">
<title>Node6</title>
<g id="a_Node000006"><a xlink:href="_params_from_s_d_8h.html" target="_top" xlink:title="Declares the functions to pull controller parameters from the SD card and defines the mapping to the ...">
<polygon fill="white" stroke="#666666" points="314.39,-244 220.39,-244 220.39,-224 314.39,-224 314.39,-244"/>
<text text-anchor="middle" x="267.39" y="-230.5" font-family="Helvetica,sans-Serif" font-size="10.00">ParamsFromSD.h</text>
</a>
</g>
</g>
<!-- Node3&#45;&gt;Node6 -->
<g id="edge6_Node000003_Node000006" class="edge">
<title>Node3&#45;&gt;Node6</title>
<g id="a_edge6_Node000003_Node000006"><a xlink:title=" ">
<path fill="none" stroke="#63b8ff" d="M197.44,-274.35C214.33,-264.84 235.86,-252.74 250.54,-244.48"/>
<polygon fill="#63b8ff" stroke="#63b8ff" points="196.11,-271.64 189.11,-279.59 199.54,-277.74 196.11,-271.64"/>
</a>
</g>
</g>
<!-- Node8 -->
<g id="Node000008" class="node">
<title>Node8</title>
<g id="a_Node000008"><a xlink:href="ble__commands_8h.html" target="_top" xlink:title="This file declares the BLE commands, and the functions that should be called when they are received.">
<polygon fill="white" stroke="#666666" points="469.51,-132 379.26,-132 379.26,-112 469.51,-112 469.51,-132"/>
<text text-anchor="middle" x="424.39" y="-118.5" font-family="Helvetica,sans-Serif" font-size="10.00">ble_commands.h</text>
</a>
</g>
</g>
<!-- Node3&#45;&gt;Node8 -->
<g id="edge21_Node000003_Node000008" class="edge">
<title>Node3&#45;&gt;Node8</title>
<g id="a_edge21_Node000003_Node000008"><a xlink:title=" ">
<path fill="none" stroke="#63b8ff" d="M212.99,-282.88C248.49,-276.54 300.18,-264.59 341.39,-244 377.34,-226.04 391.63,-222.41 412.39,-188 423.06,-170.31 424.65,-145.36 424.66,-132.11"/>
<polygon fill="#63b8ff" stroke="#63b8ff" points="212.79,-279.54 203.52,-284.68 213.97,-286.44 212.79,-279.54"/>
</a>
</g>
</g>
<!-- Node11 -->
<g id="Node000011" class="node">
<title>Node11</title>
<g id="a_Node000011"><a xlink:href="uart__commands_8h.html" target="_top" xlink:title=" ">
<polygon fill="white" stroke="#666666" points="382.39,-188 288.39,-188 288.39,-168 382.39,-168 382.39,-188"/>
<text text-anchor="middle" x="335.39" y="-174.5" font-family="Helvetica,sans-Serif" font-size="10.00">uart_commands.h</text>
</a>
</g>
</g>
<!-- Node3&#45;&gt;Node11 -->
<g id="edge22_Node000003_Node000011" class="edge">
<title>Node3&#45;&gt;Node11</title>
<g id="a_edge22_Node000003_Node000011"><a xlink:title=" ">
<path fill="none" stroke="#63b8ff" d="M213.31,-288.07C247.9,-284.95 295.65,-274.83 323.39,-244 337.36,-228.48 337.53,-202.17 336.46,-188.26"/>
<polygon fill="#63b8ff" stroke="#63b8ff" points="213.3,-284.63 203.58,-288.85 213.81,-291.62 213.3,-284.63"/>
</a>
</g>
</g>
<!-- Node16 -->
<g id="Node000016" class="node">
<title>Node16</title>
<g id="a_Node000016"><a xlink:href="_pi_logger_8h.html" target="_top" xlink:title=" ">
<polygon fill="white" stroke="#666666" points="202.64,-244 140.14,-244 140.14,-224 202.64,-224 202.64,-244"/>
<text text-anchor="middle" x="171.39" y="-230.5" font-family="Helvetica,sans-Serif" font-size="10.00">PiLogger.h</text>
</a>
</g>
</g>
<!-- Node3&#45;&gt;Node16 -->
<g id="edge20_Node000003_Node000016" class="edge">
<title>Node3&#45;&gt;Node16</title>
<g id="a_edge20_Node000003_Node000016"><a xlink:title=" ">
<path fill="none" stroke="#63b8ff" d="M171.39,-268.71C171.39,-260.32 171.39,-251.01 171.39,-244.3"/>
<polygon fill="#63b8ff" stroke="#63b8ff" points="167.89,-268.59 171.39,-278.59 174.89,-268.59 167.89,-268.59"/>
</a>
</g>
</g>
<!-- Node4&#45;&gt;Node2 -->
<g id="edge4_Node000004_Node000002" class="edge">
<title>Node4&#45;&gt;Node2</title>
<g id="a_edge4_Node000004_Node000002"><a xlink:title=" ">
<path fill="none" stroke="#63b8ff" d="M48.39,-212.64C48.39,-188.72 48.39,-150.03 48.39,-132.35"/>
<polygon fill="#63b8ff" stroke="#63b8ff" points="44.89,-212.62 48.39,-222.62 51.89,-212.62 44.89,-212.62"/>
</a>
</g>
</g>
<!-- Node6&#45;&gt;Node5 -->
<g id="edge7_Node000006_Node000005" class="edge">
<title>Node6&#45;&gt;Node5</title>
<g id="a_edge7_Node000006_Node000005"><a xlink:title=" ">
<path fill="none" stroke="#63b8ff" d="M230.21,-220.05C202.31,-210.33 164.74,-197.24 139.6,-188.48"/>
<polygon fill="#63b8ff" stroke="#63b8ff" points="228.79,-223.61 239.39,-223.59 231.1,-217 228.79,-223.61"/>
</a>
</g>
</g>
<!-- Node7 -->
<g id="Node000007" class="node">
<title>Node7</title>
<g id="a_Node000007"><a xlink:href="_params_from_s_d_8cpp.html" target="_top" xlink:title=" ">
<polygon fill="white" stroke="#666666" points="270.64,-188 166.14,-188 166.14,-168 270.64,-168 270.64,-188"/>
<text text-anchor="middle" x="218.39" y="-174.5" font-family="Helvetica,sans-Serif" font-size="10.00">ParamsFromSD.cpp</text>
</a>
</g>
</g>
<!-- Node6&#45;&gt;Node7 -->
<g id="edge8_Node000006_Node000007" class="edge">
<title>Node6&#45;&gt;Node7</title>
<g id="a_edge8_Node000006_Node000007"><a xlink:title=" ">
<path fill="none" stroke="#63b8ff" d="M251.57,-215.57C243.34,-206.5 233.61,-195.78 226.83,-188.3"/>
<polygon fill="#63b8ff" stroke="#63b8ff" points="248.54,-217.54 257.85,-222.59 253.72,-212.84 248.54,-217.54"/>
</a>
</g>
</g>
<!-- Node6&#45;&gt;Node8 -->
<g id="edge9_Node000006_Node000008" class="edge">
<title>Node6&#45;&gt;Node8</title>
<g id="a_edge9_Node000006_Node000008"><a xlink:title=" ">
<path fill="none" stroke="#63b8ff" d="M325.29,-221.69C347.95,-214.95 372.88,-204.38 391.39,-188 408.63,-172.73 418.04,-146.32 422.03,-132.33"/>
<polygon fill="#63b8ff" stroke="#63b8ff" points="324.43,-218.57 315.73,-224.61 326.3,-225.32 324.43,-218.57"/>
</a>
</g>
</g>
<!-- Node6&#45;&gt;Node11 -->
<g id="edge13_Node000006_Node000011" class="edge">
<title>Node6&#45;&gt;Node11</title>
<g id="a_edge13_Node000006_Node000011"><a xlink:title=" ">
<path fill="none" stroke="#63b8ff" d="M287.59,-216.95C299.36,-207.61 313.77,-196.16 323.68,-188.3"/>
<polygon fill="#63b8ff" stroke="#63b8ff" points="285.89,-214.63 280.23,-223.59 290.24,-220.12 285.89,-214.63"/>
</a>
</g>
</g>
<!-- Node9 -->
<g id="Node000009" class="node">
<title>Node9</title>
<g id="a_Node000009"><a xlink:href="_ble_parser_8cpp.html" target="_top" xlink:title=" ">
<polygon fill="white" stroke="#666666" points="456.14,-20 378.64,-20 378.64,0 456.14,0 456.14,-20"/>
<text text-anchor="middle" x="417.39" y="-6.5" font-family="Helvetica,sans-Serif" font-size="10.00">BleParser.cpp</text>
</a>
</g>
</g>
<!-- Node8&#45;&gt;Node9 -->
<g id="edge10_Node000008_Node000009" class="edge">
<title>Node8&#45;&gt;Node9</title>
<g id="a_edge10_Node000008_Node000009"><a xlink:title=" ">
<path fill="none" stroke="#63b8ff" d="M414.83,-101.78C411.45,-93.98 408.07,-84.76 406.39,-76 402.58,-56.22 409.21,-32.91 413.72,-20.28"/>
<polygon fill="#63b8ff" stroke="#63b8ff" points="412.04,-103.08 419.43,-110.67 418.38,-100.12 412.04,-103.08"/>
</a>
</g>
</g>
<!-- Node10 -->
<g id="Node000010" class="node">
<title>Node10</title>
<g id="a_Node000010"><a xlink:href="_ble_parser_8h.html" target="_top" xlink:title="This class is used to serialize and deserialize the BLE data. The application uses Nordic&#39;s UART serv...">
<polygon fill="white" stroke="#666666" points="481.89,-76 414.89,-76 414.89,-56 481.89,-56 481.89,-76"/>
<text text-anchor="middle" x="448.39" y="-62.5" font-family="Helvetica,sans-Serif" font-size="10.00">BleParser.h</text>
</a>
</g>
</g>
<!-- Node8&#45;&gt;Node10 -->
<g id="edge11_Node000008_Node000010" class="edge">
<title>Node8&#45;&gt;Node10</title>
<g id="a_edge11_Node000008_Node000010"><a xlink:title=" ">
<path fill="none" stroke="#63b8ff" d="M433.02,-101.58C436.85,-92.97 441.17,-83.24 444.26,-76.3"/>
<polygon fill="#63b8ff" stroke="#63b8ff" points="429.43,-100.03 428.57,-110.59 435.83,-102.88 429.43,-100.03"/>
</a>
</g>
</g>
<!-- Node10&#45;&gt;Node9 -->
<g id="edge12_Node000010_Node000009" class="edge">
<title>Node10&#45;&gt;Node9</title>
<g id="a_edge12_Node000010_Node000009"><a xlink:title=" ">
<path fill="none" stroke="#63b8ff" d="M437.57,-46.15C432.54,-37.4 426.8,-27.39 422.73,-20.3"/>
<polygon fill="#63b8ff" stroke="#63b8ff" points="434.97,-47.66 442.99,-54.59 441.04,-44.18 434.97,-47.66"/>
</a>
</g>
</g>
<!-- Node11&#45;&gt;Node2 -->
<g id="edge14_Node000011_Node000002" class="edge">
<title>Node11&#45;&gt;Node2</title>
<g id="a_edge14_Node000011_Node000002"><a xlink:title=" ">
<path fill="none" stroke="#63b8ff" d="M277.24,-166.06C221.59,-155.59 139.05,-140.06 89.79,-130.79"/>
<polygon fill="#63b8ff" stroke="#63b8ff" points="276.52,-169.67 287,-168.08 277.82,-162.79 276.52,-169.67"/>
</a>
</g>
</g>
<!-- Node11&#45;&gt;Node8 -->
<g id="edge19_Node000011_Node000008" class="edge">
<title>Node11&#45;&gt;Node8</title>
<g id="a_edge19_Node000011_Node000008"><a xlink:title=" ">
<path fill="none" stroke="#63b8ff" d="M359.98,-162.08C375.57,-152.62 395.28,-140.66 408.76,-132.48"/>
<polygon fill="#63b8ff" stroke="#63b8ff" points="358.62,-159.41 351.89,-167.59 362.26,-165.4 358.62,-159.41"/>
</a>
</g>
</g>
<!-- Node12 -->
<g id="Node000012" class="node">
<title>Node12</title>
<g id="a_Node000012"><a xlink:href="_error_reporter_8h.html" target="_top" xlink:title="Singleton class to report errors to the other microcontroller.">
<polygon fill="white" stroke="#666666" points="291.39,-132 209.39,-132 209.39,-112 291.39,-112 291.39,-132"/>
<text text-anchor="middle" x="250.39" y="-118.5" font-family="Helvetica,sans-Serif" font-size="10.00">ErrorReporter.h</text>
</a>
</g>
</g>
<!-- Node11&#45;&gt;Node12 -->
<g id="edge15_Node000011_Node000012" class="edge">
<title>Node11&#45;&gt;Node12</title>
<g id="a_edge15_Node000011_Node000012"><a xlink:title=" ">
<path fill="none" stroke="#63b8ff" d="M311.48,-161.81C296.65,-152.39 278.06,-140.58 265.31,-132.48"/>
<polygon fill="#63b8ff" stroke="#63b8ff" points="309.26,-165.19 319.58,-167.59 313.02,-159.28 309.26,-165.19"/>
</a>
</g>
</g>
<!-- Node15 -->
<g id="Node000015" class="node">
<title>Node15</title>
<g id="a_Node000015"><a xlink:href="_exo_8cpp.html" target="_top" xlink:title=" ">
<polygon fill="white" stroke="#666666" points="361.39,-132 309.39,-132 309.39,-112 361.39,-112 361.39,-132"/>
<text text-anchor="middle" x="335.39" y="-118.5" font-family="Helvetica,sans-Serif" font-size="10.00">Exo.cpp</text>
</a>
</g>
</g>
<!-- Node11&#45;&gt;Node15 -->
<g id="edge18_Node000011_Node000015" class="edge">
<title>Node11&#45;&gt;Node15</title>
<g id="a_edge18_Node000011_Node000015"><a xlink:title=" ">
<path fill="none" stroke="#63b8ff" d="M335.39,-156.71C335.39,-148.32 335.39,-139.01 335.39,-132.3"/>
<polygon fill="#63b8ff" stroke="#63b8ff" points="331.89,-156.59 335.39,-166.59 338.89,-156.59 331.89,-156.59"/>
</a>
</g>
</g>
<!-- Node13 -->
<g id="Node000013" class="node">
<title>Node13</title>
<g id="a_Node000013"><a xlink:href="_joint_8cpp.html" target="_top" xlink:title=" ">
<polygon fill="white" stroke="#666666" points="253.89,-76 198.89,-76 198.89,-56 253.89,-56 253.89,-76"/>
<text text-anchor="middle" x="226.39" y="-62.5" font-family="Helvetica,sans-Serif" font-size="10.00">Joint.cpp</text>
</a>
</g>
</g>
<!-- Node12&#45;&gt;Node13 -->
<g id="edge16_Node000012_Node000013" class="edge">
<title>Node12&#45;&gt;Node13</title>
<g id="a_edge16_Node000012_Node000013"><a xlink:title=" ">
<path fill="none" stroke="#63b8ff" d="M241.76,-101.58C237.93,-92.97 233.6,-83.24 230.52,-76.3"/>
<polygon fill="#63b8ff" stroke="#63b8ff" points="238.95,-102.88 246.21,-110.59 245.34,-100.03 238.95,-102.88"/>
</a>
</g>
</g>
<!-- Node14 -->
<g id="Node000014" class="node">
<title>Node14</title>
<g id="a_Node000014"><a xlink:href="_motor_8cpp.html" target="_top" xlink:title=" ">
<polygon fill="white" stroke="#666666" points="331.14,-76 271.64,-76 271.64,-56 331.14,-56 331.14,-76"/>
<text text-anchor="middle" x="301.39" y="-62.5" font-family="Helvetica,sans-Serif" font-size="10.00">Motor.cpp</text>
</a>
</g>
</g>
<!-- Node12&#45;&gt;Node14 -->
<g id="edge17_Node000012_Node000014" class="edge">
<title>Node12&#45;&gt;Node14</title>
<g id="a_edge17_Node000012_Node000014"><a xlink:title=" ">
<path fill="none" stroke="#63b8ff" d="M266.59,-103.85C275.21,-94.72 285.47,-83.86 292.61,-76.3"/>
<polygon fill="#63b8ff" stroke="#63b8ff" points="264.59,-100.92 260.27,-110.59 269.68,-105.73 264.59,-100.92"/>
</a>
</g>
</g>
</g>
</svg>
</svg>

<style type='text/css'>
<![CDATA[
[data-mouse-over-selected='false'] { opacity: 0.7; }
[data-mouse-over-selected='true']  { opacity: 1.0; }
]]>
</style>
<script type="application/ecmascript"><![CDATA[
document.addEventListener('DOMContentLoaded', (event) => {
  highlightEdges();
  highlightAdjacentNodes();
});
]]></script>
</svg>
