<?xml version="1.0" encoding="UTF-8" standalone="no"?>
<!DOCTYPE svg PUBLIC "-//W3C//DTD SVG 1.1//EN"
 "http://www.w3.org/Graphics/SVG/1.1/DTD/svg11.dtd">
<!-- Generated by graphviz version 8.1.0 (20230707.0739)
 -->
<!-- Title: StatusLed.h Pages: 1 -->
<svg width="159pt" height="252pt"
 viewBox="0.00 0.00 158.75 252.00" xmlns="http://www.w3.org/2000/svg" xmlns:xlink="http://www.w3.org/1999/xlink">
<g id="graph0" class="graph" transform="scale(1 1) rotate(0) translate(4 248)">
<title>StatusLed.h</title>
<!-- Node1 -->
<g id="Node000001" class="node">
<title>Node1</title>
<g id="a_Node000001"><a xlink:title="Class to set an RGB LED to different colors based on the state of the system.">
<polygon fill="#999999" stroke="#666666" points="84.88,-244 16.38,-244 16.38,-224 84.88,-224 84.88,-244"/>
<text text-anchor="middle" x="50.63" y="-230.5" font-family="Helvetica,sans-Serif" font-size="10.00">StatusLed.h</text>
</a>
</g>
</g>
<!-- Node2 -->
<g id="Node000002" class="node">
<title>Node2</title>
<g id="a_Node000002"><a xlink:title=" ">
<polygon fill="#e0e0e0" stroke="#999999" points="57.25,-20 0,-20 0,0 57.25,0 57.25,-20"/>
<text text-anchor="middle" x="28.63" y="-6.5" font-family="Helvetica,sans-Serif" font-size="10.00">Arduino.h</text>
</a>
</g>
</g>
<!-- Node1&#45;&gt;Node2 -->
<g id="edge1_Node000001_Node000002" class="edge">
<title>Node1&#45;&gt;Node2</title>
<g id="a_edge1_Node000001_Node000002"><a xlink:title=" ">
<path fill="none" stroke="#63b8ff" d="M48.48,-223.6C44.54,-205.82 36.2,-166.01 32.63,-132 28.92,-96.76 28.36,-55.45 28.41,-31.35"/>
<polygon fill="#63b8ff" stroke="#63b8ff" points="31.92,-31.47 28.48,-21.45 24.92,-31.42 31.92,-31.47"/>
</a>
</g>
</g>
<!-- Node3 -->
<g id="Node000003" class="node">
<title>Node3</title>
<g id="a_Node000003"><a xlink:href="_board_8h.html" target="_top" xlink:title="Defines the pins and peripherals for the board being used.">
<polygon fill="white" stroke="#666666" points="91.5,-132 41.75,-132 41.75,-112 91.5,-112 91.5,-132"/>
<text text-anchor="middle" x="66.63" y="-118.5" font-family="Helvetica,sans-Serif" font-size="10.00">Board.h</text>
</a>
</g>
</g>
<!-- Node1&#45;&gt;Node3 -->
<g id="edge2_Node000001_Node000003" class="edge">
<title>Node1&#45;&gt;Node3</title>
<g id="a_edge2_Node000001_Node000003"><a xlink:title=" ">
<path fill="none" stroke="#63b8ff" d="M51.99,-223.62C54.58,-205.84 60.24,-166.88 63.72,-143"/>
<polygon fill="#63b8ff" stroke="#63b8ff" points="67.29,-143.75 65.26,-133.35 60.36,-142.75 67.29,-143.75"/>
</a>
</g>
</g>
<!-- Node6 -->
<g id="Node000006" class="node">
<title>Node6</title>
<g id="a_Node000006"><a xlink:href="_status_defs_8h.html" target="_top" xlink:title="Stores the different status messages for the system.">
<polygon fill="white" stroke="#666666" points="150.75,-188 78.5,-188 78.5,-168 150.75,-168 150.75,-188"/>
<text text-anchor="middle" x="114.63" y="-174.5" font-family="Helvetica,sans-Serif" font-size="10.00">StatusDefs.h</text>
</a>
</g>
</g>
<!-- Node1&#45;&gt;Node6 -->
<g id="edge7_Node000001_Node000006" class="edge">
<title>Node1&#45;&gt;Node6</title>
<g id="a_edge7_Node000001_Node000006"><a xlink:title=" ">
<path fill="none" stroke="#63b8ff" d="M61.77,-223.59C71.04,-215.77 84.44,-204.46 95.43,-195.19"/>
<polygon fill="#63b8ff" stroke="#63b8ff" points="97.22,-197.42 102.6,-188.3 92.7,-192.07 97.22,-197.42"/>
</a>
</g>
</g>
<!-- Node3&#45;&gt;Node2 -->
<g id="edge6_Node000003_Node000002" class="edge">
<title>Node3&#45;&gt;Node2</title>
<g id="a_edge6_Node000003_Node000002"><a xlink:title=" ">
<path fill="none" stroke="#63b8ff" d="M62.38,-111.81C58.3,-102.81 52.12,-88.62 47.63,-76 42.31,-61.07 37.33,-43.85 33.8,-30.89"/>
<polygon fill="#63b8ff" stroke="#63b8ff" points="36.95,-30.13 31,-21.36 30.19,-31.93 36.95,-30.13"/>
</a>
</g>
</g>
<!-- Node4 -->
<g id="Node000004" class="node">
<title>Node4</title>
<g id="a_Node000004"><a xlink:href="_config_8h.html" target="_top" xlink:title="Configuration variables for the codebase.">
<polygon fill="white" stroke="#666666" points="108.25,-76 57,-76 57,-56 108.25,-56 108.25,-76"/>
<text text-anchor="middle" x="82.63" y="-62.5" font-family="Helvetica,sans-Serif" font-size="10.00">Config.h</text>
</a>
</g>
</g>
<!-- Node3&#45;&gt;Node4 -->
<g id="edge3_Node000003_Node000004" class="edge">
<title>Node3&#45;&gt;Node4</title>
<g id="a_edge3_Node000003_Node000004"><a xlink:title=" ">
<path fill="none" stroke="#63b8ff" d="M69.41,-111.59C71.45,-104.7 74.3,-95.1 76.83,-86.57"/>
<polygon fill="#63b8ff" stroke="#63b8ff" points="80.38,-87.88 79.87,-77.3 73.67,-85.89 80.38,-87.88"/>
</a>
</g>
</g>
<!-- Node4&#45;&gt;Node2 -->
<g id="edge4_Node000004_Node000002" class="edge">
<title>Node4&#45;&gt;Node2</title>
<g id="a_edge4_Node000004_Node000002"><a xlink:title=" ">
<path fill="none" stroke="#63b8ff" d="M73.22,-55.59C65.63,-48.01 54.76,-37.13 45.65,-28.02"/>
<polygon fill="#63b8ff" stroke="#63b8ff" points="48.47,-25.89 38.92,-21.3 43.52,-30.84 48.47,-25.89"/>
</a>
</g>
</g>
<!-- Node5 -->
<g id="Node000005" class="node">
<title>Node5</title>
<g id="a_Node000005"><a xlink:href="_log_levels_8h.html" target="_top" xlink:title=" ">
<polygon fill="white" stroke="#666666" points="142.13,-20 75.13,-20 75.13,0 142.13,0 142.13,-20"/>
<text text-anchor="middle" x="108.63" y="-6.5" font-family="Helvetica,sans-Serif" font-size="10.00">LogLevels.h</text>
</a>
</g>
</g>
<!-- Node4&#45;&gt;Node5 -->
<g id="edge5_Node000004_Node000005" class="edge">
<title>Node4&#45;&gt;Node5</title>
<g id="a_edge5_Node000004_Node000005"><a xlink:title=" ">
<path fill="none" stroke="#63b8ff" d="M87.15,-55.59C90.55,-48.55 95.3,-38.67 99.48,-30"/>
<polygon fill="#63b8ff" stroke="#63b8ff" points="102.96,-31.83 104.15,-21.3 96.66,-28.79 102.96,-31.83"/>
</a>
</g>
</g>
<!-- Node6&#45;&gt;Node2 -->
<g id="edge8_Node000006_Node000002" class="edge">
<title>Node6&#45;&gt;Node2</title>
<g id="a_edge8_Node000006_Node000002"><a xlink:title=" ">
<path fill="none" stroke="#63b8ff" d="M118.04,-167.63C125.28,-146.05 139.75,-91.98 117.63,-56 111.4,-45.88 86.26,-33.67 64.29,-24.53"/>
<polygon fill="#63b8ff" stroke="#63b8ff" points="65.75,-20.94 55.17,-20.44 63.13,-27.43 65.75,-20.94"/>
</a>
</g>
</g>
<!-- Node6&#45;&gt;Node3 -->
<g id="edge9_Node000006_Node000003" class="edge">
<title>Node6&#45;&gt;Node3</title>
<g id="a_edge9_Node000006_Node000003"><a xlink:title=" ">
<path fill="none" stroke="#63b8ff" d="M106.26,-167.59C99.59,-160.08 90.05,-149.35 82.01,-140.3"/>
<polygon fill="#63b8ff" stroke="#63b8ff" points="85.15,-138.45 75.89,-133.3 79.92,-143.1 85.15,-138.45"/>
</a>
</g>
</g>
</g>
</svg>
