<?xml version="1.0" encoding="UTF-8" standalone="no"?>
<!DOCTYPE svg PUBLIC "-//W3C//DTD SVG 1.1//EN"
 "http://www.w3.org/Graphics/SVG/1.1/DTD/svg11.dtd">
<!-- Generated by graphviz version 8.1.0 (20230707.0739)
 -->
<!-- Title: StatusDefs.h Pages: 1 -->
<svg width="552pt" height="420pt"
 viewBox="0.00 0.00 552.00 420.00" xmlns="http://www.w3.org/2000/svg" xmlns:xlink="http://www.w3.org/1999/xlink">
<g id="graph0" class="graph" transform="scale(1 1) rotate(0) translate(4 416)">
<title>StatusDefs.h</title>
<!-- Node1 -->
<g id="Node000001" class="node">
<title>Node1</title>
<g id="a_Node000001"><a xlink:title="Stores the different status messages for the system.">
<polygon fill="#999999" stroke="#666666" points="340.13,-412 267.88,-412 267.88,-392 340.13,-392 340.13,-412"/>
<text text-anchor="middle" x="304" y="-398.5" font-family="Helvetica,sans-Serif" font-size="10.00">StatusDefs.h</text>
</a>
</g>
</g>
<!-- Node2 -->
<g id="Node000002" class="node">
<title>Node2</title>
<g id="a_Node000002"><a xlink:href="_coms_m_c_u_8cpp.html" target="_top" xlink:title=" ">
<polygon fill="white" stroke="#666666" points="543,-132 461,-132 461,-112 543,-112 543,-132"/>
<text text-anchor="middle" x="502" y="-118.5" font-family="Helvetica,sans-Serif" font-size="10.00">ComsMCU.cpp</text>
</a>
</g>
</g>
<!-- Node1&#45;&gt;Node2 -->
<g id="edge1_Node000001_Node000002" class="edge">
<title>Node1&#45;&gt;Node2</title>
<g id="a_edge1_Node000001_Node000002"><a xlink:title=" ">
<path fill="none" stroke="#63b8ff" d="M351.19,-399.74C421.09,-395.09 544,-374.97 544,-291 544,-291 544,-291 544,-233 544,-193.34 519.88,-150.62 508.2,-132.25"/>
<polygon fill="#63b8ff" stroke="#63b8ff" points="351.23,-396.29 341.45,-400.37 351.64,-403.28 351.23,-396.29"/>
</a>
</g>
</g>
<!-- Node3 -->
<g id="Node000003" class="node">
<title>Node3</title>
<g id="a_Node000003"><a xlink:href="_exo_data_8h.html" target="_top" xlink:title="Declares a class used to store data for the Exo to access.">
<polygon fill="white" stroke="#666666" points="272.88,-300 211.13,-300 211.13,-280 272.88,-280 272.88,-300"/>
<text text-anchor="middle" x="242" y="-286.5" font-family="Helvetica,sans-Serif" font-size="10.00">ExoData.h</text>
</a>
</g>
</g>
<!-- Node1&#45;&gt;Node3 -->
<g id="edge2_Node000001_Node000003" class="edge">
<title>Node1&#45;&gt;Node3</title>
<g id="a_edge2_Node000001_Node000003"><a xlink:title=" ">
<path fill="none" stroke="#63b8ff" d="M284.41,-384.42C276.17,-376.55 267.09,-366.56 261,-356 250.54,-337.88 245.44,-313.53 243.3,-300.38"/>
<polygon fill="#63b8ff" stroke="#63b8ff" points="281.78,-386.67 291.54,-390.8 286.49,-381.49 281.78,-386.67"/>
</a>
</g>
</g>
<!-- Node8 -->
<g id="Node000008" class="node">
<title>Node8</title>
<g id="a_Node000008"><a xlink:href="ble__commands_8h.html" target="_top" xlink:title="This file declares the BLE commands, and the functions that should be called when they are received.">
<polygon fill="white" stroke="#666666" points="220.13,-132 129.88,-132 129.88,-112 220.13,-112 220.13,-132"/>
<text text-anchor="middle" x="175" y="-118.5" font-family="Helvetica,sans-Serif" font-size="10.00">ble_commands.h</text>
</a>
</g>
</g>
<!-- Node1&#45;&gt;Node8 -->
<g id="edge27_Node000001_Node000008" class="edge">
<title>Node1&#45;&gt;Node8</title>
<g id="a_edge27_Node000001_Node000008"><a xlink:title=" ">
<path fill="none" stroke="#63b8ff" d="M256.93,-393.99C171.57,-379.93 0,-344.97 0,-291 0,-291 0,-291 0,-233 0,-171.82 77.63,-143.34 129.48,-131.14"/>
<polygon fill="#63b8ff" stroke="#63b8ff" points="256.2,-397.58 266.63,-395.71 257.32,-390.66 256.2,-397.58"/>
</a>
</g>
</g>
<!-- Node17 -->
<g id="Node000017" class="node">
<title>Node17</title>
<g id="a_Node000017"><a xlink:href="_status_defs_8cpp.html" target="_top" xlink:title=" ">
<polygon fill="white" stroke="#666666" points="439.38,-356 356.63,-356 356.63,-336 439.38,-336 439.38,-356"/>
<text text-anchor="middle" x="398" y="-342.5" font-family="Helvetica,sans-Serif" font-size="10.00">StatusDefs.cpp</text>
</a>
</g>
</g>
<!-- Node1&#45;&gt;Node17 -->
<g id="edge23_Node000001_Node000017" class="edge">
<title>Node1&#45;&gt;Node17</title>
<g id="a_edge23_Node000001_Node000017"><a xlink:title=" ">
<path fill="none" stroke="#63b8ff" d="M329.51,-386.35C346.05,-376.84 367.12,-364.74 381.5,-356.48"/>
<polygon fill="#63b8ff" stroke="#63b8ff" points="328.3,-383.58 321.37,-391.59 331.79,-389.65 328.3,-383.58"/>
</a>
</g>
</g>
<!-- Node18 -->
<g id="Node000018" class="node">
<title>Node18</title>
<g id="a_Node000018"><a xlink:href="_status_led_8h.html" target="_top" xlink:title="Class to set an RGB LED to different colors based on the state of the system.">
<polygon fill="white" stroke="#666666" points="338.25,-356 269.75,-356 269.75,-336 338.25,-336 338.25,-356"/>
<text text-anchor="middle" x="304" y="-342.5" font-family="Helvetica,sans-Serif" font-size="10.00">StatusLed.h</text>
</a>
</g>
</g>
<!-- Node1&#45;&gt;Node18 -->
<g id="edge24_Node000001_Node000018" class="edge">
<title>Node1&#45;&gt;Node18</title>
<g id="a_edge24_Node000001_Node000018"><a xlink:title=" ">
<path fill="none" stroke="#63b8ff" d="M304,-380.71C304,-372.32 304,-363.01 304,-356.3"/>
<polygon fill="#63b8ff" stroke="#63b8ff" points="300.5,-380.59 304,-390.59 307.5,-380.59 300.5,-380.59"/>
</a>
</g>
</g>
<!-- Node4 -->
<g id="Node000004" class="node">
<title>Node4</title>
<g id="a_Node000004"><a xlink:href="_coms_m_c_u_8h.html" target="_top" xlink:title="The top of the composite structure for the communication microcontroller. This class manages the blue...">
<polygon fill="white" stroke="#666666" points="469.75,-244 398.25,-244 398.25,-224 469.75,-224 469.75,-244"/>
<text text-anchor="middle" x="434" y="-230.5" font-family="Helvetica,sans-Serif" font-size="10.00">ComsMCU.h</text>
</a>
</g>
</g>
<!-- Node3&#45;&gt;Node4 -->
<g id="edge3_Node000003_Node000004" class="edge">
<title>Node3&#45;&gt;Node4</title>
<g id="a_edge3_Node000003_Node000004"><a xlink:title=" ">
<path fill="none" stroke="#63b8ff" d="M283.64,-277.29C318.63,-267.45 367.99,-253.56 400.48,-244.43"/>
<polygon fill="#63b8ff" stroke="#63b8ff" points="282.95,-274.13 274.28,-280.2 284.85,-280.87 282.95,-274.13"/>
</a>
</g>
</g>
<!-- Node5 -->
<g id="Node000005" class="node">
<title>Node5</title>
<g id="a_Node000005"><a xlink:href="_exo_data_8cpp.html" target="_top" xlink:title=" ">
<polygon fill="white" stroke="#666666" points="168.13,-188 95.88,-188 95.88,-168 168.13,-168 168.13,-188"/>
<text text-anchor="middle" x="132" y="-174.5" font-family="Helvetica,sans-Serif" font-size="10.00">ExoData.cpp</text>
</a>
</g>
</g>
<!-- Node3&#45;&gt;Node5 -->
<g id="edge5_Node000003_Node000005" class="edge">
<title>Node3&#45;&gt;Node5</title>
<g id="a_edge5_Node000003_Node000005"><a xlink:title=" ">
<path fill="none" stroke="#63b8ff" d="M220.17,-273.1C209.45,-264.88 196.59,-254.42 186,-244 167.38,-225.69 148.55,-201.41 138.8,-188.32"/>
<polygon fill="#63b8ff" stroke="#63b8ff" points="217.84,-276.47 227.93,-279.68 222.04,-270.87 217.84,-276.47"/>
</a>
</g>
</g>
<!-- Node6 -->
<g id="Node000006" class="node">
<title>Node6</title>
<g id="a_Node000006"><a xlink:href="_params_from_s_d_8h.html" target="_top" xlink:title="Declares the functions to pull controller parameters from the SD card and defines the mapping to the ...">
<polygon fill="white" stroke="#666666" points="289,-244 195,-244 195,-224 289,-224 289,-244"/>
<text text-anchor="middle" x="242" y="-230.5" font-family="Helvetica,sans-Serif" font-size="10.00">ParamsFromSD.h</text>
</a>
</g>
</g>
<!-- Node3&#45;&gt;Node6 -->
<g id="edge6_Node000003_Node000006" class="edge">
<title>Node3&#45;&gt;Node6</title>
<g id="a_edge6_Node000003_Node000006"><a xlink:title=" ">
<path fill="none" stroke="#63b8ff" d="M242,-268.71C242,-260.32 242,-251.01 242,-244.3"/>
<polygon fill="#63b8ff" stroke="#63b8ff" points="238.5,-268.59 242,-278.59 245.5,-268.59 238.5,-268.59"/>
</a>
</g>
</g>
<!-- Node3&#45;&gt;Node8 -->
<g id="edge21_Node000003_Node000008" class="edge">
<title>Node3&#45;&gt;Node8</title>
<g id="a_edge21_Node000003_Node000008"><a xlink:title=" ">
<path fill="none" stroke="#63b8ff" d="M201.2,-275.69C163.56,-260.93 110.12,-233.06 87,-188 73.26,-161.22 110.27,-142.68 140.45,-132.45"/>
<polygon fill="#63b8ff" stroke="#63b8ff" points="199.77,-279.26 210.36,-279.51 202.23,-272.71 199.77,-279.26"/>
</a>
</g>
</g>
<!-- Node11 -->
<g id="Node000011" class="node">
<title>Node11</title>
<g id="a_Node000011"><a xlink:href="uart__commands_8h.html" target="_top" xlink:title=" ">
<polygon fill="white" stroke="#666666" points="440,-188 346,-188 346,-168 440,-168 440,-188"/>
<text text-anchor="middle" x="393" y="-174.5" font-family="Helvetica,sans-Serif" font-size="10.00">uart_commands.h</text>
</a>
</g>
</g>
<!-- Node3&#45;&gt;Node11 -->
<g id="edge22_Node000003_Node000011" class="edge">
<title>Node3&#45;&gt;Node11</title>
<g id="a_edge22_Node000003_Node000011"><a xlink:title=" ">
<path fill="none" stroke="#63b8ff" d="M263.47,-273.36C295.35,-250.14 354.22,-207.25 380.16,-188.35"/>
<polygon fill="#63b8ff" stroke="#63b8ff" points="261.9,-270.9 255.87,-279.62 266.02,-276.56 261.9,-270.9"/>
</a>
</g>
</g>
<!-- Node16 -->
<g id="Node000016" class="node">
<title>Node16</title>
<g id="a_Node000016"><a xlink:href="_pi_logger_8h.html" target="_top" xlink:title=" ">
<polygon fill="white" stroke="#666666" points="90.25,-244 27.75,-244 27.75,-224 90.25,-224 90.25,-244"/>
<text text-anchor="middle" x="59" y="-230.5" font-family="Helvetica,sans-Serif" font-size="10.00">PiLogger.h</text>
</a>
</g>
</g>
<!-- Node3&#45;&gt;Node16 -->
<g id="edge20_Node000003_Node000016" class="edge">
<title>Node3&#45;&gt;Node16</title>
<g id="a_edge20_Node000003_Node000016"><a xlink:title=" ">
<path fill="none" stroke="#63b8ff" d="M200.6,-276.78C167.21,-266.93 120.94,-253.28 90.5,-244.3"/>
<polygon fill="#63b8ff" stroke="#63b8ff" points="199.37,-280.37 209.96,-279.84 201.36,-273.65 199.37,-280.37"/>
</a>
</g>
</g>
<!-- Node4&#45;&gt;Node2 -->
<g id="edge4_Node000004_Node000002" class="edge">
<title>Node4&#45;&gt;Node2</title>
<g id="a_edge4_Node000004_Node000002"><a xlink:title=" ">
<path fill="none" stroke="#63b8ff" d="M445.58,-214.27C460.27,-190.5 485.04,-150.44 496.22,-132.35"/>
<polygon fill="#63b8ff" stroke="#63b8ff" points="442.08,-212.28 439.8,-222.62 448.03,-215.96 442.08,-212.28"/>
</a>
</g>
</g>
<!-- Node6&#45;&gt;Node5 -->
<g id="edge7_Node000006_Node000005" class="edge">
<title>Node6&#45;&gt;Node5</title>
<g id="a_edge7_Node000006_Node000005"><a xlink:title=" ">
<path fill="none" stroke="#63b8ff" d="M213.23,-218.88C193.72,-209.3 168.45,-196.89 151.31,-188.48"/>
<polygon fill="#63b8ff" stroke="#63b8ff" points="211.32,-222.33 221.84,-223.59 214.41,-216.05 211.32,-222.33"/>
</a>
</g>
</g>
<!-- Node7 -->
<g id="Node000007" class="node">
<title>Node7</title>
<g id="a_Node000007"><a xlink:href="_params_from_s_d_8cpp.html" target="_top" xlink:title=" ">
<polygon fill="white" stroke="#666666" points="328.25,-188 223.75,-188 223.75,-168 328.25,-168 328.25,-188"/>
<text text-anchor="middle" x="276" y="-174.5" font-family="Helvetica,sans-Serif" font-size="10.00">ParamsFromSD.cpp</text>
</a>
</g>
</g>
<!-- Node6&#45;&gt;Node7 -->
<g id="edge8_Node000006_Node000007" class="edge">
<title>Node6&#45;&gt;Node7</title>
<g id="a_edge8_Node000006_Node000007"><a xlink:title=" ">
<path fill="none" stroke="#63b8ff" d="M253.69,-214.44C259.24,-205.62 265.63,-195.47 270.15,-188.3"/>
<polygon fill="#63b8ff" stroke="#63b8ff" points="250.29,-212.27 247.92,-222.59 256.21,-216 250.29,-212.27"/>
</a>
</g>
</g>
<!-- Node6&#45;&gt;Node8 -->
<g id="edge9_Node000006_Node000008" class="edge">
<title>Node6&#45;&gt;Node8</title>
<g id="a_edge9_Node000006_Node000008"><a xlink:title=" ">
<path fill="none" stroke="#63b8ff" d="M230.59,-214.27C216.11,-190.5 191.71,-150.44 180.7,-132.35"/>
<polygon fill="#63b8ff" stroke="#63b8ff" points="228.1,-215.9 236.29,-222.62 234.07,-212.26 228.1,-215.9"/>
</a>
</g>
</g>
<!-- Node6&#45;&gt;Node11 -->
<g id="edge13_Node000006_Node000011" class="edge">
<title>Node6&#45;&gt;Node11</title>
<g id="a_edge13_Node000006_Node000011"><a xlink:title=" ">
<path fill="none" stroke="#63b8ff" d="M278.57,-219.92C305.72,-210.21 342.11,-197.2 366.49,-188.48"/>
<polygon fill="#63b8ff" stroke="#63b8ff" points="277.54,-216.93 269.3,-223.59 279.9,-223.52 277.54,-216.93"/>
</a>
</g>
</g>
<!-- Node9 -->
<g id="Node000009" class="node">
<title>Node9</title>
<g id="a_Node000009"><a xlink:href="_ble_parser_8cpp.html" target="_top" xlink:title=" ">
<polygon fill="white" stroke="#666666" points="235.75,-20 158.25,-20 158.25,0 235.75,0 235.75,-20"/>
<text text-anchor="middle" x="197" y="-6.5" font-family="Helvetica,sans-Serif" font-size="10.00">BleParser.cpp</text>
</a>
</g>
</g>
<!-- Node8&#45;&gt;Node9 -->
<g id="edge10_Node000008_Node000009" class="edge">
<title>Node8&#45;&gt;Node9</title>
<g id="a_edge10_Node000008_Node000009"><a xlink:title=" ">
<path fill="none" stroke="#63b8ff" d="M177.53,-100.8C179.29,-87.92 181.88,-70.9 185,-56 187.62,-43.5 191.58,-29.29 194.22,-20.24"/>
<polygon fill="#63b8ff" stroke="#63b8ff" points="173.94,-100.32 176.11,-110.69 180.88,-101.22 173.94,-100.32"/>
</a>
</g>
</g>
<!-- Node10 -->
<g id="Node000010" class="node">
<title>Node10</title>
<g id="a_Node000010"><a xlink:href="_ble_parser_8h.html" target="_top" xlink:title="This class is used to serialize and deserialize the BLE data. The application uses Nordic&#39;s UART serv...">
<polygon fill="white" stroke="#666666" points="261.5,-76 194.5,-76 194.5,-56 261.5,-56 261.5,-76"/>
<text text-anchor="middle" x="228" y="-62.5" font-family="Helvetica,sans-Serif" font-size="10.00">BleParser.h</text>
</a>
</g>
</g>
<!-- Node8&#45;&gt;Node10 -->
<g id="edge11_Node000008_Node000010" class="edge">
<title>Node8&#45;&gt;Node10</title>
<g id="a_edge11_Node000008_Node000010"><a xlink:title=" ">
<path fill="none" stroke="#63b8ff" d="M191.84,-103.85C200.79,-94.72 211.46,-83.86 218.87,-76.3"/>
<polygon fill="#63b8ff" stroke="#63b8ff" points="189.74,-101.01 185.23,-110.59 194.73,-105.91 189.74,-101.01"/>
</a>
</g>
</g>
<!-- Node10&#45;&gt;Node9 -->
<g id="edge12_Node000010_Node000009" class="edge">
<title>Node10&#45;&gt;Node9</title>
<g id="a_edge12_Node000010_Node000009"><a xlink:title=" ">
<path fill="none" stroke="#63b8ff" d="M217.18,-46.15C212.16,-37.4 206.41,-27.39 202.34,-20.3"/>
<polygon fill="#63b8ff" stroke="#63b8ff" points="214.59,-47.66 222.6,-54.59 220.66,-44.18 214.59,-47.66"/>
</a>
</g>
</g>
<!-- Node11&#45;&gt;Node2 -->
<g id="edge14_Node000011_Node000002" class="edge">
<title>Node11&#45;&gt;Node2</title>
<g id="a_edge14_Node000011_Node000002"><a xlink:title=" ">
<path fill="none" stroke="#63b8ff" d="M421.77,-162.75C441.07,-153.18 465.96,-140.85 482.87,-132.48"/>
<polygon fill="#63b8ff" stroke="#63b8ff" points="420.39,-160.02 412.99,-167.59 423.5,-166.29 420.39,-160.02"/>
</a>
</g>
</g>
<!-- Node11&#45;&gt;Node8 -->
<g id="edge19_Node000011_Node000008" class="edge">
<title>Node11&#45;&gt;Node8</title>
<g id="a_edge19_Node000011_Node000008"><a xlink:title=" ">
<path fill="none" stroke="#63b8ff" d="M344.3,-164.94C304.71,-155.13 249.63,-141.49 213.18,-132.46"/>
<polygon fill="#63b8ff" stroke="#63b8ff" points="343.23,-168.52 353.78,-167.53 344.91,-161.73 343.23,-168.52"/>
</a>
</g>
</g>
<!-- Node12 -->
<g id="Node000012" class="node">
<title>Node12</title>
<g id="a_Node000012"><a xlink:href="_error_reporter_8h.html" target="_top" xlink:title="Singleton class to report errors to the other microcontroller.">
<polygon fill="white" stroke="#666666" points="437,-132 355,-132 355,-112 437,-112 437,-132"/>
<text text-anchor="middle" x="396" y="-118.5" font-family="Helvetica,sans-Serif" font-size="10.00">ErrorReporter.h</text>
</a>
</g>
</g>
<!-- Node11&#45;&gt;Node12 -->
<g id="edge15_Node000011_Node000012" class="edge">
<title>Node11&#45;&gt;Node12</title>
<g id="a_edge15_Node000011_Node000012"><a xlink:title=" ">
<path fill="none" stroke="#63b8ff" d="M394.13,-156.71C394.59,-148.32 395.11,-139.01 395.48,-132.3"/>
<polygon fill="#63b8ff" stroke="#63b8ff" points="390.58,-156.42 393.52,-166.59 397.57,-156.8 390.58,-156.42"/>
</a>
</g>
</g>
<!-- Node15 -->
<g id="Node000015" class="node">
<title>Node15</title>
<g id="a_Node000015"><a xlink:href="_exo_8cpp.html" target="_top" xlink:title=" ">
<polygon fill="white" stroke="#666666" points="337,-132 285,-132 285,-112 337,-112 337,-132"/>
<text text-anchor="middle" x="311" y="-118.5" font-family="Helvetica,sans-Serif" font-size="10.00">Exo.cpp</text>
</a>
</g>
</g>
<!-- Node11&#45;&gt;Node15 -->
<g id="edge18_Node000011_Node000015" class="edge">
<title>Node11&#45;&gt;Node15</title>
<g id="a_edge18_Node000011_Node000015"><a xlink:title=" ">
<path fill="none" stroke="#63b8ff" d="M369.94,-161.81C355.63,-152.39 337.7,-140.58 325.39,-132.48"/>
<polygon fill="#63b8ff" stroke="#63b8ff" points="367.44,-165.02 377.72,-167.59 371.29,-159.17 367.44,-165.02"/>
</a>
</g>
</g>
<!-- Node13 -->
<g id="Node000013" class="node">
<title>Node13</title>
<g id="a_Node000013"><a xlink:href="_joint_8cpp.html" target="_top" xlink:title=" ">
<polygon fill="white" stroke="#666666" points="366.5,-76 311.5,-76 311.5,-56 366.5,-56 366.5,-76"/>
<text text-anchor="middle" x="339" y="-62.5" font-family="Helvetica,sans-Serif" font-size="10.00">Joint.cpp</text>
</a>
</g>
</g>
<!-- Node12&#45;&gt;Node13 -->
<g id="edge16_Node000012_Node000013" class="edge">
<title>Node12&#45;&gt;Node13</title>
<g id="a_edge16_Node000012_Node000013"><a xlink:title=" ">
<path fill="none" stroke="#63b8ff" d="M378.19,-104.13C368.49,-94.94 356.87,-83.93 348.81,-76.3"/>
<polygon fill="#63b8ff" stroke="#63b8ff" points="375.4,-106.26 385.07,-110.59 380.22,-101.18 375.4,-106.26"/>
</a>
</g>
</g>
<!-- Node14 -->
<g id="Node000014" class="node">
<title>Node14</title>
<g id="a_Node000014"><a xlink:href="_motor_8cpp.html" target="_top" xlink:title=" ">
<polygon fill="white" stroke="#666666" points="443.75,-76 384.25,-76 384.25,-56 443.75,-56 443.75,-76"/>
<text text-anchor="middle" x="414" y="-62.5" font-family="Helvetica,sans-Serif" font-size="10.00">Motor.cpp</text>
</a>
</g>
</g>
<!-- Node12&#45;&gt;Node14 -->
<g id="edge17_Node000012_Node000014" class="edge">
<title>Node12&#45;&gt;Node14</title>
<g id="a_edge17_Node000012_Node000014"><a xlink:title=" ">
<path fill="none" stroke="#63b8ff" d="M402.57,-101.29C405.42,-92.75 408.61,-83.16 410.9,-76.3"/>
<polygon fill="#63b8ff" stroke="#63b8ff" points="398.98,-100 399.14,-110.59 405.62,-102.21 398.98,-100"/>
</a>
</g>
</g>
<!-- Node18&#45;&gt;Node2 -->
<g id="edge25_Node000018_Node000002" class="edge">
<title>Node18&#45;&gt;Node2</title>
<g id="a_edge25_Node000018_Node000002"><a xlink:title=" ">
<path fill="none" stroke="#63b8ff" d="M346.66,-331.99C387.25,-317.31 446.77,-289.38 479,-244 504.01,-208.79 503.87,-153.81 502.7,-132.18"/>
<polygon fill="#63b8ff" stroke="#63b8ff" points="345.82,-328.92 337.52,-335.52 348.12,-335.53 345.82,-328.92"/>
</a>
</g>
</g>
<!-- Node18&#45;&gt;Node3 -->
<g id="edge26_Node000018_Node000003" class="edge">
<title>Node18&#45;&gt;Node3</title>
<g id="a_edge26_Node000018_Node000003"><a xlink:title=" ">
<path fill="none" stroke="#63b8ff" d="M284.94,-328.4C274.34,-319.17 261.53,-308.01 252.68,-300.3"/>
<polygon fill="#63b8ff" stroke="#63b8ff" points="282.36,-331.67 292.2,-335.59 286.96,-326.39 282.36,-331.67"/>
</a>
</g>
</g>
</g>
</svg>
