<?xml version="1.0" encoding="UTF-8" standalone="no"?>
<!DOCTYPE svg PUBLIC "-//W3C//DTD SVG 1.1//EN"
 "http://www.w3.org/Graphics/SVG/1.1/DTD/svg11.dtd">
<!-- Generated by graphviz version 8.1.0 (20230707.0739)
 -->
<!-- Title: SyncLed.cpp Pages: 1 -->
<svg width="180pt" height="196pt"
 viewBox="0.00 0.00 179.76 196.00" xmlns="http://www.w3.org/2000/svg" xmlns:xlink="http://www.w3.org/1999/xlink">
<g id="graph0" class="graph" transform="scale(1 1) rotate(0) translate(4 192)">
<title>SyncLed.cpp</title>
<!-- Node1 -->
<g id="Node000001" class="node">
<title>Node1</title>
<g id="a_Node000001"><a xlink:title=" ">
<polygon fill="#999999" stroke="#666666" points="80.76,-188 7.76,-188 7.76,-168 80.76,-168 80.76,-188"/>
<text text-anchor="middle" x="44.26" y="-174.5" font-family="Helvetica,sans-Serif" font-size="10.00">SyncLed.cpp</text>
</a>
</g>
</g>
<!-- Node2 -->
<g id="Node000002" class="node">
<title>Node2</title>
<g id="a_Node000002"><a xlink:title=" ">
<polygon fill="#e0e0e0" stroke="#999999" points="72.89,-20 15.64,-20 15.64,0 72.89,0 72.89,-20"/>
<text text-anchor="middle" x="44.26" y="-6.5" font-family="Helvetica,sans-Serif" font-size="10.00">Arduino.h</text>
</a>
</g>
</g>
<!-- Node1&#45;&gt;Node2 -->
<g id="edge1_Node000001_Node000002" class="edge">
<title>Node1&#45;&gt;Node2</title>
<g id="a_edge1_Node000001_Node000002"><a xlink:title=" ">
<path fill="none" stroke="#63b8ff" d="M32.23,-167.78C22.61,-159.59 9.83,-146.66 4.26,-132 -9.49,-95.83 14.22,-52.6 30.62,-28.85"/>
<polygon fill="#63b8ff" stroke="#63b8ff" points="33.85,-31.36 36.87,-21.2 28.17,-27.26 33.85,-31.36"/>
</a>
</g>
</g>
<!-- Node3 -->
<g id="Node000003" class="node">
<title>Node3</title>
<g id="a_Node000003"><a xlink:href="_sync_led_8h.html" target="_top" xlink:title="Class to blink and LED in a specific pattern to syncronize the data from the microcontroler with opti...">
<polygon fill="white" stroke="#666666" points="75.51,-132 13.01,-132 13.01,-112 75.51,-112 75.51,-132"/>
<text text-anchor="middle" x="44.26" y="-118.5" font-family="Helvetica,sans-Serif" font-size="10.00">SyncLed.h</text>
</a>
</g>
</g>
<!-- Node1&#45;&gt;Node3 -->
<g id="edge2_Node000001_Node000003" class="edge">
<title>Node1&#45;&gt;Node3</title>
<g id="a_edge2_Node000001_Node000003"><a xlink:title=" ">
<path fill="none" stroke="#63b8ff" d="M44.26,-167.59C44.26,-160.86 44.26,-151.53 44.26,-143.15"/>
<polygon fill="#63b8ff" stroke="#63b8ff" points="47.76,-143.3 44.26,-133.3 40.76,-143.3 47.76,-143.3"/>
</a>
</g>
</g>
<!-- Node4 -->
<g id="Node000004" class="node">
<title>Node4</title>
<g id="a_Node000004"><a xlink:href="_logger_8h.html" target="_top" xlink:title=" ">
<polygon fill="white" stroke="#666666" points="147.01,-132 93.51,-132 93.51,-112 147.01,-112 147.01,-132"/>
<text text-anchor="middle" x="120.26" y="-118.5" font-family="Helvetica,sans-Serif" font-size="10.00">Logger.h</text>
</a>
</g>
</g>
<!-- Node1&#45;&gt;Node4 -->
<g id="edge3_Node000001_Node000004" class="edge">
<title>Node1&#45;&gt;Node4</title>
<g id="a_edge3_Node000001_Node000004"><a xlink:title=" ">
<path fill="none" stroke="#63b8ff" d="M57.5,-167.59C68.66,-159.67 84.86,-148.16 98,-138.82"/>
<polygon fill="#63b8ff" stroke="#63b8ff" points="99.8,-141.12 105.92,-132.48 95.74,-135.42 99.8,-141.12"/>
</a>
</g>
</g>
<!-- Node4&#45;&gt;Node2 -->
<g id="edge4_Node000004_Node000002" class="edge">
<title>Node4&#45;&gt;Node2</title>
<g id="a_edge4_Node000004_Node000002"><a xlink:title=" ">
<path fill="none" stroke="#63b8ff" d="M103.17,-111.5C90.41,-103.58 73.49,-91.16 63.26,-76 54.11,-62.43 49.29,-44.4 46.8,-30.77"/>
<polygon fill="#63b8ff" stroke="#63b8ff" points="50.15,-30.49 45.16,-21.15 43.23,-31.56 50.15,-30.49"/>
</a>
</g>
</g>
<!-- Node5 -->
<g id="Node000005" class="node">
<title>Node5</title>
<g id="a_Node000005"><a xlink:href="_log_levels_8h.html" target="_top" xlink:title=" ">
<polygon fill="white" stroke="#666666" points="171.76,-20 104.76,-20 104.76,0 171.76,0 171.76,-20"/>
<text text-anchor="middle" x="138.26" y="-6.5" font-family="Helvetica,sans-Serif" font-size="10.00">LogLevels.h</text>
</a>
</g>
</g>
<!-- Node4&#45;&gt;Node5 -->
<g id="edge5_Node000004_Node000005" class="edge">
<title>Node4&#45;&gt;Node5</title>
<g id="a_edge5_Node000004_Node000005"><a xlink:title=" ">
<path fill="none" stroke="#63b8ff" d="M123.51,-111.82C126.56,-102.82 130.97,-88.64 133.26,-76 135.95,-61.15 137.19,-44.13 137.77,-31.23"/>
<polygon fill="#63b8ff" stroke="#63b8ff" points="141.3,-31.45 138.14,-21.33 134.3,-31.21 141.3,-31.45"/>
</a>
</g>
</g>
<!-- Node6 -->
<g id="Node000006" class="node">
<title>Node6</title>
<g id="a_Node000006"><a xlink:href="_config_8h.html" target="_top" xlink:title="Configuration variables for the codebase.">
<polygon fill="white" stroke="#666666" points="123.89,-76 72.64,-76 72.64,-56 123.89,-56 123.89,-76"/>
<text text-anchor="middle" x="98.26" y="-62.5" font-family="Helvetica,sans-Serif" font-size="10.00">Config.h</text>
</a>
</g>
</g>
<!-- Node4&#45;&gt;Node6 -->
<g id="edge6_Node000004_Node000006" class="edge">
<title>Node4&#45;&gt;Node6</title>
<g id="a_edge6_Node000004_Node000006"><a xlink:title=" ">
<path fill="none" stroke="#63b8ff" d="M116.43,-111.59C113.59,-104.63 109.62,-94.89 106.12,-86.29"/>
<polygon fill="#63b8ff" stroke="#63b8ff" points="109.06,-85.24 102.05,-77.3 102.58,-87.88 109.06,-85.24"/>
</a>
</g>
</g>
<!-- Node6&#45;&gt;Node2 -->
<g id="edge7_Node000006_Node000002" class="edge">
<title>Node6&#45;&gt;Node2</title>
<g id="a_edge7_Node000006_Node000002"><a xlink:title=" ">
<path fill="none" stroke="#63b8ff" d="M88.86,-55.59C81.27,-48.01 70.4,-37.13 61.29,-28.02"/>
<polygon fill="#63b8ff" stroke="#63b8ff" points="64.11,-25.89 54.56,-21.3 59.16,-30.84 64.11,-25.89"/>
</a>
</g>
</g>
<!-- Node6&#45;&gt;Node5 -->
<g id="edge8_Node000006_Node000005" class="edge">
<title>Node6&#45;&gt;Node5</title>
<g id="a_edge8_Node000006_Node000005"><a xlink:title=" ">
<path fill="none" stroke="#63b8ff" d="M105.23,-55.59C110.68,-48.24 118.41,-37.8 125.03,-28.87"/>
<polygon fill="#63b8ff" stroke="#63b8ff" points="128.23,-31.42 131.37,-21.3 122.61,-27.25 128.23,-31.42"/>
</a>
</g>
</g>
</g>
</svg>
