<?xml version="1.0" encoding="UTF-8" standalone="no"?>
<!DOCTYPE svg PUBLIC "-//W3C//DTD SVG 1.1//EN"
 "http://www.w3.org/Graphics/SVG/1.1/DTD/svg11.dtd">
<!-- Generated by graphviz version 8.1.0 (20230707.0739)
 -->
<!-- Title: ThIMU.cpp Pages: 1 -->
<svg width="186pt" height="196pt"
 viewBox="0.00 0.00 185.50 196.00" xmlns="http://www.w3.org/2000/svg" xmlns:xlink="http://www.w3.org/1999/xlink">
<g id="graph0" class="graph" transform="scale(1 1) rotate(0) translate(4 192)">
<title>ThIMU.cpp</title>
<!-- Node1 -->
<g id="Node000001" class="node">
<title>Node1</title>
<g id="a_Node000001"><a xlink:title=" ">
<polygon fill="#999999" stroke="#666666" points="92.25,-188 29.75,-188 29.75,-168 92.25,-168 92.25,-188"/>
<text text-anchor="middle" x="61" y="-174.5" font-family="Helvetica,sans-Serif" font-size="10.00">ThIMU.cpp</text>
</a>
</g>
</g>
<!-- Node2 -->
<g id="Node000002" class="node">
<title>Node2</title>
<g id="a_Node000002"><a xlink:href="_th_i_m_u_8h.html" target="_top" xlink:title=" ">
<polygon fill="white" stroke="#666666" points="52,-132 0,-132 0,-112 52,-112 52,-132"/>
<text text-anchor="middle" x="26" y="-118.5" font-family="Helvetica,sans-Serif" font-size="10.00">ThIMU.h</text>
</a>
</g>
</g>
<!-- Node1&#45;&gt;Node2 -->
<g id="edge1_Node000001_Node000002" class="edge">
<title>Node1&#45;&gt;Node2</title>
<g id="a_edge1_Node000001_Node000002"><a xlink:title=" ">
<path fill="none" stroke="#63b8ff" d="M54.9,-167.59C50.24,-160.39 43.65,-150.23 37.95,-141.43"/>
<polygon fill="#63b8ff" stroke="#63b8ff" points="40.4,-139.79 32.03,-133.3 34.53,-143.59 40.4,-139.79"/>
</a>
</g>
</g>
<!-- Node3 -->
<g id="Node000003" class="node">
<title>Node3</title>
<g id="a_Node000003"><a xlink:href="_logger_8h.html" target="_top" xlink:title=" ">
<polygon fill="white" stroke="#666666" points="123.75,-132 70.25,-132 70.25,-112 123.75,-112 123.75,-132"/>
<text text-anchor="middle" x="97" y="-118.5" font-family="Helvetica,sans-Serif" font-size="10.00">Logger.h</text>
</a>
</g>
</g>
<!-- Node1&#45;&gt;Node3 -->
<g id="edge2_Node000001_Node000003" class="edge">
<title>Node1&#45;&gt;Node3</title>
<g id="a_edge2_Node000001_Node000003"><a xlink:title=" ">
<path fill="none" stroke="#63b8ff" d="M67.27,-167.59C72.07,-160.39 78.84,-150.23 84.71,-141.43"/>
<polygon fill="#63b8ff" stroke="#63b8ff" points="88.17,-143.56 90.8,-133.3 82.34,-139.68 88.17,-143.56"/>
</a>
</g>
</g>
<!-- Node4 -->
<g id="Node000004" class="node">
<title>Node4</title>
<g id="a_Node000004"><a xlink:title=" ">
<polygon fill="#e0e0e0" stroke="#999999" points="85.63,-20 28.38,-20 28.38,0 85.63,0 85.63,-20"/>
<text text-anchor="middle" x="57" y="-6.5" font-family="Helvetica,sans-Serif" font-size="10.00">Arduino.h</text>
</a>
</g>
</g>
<!-- Node3&#45;&gt;Node4 -->
<g id="edge3_Node000003_Node000004" class="edge">
<title>Node3&#45;&gt;Node4</title>
<g id="a_edge3_Node000003_Node000004"><a xlink:title=" ">
<path fill="none" stroke="#63b8ff" d="M87.05,-111.7C78.75,-103.27 67.42,-90.03 62,-76 56.44,-61.61 55.38,-44.12 55.61,-30.91"/>
<polygon fill="#63b8ff" stroke="#63b8ff" points="59.14,-31.34 56.09,-21.19 52.14,-31.03 59.14,-31.34"/>
</a>
</g>
</g>
<!-- Node5 -->
<g id="Node000005" class="node">
<title>Node5</title>
<g id="a_Node000005"><a xlink:href="_log_levels_8h.html" target="_top" xlink:title=" ">
<polygon fill="white" stroke="#666666" points="177.5,-20 110.5,-20 110.5,0 177.5,0 177.5,-20"/>
<text text-anchor="middle" x="144" y="-6.5" font-family="Helvetica,sans-Serif" font-size="10.00">LogLevels.h</text>
</a>
</g>
</g>
<!-- Node3&#45;&gt;Node5 -->
<g id="edge4_Node000003_Node000005" class="edge">
<title>Node3&#45;&gt;Node5</title>
<g id="a_edge4_Node000003_Node000005"><a xlink:title=" ">
<path fill="none" stroke="#63b8ff" d="M106.59,-111.55C114.66,-103.02 125.84,-89.73 132,-76 138.4,-61.73 141.39,-44.23 142.78,-30.99"/>
<polygon fill="#63b8ff" stroke="#63b8ff" points="146.34,-31.49 143.67,-21.24 139.36,-30.92 146.34,-31.49"/>
</a>
</g>
</g>
<!-- Node6 -->
<g id="Node000006" class="node">
<title>Node6</title>
<g id="a_Node000006"><a xlink:href="_config_8h.html" target="_top" xlink:title="Configuration variables for the codebase.">
<polygon fill="white" stroke="#666666" points="122.63,-76 71.38,-76 71.38,-56 122.63,-56 122.63,-76"/>
<text text-anchor="middle" x="97" y="-62.5" font-family="Helvetica,sans-Serif" font-size="10.00">Config.h</text>
</a>
</g>
</g>
<!-- Node3&#45;&gt;Node6 -->
<g id="edge5_Node000003_Node000006" class="edge">
<title>Node3&#45;&gt;Node6</title>
<g id="a_edge5_Node000003_Node000006"><a xlink:title=" ">
<path fill="none" stroke="#63b8ff" d="M97,-111.59C97,-104.86 97,-95.53 97,-87.15"/>
<polygon fill="#63b8ff" stroke="#63b8ff" points="100.5,-87.3 97,-77.3 93.5,-87.3 100.5,-87.3"/>
</a>
</g>
</g>
<!-- Node6&#45;&gt;Node4 -->
<g id="edge6_Node000006_Node000004" class="edge">
<title>Node6&#45;&gt;Node4</title>
<g id="a_edge6_Node000006_Node000004"><a xlink:title=" ">
<path fill="none" stroke="#63b8ff" d="M90.03,-55.59C84.58,-48.24 76.85,-37.8 70.23,-28.87"/>
<polygon fill="#63b8ff" stroke="#63b8ff" points="72.65,-27.25 63.89,-21.3 67.03,-31.42 72.65,-27.25"/>
</a>
</g>
</g>
<!-- Node6&#45;&gt;Node5 -->
<g id="edge7_Node000006_Node000005" class="edge">
<title>Node6&#45;&gt;Node5</title>
<g id="a_edge7_Node000006_Node000005"><a xlink:title=" ">
<path fill="none" stroke="#63b8ff" d="M105.19,-55.59C111.66,-48.16 120.87,-37.58 128.7,-28.58"/>
<polygon fill="#63b8ff" stroke="#63b8ff" points="131.98,-31.14 135.91,-21.3 126.7,-26.54 131.98,-31.14"/>
</a>
</g>
</g>
</g>
</svg>
