<?xml version="1.0" encoding="UTF-8" standalone="no"?>
<!DOCTYPE svg PUBLIC "-//W3C//DTD SVG 1.1//EN"
 "http://www.w3.org/Graphics/SVG/1.1/DTD/svg11.dtd">
<!-- Generated by graphviz version 8.1.0 (20230707.0739)
 -->
<!-- Title: Time_Helper.h Pages: 1 -->
<svg width="340pt" height="84pt"
 viewBox="0.00 0.00 340.38 84.00" xmlns="http://www.w3.org/2000/svg" xmlns:xlink="http://www.w3.org/1999/xlink">
<g id="graph0" class="graph" transform="scale(1 1) rotate(0) translate(4 80)">
<title>Time_Helper.h</title>
<!-- Node1 -->
<g id="Node000001" class="node">
<title>Node1</title>
<g id="a_Node000001"><a xlink:title=" ">
<polygon fill="#999999" stroke="#666666" points="201.13,-76 122.88,-76 122.88,-56 201.13,-56 201.13,-76"/>
<text text-anchor="middle" x="162" y="-62.5" font-family="Helvetica,sans-Serif" font-size="10.00">Time_Helper.h</text>
</a>
</g>
</g>
<!-- Node2 -->
<g id="Node000002" class="node">
<title>Node2</title>
<g id="a_Node000002"><a xlink:href="_coms_m_c_u_8cpp.html" target="_top" xlink:title=" ">
<polygon fill="white" stroke="#666666" points="82,-20 0,-20 0,0 82,0 82,-20"/>
<text text-anchor="middle" x="41" y="-6.5" font-family="Helvetica,sans-Serif" font-size="10.00">ComsMCU.cpp</text>
</a>
</g>
</g>
<!-- Node1&#45;&gt;Node2 -->
<g id="edge1_Node000001_Node000002" class="edge">
<title>Node1&#45;&gt;Node2</title>
<g id="a_edge1_Node000001_Node000002"><a xlink:title=" ">
<path fill="none" stroke="#63b8ff" d="M130.94,-51.14C109.4,-41.52 81.26,-28.97 62.24,-20.48"/>
<polygon fill="#63b8ff" stroke="#63b8ff" points="129.37,-54.71 139.92,-55.59 132.22,-48.32 129.37,-54.71"/>
</a>
</g>
</g>
<!-- Node3 -->
<g id="Node000003" class="node">
<title>Node3</title>
<g id="a_Node000003"><a xlink:href="_exo_8cpp.html" target="_top" xlink:title=" ">
<polygon fill="white" stroke="#666666" points="152,-20 100,-20 100,0 152,0 152,-20"/>
<text text-anchor="middle" x="126" y="-6.5" font-family="Helvetica,sans-Serif" font-size="10.00">Exo.cpp</text>
</a>
</g>
</g>
<!-- Node1&#45;&gt;Node3 -->
<g id="edge2_Node000001_Node000003" class="edge">
<title>Node1&#45;&gt;Node3</title>
<g id="a_edge2_Node000001_Node000003"><a xlink:title=" ">
<path fill="none" stroke="#63b8ff" d="M149.81,-46.72C143.89,-37.84 137.03,-27.55 132.2,-20.3"/>
<polygon fill="#63b8ff" stroke="#63b8ff" points="147.27,-48.21 155.73,-54.59 153.09,-44.33 147.27,-48.21"/>
</a>
</g>
</g>
<!-- Node4 -->
<g id="Node000004" class="node">
<title>Node4</title>
<g id="a_Node000004"><a xlink:href="_joint_8cpp.html" target="_top" xlink:title=" ">
<polygon fill="white" stroke="#666666" points="225.5,-20 170.5,-20 170.5,0 225.5,0 225.5,-20"/>
<text text-anchor="middle" x="198" y="-6.5" font-family="Helvetica,sans-Serif" font-size="10.00">Joint.cpp</text>
</a>
</g>
</g>
<!-- Node1&#45;&gt;Node4 -->
<g id="edge3_Node000001_Node000004" class="edge">
<title>Node1&#45;&gt;Node4</title>
<g id="a_edge3_Node000001_Node000004"><a xlink:title=" ">
<path fill="none" stroke="#63b8ff" d="M174.19,-46.72C180.11,-37.84 186.97,-27.55 191.8,-20.3"/>
<polygon fill="#63b8ff" stroke="#63b8ff" points="170.91,-44.33 168.27,-54.59 176.73,-48.21 170.91,-44.33"/>
</a>
</g>
</g>
<!-- Node5 -->
<g id="Node000005" class="node">
<title>Node5</title>
<g id="a_Node000005"><a xlink:href="_time___helper_8cpp.html" target="_top" xlink:title=" ">
<polygon fill="white" stroke="#666666" points="332.38,-20 243.63,-20 243.63,0 332.38,0 332.38,-20"/>
<text text-anchor="middle" x="288" y="-6.5" font-family="Helvetica,sans-Serif" font-size="10.00">Time_Helper.cpp</text>
</a>
</g>
</g>
<!-- Node1&#45;&gt;Node5 -->
<g id="edge4_Node000001_Node000005" class="edge">
<title>Node1&#45;&gt;Node5</title>
<g id="a_edge4_Node000001_Node000005"><a xlink:title=" ">
<path fill="none" stroke="#63b8ff" d="M194.03,-51.27C216.51,-41.64 245.98,-29.01 265.88,-20.48"/>
<polygon fill="#63b8ff" stroke="#63b8ff" points="192.76,-48.44 184.95,-55.59 195.52,-54.87 192.76,-48.44"/>
</a>
</g>
</g>
</g>
</svg>
