<?xml version="1.0" encoding="UTF-8" standalone="no"?>
<!DOCTYPE svg PUBLIC "-//W3C//DTD SVG 1.1//EN"
 "http://www.w3.org/Graphics/SVG/1.1/DTD/svg11.dtd">
<!-- Generated by graphviz version 8.1.0 (20230707.0739)
 -->
<!-- Title: Time_Helper.cpp Pages: 1 -->
<svg width="223pt" height="196pt"
 viewBox="0.00 0.00 222.75 196.00" xmlns="http://www.w3.org/2000/svg" xmlns:xlink="http://www.w3.org/1999/xlink">

<svg id="main" version="1.1" xmlns="http://www.w3.org/2000/svg" xmlns:xlink="http://www.w3.org/1999/xlink" xml:space="preserve" onload="init(evt)">
<style type="text/css"><![CDATA[
.node, .edge {opacity: 0.7;}
.node.selected, .edge.selected {opacity: 1;}
.edge:hover path { stroke: red; }
.edge:hover polygon { stroke: red; fill: red; }
]]></style>
<script type="application/ecmascript" xlink:href="svg.min.js"/>
<svg id="graph" class="graph">
<g id="graph0" class="graph" transform="scale(1 1) rotate(0) translate(4 192)">
<title>Time_Helper.cpp</title>
<!-- Node1 -->
<g id="Node000001" class="node">
<title>Node1</title>
<g id="a_Node000001"><a xlink:title=" ">
<polygon fill="#999999" stroke="#666666" points="176.5,-188 87.75,-188 87.75,-168 176.5,-168 176.5,-188"/>
<text text-anchor="middle" x="132.13" y="-174.5" font-family="Helvetica,sans-Serif" font-size="10.00">Time_Helper.cpp</text>
</a>
</g>
</g>
<!-- Node2 -->
<g id="Node000002" class="node">
<title>Node2</title>
<g id="a_Node000002"><a xlink:href="_time___helper_8h.html" target="_top" xlink:title=" ">
<polygon fill="white" stroke="#666666" points="78.25,-132 0,-132 0,-112 78.25,-112 78.25,-132"/>
<text text-anchor="middle" x="39.13" y="-118.5" font-family="Helvetica,sans-Serif" font-size="10.00">Time_Helper.h</text>
</a>
</g>
</g>
<!-- Node1&#45;&gt;Node2 -->
<g id="edge1_Node000001_Node000002" class="edge">
<title>Node1&#45;&gt;Node2</title>
<g id="a_edge1_Node000001_Node000002"><a xlink:title=" ">
<path fill="none" stroke="#63b8ff" d="M115.93,-167.59C101.74,-159.36 80.9,-147.26 64.51,-137.74"/>
<polygon fill="#63b8ff" stroke="#63b8ff" points="66.86,-134.47 56.45,-132.48 63.34,-140.53 66.86,-134.47"/>
</a>
</g>
</g>
<!-- Node4 -->
<g id="Node000004" class="node">
<title>Node4</title>
<g id="a_Node000004"><a xlink:href="_logger_8h.html" target="_top" xlink:title=" ">
<polygon fill="white" stroke="#666666" points="158.88,-132 105.38,-132 105.38,-112 158.88,-112 158.88,-132"/>
<text text-anchor="middle" x="132.13" y="-118.5" font-family="Helvetica,sans-Serif" font-size="10.00">Logger.h</text>
</a>
</g>
</g>
<!-- Node1&#45;&gt;Node4 -->
<g id="edge3_Node000001_Node000004" class="edge">
<title>Node1&#45;&gt;Node4</title>
<g id="a_edge3_Node000001_Node000004"><a xlink:title=" ">
<path fill="none" stroke="#63b8ff" d="M132.13,-167.59C132.13,-160.86 132.13,-151.53 132.13,-143.15"/>
<polygon fill="#63b8ff" stroke="#63b8ff" points="135.63,-143.3 132.13,-133.3 128.63,-143.3 135.63,-143.3"/>
</a>
</g>
</g>
<!-- Node5 -->
<g id="Node000005" class="node">
<title>Node5</title>
<g id="a_Node000005"><a xlink:title=" ">
<polygon fill="#e0e0e0" stroke="#999999" points="214.75,-20 157.5,-20 157.5,0 214.75,0 214.75,-20"/>
<text text-anchor="middle" x="186.13" y="-6.5" font-family="Helvetica,sans-Serif" font-size="10.00">Arduino.h</text>
</a>
</g>
</g>
<!-- Node1&#45;&gt;Node5 -->
<g id="edge9_Node000001_Node000005" class="edge">
<title>Node1&#45;&gt;Node5</title>
<g id="a_edge9_Node000001_Node000005"><a xlink:title=" ">
<path fill="none" stroke="#63b8ff" d="M141.35,-167.78C149.47,-159.19 161.06,-145.69 168.13,-132 184.87,-99.56 187.24,-56.14 187,-31.1"/>
<polygon fill="#63b8ff" stroke="#63b8ff" points="190.48,-31.32 186.71,-21.42 183.48,-31.51 190.48,-31.32"/>
</a>
</g>
</g>
<!-- Node3 -->
<g id="Node000003" class="node">
<title>Node3</title>
<g id="a_Node000003"><a xlink:title=" ">
<polygon fill="#e0e0e0" stroke="#999999" points="49.88,-76 8.38,-76 8.38,-56 49.88,-56 49.88,-76"/>
<text text-anchor="middle" x="29.13" y="-62.5" font-family="Helvetica,sans-Serif" font-size="10.00">vector</text>
</a>
</g>
</g>
<!-- Node2&#45;&gt;Node3 -->
<g id="edge2_Node000002_Node000003" class="edge">
<title>Node2&#45;&gt;Node3</title>
<g id="a_edge2_Node000002_Node000003"><a xlink:title=" ">
<path fill="none" stroke="#63b8ff" d="M37.38,-111.59C36.12,-104.78 34.37,-95.32 32.8,-86.86"/>
<polygon fill="#63b8ff" stroke="#63b8ff" points="36.11,-86.49 30.85,-77.3 29.23,-87.77 36.11,-86.49"/>
</a>
</g>
</g>
<!-- Node4&#45;&gt;Node5 -->
<g id="edge4_Node000004_Node000005" class="edge">
<title>Node4&#45;&gt;Node5</title>
<g id="a_edge4_Node000004_Node000005"><a xlink:title=" ">
<path fill="none" stroke="#63b8ff" d="M141.06,-111.72C148.93,-103.1 160.19,-89.57 167.13,-76 174.42,-61.73 179.33,-44.24 182.33,-30.99"/>
<polygon fill="#63b8ff" stroke="#63b8ff" points="185.96,-31.74 184.56,-21.24 179.1,-30.32 185.96,-31.74"/>
</a>
</g>
</g>
<!-- Node6 -->
<g id="Node000006" class="node">
<title>Node6</title>
<g id="a_Node000006"><a xlink:href="_log_levels_8h.html" target="_top" xlink:title=" ">
<polygon fill="white" stroke="#666666" points="125.63,-20 58.63,-20 58.63,0 125.63,0 125.63,-20"/>
<text text-anchor="middle" x="92.13" y="-6.5" font-family="Helvetica,sans-Serif" font-size="10.00">LogLevels.h</text>
</a>
</g>
</g>
<!-- Node4&#45;&gt;Node6 -->
<g id="edge5_Node000004_Node000006" class="edge">
<title>Node4&#45;&gt;Node6</title>
<g id="a_edge5_Node000004_Node000006"><a xlink:title=" ">
<path fill="none" stroke="#63b8ff" d="M122.18,-111.7C113.87,-103.27 102.55,-90.03 97.13,-76 91.56,-61.61 90.51,-44.12 90.73,-30.91"/>
<polygon fill="#63b8ff" stroke="#63b8ff" points="94.26,-31.34 91.21,-21.19 87.27,-31.03 94.26,-31.34"/>
</a>
</g>
</g>
<!-- Node7 -->
<g id="Node000007" class="node">
<title>Node7</title>
<g id="a_Node000007"><a xlink:href="_config_8h.html" target="_top" xlink:title="Configuration variables for the codebase.">
<polygon fill="white" stroke="#666666" points="157.75,-76 106.5,-76 106.5,-56 157.75,-56 157.75,-76"/>
<text text-anchor="middle" x="132.13" y="-62.5" font-family="Helvetica,sans-Serif" font-size="10.00">Config.h</text>
</a>
</g>
</g>
<!-- Node4&#45;&gt;Node7 -->
<g id="edge6_Node000004_Node000007" class="edge">
<title>Node4&#45;&gt;Node7</title>
<g id="a_edge6_Node000004_Node000007"><a xlink:title=" ">
<path fill="none" stroke="#63b8ff" d="M132.13,-111.59C132.13,-104.86 132.13,-95.53 132.13,-87.15"/>
<polygon fill="#63b8ff" stroke="#63b8ff" points="135.63,-87.3 132.13,-77.3 128.63,-87.3 135.63,-87.3"/>
</a>
</g>
</g>
<!-- Node7&#45;&gt;Node5 -->
<g id="edge7_Node000007_Node000005" class="edge">
<title>Node7&#45;&gt;Node5</title>
<g id="a_edge7_Node000007_Node000005"><a xlink:title=" ">
<path fill="none" stroke="#63b8ff" d="M141.53,-55.59C149.12,-48.01 159.99,-37.13 169.1,-28.02"/>
<polygon fill="#63b8ff" stroke="#63b8ff" points="171.23,-30.84 175.83,-21.3 166.28,-25.89 171.23,-30.84"/>
</a>
</g>
</g>
<!-- Node7&#45;&gt;Node6 -->
<g id="edge8_Node000007_Node000006" class="edge">
<title>Node7&#45;&gt;Node6</title>
<g id="a_edge8_Node000007_Node000006"><a xlink:title=" ">
<path fill="none" stroke="#63b8ff" d="M125.16,-55.59C119.71,-48.24 111.97,-37.8 105.36,-28.87"/>
<polygon fill="#63b8ff" stroke="#63b8ff" points="107.78,-27.25 99.01,-21.3 102.15,-31.42 107.78,-27.25"/>
</a>
</g>
</g>
</g>
</svg>
</svg>

<style type='text/css'>
<![CDATA[
[data-mouse-over-selected='false'] { opacity: 0.7; }
[data-mouse-over-selected='true']  { opacity: 1.0; }
]]>
</style>
<script type="application/ecmascript"><![CDATA[
document.addEventListener('DOMContentLoaded', (event) => {
  highlightEdges();
  highlightAdjacentNodes();
});
]]></script>
</svg>
