<?xml version="1.0" encoding="UTF-8" standalone="no"?>
<!DOCTYPE svg PUBLIC "-//W3C//DTD SVG 1.1//EN"
 "http://www.w3.org/Graphics/SVG/1.1/DTD/svg11.dtd">
<!-- Generated by graphviz version 8.1.0 (20230707.0739)
 -->
<!-- Title: TorqueSensor.cpp Pages: 1 -->
<svg width="218pt" height="196pt"
 viewBox="0.00 0.00 217.63 196.00" xmlns="http://www.w3.org/2000/svg" xmlns:xlink="http://www.w3.org/1999/xlink">

<svg id="main" version="1.1" xmlns="http://www.w3.org/2000/svg" xmlns:xlink="http://www.w3.org/1999/xlink" xml:space="preserve" onload="init(evt)">
<style type="text/css"><![CDATA[
.node, .edge {opacity: 0.7;}
.node.selected, .edge.selected {opacity: 1;}
.edge:hover path { stroke: red; }
.edge:hover polygon { stroke: red; fill: red; }
]]></style>
<script type="application/ecmascript" xlink:href="svg.min.js"/>
<svg id="graph" class="graph">
<g id="graph0" class="graph" transform="scale(1 1) rotate(0) translate(4 192)">
<title>TorqueSensor.cpp</title>
<!-- Node1 -->
<g id="Node000001" class="node">
<title>Node1</title>
<g id="a_Node000001"><a xlink:title=" ">
<polygon fill="#999999" stroke="#666666" points="132.5,-188 37.75,-188 37.75,-168 132.5,-168 132.5,-188"/>
<text text-anchor="middle" x="85.13" y="-174.5" font-family="Helvetica,sans-Serif" font-size="10.00">TorqueSensor.cpp</text>
</a>
</g>
</g>
<!-- Node2 -->
<g id="Node000002" class="node">
<title>Node2</title>
<g id="a_Node000002"><a xlink:href="_torque_sensor_8h.html" target="_top" xlink:title="Declares the class that is used to interface with a torque sensor.">
<polygon fill="white" stroke="#666666" points="84.25,-132 0,-132 0,-112 84.25,-112 84.25,-132"/>
<text text-anchor="middle" x="42.13" y="-118.5" font-family="Helvetica,sans-Serif" font-size="10.00">TorqueSensor.h</text>
</a>
</g>
</g>
<!-- Node1&#45;&gt;Node2 -->
<g id="edge1_Node000001_Node000002" class="edge">
<title>Node1&#45;&gt;Node2</title>
<g id="a_edge1_Node000001_Node000002"><a xlink:title=" ">
<path fill="none" stroke="#63b8ff" d="M77.63,-167.59C71.78,-160.24 63.46,-149.8 56.35,-140.87"/>
<polygon fill="#63b8ff" stroke="#63b8ff" points="58.5,-138.94 49.53,-133.3 53.02,-143.3 58.5,-138.94"/>
</a>
</g>
</g>
<!-- Node3 -->
<g id="Node000003" class="node">
<title>Node3</title>
<g id="a_Node000003"><a xlink:href="_logger_8h.html" target="_top" xlink:title=" ">
<polygon fill="white" stroke="#666666" points="155.88,-132 102.38,-132 102.38,-112 155.88,-112 155.88,-132"/>
<text text-anchor="middle" x="129.13" y="-118.5" font-family="Helvetica,sans-Serif" font-size="10.00">Logger.h</text>
</a>
</g>
</g>
<!-- Node1&#45;&gt;Node3 -->
<g id="edge2_Node000001_Node000003" class="edge">
<title>Node1&#45;&gt;Node3</title>
<g id="a_edge2_Node000001_Node000003"><a xlink:title=" ">
<path fill="none" stroke="#63b8ff" d="M92.79,-167.59C98.85,-160.16 107.47,-149.58 114.8,-140.58"/>
<polygon fill="#63b8ff" stroke="#63b8ff" points="117.95,-143.26 121.55,-133.3 112.52,-138.84 117.95,-143.26"/>
</a>
</g>
</g>
<!-- Node4 -->
<g id="Node000004" class="node">
<title>Node4</title>
<g id="a_Node000004"><a xlink:title=" ">
<polygon fill="#e0e0e0" stroke="#999999" points="117.75,-20 60.5,-20 60.5,0 117.75,0 117.75,-20"/>
<text text-anchor="middle" x="89.13" y="-6.5" font-family="Helvetica,sans-Serif" font-size="10.00">Arduino.h</text>
</a>
</g>
</g>
<!-- Node3&#45;&gt;Node4 -->
<g id="edge3_Node000003_Node000004" class="edge">
<title>Node3&#45;&gt;Node4</title>
<g id="a_edge3_Node000003_Node000004"><a xlink:title=" ">
<path fill="none" stroke="#63b8ff" d="M119.18,-111.7C110.87,-103.27 99.55,-90.03 94.13,-76 88.56,-61.61 87.51,-44.12 87.73,-30.91"/>
<polygon fill="#63b8ff" stroke="#63b8ff" points="91.26,-31.34 88.21,-21.19 84.27,-31.03 91.26,-31.34"/>
</a>
</g>
</g>
<!-- Node5 -->
<g id="Node000005" class="node">
<title>Node5</title>
<g id="a_Node000005"><a xlink:href="_log_levels_8h.html" target="_top" xlink:title=" ">
<polygon fill="white" stroke="#666666" points="209.63,-20 142.63,-20 142.63,0 209.63,0 209.63,-20"/>
<text text-anchor="middle" x="176.13" y="-6.5" font-family="Helvetica,sans-Serif" font-size="10.00">LogLevels.h</text>
</a>
</g>
</g>
<!-- Node3&#45;&gt;Node5 -->
<g id="edge4_Node000003_Node000005" class="edge">
<title>Node3&#45;&gt;Node5</title>
<g id="a_edge4_Node000003_Node000005"><a xlink:title=" ">
<path fill="none" stroke="#63b8ff" d="M138.71,-111.55C146.78,-103.02 157.97,-89.73 164.13,-76 170.53,-61.73 173.51,-44.23 174.91,-30.99"/>
<polygon fill="#63b8ff" stroke="#63b8ff" points="178.46,-31.49 175.79,-21.24 171.48,-30.92 178.46,-31.49"/>
</a>
</g>
</g>
<!-- Node6 -->
<g id="Node000006" class="node">
<title>Node6</title>
<g id="a_Node000006"><a xlink:href="_config_8h.html" target="_top" xlink:title="Configuration variables for the codebase.">
<polygon fill="white" stroke="#666666" points="154.75,-76 103.5,-76 103.5,-56 154.75,-56 154.75,-76"/>
<text text-anchor="middle" x="129.13" y="-62.5" font-family="Helvetica,sans-Serif" font-size="10.00">Config.h</text>
</a>
</g>
</g>
<!-- Node3&#45;&gt;Node6 -->
<g id="edge5_Node000003_Node000006" class="edge">
<title>Node3&#45;&gt;Node6</title>
<g id="a_edge5_Node000003_Node000006"><a xlink:title=" ">
<path fill="none" stroke="#63b8ff" d="M129.13,-111.59C129.13,-104.86 129.13,-95.53 129.13,-87.15"/>
<polygon fill="#63b8ff" stroke="#63b8ff" points="132.63,-87.3 129.13,-77.3 125.63,-87.3 132.63,-87.3"/>
</a>
</g>
</g>
<!-- Node6&#45;&gt;Node4 -->
<g id="edge6_Node000006_Node000004" class="edge">
<title>Node6&#45;&gt;Node4</title>
<g id="a_edge6_Node000006_Node000004"><a xlink:title=" ">
<path fill="none" stroke="#63b8ff" d="M122.16,-55.59C116.71,-48.24 108.97,-37.8 102.36,-28.87"/>
<polygon fill="#63b8ff" stroke="#63b8ff" points="104.78,-27.25 96.01,-21.3 99.15,-31.42 104.78,-27.25"/>
</a>
</g>
</g>
<!-- Node6&#45;&gt;Node5 -->
<g id="edge7_Node000006_Node000005" class="edge">
<title>Node6&#45;&gt;Node5</title>
<g id="a_edge7_Node000006_Node000005"><a xlink:title=" ">
<path fill="none" stroke="#63b8ff" d="M137.31,-55.59C143.78,-48.16 152.99,-37.58 160.82,-28.58"/>
<polygon fill="#63b8ff" stroke="#63b8ff" points="164.11,-31.14 168.03,-21.3 158.83,-26.54 164.11,-31.14"/>
</a>
</g>
</g>
</g>
</svg>
</svg>

<style type='text/css'>
<![CDATA[
[data-mouse-over-selected='false'] { opacity: 0.7; }
[data-mouse-over-selected='true']  { opacity: 1.0; }
]]>
</style>
<script type="application/ecmascript"><![CDATA[
document.addEventListener('DOMContentLoaded', (event) => {
  highlightEdges();
  highlightAdjacentNodes();
});
]]></script>
</svg>
