<?xml version="1.0" encoding="UTF-8" standalone="no"?>
<!DOCTYPE svg PUBLIC "-//W3C//DTD SVG 1.1//EN"
 "http://www.w3.org/Graphics/SVG/1.1/DTD/svg11.dtd">
<!-- Generated by graphviz version 8.1.0 (20230707.0739)
 -->
<!-- Title: UART_msg_t.h Pages: 1 -->
<svg width="188pt" height="196pt"
 viewBox="0.00 0.00 187.50 196.00" xmlns="http://www.w3.org/2000/svg" xmlns:xlink="http://www.w3.org/1999/xlink">
<g id="graph0" class="graph" transform="scale(1 1) rotate(0) translate(4 192)">
<title>UART_msg_t.h</title>
<!-- Node1 -->
<g id="Node000001" class="node">
<title>Node1</title>
<g id="a_Node000001"><a xlink:title=" ">
<polygon fill="#999999" stroke="#666666" points="82,-188 0,-188 0,-168 82,-168 82,-188"/>
<text text-anchor="middle" x="41" y="-174.5" font-family="Helvetica,sans-Serif" font-size="10.00">UART_msg_t.h</text>
</a>
</g>
</g>
<!-- Node2 -->
<g id="Node000002" class="node">
<title>Node2</title>
<g id="a_Node000002"><a xlink:title=" ">
<polygon fill="#e0e0e0" stroke="#999999" points="80.63,-20 23.38,-20 23.38,0 80.63,0 80.63,-20"/>
<text text-anchor="middle" x="52" y="-6.5" font-family="Helvetica,sans-Serif" font-size="10.00">Arduino.h</text>
</a>
</g>
</g>
<!-- Node1&#45;&gt;Node2 -->
<g id="edge1_Node000001_Node000002" class="edge">
<title>Node1&#45;&gt;Node2</title>
<g id="a_edge1_Node000001_Node000002"><a xlink:title=" ">
<path fill="none" stroke="#63b8ff" d="M41.62,-167.6C43.36,-141.35 48.3,-66.84 50.68,-30.89"/>
<polygon fill="#63b8ff" stroke="#63b8ff" points="54.21,-31.51 51.38,-21.3 47.23,-31.04 54.21,-31.51"/>
</a>
</g>
</g>
<!-- Node3 -->
<g id="Node000003" class="node">
<title>Node3</title>
<g id="a_Node000003"><a xlink:href="_logger_8h.html" target="_top" xlink:title=" ">
<polygon fill="white" stroke="#666666" points="113.75,-132 60.25,-132 60.25,-112 113.75,-112 113.75,-132"/>
<text text-anchor="middle" x="87" y="-118.5" font-family="Helvetica,sans-Serif" font-size="10.00">Logger.h</text>
</a>
</g>
</g>
<!-- Node1&#45;&gt;Node3 -->
<g id="edge2_Node000001_Node000003" class="edge">
<title>Node1&#45;&gt;Node3</title>
<g id="a_edge2_Node000001_Node000003"><a xlink:title=" ">
<path fill="none" stroke="#63b8ff" d="M49.01,-167.59C55.34,-160.16 64.36,-149.58 72.02,-140.58"/>
<polygon fill="#63b8ff" stroke="#63b8ff" points="75.26,-143.18 79.08,-133.3 69.93,-138.64 75.26,-143.18"/>
</a>
</g>
</g>
<!-- Node3&#45;&gt;Node2 -->
<g id="edge3_Node000003_Node000002" class="edge">
<title>Node3&#45;&gt;Node2</title>
<g id="a_edge3_Node000003_Node000002"><a xlink:title=" ">
<path fill="none" stroke="#63b8ff" d="M83.53,-111.75C80.18,-102.68 75.03,-88.46 71,-76 66.12,-60.93 61.11,-43.71 57.47,-30.79"/>
<polygon fill="#63b8ff" stroke="#63b8ff" points="60.6,-30 54.54,-21.31 53.86,-31.88 60.6,-30"/>
</a>
</g>
</g>
<!-- Node4 -->
<g id="Node000004" class="node">
<title>Node4</title>
<g id="a_Node000004"><a xlink:href="_log_levels_8h.html" target="_top" xlink:title=" ">
<polygon fill="white" stroke="#666666" points="179.5,-20 112.5,-20 112.5,0 179.5,0 179.5,-20"/>
<text text-anchor="middle" x="146" y="-6.5" font-family="Helvetica,sans-Serif" font-size="10.00">LogLevels.h</text>
</a>
</g>
</g>
<!-- Node3&#45;&gt;Node4 -->
<g id="edge4_Node000003_Node000004" class="edge">
<title>Node3&#45;&gt;Node4</title>
<g id="a_edge4_Node000003_Node000004"><a xlink:title=" ">
<path fill="none" stroke="#63b8ff" d="M104.6,-111.5C117.09,-103.73 133,-91.51 141,-76 148.07,-62.29 149.03,-44.76 148.38,-31.36"/>
<polygon fill="#63b8ff" stroke="#63b8ff" points="151.79,-31.11 147.46,-21.44 144.82,-31.7 151.79,-31.11"/>
</a>
</g>
</g>
<!-- Node5 -->
<g id="Node000005" class="node">
<title>Node5</title>
<g id="a_Node000005"><a xlink:href="_config_8h.html" target="_top" xlink:title="Configuration variables for the codebase.">
<polygon fill="white" stroke="#666666" points="131.63,-76 80.38,-76 80.38,-56 131.63,-56 131.63,-76"/>
<text text-anchor="middle" x="106" y="-62.5" font-family="Helvetica,sans-Serif" font-size="10.00">Config.h</text>
</a>
</g>
</g>
<!-- Node3&#45;&gt;Node5 -->
<g id="edge5_Node000003_Node000005" class="edge">
<title>Node3&#45;&gt;Node5</title>
<g id="a_edge5_Node000003_Node000005"><a xlink:title=" ">
<path fill="none" stroke="#63b8ff" d="M90.31,-111.59C92.73,-104.7 96.11,-95.1 99.11,-86.57"/>
<polygon fill="#63b8ff" stroke="#63b8ff" points="102.71,-87.89 102.73,-77.3 96.11,-85.57 102.71,-87.89"/>
</a>
</g>
</g>
<!-- Node5&#45;&gt;Node2 -->
<g id="edge6_Node000005_Node000002" class="edge">
<title>Node5&#45;&gt;Node2</title>
<g id="a_edge6_Node000005_Node000002"><a xlink:title=" ">
<path fill="none" stroke="#63b8ff" d="M96.59,-55.59C89.01,-48.01 78.13,-37.13 69.02,-28.02"/>
<polygon fill="#63b8ff" stroke="#63b8ff" points="71.84,-25.89 62.3,-21.3 66.89,-30.84 71.84,-25.89"/>
</a>
</g>
</g>
<!-- Node5&#45;&gt;Node4 -->
<g id="edge7_Node000005_Node000004" class="edge">
<title>Node5&#45;&gt;Node4</title>
<g id="a_edge7_Node000005_Node000004"><a xlink:title=" ">
<path fill="none" stroke="#63b8ff" d="M112.97,-55.59C118.42,-48.24 126.15,-37.8 132.77,-28.87"/>
<polygon fill="#63b8ff" stroke="#63b8ff" points="135.97,-31.42 139.11,-21.3 130.35,-27.25 135.97,-31.42"/>
</a>
</g>
</g>
</g>
</svg>
