<?xml version="1.0" encoding="UTF-8" standalone="no"?>
<!DOCTYPE svg PUBLIC "-//W3C//DTD SVG 1.1//EN"
 "http://www.w3.org/Graphics/SVG/1.1/DTD/svg11.dtd">
<!-- Generated by graphviz version 8.1.0 (20230707.0739)
 -->
<!-- Title: UARTHandler.h Pages: 1 -->
<svg width="433pt" height="252pt"
 viewBox="0.00 0.00 432.63 252.00" xmlns="http://www.w3.org/2000/svg" xmlns:xlink="http://www.w3.org/1999/xlink">
<g id="graph0" class="graph" transform="scale(1 1) rotate(0) translate(4 248)">
<title>UARTHandler.h</title>
<!-- Node1 -->
<g id="Node000001" class="node">
<title>Node1</title>
<g id="a_Node000001"><a xlink:title="Singleton class that manages the UART data. NOT THREAD SAFE. The class queues recieved messages.">
<polygon fill="#999999" stroke="#666666" points="268.38,-244 185.63,-244 185.63,-224 268.38,-224 268.38,-244"/>
<text text-anchor="middle" x="227" y="-230.5" font-family="Helvetica,sans-Serif" font-size="10.00">UARTHandler.h</text>
</a>
</g>
</g>
<!-- Node2 -->
<g id="Node000002" class="node">
<title>Node2</title>
<g id="a_Node000002"><a xlink:href="_coms_m_c_u_8cpp.html" target="_top" xlink:title=" ">
<polygon fill="white" stroke="#666666" points="82,-132 0,-132 0,-112 82,-112 82,-132"/>
<text text-anchor="middle" x="41" y="-118.5" font-family="Helvetica,sans-Serif" font-size="10.00">ComsMCU.cpp</text>
</a>
</g>
</g>
<!-- Node1&#45;&gt;Node2 -->
<g id="edge1_Node000001_Node000002" class="edge">
<title>Node1&#45;&gt;Node2</title>
<g id="a_edge1_Node000001_Node000002"><a xlink:title=" ">
<path fill="none" stroke="#63b8ff" d="M191.03,-219.63C171,-211.58 145.96,-200.48 125,-188 96.48,-171.02 66.54,-145.78 51.27,-132.3"/>
<polygon fill="#63b8ff" stroke="#63b8ff" points="189.41,-223.15 200,-223.56 191.98,-216.63 189.41,-223.15"/>
</a>
</g>
</g>
<!-- Node3 -->
<g id="Node000003" class="node">
<title>Node3</title>
<g id="a_Node000003"><a xlink:href="_error_reporter_8h.html" target="_top" xlink:title="Singleton class to report errors to the other microcontroller.">
<polygon fill="white" stroke="#666666" points="182,-132 100,-132 100,-112 182,-112 182,-132"/>
<text text-anchor="middle" x="141" y="-118.5" font-family="Helvetica,sans-Serif" font-size="10.00">ErrorReporter.h</text>
</a>
</g>
</g>
<!-- Node1&#45;&gt;Node3 -->
<g id="edge2_Node000001_Node000003" class="edge">
<title>Node1&#45;&gt;Node3</title>
<g id="a_edge2_Node000001_Node000003"><a xlink:title=" ">
<path fill="none" stroke="#63b8ff" d="M175.39,-219.87C159.33,-213.09 143.39,-202.98 134,-188 123.15,-170.69 131.02,-145.59 136.65,-132.21"/>
<polygon fill="#63b8ff" stroke="#63b8ff" points="173.76,-223.37 184.35,-223.67 176.25,-216.83 173.76,-223.37"/>
</a>
</g>
</g>
<!-- Node6 -->
<g id="Node000006" class="node">
<title>Node6</title>
<g id="a_Node000006"><a xlink:href="_exo_8cpp.html" target="_top" xlink:title=" ">
<polygon fill="white" stroke="#666666" points="252,-132 200,-132 200,-112 252,-112 252,-132"/>
<text text-anchor="middle" x="226" y="-118.5" font-family="Helvetica,sans-Serif" font-size="10.00">Exo.cpp</text>
</a>
</g>
</g>
<!-- Node1&#45;&gt;Node6 -->
<g id="edge5_Node000001_Node000006" class="edge">
<title>Node1&#45;&gt;Node6</title>
<g id="a_edge5_Node000001_Node000006"><a xlink:title=" ">
<path fill="none" stroke="#63b8ff" d="M237.6,-214.28C243.63,-201.39 249.36,-183.81 246,-168 243.23,-154.95 236.41,-141.1 231.5,-132.26"/>
<polygon fill="#63b8ff" stroke="#63b8ff" points="234.14,-212.36 232.67,-222.85 240.36,-215.57 234.14,-212.36"/>
</a>
</g>
</g>
<!-- Node7 -->
<g id="Node000007" class="node">
<title>Node7</title>
<g id="a_Node000007"><a xlink:href="_u_a_r_t_handler_8cpp.html" target="_top" xlink:title=" ">
<polygon fill="white" stroke="#666666" points="424.63,-188 331.38,-188 331.38,-168 424.63,-168 424.63,-188"/>
<text text-anchor="middle" x="378" y="-174.5" font-family="Helvetica,sans-Serif" font-size="10.00">UARTHandler.cpp</text>
</a>
</g>
</g>
<!-- Node1&#45;&gt;Node7 -->
<g id="edge6_Node000001_Node000007" class="edge">
<title>Node1&#45;&gt;Node7</title>
<g id="a_edge6_Node000001_Node000007"><a xlink:title=" ">
<path fill="none" stroke="#63b8ff" d="M263.57,-219.92C290.72,-210.21 327.11,-197.2 351.49,-188.48"/>
<polygon fill="#63b8ff" stroke="#63b8ff" points="262.54,-216.93 254.3,-223.59 264.9,-223.52 262.54,-216.93"/>
</a>
</g>
</g>
<!-- Node8 -->
<g id="Node000008" class="node">
<title>Node8</title>
<g id="a_Node000008"><a xlink:href="ble__commands_8h.html" target="_top" xlink:title="This file declares the BLE commands, and the functions that should be called when they are received.">
<polygon fill="white" stroke="#666666" points="360.13,-132 269.88,-132 269.88,-112 360.13,-112 360.13,-132"/>
<text text-anchor="middle" x="315" y="-118.5" font-family="Helvetica,sans-Serif" font-size="10.00">ble_commands.h</text>
</a>
</g>
</g>
<!-- Node1&#45;&gt;Node8 -->
<g id="edge7_Node000001_Node000008" class="edge">
<title>Node1&#45;&gt;Node8</title>
<g id="a_edge7_Node000001_Node000008"><a xlink:title=" ">
<path fill="none" stroke="#63b8ff" d="M241.23,-215.22C260.13,-191.58 292.85,-150.68 307.52,-132.35"/>
<polygon fill="#63b8ff" stroke="#63b8ff" points="238.02,-212.63 234.5,-222.62 243.48,-217 238.02,-212.63"/>
</a>
</g>
</g>
<!-- Node11 -->
<g id="Node000011" class="node">
<title>Node11</title>
<g id="a_Node000011"><a xlink:href="uart__commands_8h.html" target="_top" xlink:title=" ">
<polygon fill="white" stroke="#666666" points="237,-188 143,-188 143,-168 237,-168 237,-188"/>
<text text-anchor="middle" x="190" y="-174.5" font-family="Helvetica,sans-Serif" font-size="10.00">uart_commands.h</text>
</a>
</g>
</g>
<!-- Node1&#45;&gt;Node11 -->
<g id="edge11_Node000001_Node000011" class="edge">
<title>Node1&#45;&gt;Node11</title>
<g id="a_edge11_Node000001_Node000011"><a xlink:title=" ">
<path fill="none" stroke="#63b8ff" d="M214.48,-214.72C208.39,-205.84 201.34,-195.55 196.37,-188.3"/>
<polygon fill="#63b8ff" stroke="#63b8ff" points="212.02,-216.32 220.56,-222.59 217.79,-212.37 212.02,-216.32"/>
</a>
</g>
</g>
<!-- Node4 -->
<g id="Node000004" class="node">
<title>Node4</title>
<g id="a_Node000004"><a xlink:href="_joint_8cpp.html" target="_top" xlink:title=" ">
<polygon fill="white" stroke="#666666" points="130.5,-76 75.5,-76 75.5,-56 130.5,-56 130.5,-76"/>
<text text-anchor="middle" x="103" y="-62.5" font-family="Helvetica,sans-Serif" font-size="10.00">Joint.cpp</text>
</a>
</g>
</g>
<!-- Node3&#45;&gt;Node4 -->
<g id="edge3_Node000003_Node000004" class="edge">
<title>Node3&#45;&gt;Node4</title>
<g id="a_edge3_Node000003_Node000004"><a xlink:title=" ">
<path fill="none" stroke="#63b8ff" d="M128.14,-102.72C121.89,-93.84 114.64,-83.55 109.54,-76.3"/>
<polygon fill="#63b8ff" stroke="#63b8ff" points="125.76,-104.43 134.38,-110.59 131.49,-100.4 125.76,-104.43"/>
</a>
</g>
</g>
<!-- Node5 -->
<g id="Node000005" class="node">
<title>Node5</title>
<g id="a_Node000005"><a xlink:href="_motor_8cpp.html" target="_top" xlink:title=" ">
<polygon fill="white" stroke="#666666" points="207.75,-76 148.25,-76 148.25,-56 207.75,-56 207.75,-76"/>
<text text-anchor="middle" x="178" y="-62.5" font-family="Helvetica,sans-Serif" font-size="10.00">Motor.cpp</text>
</a>
</g>
</g>
<!-- Node3&#45;&gt;Node5 -->
<g id="edge4_Node000003_Node000005" class="edge">
<title>Node3&#45;&gt;Node5</title>
<g id="a_edge4_Node000003_Node000005"><a xlink:title=" ">
<path fill="none" stroke="#63b8ff" d="M153.52,-102.72C159.61,-93.84 166.66,-83.55 171.63,-76.3"/>
<polygon fill="#63b8ff" stroke="#63b8ff" points="150.21,-100.37 147.44,-110.59 155.98,-104.32 150.21,-100.37"/>
</a>
</g>
</g>
<!-- Node9 -->
<g id="Node000009" class="node">
<title>Node9</title>
<g id="a_Node000009"><a xlink:href="_ble_parser_8cpp.html" target="_top" xlink:title=" ">
<polygon fill="white" stroke="#666666" points="353.75,-20 276.25,-20 276.25,0 353.75,0 353.75,-20"/>
<text text-anchor="middle" x="315" y="-6.5" font-family="Helvetica,sans-Serif" font-size="10.00">BleParser.cpp</text>
</a>
</g>
</g>
<!-- Node8&#45;&gt;Node9 -->
<g id="edge8_Node000008_Node000009" class="edge">
<title>Node8&#45;&gt;Node9</title>
<g id="a_edge8_Node000008_Node000009"><a xlink:title=" ">
<path fill="none" stroke="#63b8ff" d="M309.08,-101.23C307.04,-93.45 305.01,-84.38 304,-76 301.59,-56 307.69,-32.78 311.74,-20.22"/>
<polygon fill="#63b8ff" stroke="#63b8ff" points="305.98,-102.14 312.07,-110.81 312.72,-100.24 305.98,-102.14"/>
</a>
</g>
</g>
<!-- Node10 -->
<g id="Node000010" class="node">
<title>Node10</title>
<g id="a_Node000010"><a xlink:href="_ble_parser_8h.html" target="_top" xlink:title="This class is used to serialize and deserialize the BLE data. The application uses Nordic&#39;s UART serv...">
<polygon fill="white" stroke="#666666" points="379.5,-76 312.5,-76 312.5,-56 379.5,-56 379.5,-76"/>
<text text-anchor="middle" x="346" y="-62.5" font-family="Helvetica,sans-Serif" font-size="10.00">BleParser.h</text>
</a>
</g>
</g>
<!-- Node8&#45;&gt;Node10 -->
<g id="edge9_Node000008_Node000010" class="edge">
<title>Node8&#45;&gt;Node10</title>
<g id="a_edge9_Node000008_Node000010"><a xlink:title=" ">
<path fill="none" stroke="#63b8ff" d="M325.82,-102.15C330.84,-93.4 336.59,-83.39 340.66,-76.3"/>
<polygon fill="#63b8ff" stroke="#63b8ff" points="322.34,-100.18 320.4,-110.59 328.41,-103.66 322.34,-100.18"/>
</a>
</g>
</g>
<!-- Node10&#45;&gt;Node9 -->
<g id="edge10_Node000010_Node000009" class="edge">
<title>Node10&#45;&gt;Node9</title>
<g id="a_edge10_Node000010_Node000009"><a xlink:title=" ">
<path fill="none" stroke="#63b8ff" d="M335.18,-46.15C330.16,-37.4 324.41,-27.39 320.34,-20.3"/>
<polygon fill="#63b8ff" stroke="#63b8ff" points="332.59,-47.66 340.6,-54.59 338.66,-44.18 332.59,-47.66"/>
</a>
</g>
</g>
<!-- Node11&#45;&gt;Node2 -->
<g id="edge12_Node000011_Node000002" class="edge">
<title>Node11&#45;&gt;Node2</title>
<g id="a_edge12_Node000011_Node000002"><a xlink:title=" ">
<path fill="none" stroke="#63b8ff" d="M153.91,-163.92C127.12,-154.21 91.22,-141.2 67.16,-132.48"/>
<polygon fill="#63b8ff" stroke="#63b8ff" points="152.45,-167.48 163.05,-167.59 154.84,-160.9 152.45,-167.48"/>
</a>
</g>
</g>
<!-- Node11&#45;&gt;Node3 -->
<g id="edge13_Node000011_Node000003" class="edge">
<title>Node11&#45;&gt;Node3</title>
<g id="a_edge13_Node000011_Node000003"><a xlink:title=" ">
<path fill="none" stroke="#63b8ff" d="M174.18,-159.57C165.95,-150.5 156.22,-139.78 149.44,-132.3"/>
<polygon fill="#63b8ff" stroke="#63b8ff" points="171.15,-161.54 180.46,-166.59 176.34,-156.84 171.15,-161.54"/>
</a>
</g>
</g>
<!-- Node11&#45;&gt;Node6 -->
<g id="edge14_Node000011_Node000006" class="edge">
<title>Node11&#45;&gt;Node6</title>
<g id="a_edge14_Node000011_Node000006"><a xlink:title=" ">
<path fill="none" stroke="#63b8ff" d="M202.19,-158.72C208.11,-149.84 214.97,-139.55 219.8,-132.3"/>
<polygon fill="#63b8ff" stroke="#63b8ff" points="198.91,-156.33 196.27,-166.59 204.73,-160.21 198.91,-156.33"/>
</a>
</g>
</g>
<!-- Node11&#45;&gt;Node8 -->
<g id="edge15_Node000011_Node000008" class="edge">
<title>Node11&#45;&gt;Node8</title>
<g id="a_edge15_Node000011_Node000008"><a xlink:title=" ">
<path fill="none" stroke="#63b8ff" d="M221.78,-163.27C244.08,-153.64 273.32,-141.01 293.06,-132.48"/>
<polygon fill="#63b8ff" stroke="#63b8ff" points="220.57,-160.42 212.77,-167.59 223.34,-166.84 220.57,-160.42"/>
</a>
</g>
</g>
</g>
</svg>
