<?xml version="1.0" encoding="UTF-8" standalone="no"?>
<!DOCTYPE svg PUBLIC "-//W3C//DTD SVG 1.1//EN"
 "http://www.w3.org/Graphics/SVG/1.1/DTD/svg11.dtd">
<!-- Generated by graphviz version 8.1.0 (20230707.0739)
 -->
<!-- Title: UARTHandler.cpp Pages: 1 -->
<svg width="494pt" height="308pt"
 viewBox="0.00 0.00 494.40 308.00" xmlns="http://www.w3.org/2000/svg" xmlns:xlink="http://www.w3.org/1999/xlink">

<svg id="main" version="1.1" xmlns="http://www.w3.org/2000/svg" xmlns:xlink="http://www.w3.org/1999/xlink" xml:space="preserve" onload="init(evt)">
<style type="text/css"><![CDATA[
.node, .edge {opacity: 0.7;}
.node.selected, .edge.selected {opacity: 1;}
.edge:hover path { stroke: red; }
.edge:hover polygon { stroke: red; fill: red; }
]]></style>
<script type="application/ecmascript" xlink:href="svg.min.js"/>
<svg id="graph" class="graph">
<g id="graph0" class="graph" transform="scale(1 1) rotate(0) translate(4 304)">
<title>UARTHandler.cpp</title>
<!-- Node1 -->
<g id="Node000001" class="node">
<title>Node1</title>
<g id="a_Node000001"><a xlink:title=" ">
<polygon fill="#999999" stroke="#666666" points="237.13,-300 143.88,-300 143.88,-280 237.13,-280 237.13,-300"/>
<text text-anchor="middle" x="190.5" y="-286.5" font-family="Helvetica,sans-Serif" font-size="10.00">UARTHandler.cpp</text>
</a>
</g>
</g>
<!-- Node2 -->
<g id="Node000002" class="node">
<title>Node2</title>
<g id="a_Node000002"><a xlink:href="_u_a_r_t_handler_8h.html" target="_top" xlink:title="Singleton class that manages the UART data. NOT THREAD SAFE. The class queues recieved messages.">
<polygon fill="white" stroke="#666666" points="231.88,-244 149.13,-244 149.13,-224 231.88,-224 231.88,-244"/>
<text text-anchor="middle" x="190.5" y="-230.5" font-family="Helvetica,sans-Serif" font-size="10.00">UARTHandler.h</text>
</a>
</g>
</g>
<!-- Node1&#45;&gt;Node2 -->
<g id="edge1_Node000001_Node000002" class="edge">
<title>Node1&#45;&gt;Node2</title>
<g id="a_edge1_Node000001_Node000002"><a xlink:title=" ">
<path fill="none" stroke="#63b8ff" d="M190.5,-279.59C190.5,-272.86 190.5,-263.53 190.5,-255.15"/>
<polygon fill="#63b8ff" stroke="#63b8ff" points="194,-255.3 190.5,-245.3 187,-255.3 194,-255.3"/>
</a>
</g>
</g>
<!-- Node5 -->
<g id="Node000005" class="node">
<title>Node5</title>
<g id="a_Node000005"><a xlink:href="_logger_8h.html" target="_top" xlink:title=" ">
<polygon fill="white" stroke="#666666" points="87.25,-132 33.75,-132 33.75,-112 87.25,-112 87.25,-132"/>
<text text-anchor="middle" x="60.5" y="-118.5" font-family="Helvetica,sans-Serif" font-size="10.00">Logger.h</text>
</a>
</g>
</g>
<!-- Node1&#45;&gt;Node5 -->
<g id="edge19_Node000001_Node000005" class="edge">
<title>Node1&#45;&gt;Node5</title>
<g id="a_edge19_Node000001_Node000005"><a xlink:title=" ">
<path fill="none" stroke="#63b8ff" d="M172.97,-279.56C146.3,-264.19 96.03,-231.1 71.5,-188 63.79,-174.44 61.17,-156.9 60.41,-143.46"/>
<polygon fill="#63b8ff" stroke="#63b8ff" points="63.88,-143.4 60.14,-133.49 56.88,-143.58 63.88,-143.4"/>
</a>
</g>
</g>
<!-- Node9 -->
<g id="Node000009" class="node">
<title>Node9</title>
<g id="a_Node000009"><a xlink:href="_utilities_8h.html" target="_top" xlink:title=" ">
<polygon fill="white" stroke="#666666" points="385.75,-244 329.25,-244 329.25,-224 385.75,-224 385.75,-244"/>
<text text-anchor="middle" x="357.5" y="-230.5" font-family="Helvetica,sans-Serif" font-size="10.00">Utilities.h</text>
</a>
</g>
</g>
<!-- Node1&#45;&gt;Node9 -->
<g id="edge12_Node000001_Node000009" class="edge">
<title>Node1&#45;&gt;Node9</title>
<g id="a_edge12_Node000001_Node000009"><a xlink:title=" ">
<path fill="none" stroke="#63b8ff" d="M219.59,-279.59C247.09,-270.7 288.54,-257.3 318.82,-247.51"/>
<polygon fill="#63b8ff" stroke="#63b8ff" points="319.58,-250.62 328.02,-244.21 317.43,-243.95 319.58,-250.62"/>
</a>
</g>
</g>
<!-- Node3 -->
<g id="Node000003" class="node">
<title>Node3</title>
<g id="a_Node000003"><a xlink:href="_u_a_r_t__msg__t_8h.html" target="_top" xlink:title=" ">
<polygon fill="white" stroke="#666666" points="162.5,-188 80.5,-188 80.5,-168 162.5,-168 162.5,-188"/>
<text text-anchor="middle" x="121.5" y="-174.5" font-family="Helvetica,sans-Serif" font-size="10.00">UART_msg_t.h</text>
</a>
</g>
</g>
<!-- Node2&#45;&gt;Node3 -->
<g id="edge2_Node000002_Node000003" class="edge">
<title>Node2&#45;&gt;Node3</title>
<g id="a_edge2_Node000002_Node000003"><a xlink:title=" ">
<path fill="none" stroke="#63b8ff" d="M178.48,-223.59C168.39,-215.7 153.75,-204.24 141.84,-194.92"/>
<polygon fill="#63b8ff" stroke="#63b8ff" points="144.41,-191.71 134.38,-188.3 140.1,-197.22 144.41,-191.71"/>
</a>
</g>
</g>
<!-- Node4 -->
<g id="Node000004" class="node">
<title>Node4</title>
<g id="a_Node000004"><a xlink:title=" ">
<polygon fill="#e0e0e0" stroke="#999999" points="181.13,-20 123.88,-20 123.88,0 181.13,0 181.13,-20"/>
<text text-anchor="middle" x="152.5" y="-6.5" font-family="Helvetica,sans-Serif" font-size="10.00">Arduino.h</text>
</a>
</g>
</g>
<!-- Node2&#45;&gt;Node4 -->
<g id="edge10_Node000002_Node000004" class="edge">
<title>Node2&#45;&gt;Node4</title>
<g id="a_edge10_Node000002_Node000004"><a xlink:title=" ">
<path fill="none" stroke="#63b8ff" d="M188.92,-223.74C183.24,-190.6 163.86,-77.35 155.93,-31.01"/>
<polygon fill="#63b8ff" stroke="#63b8ff" points="159.23,-30.56 154.09,-21.3 152.33,-31.74 159.23,-30.56"/>
</a>
</g>
</g>
<!-- Node8 -->
<g id="Node000008" class="node">
<title>Node8</title>
<g id="a_Node000008"><a xlink:title=" ">
<polygon fill="#e0e0e0" stroke="#999999" points="348.63,-132 300.38,-132 300.38,-112 348.63,-112 348.63,-132"/>
<text text-anchor="middle" x="324.5" y="-118.5" font-family="Helvetica,sans-Serif" font-size="10.00">stdint.h</text>
</a>
</g>
</g>
<!-- Node2&#45;&gt;Node8 -->
<g id="edge11_Node000002_Node000008" class="edge">
<title>Node2&#45;&gt;Node8</title>
<g id="a_edge11_Node000002_Node000008"><a xlink:title=" ">
<path fill="none" stroke="#63b8ff" d="M201.92,-223.62C224.77,-204.87 276.32,-162.55 304.75,-139.21"/>
<polygon fill="#63b8ff" stroke="#63b8ff" points="306.6,-141.41 312.1,-132.35 302.15,-135.99 306.6,-141.41"/>
</a>
</g>
</g>
<!-- Node3&#45;&gt;Node4 -->
<g id="edge3_Node000003_Node000004" class="edge">
<title>Node3&#45;&gt;Node4</title>
<g id="a_edge3_Node000003_Node000004"><a xlink:title=" ">
<path fill="none" stroke="#63b8ff" d="M123.26,-167.6C128.16,-141.35 142.07,-66.84 148.79,-30.89"/>
<polygon fill="#63b8ff" stroke="#63b8ff" points="152.37,-31.77 150.76,-21.3 145.49,-30.48 152.37,-31.77"/>
</a>
</g>
</g>
<!-- Node3&#45;&gt;Node5 -->
<g id="edge4_Node000003_Node000005" class="edge">
<title>Node3&#45;&gt;Node5</title>
<g id="a_edge4_Node000003_Node000005"><a xlink:title=" ">
<path fill="none" stroke="#63b8ff" d="M110.87,-167.59C102.13,-159.85 89.52,-148.69 79.1,-139.47"/>
<polygon fill="#63b8ff" stroke="#63b8ff" points="81.81,-137.31 72,-133.3 77.17,-142.55 81.81,-137.31"/>
</a>
</g>
</g>
<!-- Node5&#45;&gt;Node4 -->
<g id="edge5_Node000005_Node000004" class="edge">
<title>Node5&#45;&gt;Node4</title>
<g id="a_edge5_Node000005_Node000004"><a xlink:title=" ">
<path fill="none" stroke="#63b8ff" d="M68.34,-111.62C83.69,-93.27 117.9,-52.37 137.65,-28.75"/>
<polygon fill="#63b8ff" stroke="#63b8ff" points="140.95,-31.27 144.68,-21.35 135.58,-26.78 140.95,-31.27"/>
</a>
</g>
</g>
<!-- Node6 -->
<g id="Node000006" class="node">
<title>Node6</title>
<g id="a_Node000006"><a xlink:href="_log_levels_8h.html" target="_top" xlink:title=" ">
<polygon fill="white" stroke="#666666" points="67,-20 0,-20 0,0 67,0 67,-20"/>
<text text-anchor="middle" x="33.5" y="-6.5" font-family="Helvetica,sans-Serif" font-size="10.00">LogLevels.h</text>
</a>
</g>
</g>
<!-- Node5&#45;&gt;Node6 -->
<g id="edge6_Node000005_Node000006" class="edge">
<title>Node5&#45;&gt;Node6</title>
<g id="a_edge6_Node000005_Node000006"><a xlink:title=" ">
<path fill="none" stroke="#63b8ff" d="M50.28,-111.8C41.81,-103.43 30.38,-90.23 25.5,-76 20.42,-61.19 23.12,-43.51 26.7,-30.33"/>
<polygon fill="#63b8ff" stroke="#63b8ff" points="30.25,-31.68 29.9,-21.09 23.57,-29.6 30.25,-31.68"/>
</a>
</g>
</g>
<!-- Node7 -->
<g id="Node000007" class="node">
<title>Node7</title>
<g id="a_Node000007"><a xlink:href="_config_8h.html" target="_top" xlink:title="Configuration variables for the codebase.">
<polygon fill="white" stroke="#666666" points="86.13,-76 34.88,-76 34.88,-56 86.13,-56 86.13,-76"/>
<text text-anchor="middle" x="60.5" y="-62.5" font-family="Helvetica,sans-Serif" font-size="10.00">Config.h</text>
</a>
</g>
</g>
<!-- Node5&#45;&gt;Node7 -->
<g id="edge7_Node000005_Node000007" class="edge">
<title>Node5&#45;&gt;Node7</title>
<g id="a_edge7_Node000005_Node000007"><a xlink:title=" ">
<path fill="none" stroke="#63b8ff" d="M60.5,-111.59C60.5,-104.86 60.5,-95.53 60.5,-87.15"/>
<polygon fill="#63b8ff" stroke="#63b8ff" points="64,-87.3 60.5,-77.3 57,-87.3 64,-87.3"/>
</a>
</g>
</g>
<!-- Node7&#45;&gt;Node4 -->
<g id="edge8_Node000007_Node000004" class="edge">
<title>Node7&#45;&gt;Node4</title>
<g id="a_edge8_Node000007_Node000004"><a xlink:title=" ">
<path fill="none" stroke="#63b8ff" d="M76.53,-55.59C90.42,-47.44 110.79,-35.48 126.94,-26"/>
<polygon fill="#63b8ff" stroke="#63b8ff" points="128.5,-28.56 135.35,-20.48 124.95,-22.52 128.5,-28.56"/>
</a>
</g>
</g>
<!-- Node7&#45;&gt;Node6 -->
<g id="edge9_Node000007_Node000006" class="edge">
<title>Node7&#45;&gt;Node6</title>
<g id="a_edge9_Node000007_Node000006"><a xlink:title=" ">
<path fill="none" stroke="#63b8ff" d="M55.8,-55.59C52.27,-48.55 47.33,-38.67 43,-30"/>
<polygon fill="#63b8ff" stroke="#63b8ff" points="45.75,-28.68 38.15,-21.3 39.49,-31.81 45.75,-28.68"/>
</a>
</g>
</g>
<!-- Node9&#45;&gt;Node4 -->
<g id="edge15_Node000009_Node000004" class="edge">
<title>Node9&#45;&gt;Node4</title>
<g id="a_edge15_Node000009_Node000004"><a xlink:title=" ">
<path fill="none" stroke="#63b8ff" d="M338.45,-223.61C323.13,-215.49 301.57,-202.75 285.5,-188 231.35,-138.3 183.89,-64.1 163.34,-29.72"/>
<polygon fill="#63b8ff" stroke="#63b8ff" points="165.94,-28.24 157.84,-21.4 159.91,-31.79 165.94,-28.24"/>
</a>
</g>
</g>
<!-- Node9&#45;&gt;Node8 -->
<g id="edge16_Node000009_Node000008" class="edge">
<title>Node9&#45;&gt;Node8</title>
<g id="a_edge16_Node000009_Node000008"><a xlink:title=" ">
<path fill="none" stroke="#63b8ff" d="M386.12,-229.13C430.34,-221.95 507.51,-203.9 480.5,-168 465.99,-148.71 401.05,-135.09 359.67,-128.18"/>
<polygon fill="#63b8ff" stroke="#63b8ff" points="360.37,-124.59 349.94,-126.46 359.25,-131.5 360.37,-124.59"/>
</a>
</g>
</g>
<!-- Node10 -->
<g id="Node000010" class="node">
<title>Node10</title>
<g id="a_Node000010"><a xlink:href="_parse_ini_8h.html" target="_top" xlink:title="Declares the functions needed and defines mapping between the INI keys and the exo components.">
<polygon fill="white" stroke="#666666" points="354.25,-188 294.75,-188 294.75,-168 354.25,-168 354.25,-188"/>
<text text-anchor="middle" x="324.5" y="-174.5" font-family="Helvetica,sans-Serif" font-size="10.00">ParseIni.h</text>
</a>
</g>
</g>
<!-- Node9&#45;&gt;Node10 -->
<g id="edge13_Node000009_Node000010" class="edge">
<title>Node9&#45;&gt;Node10</title>
<g id="a_edge13_Node000009_Node000010"><a xlink:title=" ">
<path fill="none" stroke="#63b8ff" d="M351.75,-223.59C347.35,-216.39 341.14,-206.23 335.76,-197.43"/>
<polygon fill="#63b8ff" stroke="#63b8ff" points="338.38,-196.01 330.18,-189.3 332.41,-199.66 338.38,-196.01"/>
</a>
</g>
</g>
<!-- Node11 -->
<g id="Node000011" class="node">
<title>Node11</title>
<g id="a_Node000011"><a xlink:title=" ">
<polygon fill="#e0e0e0" stroke="#999999" points="411.13,-188 371.88,-188 371.88,-168 411.13,-168 411.13,-188"/>
<text text-anchor="middle" x="391.5" y="-174.5" font-family="Helvetica,sans-Serif" font-size="10.00">utility</text>
</a>
</g>
</g>
<!-- Node9&#45;&gt;Node11 -->
<g id="edge17_Node000009_Node000011" class="edge">
<title>Node9&#45;&gt;Node11</title>
<g id="a_edge17_Node000009_Node000011"><a xlink:title=" ">
<path fill="none" stroke="#63b8ff" d="M363.42,-223.59C367.96,-216.39 374.35,-206.23 379.9,-197.43"/>
<polygon fill="#63b8ff" stroke="#63b8ff" points="383.28,-199.63 385.65,-189.3 377.36,-195.9 383.28,-199.63"/>
</a>
</g>
</g>
<!-- Node12 -->
<g id="Node000012" class="node">
<title>Node12</title>
<g id="a_Node000012"><a xlink:title=" ">
<polygon fill="#e0e0e0" stroke="#999999" points="471.63,-188 429.38,-188 429.38,-168 471.63,-168 471.63,-188"/>
<text text-anchor="middle" x="450.5" y="-174.5" font-family="Helvetica,sans-Serif" font-size="10.00">queue</text>
</a>
</g>
</g>
<!-- Node9&#45;&gt;Node12 -->
<g id="edge18_Node000009_Node000012" class="edge">
<title>Node9&#45;&gt;Node12</title>
<g id="a_edge18_Node000009_Node000012"><a xlink:title=" ">
<path fill="none" stroke="#63b8ff" d="M373.7,-223.59C387.88,-215.36 408.72,-203.26 425.12,-193.74"/>
<polygon fill="#63b8ff" stroke="#63b8ff" points="426.28,-196.53 433.17,-188.48 422.77,-190.47 426.28,-196.53"/>
</a>
</g>
</g>
<!-- Node10&#45;&gt;Node8 -->
<g id="edge14_Node000010_Node000008" class="edge">
<title>Node10&#45;&gt;Node8</title>
<g id="a_edge14_Node000010_Node000008"><a xlink:title=" ">
<path fill="none" stroke="#63b8ff" d="M324.5,-167.59C324.5,-160.86 324.5,-151.53 324.5,-143.15"/>
<polygon fill="#63b8ff" stroke="#63b8ff" points="328,-143.3 324.5,-133.3 321,-143.3 328,-143.3"/>
</a>
</g>
</g>
</g>
</svg>
</svg>

<style type='text/css'>
<![CDATA[
[data-mouse-over-selected='false'] { opacity: 0.7; }
[data-mouse-over-selected='true']  { opacity: 1.0; }
]]>
</style>
<script type="application/ecmascript"><![CDATA[
document.addEventListener('DOMContentLoaded', (event) => {
  highlightEdges();
  highlightAdjacentNodes();
});
]]></script>
</svg>
