<?xml version="1.0" encoding="UTF-8" standalone="no"?>
<!DOCTYPE svg PUBLIC "-//W3C//DTD SVG 1.1//EN"
 "http://www.w3.org/Graphics/SVG/1.1/DTD/svg11.dtd">
<!-- Generated by graphviz version 8.1.0 (20230707.0739)
 -->
<!-- Title: UARTHandler.h Pages: 1 -->
<svg width="269pt" height="252pt"
 viewBox="0.00 0.00 268.63 252.00" xmlns="http://www.w3.org/2000/svg" xmlns:xlink="http://www.w3.org/1999/xlink">

<svg id="main" version="1.1" xmlns="http://www.w3.org/2000/svg" xmlns:xlink="http://www.w3.org/1999/xlink" xml:space="preserve" onload="init(evt)">
<style type="text/css"><![CDATA[
.node, .edge {opacity: 0.7;}
.node.selected, .edge.selected {opacity: 1;}
.edge:hover path { stroke: red; }
.edge:hover polygon { stroke: red; fill: red; }
]]></style>
<script type="application/ecmascript" xlink:href="svg.min.js"/>
<svg id="graph" class="graph">
<g id="graph0" class="graph" transform="scale(1 1) rotate(0) translate(4 248)">
<title>UARTHandler.h</title>
<!-- Node1 -->
<g id="Node000001" class="node">
<title>Node1</title>
<g id="a_Node000001"><a xlink:title="Singleton class that manages the UART data. NOT THREAD SAFE. The class queues recieved messages.">
<polygon fill="#999999" stroke="#666666" points="225.88,-244 143.13,-244 143.13,-224 225.88,-224 225.88,-244"/>
<text text-anchor="middle" x="184.5" y="-230.5" font-family="Helvetica,sans-Serif" font-size="10.00">UARTHandler.h</text>
</a>
</g>
</g>
<!-- Node2 -->
<g id="Node000002" class="node">
<title>Node2</title>
<g id="a_Node000002"><a xlink:href="_u_a_r_t__msg__t_8h.html" target="_top" xlink:title=" ">
<polygon fill="white" stroke="#666666" points="156.5,-188 74.5,-188 74.5,-168 156.5,-168 156.5,-188"/>
<text text-anchor="middle" x="115.5" y="-174.5" font-family="Helvetica,sans-Serif" font-size="10.00">UART_msg_t.h</text>
</a>
</g>
</g>
<!-- Node1&#45;&gt;Node2 -->
<g id="edge1_Node000001_Node000002" class="edge">
<title>Node1&#45;&gt;Node2</title>
<g id="a_edge1_Node000001_Node000002"><a xlink:title=" ">
<path fill="none" stroke="#63b8ff" d="M172.48,-223.59C162.39,-215.7 147.75,-204.24 135.84,-194.92"/>
<polygon fill="#63b8ff" stroke="#63b8ff" points="138.41,-191.71 128.38,-188.3 134.1,-197.22 138.41,-191.71"/>
</a>
</g>
</g>
<!-- Node3 -->
<g id="Node000003" class="node">
<title>Node3</title>
<g id="a_Node000003"><a xlink:title=" ">
<polygon fill="#e0e0e0" stroke="#999999" points="156.13,-20 98.88,-20 98.88,0 156.13,0 156.13,-20"/>
<text text-anchor="middle" x="127.5" y="-6.5" font-family="Helvetica,sans-Serif" font-size="10.00">Arduino.h</text>
</a>
</g>
</g>
<!-- Node1&#45;&gt;Node3 -->
<g id="edge9_Node000001_Node000003" class="edge">
<title>Node1&#45;&gt;Node3</title>
<g id="a_edge9_Node000001_Node000003"><a xlink:title=" ">
<path fill="none" stroke="#63b8ff" d="M182.12,-223.74C173.6,-190.53 144.41,-76.87 132.56,-30.72"/>
<polygon fill="#63b8ff" stroke="#63b8ff" points="135.76,-30.11 129.89,-21.3 128.98,-31.85 135.76,-30.11"/>
</a>
</g>
</g>
<!-- Node7 -->
<g id="Node000007" class="node">
<title>Node7</title>
<g id="a_Node000007"><a xlink:title=" ">
<polygon fill="#e0e0e0" stroke="#999999" points="260.63,-188 212.38,-188 212.38,-168 260.63,-168 260.63,-188"/>
<text text-anchor="middle" x="236.5" y="-174.5" font-family="Helvetica,sans-Serif" font-size="10.00">stdint.h</text>
</a>
</g>
</g>
<!-- Node1&#45;&gt;Node7 -->
<g id="edge10_Node000001_Node000007" class="edge">
<title>Node1&#45;&gt;Node7</title>
<g id="a_edge10_Node000001_Node000007"><a xlink:title=" ">
<path fill="none" stroke="#63b8ff" d="M193.56,-223.59C200.87,-216.01 211.33,-205.13 220.11,-196.02"/>
<polygon fill="#63b8ff" stroke="#63b8ff" points="222.13,-198.93 226.55,-189.3 217.09,-194.07 222.13,-198.93"/>
</a>
</g>
</g>
<!-- Node2&#45;&gt;Node3 -->
<g id="edge2_Node000002_Node000003" class="edge">
<title>Node2&#45;&gt;Node3</title>
<g id="a_edge2_Node000002_Node000003"><a xlink:title=" ">
<path fill="none" stroke="#63b8ff" d="M116.18,-167.6C118.08,-141.35 123.46,-66.84 126.06,-30.89"/>
<polygon fill="#63b8ff" stroke="#63b8ff" points="129.6,-31.52 126.83,-21.3 122.62,-31.02 129.6,-31.52"/>
</a>
</g>
</g>
<!-- Node4 -->
<g id="Node000004" class="node">
<title>Node4</title>
<g id="a_Node000004"><a xlink:href="_logger_8h.html" target="_top" xlink:title=" ">
<polygon fill="white" stroke="#666666" points="100.25,-132 46.75,-132 46.75,-112 100.25,-112 100.25,-132"/>
<text text-anchor="middle" x="73.5" y="-118.5" font-family="Helvetica,sans-Serif" font-size="10.00">Logger.h</text>
</a>
</g>
</g>
<!-- Node2&#45;&gt;Node4 -->
<g id="edge3_Node000002_Node000004" class="edge">
<title>Node2&#45;&gt;Node4</title>
<g id="a_edge3_Node000002_Node000004"><a xlink:title=" ">
<path fill="none" stroke="#63b8ff" d="M108.18,-167.59C102.46,-160.24 94.34,-149.8 87.4,-140.87"/>
<polygon fill="#63b8ff" stroke="#63b8ff" points="89.63,-139.04 80.73,-133.3 84.11,-143.34 89.63,-139.04"/>
</a>
</g>
</g>
<!-- Node4&#45;&gt;Node3 -->
<g id="edge4_Node000004_Node000003" class="edge">
<title>Node4&#45;&gt;Node3</title>
<g id="a_edge4_Node000004_Node000003"><a xlink:title=" ">
<path fill="none" stroke="#63b8ff" d="M78.1,-111.62C86.95,-93.6 106.48,-53.81 118.16,-30.02"/>
<polygon fill="#63b8ff" stroke="#63b8ff" points="121.64,-31.87 122.91,-21.35 115.36,-28.79 121.64,-31.87"/>
</a>
</g>
</g>
<!-- Node5 -->
<g id="Node000005" class="node">
<title>Node5</title>
<g id="a_Node000005"><a xlink:href="_log_levels_8h.html" target="_top" xlink:title=" ">
<polygon fill="white" stroke="#666666" points="67,-20 0,-20 0,0 67,0 67,-20"/>
<text text-anchor="middle" x="33.5" y="-6.5" font-family="Helvetica,sans-Serif" font-size="10.00">LogLevels.h</text>
</a>
</g>
</g>
<!-- Node4&#45;&gt;Node5 -->
<g id="edge5_Node000004_Node000005" class="edge">
<title>Node4&#45;&gt;Node5</title>
<g id="a_edge5_Node000004_Node000005"><a xlink:title=" ">
<path fill="none" stroke="#63b8ff" d="M55.28,-111.51C42.66,-103.82 26.85,-91.69 19.5,-76 12.62,-61.32 17.51,-43.18 23.32,-29.8"/>
<polygon fill="#63b8ff" stroke="#63b8ff" points="26.74,-31.77 27.97,-21.24 20.44,-28.7 26.74,-31.77"/>
</a>
</g>
</g>
<!-- Node6 -->
<g id="Node000006" class="node">
<title>Node6</title>
<g id="a_Node000006"><a xlink:href="_config_8h.html" target="_top" xlink:title="Configuration variables for the codebase.">
<polygon fill="white" stroke="#666666" points="80.13,-76 28.88,-76 28.88,-56 80.13,-56 80.13,-76"/>
<text text-anchor="middle" x="54.5" y="-62.5" font-family="Helvetica,sans-Serif" font-size="10.00">Config.h</text>
</a>
</g>
</g>
<!-- Node4&#45;&gt;Node6 -->
<g id="edge6_Node000004_Node000006" class="edge">
<title>Node4&#45;&gt;Node6</title>
<g id="a_edge6_Node000004_Node000006"><a xlink:title=" ">
<path fill="none" stroke="#63b8ff" d="M70.19,-111.59C67.77,-104.7 64.39,-95.1 61.39,-86.57"/>
<polygon fill="#63b8ff" stroke="#63b8ff" points="64.39,-85.57 57.77,-77.3 57.79,-87.89 64.39,-85.57"/>
</a>
</g>
</g>
<!-- Node6&#45;&gt;Node3 -->
<g id="edge7_Node000006_Node000003" class="edge">
<title>Node6&#45;&gt;Node3</title>
<g id="a_edge7_Node000006_Node000003"><a xlink:title=" ">
<path fill="none" stroke="#63b8ff" d="M67.22,-55.59C78,-47.62 93.68,-36.02 106.35,-26.64"/>
<polygon fill="#63b8ff" stroke="#63b8ff" points="107.97,-29.06 113.93,-20.3 103.81,-23.43 107.97,-29.06"/>
</a>
</g>
</g>
<!-- Node6&#45;&gt;Node5 -->
<g id="edge8_Node000006_Node000005" class="edge">
<title>Node6&#45;&gt;Node5</title>
<g id="a_edge8_Node000006_Node000005"><a xlink:title=" ">
<path fill="none" stroke="#63b8ff" d="M50.84,-55.59C48.13,-48.63 44.34,-38.89 41,-30.29"/>
<polygon fill="#63b8ff" stroke="#63b8ff" points="44,-29.35 37.12,-21.3 37.48,-31.89 44,-29.35"/>
</a>
</g>
</g>
</g>
</svg>
</svg>

<style type='text/css'>
<![CDATA[
[data-mouse-over-selected='false'] { opacity: 0.7; }
[data-mouse-over-selected='true']  { opacity: 1.0; }
]]>
</style>
<script type="application/ecmascript"><![CDATA[
document.addEventListener('DOMContentLoaded', (event) => {
  highlightEdges();
  highlightAdjacentNodes();
});
]]></script>
</svg>
