<?xml version="1.0" encoding="UTF-8" standalone="no"?>
<!DOCTYPE svg PUBLIC "-//W3C//DTD SVG 1.1//EN"
 "http://www.w3.org/Graphics/SVG/1.1/DTD/svg11.dtd">
<!-- Generated by graphviz version 8.1.0 (20230707.0739)
 -->
<!-- Title: UART_msg_t.h Pages: 1 -->
<svg width="490pt" height="308pt"
 viewBox="0.00 0.00 489.50 308.00" xmlns="http://www.w3.org/2000/svg" xmlns:xlink="http://www.w3.org/1999/xlink">
<g id="graph0" class="graph" transform="scale(1 1) rotate(0) translate(4 304)">
<title>UART_msg_t.h</title>
<!-- Node1 -->
<g id="Node000001" class="node">
<title>Node1</title>
<g id="a_Node000001"><a xlink:title=" ">
<polygon fill="#999999" stroke="#666666" points="338,-300 256,-300 256,-280 338,-280 338,-300"/>
<text text-anchor="middle" x="297" y="-286.5" font-family="Helvetica,sans-Serif" font-size="10.00">UART_msg_t.h</text>
</a>
</g>
</g>
<!-- Node2 -->
<g id="Node000002" class="node">
<title>Node2</title>
<g id="a_Node000002"><a xlink:href="_coms_m_c_u_8cpp.html" target="_top" xlink:title=" ">
<polygon fill="white" stroke="#666666" points="82,-132 0,-132 0,-112 82,-112 82,-132"/>
<text text-anchor="middle" x="41" y="-118.5" font-family="Helvetica,sans-Serif" font-size="10.00">ComsMCU.cpp</text>
</a>
</g>
</g>
<!-- Node1&#45;&gt;Node2 -->
<g id="edge1_Node000001_Node000002" class="edge">
<title>Node1&#45;&gt;Node2</title>
<g id="a_edge1_Node000001_Node000002"><a xlink:title=" ">
<path fill="none" stroke="#63b8ff" d="M244.9,-280.42C215.11,-273.8 178.02,-262.55 149,-244 100.83,-213.22 61.15,-155.17 46.78,-132.45"/>
<polygon fill="#63b8ff" stroke="#63b8ff" points="244.01,-284.02 254.51,-282.65 245.45,-277.17 244.01,-284.02"/>
</a>
</g>
</g>
<!-- Node3 -->
<g id="Node000003" class="node">
<title>Node3</title>
<g id="a_Node000003"><a xlink:href="_error_reporter_8h.html" target="_top" xlink:title="Singleton class to report errors to the other microcontroller.">
<polygon fill="white" stroke="#666666" points="182,-132 100,-132 100,-112 182,-112 182,-132"/>
<text text-anchor="middle" x="141" y="-118.5" font-family="Helvetica,sans-Serif" font-size="10.00">ErrorReporter.h</text>
</a>
</g>
</g>
<!-- Node1&#45;&gt;Node3 -->
<g id="edge2_Node000001_Node000003" class="edge">
<title>Node1&#45;&gt;Node3</title>
<g id="a_edge2_Node000001_Node000003"><a xlink:title=" ">
<path fill="none" stroke="#63b8ff" d="M247.66,-276.35C205.1,-262.49 146.45,-235.61 120,-188 109.75,-169.55 123.91,-145.33 133.48,-132.29"/>
<polygon fill="#63b8ff" stroke="#63b8ff" points="246.51,-279.97 257.1,-279.59 248.59,-273.28 246.51,-279.97"/>
</a>
</g>
</g>
<!-- Node6 -->
<g id="Node000006" class="node">
<title>Node6</title>
<g id="a_Node000006"><a xlink:href="_exo_8cpp.html" target="_top" xlink:title=" ">
<polygon fill="white" stroke="#666666" points="354,-132 302,-132 302,-112 354,-112 354,-132"/>
<text text-anchor="middle" x="328" y="-118.5" font-family="Helvetica,sans-Serif" font-size="10.00">Exo.cpp</text>
</a>
</g>
</g>
<!-- Node1&#45;&gt;Node6 -->
<g id="edge5_Node000001_Node000006" class="edge">
<title>Node1&#45;&gt;Node6</title>
<g id="a_edge5_Node000001_Node000006"><a xlink:title=" ">
<path fill="none" stroke="#63b8ff" d="M319.71,-272.95C342.68,-255.19 376.74,-224.25 391,-188 394.25,-179.73 395.07,-175.9 391,-168 382.51,-151.51 364.87,-139.72 350.41,-132.36"/>
<polygon fill="#63b8ff" stroke="#63b8ff" points="317.85,-270.73 311.94,-279.52 322.04,-276.33 317.85,-270.73"/>
</a>
</g>
</g>
<!-- Node7 -->
<g id="Node000007" class="node">
<title>Node7</title>
<g id="a_Node000007"><a xlink:href="_u_a_r_t_handler_8h.html" target="_top" xlink:title="Singleton class that manages the UART data. NOT THREAD SAFE. The class queues recieved messages.">
<polygon fill="white" stroke="#666666" points="301.38,-244 218.63,-244 218.63,-224 301.38,-224 301.38,-244"/>
<text text-anchor="middle" x="260" y="-230.5" font-family="Helvetica,sans-Serif" font-size="10.00">UARTHandler.h</text>
</a>
</g>
</g>
<!-- Node1&#45;&gt;Node7 -->
<g id="edge6_Node000001_Node000007" class="edge">
<title>Node1&#45;&gt;Node7</title>
<g id="a_edge6_Node000001_Node000007"><a xlink:title=" ">
<path fill="none" stroke="#63b8ff" d="M284.48,-270.72C278.39,-261.84 271.34,-251.55 266.37,-244.3"/>
<polygon fill="#63b8ff" stroke="#63b8ff" points="282.02,-272.32 290.56,-278.59 287.79,-268.37 282.02,-272.32"/>
</a>
</g>
</g>
<!-- Node9 -->
<g id="Node000009" class="node">
<title>Node9</title>
<g id="a_Node000009"><a xlink:href="ble__commands_8h.html" target="_top" xlink:title="This file declares the BLE commands, and the functions that should be called when they are received.">
<polygon fill="white" stroke="#666666" points="462.13,-132 371.88,-132 371.88,-112 462.13,-112 462.13,-132"/>
<text text-anchor="middle" x="417" y="-118.5" font-family="Helvetica,sans-Serif" font-size="10.00">ble_commands.h</text>
</a>
</g>
</g>
<!-- Node1&#45;&gt;Node9 -->
<g id="edge20_Node000001_Node000009" class="edge">
<title>Node1&#45;&gt;Node9</title>
<g id="a_edge20_Node000001_Node000009"><a xlink:title=" ">
<path fill="none" stroke="#63b8ff" d="M330.63,-274.97C345.81,-267.43 363.17,-256.99 376,-244 395.99,-223.76 397.81,-214.92 407,-188 413.57,-168.77 415.84,-144.86 416.61,-132.07"/>
<polygon fill="#63b8ff" stroke="#63b8ff" points="329.58,-272.06 322.03,-279.5 332.57,-278.39 329.58,-272.06"/>
</a>
</g>
</g>
<!-- Node12 -->
<g id="Node000012" class="node">
<title>Node12</title>
<g id="a_Node000012"><a xlink:href="uart__commands_8h.html" target="_top" xlink:title=" ">
<polygon fill="white" stroke="#666666" points="382,-188 288,-188 288,-168 382,-168 382,-188"/>
<text text-anchor="middle" x="335" y="-174.5" font-family="Helvetica,sans-Serif" font-size="10.00">uart_commands.h</text>
</a>
</g>
</g>
<!-- Node1&#45;&gt;Node12 -->
<g id="edge21_Node000001_Node000012" class="edge">
<title>Node1&#45;&gt;Node12</title>
<g id="a_edge21_Node000001_Node000012"><a xlink:title=" ">
<path fill="none" stroke="#63b8ff" d="M303.81,-269.3C312.05,-245.43 325.61,-206.2 331.77,-188.35"/>
<polygon fill="#63b8ff" stroke="#63b8ff" points="300.2,-268.03 300.24,-278.62 306.81,-270.31 300.2,-268.03"/>
</a>
</g>
</g>
<!-- Node4 -->
<g id="Node000004" class="node">
<title>Node4</title>
<g id="a_Node000004"><a xlink:href="_joint_8cpp.html" target="_top" xlink:title=" ">
<polygon fill="white" stroke="#666666" points="130.5,-76 75.5,-76 75.5,-56 130.5,-56 130.5,-76"/>
<text text-anchor="middle" x="103" y="-62.5" font-family="Helvetica,sans-Serif" font-size="10.00">Joint.cpp</text>
</a>
</g>
</g>
<!-- Node3&#45;&gt;Node4 -->
<g id="edge3_Node000003_Node000004" class="edge">
<title>Node3&#45;&gt;Node4</title>
<g id="a_edge3_Node000003_Node000004"><a xlink:title=" ">
<path fill="none" stroke="#63b8ff" d="M128.14,-102.72C121.89,-93.84 114.64,-83.55 109.54,-76.3"/>
<polygon fill="#63b8ff" stroke="#63b8ff" points="125.76,-104.43 134.38,-110.59 131.49,-100.4 125.76,-104.43"/>
</a>
</g>
</g>
<!-- Node5 -->
<g id="Node000005" class="node">
<title>Node5</title>
<g id="a_Node000005"><a xlink:href="_motor_8cpp.html" target="_top" xlink:title=" ">
<polygon fill="white" stroke="#666666" points="207.75,-76 148.25,-76 148.25,-56 207.75,-56 207.75,-76"/>
<text text-anchor="middle" x="178" y="-62.5" font-family="Helvetica,sans-Serif" font-size="10.00">Motor.cpp</text>
</a>
</g>
</g>
<!-- Node3&#45;&gt;Node5 -->
<g id="edge4_Node000003_Node000005" class="edge">
<title>Node3&#45;&gt;Node5</title>
<g id="a_edge4_Node000003_Node000005"><a xlink:title=" ">
<path fill="none" stroke="#63b8ff" d="M153.52,-102.72C159.61,-93.84 166.66,-83.55 171.63,-76.3"/>
<polygon fill="#63b8ff" stroke="#63b8ff" points="150.21,-100.37 147.44,-110.59 155.98,-104.32 150.21,-100.37"/>
</a>
</g>
</g>
<!-- Node7&#45;&gt;Node2 -->
<g id="edge7_Node000007_Node000002" class="edge">
<title>Node7&#45;&gt;Node2</title>
<g id="a_edge7_Node000007_Node000002"><a xlink:title=" ">
<path fill="none" stroke="#63b8ff" d="M207.73,-221.24C180.56,-213.89 147.4,-202.96 120,-188 91.63,-172.51 63.67,-146.19 49.87,-132.27"/>
<polygon fill="#63b8ff" stroke="#63b8ff" points="206.65,-224.83 217.21,-223.97 208.42,-218.06 206.65,-224.83"/>
</a>
</g>
</g>
<!-- Node7&#45;&gt;Node3 -->
<g id="edge8_Node000007_Node000003" class="edge">
<title>Node7&#45;&gt;Node3</title>
<g id="a_edge8_Node000007_Node000003"><a xlink:title=" ">
<path fill="none" stroke="#63b8ff" d="M207.71,-229.25C179.47,-224.25 146.84,-212.99 129,-188 117,-171.19 127.81,-145.88 135.28,-132.34"/>
<polygon fill="#63b8ff" stroke="#63b8ff" points="206.85,-232.82 217.27,-230.88 207.92,-225.9 206.85,-232.82"/>
</a>
</g>
</g>
<!-- Node7&#45;&gt;Node6 -->
<g id="edge9_Node000007_Node000006" class="edge">
<title>Node7&#45;&gt;Node6</title>
<g id="a_edge9_Node000007_Node000006"><a xlink:title=" ">
<path fill="none" stroke="#63b8ff" d="M262.95,-212.99C265.61,-199.51 270.46,-181.75 279,-168 288.15,-153.29 303.4,-140.37 314.46,-132.19"/>
<polygon fill="#63b8ff" stroke="#63b8ff" points="259.38,-212.08 261.14,-222.52 266.28,-213.26 259.38,-212.08"/>
</a>
</g>
</g>
<!-- Node8 -->
<g id="Node000008" class="node">
<title>Node8</title>
<g id="a_Node000008"><a xlink:href="_u_a_r_t_handler_8cpp.html" target="_top" xlink:title=" ">
<polygon fill="white" stroke="#666666" points="231.63,-188 138.38,-188 138.38,-168 231.63,-168 231.63,-188"/>
<text text-anchor="middle" x="185" y="-174.5" font-family="Helvetica,sans-Serif" font-size="10.00">UARTHandler.cpp</text>
</a>
</g>
</g>
<!-- Node7&#45;&gt;Node8 -->
<g id="edge10_Node000007_Node000008" class="edge">
<title>Node7&#45;&gt;Node8</title>
<g id="a_edge10_Node000007_Node000008"><a xlink:title=" ">
<path fill="none" stroke="#63b8ff" d="M238.15,-217.27C225.2,-207.94 209.21,-196.43 198.17,-188.48"/>
<polygon fill="#63b8ff" stroke="#63b8ff" points="235.78,-220.59 245.94,-223.59 239.87,-214.91 235.78,-220.59"/>
</a>
</g>
</g>
<!-- Node7&#45;&gt;Node9 -->
<g id="edge11_Node000007_Node000009" class="edge">
<title>Node7&#45;&gt;Node9</title>
<g id="a_edge11_Node000007_Node000009"><a xlink:title=" ">
<path fill="none" stroke="#63b8ff" d="M312.24,-225.63C338.69,-219.5 369.64,-208.32 391,-188 407.02,-172.75 413.41,-146.33 415.76,-132.33"/>
<polygon fill="#63b8ff" stroke="#63b8ff" points="311.65,-222.39 302.6,-227.89 313.11,-229.24 311.65,-222.39"/>
</a>
</g>
</g>
<!-- Node7&#45;&gt;Node12 -->
<g id="edge15_Node000007_Node000012" class="edge">
<title>Node7&#45;&gt;Node12</title>
<g id="a_edge15_Node000007_Node000012"><a xlink:title=" ">
<path fill="none" stroke="#63b8ff" d="M281.85,-217.27C294.8,-207.94 310.79,-196.43 321.83,-188.48"/>
<polygon fill="#63b8ff" stroke="#63b8ff" points="280.13,-214.91 274.06,-223.59 284.22,-220.59 280.13,-214.91"/>
</a>
</g>
</g>
<!-- Node10 -->
<g id="Node000010" class="node">
<title>Node10</title>
<g id="a_Node000010"><a xlink:href="_ble_parser_8cpp.html" target="_top" xlink:title=" ">
<polygon fill="white" stroke="#666666" points="455.75,-20 378.25,-20 378.25,0 455.75,0 455.75,-20"/>
<text text-anchor="middle" x="417" y="-6.5" font-family="Helvetica,sans-Serif" font-size="10.00">BleParser.cpp</text>
</a>
</g>
</g>
<!-- Node9&#45;&gt;Node10 -->
<g id="edge12_Node000009_Node000010" class="edge">
<title>Node9&#45;&gt;Node10</title>
<g id="a_edge12_Node000009_Node000010"><a xlink:title=" ">
<path fill="none" stroke="#63b8ff" d="M410.63,-101.54C408.37,-93.7 406.12,-84.51 405,-76 402.38,-55.97 409.03,-32.76 413.45,-20.21"/>
<polygon fill="#63b8ff" stroke="#63b8ff" points="407.51,-102.31 413.8,-110.83 414.2,-100.25 407.51,-102.31"/>
</a>
</g>
</g>
<!-- Node11 -->
<g id="Node000011" class="node">
<title>Node11</title>
<g id="a_Node000011"><a xlink:href="_ble_parser_8h.html" target="_top" xlink:title="This class is used to serialize and deserialize the BLE data. The application uses Nordic&#39;s UART serv...">
<polygon fill="white" stroke="#666666" points="481.5,-76 414.5,-76 414.5,-56 481.5,-56 481.5,-76"/>
<text text-anchor="middle" x="448" y="-62.5" font-family="Helvetica,sans-Serif" font-size="10.00">BleParser.h</text>
</a>
</g>
</g>
<!-- Node9&#45;&gt;Node11 -->
<g id="edge13_Node000009_Node000011" class="edge">
<title>Node9&#45;&gt;Node11</title>
<g id="a_edge13_Node000009_Node000011"><a xlink:title=" ">
<path fill="none" stroke="#63b8ff" d="M427.82,-102.15C432.84,-93.4 438.59,-83.39 442.66,-76.3"/>
<polygon fill="#63b8ff" stroke="#63b8ff" points="424.34,-100.18 422.4,-110.59 430.41,-103.66 424.34,-100.18"/>
</a>
</g>
</g>
<!-- Node11&#45;&gt;Node10 -->
<g id="edge14_Node000011_Node000010" class="edge">
<title>Node11&#45;&gt;Node10</title>
<g id="a_edge14_Node000011_Node000010"><a xlink:title=" ">
<path fill="none" stroke="#63b8ff" d="M437.18,-46.15C432.16,-37.4 426.41,-27.39 422.34,-20.3"/>
<polygon fill="#63b8ff" stroke="#63b8ff" points="434.59,-47.66 442.6,-54.59 440.66,-44.18 434.59,-47.66"/>
</a>
</g>
</g>
<!-- Node12&#45;&gt;Node2 -->
<g id="edge16_Node000012_Node000002" class="edge">
<title>Node12&#45;&gt;Node2</title>
<g id="a_edge16_Node000012_Node000002"><a xlink:title=" ">
<path fill="none" stroke="#63b8ff" d="M277.05,-166.36C219.66,-155.82 133.23,-139.94 82.42,-130.61"/>
<polygon fill="#63b8ff" stroke="#63b8ff" points="276.3,-169.96 286.76,-168.32 277.56,-163.07 276.3,-169.96"/>
</a>
</g>
</g>
<!-- Node12&#45;&gt;Node3 -->
<g id="edge17_Node000012_Node000003" class="edge">
<title>Node12&#45;&gt;Node3</title>
<g id="a_edge17_Node000012_Node000003"><a xlink:title=" ">
<path fill="none" stroke="#63b8ff" d="M290.76,-164.69C255.63,-154.91 207.22,-141.43 175.06,-132.48"/>
<polygon fill="#63b8ff" stroke="#63b8ff" points="289.64,-168.28 300.21,-167.59 291.51,-161.54 289.64,-168.28"/>
</a>
</g>
</g>
<!-- Node12&#45;&gt;Node6 -->
<g id="edge18_Node000012_Node000006" class="edge">
<title>Node12&#45;&gt;Node6</title>
<g id="a_edge18_Node000012_Node000006"><a xlink:title=" ">
<path fill="none" stroke="#63b8ff" d="M332.37,-156.71C331.28,-148.32 330.07,-139.01 329.21,-132.3"/>
<polygon fill="#63b8ff" stroke="#63b8ff" points="329.02,-157.13 333.78,-166.59 335.97,-156.23 329.02,-157.13"/>
</a>
</g>
</g>
<!-- Node12&#45;&gt;Node9 -->
<g id="edge19_Node000012_Node000009" class="edge">
<title>Node12&#45;&gt;Node9</title>
<g id="a_edge19_Node000012_Node000009"><a xlink:title=" ">
<path fill="none" stroke="#63b8ff" d="M358.06,-161.81C372.37,-152.39 390.3,-140.58 402.61,-132.48"/>
<polygon fill="#63b8ff" stroke="#63b8ff" points="356.71,-159.17 350.28,-167.59 360.56,-165.02 356.71,-159.17"/>
</a>
</g>
</g>
</g>
</svg>
