<?xml version="1.0" encoding="UTF-8" standalone="no"?>
<!DOCTYPE svg PUBLIC "-//W3C//DTD SVG 1.1//EN"
 "http://www.w3.org/Graphics/SVG/1.1/DTD/svg11.dtd">
<!-- Generated by graphviz version 8.1.0 (20230707.0739)
 -->
<!-- Title: Utilities.h Pages: 1 -->
<svg width="685pt" height="308pt"
 viewBox="0.00 0.00 685.25 308.00" xmlns="http://www.w3.org/2000/svg" xmlns:xlink="http://www.w3.org/1999/xlink">
<g id="graph0" class="graph" transform="scale(1 1) rotate(0) translate(4 304)">
<title>Utilities.h</title>
<!-- Node1 -->
<g id="Node000001" class="node">
<title>Node1</title>
<g id="a_Node000001"><a xlink:title=" ">
<polygon fill="#999999" stroke="#666666" points="355,-300 298.5,-300 298.5,-280 355,-280 355,-300"/>
<text text-anchor="middle" x="326.75" y="-286.5" font-family="Helvetica,sans-Serif" font-size="10.00">Utilities.h</text>
</a>
</g>
</g>
<!-- Node2 -->
<g id="Node000002" class="node">
<title>Node2</title>
<g id="a_Node000002"><a xlink:href="_ankle_angles_8cpp.html" target="_top" xlink:title=" ">
<polygon fill="white" stroke="#666666" points="89.5,-244 0,-244 0,-224 89.5,-224 89.5,-244"/>
<text text-anchor="middle" x="44.75" y="-230.5" font-family="Helvetica,sans-Serif" font-size="10.00">AnkleAngles.cpp</text>
</a>
</g>
</g>
<!-- Node1&#45;&gt;Node2 -->
<g id="edge1_Node000001_Node000002" class="edge">
<title>Node1&#45;&gt;Node2</title>
<g id="a_edge1_Node000001_Node000002"><a xlink:title=" ">
<path fill="none" stroke="#63b8ff" d="M287.4,-281.47C235.52,-271.53 144.43,-254.09 89.83,-243.63"/>
<polygon fill="#63b8ff" stroke="#63b8ff" points="286.68,-285.08 297.16,-283.53 288,-278.21 286.68,-285.08"/>
</a>
</g>
</g>
<!-- Node3 -->
<g id="Node000003" class="node">
<title>Node3</title>
<g id="a_Node000003"><a xlink:href="_ble_parser_8cpp.html" target="_top" xlink:title=" ">
<polygon fill="white" stroke="#666666" points="265.5,-20 188,-20 188,0 265.5,0 265.5,-20"/>
<text text-anchor="middle" x="226.75" y="-6.5" font-family="Helvetica,sans-Serif" font-size="10.00">BleParser.cpp</text>
</a>
</g>
</g>
<!-- Node1&#45;&gt;Node3 -->
<g id="edge2_Node000001_Node000003" class="edge">
<title>Node1&#45;&gt;Node3</title>
<g id="a_edge2_Node000001_Node000003"><a xlink:title=" ">
<path fill="none" stroke="#63b8ff" d="M287.3,-284.35C238.18,-277.79 158.13,-264.3 136.75,-244 114.92,-223.28 117.75,-209.1 117.75,-179 117.75,-179 117.75,-179 117.75,-121 117.75,-71.53 174.06,-36.35 205.73,-20.47"/>
<polygon fill="#63b8ff" stroke="#63b8ff" points="286.8,-287.95 297.17,-285.76 287.7,-281 286.8,-287.95"/>
</a>
</g>
</g>
<!-- Node4 -->
<g id="Node000004" class="node">
<title>Node4</title>
<g id="a_Node000004"><a xlink:href="_inclination_detector_8cpp.html" target="_top" xlink:title=" ">
<polygon fill="white" stroke="#666666" points="261.25,-244 146.25,-244 146.25,-224 261.25,-224 261.25,-244"/>
<text text-anchor="middle" x="203.75" y="-230.5" font-family="Helvetica,sans-Serif" font-size="10.00">InclinationDetector.cpp</text>
</a>
</g>
</g>
<!-- Node1&#45;&gt;Node4 -->
<g id="edge3_Node000001_Node000004" class="edge">
<title>Node1&#45;&gt;Node4</title>
<g id="a_edge3_Node000001_Node000004"><a xlink:title=" ">
<path fill="none" stroke="#63b8ff" d="M295.48,-275.27C273.54,-265.64 244.77,-253.01 225.34,-244.48"/>
<polygon fill="#63b8ff" stroke="#63b8ff" points="293.76,-278.78 304.33,-279.59 296.58,-272.37 293.76,-278.78"/>
</a>
</g>
</g>
<!-- Node5 -->
<g id="Node000005" class="node">
<title>Node5</title>
<g id="a_Node000005"><a xlink:href="_params_from_s_d_8h.html" target="_top" xlink:title="Declares the functions to pull controller parameters from the SD card and defines the mapping to the ...">
<polygon fill="white" stroke="#666666" points="373.75,-244 279.75,-244 279.75,-224 373.75,-224 373.75,-244"/>
<text text-anchor="middle" x="326.75" y="-230.5" font-family="Helvetica,sans-Serif" font-size="10.00">ParamsFromSD.h</text>
</a>
</g>
</g>
<!-- Node1&#45;&gt;Node5 -->
<g id="edge4_Node000001_Node000005" class="edge">
<title>Node1&#45;&gt;Node5</title>
<g id="a_edge4_Node000001_Node000005"><a xlink:title=" ">
<path fill="none" stroke="#63b8ff" d="M326.75,-268.71C326.75,-260.32 326.75,-251.01 326.75,-244.3"/>
<polygon fill="#63b8ff" stroke="#63b8ff" points="323.25,-268.59 326.75,-278.59 330.25,-268.59 323.25,-268.59"/>
</a>
</g>
</g>
<!-- Node16 -->
<g id="Node000016" class="node">
<title>Node16</title>
<g id="a_Node000016"><a xlink:href="_real_time_i2_c_8cpp.html" target="_top" xlink:title=" ">
<polygon fill="white" stroke="#666666" points="481.5,-244 392,-244 392,-224 481.5,-224 481.5,-244"/>
<text text-anchor="middle" x="436.75" y="-230.5" font-family="Helvetica,sans-Serif" font-size="10.00">RealTimeI2C.cpp</text>
</a>
</g>
</g>
<!-- Node1&#45;&gt;Node16 -->
<g id="edge18_Node000001_Node000016" class="edge">
<title>Node1&#45;&gt;Node16</title>
<g id="a_edge18_Node000001_Node000016"><a xlink:title=" ">
<path fill="none" stroke="#63b8ff" d="M355.52,-274.88C375.03,-265.3 400.3,-252.89 417.44,-244.48"/>
<polygon fill="#63b8ff" stroke="#63b8ff" points="354.34,-272.05 346.91,-279.59 357.43,-278.33 354.34,-272.05"/>
</a>
</g>
</g>
<!-- Node17 -->
<g id="Node000017" class="node">
<title>Node17</title>
<g id="a_Node000017"><a xlink:href="_u_a_r_t_handler_8cpp.html" target="_top" xlink:title=" ">
<polygon fill="white" stroke="#666666" points="592.38,-244 499.13,-244 499.13,-224 592.38,-224 592.38,-244"/>
<text text-anchor="middle" x="545.75" y="-230.5" font-family="Helvetica,sans-Serif" font-size="10.00">UARTHandler.cpp</text>
</a>
</g>
</g>
<!-- Node1&#45;&gt;Node17 -->
<g id="edge19_Node000001_Node000017" class="edge">
<title>Node1&#45;&gt;Node17</title>
<g id="a_edge19_Node000001_Node000017"><a xlink:title=" ">
<path fill="none" stroke="#63b8ff" d="M365.81,-279.37C405.88,-269.49 467.79,-254.22 507.54,-244.42"/>
<polygon fill="#63b8ff" stroke="#63b8ff" points="365.25,-276.15 356.38,-281.94 366.93,-282.94 365.25,-276.15"/>
</a>
</g>
</g>
<!-- Node18 -->
<g id="Node000018" class="node">
<title>Node18</title>
<g id="a_Node000018"><a xlink:href="_utilities_8cpp.html" target="_top" xlink:title=" ">
<polygon fill="white" stroke="#666666" points="677.25,-244 610.25,-244 610.25,-224 677.25,-224 677.25,-244"/>
<text text-anchor="middle" x="643.75" y="-230.5" font-family="Helvetica,sans-Serif" font-size="10.00">Utilities.cpp</text>
</a>
</g>
</g>
<!-- Node1&#45;&gt;Node18 -->
<g id="edge20_Node000001_Node000018" class="edge">
<title>Node1&#45;&gt;Node18</title>
<g id="a_edge20_Node000001_Node000018"><a xlink:title=" ">
<path fill="none" stroke="#63b8ff" d="M366.04,-283.19C419.5,-275.14 518.09,-259.8 601.75,-244 604.39,-243.5 607.11,-242.97 609.85,-242.41"/>
<polygon fill="#63b8ff" stroke="#63b8ff" points="365.71,-279.85 356.33,-284.79 366.74,-286.77 365.71,-279.85"/>
</a>
</g>
</g>
<!-- Node6 -->
<g id="Node000006" class="node">
<title>Node6</title>
<g id="a_Node000006"><a xlink:href="_exo_data_8cpp.html" target="_top" xlink:title=" ">
<polygon fill="white" stroke="#666666" points="217.88,-188 145.63,-188 145.63,-168 217.88,-168 217.88,-188"/>
<text text-anchor="middle" x="181.75" y="-174.5" font-family="Helvetica,sans-Serif" font-size="10.00">ExoData.cpp</text>
</a>
</g>
</g>
<!-- Node5&#45;&gt;Node6 -->
<g id="edge5_Node000005_Node000006" class="edge">
<title>Node5&#45;&gt;Node6</title>
<g id="a_edge5_Node000005_Node000006"><a xlink:title=" ">
<path fill="none" stroke="#63b8ff" d="M291.28,-219.79C265.25,-210.1 230.52,-197.16 207.2,-188.48"/>
<polygon fill="#63b8ff" stroke="#63b8ff" points="289.9,-223.38 300.49,-223.59 292.34,-216.82 289.9,-223.38"/>
</a>
</g>
</g>
<!-- Node7 -->
<g id="Node000007" class="node">
<title>Node7</title>
<g id="a_Node000007"><a xlink:href="_params_from_s_d_8cpp.html" target="_top" xlink:title=" ">
<polygon fill="white" stroke="#666666" points="340,-188 235.5,-188 235.5,-168 340,-168 340,-188"/>
<text text-anchor="middle" x="287.75" y="-174.5" font-family="Helvetica,sans-Serif" font-size="10.00">ParamsFromSD.cpp</text>
</a>
</g>
</g>
<!-- Node5&#45;&gt;Node7 -->
<g id="edge6_Node000005_Node000007" class="edge">
<title>Node5&#45;&gt;Node7</title>
<g id="a_edge6_Node000005_Node000007"><a xlink:title=" ">
<path fill="none" stroke="#63b8ff" d="M313.55,-214.72C307.13,-205.84 299.7,-195.55 294.47,-188.3"/>
<polygon fill="#63b8ff" stroke="#63b8ff" points="311.26,-216.54 319.96,-222.59 316.94,-212.44 311.26,-216.54"/>
</a>
</g>
</g>
<!-- Node8 -->
<g id="Node000008" class="node">
<title>Node8</title>
<g id="a_Node000008"><a xlink:href="ble__commands_8h.html" target="_top" xlink:title="This file declares the BLE commands, and the functions that should be called when they are received.">
<polygon fill="white" stroke="#666666" points="333.88,-132 243.63,-132 243.63,-112 333.88,-112 333.88,-132"/>
<text text-anchor="middle" x="288.75" y="-118.5" font-family="Helvetica,sans-Serif" font-size="10.00">ble_commands.h</text>
</a>
</g>
</g>
<!-- Node5&#45;&gt;Node8 -->
<g id="edge7_Node000005_Node000008" class="edge">
<title>Node5&#45;&gt;Node8</title>
<g id="a_edge7_Node000005_Node000008"><a xlink:title=" ">
<path fill="none" stroke="#63b8ff" d="M340.24,-215.16C348.59,-201.79 356.38,-183.26 348.75,-168 340.66,-151.81 323.66,-139.94 309.82,-132.46"/>
<polygon fill="#63b8ff" stroke="#63b8ff" points="337.04,-212.63 334.27,-222.86 342.82,-216.59 337.04,-212.63"/>
</a>
</g>
</g>
<!-- Node10 -->
<g id="Node000010" class="node">
<title>Node10</title>
<g id="a_Node000010"><a xlink:href="uart__commands_8h.html" target="_top" xlink:title=" ">
<polygon fill="white" stroke="#666666" points="489.75,-188 395.75,-188 395.75,-168 489.75,-168 489.75,-188"/>
<text text-anchor="middle" x="442.75" y="-174.5" font-family="Helvetica,sans-Serif" font-size="10.00">uart_commands.h</text>
</a>
</g>
</g>
<!-- Node5&#45;&gt;Node10 -->
<g id="edge11_Node000005_Node000010" class="edge">
<title>Node5&#45;&gt;Node10</title>
<g id="a_edge11_Node000005_Node000010"><a xlink:title=" ">
<path fill="none" stroke="#63b8ff" d="M356.8,-219.01C377.42,-209.41 404.23,-196.93 422.39,-188.48"/>
<polygon fill="#63b8ff" stroke="#63b8ff" points="355.54,-216.2 347.96,-223.59 358.5,-222.55 355.54,-216.2"/>
</a>
</g>
</g>
<!-- Node8&#45;&gt;Node3 -->
<g id="edge8_Node000008_Node000003" class="edge">
<title>Node8&#45;&gt;Node3</title>
<g id="a_edge8_Node000008_Node000003"><a xlink:title=" ">
<path fill="none" stroke="#63b8ff" d="M269.16,-104.42C260.92,-96.55 251.84,-86.56 245.75,-76 235.29,-57.88 230.19,-33.53 228.05,-20.38"/>
<polygon fill="#63b8ff" stroke="#63b8ff" points="266.53,-106.67 276.29,-110.8 271.24,-101.49 266.53,-106.67"/>
</a>
</g>
</g>
<!-- Node9 -->
<g id="Node000009" class="node">
<title>Node9</title>
<g id="a_Node000009"><a xlink:href="_ble_parser_8h.html" target="_top" xlink:title="This class is used to serialize and deserialize the BLE data. The application uses Nordic&#39;s UART serv...">
<polygon fill="white" stroke="#666666" points="322.25,-76 255.25,-76 255.25,-56 322.25,-56 322.25,-76"/>
<text text-anchor="middle" x="288.75" y="-62.5" font-family="Helvetica,sans-Serif" font-size="10.00">BleParser.h</text>
</a>
</g>
</g>
<!-- Node8&#45;&gt;Node9 -->
<g id="edge9_Node000008_Node000009" class="edge">
<title>Node8&#45;&gt;Node9</title>
<g id="a_edge9_Node000008_Node000009"><a xlink:title=" ">
<path fill="none" stroke="#63b8ff" d="M288.75,-100.71C288.75,-92.32 288.75,-83.01 288.75,-76.3"/>
<polygon fill="#63b8ff" stroke="#63b8ff" points="285.25,-100.59 288.75,-110.59 292.25,-100.59 285.25,-100.59"/>
</a>
</g>
</g>
<!-- Node9&#45;&gt;Node3 -->
<g id="edge10_Node000009_Node000003" class="edge">
<title>Node9&#45;&gt;Node3</title>
<g id="a_edge10_Node000009_Node000003"><a xlink:title=" ">
<path fill="none" stroke="#63b8ff" d="M269.69,-48.4C259.09,-39.17 246.28,-28.01 237.43,-20.3"/>
<polygon fill="#63b8ff" stroke="#63b8ff" points="267.11,-51.67 276.95,-55.59 271.71,-46.39 267.11,-51.67"/>
</a>
</g>
</g>
<!-- Node10&#45;&gt;Node8 -->
<g id="edge17_Node000010_Node000008" class="edge">
<title>Node10&#45;&gt;Node8</title>
<g id="a_edge17_Node000010_Node000008"><a xlink:title=" ">
<path fill="none" stroke="#63b8ff" d="M405.82,-164.05C378.09,-154.33 340.76,-141.24 315.78,-132.48"/>
<polygon fill="#63b8ff" stroke="#63b8ff" points="404.33,-167.59 414.93,-167.59 406.65,-160.98 404.33,-167.59"/>
</a>
</g>
</g>
<!-- Node11 -->
<g id="Node000011" class="node">
<title>Node11</title>
<g id="a_Node000011"><a xlink:href="_coms_m_c_u_8cpp.html" target="_top" xlink:title=" ">
<polygon fill="white" stroke="#666666" points="433.75,-132 351.75,-132 351.75,-112 433.75,-112 433.75,-132"/>
<text text-anchor="middle" x="392.75" y="-118.5" font-family="Helvetica,sans-Serif" font-size="10.00">ComsMCU.cpp</text>
</a>
</g>
</g>
<!-- Node10&#45;&gt;Node11 -->
<g id="edge12_Node000010_Node000011" class="edge">
<title>Node10&#45;&gt;Node11</title>
<g id="a_edge12_Node000010_Node000011"><a xlink:title=" ">
<path fill="none" stroke="#63b8ff" d="M426.61,-159.57C418.21,-150.5 408.29,-139.78 401.36,-132.3"/>
<polygon fill="#63b8ff" stroke="#63b8ff" points="423.68,-161.63 433.04,-166.59 428.81,-156.88 423.68,-161.63"/>
</a>
</g>
</g>
<!-- Node12 -->
<g id="Node000012" class="node">
<title>Node12</title>
<g id="a_Node000012"><a xlink:href="_error_reporter_8h.html" target="_top" xlink:title="Singleton class to report errors to the other microcontroller.">
<polygon fill="white" stroke="#666666" points="533.75,-132 451.75,-132 451.75,-112 533.75,-112 533.75,-132"/>
<text text-anchor="middle" x="492.75" y="-118.5" font-family="Helvetica,sans-Serif" font-size="10.00">ErrorReporter.h</text>
</a>
</g>
</g>
<!-- Node10&#45;&gt;Node12 -->
<g id="edge13_Node000010_Node000012" class="edge">
<title>Node10&#45;&gt;Node12</title>
<g id="a_edge13_Node000010_Node000012"><a xlink:title=" ">
<path fill="none" stroke="#63b8ff" d="M458.89,-159.57C467.29,-150.5 477.21,-139.78 484.14,-132.3"/>
<polygon fill="#63b8ff" stroke="#63b8ff" points="456.69,-156.88 452.46,-166.59 461.82,-161.63 456.69,-156.88"/>
</a>
</g>
</g>
<!-- Node15 -->
<g id="Node000015" class="node">
<title>Node15</title>
<g id="a_Node000015"><a xlink:href="_exo_8cpp.html" target="_top" xlink:title=" ">
<polygon fill="white" stroke="#666666" points="603.75,-132 551.75,-132 551.75,-112 603.75,-112 603.75,-132"/>
<text text-anchor="middle" x="577.75" y="-118.5" font-family="Helvetica,sans-Serif" font-size="10.00">Exo.cpp</text>
</a>
</g>
</g>
<!-- Node10&#45;&gt;Node15 -->
<g id="edge16_Node000010_Node000015" class="edge">
<title>Node10&#45;&gt;Node15</title>
<g id="a_edge16_Node000010_Node000015"><a xlink:title=" ">
<path fill="none" stroke="#63b8ff" d="M476.42,-163.53C500.58,-153.87 532.54,-141.08 554.05,-132.48"/>
<polygon fill="#63b8ff" stroke="#63b8ff" points="475.25,-160.63 467.27,-167.59 477.85,-167.13 475.25,-160.63"/>
</a>
</g>
</g>
<!-- Node13 -->
<g id="Node000013" class="node">
<title>Node13</title>
<g id="a_Node000013"><a xlink:href="_joint_8cpp.html" target="_top" xlink:title=" ">
<polygon fill="white" stroke="#666666" points="482.25,-76 427.25,-76 427.25,-56 482.25,-56 482.25,-76"/>
<text text-anchor="middle" x="454.75" y="-62.5" font-family="Helvetica,sans-Serif" font-size="10.00">Joint.cpp</text>
</a>
</g>
</g>
<!-- Node12&#45;&gt;Node13 -->
<g id="edge14_Node000012_Node000013" class="edge">
<title>Node12&#45;&gt;Node13</title>
<g id="a_edge14_Node000012_Node000013"><a xlink:title=" ">
<path fill="none" stroke="#63b8ff" d="M479.89,-102.72C473.64,-93.84 466.39,-83.55 461.29,-76.3"/>
<polygon fill="#63b8ff" stroke="#63b8ff" points="477.51,-104.43 486.13,-110.59 483.24,-100.4 477.51,-104.43"/>
</a>
</g>
</g>
<!-- Node14 -->
<g id="Node000014" class="node">
<title>Node14</title>
<g id="a_Node000014"><a xlink:href="_motor_8cpp.html" target="_top" xlink:title=" ">
<polygon fill="white" stroke="#666666" points="559.5,-76 500,-76 500,-56 559.5,-56 559.5,-76"/>
<text text-anchor="middle" x="529.75" y="-62.5" font-family="Helvetica,sans-Serif" font-size="10.00">Motor.cpp</text>
</a>
</g>
</g>
<!-- Node12&#45;&gt;Node14 -->
<g id="edge15_Node000012_Node000014" class="edge">
<title>Node12&#45;&gt;Node14</title>
<g id="a_edge15_Node000012_Node000014"><a xlink:title=" ">
<path fill="none" stroke="#63b8ff" d="M505.27,-102.72C511.36,-93.84 518.41,-83.55 523.38,-76.3"/>
<polygon fill="#63b8ff" stroke="#63b8ff" points="501.96,-100.37 499.19,-110.59 507.73,-104.32 501.96,-100.37"/>
</a>
</g>
</g>
</g>
</svg>
