<?xml version="1.0" encoding="UTF-8" standalone="no"?>
<!DOCTYPE svg PUBLIC "-//W3C//DTD SVG 1.1//EN"
 "http://www.w3.org/Graphics/SVG/1.1/DTD/svg11.dtd">
<!-- Generated by graphviz version 8.1.0 (20230707.0739)
 -->
<!-- Title: ble_commands.h Pages: 1 -->
<svg width="1686pt" height="532pt"
 viewBox="0.00 0.00 1686.13 532.00" xmlns="http://www.w3.org/2000/svg" xmlns:xlink="http://www.w3.org/1999/xlink">
<g id="graph0" class="graph" transform="scale(1 1) rotate(0) translate(4 528)">
<title>ble_commands.h</title>
<!-- Node1 -->
<g id="Node000001" class="node">
<title>Node1</title>
<g id="a_Node000001"><a xlink:title="This file declares the BLE commands, and the functions that should be called when they are received.">
<polygon fill="#999999" stroke="#666666" points="693.13,-524 602.88,-524 602.88,-504 693.13,-504 693.13,-524"/>
<text text-anchor="middle" x="648" y="-510.5" font-family="Helvetica,sans-Serif" font-size="10.00">ble_commands.h</text>
</a>
</g>
</g>
<!-- Node2 -->
<g id="Node000002" class="node">
<title>Node2</title>
<g id="a_Node000002"><a xlink:title=" ">
<polygon fill="#e0e0e0" stroke="#999999" points="592.63,-20 535.38,-20 535.38,0 592.63,0 592.63,-20"/>
<text text-anchor="middle" x="564" y="-6.5" font-family="Helvetica,sans-Serif" font-size="10.00">Arduino.h</text>
</a>
</g>
</g>
<!-- Node1&#45;&gt;Node2 -->
<g id="edge1_Node000001_Node000002" class="edge">
<title>Node1&#45;&gt;Node2</title>
<g id="a_edge1_Node000001_Node000002"><a xlink:title=" ">
<path fill="none" stroke="#63b8ff" d="M693.51,-512.42C879.48,-509.48 1572,-492.51 1572,-403 1572,-403 1572,-403 1572,-121 1572,-57.99 1506.84,-72.42 1446,-56 1283.88,-12.24 753.46,-10.42 603.7,-10.81"/>
<polygon fill="#63b8ff" stroke="#63b8ff" points="603.77,-7.31 593.78,-10.84 603.79,-14.31 603.77,-7.31"/>
</a>
</g>
</g>
<!-- Node3 -->
<g id="Node000003" class="node">
<title>Node3</title>
<g id="a_Node000003"><a xlink:href="_exo_data_8h.html" target="_top" xlink:title="Declares a class used to store data for the Exo to access.">
<polygon fill="white" stroke="#666666" points="538.88,-356 477.13,-356 477.13,-336 538.88,-336 538.88,-356"/>
<text text-anchor="middle" x="508" y="-342.5" font-family="Helvetica,sans-Serif" font-size="10.00">ExoData.h</text>
</a>
</g>
</g>
<!-- Node1&#45;&gt;Node3 -->
<g id="edge2_Node000001_Node000003" class="edge">
<title>Node1&#45;&gt;Node3</title>
<g id="a_edge2_Node000001_Node000003"><a xlink:title=" ">
<path fill="none" stroke="#63b8ff" d="M638,-503.67C628.64,-494.78 614.44,-480.9 603,-468 572.01,-433.05 539.02,-389.38 521.23,-365.21"/>
<polygon fill="#63b8ff" stroke="#63b8ff" points="523.52,-363.41 514.79,-357.41 517.87,-367.55 523.52,-363.41"/>
</a>
</g>
</g>
<!-- Node7 -->
<g id="Node000007" class="node">
<title>Node7</title>
<g id="a_Node000007"><a xlink:href="_parse_ini_8h.html" target="_top" xlink:title="Declares the functions needed and defines mapping between the INI keys and the exo components.">
<polygon fill="white" stroke="#666666" points="1032.75,-132 973.25,-132 973.25,-112 1032.75,-112 1032.75,-132"/>
<text text-anchor="middle" x="1003" y="-118.5" font-family="Helvetica,sans-Serif" font-size="10.00">ParseIni.h</text>
</a>
</g>
</g>
<!-- Node1&#45;&gt;Node7 -->
<g id="edge44_Node000001_Node000007" class="edge">
<title>Node1&#45;&gt;Node7</title>
<g id="a_edge44_Node000001_Node000007"><a xlink:title=" ">
<path fill="none" stroke="#63b8ff" d="M693.48,-506.91C764.4,-496 904.1,-468.74 1009,-412 1042.24,-394.02 1057.08,-390.28 1073,-356 1108.32,-279.98 1104.05,-238.04 1058,-168 1050.35,-156.36 1038.74,-146.23 1028.16,-138.55"/>
<polygon fill="#63b8ff" stroke="#63b8ff" points="1030.48,-135.21 1020.26,-132.45 1026.53,-140.99 1030.48,-135.21"/>
</a>
</g>
</g>
<!-- Node17 -->
<g id="Node000017" class="node">
<title>Node17</title>
<g id="a_Node000017"><a xlink:href="_status_defs_8h.html" target="_top" xlink:title="Stores the different status messages for the system.">
<polygon fill="white" stroke="#666666" points="308.13,-188 235.88,-188 235.88,-168 308.13,-168 308.13,-188"/>
<text text-anchor="middle" x="272" y="-174.5" font-family="Helvetica,sans-Serif" font-size="10.00">StatusDefs.h</text>
</a>
</g>
</g>
<!-- Node1&#45;&gt;Node17 -->
<g id="edge45_Node000001_Node000017" class="edge">
<title>Node1&#45;&gt;Node17</title>
<g id="a_edge45_Node000001_Node000017"><a xlink:title=" ">
<path fill="none" stroke="#63b8ff" d="M602.4,-511.99C502.95,-509.21 269.73,-499.44 198,-468 163.69,-452.96 157.35,-442.06 135,-412 113.7,-383.35 95.03,-368.85 109,-336 137.14,-269.84 208.33,-218.04 246.66,-193.88"/>
<polygon fill="#63b8ff" stroke="#63b8ff" points="247.97,-196.57 254.64,-188.34 244.29,-190.61 247.97,-196.57"/>
</a>
</g>
</g>
<!-- Node18 -->
<g id="Node000018" class="node">
<title>Node18</title>
<g id="a_Node000018"><a xlink:href="_ble_message_8h.html" target="_top" xlink:title="Defines the BleMessage class used to hold command&#45;data pairs exchanged between the GUI.">
<polygon fill="white" stroke="#666666" points="1678.13,-468 1599.88,-468 1599.88,-448 1678.13,-448 1678.13,-468"/>
<text text-anchor="middle" x="1639" y="-454.5" font-family="Helvetica,sans-Serif" font-size="10.00">BleMessage.h</text>
</a>
</g>
</g>
<!-- Node1&#45;&gt;Node18 -->
<g id="edge46_Node000001_Node000018" class="edge">
<title>Node1&#45;&gt;Node18</title>
<g id="a_edge46_Node000001_Node000018"><a xlink:title=" ">
<path fill="none" stroke="#63b8ff" d="M693.54,-512.75C829.53,-511.6 1244.41,-505.06 1586,-468 1586.95,-467.9 1587.92,-467.79 1588.89,-467.67"/>
<polygon fill="#63b8ff" stroke="#63b8ff" points="1588.98,-471.06 1598.42,-466.26 1588.05,-464.12 1588.98,-471.06"/>
</a>
</g>
</g>
<!-- Node19 -->
<g id="Node000019" class="node">
<title>Node19</title>
<g id="a_Node000019"><a xlink:href="_params_from_s_d_8h.html" target="_top" xlink:title="Declares the functions to pull controller parameters from the SD card and defines the mapping to the ...">
<polygon fill="white" stroke="#666666" points="1357,-412 1263,-412 1263,-392 1357,-392 1357,-412"/>
<text text-anchor="middle" x="1310" y="-398.5" font-family="Helvetica,sans-Serif" font-size="10.00">ParamsFromSD.h</text>
</a>
</g>
</g>
<!-- Node1&#45;&gt;Node19 -->
<g id="edge47_Node000001_Node000019" class="edge">
<title>Node1&#45;&gt;Node19</title>
<g id="a_edge47_Node000001_Node000019"><a xlink:title=" ">
<path fill="none" stroke="#63b8ff" d="M693.57,-511.57C806.29,-507.65 1095.72,-495.17 1188,-468 1225.27,-457.03 1264.18,-433.94 1287.76,-418.45"/>
<polygon fill="#63b8ff" stroke="#63b8ff" points="1289.53,-420.81 1295.88,-412.33 1285.63,-415 1289.53,-420.81"/>
</a>
</g>
</g>
<!-- Node25 -->
<g id="Node000025" class="node">
<title>Node25</title>
<g id="a_Node000025"><a xlink:href="_u_a_r_t_handler_8h.html" target="_top" xlink:title="Singleton class that manages the UART data. NOT THREAD SAFE. The class queues recieved messages.">
<polygon fill="white" stroke="#666666" points="235.38,-412 152.63,-412 152.63,-392 235.38,-392 235.38,-412"/>
<text text-anchor="middle" x="194" y="-398.5" font-family="Helvetica,sans-Serif" font-size="10.00">UARTHandler.h</text>
</a>
</g>
</g>
<!-- Node1&#45;&gt;Node25 -->
<g id="edge60_Node000001_Node000025" class="edge">
<title>Node1&#45;&gt;Node25</title>
<g id="a_edge60_Node000001_Node000025"><a xlink:title=" ">
<path fill="none" stroke="#63b8ff" d="M608.9,-503.53C526.43,-483.55 334.81,-437.12 243.76,-415.06"/>
<polygon fill="#63b8ff" stroke="#63b8ff" points="244.71,-411.44 234.17,-412.49 243.06,-418.25 244.71,-411.44"/>
</a>
</g>
</g>
<!-- Node26 -->
<g id="Node000026" class="node">
<title>Node26</title>
<g id="a_Node000026"><a xlink:href="_u_a_r_t__msg__t_8h.html" target="_top" xlink:title=" ">
<polygon fill="white" stroke="#666666" points="200,-356 118,-356 118,-336 200,-336 200,-356"/>
<text text-anchor="middle" x="159" y="-342.5" font-family="Helvetica,sans-Serif" font-size="10.00">UART_msg_t.h</text>
</a>
</g>
</g>
<!-- Node1&#45;&gt;Node26 -->
<g id="edge80_Node000001_Node000026" class="edge">
<title>Node1&#45;&gt;Node26</title>
<g id="a_edge80_Node000001_Node000026"><a xlink:title=" ">
<path fill="none" stroke="#63b8ff" d="M602.7,-511.13C489.75,-505.39 200.62,-483.84 144,-412 133.62,-398.83 139.78,-379.75 147.1,-365.67"/>
<polygon fill="#63b8ff" stroke="#63b8ff" points="150.45,-367.87 152.41,-357.46 144.38,-364.37 150.45,-367.87"/>
</a>
</g>
</g>
<!-- Node27 -->
<g id="Node000027" class="node">
<title>Node27</title>
<g id="a_Node000027"><a xlink:href="_logger_8h.html" target="_top" xlink:title=" ">
<polygon fill="white" stroke="#666666" points="115.75,-244 62.25,-244 62.25,-224 115.75,-224 115.75,-244"/>
<text text-anchor="middle" x="89" y="-230.5" font-family="Helvetica,sans-Serif" font-size="10.00">Logger.h</text>
</a>
</g>
</g>
<!-- Node1&#45;&gt;Node27 -->
<g id="edge81_Node000001_Node000027" class="edge">
<title>Node1&#45;&gt;Node27</title>
<g id="a_edge81_Node000001_Node000027"><a xlink:title=" ">
<path fill="none" stroke="#63b8ff" d="M602.49,-512.07C469.1,-508.99 85.53,-497.65 38,-468 9.61,-450.29 0,-436.46 0,-403 0,-403 0,-403 0,-345 0,-303.69 38.41,-269.18 64.76,-250.37"/>
<polygon fill="#63b8ff" stroke="#63b8ff" points="66.23,-252.92 72.5,-244.39 62.27,-247.15 66.23,-252.92"/>
</a>
</g>
</g>
<!-- Node28 -->
<g id="Node000028" class="node">
<title>Node28</title>
<g id="a_Node000028"><a xlink:href="uart__commands_8h.html" target="_top" xlink:title=" ">
<polygon fill="white" stroke="#666666" points="706,-468 612,-468 612,-448 706,-448 706,-468"/>
<text text-anchor="middle" x="659" y="-454.5" font-family="Helvetica,sans-Serif" font-size="10.00">uart_commands.h</text>
</a>
</g>
</g>
<!-- Node1&#45;&gt;Node28 -->
<g id="edge69_Node000001_Node000028" class="edge">
<title>Node1&#45;&gt;Node28</title>
<g id="a_edge69_Node000001_Node000028"><a xlink:title=" ">
<path fill="none" stroke="#63b8ff" d="M649.92,-503.59C651.3,-496.78 653.23,-487.32 654.95,-478.86"/>
<polygon fill="#63b8ff" stroke="#63b8ff" points="658.54,-479.8 657.11,-469.3 651.68,-478.4 658.54,-479.8"/>
</a>
</g>
</g>
<!-- Node3&#45;&gt;Node2 -->
<g id="edge3_Node000003_Node000002" class="edge">
<title>Node3&#45;&gt;Node2</title>
<g id="a_edge3_Node000003_Node000002"><a xlink:title=" ">
<path fill="none" stroke="#63b8ff" d="M490.84,-335.66C463.22,-319.25 412,-282.4 412,-235 412,-235 412,-235 412,-121 412,-65.36 479.67,-35 524.7,-20.95"/>
<polygon fill="#63b8ff" stroke="#63b8ff" points="525.46,-24.08 534.05,-17.88 523.47,-17.37 525.46,-24.08"/>
</a>
</g>
</g>
<!-- Node4 -->
<g id="Node000004" class="node">
<title>Node4</title>
<g id="a_Node000004"><a xlink:href="_leg_data_8h.html" target="_top" xlink:title="Declares a class used to store data for leg to access.">
<polygon fill="white" stroke="#666666" points="670.13,-300 609.88,-300 609.88,-280 670.13,-280 670.13,-300"/>
<text text-anchor="middle" x="640" y="-286.5" font-family="Helvetica,sans-Serif" font-size="10.00">LegData.h</text>
</a>
</g>
</g>
<!-- Node3&#45;&gt;Node4 -->
<g id="edge4_Node000003_Node000004" class="edge">
<title>Node3&#45;&gt;Node4</title>
<g id="a_edge4_Node000003_Node000004"><a xlink:title=" ">
<path fill="none" stroke="#63b8ff" d="M530.99,-335.59C551.97,-327.01 583.21,-314.23 606.88,-304.55"/>
<polygon fill="#63b8ff" stroke="#63b8ff" points="607.9,-307.51 615.83,-300.48 605.25,-301.03 607.9,-307.51"/>
</a>
</g>
</g>
<!-- Node3&#45;&gt;Node7 -->
<g id="edge35_Node000003_Node000007" class="edge">
<title>Node3&#45;&gt;Node7</title>
<g id="a_edge35_Node000003_Node000007"><a xlink:title=" ">
<path fill="none" stroke="#63b8ff" d="M539.36,-339.39C604.67,-327.08 759.31,-294.7 881,-244 927.31,-224.71 946.58,-226.28 979,-188 989.93,-175.09 996.1,-156.75 999.43,-142.84"/>
<polygon fill="#63b8ff" stroke="#63b8ff" points="1002.99,-143.92 1001.61,-133.42 996.14,-142.49 1002.99,-143.92"/>
</a>
</g>
</g>
<!-- Node8 -->
<g id="Node000008" class="node">
<title>Node8</title>
<g id="a_Node000008"><a xlink:title=" ">
<polygon fill="#e0e0e0" stroke="#999999" points="807.13,-76 758.88,-76 758.88,-56 807.13,-56 807.13,-76"/>
<text text-anchor="middle" x="783" y="-62.5" font-family="Helvetica,sans-Serif" font-size="10.00">stdint.h</text>
</a>
</g>
</g>
<!-- Node3&#45;&gt;Node8 -->
<g id="edge34_Node000003_Node000008" class="edge">
<title>Node3&#45;&gt;Node8</title>
<g id="a_edge34_Node000003_Node000008"><a xlink:title=" ">
<path fill="none" stroke="#63b8ff" d="M515.08,-335.91C540.64,-303.43 631.28,-190.82 720,-112 732.13,-101.22 746.83,-90.6 758.98,-82.39"/>
<polygon fill="#63b8ff" stroke="#63b8ff" points="760.67,-84.8 767.08,-76.36 756.81,-78.97 760.67,-84.8"/>
</a>
</g>
</g>
<!-- Node9 -->
<g id="Node000009" class="node">
<title>Node9</title>
<g id="a_Node000009"><a xlink:href="_board_8h.html" target="_top" xlink:title="Defines the pins and peripherals for the board being used.">
<polygon fill="white" stroke="#666666" points="527.88,-132 478.13,-132 478.13,-112 527.88,-112 527.88,-132"/>
<text text-anchor="middle" x="503" y="-118.5" font-family="Helvetica,sans-Serif" font-size="10.00">Board.h</text>
</a>
</g>
</g>
<!-- Node3&#45;&gt;Node9 -->
<g id="edge36_Node000003_Node000009" class="edge">
<title>Node3&#45;&gt;Node9</title>
<g id="a_edge36_Node000003_Node000009"><a xlink:title=" ">
<path fill="none" stroke="#63b8ff" d="M498.07,-335.74C489.83,-327.33 478.73,-314.11 474,-300 455.41,-244.56 479.69,-175.22 493.96,-142.2"/>
<polygon fill="#63b8ff" stroke="#63b8ff" points="497.43,-144.02 498.33,-133.47 491.04,-141.15 497.43,-144.02"/>
</a>
</g>
</g>
<!-- Node16 -->
<g id="Node000016" class="node">
<title>Node16</title>
<g id="a_Node000016"><a xlink:href="_status_led_8h.html" target="_top" xlink:title="Class to set an RGB LED to different colors based on the state of the system.">
<polygon fill="white" stroke="#666666" points="383.25,-244 314.75,-244 314.75,-224 383.25,-224 383.25,-244"/>
<text text-anchor="middle" x="349" y="-230.5" font-family="Helvetica,sans-Serif" font-size="10.00">StatusLed.h</text>
</a>
</g>
</g>
<!-- Node3&#45;&gt;Node16 -->
<g id="edge37_Node000003_Node000016" class="edge">
<title>Node3&#45;&gt;Node16</title>
<g id="a_edge37_Node000003_Node000016"><a xlink:title=" ">
<path fill="none" stroke="#63b8ff" d="M476.77,-337.11C453.4,-330.11 421.53,-318.14 398,-300 381.61,-287.37 367.93,-267.91 359.23,-253.58"/>
<polygon fill="#63b8ff" stroke="#63b8ff" points="361.85,-252.12 353.81,-245.22 355.79,-255.63 361.85,-252.12"/>
</a>
</g>
</g>
<!-- Node3&#45;&gt;Node17 -->
<g id="edge43_Node000003_Node000017" class="edge">
<title>Node3&#45;&gt;Node17</title>
<g id="a_edge43_Node000003_Node000017"><a xlink:title=" ">
<path fill="none" stroke="#63b8ff" d="M476.87,-337.83C449.05,-330.65 407.76,-318.07 375,-300 340.42,-280.93 331,-274.57 306,-244 294.55,-230 285.34,-211.52 279.41,-197.85"/>
<polygon fill="#63b8ff" stroke="#63b8ff" points="282.43,-197 275.37,-189.09 275.96,-199.67 282.43,-197"/>
</a>
</g>
</g>
<!-- Node4&#45;&gt;Node2 -->
<g id="edge5_Node000004_Node000002" class="edge">
<title>Node4&#45;&gt;Node2</title>
<g id="a_edge5_Node000004_Node000002"><a xlink:title=" ">
<path fill="none" stroke="#63b8ff" d="M627.45,-279.63C605.86,-262.33 564,-223.1 564,-179 564,-179 564,-179 564,-121 564,-89.72 564,-53.45 564,-31.37"/>
<polygon fill="#63b8ff" stroke="#63b8ff" points="567.5,-31.42 564,-21.42 560.5,-31.42 567.5,-31.42"/>
</a>
</g>
</g>
<!-- Node5 -->
<g id="Node000005" class="node">
<title>Node5</title>
<g id="a_Node000005"><a xlink:href="_joint_data_8h.html" target="_top" xlink:title="Declares a class used to store data for joint to access.">
<polygon fill="white" stroke="#666666" points="781.38,-244 716.63,-244 716.63,-224 781.38,-224 781.38,-244"/>
<text text-anchor="middle" x="749" y="-230.5" font-family="Helvetica,sans-Serif" font-size="10.00">JointData.h</text>
</a>
</g>
</g>
<!-- Node4&#45;&gt;Node5 -->
<g id="edge6_Node000004_Node000005" class="edge">
<title>Node4&#45;&gt;Node5</title>
<g id="a_edge6_Node000004_Node000005"><a xlink:title=" ">
<path fill="none" stroke="#63b8ff" d="M658.99,-279.59C675.84,-271.24 700.72,-258.92 720.06,-249.34"/>
<polygon fill="#63b8ff" stroke="#63b8ff" points="721.46,-252.05 728.87,-244.48 718.35,-245.78 721.46,-252.05"/>
</a>
</g>
</g>
<!-- Node4&#45;&gt;Node7 -->
<g id="edge27_Node000004_Node000007" class="edge">
<title>Node4&#45;&gt;Node7</title>
<g id="a_edge27_Node000004_Node000007"><a xlink:title=" ">
<path fill="none" stroke="#63b8ff" d="M670.19,-285.72C729.83,-277.96 864.81,-253.89 955,-188 971.59,-175.88 984.91,-156.35 993.27,-141.86"/>
<polygon fill="#63b8ff" stroke="#63b8ff" points="996.73,-143.83 998.45,-133.38 990.59,-140.47 996.73,-143.83"/>
</a>
</g>
</g>
<!-- Node4&#45;&gt;Node8 -->
<g id="edge33_Node000004_Node000008" class="edge">
<title>Node4&#45;&gt;Node8</title>
<g id="a_edge33_Node000004_Node000008"><a xlink:title=" ">
<path fill="none" stroke="#63b8ff" d="M643.38,-279.77C651.2,-258.93 671.83,-207.03 697,-168 717.57,-136.11 747.28,-103.43 765.85,-84.19"/>
<polygon fill="#63b8ff" stroke="#63b8ff" points="768.04,-86.94 772.53,-77.35 763.03,-82.05 768.04,-86.94"/>
</a>
</g>
</g>
<!-- Node4&#45;&gt;Node9 -->
<g id="edge28_Node000004_Node000009" class="edge">
<title>Node4&#45;&gt;Node9</title>
<g id="a_edge28_Node000004_Node000009"><a xlink:title=" ">
<path fill="none" stroke="#63b8ff" d="M609.76,-280.18C590.4,-273.17 566,-261.56 550,-244 523.54,-214.95 511.32,-169.33 506.22,-143.2"/>
<polygon fill="#63b8ff" stroke="#63b8ff" points="509.49,-142.62 504.3,-133.39 502.6,-143.85 509.49,-142.62"/>
</a>
</g>
</g>
<!-- Node14 -->
<g id="Node000014" class="node">
<title>Node14</title>
<g id="a_Node000014"><a xlink:href="_inclination_detector_8h.html" target="_top" xlink:title=" ">
<polygon fill="white" stroke="#666666" points="1306.25,-188 1201.75,-188 1201.75,-168 1306.25,-168 1306.25,-188"/>
<text text-anchor="middle" x="1254" y="-174.5" font-family="Helvetica,sans-Serif" font-size="10.00">InclinationDetector.h</text>
</a>
</g>
</g>
<!-- Node4&#45;&gt;Node14 -->
<g id="edge29_Node000004_Node000014" class="edge">
<title>Node4&#45;&gt;Node14</title>
<g id="a_edge29_Node000004_Node000014"><a xlink:title=" ">
<path fill="none" stroke="#63b8ff" d="M670.37,-286.46C732.34,-281 877.67,-266.75 998,-244 1073.98,-229.64 1160.94,-205.99 1211.45,-191.53"/>
<polygon fill="#63b8ff" stroke="#63b8ff" points="1212.32,-194.63 1220.96,-188.5 1210.38,-187.9 1212.32,-194.63"/>
</a>
</g>
</g>
<!-- Node5&#45;&gt;Node2 -->
<g id="edge7_Node000005_Node000002" class="edge">
<title>Node5&#45;&gt;Node2</title>
<g id="a_edge7_Node000005_Node000002"><a xlink:title=" ">
<path fill="none" stroke="#63b8ff" d="M736.79,-223.66C725.81,-215 709.54,-201.44 697,-188 647.09,-134.52 597.88,-62.74 575.92,-29.42"/>
<polygon fill="#63b8ff" stroke="#63b8ff" points="578.41,-27.83 570,-21.38 572.55,-31.66 578.41,-27.83"/>
</a>
</g>
</g>
<!-- Node6 -->
<g id="Node000006" class="node">
<title>Node6</title>
<g id="a_Node000006"><a xlink:href="_motor_data_8h.html" target="_top" xlink:title="Declares a class used to store data for motors to access.">
<polygon fill="white" stroke="#666666" points="917.63,-188 848.38,-188 848.38,-168 917.63,-168 917.63,-188"/>
<text text-anchor="middle" x="883" y="-174.5" font-family="Helvetica,sans-Serif" font-size="10.00">MotorData.h</text>
</a>
</g>
</g>
<!-- Node5&#45;&gt;Node6 -->
<g id="edge8_Node000005_Node000006" class="edge">
<title>Node5&#45;&gt;Node6</title>
<g id="a_edge8_Node000005_Node000006"><a xlink:title=" ">
<path fill="none" stroke="#63b8ff" d="M772.34,-223.59C793.63,-215.01 825.35,-202.23 849.37,-192.55"/>
<polygon fill="#63b8ff" stroke="#63b8ff" points="850.51,-195.46 858.48,-188.48 847.89,-188.97 850.51,-195.46"/>
</a>
</g>
</g>
<!-- Node5&#45;&gt;Node7 -->
<g id="edge23_Node000005_Node000007" class="edge">
<title>Node5&#45;&gt;Node7</title>
<g id="a_edge23_Node000005_Node000007"><a xlink:title=" ">
<path fill="none" stroke="#63b8ff" d="M781.77,-229.29C818.75,-224.09 879.87,-212.39 927,-188 950.72,-175.73 973.37,-154.74 987.68,-139.94"/>
<polygon fill="#63b8ff" stroke="#63b8ff" points="989.79,-142.73 994.08,-133.05 984.68,-137.94 989.79,-142.73"/>
</a>
</g>
</g>
<!-- Node5&#45;&gt;Node8 -->
<g id="edge25_Node000005_Node000008" class="edge">
<title>Node5&#45;&gt;Node8</title>
<g id="a_edge25_Node000005_Node000008"><a xlink:title=" ">
<path fill="none" stroke="#63b8ff" d="M766.3,-223.51C778.51,-215.75 793.9,-203.53 801,-188 816.31,-154.5 802.61,-110.85 792.19,-86.18"/>
<polygon fill="#63b8ff" stroke="#63b8ff" points="795.03,-84.98 787.74,-77.29 788.65,-87.85 795.03,-84.98"/>
</a>
</g>
</g>
<!-- Node5&#45;&gt;Node9 -->
<g id="edge24_Node000005_Node000009" class="edge">
<title>Node5&#45;&gt;Node9</title>
<g id="a_edge24_Node000005_Node000009"><a xlink:title=" ">
<path fill="none" stroke="#63b8ff" d="M728.03,-223.62C684.55,-204.18 584.41,-159.4 533.67,-136.71"/>
<polygon fill="#63b8ff" stroke="#63b8ff" points="535.48,-133.24 524.92,-132.35 532.62,-139.63 535.48,-133.24"/>
</a>
</g>
</g>
<!-- Node12 -->
<g id="Node000012" class="node">
<title>Node12</title>
<g id="a_Node000012"><a xlink:href="_controller_data_8h.html" target="_top" xlink:title="Declares a class used to store data for controllers to access.">
<polygon fill="white" stroke="#666666" points="791.88,-188 706.13,-188 706.13,-168 791.88,-168 791.88,-188"/>
<text text-anchor="middle" x="749" y="-174.5" font-family="Helvetica,sans-Serif" font-size="10.00">ControllerData.h</text>
</a>
</g>
</g>
<!-- Node5&#45;&gt;Node12 -->
<g id="edge18_Node000005_Node000012" class="edge">
<title>Node5&#45;&gt;Node12</title>
<g id="a_edge18_Node000005_Node000012"><a xlink:title=" ">
<path fill="none" stroke="#63b8ff" d="M749,-223.59C749,-216.86 749,-207.53 749,-199.15"/>
<polygon fill="#63b8ff" stroke="#63b8ff" points="752.5,-199.3 749,-189.3 745.5,-199.3 752.5,-199.3"/>
</a>
</g>
</g>
<!-- Node13 -->
<g id="Node000013" class="node">
<title>Node13</title>
<g id="a_Node000013"><a xlink:title=" ">
<polygon fill="#e0e0e0" stroke="#999999" points="1229.13,-132 1186.88,-132 1186.88,-112 1229.13,-112 1229.13,-132"/>
<text text-anchor="middle" x="1208" y="-118.5" font-family="Helvetica,sans-Serif" font-size="10.00">queue</text>
</a>
</g>
</g>
<!-- Node5&#45;&gt;Node13 -->
<g id="edge26_Node000005_Node000013" class="edge">
<title>Node5&#45;&gt;Node13</title>
<g id="a_edge26_Node000005_Node000013"><a xlink:title=" ">
<path fill="none" stroke="#63b8ff" d="M781.55,-226.27C822.23,-217.78 893.92,-202.51 955,-188 1034.82,-169.03 1128.17,-144.41 1176.07,-131.6"/>
<polygon fill="#63b8ff" stroke="#63b8ff" points="1176.65,-134.8 1185.41,-128.83 1174.84,-128.04 1176.65,-134.8"/>
</a>
</g>
</g>
<!-- Node6&#45;&gt;Node2 -->
<g id="edge9_Node000006_Node000002" class="edge">
<title>Node6&#45;&gt;Node2</title>
<g id="a_edge9_Node000006_Node000002"><a xlink:title=" ">
<path fill="none" stroke="#63b8ff" d="M881.02,-167.67C875.48,-144.17 857.45,-82.55 816,-56 781.47,-33.89 665.8,-20.27 603.9,-14.39"/>
<polygon fill="#63b8ff" stroke="#63b8ff" points="604.28,-10.82 594,-13.39 603.63,-17.79 604.28,-10.82"/>
</a>
</g>
</g>
<!-- Node6&#45;&gt;Node7 -->
<g id="edge10_Node000006_Node000007" class="edge">
<title>Node6&#45;&gt;Node7</title>
<g id="a_edge10_Node000006_Node000007"><a xlink:title=" ">
<path fill="none" stroke="#63b8ff" d="M903.9,-167.59C922.71,-159.13 950.61,-146.58 972.02,-136.94"/>
<polygon fill="#63b8ff" stroke="#63b8ff" points="973.25,-139.77 980.93,-132.48 970.38,-133.39 973.25,-139.77"/>
</a>
</g>
</g>
<!-- Node6&#45;&gt;Node8 -->
<g id="edge17_Node000006_Node000008" class="edge">
<title>Node6&#45;&gt;Node8</title>
<g id="a_edge17_Node000006_Node000008"><a xlink:title=" ">
<path fill="none" stroke="#63b8ff" d="M876.88,-167.72C868.1,-154.67 851.09,-130.46 834,-112 824.54,-101.78 812.98,-91.43 803.25,-83.24"/>
<polygon fill="#63b8ff" stroke="#63b8ff" points="805.89,-80.05 795.95,-76.38 801.44,-85.45 805.89,-80.05"/>
</a>
</g>
</g>
<!-- Node6&#45;&gt;Node9 -->
<g id="edge12_Node000006_Node000009" class="edge">
<title>Node6&#45;&gt;Node9</title>
<g id="a_edge12_Node000006_Node000009"><a xlink:title=" ">
<path fill="none" stroke="#63b8ff" d="M847.93,-172.02C775.9,-161.78 611.95,-138.48 539.08,-128.13"/>
<polygon fill="#63b8ff" stroke="#63b8ff" points="539.58,-124.52 529.19,-126.58 538.6,-131.45 539.58,-124.52"/>
</a>
</g>
</g>
<!-- Node7&#45;&gt;Node8 -->
<g id="edge11_Node000007_Node000008" class="edge">
<title>Node7&#45;&gt;Node8</title>
<g id="a_edge11_Node000007_Node000008"><a xlink:title=" ">
<path fill="none" stroke="#63b8ff" d="M972.87,-113.6C932.38,-103.67 860.57,-86.04 817.82,-75.55"/>
<polygon fill="#63b8ff" stroke="#63b8ff" points="818.9,-71.96 808.35,-72.98 817.23,-78.76 818.9,-71.96"/>
</a>
</g>
</g>
<!-- Node9&#45;&gt;Node2 -->
<g id="edge16_Node000009_Node000002" class="edge">
<title>Node9&#45;&gt;Node2</title>
<g id="a_edge16_Node000009_Node000002"><a xlink:title=" ">
<path fill="none" stroke="#63b8ff" d="M508.2,-111.62C518.24,-93.52 540.46,-53.45 553.63,-29.7"/>
<polygon fill="#63b8ff" stroke="#63b8ff" points="557.02,-31.8 558.81,-21.35 550.9,-28.4 557.02,-31.8"/>
</a>
</g>
</g>
<!-- Node10 -->
<g id="Node000010" class="node">
<title>Node10</title>
<g id="a_Node000010"><a xlink:href="_config_8h.html" target="_top" xlink:title="Configuration variables for the codebase.">
<polygon fill="white" stroke="#666666" points="173.63,-76 122.38,-76 122.38,-56 173.63,-56 173.63,-76"/>
<text text-anchor="middle" x="148" y="-62.5" font-family="Helvetica,sans-Serif" font-size="10.00">Config.h</text>
</a>
</g>
</g>
<!-- Node9&#45;&gt;Node10 -->
<g id="edge13_Node000009_Node000010" class="edge">
<title>Node9&#45;&gt;Node10</title>
<g id="a_edge13_Node000009_Node000010"><a xlink:title=" ">
<path fill="none" stroke="#63b8ff" d="M477.75,-117.16C415.96,-107.76 256.88,-83.56 184.65,-72.58"/>
<polygon fill="#63b8ff" stroke="#63b8ff" points="185.25,-68.97 174.83,-70.93 184.19,-75.89 185.25,-68.97"/>
</a>
</g>
</g>
<!-- Node10&#45;&gt;Node2 -->
<g id="edge14_Node000010_Node000002" class="edge">
<title>Node10&#45;&gt;Node2</title>
<g id="a_edge14_Node000010_Node000002"><a xlink:title=" ">
<path fill="none" stroke="#63b8ff" d="M173.74,-58.8C178.47,-57.78 183.37,-56.8 188,-56 309.83,-35.06 455.54,-20.6 524.33,-14.4"/>
<polygon fill="#63b8ff" stroke="#63b8ff" points="524.43,-17.82 534.08,-13.45 523.81,-10.85 524.43,-17.82"/>
</a>
</g>
</g>
<!-- Node11 -->
<g id="Node000011" class="node">
<title>Node11</title>
<g id="a_Node000011"><a xlink:href="_log_levels_8h.html" target="_top" xlink:title=" ">
<polygon fill="white" stroke="#666666" points="116.5,-20 49.5,-20 49.5,0 116.5,0 116.5,-20"/>
<text text-anchor="middle" x="83" y="-6.5" font-family="Helvetica,sans-Serif" font-size="10.00">LogLevels.h</text>
</a>
</g>
</g>
<!-- Node10&#45;&gt;Node11 -->
<g id="edge15_Node000010_Node000011" class="edge">
<title>Node10&#45;&gt;Node11</title>
<g id="a_edge15_Node000010_Node000011"><a xlink:title=" ">
<path fill="none" stroke="#63b8ff" d="M136.68,-55.59C127.26,-47.77 113.65,-36.46 102.49,-27.19"/>
<polygon fill="#63b8ff" stroke="#63b8ff" points="105.12,-24 95.19,-20.3 100.65,-29.38 105.12,-24"/>
</a>
</g>
</g>
<!-- Node12&#45;&gt;Node2 -->
<g id="edge20_Node000012_Node000002" class="edge">
<title>Node12&#45;&gt;Node2</title>
<g id="a_edge20_Node000012_Node000002"><a xlink:title=" ">
<path fill="none" stroke="#63b8ff" d="M747.18,-167.65C742.33,-145.16 726.99,-87.59 692,-56 667.38,-33.77 631.12,-22.38 603.47,-16.63"/>
<polygon fill="#63b8ff" stroke="#63b8ff" points="604.44,-13.07 593.96,-14.63 603.13,-19.94 604.44,-13.07"/>
</a>
</g>
</g>
<!-- Node12&#45;&gt;Node7 -->
<g id="edge22_Node000012_Node000007" class="edge">
<title>Node12&#45;&gt;Node7</title>
<g id="a_edge22_Node000012_Node000007"><a xlink:title=" ">
<path fill="none" stroke="#63b8ff" d="M792.09,-167.84C839.65,-157.73 915.64,-141.57 962.25,-131.66"/>
<polygon fill="#63b8ff" stroke="#63b8ff" points="962.81,-134.91 971.86,-129.41 961.35,-128.06 962.81,-134.91"/>
</a>
</g>
</g>
<!-- Node12&#45;&gt;Node8 -->
<g id="edge19_Node000012_Node000008" class="edge">
<title>Node12&#45;&gt;Node8</title>
<g id="a_edge19_Node000012_Node000008"><a xlink:title=" ">
<path fill="none" stroke="#63b8ff" d="M751.9,-167.62C757.42,-149.76 769.55,-110.53 776.92,-86.67"/>
<polygon fill="#63b8ff" stroke="#63b8ff" points="780.5,-87.94 780.11,-77.35 773.81,-85.88 780.5,-87.94"/>
</a>
</g>
</g>
<!-- Node12&#45;&gt;Node9 -->
<g id="edge21_Node000012_Node000009" class="edge">
<title>Node12&#45;&gt;Node9</title>
<g id="a_edge21_Node000012_Node000009"><a xlink:title=" ">
<path fill="none" stroke="#63b8ff" d="M705.87,-167.53C658.49,-157.13 583.24,-140.61 538.94,-130.89"/>
<polygon fill="#63b8ff" stroke="#63b8ff" points="539.89,-127.3 529.37,-128.57 538.39,-134.13 539.89,-127.3"/>
</a>
</g>
</g>
<!-- Node14&#45;&gt;Node2 -->
<g id="edge30_Node000014_Node000002" class="edge">
<title>Node14&#45;&gt;Node2</title>
<g id="a_edge30_Node000014_Node000002"><a xlink:title=" ">
<path fill="none" stroke="#63b8ff" d="M1224.23,-167.6C1183.28,-154.72 1107.23,-131.04 1042,-112 952.57,-85.9 931,-75.97 840,-56 756.55,-37.69 657.4,-23.29 603.58,-16.07"/>
<polygon fill="#63b8ff" stroke="#63b8ff" points="604.18,-12.49 593.8,-14.64 603.26,-19.43 604.18,-12.49"/>
</a>
</g>
</g>
<!-- Node14&#45;&gt;Node13 -->
<g id="edge31_Node000014_Node000013" class="edge">
<title>Node14&#45;&gt;Node13</title>
<g id="a_edge31_Node000014_Node000013"><a xlink:title=" ">
<path fill="none" stroke="#63b8ff" d="M1245.99,-167.59C1239.66,-160.16 1230.64,-149.58 1222.98,-140.58"/>
<polygon fill="#63b8ff" stroke="#63b8ff" points="1225.07,-138.64 1215.92,-133.3 1219.74,-143.18 1225.07,-138.64"/>
</a>
</g>
</g>
<!-- Node15 -->
<g id="Node000015" class="node">
<title>Node15</title>
<g id="a_Node000015"><a xlink:title=" ">
<polygon fill="#e0e0e0" stroke="#999999" points="1286.63,-132 1247.38,-132 1247.38,-112 1286.63,-112 1286.63,-132"/>
<text text-anchor="middle" x="1267" y="-118.5" font-family="Helvetica,sans-Serif" font-size="10.00">utility</text>
</a>
</g>
</g>
<!-- Node14&#45;&gt;Node15 -->
<g id="edge32_Node000014_Node000015" class="edge">
<title>Node14&#45;&gt;Node15</title>
<g id="a_edge32_Node000014_Node000015"><a xlink:title=" ">
<path fill="none" stroke="#63b8ff" d="M1256.26,-167.59C1257.9,-160.78 1260.18,-151.32 1262.22,-142.86"/>
<polygon fill="#63b8ff" stroke="#63b8ff" points="1265.82,-143.84 1264.76,-133.3 1259.02,-142.2 1265.82,-143.84"/>
</a>
</g>
</g>
<!-- Node16&#45;&gt;Node2 -->
<g id="edge38_Node000016_Node000002" class="edge">
<title>Node16&#45;&gt;Node2</title>
<g id="a_edge38_Node000016_Node000002"><a xlink:title=" ">
<path fill="none" stroke="#63b8ff" d="M348.61,-223.75C347.9,-194.62 349.85,-103.89 398,-56 431.53,-22.65 487.1,-13.34 524.61,-11.09"/>
<polygon fill="#63b8ff" stroke="#63b8ff" points="524.32,-14.56 534.15,-10.62 524.01,-7.57 524.32,-14.56"/>
</a>
</g>
</g>
<!-- Node16&#45;&gt;Node9 -->
<g id="edge39_Node000016_Node000009" class="edge">
<title>Node16&#45;&gt;Node9</title>
<g id="a_edge39_Node000016_Node000009"><a xlink:title=" ">
<path fill="none" stroke="#63b8ff" d="M361.25,-223.55C377.96,-210.71 408.93,-187.19 436,-168 450.21,-157.93 466.42,-147.03 479.33,-138.48"/>
<polygon fill="#63b8ff" stroke="#63b8ff" points="481.06,-140.87 487.48,-132.45 477.2,-135.03 481.06,-140.87"/>
</a>
</g>
</g>
<!-- Node16&#45;&gt;Node17 -->
<g id="edge40_Node000016_Node000017" class="edge">
<title>Node16&#45;&gt;Node17</title>
<g id="a_edge40_Node000016_Node000017"><a xlink:title=" ">
<path fill="none" stroke="#63b8ff" d="M335.59,-223.59C324.17,-215.59 307.55,-203.93 294.16,-194.54"/>
<polygon fill="#63b8ff" stroke="#63b8ff" points="296.71,-191.36 286.52,-188.48 292.69,-197.09 296.71,-191.36"/>
</a>
</g>
</g>
<!-- Node17&#45;&gt;Node2 -->
<g id="edge41_Node000017_Node000002" class="edge">
<title>Node17&#45;&gt;Node2</title>
<g id="a_edge41_Node000017_Node000002"><a xlink:title=" ">
<path fill="none" stroke="#63b8ff" d="M272.89,-167.67C275.62,-144.7 285.99,-85.21 322,-56 352.54,-31.23 464.25,-18.82 524.63,-13.8"/>
<polygon fill="#63b8ff" stroke="#63b8ff" points="524.59,-17.23 534.28,-12.94 524.03,-10.25 524.59,-17.23"/>
</a>
</g>
</g>
<!-- Node17&#45;&gt;Node9 -->
<g id="edge42_Node000017_Node000009" class="edge">
<title>Node17&#45;&gt;Node9</title>
<g id="a_edge42_Node000017_Node000009"><a xlink:title=" ">
<path fill="none" stroke="#63b8ff" d="M308.6,-168.44C352.02,-158.29 423.93,-141.48 467.06,-131.4"/>
<polygon fill="#63b8ff" stroke="#63b8ff" points="467.69,-134.62 476.63,-128.93 466.1,-127.8 467.69,-134.62"/>
</a>
</g>
</g>
<!-- Node19&#45;&gt;Node3 -->
<g id="edge48_Node000019_Node000003" class="edge">
<title>Node19&#45;&gt;Node3</title>
<g id="a_edge48_Node000019_Node000003"><a xlink:title=" ">
<path fill="none" stroke="#63b8ff" d="M1262.53,-397.8C1118.36,-388.1 687.1,-359.06 550.2,-349.84"/>
<polygon fill="#63b8ff" stroke="#63b8ff" points="550.57,-346.29 540.36,-349.11 550.1,-353.28 550.57,-346.29"/>
</a>
</g>
</g>
<!-- Node19&#45;&gt;Node7 -->
<g id="edge49_Node000019_Node000007" class="edge">
<title>Node19&#45;&gt;Node7</title>
<g id="a_edge49_Node000019_Node000007"><a xlink:title=" ">
<path fill="none" stroke="#63b8ff" d="M1306.73,-391.7C1299.13,-370.71 1278.91,-318.54 1253,-280 1215.27,-223.88 1207.22,-204.05 1150,-168 1140.8,-162.21 1083.76,-145.56 1043.51,-134.22"/>
<polygon fill="#63b8ff" stroke="#63b8ff" points="1044.74,-130.65 1034.16,-131.32 1042.85,-137.39 1044.74,-130.65"/>
</a>
</g>
</g>
<!-- Node20 -->
<g id="Node000020" class="node">
<title>Node20</title>
<g id="a_Node000020"><a xlink:href="_utilities_8h.html" target="_top" xlink:title=" ">
<polygon fill="white" stroke="#666666" points="1381.25,-188 1324.75,-188 1324.75,-168 1381.25,-168 1381.25,-188"/>
<text text-anchor="middle" x="1353" y="-174.5" font-family="Helvetica,sans-Serif" font-size="10.00">Utilities.h</text>
</a>
</g>
</g>
<!-- Node19&#45;&gt;Node20 -->
<g id="edge50_Node000019_Node000020" class="edge">
<title>Node19&#45;&gt;Node20</title>
<g id="a_edge50_Node000019_Node000020"><a xlink:title=" ">
<path fill="none" stroke="#63b8ff" d="M1311.79,-391.74C1318.21,-358.6 1340.15,-245.35 1349.12,-199.01"/>
<polygon fill="#63b8ff" stroke="#63b8ff" points="1352.73,-199.78 1351.2,-189.3 1345.86,-198.45 1352.73,-199.78"/>
</a>
</g>
</g>
<!-- Node21 -->
<g id="Node000021" class="node">
<title>Node21</title>
<g id="a_Node000021"><a xlink:title=" ">
<polygon fill="#e0e0e0" stroke="#999999" points="1375.88,-356 1338.13,-356 1338.13,-336 1375.88,-336 1375.88,-356"/>
<text text-anchor="middle" x="1357" y="-342.5" font-family="Helvetica,sans-Serif" font-size="10.00">SD.h</text>
</a>
</g>
</g>
<!-- Node19&#45;&gt;Node21 -->
<g id="edge56_Node000019_Node000021" class="edge">
<title>Node19&#45;&gt;Node21</title>
<g id="a_edge56_Node000019_Node000021"><a xlink:title=" ">
<path fill="none" stroke="#63b8ff" d="M1318.19,-391.59C1324.66,-384.16 1333.87,-373.58 1341.7,-364.58"/>
<polygon fill="#63b8ff" stroke="#63b8ff" points="1344.98,-367.14 1348.91,-357.3 1339.7,-362.54 1344.98,-367.14"/>
</a>
</g>
</g>
<!-- Node22 -->
<g id="Node000022" class="node">
<title>Node22</title>
<g id="a_Node000022"><a xlink:title=" ">
<polygon fill="#e0e0e0" stroke="#999999" points="1434,-356 1394,-356 1394,-336 1434,-336 1434,-356"/>
<text text-anchor="middle" x="1414" y="-342.5" font-family="Helvetica,sans-Serif" font-size="10.00">SPI.h</text>
</a>
</g>
</g>
<!-- Node19&#45;&gt;Node22 -->
<g id="edge57_Node000019_Node000022" class="edge">
<title>Node19&#45;&gt;Node22</title>
<g id="a_edge57_Node000019_Node000022"><a xlink:title=" ">
<path fill="none" stroke="#63b8ff" d="M1328.12,-391.59C1344.12,-383.28 1367.72,-371.03 1386.13,-361.47"/>
<polygon fill="#63b8ff" stroke="#63b8ff" points="1387.48,-364.19 1394.74,-356.48 1384.26,-357.98 1387.48,-364.19"/>
</a>
</g>
</g>
<!-- Node23 -->
<g id="Node000023" class="node">
<title>Node23</title>
<g id="a_Node000023"><a xlink:title=" ">
<polygon fill="#e0e0e0" stroke="#999999" points="1486.38,-356 1451.63,-356 1451.63,-336 1486.38,-336 1486.38,-356"/>
<text text-anchor="middle" x="1469" y="-342.5" font-family="Helvetica,sans-Serif" font-size="10.00">map</text>
</a>
</g>
</g>
<!-- Node19&#45;&gt;Node23 -->
<g id="edge58_Node000019_Node000023" class="edge">
<title>Node19&#45;&gt;Node23</title>
<g id="a_edge58_Node000019_Node000023"><a xlink:title=" ">
<path fill="none" stroke="#63b8ff" d="M1338.04,-391.58C1362.87,-383.22 1400.35,-370.57 1440.99,-356.67"/>
<polygon fill="#63b8ff" stroke="#63b8ff" points="1442.06,-359.67 1450.38,-353.12 1439.79,-353.04 1442.06,-359.67"/>
</a>
</g>
</g>
<!-- Node24 -->
<g id="Node000024" class="node">
<title>Node24</title>
<g id="a_Node000024"><a xlink:title=" ">
<polygon fill="#e0e0e0" stroke="#999999" points="1544,-356 1504,-356 1504,-336 1544,-336 1544,-356"/>
<text text-anchor="middle" x="1524" y="-342.5" font-family="Helvetica,sans-Serif" font-size="10.00">string</text>
</a>
</g>
</g>
<!-- Node19&#45;&gt;Node24 -->
<g id="edge59_Node000019_Node000024" class="edge">
<title>Node19&#45;&gt;Node24</title>
<g id="a_edge59_Node000019_Node000024"><a xlink:title=" ">
<path fill="none" stroke="#63b8ff" d="M1352.07,-391.55C1387.42,-383.44 1439.48,-371.09 1493.33,-356.34"/>
<polygon fill="#63b8ff" stroke="#63b8ff" points="1494.06,-359.49 1502.77,-353.46 1492.19,-352.74 1494.06,-359.49"/>
</a>
</g>
</g>
<!-- Node20&#45;&gt;Node2 -->
<g id="edge52_Node000020_Node000002" class="edge">
<title>Node20&#45;&gt;Node2</title>
<g id="a_edge52_Node000020_Node000002"><a xlink:title=" ">
<path fill="none" stroke="#63b8ff" d="M1351.44,-167.68C1348.48,-153.19 1340.6,-125.54 1322,-112 1205.72,-27.37 743.33,-13.65 603.96,-11.43"/>
<polygon fill="#63b8ff" stroke="#63b8ff" points="604.04,-7.91 593.99,-11.27 603.94,-14.91 604.04,-7.91"/>
</a>
</g>
</g>
<!-- Node20&#45;&gt;Node7 -->
<g id="edge51_Node000020_Node000007" class="edge">
<title>Node20&#45;&gt;Node7</title>
<g id="a_edge51_Node000020_Node000007"><a xlink:title=" ">
<path fill="none" stroke="#63b8ff" d="M1324.42,-169.94C1321.25,-169.25 1318.06,-168.58 1315,-168 1218.28,-149.61 1103.41,-134.84 1043.67,-127.69"/>
<polygon fill="#63b8ff" stroke="#63b8ff" points="1044.17,-124.11 1033.83,-126.4 1043.35,-131.06 1044.17,-124.11"/>
</a>
</g>
</g>
<!-- Node20&#45;&gt;Node8 -->
<g id="edge53_Node000020_Node000008" class="edge">
<title>Node20&#45;&gt;Node8</title>
<g id="a_edge53_Node000020_Node000008"><a xlink:title=" ">
<path fill="none" stroke="#63b8ff" d="M1348.13,-167.91C1339.71,-153.22 1320.9,-124.62 1296,-112 1212.21,-69.52 920.29,-66.46 818.41,-66.73"/>
<polygon fill="#63b8ff" stroke="#63b8ff" points="818.48,-63.23 808.5,-66.77 818.51,-70.23 818.48,-63.23"/>
</a>
</g>
</g>
<!-- Node20&#45;&gt;Node13 -->
<g id="edge55_Node000020_Node000013" class="edge">
<title>Node20&#45;&gt;Node13</title>
<g id="a_edge55_Node000020_Node000013"><a xlink:title=" ">
<path fill="none" stroke="#63b8ff" d="M1327.74,-167.59C1303.21,-158.46 1265.9,-144.56 1239.45,-134.71"/>
<polygon fill="#63b8ff" stroke="#63b8ff" points="1240.79,-131.11 1230.2,-130.9 1238.35,-137.67 1240.79,-131.11"/>
</a>
</g>
</g>
<!-- Node20&#45;&gt;Node15 -->
<g id="edge54_Node000020_Node000015" class="edge">
<title>Node20&#45;&gt;Node15</title>
<g id="a_edge54_Node000020_Node000015"><a xlink:title=" ">
<path fill="none" stroke="#63b8ff" d="M1338.02,-167.59C1325.15,-159.51 1306.35,-147.71 1291.33,-138.27"/>
<polygon fill="#63b8ff" stroke="#63b8ff" points="1293.43,-134.83 1283.1,-132.48 1289.7,-140.76 1293.43,-134.83"/>
</a>
</g>
</g>
<!-- Node25&#45;&gt;Node2 -->
<g id="edge67_Node000025_Node000002" class="edge">
<title>Node25&#45;&gt;Node2</title>
<g id="a_edge67_Node000025_Node000002"><a xlink:title=" ">
<path fill="none" stroke="#63b8ff" d="M166.73,-391.64C148.54,-384.27 125.1,-372.48 109,-356 70.11,-316.19 65.79,-298.16 53,-244 36.55,-174.32 19.42,-123.03 99,-56 131.21,-28.87 417.19,-16.14 524,-12.3"/>
<polygon fill="#63b8ff" stroke="#63b8ff" points="524.07,-15.77 533.94,-11.92 523.82,-8.77 524.07,-15.77"/>
</a>
</g>
</g>
<!-- Node25&#45;&gt;Node8 -->
<g id="edge68_Node000025_Node000008" class="edge">
<title>Node25&#45;&gt;Node8</title>
<g id="a_edge68_Node000025_Node000008"><a xlink:title=" ">
<path fill="none" stroke="#63b8ff" d="M197.86,-391.52C201.35,-382.53 206.34,-368.57 209,-356 226.38,-273.88 171.69,-231.14 227,-168 295.99,-89.24 636.46,-71.6 747.74,-67.92"/>
<polygon fill="#63b8ff" stroke="#63b8ff" points="747.78,-71.39 757.67,-67.57 747.56,-64.39 747.78,-71.39"/>
</a>
</g>
</g>
<!-- Node25&#45;&gt;Node26 -->
<g id="edge61_Node000025_Node000026" class="edge">
<title>Node25&#45;&gt;Node26</title>
<g id="a_edge61_Node000025_Node000026"><a xlink:title=" ">
<path fill="none" stroke="#63b8ff" d="M187.9,-391.59C183.24,-384.39 176.65,-374.23 170.95,-365.43"/>
<polygon fill="#63b8ff" stroke="#63b8ff" points="173.4,-363.79 165.03,-357.3 167.53,-367.59 173.4,-363.79"/>
</a>
</g>
</g>
<!-- Node26&#45;&gt;Node2 -->
<g id="edge62_Node000026_Node000002" class="edge">
<title>Node26&#45;&gt;Node2</title>
<g id="a_edge62_Node000026_Node000002"><a xlink:title=" ">
<path fill="none" stroke="#63b8ff" d="M159.05,-335.56C159.55,-308.09 163.69,-226.38 194,-168 225.72,-106.9 240.22,-88.33 301,-56 373.16,-17.62 470.79,-10.77 524.5,-10.22"/>
<polygon fill="#63b8ff" stroke="#63b8ff" points="524.28,-13.71 534.27,-10.19 524.26,-6.71 524.28,-13.71"/>
</a>
</g>
</g>
<!-- Node26&#45;&gt;Node27 -->
<g id="edge63_Node000026_Node000027" class="edge">
<title>Node26&#45;&gt;Node27</title>
<g id="a_edge63_Node000026_Node000027"><a xlink:title=" ">
<path fill="none" stroke="#63b8ff" d="M140.23,-335.65C126.82,-327.96 109.53,-315.77 100,-300 91.76,-286.36 89.23,-268.33 88.64,-254.72"/>
<polygon fill="#63b8ff" stroke="#63b8ff" points="92.13,-255.08 88.52,-245.12 85.13,-255.16 92.13,-255.08"/>
</a>
</g>
</g>
<!-- Node27&#45;&gt;Node2 -->
<g id="edge64_Node000027_Node000002" class="edge">
<title>Node27&#45;&gt;Node2</title>
<g id="a_edge64_Node000027_Node000002"><a xlink:title=" ">
<path fill="none" stroke="#63b8ff" d="M88.82,-223.55C88.38,-190.3 88.79,-79.37 113,-56 142.33,-27.69 419.63,-15.73 524.28,-12.2"/>
<polygon fill="#63b8ff" stroke="#63b8ff" points="524.13,-15.67 534.01,-11.84 523.9,-8.67 524.13,-15.67"/>
</a>
</g>
</g>
<!-- Node27&#45;&gt;Node10 -->
<g id="edge66_Node000027_Node000010" class="edge">
<title>Node27&#45;&gt;Node10</title>
<g id="a_edge66_Node000027_Node000010"><a xlink:title=" ">
<path fill="none" stroke="#63b8ff" d="M93.15,-223.78C97.15,-214.74 103.29,-200.54 108,-188 121.31,-152.58 134.69,-110.49 142.1,-86.44"/>
<polygon fill="#63b8ff" stroke="#63b8ff" points="145.66,-87.78 145.24,-77.19 138.96,-85.73 145.66,-87.78"/>
</a>
</g>
</g>
<!-- Node27&#45;&gt;Node11 -->
<g id="edge65_Node000027_Node000011" class="edge">
<title>Node27&#45;&gt;Node11</title>
<g id="a_edge65_Node000027_Node000011"><a xlink:title=" ">
<path fill="none" stroke="#63b8ff" d="M86.6,-223.77C84.38,-214.73 81.24,-200.53 80,-188 74.39,-131.32 78.47,-63.94 81.16,-31.06"/>
<polygon fill="#63b8ff" stroke="#63b8ff" points="84.72,-31.51 82.09,-21.24 77.74,-30.9 84.72,-31.51"/>
</a>
</g>
</g>
<!-- Node28&#45;&gt;Node2 -->
<g id="edge70_Node000028_Node000002" class="edge">
<title>Node28&#45;&gt;Node2</title>
<g id="a_edge70_Node000028_Node000002"><a xlink:title=" ">
<path fill="none" stroke="#63b8ff" d="M706.21,-454.34C788.84,-449.12 955.94,-435.91 1009,-412 1089.06,-375.93 1081.51,-326.49 1156,-280 1253.81,-218.95 1428.87,-276.55 1390,-168 1358.74,-80.71 1304.11,-77.85 1214,-56 1097.14,-27.66 726.04,-15.35 603.61,-12"/>
<polygon fill="#63b8ff" stroke="#63b8ff" points="603.98,-8.48 593.89,-11.71 603.79,-15.48 603.98,-8.48"/>
</a>
</g>
</g>
<!-- Node28&#45;&gt;Node3 -->
<g id="edge74_Node000028_Node000003" class="edge">
<title>Node28&#45;&gt;Node3</title>
<g id="a_edge74_Node000028_Node000003"><a xlink:title=" ">
<path fill="none" stroke="#63b8ff" d="M646.13,-447.62C620.16,-428.71 561.28,-385.82 529.43,-362.61"/>
<polygon fill="#63b8ff" stroke="#63b8ff" points="531.99,-359.41 521.84,-356.35 527.86,-365.07 531.99,-359.41"/>
</a>
</g>
</g>
<!-- Node28&#45;&gt;Node5 -->
<g id="edge75_Node000028_Node000005" class="edge">
<title>Node28&#45;&gt;Node5</title>
<g id="a_edge75_Node000028_Node000005"><a xlink:title=" ">
<path fill="none" stroke="#63b8ff" d="M662.75,-447.74C676.25,-414.46 722.49,-300.39 741.13,-254.42"/>
<polygon fill="#63b8ff" stroke="#63b8ff" points="744.72,-255.88 745.23,-245.3 738.23,-253.25 744.72,-255.88"/>
</a>
</g>
</g>
<!-- Node28&#45;&gt;Node7 -->
<g id="edge73_Node000028_Node000007" class="edge">
<title>Node28&#45;&gt;Node7</title>
<g id="a_edge73_Node000028_Node000007"><a xlink:title=" ">
<path fill="none" stroke="#63b8ff" d="M706.18,-454.03C812.18,-446.05 1060,-419.64 1060,-347 1060,-347 1060,-347 1060,-233 1060,-197.19 1035.89,-161.43 1019.03,-140.8"/>
<polygon fill="#63b8ff" stroke="#63b8ff" points="1021.06,-138.78 1011.91,-133.44 1015.73,-143.33 1021.06,-138.78"/>
</a>
</g>
</g>
<!-- Node28&#45;&gt;Node19 -->
<g id="edge76_Node000028_Node000019" class="edge">
<title>Node28&#45;&gt;Node19</title>
<g id="a_edge76_Node000028_Node000019"><a xlink:title=" ">
<path fill="none" stroke="#63b8ff" d="M706.34,-453.07C823.19,-443.38 1125.02,-418.34 1252.17,-407.8"/>
<polygon fill="#63b8ff" stroke="#63b8ff" points="1252.16,-411.23 1261.83,-406.91 1251.58,-404.25 1252.16,-411.23"/>
</a>
</g>
</g>
<!-- Node28&#45;&gt;Node25 -->
<g id="edge71_Node000028_Node000025" class="edge">
<title>Node28&#45;&gt;Node25</title>
<g id="a_edge71_Node000028_Node000025"><a xlink:title=" ">
<path fill="none" stroke="#63b8ff" d="M611.55,-452.61C535.08,-445.36 379.9,-429.88 249,-412 248.19,-411.89 247.38,-411.78 246.56,-411.66"/>
<polygon fill="#63b8ff" stroke="#63b8ff" points="247.11,-408.06 236.71,-410.06 246.09,-414.98 247.11,-408.06"/>
</a>
</g>
</g>
<!-- Node28&#45;&gt;Node26 -->
<g id="edge72_Node000028_Node000026" class="edge">
<title>Node28&#45;&gt;Node26</title>
<g id="a_edge72_Node000028_Node000026"><a xlink:title=" ">
<path fill="none" stroke="#63b8ff" d="M611.52,-456.51C539.74,-454.61 399.97,-446.34 287,-412 276.53,-408.82 220.16,-379.4 185.81,-361.25"/>
<polygon fill="#63b8ff" stroke="#63b8ff" points="187.83,-357.82 177.35,-356.24 184.55,-364.01 187.83,-357.82"/>
</a>
</g>
</g>
<!-- Node28&#45;&gt;Node27 -->
<g id="edge77_Node000028_Node000027" class="edge">
<title>Node28&#45;&gt;Node27</title>
<g id="a_edge77_Node000028_Node000027"><a xlink:title=" ">
<path fill="none" stroke="#63b8ff" d="M634.87,-447.6C544.84,-412.54 228.28,-289.25 123.2,-248.32"/>
<polygon fill="#63b8ff" stroke="#63b8ff" points="124.72,-244.77 114.13,-244.4 122.18,-251.29 124.72,-244.77"/>
</a>
</g>
</g>
<!-- Node29 -->
<g id="Node000029" class="node">
<title>Node29</title>
<g id="a_Node000029"><a xlink:href="_real_time_i2_c_8h.html" target="_top" xlink:title=" ">
<polygon fill="white" stroke="#666666" points="1243.5,-300 1164.5,-300 1164.5,-280 1243.5,-280 1243.5,-300"/>
<text text-anchor="middle" x="1204" y="-286.5" font-family="Helvetica,sans-Serif" font-size="10.00">RealTimeI2C.h</text>
</a>
</g>
</g>
<!-- Node28&#45;&gt;Node29 -->
<g id="edge78_Node000028_Node000029" class="edge">
<title>Node28&#45;&gt;Node29</title>
<g id="a_edge78_Node000028_Node000029"><a xlink:title=" ">
<path fill="none" stroke="#63b8ff" d="M706.16,-457.01C807.7,-456.28 1043.36,-450.38 1112,-412 1153.68,-388.69 1182.41,-337.87 1195.67,-310.08"/>
<polygon fill="#63b8ff" stroke="#63b8ff" points="1199.14,-311.9 1200.12,-301.35 1192.78,-308.98 1199.14,-311.9"/>
</a>
</g>
</g>
<!-- Node29&#45;&gt;Node2 -->
<g id="edge79_Node000029_Node000002" class="edge">
<title>Node29&#45;&gt;Node2</title>
<g id="a_edge79_Node000029_Node000002"><a xlink:title=" ">
<path fill="none" stroke="#63b8ff" d="M1243.85,-288.39C1312.79,-285.01 1447,-267.1 1447,-179 1447,-179 1447,-179 1447,-121 1447,-90.2 1447.8,-74.26 1423,-56 1356.5,-7.03 763.63,-9.09 603.64,-10.55"/>
<polygon fill="#63b8ff" stroke="#63b8ff" points="603.84,-7.06 593.88,-10.66 603.91,-14.06 603.84,-7.06"/>
</a>
</g>
</g>
</g>
</svg>
