<?xml version="1.0" encoding="UTF-8" standalone="no"?>
<!DOCTYPE svg PUBLIC "-//W3C//DTD SVG 1.1//EN"
 "http://www.w3.org/Graphics/SVG/1.1/DTD/svg11.dtd">
<!-- Generated by graphviz version 8.1.0 (20230707.0739)
 -->
<!-- Title: IniFile::getValue Pages: 1 -->
<svg width="396pt" height="154pt"
 viewBox="0.00 0.00 395.75 154.00" xmlns="http://www.w3.org/2000/svg" xmlns:xlink="http://www.w3.org/1999/xlink">

<svg id="main" version="1.1" xmlns="http://www.w3.org/2000/svg" xmlns:xlink="http://www.w3.org/1999/xlink" xml:space="preserve" onload="init(evt)">
<style type="text/css"><![CDATA[
.node, .edge {opacity: 0.7;}
.node.selected, .edge.selected {opacity: 1;}
.edge:hover path { stroke: red; }
.edge:hover polygon { stroke: red; fill: red; }
]]></style>
<script type="application/ecmascript" xlink:href="svg.min.js"/>
<svg id="graph" class="graph">
<g id="graph0" class="graph" transform="scale(1 1) rotate(0) translate(4 150)">
<title>IniFile::getValue</title>
<!-- Node1 -->
<g id="Node000001" class="node">
<title>Node1</title>
<g id="a_Node000001"><a xlink:title=" ">
<polygon fill="#999999" stroke="#666666" points="85.75,-64 0,-64 0,-44 85.75,-44 85.75,-64"/>
<text text-anchor="middle" x="42.88" y="-50.5" font-family="Helvetica,sans-Serif" font-size="10.00">IniFile::getValue</text>
</a>
</g>
</g>
<!-- Node2 -->
<g id="Node000002" class="node">
<title>Node2</title>
<g id="a_Node000002"><a xlink:href="class_ini_file.html#a64a532179db6b398c4930a7e1c2ac6d4" target="_top" xlink:title=" ">
<polygon fill="white" stroke="#666666" points="209.38,-121 129.63,-121 129.63,-101 209.38,-101 209.38,-121"/>
<text text-anchor="middle" x="169.5" y="-107.5" font-family="Helvetica,sans-Serif" font-size="10.00">IniFile::findKey</text>
</a>
</g>
</g>
<!-- Node1&#45;&gt;Node2 -->
<g id="edge1_Node000001_Node000002" class="edge">
<title>Node1&#45;&gt;Node2</title>
<g id="a_edge1_Node000001_Node000002"><a xlink:title=" ">
<path fill="none" stroke="#63b8ff" d="M64.19,-64.38C79.8,-72.25 101.97,-83.17 121.75,-92 125.13,-93.51 128.67,-95.04 132.23,-96.54"/>
<polygon fill="#63b8ff" stroke="#63b8ff" points="130.58,-100.06 141.16,-100.66 133.26,-93.6 130.58,-100.06"/>
</a>
</g>
</g>
<!-- Node5 -->
<g id="Node000005" class="node">
<title>Node5</title>
<g id="a_Node000005"><a xlink:href="class_ini_file.html#acbabab9434de6d60648c1a4b55e32f8e" target="_top" xlink:title=" ">
<polygon fill="white" stroke="#666666" points="387.75,-70 253.25,-70 253.25,-38 387.75,-38 387.75,-70"/>
<text text-anchor="start" x="261.25" y="-56.5" font-family="Helvetica,sans-Serif" font-size="10.00">IniFile::removeTrailingWhite</text>
<text text-anchor="middle" x="320.5" y="-44.5" font-family="Helvetica,sans-Serif" font-size="10.00">Space</text>
</a>
</g>
</g>
<!-- Node1&#45;&gt;Node5 -->
<g id="edge11_Node000001_Node000005" class="edge">
<title>Node1&#45;&gt;Node5</title>
<g id="a_edge11_Node000001_Node000005"><a xlink:title=" ">
<path fill="none" stroke="#63b8ff" d="M86.04,-54C127.41,-54 191.49,-54 242.05,-54"/>
<polygon fill="#63b8ff" stroke="#63b8ff" points="241.95,-57.5 251.95,-54 241.95,-50.5 241.95,-57.5"/>
</a>
</g>
</g>
<!-- Node6 -->
<g id="Node000006" class="node">
<title>Node6</title>
<g id="a_Node000006"><a xlink:href="class_ini_file.html#add78997eb6343f1b0f43f57d3f8fca45" target="_top" xlink:title=" ">
<polygon fill="white" stroke="#666666" points="379.88,-20 261.13,-20 261.13,0 379.88,0 379.88,-20"/>
<text text-anchor="middle" x="320.5" y="-6.5" font-family="Helvetica,sans-Serif" font-size="10.00">IniFile::skipWhiteSpace</text>
</a>
</g>
</g>
<!-- Node1&#45;&gt;Node6 -->
<g id="edge12_Node000001_Node000006" class="edge">
<title>Node1&#45;&gt;Node6</title>
<g id="a_edge12_Node000001_Node000006"><a xlink:title=" ">
<path fill="none" stroke="#63b8ff" d="M86.04,-47.27C129.61,-40.31 198.36,-29.34 249.99,-21.1"/>
<polygon fill="#63b8ff" stroke="#63b8ff" points="250.41,-24.41 259.73,-19.38 249.3,-17.5 250.41,-24.41"/>
</a>
</g>
</g>
<!-- Node7 -->
<g id="Node000007" class="node">
<title>Node7</title>
<g id="a_Node000007"><a xlink:href="class_ini_file.html#aad3b972ecbcda0f78420a53ec5024ace" target="_top" xlink:title=" ">
<polygon fill="white" stroke="#666666" points="217.25,-83 121.75,-83 121.75,-63 217.25,-63 217.25,-83"/>
<text text-anchor="middle" x="169.5" y="-69.5" font-family="Helvetica,sans-Serif" font-size="10.00">IniFile::findSection</text>
</a>
</g>
</g>
<!-- Node1&#45;&gt;Node7 -->
<g id="edge6_Node000001_Node000007" class="edge">
<title>Node1&#45;&gt;Node7</title>
<g id="a_edge6_Node000001_Node000007"><a xlink:title=" ">
<path fill="none" stroke="#63b8ff" d="M86.07,-60.43C94.02,-61.65 102.47,-62.93 110.8,-64.2"/>
<polygon fill="#63b8ff" stroke="#63b8ff" points="110.23,-67.81 120.64,-65.86 111.28,-60.89 110.23,-67.81"/>
</a>
</g>
</g>
<!-- Node3 -->
<g id="Node000003" class="node">
<title>Node3</title>
<g id="a_Node000003"><a xlink:href="class_ini_file.html#aaa3a74cbc865a3582a3e41c8809c72c1" target="_top" xlink:title=" ">
<polygon fill="white" stroke="#666666" points="379.13,-146 261.88,-146 261.88,-126 379.13,-126 379.13,-146"/>
<text text-anchor="middle" x="320.5" y="-132.5" font-family="Helvetica,sans-Serif" font-size="10.00">IniFile::isCommentChar</text>
</a>
</g>
</g>
<!-- Node2&#45;&gt;Node3 -->
<g id="edge2_Node000002_Node000003" class="edge">
<title>Node2&#45;&gt;Node3</title>
<g id="a_edge2_Node000002_Node000003"><a xlink:title=" ">
<path fill="none" stroke="#63b8ff" d="M209.65,-117.57C222.29,-119.69 236.7,-122.11 250.83,-124.48"/>
<polygon fill="#63b8ff" stroke="#63b8ff" points="250.1,-128.07 260.55,-126.28 251.26,-121.17 250.1,-128.07"/>
</a>
</g>
</g>
<!-- Node4 -->
<g id="Node000004" class="node">
<title>Node4</title>
<g id="a_Node000004"><a xlink:href="class_ini_file.html#a2d2874e132192179169a9de44207a21f" target="_top" xlink:title=" ">
<polygon fill="white" stroke="#666666" points="362.63,-108 278.38,-108 278.38,-88 362.63,-88 362.63,-108"/>
<text text-anchor="middle" x="320.5" y="-94.5" font-family="Helvetica,sans-Serif" font-size="10.00">IniFile::readLine</text>
</a>
</g>
</g>
<!-- Node2&#45;&gt;Node4 -->
<g id="edge3_Node000002_Node000004" class="edge">
<title>Node2&#45;&gt;Node4</title>
<g id="a_edge3_Node000002_Node000004"><a xlink:title=" ">
<path fill="none" stroke="#63b8ff" d="M209.65,-107.58C227.23,-106.05 248.24,-104.22 267.16,-102.57"/>
<polygon fill="#63b8ff" stroke="#63b8ff" points="267.35,-105.98 277.01,-101.62 266.74,-99 267.35,-105.98"/>
</a>
</g>
</g>
<!-- Node2&#45;&gt;Node5 -->
<g id="edge4_Node000002_Node000005" class="edge">
<title>Node2&#45;&gt;Node5</title>
<g id="a_edge4_Node000002_Node000005"><a xlink:title=" ">
<path fill="none" stroke="#63b8ff" d="M197.31,-100.57C213.5,-94.29 234.54,-86.15 253.25,-79 257.21,-77.49 261.3,-75.93 265.42,-74.37"/>
<polygon fill="#63b8ff" stroke="#63b8ff" points="266.54,-77.31 274.65,-70.49 264.06,-70.76 266.54,-77.31"/>
</a>
</g>
</g>
<!-- Node2&#45;&gt;Node6 -->
<g id="edge5_Node000002_Node000006" class="edge">
<title>Node2&#45;&gt;Node6</title>
<g id="a_edge5_Node000002_Node000006"><a xlink:title=" ">
<path fill="none" stroke="#63b8ff" d="M203.79,-100.73C208.62,-98.34 213.29,-95.46 217.25,-92 241.52,-70.76 227.88,-48.91 253.25,-29 254.91,-27.7 256.65,-26.49 258.46,-25.36"/>
<polygon fill="#63b8ff" stroke="#63b8ff" points="259.74,-28.11 266.97,-20.37 256.49,-21.91 259.74,-28.11"/>
</a>
</g>
</g>
<!-- Node7&#45;&gt;Node3 -->
<g id="edge7_Node000007_Node000003" class="edge">
<title>Node7&#45;&gt;Node3</title>
<g id="a_edge7_Node000007_Node000003"><a xlink:title=" ">
<path fill="none" stroke="#63b8ff" d="M199.15,-83.47C205.24,-86.02 211.55,-88.91 217.25,-92 234.38,-101.28 235.65,-108.65 253.25,-117 257.03,-118.8 261.02,-120.46 265.09,-121.98"/>
<polygon fill="#63b8ff" stroke="#63b8ff" points="263.68,-125.55 274.28,-125.51 265.97,-118.93 263.68,-125.55"/>
</a>
</g>
</g>
<!-- Node7&#45;&gt;Node4 -->
<g id="edge8_Node000007_Node000004" class="edge">
<title>Node7&#45;&gt;Node4</title>
<g id="a_edge8_Node000007_Node000004"><a xlink:title=" ">
<path fill="none" stroke="#63b8ff" d="M217.64,-80.91C233.59,-83.59 251.48,-86.59 267.76,-89.32"/>
<polygon fill="#63b8ff" stroke="#63b8ff" points="266.75,-92.87 277.19,-91.07 267.91,-85.96 266.75,-92.87"/>
</a>
</g>
</g>
<!-- Node7&#45;&gt;Node5 -->
<g id="edge9_Node000007_Node000005" class="edge">
<title>Node7&#45;&gt;Node5</title>
<g id="a_edge9_Node000007_Node000005"><a xlink:title=" ">
<path fill="none" stroke="#63b8ff" d="M217.64,-66.99C225.41,-66 233.64,-64.95 241.91,-63.89"/>
<polygon fill="#63b8ff" stroke="#63b8ff" points="242.31,-67.24 251.79,-62.51 241.43,-60.3 242.31,-67.24"/>
</a>
</g>
</g>
<!-- Node7&#45;&gt;Node6 -->
<g id="edge10_Node000007_Node000006" class="edge">
<title>Node7&#45;&gt;Node6</title>
<g id="a_edge10_Node000007_Node000006"><a xlink:title=" ">
<path fill="none" stroke="#63b8ff" d="M187.43,-62.64C203.81,-52.95 229.56,-38.57 253.25,-29 257.93,-27.11 262.86,-25.33 267.84,-23.67"/>
<polygon fill="#63b8ff" stroke="#63b8ff" points="268.57,-26.79 277.05,-20.44 266.46,-20.12 268.57,-26.79"/>
</a>
</g>
</g>
</g>
</svg>
</svg>

<style type='text/css'>
<![CDATA[
[data-mouse-over-selected='false'] { opacity: 0.7; }
[data-mouse-over-selected='true']  { opacity: 1.0; }
]]>
</style>
<script type="application/ecmascript"><![CDATA[
document.addEventListener('DOMContentLoaded', (event) => {
  highlightEdges();
  highlightAdjacentNodes();
});
]]></script>
</svg>
