<?xml version="1.0" encoding="UTF-8" standalone="no"?>
<!DOCTYPE svg PUBLIC "-//W3C//DTD SVG 1.1//EN"
 "http://www.w3.org/Graphics/SVG/1.1/DTD/svg11.dtd">
<!-- Generated by graphviz version 8.1.0 (20230707.0739)
 -->
<!-- Title: IniFile::getValue Pages: 1 -->
<!--zoomable 154 -->

<svg id="main" version="1.1" xmlns="http://www.w3.org/2000/svg" xmlns:xlink="http://www.w3.org/1999/xlink" xml:space="preserve" onload="init(evt)">
<style type="text/css"><![CDATA[
.node, .edge {opacity: 0.7;}
.node.selected, .edge.selected {opacity: 1;}
.edge:hover path { stroke: red; }
.edge:hover polygon { stroke: red; fill: red; }
]]></style>

<defs>
  <circle id="rim" cx="0" cy="0" r="7"/>
  <circle id="rim2" cx="0" cy="0" r="3.5"/>
  <g id="zoomPlus">
    <use xlink:href="#rim" fill="#404040"><set attributeName="fill" to="#808080" begin="zoomplus.mouseover" end="zoomplus.mouseout"/></use>
    <path d="M-4,0h8M0,-4v8" fill="none" stroke="white" stroke-width="1.5" pointer-events="none"/>
  </g>
  <g id="zoomMin">
    <use xlink:href="#rim" fill="#404040"><set attributeName="fill" to="#808080" begin="zoomminus.mouseover" end="zoomminus.mouseout"/></use>
    <path d="M-4,0h8" fill="none" stroke="white" stroke-width="1.5" pointer-events="none"/>
  </g>
  <g id="arrowUp" transform="translate(30 24)">
    <use xlink:href="#rim"/>
    <path pointer-events="none" fill="none" stroke="white" stroke-width="1.5" d="M0,-3.0v7 M-2.5,-0.5L0,-3.0L2.5,-0.5"/>
  </g>
  <g id="arrowRight" transform="rotate(90) translate(36 -43)">
    <use xlink:href="#rim"/>
    <path pointer-events="none" fill="none" stroke="white" stroke-width="1.5" d="M0,-3.0v7 M-2.5,-0.5L0,-3.0L2.5,-0.5"/>
  </g>
  <g id="arrowDown" transform="rotate(180) translate(-30 -48)">
    <use xlink:href="#rim"/>
    <path pointer-events="none" fill="none" stroke="white" stroke-width="1.5" d="M0,-3.0v7 M-2.5,-0.5L0,-3.0L2.5,-0.5"/>
  </g>
  <g id="arrowLeft" transform="rotate(270) translate(-36 17)">
    <use xlink:href="#rim"/>
    <path pointer-events="none" fill="none" stroke="white" stroke-width="1.5" d="M0,-3.0v7 M-2.5,-0.5L0,-3.0L2.5,-0.5"/>
  </g>
  <g id="resetDef">
    <use xlink:href="#rim2" fill="#404040"><set attributeName="fill" to="#808080" begin="reset.mouseover" end="reset.mouseout"/></use>
  </g>
</defs>
<script type="application/ecmascript">
var viewWidth = 518;
var viewHeight = 154;
var sectionId = 'dynsection-6';
</script>
<script type="application/ecmascript" xlink:href="svg.min.js"/>
<svg id="graph" class="graph">
<g id="viewport">
<title>IniFile::getValue</title>
<!-- Node1 -->
<g id="Node000001" class="node">
<title>Node1</title>
<g id="a_Node000001"><a xlink:title=" ">
<polygon fill="#999999" stroke="#666666" points="85.75,-64 0,-64 0,-44 85.75,-44 85.75,-64"/>
<text text-anchor="middle" x="42.88" y="-50.5" font-family="Helvetica,sans-Serif" font-size="10.00">IniFile::getValue</text>
</a>
</g>
</g>
<!-- Node2 -->
<g id="Node000002" class="node">
<title>Node2</title>
<g id="a_Node000002"><a xlink:href="class_ini_file.html#ac236a5f5582c55478023aab87292e200" target="_top" xlink:title=" ">
<polygon fill="white" stroke="#666666" points="207.5,-64 121.75,-64 121.75,-44 207.5,-44 207.5,-64"/>
<text text-anchor="middle" x="164.63" y="-50.5" font-family="Helvetica,sans-Serif" font-size="10.00">IniFile::getValue</text>
</a>
</g>
</g>
<!-- Node1&#45;&gt;Node2 -->
<g id="edge1_Node000001_Node000002" class="edge">
<title>Node1&#45;&gt;Node2</title>
<g id="a_edge1_Node000001_Node000002"><a xlink:title=" ">
<path fill="none" stroke="#63b8ff" d="M86.09,-54C93.96,-54 102.28,-54 110.43,-54"/>
<polygon fill="#63b8ff" stroke="#63b8ff" points="110.38,-57.5 120.38,-54 110.38,-50.5 110.38,-57.5"/>
</a>
</g>
</g>
<!-- Node3 -->
<g id="Node000003" class="node">
<title>Node3</title>
<g id="a_Node000003"><a xlink:href="class_ini_file.html#a64a532179db6b398c4930a7e1c2ac6d4" target="_top" xlink:title=" ">
<polygon fill="white" stroke="#666666" points="331.13,-121 251.38,-121 251.38,-101 331.13,-101 331.13,-121"/>
<text text-anchor="middle" x="291.25" y="-107.5" font-family="Helvetica,sans-Serif" font-size="10.00">IniFile::findKey</text>
</a>
</g>
</g>
<!-- Node2&#45;&gt;Node3 -->
<g id="edge2_Node000002_Node000003" class="edge">
<title>Node2&#45;&gt;Node3</title>
<g id="a_edge2_Node000002_Node000003"><a xlink:title=" ">
<path fill="none" stroke="#63b8ff" d="M185.94,-64.38C201.55,-72.25 223.72,-83.17 243.5,-92 246.88,-93.51 250.42,-95.04 253.98,-96.54"/>
<polygon fill="#63b8ff" stroke="#63b8ff" points="252.33,-100.06 262.91,-100.66 255.01,-93.6 252.33,-100.06"/>
</a>
</g>
</g>
<!-- Node6 -->
<g id="Node000006" class="node">
<title>Node6</title>
<g id="a_Node000006"><a xlink:href="class_ini_file.html#acbabab9434de6d60648c1a4b55e32f8e" target="_top" xlink:title=" ">
<polygon fill="white" stroke="#666666" points="509.5,-70 375,-70 375,-38 509.5,-38 509.5,-70"/>
<text text-anchor="start" x="383" y="-56.5" font-family="Helvetica,sans-Serif" font-size="10.00">IniFile::removeTrailingWhite</text>
<text text-anchor="middle" x="442.25" y="-44.5" font-family="Helvetica,sans-Serif" font-size="10.00">Space</text>
</a>
</g>
</g>
<!-- Node2&#45;&gt;Node6 -->
<g id="edge12_Node000002_Node000006" class="edge">
<title>Node2&#45;&gt;Node6</title>
<g id="a_edge12_Node000002_Node000006"><a xlink:title=" ">
<path fill="none" stroke="#63b8ff" d="M207.79,-54C249.16,-54 313.24,-54 363.8,-54"/>
<polygon fill="#63b8ff" stroke="#63b8ff" points="363.7,-57.5 373.7,-54 363.7,-50.5 363.7,-57.5"/>
</a>
</g>
</g>
<!-- Node7 -->
<g id="Node000007" class="node">
<title>Node7</title>
<g id="a_Node000007"><a xlink:href="class_ini_file.html#add78997eb6343f1b0f43f57d3f8fca45" target="_top" xlink:title=" ">
<polygon fill="white" stroke="#666666" points="501.63,-20 382.88,-20 382.88,0 501.63,0 501.63,-20"/>
<text text-anchor="middle" x="442.25" y="-6.5" font-family="Helvetica,sans-Serif" font-size="10.00">IniFile::skipWhiteSpace</text>
</a>
</g>
</g>
<!-- Node2&#45;&gt;Node7 -->
<g id="edge13_Node000002_Node000007" class="edge">
<title>Node2&#45;&gt;Node7</title>
<g id="a_edge13_Node000002_Node000007"><a xlink:title=" ">
<path fill="none" stroke="#63b8ff" d="M207.79,-47.27C251.36,-40.31 320.11,-29.34 371.74,-21.1"/>
<polygon fill="#63b8ff" stroke="#63b8ff" points="372.16,-24.41 381.48,-19.38 371.05,-17.5 372.16,-24.41"/>
</a>
</g>
</g>
<!-- Node8 -->
<g id="Node000008" class="node">
<title>Node8</title>
<g id="a_Node000008"><a xlink:href="class_ini_file.html#aad3b972ecbcda0f78420a53ec5024ace" target="_top" xlink:title=" ">
<polygon fill="white" stroke="#666666" points="339,-83 243.5,-83 243.5,-63 339,-63 339,-83"/>
<text text-anchor="middle" x="291.25" y="-69.5" font-family="Helvetica,sans-Serif" font-size="10.00">IniFile::findSection</text>
</a>
</g>
</g>
<!-- Node2&#45;&gt;Node8 -->
<g id="edge7_Node000002_Node000008" class="edge">
<title>Node2&#45;&gt;Node8</title>
<g id="a_edge7_Node000002_Node000008"><a xlink:title=" ">
<path fill="none" stroke="#63b8ff" d="M207.82,-60.43C215.77,-61.65 224.22,-62.93 232.55,-64.2"/>
<polygon fill="#63b8ff" stroke="#63b8ff" points="231.98,-67.81 242.39,-65.86 233.03,-60.89 231.98,-67.81"/>
</a>
</g>
</g>
<!-- Node4 -->
<g id="Node000004" class="node">
<title>Node4</title>
<g id="a_Node000004"><a xlink:href="class_ini_file.html#aaa3a74cbc865a3582a3e41c8809c72c1" target="_top" xlink:title=" ">
<polygon fill="white" stroke="#666666" points="500.88,-146 383.63,-146 383.63,-126 500.88,-126 500.88,-146"/>
<text text-anchor="middle" x="442.25" y="-132.5" font-family="Helvetica,sans-Serif" font-size="10.00">IniFile::isCommentChar</text>
</a>
</g>
</g>
<!-- Node3&#45;&gt;Node4 -->
<g id="edge3_Node000003_Node000004" class="edge">
<title>Node3&#45;&gt;Node4</title>
<g id="a_edge3_Node000003_Node000004"><a xlink:title=" ">
<path fill="none" stroke="#63b8ff" d="M331.4,-117.57C344.04,-119.69 358.45,-122.11 372.58,-124.48"/>
<polygon fill="#63b8ff" stroke="#63b8ff" points="371.85,-128.07 382.3,-126.28 373.01,-121.17 371.85,-128.07"/>
</a>
</g>
</g>
<!-- Node5 -->
<g id="Node000005" class="node">
<title>Node5</title>
<g id="a_Node000005"><a xlink:href="class_ini_file.html#a2d2874e132192179169a9de44207a21f" target="_top" xlink:title=" ">
<polygon fill="white" stroke="#666666" points="484.38,-108 400.13,-108 400.13,-88 484.38,-88 484.38,-108"/>
<text text-anchor="middle" x="442.25" y="-94.5" font-family="Helvetica,sans-Serif" font-size="10.00">IniFile::readLine</text>
</a>
</g>
</g>
<!-- Node3&#45;&gt;Node5 -->
<g id="edge4_Node000003_Node000005" class="edge">
<title>Node3&#45;&gt;Node5</title>
<g id="a_edge4_Node000003_Node000005"><a xlink:title=" ">
<path fill="none" stroke="#63b8ff" d="M331.4,-107.58C348.98,-106.05 369.99,-104.22 388.91,-102.57"/>
<polygon fill="#63b8ff" stroke="#63b8ff" points="389.1,-105.98 398.76,-101.62 388.49,-99 389.1,-105.98"/>
</a>
</g>
</g>
<!-- Node3&#45;&gt;Node6 -->
<g id="edge5_Node000003_Node000006" class="edge">
<title>Node3&#45;&gt;Node6</title>
<g id="a_edge5_Node000003_Node000006"><a xlink:title=" ">
<path fill="none" stroke="#63b8ff" d="M319.06,-100.57C335.25,-94.29 356.29,-86.15 375,-79 378.96,-77.49 383.05,-75.93 387.17,-74.37"/>
<polygon fill="#63b8ff" stroke="#63b8ff" points="388.29,-77.31 396.4,-70.49 385.81,-70.76 388.29,-77.31"/>
</a>
</g>
</g>
<!-- Node3&#45;&gt;Node7 -->
<g id="edge6_Node000003_Node000007" class="edge">
<title>Node3&#45;&gt;Node7</title>
<g id="a_edge6_Node000003_Node000007"><a xlink:title=" ">
<path fill="none" stroke="#63b8ff" d="M325.54,-100.73C330.37,-98.34 335.04,-95.46 339,-92 363.27,-70.76 349.63,-48.91 375,-29 376.66,-27.7 378.4,-26.49 380.21,-25.36"/>
<polygon fill="#63b8ff" stroke="#63b8ff" points="381.49,-28.11 388.72,-20.37 378.24,-21.91 381.49,-28.11"/>
</a>
</g>
</g>
<!-- Node8&#45;&gt;Node4 -->
<g id="edge8_Node000008_Node000004" class="edge">
<title>Node8&#45;&gt;Node4</title>
<g id="a_edge8_Node000008_Node000004"><a xlink:title=" ">
<path fill="none" stroke="#63b8ff" d="M320.9,-83.47C326.99,-86.02 333.3,-88.91 339,-92 356.13,-101.28 357.4,-108.65 375,-117 378.78,-118.8 382.77,-120.46 386.84,-121.98"/>
<polygon fill="#63b8ff" stroke="#63b8ff" points="385.43,-125.55 396.03,-125.51 387.72,-118.93 385.43,-125.55"/>
</a>
</g>
</g>
<!-- Node8&#45;&gt;Node5 -->
<g id="edge9_Node000008_Node000005" class="edge">
<title>Node8&#45;&gt;Node5</title>
<g id="a_edge9_Node000008_Node000005"><a xlink:title=" ">
<path fill="none" stroke="#63b8ff" d="M339.39,-80.91C355.34,-83.59 373.23,-86.59 389.51,-89.32"/>
<polygon fill="#63b8ff" stroke="#63b8ff" points="388.5,-92.87 398.94,-91.07 389.66,-85.96 388.5,-92.87"/>
</a>
</g>
</g>
<!-- Node8&#45;&gt;Node6 -->
<g id="edge10_Node000008_Node000006" class="edge">
<title>Node8&#45;&gt;Node6</title>
<g id="a_edge10_Node000008_Node000006"><a xlink:title=" ">
<path fill="none" stroke="#63b8ff" d="M339.39,-66.99C347.16,-66 355.39,-64.95 363.66,-63.89"/>
<polygon fill="#63b8ff" stroke="#63b8ff" points="364.06,-67.24 373.54,-62.51 363.18,-60.3 364.06,-67.24"/>
</a>
</g>
</g>
<!-- Node8&#45;&gt;Node7 -->
<g id="edge11_Node000008_Node000007" class="edge">
<title>Node8&#45;&gt;Node7</title>
<g id="a_edge11_Node000008_Node000007"><a xlink:title=" ">
<path fill="none" stroke="#63b8ff" d="M309.18,-62.64C325.56,-52.95 351.31,-38.57 375,-29 379.68,-27.11 384.61,-25.33 389.59,-23.67"/>
<polygon fill="#63b8ff" stroke="#63b8ff" points="390.32,-26.79 398.8,-20.44 388.21,-20.12 390.32,-26.79"/>
</a>
</g>
</g>
</g>
</svg>

<g id="navigator" transform="translate(0 0)" fill="#404254">
  <rect fill="#f2f5e9" fill-opacity="0.5" stroke="#606060" stroke-width=".5" x="0" y="0" width="60" height="60"/>
  <use id="zoomplus" xlink:href="#zoomPlus" x="17" y="9" onmousedown="handleZoom(evt,'in')"/>
  <use id="zoomminus" xlink:href="#zoomMin" x="42" y="9" onmousedown="handleZoom(evt,'out')"/>
  <use id="reset" xlink:href="#resetDef" x="30" y="36" onmousedown="handleReset()"/>
   <use id="arrowup" xlink:href="#arrowUp" x="0" y="0" onmousedown="handlePan(0,-1)"/>
  <use id="arrowright" xlink:href="#arrowRight" x="0" y="0" onmousedown="handlePan(1,0)"/>
  <use id="arrowdown" xlink:href="#arrowDown" x="0" y="0" onmousedown="handlePan(0,1)"/>
  <use id="arrowleft" xlink:href="#arrowLeft" x="0" y="0" onmousedown="handlePan(-1,0)"/>
</g>
<svg viewBox="0 0 15 15" width="100%" height="30px" preserveAspectRatio="xMaxYMin meet">
 <g id="arrow_out" transform="scale(0.3 0.3)">
  <a xlink:href="class_ini_file_a0e1c86ab1a8b03dd2c9b59c30c39797d_cgraph_org.svg" target="_base">
   <rect id="button" ry="5" rx="5" y="6" x="6" height="38" width="38"
        fill="#f2f5e9" fill-opacity="0.5" stroke="#606060" stroke-width="1.0"/>
   <path id="arrow"
     d="M 11.500037,31.436501 C 11.940474,20.09759 22.043105,11.32322 32.158766,21.979434 L 37.068811,17.246167 C 37.068811,17.246167 37.088388,32 37.088388,32 L 22.160133,31.978069 C 22.160133,31.978069 26.997745,27.140456 26.997745,27.140456 C 18.528582,18.264221 13.291696,25.230495 11.500037,31.436501 z"
     style="fill:#404040;"/>
  </a>
 </g>
</svg>

<style type='text/css'>
<![CDATA[
[data-mouse-over-selected='false'] { opacity: 0.7; }
[data-mouse-over-selected='true']  { opacity: 1.0; }
]]>
</style>
<script type="application/ecmascript"><![CDATA[
document.addEventListener('DOMContentLoaded', (event) => {
  highlightEdges();
  highlightAdjacentNodes();
});
]]></script>
</svg>
