<?xml version="1.0" encoding="UTF-8" standalone="no"?>
<!DOCTYPE svg PUBLIC "-//W3C//DTD SVG 1.1//EN"
 "http://www.w3.org/Graphics/SVG/1.1/DTD/svg11.dtd">
<!-- Generated by graphviz version 8.1.0 (20230707.0739)
 -->
<!-- Title: IniFile::findSection Pages: 1 -->
<svg width="274pt" height="154pt"
 viewBox="0.00 0.00 274.00 154.00" xmlns="http://www.w3.org/2000/svg" xmlns:xlink="http://www.w3.org/1999/xlink">
<g id="graph0" class="graph" transform="scale(1 1) rotate(0) translate(4 150)">
<title>IniFile::findSection</title>
<!-- Node1 -->
<g id="Node000001" class="node">
<title>Node1</title>
<g id="a_Node000001"><a xlink:title=" ">
<polygon fill="#999999" stroke="#666666" points="95.5,-86 0,-86 0,-66 95.5,-66 95.5,-86"/>
<text text-anchor="middle" x="47.75" y="-72.5" font-family="Helvetica,sans-Serif" font-size="10.00">IniFile::findSection</text>
</a>
</g>
</g>
<!-- Node2 -->
<g id="Node000002" class="node">
<title>Node2</title>
<g id="a_Node000002"><a xlink:href="class_ini_file.html#aaa3a74cbc865a3582a3e41c8809c72c1" target="_top" xlink:title=" ">
<polygon fill="white" stroke="#666666" points="257.38,-146 140.13,-146 140.13,-126 257.38,-126 257.38,-146"/>
<text text-anchor="middle" x="198.75" y="-132.5" font-family="Helvetica,sans-Serif" font-size="10.00">IniFile::isCommentChar</text>
</a>
</g>
</g>
<!-- Node1&#45;&gt;Node2 -->
<g id="edge1_Node000001_Node000002" class="edge">
<title>Node1&#45;&gt;Node2</title>
<g id="a_edge1_Node000001_Node000002"><a xlink:title=" ">
<path fill="none" stroke="#63b8ff" d="M67.37,-86.44C83.86,-95.39 108.78,-108.2 131.5,-117 136.46,-118.92 141.7,-120.75 146.97,-122.46"/>
<polygon fill="#63b8ff" stroke="#63b8ff" points="145.49,-125.97 156.07,-125.59 147.56,-119.29 145.49,-125.97"/>
</a>
</g>
</g>
<!-- Node3 -->
<g id="Node000003" class="node">
<title>Node3</title>
<g id="a_Node000003"><a xlink:href="class_ini_file.html#a2d2874e132192179169a9de44207a21f" target="_top" xlink:title=" ">
<polygon fill="white" stroke="#666666" points="240.88,-108 156.63,-108 156.63,-88 240.88,-88 240.88,-108"/>
<text text-anchor="middle" x="198.75" y="-94.5" font-family="Helvetica,sans-Serif" font-size="10.00">IniFile::readLine</text>
</a>
</g>
</g>
<!-- Node1&#45;&gt;Node3 -->
<g id="edge2_Node000001_Node000003" class="edge">
<title>Node1&#45;&gt;Node3</title>
<g id="a_edge2_Node000001_Node000003"><a xlink:title=" ">
<path fill="none" stroke="#63b8ff" d="M95.89,-82.96C111.84,-85.32 129.73,-87.96 146.01,-90.36"/>
<polygon fill="#63b8ff" stroke="#63b8ff" points="145.04,-93.9 155.44,-91.9 146.06,-86.98 145.04,-93.9"/>
</a>
</g>
</g>
<!-- Node4 -->
<g id="Node000004" class="node">
<title>Node4</title>
<g id="a_Node000004"><a xlink:href="class_ini_file.html#acbabab9434de6d60648c1a4b55e32f8e" target="_top" xlink:title=" ">
<polygon fill="white" stroke="#666666" points="266,-70 131.5,-70 131.5,-38 266,-38 266,-70"/>
<text text-anchor="start" x="139.5" y="-56.5" font-family="Helvetica,sans-Serif" font-size="10.00">IniFile::removeTrailingWhite</text>
<text text-anchor="middle" x="198.75" y="-44.5" font-family="Helvetica,sans-Serif" font-size="10.00">Space</text>
</a>
</g>
</g>
<!-- Node1&#45;&gt;Node4 -->
<g id="edge3_Node000001_Node000004" class="edge">
<title>Node1&#45;&gt;Node4</title>
<g id="a_edge3_Node000001_Node000004"><a xlink:title=" ">
<path fill="none" stroke="#63b8ff" d="M95.89,-69.04C103.66,-67.89 111.89,-66.68 120.16,-65.46"/>
<polygon fill="#63b8ff" stroke="#63b8ff" points="120.66,-68.77 130.04,-63.85 119.64,-61.85 120.66,-68.77"/>
</a>
</g>
</g>
<!-- Node5 -->
<g id="Node000005" class="node">
<title>Node5</title>
<g id="a_Node000005"><a xlink:href="class_ini_file.html#add78997eb6343f1b0f43f57d3f8fca45" target="_top" xlink:title=" ">
<polygon fill="white" stroke="#666666" points="258.13,-20 139.38,-20 139.38,0 258.13,0 258.13,-20"/>
<text text-anchor="middle" x="198.75" y="-6.5" font-family="Helvetica,sans-Serif" font-size="10.00">IniFile::skipWhiteSpace</text>
</a>
</g>
</g>
<!-- Node1&#45;&gt;Node5 -->
<g id="edge4_Node000001_Node000005" class="edge">
<title>Node1&#45;&gt;Node5</title>
<g id="a_edge4_Node000001_Node000005"><a xlink:title=" ">
<path fill="none" stroke="#63b8ff" d="M64.35,-65.64C80.57,-55.24 106.98,-39.31 131.5,-29 135.9,-27.15 140.54,-25.42 145.23,-23.81"/>
<polygon fill="#63b8ff" stroke="#63b8ff" points="146.09,-26.88 154.53,-20.48 143.94,-20.22 146.09,-26.88"/>
</a>
</g>
</g>
</g>
</svg>
