<?xml version="1.0" encoding="UTF-8" standalone="no"?>
<!DOCTYPE svg PUBLIC "-//W3C//DTD SVG 1.1//EN"
 "http://www.w3.org/Graphics/SVG/1.1/DTD/svg11.dtd">
<!-- Generated by graphviz version 8.1.0 (20230707.0739)
 -->
<!-- Title: ExoData Pages: 1 -->
<svg width="164pt" height="268pt"
 viewBox="0.00 0.00 164.25 268.00" xmlns="http://www.w3.org/2000/svg" xmlns:xlink="http://www.w3.org/1999/xlink">
<g id="graph0" class="graph" transform="scale(1 1) rotate(0) translate(4 264)">
<title>ExoData</title>
<!-- Node1 -->
<g id="Node000001" class="node">
<title>Node1</title>
<g id="a_Node000001"><a xlink:title="Class to store all the data related to the exo.">
<polygon fill="#999999" stroke="#666666" points="100.25,-20 46.75,-20 46.75,0 100.25,0 100.25,-20"/>
<text text-anchor="middle" x="73.5" y="-6.5" font-family="Helvetica,sans-Serif" font-size="10.00">ExoData</text>
</a>
</g>
</g>
<!-- Node2 -->
<g id="Node000002" class="node">
<title>Node2</title>
<g id="a_Node000002"><a xlink:href="class_leg_data.html" target="_top" xlink:title="class to store information related to the leg.">
<polygon fill="white" stroke="#666666" points="99.5,-100 47.5,-100 47.5,-80 99.5,-80 99.5,-100"/>
<text text-anchor="middle" x="73.5" y="-86.5" font-family="Helvetica,sans-Serif" font-size="10.00">LegData</text>
</a>
</g>
</g>
<!-- Node2&#45;&gt;Node1 -->
<g id="edge1_Node000001_Node000002" class="edge">
<title>Node2&#45;&gt;Node1</title>
<g id="a_edge1_Node000001_Node000002"><a xlink:title=" ">
<path fill="none" stroke="#9a32cd" stroke-dasharray="5,2" d="M73.5,-69.05C73.5,-53.35 73.5,-32.2 73.5,-20.24"/>
<polygon fill="#9a32cd" stroke="#9a32cd" points="70,-68.75 73.5,-78.75 77,-68.75 70,-68.75"/>
</a>
</g>
<text text-anchor="middle" x="91.88" y="-52.5" font-family="Helvetica,sans-Serif" font-size="10.00" fill="grey"> left_leg</text>
<text text-anchor="middle" x="91.88" y="-40.5" font-family="Helvetica,sans-Serif" font-size="10.00" fill="grey">right_leg</text>
</g>
<!-- Node3 -->
<g id="Node000003" class="node">
<title>Node3</title>
<g id="a_Node000003"><a xlink:href="class_joint_data.html" target="_top" xlink:title="class to store information related to joint.">
<polygon fill="white" stroke="#666666" points="101.75,-192 45.25,-192 45.25,-172 101.75,-172 101.75,-192"/>
<text text-anchor="middle" x="73.5" y="-178.5" font-family="Helvetica,sans-Serif" font-size="10.00">JointData</text>
</a>
</g>
</g>
<!-- Node3&#45;&gt;Node2 -->
<g id="edge2_Node000002_Node000003" class="edge">
<title>Node3&#45;&gt;Node2</title>
<g id="a_edge2_Node000002_Node000003"><a xlink:title=" ">
<path fill="none" stroke="#9a32cd" stroke-dasharray="5,2" d="M73.5,-160.75C73.5,-141.87 73.5,-114.58 73.5,-100.38"/>
<polygon fill="#9a32cd" stroke="#9a32cd" points="70,-160.71 73.5,-170.71 77,-160.71 70,-160.71"/>
</a>
</g>
<text text-anchor="middle" x="86.63" y="-144.5" font-family="Helvetica,sans-Serif" font-size="10.00" fill="grey"> ankle</text>
<text text-anchor="middle" x="86.63" y="-132.5" font-family="Helvetica,sans-Serif" font-size="10.00" fill="grey">hip</text>
<text text-anchor="middle" x="86.63" y="-120.5" font-family="Helvetica,sans-Serif" font-size="10.00" fill="grey">knee</text>
</g>
<!-- Node4 -->
<g id="Node000004" class="node">
<title>Node4</title>
<g id="a_Node000004"><a xlink:href="class_motor_data.html" target="_top" xlink:title=" ">
<polygon fill="white" stroke="#666666" points="61,-260 0,-260 0,-240 61,-240 61,-260"/>
<text text-anchor="middle" x="30.5" y="-246.5" font-family="Helvetica,sans-Serif" font-size="10.00">MotorData</text>
</a>
</g>
</g>
<!-- Node4&#45;&gt;Node3 -->
<g id="edge3_Node000003_Node000004" class="edge">
<title>Node4&#45;&gt;Node3</title>
<g id="a_edge3_Node000003_Node000004"><a xlink:title=" ">
<path fill="none" stroke="#9a32cd" stroke-dasharray="5,2" d="M42.54,-230.52C50.61,-218.13 60.91,-202.33 67.35,-192.44"/>
<polygon fill="#9a32cd" stroke="#9a32cd" points="39.19,-228.25 36.66,-238.54 45.05,-232.08 39.19,-228.25"/>
</a>
</g>
<text text-anchor="middle" x="70.38" y="-212.5" font-family="Helvetica,sans-Serif" font-size="10.00" fill="grey"> motor</text>
</g>
<!-- Node5 -->
<g id="Node000005" class="node">
<title>Node5</title>
<g id="a_Node000005"><a xlink:href="class_controller_data.html" target="_top" xlink:title="class to store information related to controllers.">
<polygon fill="white" stroke="#666666" points="156.25,-260 78.75,-260 78.75,-240 156.25,-240 156.25,-260"/>
<text text-anchor="middle" x="117.5" y="-246.5" font-family="Helvetica,sans-Serif" font-size="10.00">ControllerData</text>
</a>
</g>
</g>
<!-- Node5&#45;&gt;Node3 -->
<g id="edge4_Node000003_Node000005" class="edge">
<title>Node5&#45;&gt;Node3</title>
<g id="a_edge4_Node000003_Node000005"><a xlink:title=" ">
<path fill="none" stroke="#9a32cd" stroke-dasharray="5,2" d="M105.18,-230.52C96.92,-218.13 86.39,-202.33 79.79,-192.44"/>
<polygon fill="#9a32cd" stroke="#9a32cd" points="102.74,-232.16 111.2,-238.54 108.56,-228.28 102.74,-232.16"/>
</a>
</g>
<text text-anchor="middle" x="119.88" y="-212.5" font-family="Helvetica,sans-Serif" font-size="10.00" fill="grey"> controller</text>
</g>
</g>
</svg>
