<?xml version="1.0" encoding="UTF-8" standalone="no"?>
<!DOCTYPE svg PUBLIC "-//W3C//DTD SVG 1.1//EN"
 "http://www.w3.org/Graphics/SVG/1.1/DTD/svg11.dtd">
<!-- Generated by graphviz version 8.1.0 (20230707.0739)
 -->
<!-- Title: IniFile::getIPAddress Pages: 1 -->
<!--zoomable 154 -->

<svg id="main" version="1.1" xmlns="http://www.w3.org/2000/svg" xmlns:xlink="http://www.w3.org/1999/xlink" xml:space="preserve" onload="init(evt)">
<style type="text/css"><![CDATA[
.node, .edge {opacity: 0.7;}
.node.selected, .edge.selected {opacity: 1;}
.edge:hover path { stroke: red; }
.edge:hover polygon { stroke: red; fill: red; }
]]></style>

<defs>
  <circle id="rim" cx="0" cy="0" r="7"/>
  <circle id="rim2" cx="0" cy="0" r="3.5"/>
  <g id="zoomPlus">
    <use xlink:href="#rim" fill="#404040"><set attributeName="fill" to="#808080" begin="zoomplus.mouseover" end="zoomplus.mouseout"/></use>
    <path d="M-4,0h8M0,-4v8" fill="none" stroke="white" stroke-width="1.5" pointer-events="none"/>
  </g>
  <g id="zoomMin">
    <use xlink:href="#rim" fill="#404040"><set attributeName="fill" to="#808080" begin="zoomminus.mouseover" end="zoomminus.mouseout"/></use>
    <path d="M-4,0h8" fill="none" stroke="white" stroke-width="1.5" pointer-events="none"/>
  </g>
  <g id="arrowUp" transform="translate(30 24)">
    <use xlink:href="#rim"/>
    <path pointer-events="none" fill="none" stroke="white" stroke-width="1.5" d="M0,-3.0v7 M-2.5,-0.5L0,-3.0L2.5,-0.5"/>
  </g>
  <g id="arrowRight" transform="rotate(90) translate(36 -43)">
    <use xlink:href="#rim"/>
    <path pointer-events="none" fill="none" stroke="white" stroke-width="1.5" d="M0,-3.0v7 M-2.5,-0.5L0,-3.0L2.5,-0.5"/>
  </g>
  <g id="arrowDown" transform="rotate(180) translate(-30 -48)">
    <use xlink:href="#rim"/>
    <path pointer-events="none" fill="none" stroke="white" stroke-width="1.5" d="M0,-3.0v7 M-2.5,-0.5L0,-3.0L2.5,-0.5"/>
  </g>
  <g id="arrowLeft" transform="rotate(270) translate(-36 17)">
    <use xlink:href="#rim"/>
    <path pointer-events="none" fill="none" stroke="white" stroke-width="1.5" d="M0,-3.0v7 M-2.5,-0.5L0,-3.0L2.5,-0.5"/>
  </g>
  <g id="resetDef">
    <use xlink:href="#rim2" fill="#404040"><set attributeName="fill" to="#808080" begin="reset.mouseover" end="reset.mouseout"/></use>
  </g>
</defs>
<script type="application/ecmascript">
var viewWidth = 538;
var viewHeight = 154;
var sectionId = 'dynsection-3';
</script>
<script type="application/ecmascript" xlink:href="svg.min.js"/>
<svg id="graph" class="graph">
<g id="viewport">
<title>IniFile::getIPAddress</title>
<!-- Node1 -->
<g id="Node000001" class="node">
<title>Node1</title>
<g id="a_Node000001"><a xlink:title=" ">
<polygon fill="#999999" stroke="#666666" points="106,-64 0,-64 0,-44 106,-44 106,-64"/>
<text text-anchor="middle" x="53" y="-50.5" font-family="Helvetica,sans-Serif" font-size="10.00">IniFile::getIPAddress</text>
</a>
</g>
</g>
<!-- Node2 -->
<g id="Node000002" class="node">
<title>Node2</title>
<g id="a_Node000002"><a xlink:href="class_ini_file.html#ac236a5f5582c55478023aab87292e200" target="_top" xlink:title=" ">
<polygon fill="white" stroke="#666666" points="227.75,-64 142,-64 142,-44 227.75,-44 227.75,-64"/>
<text text-anchor="middle" x="184.88" y="-50.5" font-family="Helvetica,sans-Serif" font-size="10.00">IniFile::getValue</text>
</a>
</g>
</g>
<!-- Node1&#45;&gt;Node2 -->
<g id="edge1_Node000001_Node000002" class="edge">
<title>Node1&#45;&gt;Node2</title>
<g id="a_edge1_Node000001_Node000002"><a xlink:title=" ">
<path fill="none" stroke="#63b8ff" d="M106.45,-54C114.49,-54 122.78,-54 130.83,-54"/>
<polygon fill="#63b8ff" stroke="#63b8ff" points="130.6,-57.5 140.6,-54 130.6,-50.5 130.6,-57.5"/>
</a>
</g>
</g>
<!-- Node3 -->
<g id="Node000003" class="node">
<title>Node3</title>
<g id="a_Node000003"><a xlink:href="class_ini_file.html#a64a532179db6b398c4930a7e1c2ac6d4" target="_top" xlink:title=" ">
<polygon fill="white" stroke="#666666" points="351.38,-121 271.63,-121 271.63,-101 351.38,-101 351.38,-121"/>
<text text-anchor="middle" x="311.5" y="-107.5" font-family="Helvetica,sans-Serif" font-size="10.00">IniFile::findKey</text>
</a>
</g>
</g>
<!-- Node2&#45;&gt;Node3 -->
<g id="edge2_Node000002_Node000003" class="edge">
<title>Node2&#45;&gt;Node3</title>
<g id="a_edge2_Node000002_Node000003"><a xlink:title=" ">
<path fill="none" stroke="#63b8ff" d="M206.19,-64.38C221.8,-72.25 243.97,-83.17 263.75,-92 267.13,-93.51 270.67,-95.04 274.23,-96.54"/>
<polygon fill="#63b8ff" stroke="#63b8ff" points="272.58,-100.06 283.16,-100.66 275.26,-93.6 272.58,-100.06"/>
</a>
</g>
</g>
<!-- Node6 -->
<g id="Node000006" class="node">
<title>Node6</title>
<g id="a_Node000006"><a xlink:href="class_ini_file.html#acbabab9434de6d60648c1a4b55e32f8e" target="_top" xlink:title=" ">
<polygon fill="white" stroke="#666666" points="529.75,-70 395.25,-70 395.25,-38 529.75,-38 529.75,-70"/>
<text text-anchor="start" x="403.25" y="-56.5" font-family="Helvetica,sans-Serif" font-size="10.00">IniFile::removeTrailingWhite</text>
<text text-anchor="middle" x="462.5" y="-44.5" font-family="Helvetica,sans-Serif" font-size="10.00">Space</text>
</a>
</g>
</g>
<!-- Node2&#45;&gt;Node6 -->
<g id="edge12_Node000002_Node000006" class="edge">
<title>Node2&#45;&gt;Node6</title>
<g id="a_edge12_Node000002_Node000006"><a xlink:title=" ">
<path fill="none" stroke="#63b8ff" d="M228.04,-54C269.41,-54 333.49,-54 384.05,-54"/>
<polygon fill="#63b8ff" stroke="#63b8ff" points="383.95,-57.5 393.95,-54 383.95,-50.5 383.95,-57.5"/>
</a>
</g>
</g>
<!-- Node7 -->
<g id="Node000007" class="node">
<title>Node7</title>
<g id="a_Node000007"><a xlink:href="class_ini_file.html#add78997eb6343f1b0f43f57d3f8fca45" target="_top" xlink:title=" ">
<polygon fill="white" stroke="#666666" points="521.88,-20 403.13,-20 403.13,0 521.88,0 521.88,-20"/>
<text text-anchor="middle" x="462.5" y="-6.5" font-family="Helvetica,sans-Serif" font-size="10.00">IniFile::skipWhiteSpace</text>
</a>
</g>
</g>
<!-- Node2&#45;&gt;Node7 -->
<g id="edge13_Node000002_Node000007" class="edge">
<title>Node2&#45;&gt;Node7</title>
<g id="a_edge13_Node000002_Node000007"><a xlink:title=" ">
<path fill="none" stroke="#63b8ff" d="M228.04,-47.27C271.61,-40.31 340.36,-29.34 391.99,-21.1"/>
<polygon fill="#63b8ff" stroke="#63b8ff" points="392.41,-24.41 401.73,-19.38 391.3,-17.5 392.41,-24.41"/>
</a>
</g>
</g>
<!-- Node8 -->
<g id="Node000008" class="node">
<title>Node8</title>
<g id="a_Node000008"><a xlink:href="class_ini_file.html#aad3b972ecbcda0f78420a53ec5024ace" target="_top" xlink:title=" ">
<polygon fill="white" stroke="#666666" points="359.25,-83 263.75,-83 263.75,-63 359.25,-63 359.25,-83"/>
<text text-anchor="middle" x="311.5" y="-69.5" font-family="Helvetica,sans-Serif" font-size="10.00">IniFile::findSection</text>
</a>
</g>
</g>
<!-- Node2&#45;&gt;Node8 -->
<g id="edge7_Node000002_Node000008" class="edge">
<title>Node2&#45;&gt;Node8</title>
<g id="a_edge7_Node000002_Node000008"><a xlink:title=" ">
<path fill="none" stroke="#63b8ff" d="M228.07,-60.43C236.02,-61.65 244.47,-62.93 252.8,-64.2"/>
<polygon fill="#63b8ff" stroke="#63b8ff" points="252.23,-67.81 262.64,-65.86 253.28,-60.89 252.23,-67.81"/>
</a>
</g>
</g>
<!-- Node4 -->
<g id="Node000004" class="node">
<title>Node4</title>
<g id="a_Node000004"><a xlink:href="class_ini_file.html#aaa3a74cbc865a3582a3e41c8809c72c1" target="_top" xlink:title=" ">
<polygon fill="white" stroke="#666666" points="521.13,-146 403.88,-146 403.88,-126 521.13,-126 521.13,-146"/>
<text text-anchor="middle" x="462.5" y="-132.5" font-family="Helvetica,sans-Serif" font-size="10.00">IniFile::isCommentChar</text>
</a>
</g>
</g>
<!-- Node3&#45;&gt;Node4 -->
<g id="edge3_Node000003_Node000004" class="edge">
<title>Node3&#45;&gt;Node4</title>
<g id="a_edge3_Node000003_Node000004"><a xlink:title=" ">
<path fill="none" stroke="#63b8ff" d="M351.65,-117.57C364.29,-119.69 378.7,-122.11 392.83,-124.48"/>
<polygon fill="#63b8ff" stroke="#63b8ff" points="392.1,-128.07 402.55,-126.28 393.26,-121.17 392.1,-128.07"/>
</a>
</g>
</g>
<!-- Node5 -->
<g id="Node000005" class="node">
<title>Node5</title>
<g id="a_Node000005"><a xlink:href="class_ini_file.html#a2d2874e132192179169a9de44207a21f" target="_top" xlink:title=" ">
<polygon fill="white" stroke="#666666" points="504.63,-108 420.38,-108 420.38,-88 504.63,-88 504.63,-108"/>
<text text-anchor="middle" x="462.5" y="-94.5" font-family="Helvetica,sans-Serif" font-size="10.00">IniFile::readLine</text>
</a>
</g>
</g>
<!-- Node3&#45;&gt;Node5 -->
<g id="edge4_Node000003_Node000005" class="edge">
<title>Node3&#45;&gt;Node5</title>
<g id="a_edge4_Node000003_Node000005"><a xlink:title=" ">
<path fill="none" stroke="#63b8ff" d="M351.65,-107.58C369.23,-106.05 390.24,-104.22 409.16,-102.57"/>
<polygon fill="#63b8ff" stroke="#63b8ff" points="409.35,-105.98 419.01,-101.62 408.74,-99 409.35,-105.98"/>
</a>
</g>
</g>
<!-- Node3&#45;&gt;Node6 -->
<g id="edge5_Node000003_Node000006" class="edge">
<title>Node3&#45;&gt;Node6</title>
<g id="a_edge5_Node000003_Node000006"><a xlink:title=" ">
<path fill="none" stroke="#63b8ff" d="M339.31,-100.57C355.5,-94.29 376.54,-86.15 395.25,-79 399.21,-77.49 403.3,-75.93 407.42,-74.37"/>
<polygon fill="#63b8ff" stroke="#63b8ff" points="408.54,-77.31 416.65,-70.49 406.06,-70.76 408.54,-77.31"/>
</a>
</g>
</g>
<!-- Node3&#45;&gt;Node7 -->
<g id="edge6_Node000003_Node000007" class="edge">
<title>Node3&#45;&gt;Node7</title>
<g id="a_edge6_Node000003_Node000007"><a xlink:title=" ">
<path fill="none" stroke="#63b8ff" d="M345.79,-100.73C350.62,-98.34 355.29,-95.46 359.25,-92 383.52,-70.76 369.88,-48.91 395.25,-29 396.91,-27.7 398.65,-26.49 400.46,-25.36"/>
<polygon fill="#63b8ff" stroke="#63b8ff" points="401.74,-28.11 408.97,-20.37 398.49,-21.91 401.74,-28.11"/>
</a>
</g>
</g>
<!-- Node8&#45;&gt;Node4 -->
<g id="edge8_Node000008_Node000004" class="edge">
<title>Node8&#45;&gt;Node4</title>
<g id="a_edge8_Node000008_Node000004"><a xlink:title=" ">
<path fill="none" stroke="#63b8ff" d="M341.15,-83.47C347.24,-86.02 353.55,-88.91 359.25,-92 376.38,-101.28 377.65,-108.65 395.25,-117 399.03,-118.8 403.02,-120.46 407.09,-121.98"/>
<polygon fill="#63b8ff" stroke="#63b8ff" points="405.68,-125.55 416.28,-125.51 407.97,-118.93 405.68,-125.55"/>
</a>
</g>
</g>
<!-- Node8&#45;&gt;Node5 -->
<g id="edge9_Node000008_Node000005" class="edge">
<title>Node8&#45;&gt;Node5</title>
<g id="a_edge9_Node000008_Node000005"><a xlink:title=" ">
<path fill="none" stroke="#63b8ff" d="M359.64,-80.91C375.59,-83.59 393.48,-86.59 409.76,-89.32"/>
<polygon fill="#63b8ff" stroke="#63b8ff" points="408.75,-92.87 419.19,-91.07 409.91,-85.96 408.75,-92.87"/>
</a>
</g>
</g>
<!-- Node8&#45;&gt;Node6 -->
<g id="edge10_Node000008_Node000006" class="edge">
<title>Node8&#45;&gt;Node6</title>
<g id="a_edge10_Node000008_Node000006"><a xlink:title=" ">
<path fill="none" stroke="#63b8ff" d="M359.64,-66.99C367.41,-66 375.64,-64.95 383.91,-63.89"/>
<polygon fill="#63b8ff" stroke="#63b8ff" points="384.31,-67.24 393.79,-62.51 383.43,-60.3 384.31,-67.24"/>
</a>
</g>
</g>
<!-- Node8&#45;&gt;Node7 -->
<g id="edge11_Node000008_Node000007" class="edge">
<title>Node8&#45;&gt;Node7</title>
<g id="a_edge11_Node000008_Node000007"><a xlink:title=" ">
<path fill="none" stroke="#63b8ff" d="M329.43,-62.64C345.81,-52.95 371.56,-38.57 395.25,-29 399.93,-27.11 404.86,-25.33 409.84,-23.67"/>
<polygon fill="#63b8ff" stroke="#63b8ff" points="410.57,-26.79 419.05,-20.44 408.46,-20.12 410.57,-26.79"/>
</a>
</g>
</g>
</g>
</svg>

<g id="navigator" transform="translate(0 0)" fill="#404254">
  <rect fill="#f2f5e9" fill-opacity="0.5" stroke="#606060" stroke-width=".5" x="0" y="0" width="60" height="60"/>
  <use id="zoomplus" xlink:href="#zoomPlus" x="17" y="9" onmousedown="handleZoom(evt,'in')"/>
  <use id="zoomminus" xlink:href="#zoomMin" x="42" y="9" onmousedown="handleZoom(evt,'out')"/>
  <use id="reset" xlink:href="#resetDef" x="30" y="36" onmousedown="handleReset()"/>
   <use id="arrowup" xlink:href="#arrowUp" x="0" y="0" onmousedown="handlePan(0,-1)"/>
  <use id="arrowright" xlink:href="#arrowRight" x="0" y="0" onmousedown="handlePan(1,0)"/>
  <use id="arrowdown" xlink:href="#arrowDown" x="0" y="0" onmousedown="handlePan(0,1)"/>
  <use id="arrowleft" xlink:href="#arrowLeft" x="0" y="0" onmousedown="handlePan(-1,0)"/>
</g>
<svg viewBox="0 0 15 15" width="100%" height="30px" preserveAspectRatio="xMaxYMin meet">
 <g id="arrow_out" transform="scale(0.3 0.3)">
  <a xlink:href="class_ini_file_a38abdf056daa667715886bceba235c4a_cgraph_org.svg" target="_base">
   <rect id="button" ry="5" rx="5" y="6" x="6" height="38" width="38"
        fill="#f2f5e9" fill-opacity="0.5" stroke="#606060" stroke-width="1.0"/>
   <path id="arrow"
     d="M 11.500037,31.436501 C 11.940474,20.09759 22.043105,11.32322 32.158766,21.979434 L 37.068811,17.246167 C 37.068811,17.246167 37.088388,32 37.088388,32 L 22.160133,31.978069 C 22.160133,31.978069 26.997745,27.140456 26.997745,27.140456 C 18.528582,18.264221 13.291696,25.230495 11.500037,31.436501 z"
     style="fill:#404040;"/>
  </a>
 </g>
</svg>

<style type='text/css'>
<![CDATA[
[data-mouse-over-selected='false'] { opacity: 0.7; }
[data-mouse-over-selected='true']  { opacity: 1.0; }
]]>
</style>
<script type="application/ecmascript"><![CDATA[
document.addEventListener('DOMContentLoaded', (event) => {
  highlightEdges();
  highlightAdjacentNodes();
});
]]></script>
</svg>
