<?xml version="1.0" encoding="UTF-8" standalone="no"?>
<!DOCTYPE svg PUBLIC "-//W3C//DTD SVG 1.1//EN"
 "http://www.w3.org/Graphics/SVG/1.1/DTD/svg11.dtd">
<!-- Generated by graphviz version 8.1.0 (20230707.0739)
 -->
<!-- Title: ExoData::reconfigure Pages: 1 -->
<svg width="569pt" height="66pt"
 viewBox="0.00 0.00 568.50 66.00" xmlns="http://www.w3.org/2000/svg" xmlns:xlink="http://www.w3.org/1999/xlink">
<g id="graph0" class="graph" transform="scale(1 1) rotate(0) translate(4 62)">
<title>ExoData::reconfigure</title>
<!-- Node1 -->
<g id="Node000001" class="node">
<title>Node1</title>
<g id="a_Node000001"><a xlink:title="reconfigures the the exo data if the configuration changes after constructor called.">
<polygon fill="#999999" stroke="#666666" points="106.75,-39 0,-39 0,-19 106.75,-19 106.75,-39"/>
<text text-anchor="middle" x="53.38" y="-25.5" font-family="Helvetica,sans-Serif" font-size="10.00">ExoData::reconfigure</text>
</a>
</g>
</g>
<!-- Node2 -->
<g id="Node000002" class="node">
<title>Node2</title>
<g id="a_Node000002"><a xlink:href="class_leg_data.html#a9055a1080c742557f26458ab7da3a496" target="_top" xlink:title="reconfigures the the leg data if the configuration changes after constructor called.">
<polygon fill="white" stroke="#666666" points="248,-39 142.75,-39 142.75,-19 248,-19 248,-39"/>
<text text-anchor="middle" x="195.38" y="-25.5" font-family="Helvetica,sans-Serif" font-size="10.00">LegData::reconfigure</text>
</a>
</g>
</g>
<!-- Node1&#45;&gt;Node2 -->
<g id="edge1_Node000001_Node000002" class="edge">
<title>Node1&#45;&gt;Node2</title>
<g id="a_edge1_Node000001_Node000002"><a xlink:title=" ">
<path fill="none" stroke="#63b8ff" d="M106.9,-29C115,-29 123.42,-29 131.71,-29"/>
<polygon fill="#63b8ff" stroke="#63b8ff" points="131.48,-32.5 141.48,-29 131.48,-25.5 131.48,-32.5"/>
</a>
</g>
</g>
<!-- Node3 -->
<g id="Node000003" class="node">
<title>Node3</title>
<g id="a_Node000003"><a xlink:href="class_joint_data.html#a966c7b2eeb8fb0a9f0c09ee27ef30b21" target="_top" xlink:title="reconfigures the the joint data if the configuration changes after constructor called.">
<polygon fill="white" stroke="#666666" points="393.75,-39 284,-39 284,-19 393.75,-19 393.75,-39"/>
<text text-anchor="middle" x="338.88" y="-25.5" font-family="Helvetica,sans-Serif" font-size="10.00">JointData::reconfigure</text>
</a>
</g>
</g>
<!-- Node2&#45;&gt;Node3 -->
<g id="edge2_Node000002_Node000003" class="edge">
<title>Node2&#45;&gt;Node3</title>
<g id="a_edge2_Node000002_Node000003"><a xlink:title=" ">
<path fill="none" stroke="#63b8ff" d="M248.26,-29C256.27,-29 264.62,-29 272.87,-29"/>
<polygon fill="#63b8ff" stroke="#63b8ff" points="272.62,-32.5 282.62,-29 272.62,-25.5 272.62,-32.5"/>
</a>
</g>
</g>
<!-- Node4 -->
<g id="Node000004" class="node">
<title>Node4</title>
<g id="a_Node000004"><a xlink:href="class_controller_data.html#aa5379adfd775e094bc3408f250a2d8a0" target="_top" xlink:title="reconfigures the the controller data if the configuration changes after constructor called.">
<polygon fill="white" stroke="#666666" points="560.5,-58 429.75,-58 429.75,-38 560.5,-38 560.5,-58"/>
<text text-anchor="middle" x="495.13" y="-44.5" font-family="Helvetica,sans-Serif" font-size="10.00">ControllerData::reconfigure</text>
</a>
</g>
</g>
<!-- Node3&#45;&gt;Node4 -->
<g id="edge3_Node000003_Node000004" class="edge">
<title>Node3&#45;&gt;Node4</title>
<g id="a_edge3_Node000003_Node000004"><a xlink:title=" ">
<path fill="none" stroke="#63b8ff" d="M393.82,-35.65C401.8,-36.63 410.14,-37.65 418.45,-38.68"/>
<polygon fill="#63b8ff" stroke="#63b8ff" points="417.98,-42.27 428.34,-40.02 418.84,-35.32 417.98,-42.27"/>
</a>
</g>
</g>
<!-- Node5 -->
<g id="Node000005" class="node">
<title>Node5</title>
<g id="a_Node000005"><a xlink:href="class_motor_data.html#a6c785789ec1689cc0108a6928cb44172" target="_top" xlink:title="reconfigures the the motor data if the configuration changes after constructor called.">
<polygon fill="white" stroke="#666666" points="552.25,-20 438,-20 438,0 552.25,0 552.25,-20"/>
<text text-anchor="middle" x="495.13" y="-6.5" font-family="Helvetica,sans-Serif" font-size="10.00">MotorData::reconfigure</text>
</a>
</g>
</g>
<!-- Node3&#45;&gt;Node5 -->
<g id="edge4_Node000003_Node000005" class="edge">
<title>Node3&#45;&gt;Node5</title>
<g id="a_edge4_Node000003_Node000005"><a xlink:title=" ">
<path fill="none" stroke="#63b8ff" d="M393.82,-22.35C404.44,-21.05 415.71,-19.66 426.71,-18.3"/>
<polygon fill="#63b8ff" stroke="#63b8ff" points="427.09,-21.66 436.59,-16.96 426.23,-14.71 427.09,-21.66"/>
</a>
</g>
</g>
</g>
</svg>
