<?xml version="1.0" encoding="UTF-8" standalone="no"?>
<!DOCTYPE svg PUBLIC "-//W3C//DTD SVG 1.1//EN"
 "http://www.w3.org/Graphics/SVG/1.1/DTD/svg11.dtd">
<!-- Generated by graphviz version 8.1.0 (20230707.0739)
 -->
<!-- Title: error_codes.h Pages: 1 -->
<svg width="356pt" height="140pt"
 viewBox="0.00 0.00 356.13 140.00" xmlns="http://www.w3.org/2000/svg" xmlns:xlink="http://www.w3.org/1999/xlink">

<svg id="main" version="1.1" xmlns="http://www.w3.org/2000/svg" xmlns:xlink="http://www.w3.org/1999/xlink" xml:space="preserve" onload="init(evt)">
<style type="text/css"><![CDATA[
.node, .edge {opacity: 0.7;}
.node.selected, .edge.selected {opacity: 1;}
.edge:hover path { stroke: red; }
.edge:hover polygon { stroke: red; fill: red; }
]]></style>
<script type="application/ecmascript" xlink:href="svg.min.js"/>
<svg id="graph" class="graph">
<g id="graph0" class="graph" transform="scale(1 1) rotate(0) translate(4 136)">
<title>error_codes.h</title>
<!-- Node1 -->
<g id="Node000001" class="node">
<title>Node1</title>
<g id="a_Node000001"><a xlink:title="Error codes for the exoskeleton. These are used to index the error map.">
<polygon fill="#999999" stroke="#666666" points="216.63,-132 141.38,-132 141.38,-112 216.63,-112 216.63,-132"/>
<text text-anchor="middle" x="179" y="-118.5" font-family="Helvetica,sans-Serif" font-size="10.00">error_codes.h</text>
</a>
</g>
</g>
<!-- Node2 -->
<g id="Node000002" class="node">
<title>Node2</title>
<g id="a_Node000002"><a xlink:href="_coms_m_c_u_8cpp.html" target="_top" xlink:title=" ">
<polygon fill="white" stroke="#666666" points="82,-76 0,-76 0,-56 82,-56 82,-76"/>
<text text-anchor="middle" x="41" y="-62.5" font-family="Helvetica,sans-Serif" font-size="10.00">ComsMCU.cpp</text>
</a>
</g>
</g>
<!-- Node1&#45;&gt;Node2 -->
<g id="edge1_Node000001_Node000002" class="edge">
<title>Node1&#45;&gt;Node2</title>
<g id="a_edge1_Node000001_Node000002"><a xlink:title=" ">
<path fill="none" stroke="#63b8ff" d="M144.91,-107.66C120.18,-97.98 87.31,-85.12 65.23,-76.48"/>
<polygon fill="#63b8ff" stroke="#63b8ff" points="143.37,-111.21 153.96,-111.59 145.93,-104.69 143.37,-111.21"/>
</a>
</g>
</g>
<!-- Node3 -->
<g id="Node000003" class="node">
<title>Node3</title>
<g id="a_Node000003"><a xlink:href="_error_reporter_8h.html" target="_top" xlink:title="Singleton class to report errors to the other microcontroller.">
<polygon fill="white" stroke="#666666" points="220,-76 138,-76 138,-56 220,-56 220,-76"/>
<text text-anchor="middle" x="179" y="-62.5" font-family="Helvetica,sans-Serif" font-size="10.00">ErrorReporter.h</text>
</a>
</g>
</g>
<!-- Node1&#45;&gt;Node3 -->
<g id="edge2_Node000001_Node000003" class="edge">
<title>Node1&#45;&gt;Node3</title>
<g id="a_edge2_Node000001_Node000003"><a xlink:title=" ">
<path fill="none" stroke="#63b8ff" d="M179,-100.71C179,-92.32 179,-83.01 179,-76.3"/>
<polygon fill="#63b8ff" stroke="#63b8ff" points="175.5,-100.59 179,-110.59 182.5,-100.59 175.5,-100.59"/>
</a>
</g>
</g>
<!-- Node4 -->
<g id="Node000004" class="node">
<title>Node4</title>
<g id="a_Node000004"><a xlink:href="_joint_8cpp.html" target="_top" xlink:title=" ">
<polygon fill="white" stroke="#666666" points="153.5,-20 98.5,-20 98.5,0 153.5,0 153.5,-20"/>
<text text-anchor="middle" x="126" y="-6.5" font-family="Helvetica,sans-Serif" font-size="10.00">Joint.cpp</text>
</a>
</g>
</g>
<!-- Node1&#45;&gt;Node4 -->
<g id="edge6_Node000001_Node000004" class="edge">
<title>Node1&#45;&gt;Node4</title>
<g id="a_edge6_Node000001_Node000004"><a xlink:title=" ">
<path fill="none" stroke="#63b8ff" d="M154.59,-105.48C144.83,-97.87 134.58,-87.8 129,-76 120.4,-57.82 122.31,-33.5 124.27,-20.36"/>
<polygon fill="#63b8ff" stroke="#63b8ff" points="152.12,-108.74 162.28,-111.75 156.22,-103.06 152.12,-108.74"/>
</a>
</g>
</g>
<!-- Node5 -->
<g id="Node000005" class="node">
<title>Node5</title>
<g id="a_Node000005"><a xlink:href="_motor_8cpp.html" target="_top" xlink:title=" ">
<polygon fill="white" stroke="#666666" points="261.75,-20 202.25,-20 202.25,0 261.75,0 261.75,-20"/>
<text text-anchor="middle" x="232" y="-6.5" font-family="Helvetica,sans-Serif" font-size="10.00">Motor.cpp</text>
</a>
</g>
</g>
<!-- Node1&#45;&gt;Node5 -->
<g id="edge7_Node000001_Node000005" class="edge">
<title>Node1&#45;&gt;Node5</title>
<g id="a_edge7_Node000001_Node000005"><a xlink:title=" ">
<path fill="none" stroke="#63b8ff" d="M203.41,-105.48C213.17,-97.87 223.42,-87.8 229,-76 237.6,-57.82 235.69,-33.5 233.73,-20.36"/>
<polygon fill="#63b8ff" stroke="#63b8ff" points="201.78,-103.06 195.72,-111.75 205.88,-108.74 201.78,-103.06"/>
</a>
</g>
</g>
<!-- Node6 -->
<g id="Node000006" class="node">
<title>Node6</title>
<g id="a_Node000006"><a xlink:href="_exo_data_8cpp.html" target="_top" xlink:title=" ">
<polygon fill="white" stroke="#666666" points="348.13,-76 275.88,-76 275.88,-56 348.13,-56 348.13,-76"/>
<text text-anchor="middle" x="312" y="-62.5" font-family="Helvetica,sans-Serif" font-size="10.00">ExoData.cpp</text>
</a>
</g>
</g>
<!-- Node1&#45;&gt;Node6 -->
<g id="edge5_Node000001_Node000006" class="edge">
<title>Node1&#45;&gt;Node6</title>
<g id="a_edge5_Node000001_Node000006"><a xlink:title=" ">
<path fill="none" stroke="#63b8ff" d="M212.17,-107.53C235.97,-97.87 267.46,-85.08 288.65,-76.48"/>
<polygon fill="#63b8ff" stroke="#63b8ff" points="211.12,-104.59 203.17,-111.59 213.75,-111.07 211.12,-104.59"/>
</a>
</g>
</g>
<!-- Node3&#45;&gt;Node4 -->
<g id="edge3_Node000003_Node000004" class="edge">
<title>Node3&#45;&gt;Node4</title>
<g id="a_edge3_Node000003_Node000004"><a xlink:title=" ">
<path fill="none" stroke="#63b8ff" d="M162.16,-47.85C153.21,-38.72 142.54,-27.86 135.13,-20.3"/>
<polygon fill="#63b8ff" stroke="#63b8ff" points="159.27,-49.91 168.77,-54.59 164.26,-45.01 159.27,-49.91"/>
</a>
</g>
</g>
<!-- Node3&#45;&gt;Node5 -->
<g id="edge4_Node000003_Node000005" class="edge">
<title>Node3&#45;&gt;Node5</title>
<g id="a_edge4_Node000003_Node000005"><a xlink:title=" ">
<path fill="none" stroke="#63b8ff" d="M195.84,-47.85C204.79,-38.72 215.46,-27.86 222.87,-20.3"/>
<polygon fill="#63b8ff" stroke="#63b8ff" points="193.74,-45.01 189.23,-54.59 198.73,-49.91 193.74,-45.01"/>
</a>
</g>
</g>
</g>
</svg>
</svg>

<style type='text/css'>
<![CDATA[
[data-mouse-over-selected='false'] { opacity: 0.7; }
[data-mouse-over-selected='true']  { opacity: 1.0; }
]]>
</style>
<script type="application/ecmascript"><![CDATA[
document.addEventListener('DOMContentLoaded', (event) => {
  highlightEdges();
  highlightAdjacentNodes();
});
]]></script>
</svg>
