<?xml version="1.0" encoding="UTF-8" standalone="no"?>
<!DOCTYPE svg PUBLIC "-//W3C//DTD SVG 1.1//EN"
 "http://www.w3.org/Graphics/SVG/1.1/DTD/svg11.dtd">
<!-- Generated by graphviz version 8.1.0 (20230707.0739)
 -->
<!-- Title: ble_queue::push Pages: 1 -->
<svg width="228pt" height="66pt"
 viewBox="0.00 0.00 228.25 66.00" xmlns="http://www.w3.org/2000/svg" xmlns:xlink="http://www.w3.org/1999/xlink">
<g id="graph0" class="graph" transform="scale(1 1) rotate(0) translate(4 62)">
<title>ble_queue::push</title>
<!-- Node1 -->
<g id="Node000001" class="node">
<title>Node1</title>
<g id="a_Node000001"><a xlink:title="Put a message on the FIFO queue.">
<polygon fill="#999999" stroke="#666666" points="87.25,-39 0,-39 0,-19 87.25,-19 87.25,-39"/>
<text text-anchor="middle" x="43.63" y="-25.5" font-family="Helvetica,sans-Serif" font-size="10.00">ble_queue::push</text>
</a>
</g>
</g>
<!-- Node2 -->
<g id="Node000002" class="node">
<title>Node2</title>
<g id="a_Node000002"><a xlink:href="class_ble_message.html#ad8c2f3828eb3583761168a9c1db7325e" target="_top" xlink:title="Sets its values equal to another BleMessage.">
<polygon fill="white" stroke="#666666" points="220.25,-58 123.25,-58 123.25,-38 220.25,-38 220.25,-58"/>
<text text-anchor="middle" x="171.75" y="-44.5" font-family="Helvetica,sans-Serif" font-size="10.00">BleMessage::copy</text>
</a>
</g>
</g>
<!-- Node1&#45;&gt;Node2 -->
<g id="edge1_Node000001_Node000002" class="edge">
<title>Node1&#45;&gt;Node2</title>
<g id="a_edge1_Node000001_Node000002"><a xlink:title=" ">
<path fill="none" stroke="#63b8ff" d="M87.68,-35.49C95.62,-36.68 104.03,-37.95 112.33,-39.2"/>
<polygon fill="#63b8ff" stroke="#63b8ff" points="111.73,-42.8 122.13,-40.83 112.77,-35.88 111.73,-42.8"/>
</a>
</g>
</g>
<!-- Node3 -->
<g id="Node000003" class="node">
<title>Node3</title>
<g id="a_Node000003"><a xlink:href="class_ble_message.html#a1c13874bae140ab2e98be4156abf8612" target="_top" xlink:title="Print the message values to the Serial monitor.">
<polygon fill="white" stroke="#666666" points="219.13,-20 124.38,-20 124.38,0 219.13,0 219.13,-20"/>
<text text-anchor="middle" x="171.75" y="-6.5" font-family="Helvetica,sans-Serif" font-size="10.00">BleMessage::print</text>
</a>
</g>
</g>
<!-- Node1&#45;&gt;Node3 -->
<g id="edge2_Node000001_Node000003" class="edge">
<title>Node1&#45;&gt;Node3</title>
<g id="a_edge2_Node000001_Node000003"><a xlink:title=" ">
<path fill="none" stroke="#63b8ff" d="M87.68,-22.51C95.91,-21.27 104.64,-19.96 113.24,-18.66"/>
<polygon fill="#63b8ff" stroke="#63b8ff" points="113.64,-21.99 123.01,-17.04 112.6,-15.07 113.64,-21.99"/>
</a>
</g>
</g>
</g>
</svg>
