<?xml version="1.0" encoding="UTF-8" standalone="no"?>
<!DOCTYPE svg PUBLIC "-//W3C//DTD SVG 1.1//EN"
 "http://www.w3.org/Graphics/SVG/1.1/DTD/svg11.dtd">
<!-- Generated by graphviz version 8.1.0 (20230707.0739)
 -->
<!-- Title: uart_commands.h Pages: 1 -->
<svg width="1490pt" height="476pt"
 viewBox="0.00 0.00 1489.50 476.00" xmlns="http://www.w3.org/2000/svg" xmlns:xlink="http://www.w3.org/1999/xlink">
<g id="graph0" class="graph" transform="scale(1 1) rotate(0) translate(4 472)">
<title>uart_commands.h</title>
<!-- Node1 -->
<g id="Node000001" class="node">
<title>Node1</title>
<g id="a_Node000001"><a xlink:title=" ">
<polygon fill="#999999" stroke="#666666" points="1043.5,-468 949.5,-468 949.5,-448 1043.5,-448 1043.5,-468"/>
<text text-anchor="middle" x="996.5" y="-454.5" font-family="Helvetica,sans-Serif" font-size="10.00">uart_commands.h</text>
</a>
</g>
</g>
<!-- Node2 -->
<g id="Node000002" class="node">
<title>Node2</title>
<g id="a_Node000002"><a xlink:title=" ">
<polygon fill="#e0e0e0" stroke="#999999" points="582.13,-20 524.88,-20 524.88,0 582.13,0 582.13,-20"/>
<text text-anchor="middle" x="553.5" y="-6.5" font-family="Helvetica,sans-Serif" font-size="10.00">Arduino.h</text>
</a>
</g>
</g>
<!-- Node1&#45;&gt;Node2 -->
<g id="edge1_Node000001_Node000002" class="edge">
<title>Node1&#45;&gt;Node2</title>
<g id="a_edge1_Node000001_Node000002"><a xlink:title=" ">
<path fill="none" stroke="#63b8ff" d="M1043.89,-456.25C1165.93,-453.05 1481.5,-436.15 1481.5,-347 1481.5,-347 1481.5,-347 1481.5,-121 1481.5,-69.84 1434.95,-72.43 1386.5,-56 1310.98,-30.39 748.88,-15.54 593.3,-11.89"/>
<polygon fill="#63b8ff" stroke="#63b8ff" points="593.48,-8.37 583.4,-11.64 593.32,-15.37 593.48,-8.37"/>
</a>
</g>
</g>
<!-- Node3 -->
<g id="Node000003" class="node">
<title>Node3</title>
<g id="a_Node000003"><a xlink:href="_u_a_r_t_handler_8h.html" target="_top" xlink:title="Singleton class that manages the UART data. NOT THREAD SAFE. The class queues recieved messages.">
<polygon fill="white" stroke="#666666" points="1314.88,-244 1232.13,-244 1232.13,-224 1314.88,-224 1314.88,-244"/>
<text text-anchor="middle" x="1273.5" y="-230.5" font-family="Helvetica,sans-Serif" font-size="10.00">UARTHandler.h</text>
</a>
</g>
</g>
<!-- Node1&#45;&gt;Node3 -->
<g id="edge2_Node000001_Node000003" class="edge">
<title>Node1&#45;&gt;Node3</title>
<g id="a_edge2_Node000001_Node000003"><a xlink:title=" ">
<path fill="none" stroke="#63b8ff" d="M1043.74,-449.11C1124.51,-434.53 1283.56,-400.74 1315.5,-356 1338.63,-323.6 1308.87,-277.35 1288.88,-252.46"/>
<polygon fill="#63b8ff" stroke="#63b8ff" points="1291.18,-250.74 1282.08,-245.32 1285.81,-255.23 1291.18,-250.74"/>
</a>
</g>
</g>
<!-- Node4 -->
<g id="Node000004" class="node">
<title>Node4</title>
<g id="a_Node000004"><a xlink:href="_u_a_r_t__msg__t_8h.html" target="_top" xlink:title=" ">
<polygon fill="white" stroke="#666666" points="396.5,-188 314.5,-188 314.5,-168 396.5,-168 396.5,-188"/>
<text text-anchor="middle" x="355.5" y="-174.5" font-family="Helvetica,sans-Serif" font-size="10.00">UART_msg_t.h</text>
</a>
</g>
</g>
<!-- Node1&#45;&gt;Node4 -->
<g id="edge13_Node000001_Node000004" class="edge">
<title>Node1&#45;&gt;Node4</title>
<g id="a_edge13_Node000001_Node000004"><a xlink:title=" ">
<path fill="none" stroke="#63b8ff" d="M949.23,-454.7C790.21,-446.34 284.5,-414.46 284.5,-347 284.5,-347 284.5,-347 284.5,-289 284.5,-250.84 315.03,-215.43 336.05,-195.57"/>
<polygon fill="#63b8ff" stroke="#63b8ff" points="338.03,-198.59 343.09,-189.28 333.33,-193.4 338.03,-198.59"/>
</a>
</g>
</g>
<!-- Node5 -->
<g id="Node000005" class="node">
<title>Node5</title>
<g id="a_Node000005"><a xlink:href="_logger_8h.html" target="_top" xlink:title=" ">
<polygon fill="white" stroke="#666666" points="87.25,-132 33.75,-132 33.75,-112 87.25,-112 87.25,-132"/>
<text text-anchor="middle" x="60.5" y="-118.5" font-family="Helvetica,sans-Serif" font-size="10.00">Logger.h</text>
</a>
</g>
</g>
<!-- Node1&#45;&gt;Node5 -->
<g id="edge69_Node000001_Node000005" class="edge">
<title>Node1&#45;&gt;Node5</title>
<g id="a_edge69_Node000001_Node000005"><a xlink:title=" ">
<path fill="none" stroke="#63b8ff" d="M949.29,-456.56C757.2,-454.18 44.5,-439.13 44.5,-347 44.5,-347 44.5,-347 44.5,-233 44.5,-201.25 51.11,-164.87 55.83,-142.93"/>
<polygon fill="#63b8ff" stroke="#63b8ff" points="59.43,-143.87 58.21,-133.35 52.6,-142.34 59.43,-143.87"/>
</a>
</g>
</g>
<!-- Node9 -->
<g id="Node000009" class="node">
<title>Node9</title>
<g id="a_Node000009"><a xlink:href="_parse_ini_8h.html" target="_top" xlink:title="Declares the functions needed and defines mapping between the INI keys and the exo components.">
<polygon fill="white" stroke="#666666" points="912.25,-132 852.75,-132 852.75,-112 912.25,-112 912.25,-132"/>
<text text-anchor="middle" x="882.5" y="-118.5" font-family="Helvetica,sans-Serif" font-size="10.00">ParseIni.h</text>
</a>
</g>
</g>
<!-- Node1&#45;&gt;Node9 -->
<g id="edge14_Node000001_Node000009" class="edge">
<title>Node1&#45;&gt;Node9</title>
<g id="a_edge14_Node000001_Node000009"><a xlink:title=" ">
<path fill="none" stroke="#63b8ff" d="M994.28,-447.53C985.49,-410.75 951.47,-274.22 906.5,-168 902.76,-159.16 897.88,-149.73 893.49,-141.8"/>
<polygon fill="#63b8ff" stroke="#63b8ff" points="896.14,-140.38 888.16,-133.41 890.06,-143.84 896.14,-140.38"/>
</a>
</g>
</g>
<!-- Node10 -->
<g id="Node000010" class="node">
<title>Node10</title>
<g id="a_Node000010"><a xlink:href="_exo_data_8h.html" target="_top" xlink:title="Declares a class used to store data for the Exo to access.">
<polygon fill="white" stroke="#666666" points="951.38,-356 889.63,-356 889.63,-336 951.38,-336 951.38,-356"/>
<text text-anchor="middle" x="920.5" y="-342.5" font-family="Helvetica,sans-Serif" font-size="10.00">ExoData.h</text>
</a>
</g>
</g>
<!-- Node1&#45;&gt;Node10 -->
<g id="edge16_Node000001_Node000010" class="edge">
<title>Node1&#45;&gt;Node10</title>
<g id="a_edge16_Node000001_Node000010"><a xlink:title=" ">
<path fill="none" stroke="#63b8ff" d="M990.02,-447.62C977.46,-429.44 949.58,-389.09 933.2,-365.38"/>
<polygon fill="#63b8ff" stroke="#63b8ff" points="935.53,-363.59 926.96,-357.35 929.77,-367.57 935.53,-363.59"/>
</a>
</g>
</g>
<!-- Node12 -->
<g id="Node000012" class="node">
<title>Node12</title>
<g id="a_Node000012"><a xlink:href="_joint_data_8h.html" target="_top" xlink:title="Declares a class used to store data for joint to access.">
<polygon fill="white" stroke="#666666" points="724.88,-244 660.13,-244 660.13,-224 724.88,-224 724.88,-244"/>
<text text-anchor="middle" x="692.5" y="-230.5" font-family="Helvetica,sans-Serif" font-size="10.00">JointData.h</text>
</a>
</g>
</g>
<!-- Node1&#45;&gt;Node12 -->
<g id="edge55_Node000001_Node000012" class="edge">
<title>Node1&#45;&gt;Node12</title>
<g id="a_edge55_Node000001_Node000012"><a xlink:title=" ">
<path fill="none" stroke="#63b8ff" d="M981.63,-447.64C944.54,-424.11 845.33,-360.1 767.5,-300 747.21,-284.33 725.17,-264.92 710.27,-251.41"/>
<polygon fill="#63b8ff" stroke="#63b8ff" points="713.13,-249.37 703.38,-245.21 708.41,-254.53 713.13,-249.37"/>
</a>
</g>
</g>
<!-- Node21 -->
<g id="Node000021" class="node">
<title>Node21</title>
<g id="a_Node000021"><a xlink:href="_params_from_s_d_8h.html" target="_top" xlink:title="Declares the functions to pull controller parameters from the SD card and defines the mapping to the ...">
<polygon fill="white" stroke="#666666" points="1143.5,-412 1049.5,-412 1049.5,-392 1143.5,-392 1143.5,-412"/>
<text text-anchor="middle" x="1096.5" y="-398.5" font-family="Helvetica,sans-Serif" font-size="10.00">ParamsFromSD.h</text>
</a>
</g>
</g>
<!-- Node1&#45;&gt;Node21 -->
<g id="edge56_Node000001_Node000021" class="edge">
<title>Node1&#45;&gt;Node21</title>
<g id="a_edge56_Node000001_Node000021"><a xlink:title=" ">
<path fill="none" stroke="#63b8ff" d="M1013.92,-447.59C1029.31,-439.28 1052,-427.03 1069.7,-417.47"/>
<polygon fill="#63b8ff" stroke="#63b8ff" points="1070.81,-420.31 1077.95,-412.48 1067.48,-414.15 1070.81,-420.31"/>
</a>
</g>
</g>
<!-- Node27 -->
<g id="Node000027" class="node">
<title>Node27</title>
<g id="a_Node000027"><a xlink:href="_real_time_i2_c_8h.html" target="_top" xlink:title=" ">
<polygon fill="white" stroke="#666666" points="1453,-300 1374,-300 1374,-280 1453,-280 1453,-300"/>
<text text-anchor="middle" x="1413.5" y="-286.5" font-family="Helvetica,sans-Serif" font-size="10.00">RealTimeI2C.h</text>
</a>
</g>
</g>
<!-- Node1&#45;&gt;Node27 -->
<g id="edge70_Node000001_Node000027" class="edge">
<title>Node1&#45;&gt;Node27</title>
<g id="a_edge70_Node000001_Node000027"><a xlink:title=" ">
<path fill="none" stroke="#63b8ff" d="M1043.68,-456.22C1127.94,-453.98 1300.02,-445.34 1348.5,-412 1383.74,-387.76 1401.51,-338.08 1408.99,-310.52"/>
<polygon fill="#63b8ff" stroke="#63b8ff" points="1412.54,-311.75 1411.58,-301.19 1405.75,-310.04 1412.54,-311.75"/>
</a>
</g>
</g>
<!-- Node3&#45;&gt;Node2 -->
<g id="edge11_Node000003_Node000002" class="edge">
<title>Node3&#45;&gt;Node2</title>
<g id="a_edge11_Node000003_Node000002"><a xlink:title=" ">
<path fill="none" stroke="#63b8ff" d="M1274.74,-223.76C1276.1,-210.77 1277.15,-186.61 1269.5,-168 1235.51,-85.35 1188.81,-79.19 1102.5,-56 1006.27,-30.15 702.96,-16.57 593.44,-12.41"/>
<polygon fill="#63b8ff" stroke="#63b8ff" points="593.68,-8.88 583.56,-12 593.42,-15.87 593.68,-8.88"/>
</a>
</g>
</g>
<!-- Node3&#45;&gt;Node4 -->
<g id="edge3_Node000003_Node000004" class="edge">
<title>Node3&#45;&gt;Node4</title>
<g id="a_edge3_Node000003_Node000004"><a xlink:title=" ">
<path fill="none" stroke="#63b8ff" d="M1231.84,-230.85C1114.03,-224.71 768.41,-206.4 481.5,-188 457.24,-186.44 430.36,-184.55 407.68,-182.9"/>
<polygon fill="#63b8ff" stroke="#63b8ff" points="408.15,-179.35 397.92,-182.11 407.63,-186.33 408.15,-179.35"/>
</a>
</g>
</g>
<!-- Node8 -->
<g id="Node000008" class="node">
<title>Node8</title>
<g id="a_Node000008"><a xlink:title=" ">
<polygon fill="#e0e0e0" stroke="#999999" points="868.63,-76 820.38,-76 820.38,-56 868.63,-56 868.63,-76"/>
<text text-anchor="middle" x="844.5" y="-62.5" font-family="Helvetica,sans-Serif" font-size="10.00">stdint.h</text>
</a>
</g>
</g>
<!-- Node3&#45;&gt;Node8 -->
<g id="edge12_Node000003_Node000008" class="edge">
<title>Node3&#45;&gt;Node8</title>
<g id="a_edge12_Node000003_Node000008"><a xlink:title=" ">
<path fill="none" stroke="#63b8ff" d="M1271.65,-223.54C1268.73,-210.29 1262.18,-185.82 1250.5,-168 1230.51,-137.49 1223.5,-127.54 1190.5,-112 1135.9,-86.29 956.66,-73.34 879.9,-68.86"/>
<polygon fill="#63b8ff" stroke="#63b8ff" points="880.1,-65.31 869.92,-68.24 879.7,-72.3 880.1,-65.31"/>
</a>
</g>
</g>
<!-- Node4&#45;&gt;Node2 -->
<g id="edge4_Node000004_Node000002" class="edge">
<title>Node4&#45;&gt;Node2</title>
<g id="a_edge4_Node000004_Node000002"><a xlink:title=" ">
<path fill="none" stroke="#63b8ff" d="M360.53,-167.5C372.76,-145.18 406.23,-88.82 448.5,-56 468.07,-40.81 493.53,-29.73 514.49,-22.37"/>
<polygon fill="#63b8ff" stroke="#63b8ff" points="515.3,-25.45 523.67,-18.95 513.08,-18.81 515.3,-25.45"/>
</a>
</g>
</g>
<!-- Node4&#45;&gt;Node5 -->
<g id="edge5_Node000004_Node000005" class="edge">
<title>Node4&#45;&gt;Node5</title>
<g id="a_edge5_Node000004_Node000005"><a xlink:title=" ">
<path fill="none" stroke="#63b8ff" d="M314.17,-169.43C256.76,-158.93 153.7,-140.06 98.25,-129.91"/>
<polygon fill="#63b8ff" stroke="#63b8ff" points="98.97,-126.3 88.5,-127.94 97.71,-133.19 98.97,-126.3"/>
</a>
</g>
</g>
<!-- Node5&#45;&gt;Node2 -->
<g id="edge6_Node000005_Node000002" class="edge">
<title>Node5&#45;&gt;Node2</title>
<g id="a_edge6_Node000005_Node000002"><a xlink:title=" ">
<path fill="none" stroke="#63b8ff" d="M68.04,-111.95C80.82,-97.32 108.32,-68.81 138.5,-56 205.59,-27.52 423.46,-16.02 513.75,-12.39"/>
<polygon fill="#63b8ff" stroke="#63b8ff" points="513.75,-15.85 523.61,-11.97 513.48,-8.86 513.75,-15.85"/>
</a>
</g>
</g>
<!-- Node6 -->
<g id="Node000006" class="node">
<title>Node6</title>
<g id="a_Node000006"><a xlink:href="_log_levels_8h.html" target="_top" xlink:title=" ">
<polygon fill="white" stroke="#666666" points="67,-20 0,-20 0,0 67,0 67,-20"/>
<text text-anchor="middle" x="33.5" y="-6.5" font-family="Helvetica,sans-Serif" font-size="10.00">LogLevels.h</text>
</a>
</g>
</g>
<!-- Node5&#45;&gt;Node6 -->
<g id="edge7_Node000005_Node000006" class="edge">
<title>Node5&#45;&gt;Node6</title>
<g id="a_edge7_Node000005_Node000006"><a xlink:title=" ">
<path fill="none" stroke="#63b8ff" d="M50.28,-111.8C41.81,-103.43 30.38,-90.23 25.5,-76 20.42,-61.19 23.12,-43.51 26.7,-30.33"/>
<polygon fill="#63b8ff" stroke="#63b8ff" points="30.25,-31.68 29.9,-21.09 23.57,-29.6 30.25,-31.68"/>
</a>
</g>
</g>
<!-- Node7 -->
<g id="Node000007" class="node">
<title>Node7</title>
<g id="a_Node000007"><a xlink:href="_config_8h.html" target="_top" xlink:title="Configuration variables for the codebase.">
<polygon fill="white" stroke="#666666" points="86.13,-76 34.88,-76 34.88,-56 86.13,-56 86.13,-76"/>
<text text-anchor="middle" x="60.5" y="-62.5" font-family="Helvetica,sans-Serif" font-size="10.00">Config.h</text>
</a>
</g>
</g>
<!-- Node5&#45;&gt;Node7 -->
<g id="edge8_Node000005_Node000007" class="edge">
<title>Node5&#45;&gt;Node7</title>
<g id="a_edge8_Node000005_Node000007"><a xlink:title=" ">
<path fill="none" stroke="#63b8ff" d="M60.5,-111.59C60.5,-104.86 60.5,-95.53 60.5,-87.15"/>
<polygon fill="#63b8ff" stroke="#63b8ff" points="64,-87.3 60.5,-77.3 57,-87.3 64,-87.3"/>
</a>
</g>
</g>
<!-- Node7&#45;&gt;Node2 -->
<g id="edge9_Node000007_Node000002" class="edge">
<title>Node7&#45;&gt;Node2</title>
<g id="a_edge9_Node000007_Node000002"><a xlink:title=" ">
<path fill="none" stroke="#63b8ff" d="M86.23,-58.72C90.96,-57.71 95.86,-56.75 100.5,-56 252.02,-31.52 434.34,-18.29 513.54,-13.32"/>
<polygon fill="#63b8ff" stroke="#63b8ff" points="513.69,-16.76 523.46,-12.65 513.26,-9.77 513.69,-16.76"/>
</a>
</g>
</g>
<!-- Node7&#45;&gt;Node6 -->
<g id="edge10_Node000007_Node000006" class="edge">
<title>Node7&#45;&gt;Node6</title>
<g id="a_edge10_Node000007_Node000006"><a xlink:title=" ">
<path fill="none" stroke="#63b8ff" d="M55.8,-55.59C52.27,-48.55 47.33,-38.67 43,-30"/>
<polygon fill="#63b8ff" stroke="#63b8ff" points="45.75,-28.68 38.15,-21.3 39.49,-31.81 45.75,-28.68"/>
</a>
</g>
</g>
<!-- Node9&#45;&gt;Node8 -->
<g id="edge15_Node000009_Node000008" class="edge">
<title>Node9&#45;&gt;Node8</title>
<g id="a_edge15_Node000009_Node000008"><a xlink:title=" ">
<path fill="none" stroke="#63b8ff" d="M875.88,-111.59C870.76,-104.32 863.51,-94.02 857.27,-85.15"/>
<polygon fill="#63b8ff" stroke="#63b8ff" points="859.66,-83.46 851.04,-77.3 853.94,-87.49 859.66,-83.46"/>
</a>
</g>
</g>
<!-- Node10&#45;&gt;Node2 -->
<g id="edge17_Node000010_Node000002" class="edge">
<title>Node10&#45;&gt;Node2</title>
<g id="a_edge17_Node000010_Node000002"><a xlink:title=" ">
<path fill="none" stroke="#63b8ff" d="M951.75,-343.64C1049.9,-338.52 1345.5,-316.36 1345.5,-235 1345.5,-235 1345.5,-235 1345.5,-121 1345.5,-44.15 752.93,-17.95 592.92,-12.27"/>
<polygon fill="#63b8ff" stroke="#63b8ff" points="593.27,-8.75 583.16,-11.9 593.03,-15.74 593.27,-8.75"/>
</a>
</g>
</g>
<!-- Node10&#45;&gt;Node8 -->
<g id="edge45_Node000010_Node000008" class="edge">
<title>Node10&#45;&gt;Node8</title>
<g id="a_edge45_Node000010_Node000008"><a xlink:title=" ">
<path fill="none" stroke="#63b8ff" d="M923.67,-335.69C934.37,-302.45 966.09,-187.61 921.5,-112 912.14,-96.14 894.86,-85.3 879.03,-78.24"/>
<polygon fill="#63b8ff" stroke="#63b8ff" points="880.52,-74.66 869.94,-74.14 877.89,-81.15 880.52,-74.66"/>
</a>
</g>
</g>
<!-- Node10&#45;&gt;Node9 -->
<g id="edge46_Node000010_Node000009" class="edge">
<title>Node10&#45;&gt;Node9</title>
<g id="a_edge46_Node000010_Node000009"><a xlink:title=" ">
<path fill="none" stroke="#63b8ff" d="M918.92,-335.74C913.24,-302.6 893.86,-189.35 885.93,-143.01"/>
<polygon fill="#63b8ff" stroke="#63b8ff" points="889.23,-142.56 884.09,-133.3 882.33,-143.74 889.23,-142.56"/>
</a>
</g>
</g>
<!-- Node11 -->
<g id="Node000011" class="node">
<title>Node11</title>
<g id="a_Node000011"><a xlink:href="_leg_data_8h.html" target="_top" xlink:title="Declares a class used to store data for leg to access.">
<polygon fill="white" stroke="#666666" points="836.63,-300 776.38,-300 776.38,-280 836.63,-280 836.63,-300"/>
<text text-anchor="middle" x="806.5" y="-286.5" font-family="Helvetica,sans-Serif" font-size="10.00">LegData.h</text>
</a>
</g>
</g>
<!-- Node10&#45;&gt;Node11 -->
<g id="edge18_Node000010_Node000011" class="edge">
<title>Node10&#45;&gt;Node11</title>
<g id="a_edge18_Node000010_Node000011"><a xlink:title=" ">
<path fill="none" stroke="#63b8ff" d="M900.64,-335.59C882.85,-327.17 856.51,-314.69 836.21,-305.07"/>
<polygon fill="#63b8ff" stroke="#63b8ff" points="838.05,-301.6 827.51,-300.48 835.05,-307.92 838.05,-301.6"/>
</a>
</g>
</g>
<!-- Node14 -->
<g id="Node000014" class="node">
<title>Node14</title>
<g id="a_Node000014"><a xlink:href="_board_8h.html" target="_top" xlink:title="Defines the pins and peripherals for the board being used.">
<polygon fill="white" stroke="#666666" points="311.38,-132 261.63,-132 261.63,-112 311.38,-112 311.38,-132"/>
<text text-anchor="middle" x="286.5" y="-118.5" font-family="Helvetica,sans-Serif" font-size="10.00">Board.h</text>
</a>
</g>
</g>
<!-- Node10&#45;&gt;Node14 -->
<g id="edge47_Node000010_Node000014" class="edge">
<title>Node10&#45;&gt;Node14</title>
<g id="a_edge47_Node000010_Node000014"><a xlink:title=" ">
<path fill="none" stroke="#63b8ff" d="M889.44,-344.21C760.39,-340.75 270.33,-326.02 206.5,-300 145.58,-275.17 100.38,-220.89 139.5,-168 164.85,-133.73 215.79,-124.7 250.52,-122.76"/>
<polygon fill="#63b8ff" stroke="#63b8ff" points="250.31,-126.24 260.17,-122.36 250.04,-119.24 250.31,-126.24"/>
</a>
</g>
</g>
<!-- Node19 -->
<g id="Node000019" class="node">
<title>Node19</title>
<g id="a_Node000019"><a xlink:href="_status_led_8h.html" target="_top" xlink:title="Class to set an RGB LED to different colors based on the state of the system.">
<polygon fill="white" stroke="#666666" points="218.75,-244 150.25,-244 150.25,-224 218.75,-224 218.75,-244"/>
<text text-anchor="middle" x="184.5" y="-230.5" font-family="Helvetica,sans-Serif" font-size="10.00">StatusLed.h</text>
</a>
</g>
</g>
<!-- Node10&#45;&gt;Node19 -->
<g id="edge48_Node000010_Node000019" class="edge">
<title>Node10&#45;&gt;Node19</title>
<g id="a_edge48_Node000010_Node000019"><a xlink:title=" ">
<path fill="none" stroke="#63b8ff" d="M889.55,-344.5C763.24,-342.25 290.67,-331.78 232.5,-300 213.9,-289.84 200.53,-269.02 192.7,-253.67"/>
<polygon fill="#63b8ff" stroke="#63b8ff" points="195.62,-252.65 188.17,-245.12 189.29,-255.65 195.62,-252.65"/>
</a>
</g>
</g>
<!-- Node20 -->
<g id="Node000020" class="node">
<title>Node20</title>
<g id="a_Node000020"><a xlink:href="_status_defs_8h.html" target="_top" xlink:title="Stores the different status messages for the system.">
<polygon fill="white" stroke="#666666" points="220.63,-188 148.38,-188 148.38,-168 220.63,-168 220.63,-188"/>
<text text-anchor="middle" x="184.5" y="-174.5" font-family="Helvetica,sans-Serif" font-size="10.00">StatusDefs.h</text>
</a>
</g>
</g>
<!-- Node10&#45;&gt;Node20 -->
<g id="edge54_Node000010_Node000020" class="edge">
<title>Node10&#45;&gt;Node20</title>
<g id="a_edge54_Node000010_Node000020"><a xlink:title=" ">
<path fill="none" stroke="#63b8ff" d="M889.31,-340.74C805.72,-328.99 570.06,-293.68 378.5,-244 321.77,-229.29 257.58,-206.54 219.12,-192.23"/>
<polygon fill="#63b8ff" stroke="#63b8ff" points="220.57,-188.66 209.97,-188.43 218.11,-195.21 220.57,-188.66"/>
</a>
</g>
</g>
<!-- Node11&#45;&gt;Node2 -->
<g id="edge19_Node000011_Node000002" class="edge">
<title>Node11&#45;&gt;Node2</title>
<g id="a_edge19_Node000011_Node000002"><a xlink:title=" ">
<path fill="none" stroke="#63b8ff" d="M798.08,-279.75C761.69,-239.76 617.55,-81.38 569.32,-28.38"/>
<polygon fill="#63b8ff" stroke="#63b8ff" points="572.27,-26.32 562.95,-21.28 567.09,-31.04 572.27,-26.32"/>
</a>
</g>
</g>
<!-- Node11&#45;&gt;Node8 -->
<g id="edge44_Node000011_Node000008" class="edge">
<title>Node11&#45;&gt;Node8</title>
<g id="a_edge44_Node000011_Node000008"><a xlink:title=" ">
<path fill="none" stroke="#63b8ff" d="M808.08,-279.74C813.76,-246.6 833.14,-133.35 841.07,-87.01"/>
<polygon fill="#63b8ff" stroke="#63b8ff" points="844.67,-87.74 842.91,-77.3 837.77,-86.56 844.67,-87.74"/>
</a>
</g>
</g>
<!-- Node11&#45;&gt;Node9 -->
<g id="edge38_Node000011_Node000009" class="edge">
<title>Node11&#45;&gt;Node9</title>
<g id="a_edge38_Node000011_Node000009"><a xlink:title=" ">
<path fill="none" stroke="#63b8ff" d="M810.8,-279.6C822.93,-253.12 857.53,-177.54 873.82,-141.96"/>
<polygon fill="#63b8ff" stroke="#63b8ff" points="877.26,-143.85 878.24,-133.3 870.9,-140.93 877.26,-143.85"/>
</a>
</g>
</g>
<!-- Node11&#45;&gt;Node12 -->
<g id="edge20_Node000011_Node000012" class="edge">
<title>Node11&#45;&gt;Node12</title>
<g id="a_edge20_Node000011_Node000012"><a xlink:title=" ">
<path fill="none" stroke="#63b8ff" d="M786.64,-279.59C768.85,-271.17 742.51,-258.69 722.21,-249.07"/>
<polygon fill="#63b8ff" stroke="#63b8ff" points="724.05,-245.6 713.51,-244.48 721.05,-251.92 724.05,-245.6"/>
</a>
</g>
</g>
<!-- Node11&#45;&gt;Node14 -->
<g id="edge39_Node000011_Node000014" class="edge">
<title>Node11&#45;&gt;Node14</title>
<g id="a_edge39_Node000011_Node000014"><a xlink:title=" ">
<path fill="none" stroke="#63b8ff" d="M776.12,-286.92C678.54,-279.64 375.44,-252.2 305.5,-188 293.05,-176.57 288.59,-157.48 287.07,-142.94"/>
<polygon fill="#63b8ff" stroke="#63b8ff" points="290.51,-142.82 286.38,-133.06 283.52,-143.26 290.51,-142.82"/>
</a>
</g>
</g>
<!-- Node17 -->
<g id="Node000017" class="node">
<title>Node17</title>
<g id="a_Node000017"><a xlink:href="_inclination_detector_8h.html" target="_top" xlink:title=" ">
<polygon fill="white" stroke="#666666" points="1241.75,-188 1137.25,-188 1137.25,-168 1241.75,-168 1241.75,-188"/>
<text text-anchor="middle" x="1189.5" y="-174.5" font-family="Helvetica,sans-Serif" font-size="10.00">InclinationDetector.h</text>
</a>
</g>
</g>
<!-- Node11&#45;&gt;Node17 -->
<g id="edge40_Node000011_Node000017" class="edge">
<title>Node11&#45;&gt;Node17</title>
<g id="a_edge40_Node000011_Node000017"><a xlink:title=" ">
<path fill="none" stroke="#63b8ff" d="M836.87,-280.28C904.55,-260.84 1067.92,-213.92 1146.23,-191.43"/>
<polygon fill="#63b8ff" stroke="#63b8ff" points="1147.05,-194.55 1155.7,-188.42 1145.12,-187.82 1147.05,-194.55"/>
</a>
</g>
</g>
<!-- Node12&#45;&gt;Node2 -->
<g id="edge21_Node000012_Node000002" class="edge">
<title>Node12&#45;&gt;Node2</title>
<g id="a_edge21_Node000012_Node000002"><a xlink:title=" ">
<path fill="none" stroke="#63b8ff" d="M660.01,-230.92C606.51,-226.75 503.59,-215.3 481.5,-188 440.91,-137.84 503.57,-61.72 536.01,-28.04"/>
<polygon fill="#63b8ff" stroke="#63b8ff" points="537.99,-31.01 542.53,-21.44 533.01,-26.09 537.99,-31.01"/>
</a>
</g>
</g>
<!-- Node12&#45;&gt;Node8 -->
<g id="edge36_Node000012_Node000008" class="edge">
<title>Node12&#45;&gt;Node8</title>
<g id="a_edge36_Node000012_Node000008"><a xlink:title=" ">
<path fill="none" stroke="#63b8ff" d="M699.29,-223.76C714.8,-202.9 754.4,-150.98 792.5,-112 802.34,-101.93 814.15,-91.59 824.02,-83.37"/>
<polygon fill="#63b8ff" stroke="#63b8ff" points="825.92,-85.52 831.43,-76.48 821.48,-80.11 825.92,-85.52"/>
</a>
</g>
</g>
<!-- Node12&#45;&gt;Node9 -->
<g id="edge34_Node000012_Node000009" class="edge">
<title>Node12&#45;&gt;Node9</title>
<g id="a_edge34_Node000012_Node000009"><a xlink:title=" ">
<path fill="none" stroke="#63b8ff" d="M708.7,-223.62C741.79,-204.46 817.37,-160.71 857.07,-137.72"/>
<polygon fill="#63b8ff" stroke="#63b8ff" points="858.44,-140.39 865.34,-132.35 854.93,-134.34 858.44,-140.39"/>
</a>
</g>
</g>
<!-- Node13 -->
<g id="Node000013" class="node">
<title>Node13</title>
<g id="a_Node000013"><a xlink:href="_motor_data_8h.html" target="_top" xlink:title="Declares a class used to store data for motors to access.">
<polygon fill="white" stroke="#666666" points="560.13,-188 490.88,-188 490.88,-168 560.13,-168 560.13,-188"/>
<text text-anchor="middle" x="525.5" y="-174.5" font-family="Helvetica,sans-Serif" font-size="10.00">MotorData.h</text>
</a>
</g>
</g>
<!-- Node12&#45;&gt;Node13 -->
<g id="edge22_Node000012_Node000013" class="edge">
<title>Node12&#45;&gt;Node13</title>
<g id="a_edge22_Node000012_Node000013"><a xlink:title=" ">
<path fill="none" stroke="#63b8ff" d="M663.41,-223.59C636.16,-214.78 595.21,-201.54 565.01,-191.78"/>
<polygon fill="#63b8ff" stroke="#63b8ff" points="566.41,-188.23 555.82,-188.48 564.25,-194.89 566.41,-188.23"/>
</a>
</g>
</g>
<!-- Node12&#45;&gt;Node14 -->
<g id="edge35_Node000012_Node000014" class="edge">
<title>Node12&#45;&gt;Node14</title>
<g id="a_edge35_Node000012_Node000014"><a xlink:title=" ">
<path fill="none" stroke="#63b8ff" d="M659.89,-229.64C612.48,-224.17 522.16,-211.5 448.5,-188 428.42,-181.59 424.93,-176.18 405.5,-168 377.78,-156.33 345.89,-144.35 322.1,-135.68"/>
<polygon fill="#63b8ff" stroke="#63b8ff" points="323.38,-132.06 312.79,-131.95 321,-138.64 323.38,-132.06"/>
</a>
</g>
</g>
<!-- Node15 -->
<g id="Node000015" class="node">
<title>Node15</title>
<g id="a_Node000015"><a xlink:href="_controller_data_8h.html" target="_top" xlink:title="Declares a class used to store data for controllers to access.">
<polygon fill="white" stroke="#666666" points="664.38,-188 578.63,-188 578.63,-168 664.38,-168 664.38,-188"/>
<text text-anchor="middle" x="621.5" y="-174.5" font-family="Helvetica,sans-Serif" font-size="10.00">ControllerData.h</text>
</a>
</g>
</g>
<!-- Node12&#45;&gt;Node15 -->
<g id="edge29_Node000012_Node000015" class="edge">
<title>Node12&#45;&gt;Node15</title>
<g id="a_edge29_Node000012_Node000015"><a xlink:title=" ">
<path fill="none" stroke="#63b8ff" d="M680.13,-223.59C669.75,-215.7 654.69,-204.24 642.43,-194.92"/>
<polygon fill="#63b8ff" stroke="#63b8ff" points="644.8,-191.57 634.73,-188.3 640.57,-197.14 644.8,-191.57"/>
</a>
</g>
</g>
<!-- Node16 -->
<g id="Node000016" class="node">
<title>Node16</title>
<g id="a_Node000016"><a xlink:title=" ">
<polygon fill="#e0e0e0" stroke="#999999" points="1085.63,-132 1043.38,-132 1043.38,-112 1085.63,-112 1085.63,-132"/>
<text text-anchor="middle" x="1064.5" y="-118.5" font-family="Helvetica,sans-Serif" font-size="10.00">queue</text>
</a>
</g>
</g>
<!-- Node12&#45;&gt;Node16 -->
<g id="edge37_Node000012_Node000016" class="edge">
<title>Node12&#45;&gt;Node16</title>
<g id="a_edge37_Node000012_Node000016"><a xlink:title=" ">
<path fill="none" stroke="#63b8ff" d="M724.54,-223.53C794.97,-202.7 962.56,-153.14 1032.73,-132.39"/>
<polygon fill="#63b8ff" stroke="#63b8ff" points="1033.53,-135.51 1042.13,-129.32 1031.55,-128.8 1033.53,-135.51"/>
</a>
</g>
</g>
<!-- Node13&#45;&gt;Node2 -->
<g id="edge23_Node000013_Node000002" class="edge">
<title>Node13&#45;&gt;Node2</title>
<g id="a_edge23_Node000013_Node000002"><a xlink:title=" ">
<path fill="none" stroke="#63b8ff" d="M527.09,-167.6C531.51,-141.35 544.08,-66.84 550.15,-30.89"/>
<polygon fill="#63b8ff" stroke="#63b8ff" points="553.72,-31.74 551.93,-21.3 546.82,-30.58 553.72,-31.74"/>
</a>
</g>
</g>
<!-- Node13&#45;&gt;Node8 -->
<g id="edge28_Node000013_Node000008" class="edge">
<title>Node13&#45;&gt;Node8</title>
<g id="a_edge28_Node000013_Node000008"><a xlink:title=" ">
<path fill="none" stroke="#63b8ff" d="M547.13,-167.58C578.1,-154.28 637.06,-129.63 688.5,-112 729.53,-97.94 777.59,-84.53 809.41,-76.06"/>
<polygon fill="#63b8ff" stroke="#63b8ff" points="810.17,-79.21 818.95,-73.28 808.39,-72.45 810.17,-79.21"/>
</a>
</g>
</g>
<!-- Node13&#45;&gt;Node9 -->
<g id="edge24_Node000013_Node000009" class="edge">
<title>Node13&#45;&gt;Node9</title>
<g id="a_edge24_Node000013_Node000009"><a xlink:title=" ">
<path fill="none" stroke="#63b8ff" d="M560.53,-169.64C563.56,-169.06 566.58,-168.51 569.5,-168 666.8,-151.07 781.93,-135.71 841.77,-128.08"/>
<polygon fill="#63b8ff" stroke="#63b8ff" points="842.15,-131.43 851.63,-126.7 841.27,-124.48 842.15,-131.43"/>
</a>
</g>
</g>
<!-- Node13&#45;&gt;Node14 -->
<g id="edge25_Node000013_Node000014" class="edge">
<title>Node13&#45;&gt;Node14</title>
<g id="a_edge25_Node000013_Node000014"><a xlink:title=" ">
<path fill="none" stroke="#63b8ff" d="M490.49,-169.09C445.45,-158.91 367.63,-141.33 322.24,-131.08"/>
<polygon fill="#63b8ff" stroke="#63b8ff" points="323.24,-127.49 312.71,-128.7 321.7,-134.31 323.24,-127.49"/>
</a>
</g>
</g>
<!-- Node14&#45;&gt;Node2 -->
<g id="edge27_Node000014_Node000002" class="edge">
<title>Node14&#45;&gt;Node2</title>
<g id="a_edge27_Node000014_Node000002"><a xlink:title=" ">
<path fill="none" stroke="#63b8ff" d="M297.97,-111.68C315.72,-97.7 351.35,-71.3 385.5,-56 427.52,-37.17 479.09,-24.8 513.93,-17.88"/>
<polygon fill="#63b8ff" stroke="#63b8ff" points="514.45,-21.15 523.61,-15.83 513.13,-14.28 514.45,-21.15"/>
</a>
</g>
</g>
<!-- Node14&#45;&gt;Node7 -->
<g id="edge26_Node000014_Node000007" class="edge">
<title>Node14&#45;&gt;Node7</title>
<g id="a_edge26_Node000014_Node000007"><a xlink:title=" ">
<path fill="none" stroke="#63b8ff" d="M261.45,-115.01C221.45,-105.46 142.95,-86.7 96.8,-75.67"/>
<polygon fill="#63b8ff" stroke="#63b8ff" points="97.9,-72.1 87.36,-73.18 96.27,-78.91 97.9,-72.1"/>
</a>
</g>
</g>
<!-- Node15&#45;&gt;Node2 -->
<g id="edge31_Node000015_Node000002" class="edge">
<title>Node15&#45;&gt;Node2</title>
<g id="a_edge31_Node000015_Node000002"><a xlink:title=" ">
<path fill="none" stroke="#63b8ff" d="M617.65,-167.6C606.85,-141.23 576.11,-66.19 561.45,-30.42"/>
<polygon fill="#63b8ff" stroke="#63b8ff" points="564.34,-29.22 557.31,-21.3 557.86,-31.88 564.34,-29.22"/>
</a>
</g>
</g>
<!-- Node15&#45;&gt;Node8 -->
<g id="edge30_Node000015_Node000008" class="edge">
<title>Node15&#45;&gt;Node8</title>
<g id="a_edge30_Node000015_Node000008"><a xlink:title=" ">
<path fill="none" stroke="#63b8ff" d="M635.25,-167.56C655.19,-154.13 693.6,-129.2 728.5,-112 755.05,-98.91 786.41,-86.95 809.82,-78.65"/>
<polygon fill="#63b8ff" stroke="#63b8ff" points="810.69,-81.7 818.98,-75.1 808.38,-75.09 810.69,-81.7"/>
</a>
</g>
</g>
<!-- Node15&#45;&gt;Node9 -->
<g id="edge33_Node000015_Node000009" class="edge">
<title>Node15&#45;&gt;Node9</title>
<g id="a_edge33_Node000015_Node000009"><a xlink:title=" ">
<path fill="none" stroke="#63b8ff" d="M664.6,-168.08C713.76,-157.91 793.55,-141.4 841.72,-131.44"/>
<polygon fill="#63b8ff" stroke="#63b8ff" points="842.29,-134.69 851.38,-129.23 840.88,-127.83 842.29,-134.69"/>
</a>
</g>
</g>
<!-- Node15&#45;&gt;Node14 -->
<g id="edge32_Node000015_Node000014" class="edge">
<title>Node15&#45;&gt;Node14</title>
<g id="a_edge32_Node000015_Node000014"><a xlink:title=" ">
<path fill="none" stroke="#63b8ff" d="M578.38,-169.49C575.37,-168.98 572.39,-168.48 569.5,-168 480.61,-153.24 375.85,-136.84 322.16,-128.51"/>
<polygon fill="#63b8ff" stroke="#63b8ff" points="322.92,-124.93 312.5,-126.86 321.85,-131.85 322.92,-124.93"/>
</a>
</g>
</g>
<!-- Node17&#45;&gt;Node2 -->
<g id="edge41_Node000017_Node000002" class="edge">
<title>Node17&#45;&gt;Node2</title>
<g id="a_edge41_Node000017_Node000002"><a xlink:title=" ">
<path fill="none" stroke="#63b8ff" d="M1192.84,-167.58C1197.02,-153.95 1202.32,-128.52 1190.5,-112 1145.69,-49.35 1101.8,-72.2 1026.5,-56 868.42,-21.98 675.09,-13.68 593.18,-11.65"/>
<polygon fill="#63b8ff" stroke="#63b8ff" points="593.46,-8.13 583.38,-11.41 593.3,-15.13 593.46,-8.13"/>
</a>
</g>
</g>
<!-- Node17&#45;&gt;Node16 -->
<g id="edge42_Node000017_Node000016" class="edge">
<title>Node17&#45;&gt;Node16</title>
<g id="a_edge42_Node000017_Node000016"><a xlink:title=" ">
<path fill="none" stroke="#63b8ff" d="M1167.73,-167.59C1147.92,-159.04 1118.45,-146.31 1096.06,-136.63"/>
<polygon fill="#63b8ff" stroke="#63b8ff" points="1097.59,-133.05 1087.02,-132.3 1094.82,-139.48 1097.59,-133.05"/>
</a>
</g>
</g>
<!-- Node18 -->
<g id="Node000018" class="node">
<title>Node18</title>
<g id="a_Node000018"><a xlink:title=" ">
<polygon fill="#e0e0e0" stroke="#999999" points="1181.13,-132 1141.88,-132 1141.88,-112 1181.13,-112 1181.13,-132"/>
<text text-anchor="middle" x="1161.5" y="-118.5" font-family="Helvetica,sans-Serif" font-size="10.00">utility</text>
</a>
</g>
</g>
<!-- Node17&#45;&gt;Node18 -->
<g id="edge43_Node000017_Node000018" class="edge">
<title>Node17&#45;&gt;Node18</title>
<g id="a_edge43_Node000017_Node000018"><a xlink:title=" ">
<path fill="none" stroke="#63b8ff" d="M1184.62,-167.59C1180.97,-160.55 1175.85,-150.67 1171.35,-142"/>
<polygon fill="#63b8ff" stroke="#63b8ff" points="1174.03,-140.56 1166.32,-133.3 1167.82,-143.79 1174.03,-140.56"/>
</a>
</g>
</g>
<!-- Node19&#45;&gt;Node2 -->
<g id="edge49_Node000019_Node000002" class="edge">
<title>Node19&#45;&gt;Node2</title>
<g id="a_edge49_Node000019_Node000002"><a xlink:title=" ">
<path fill="none" stroke="#63b8ff" d="M169.91,-223.57C152.92,-211.33 128.5,-189.04 139.5,-168 179.87,-90.74 219.94,-89.29 300.5,-56 371.99,-26.45 462.7,-16.29 513.8,-12.8"/>
<polygon fill="#63b8ff" stroke="#63b8ff" points="513.92,-16.24 523.69,-12.12 513.49,-9.25 513.92,-16.24"/>
</a>
</g>
</g>
<!-- Node19&#45;&gt;Node14 -->
<g id="edge50_Node000019_Node000014" class="edge">
<title>Node19&#45;&gt;Node14</title>
<g id="a_edge50_Node000019_Node000014"><a xlink:title=" ">
<path fill="none" stroke="#63b8ff" d="M194.34,-223.52C203.59,-214.54 217.72,-200.58 229.5,-188 244.17,-172.33 260.24,-153.89 271.56,-140.66"/>
<polygon fill="#63b8ff" stroke="#63b8ff" points="274.75,-143.31 278.57,-133.43 269.42,-138.77 274.75,-143.31"/>
</a>
</g>
</g>
<!-- Node19&#45;&gt;Node20 -->
<g id="edge51_Node000019_Node000020" class="edge">
<title>Node19&#45;&gt;Node20</title>
<g id="a_edge51_Node000019_Node000020"><a xlink:title=" ">
<path fill="none" stroke="#63b8ff" d="M184.5,-223.59C184.5,-216.86 184.5,-207.53 184.5,-199.15"/>
<polygon fill="#63b8ff" stroke="#63b8ff" points="188,-199.3 184.5,-189.3 181,-199.3 188,-199.3"/>
</a>
</g>
</g>
<!-- Node20&#45;&gt;Node2 -->
<g id="edge52_Node000020_Node000002" class="edge">
<title>Node20&#45;&gt;Node2</title>
<g id="a_edge52_Node000020_Node000002"><a xlink:title=" ">
<path fill="none" stroke="#63b8ff" d="M192.72,-167.91C204.96,-154.67 229.06,-129.74 252.5,-112 291.58,-82.43 301.87,-73.9 347.5,-56 403.18,-34.15 471.71,-21.86 514,-15.83"/>
<polygon fill="#63b8ff" stroke="#63b8ff" points="514.25,-19.19 523.68,-14.36 513.29,-12.26 514.25,-19.19"/>
</a>
</g>
</g>
<!-- Node20&#45;&gt;Node14 -->
<g id="edge53_Node000020_Node000014" class="edge">
<title>Node20&#45;&gt;Node14</title>
<g id="a_edge53_Node000020_Node000014"><a xlink:title=" ">
<path fill="none" stroke="#63b8ff" d="M202.27,-167.59C217.89,-159.32 240.89,-147.14 258.91,-137.6"/>
<polygon fill="#63b8ff" stroke="#63b8ff" points="260.39,-140.25 267.59,-132.48 257.12,-134.07 260.39,-140.25"/>
</a>
</g>
</g>
<!-- Node21&#45;&gt;Node9 -->
<g id="edge58_Node000021_Node000009" class="edge">
<title>Node21&#45;&gt;Node9</title>
<g id="a_edge58_Node000021_Node000009"><a xlink:title=" ">
<path fill="none" stroke="#63b8ff" d="M1086.81,-391.7C1069.38,-373.92 1034.5,-333.09 1034.5,-291 1034.5,-291 1034.5,-291 1034.5,-233 1034.5,-177.81 967.93,-147.49 922.9,-133.3"/>
<polygon fill="#63b8ff" stroke="#63b8ff" points="924.11,-129.71 913.53,-130.19 922.1,-136.41 924.11,-129.71"/>
</a>
</g>
</g>
<!-- Node21&#45;&gt;Node10 -->
<g id="edge57_Node000021_Node000010" class="edge">
<title>Node21&#45;&gt;Node10</title>
<g id="a_edge57_Node000021_Node000010"><a xlink:title=" ">
<path fill="none" stroke="#63b8ff" d="M1065.84,-391.59C1037,-382.74 993.59,-369.43 961.72,-359.65"/>
<polygon fill="#63b8ff" stroke="#63b8ff" points="962.98,-356.07 952.4,-356.48 960.93,-362.76 962.98,-356.07"/>
</a>
</g>
</g>
<!-- Node22 -->
<g id="Node000022" class="node">
<title>Node22</title>
<g id="a_Node000022"><a xlink:href="_utilities_8h.html" target="_top" xlink:title=" ">
<polygon fill="white" stroke="#666666" points="1118.75,-188 1062.25,-188 1062.25,-168 1118.75,-168 1118.75,-188"/>
<text text-anchor="middle" x="1090.5" y="-174.5" font-family="Helvetica,sans-Serif" font-size="10.00">Utilities.h</text>
</a>
</g>
</g>
<!-- Node21&#45;&gt;Node22 -->
<g id="edge59_Node000021_Node000022" class="edge">
<title>Node21&#45;&gt;Node22</title>
<g id="a_edge59_Node000021_Node000022"><a xlink:title=" ">
<path fill="none" stroke="#63b8ff" d="M1095.18,-391.72C1093.96,-382.63 1092.22,-368.4 1091.5,-356 1088.19,-299.15 1089.15,-231.85 1089.93,-199.02"/>
<polygon fill="#63b8ff" stroke="#63b8ff" points="1093.45,-199.31 1090.21,-189.22 1086.45,-199.13 1093.45,-199.31"/>
</a>
</g>
</g>
<!-- Node23 -->
<g id="Node000023" class="node">
<title>Node23</title>
<g id="a_Node000023"><a xlink:title=" ">
<polygon fill="#e0e0e0" stroke="#999999" points="1138.38,-356 1100.63,-356 1100.63,-336 1138.38,-336 1138.38,-356"/>
<text text-anchor="middle" x="1119.5" y="-342.5" font-family="Helvetica,sans-Serif" font-size="10.00">SD.h</text>
</a>
</g>
</g>
<!-- Node21&#45;&gt;Node23 -->
<g id="edge65_Node000021_Node000023" class="edge">
<title>Node21&#45;&gt;Node23</title>
<g id="a_edge65_Node000021_Node000023"><a xlink:title=" ">
<path fill="none" stroke="#63b8ff" d="M1100.51,-391.59C1103.47,-384.63 1107.62,-374.89 1111.29,-366.29"/>
<polygon fill="#63b8ff" stroke="#63b8ff" points="1114.84,-367.87 1115.54,-357.3 1108.4,-365.13 1114.84,-367.87"/>
</a>
</g>
</g>
<!-- Node24 -->
<g id="Node000024" class="node">
<title>Node24</title>
<g id="a_Node000024"><a xlink:title=" ">
<polygon fill="#e0e0e0" stroke="#999999" points="1196.5,-356 1156.5,-356 1156.5,-336 1196.5,-336 1196.5,-356"/>
<text text-anchor="middle" x="1176.5" y="-342.5" font-family="Helvetica,sans-Serif" font-size="10.00">SPI.h</text>
</a>
</g>
</g>
<!-- Node21&#45;&gt;Node24 -->
<g id="edge66_Node000021_Node000024" class="edge">
<title>Node21&#45;&gt;Node24</title>
<g id="a_edge66_Node000021_Node000024"><a xlink:title=" ">
<path fill="none" stroke="#63b8ff" d="M1110.43,-391.59C1122.29,-383.59 1139.56,-371.93 1153.47,-362.54"/>
<polygon fill="#63b8ff" stroke="#63b8ff" points="1155.13,-364.98 1161.46,-356.48 1151.21,-359.17 1155.13,-364.98"/>
</a>
</g>
</g>
<!-- Node25 -->
<g id="Node000025" class="node">
<title>Node25</title>
<g id="a_Node000025"><a xlink:title=" ">
<polygon fill="#e0e0e0" stroke="#999999" points="1248.88,-356 1214.13,-356 1214.13,-336 1248.88,-336 1248.88,-356"/>
<text text-anchor="middle" x="1231.5" y="-342.5" font-family="Helvetica,sans-Serif" font-size="10.00">map</text>
</a>
</g>
</g>
<!-- Node21&#45;&gt;Node25 -->
<g id="edge67_Node000021_Node000025" class="edge">
<title>Node21&#45;&gt;Node25</title>
<g id="a_edge67_Node000021_Node000025"><a xlink:title=" ">
<path fill="none" stroke="#63b8ff" d="M1120.02,-391.59C1143.31,-382.28 1178.99,-368.01 1203.68,-358.13"/>
<polygon fill="#63b8ff" stroke="#63b8ff" points="1204.86,-361.03 1212.84,-354.06 1202.26,-354.53 1204.86,-361.03"/>
</a>
</g>
</g>
<!-- Node26 -->
<g id="Node000026" class="node">
<title>Node26</title>
<g id="a_Node000026"><a xlink:title=" ">
<polygon fill="#e0e0e0" stroke="#999999" points="1306.5,-356 1266.5,-356 1266.5,-336 1306.5,-336 1306.5,-356"/>
<text text-anchor="middle" x="1286.5" y="-342.5" font-family="Helvetica,sans-Serif" font-size="10.00">string</text>
</a>
</g>
</g>
<!-- Node21&#45;&gt;Node26 -->
<g id="edge68_Node000021_Node000026" class="edge">
<title>Node21&#45;&gt;Node26</title>
<g id="a_edge68_Node000021_Node000026"><a xlink:title=" ">
<path fill="none" stroke="#63b8ff" d="M1131.44,-391.54C1161.94,-383.22 1207.63,-370.58 1255.91,-356.41"/>
<polygon fill="#63b8ff" stroke="#63b8ff" points="1256.64,-359.55 1265.24,-353.37 1254.66,-352.84 1256.64,-359.55"/>
</a>
</g>
</g>
<!-- Node22&#45;&gt;Node2 -->
<g id="edge61_Node000022_Node000002" class="edge">
<title>Node22&#45;&gt;Node2</title>
<g id="a_edge61_Node000022_Node000002"><a xlink:title=" ">
<path fill="none" stroke="#63b8ff" d="M1094.47,-167.92C1099.76,-154.26 1107.1,-128.27 1094.5,-112 1032.99,-32.6 707.6,-15.49 593.27,-11.92"/>
<polygon fill="#63b8ff" stroke="#63b8ff" points="593.66,-8.4 583.56,-11.6 593.46,-15.39 593.66,-8.4"/>
</a>
</g>
</g>
<!-- Node22&#45;&gt;Node8 -->
<g id="edge62_Node000022_Node000008" class="edge">
<title>Node22&#45;&gt;Node8</title>
<g id="a_edge62_Node000022_Node000008"><a xlink:title=" ">
<path fill="none" stroke="#63b8ff" d="M1078.66,-167.61C1060.73,-153.76 1025.19,-127.82 991.5,-112 954.81,-94.77 909.93,-82.15 879.48,-74.73"/>
<polygon fill="#63b8ff" stroke="#63b8ff" points="880.49,-71.14 869.95,-72.23 878.88,-77.95 880.49,-71.14"/>
</a>
</g>
</g>
<!-- Node22&#45;&gt;Node9 -->
<g id="edge60_Node000022_Node000009" class="edge">
<title>Node22&#45;&gt;Node9</title>
<g id="a_edge60_Node000022_Node000009"><a xlink:title=" ">
<path fill="none" stroke="#63b8ff" d="M1062.01,-169.6C1026.06,-160.27 963.99,-144.16 923.09,-133.54"/>
<polygon fill="#63b8ff" stroke="#63b8ff" points="924.22,-129.96 913.66,-130.83 922.46,-136.73 924.22,-129.96"/>
</a>
</g>
</g>
<!-- Node22&#45;&gt;Node16 -->
<g id="edge64_Node000022_Node000016" class="edge">
<title>Node22&#45;&gt;Node16</title>
<g id="a_edge64_Node000022_Node000016"><a xlink:title=" ">
<path fill="none" stroke="#63b8ff" d="M1085.97,-167.59C1082.58,-160.55 1077.82,-150.67 1073.65,-142"/>
<polygon fill="#63b8ff" stroke="#63b8ff" points="1076.47,-140.79 1068.98,-133.3 1070.16,-143.83 1076.47,-140.79"/>
</a>
</g>
</g>
<!-- Node22&#45;&gt;Node18 -->
<g id="edge63_Node000022_Node000018" class="edge">
<title>Node22&#45;&gt;Node18</title>
<g id="a_edge63_Node000022_Node000018"><a xlink:title=" ">
<path fill="none" stroke="#63b8ff" d="M1102.87,-167.59C1113.25,-159.7 1128.31,-148.24 1140.57,-138.92"/>
<polygon fill="#63b8ff" stroke="#63b8ff" points="1142.43,-141.14 1148.27,-132.3 1138.2,-135.57 1142.43,-141.14"/>
</a>
</g>
</g>
<!-- Node27&#45;&gt;Node2 -->
<g id="edge71_Node000027_Node000002" class="edge">
<title>Node27&#45;&gt;Node2</title>
<g id="a_edge71_Node000027_Node000002"><a xlink:title=" ">
<path fill="none" stroke="#63b8ff" d="M1411.35,-279.64C1407.2,-260.73 1398.5,-216.58 1398.5,-179 1398.5,-179 1398.5,-179 1398.5,-121 1398.5,-87.31 1388.34,-73.41 1359.5,-56 1293.51,-16.17 745.72,-11.56 592.93,-11.06"/>
<polygon fill="#63b8ff" stroke="#63b8ff" points="593.23,-7.55 583.22,-11.03 593.21,-14.55 593.23,-7.55"/>
</a>
</g>
</g>
</g>
</svg>
