<?xml version="1.0" encoding="UTF-8" standalone="no"?>
<!DOCTYPE svg PUBLIC "-//W3C//DTD SVG 1.1//EN"
 "http://www.w3.org/Graphics/SVG/1.1/DTD/svg11.dtd">
<!-- Generated by graphviz version 8.1.0 (20230707.0739)
 -->
<!-- Title: ExoCode/src/AnkleIMU.cpp Pages: 1 -->
<svg width="387pt" height="196pt"
 viewBox="0.00 0.00 387.25 196.00" xmlns="http://www.w3.org/2000/svg" xmlns:xlink="http://www.w3.org/1999/xlink">

<svg id="main" version="1.1" xmlns="http://www.w3.org/2000/svg" xmlns:xlink="http://www.w3.org/1999/xlink" xml:space="preserve" onload="init(evt)">
<style type="text/css"><![CDATA[
.node, .edge {opacity: 0.7;}
.node.selected, .edge.selected {opacity: 1;}
.edge:hover path { stroke: red; }
.edge:hover polygon { stroke: red; fill: red; }
]]></style>
<script type="application/ecmascript" xlink:href="svg.min.js"/>
<svg id="graph" class="graph">
<g id="graph0" class="graph" transform="scale(1 1) rotate(0) translate(4 192)">
<title>ExoCode/src/AnkleIMU.cpp</title>
<!-- Node1 -->
<g id="Node000001" class="node">
<title>Node1</title>
<g id="a_Node000001"><a xlink:title=" ">
<polygon fill="#999999" stroke="#666666" points="232.62,-188 96.62,-188 96.62,-168 232.62,-168 232.62,-188"/>
<text text-anchor="middle" x="164.62" y="-174.5" font-family="Helvetica,sans-Serif" font-size="10.00">ExoCode/src/AnkleIMU.cpp</text>
</a>
</g>
</g>
<!-- Node2 -->
<g id="Node000002" class="node">
<title>Node2</title>
<g id="a_Node000002"><a xlink:href="_ankle_i_m_u_8h.html" target="_top" xlink:title=" ">
<polygon fill="white" stroke="#666666" points="91.75,-132 25.5,-132 25.5,-112 91.75,-112 91.75,-132"/>
<text text-anchor="middle" x="58.62" y="-118.5" font-family="Helvetica,sans-Serif" font-size="10.00">AnkleIMU.h</text>
</a>
</g>
</g>
<!-- Node1&#45;&gt;Node2 -->
<g id="edge1_Node000001_Node000002" class="edge">
<title>Node1&#45;&gt;Node2</title>
<g id="a_edge1_Node000001_Node000002"><a xlink:title=" ">
<path fill="none" stroke="#63b8ff" d="M146.16,-167.59C129.85,-159.28 105.8,-147.03 87.03,-137.47"/>
<polygon fill="#63b8ff" stroke="#63b8ff" points="88.73,-133.9 78.23,-132.48 85.55,-140.14 88.73,-133.9"/>
</a>
</g>
</g>
<!-- Node4 -->
<g id="Node000004" class="node">
<title>Node4</title>
<g id="a_Node000004"><a xlink:title=" ">
<polygon fill="#e0e0e0" stroke="#999999" points="214.25,-20 157,-20 157,0 214.25,0 214.25,-20"/>
<text text-anchor="middle" x="185.62" y="-6.5" font-family="Helvetica,sans-Serif" font-size="10.00">Arduino.h</text>
</a>
</g>
</g>
<!-- Node1&#45;&gt;Node4 -->
<g id="edge3_Node000001_Node000004" class="edge">
<title>Node1&#45;&gt;Node4</title>
<g id="a_edge3_Node000001_Node000004"><a xlink:title=" ">
<path fill="none" stroke="#63b8ff" d="M159.67,-167.67C155.25,-158.78 149.11,-144.89 146.62,-132 144.94,-123.27 145,-120.74 146.62,-112 152.17,-82.22 166.19,-49.91 175.82,-30.05"/>
<polygon fill="#63b8ff" stroke="#63b8ff" points="179.3,-31.91 180.63,-21.4 173.04,-28.79 179.3,-31.91"/>
</a>
</g>
</g>
<!-- Node5 -->
<g id="Node000005" class="node">
<title>Node5</title>
<g id="a_Node000005"><a xlink:title=" ">
<polygon fill="#e0e0e0" stroke="#999999" points="249.25,-132 156,-132 156,-112 249.25,-112 249.25,-132"/>
<text text-anchor="middle" x="202.62" y="-118.5" font-family="Helvetica,sans-Serif" font-size="10.00">utility/imumaths.h</text>
</a>
</g>
</g>
<!-- Node1&#45;&gt;Node5 -->
<g id="edge4_Node000001_Node000005" class="edge">
<title>Node1&#45;&gt;Node5</title>
<g id="a_edge4_Node000001_Node000005"><a xlink:title=" ">
<path fill="none" stroke="#63b8ff" d="M171.24,-167.59C176.37,-160.32 183.61,-150.02 189.85,-141.15"/>
<polygon fill="#63b8ff" stroke="#63b8ff" points="193.19,-143.49 196.08,-133.3 187.46,-139.46 193.19,-143.49"/>
</a>
</g>
</g>
<!-- Node6 -->
<g id="Node000006" class="node">
<title>Node6</title>
<g id="a_Node000006"><a xlink:href="_logger_8h.html" target="_top" xlink:title=" ">
<polygon fill="white" stroke="#666666" points="320.38,-132 266.88,-132 266.88,-112 320.38,-112 320.38,-132"/>
<text text-anchor="middle" x="293.62" y="-118.5" font-family="Helvetica,sans-Serif" font-size="10.00">Logger.h</text>
</a>
</g>
</g>
<!-- Node1&#45;&gt;Node6 -->
<g id="edge5_Node000001_Node000006" class="edge">
<title>Node1&#45;&gt;Node6</title>
<g id="a_edge5_Node000001_Node000006"><a xlink:title=" ">
<path fill="none" stroke="#63b8ff" d="M187.1,-167.59C207.5,-159.05 237.85,-146.35 260.94,-136.68"/>
<polygon fill="#63b8ff" stroke="#63b8ff" points="262.11,-139.57 269.98,-132.48 259.4,-133.11 262.11,-139.57"/>
</a>
</g>
</g>
<!-- Node3 -->
<g id="Node000003" class="node">
<title>Node3</title>
<g id="a_Node000003"><a xlink:title=" ">
<polygon fill="#e0e0e0" stroke="#999999" points="99.25,-76 0,-76 0,-56 99.25,-56 99.25,-76"/>
<text text-anchor="middle" x="49.62" y="-62.5" font-family="Helvetica,sans-Serif" font-size="10.00">Adafruit_BNO055.h</text>
</a>
</g>
</g>
<!-- Node2&#45;&gt;Node3 -->
<g id="edge2_Node000002_Node000003" class="edge">
<title>Node2&#45;&gt;Node3</title>
<g id="a_edge2_Node000002_Node000003"><a xlink:title=" ">
<path fill="none" stroke="#63b8ff" d="M57.06,-111.59C55.92,-104.78 54.34,-95.32 52.94,-86.86"/>
<polygon fill="#63b8ff" stroke="#63b8ff" points="56.27,-86.59 51.17,-77.3 49.37,-87.74 56.27,-86.59"/>
</a>
</g>
</g>
<!-- Node6&#45;&gt;Node4 -->
<g id="edge6_Node000006_Node000004" class="edge">
<title>Node6&#45;&gt;Node4</title>
<g id="a_edge6_Node000006_Node000004"><a xlink:title=" ">
<path fill="none" stroke="#63b8ff" d="M266.58,-113.71C246.73,-107.01 220.56,-95.17 204.62,-76 194.16,-63.41 189.46,-45.29 187.35,-31.38"/>
<polygon fill="#63b8ff" stroke="#63b8ff" points="190.71,-31.01 186.08,-21.48 183.76,-31.82 190.71,-31.01"/>
</a>
</g>
</g>
<!-- Node7 -->
<g id="Node000007" class="node">
<title>Node7</title>
<g id="a_Node000007"><a xlink:href="_log_levels_8h.html" target="_top" xlink:title=" ">
<polygon fill="white" stroke="#666666" points="313.12,-20 246.12,-20 246.12,0 313.12,0 313.12,-20"/>
<text text-anchor="middle" x="279.62" y="-6.5" font-family="Helvetica,sans-Serif" font-size="10.00">LogLevels.h</text>
</a>
</g>
</g>
<!-- Node6&#45;&gt;Node7 -->
<g id="edge7_Node000006_Node000007" class="edge">
<title>Node6&#45;&gt;Node7</title>
<g id="a_edge7_Node000006_Node000007"><a xlink:title=" ">
<path fill="none" stroke="#63b8ff" d="M292.43,-111.62C290.17,-93.84 285.21,-54.88 282.17,-31"/>
<polygon fill="#63b8ff" stroke="#63b8ff" points="285.55,-30.83 280.82,-21.35 278.61,-31.72 285.55,-30.83"/>
</a>
</g>
</g>
<!-- Node8 -->
<g id="Node000008" class="node">
<title>Node8</title>
<g id="a_Node000008"><a xlink:href="_config_8h.html" target="_top" xlink:title=" ">
<polygon fill="white" stroke="#666666" points="265.25,-76 214,-76 214,-56 265.25,-56 265.25,-76"/>
<text text-anchor="middle" x="239.62" y="-62.5" font-family="Helvetica,sans-Serif" font-size="10.00">Config.h</text>
</a>
</g>
</g>
<!-- Node6&#45;&gt;Node8 -->
<g id="edge8_Node000006_Node000008" class="edge">
<title>Node6&#45;&gt;Node8</title>
<g id="a_edge8_Node000006_Node000008"><a xlink:title=" ">
<path fill="none" stroke="#63b8ff" d="M284.22,-111.59C276.63,-104.01 265.76,-93.13 256.65,-84.02"/>
<polygon fill="#63b8ff" stroke="#63b8ff" points="259.47,-81.89 249.92,-77.3 254.52,-86.84 259.47,-81.89"/>
</a>
</g>
</g>
<!-- Node9 -->
<g id="Node000009" class="node">
<title>Node9</title>
<g id="a_Node000009"><a xlink:title=" ">
<polygon fill="#e0e0e0" stroke="#999999" points="379.25,-76 322,-76 322,-56 379.25,-56 379.25,-76"/>
<text text-anchor="middle" x="350.62" y="-62.5" font-family="Helvetica,sans-Serif" font-size="10.00">functional</text>
</a>
</g>
</g>
<!-- Node6&#45;&gt;Node9 -->
<g id="edge11_Node000006_Node000009" class="edge">
<title>Node6&#45;&gt;Node9</title>
<g id="a_edge11_Node000006_Node000009"><a xlink:title=" ">
<path fill="none" stroke="#63b8ff" d="M303.55,-111.59C311.65,-103.93 323.27,-92.91 332.95,-83.75"/>
<polygon fill="#63b8ff" stroke="#63b8ff" points="334.96,-86.72 339.81,-77.3 330.14,-81.63 334.96,-86.72"/>
</a>
</g>
</g>
<!-- Node8&#45;&gt;Node4 -->
<g id="edge9_Node000008_Node000004" class="edge">
<title>Node8&#45;&gt;Node4</title>
<g id="a_edge9_Node000008_Node000004"><a xlink:title=" ">
<path fill="none" stroke="#63b8ff" d="M230.22,-55.59C222.63,-48.01 211.76,-37.13 202.65,-28.02"/>
<polygon fill="#63b8ff" stroke="#63b8ff" points="205.47,-25.89 195.92,-21.3 200.52,-30.84 205.47,-25.89"/>
</a>
</g>
</g>
<!-- Node8&#45;&gt;Node7 -->
<g id="edge10_Node000008_Node000007" class="edge">
<title>Node8&#45;&gt;Node7</title>
<g id="a_edge10_Node000008_Node000007"><a xlink:title=" ">
<path fill="none" stroke="#63b8ff" d="M246.59,-55.59C252.04,-48.24 259.78,-37.8 266.39,-28.87"/>
<polygon fill="#63b8ff" stroke="#63b8ff" points="269.6,-31.42 272.74,-21.3 263.97,-27.25 269.6,-31.42"/>
</a>
</g>
</g>
</g>
</svg>
</svg>

<style type='text/css'>
<![CDATA[
[data-mouse-over-selected='false'] { opacity: 0.7; }
[data-mouse-over-selected='true']  { opacity: 1.0; }
]]>
</style>
<script type="application/ecmascript"><![CDATA[
document.addEventListener('DOMContentLoaded', (event) => {
  highlightEdges();
  highlightAdjacentNodes();
});
]]></script>
</svg>
