<?xml version="1.0" encoding="UTF-8" standalone="no"?>
<!DOCTYPE svg PUBLIC "-//W3C//DTD SVG 1.1//EN"
 "http://www.w3.org/Graphics/SVG/1.1/DTD/svg11.dtd">
<!-- Generated by graphviz version 8.1.0 (20230707.0739)
 -->
<!-- Title: ExoCode/src/Battery.h Pages: 1 -->
<svg width="123pt" height="140pt"
 viewBox="0.00 0.00 123.00 140.00" xmlns="http://www.w3.org/2000/svg" xmlns:xlink="http://www.w3.org/1999/xlink">
<g id="graph0" class="graph" transform="scale(1 1) rotate(0) translate(4 136)">
<title>ExoCode/src/Battery.h</title>
<!-- Node1 -->
<g id="Node000001" class="node">
<title>Node1</title>
<g id="a_Node000001"><a xlink:title=" ">
<polygon fill="#999999" stroke="#666666" points="115,-132 0,-132 0,-112 115,-112 115,-132"/>
<text text-anchor="middle" x="57.5" y="-118.5" font-family="Helvetica,sans-Serif" font-size="10.00">ExoCode/src/Battery.h</text>
</a>
</g>
</g>
<!-- Node2 -->
<g id="Node000002" class="node">
<title>Node2</title>
<g id="a_Node000002"><a xlink:href="_i2_c_handler_8h.html" target="_top" xlink:title=" ">
<polygon fill="white" stroke="#666666" points="93.25,-76 21.75,-76 21.75,-56 93.25,-56 93.25,-76"/>
<text text-anchor="middle" x="57.5" y="-62.5" font-family="Helvetica,sans-Serif" font-size="10.00">I2CHandler.h</text>
</a>
</g>
</g>
<!-- Node1&#45;&gt;Node2 -->
<g id="edge1_Node000001_Node000002" class="edge">
<title>Node1&#45;&gt;Node2</title>
<g id="a_edge1_Node000001_Node000002"><a xlink:title=" ">
<path fill="none" stroke="#63b8ff" d="M57.5,-111.59C57.5,-104.86 57.5,-95.53 57.5,-87.15"/>
<polygon fill="#63b8ff" stroke="#63b8ff" points="61,-87.3 57.5,-77.3 54,-87.3 61,-87.3"/>
</a>
</g>
</g>
<!-- Node3 -->
<g id="Node000003" class="node">
<title>Node3</title>
<g id="a_Node000003"><a xlink:title=" ">
<polygon fill="#e0e0e0" stroke="#999999" points="86.12,-20 28.88,-20 28.88,0 86.12,0 86.12,-20"/>
<text text-anchor="middle" x="57.5" y="-6.5" font-family="Helvetica,sans-Serif" font-size="10.00">Arduino.h</text>
</a>
</g>
</g>
<!-- Node2&#45;&gt;Node3 -->
<g id="edge2_Node000002_Node000003" class="edge">
<title>Node2&#45;&gt;Node3</title>
<g id="a_edge2_Node000002_Node000003"><a xlink:title=" ">
<path fill="none" stroke="#63b8ff" d="M57.5,-55.59C57.5,-48.86 57.5,-39.53 57.5,-31.15"/>
<polygon fill="#63b8ff" stroke="#63b8ff" points="61,-31.3 57.5,-21.3 54,-31.3 61,-31.3"/>
</a>
</g>
</g>
</g>
</svg>
