<?xml version="1.0" encoding="UTF-8" standalone="no"?>
<!DOCTYPE svg PUBLIC "-//W3C//DTD SVG 1.1//EN"
 "http://www.w3.org/Graphics/SVG/1.1/DTD/svg11.dtd">
<!-- Generated by graphviz version 8.1.0 (20230707.0739)
 -->
<!-- Title: ExoCode/src/BleMessage.h Pages: 1 -->
<svg width="625pt" height="196pt"
 viewBox="0.00 0.00 625.12 196.00" xmlns="http://www.w3.org/2000/svg" xmlns:xlink="http://www.w3.org/1999/xlink">
<g id="graph0" class="graph" transform="scale(1 1) rotate(0) translate(4 192)">
<title>ExoCode/src/BleMessage.h</title>
<!-- Node1 -->
<g id="Node000001" class="node">
<title>Node1</title>
<g id="a_Node000001"><a xlink:title="Defines the BleMessage class used to hold command&#45;data pairs exchanged between the GUI.">
<polygon fill="#999999" stroke="#666666" points="355.75,-188 218.25,-188 218.25,-168 355.75,-168 355.75,-188"/>
<text text-anchor="middle" x="287" y="-174.5" font-family="Helvetica,sans-Serif" font-size="10.00">ExoCode/src/BleMessage.h</text>
</a>
</g>
</g>
<!-- Node2 -->
<g id="Node000002" class="node">
<title>Node2</title>
<g id="a_Node000002"><a xlink:href="_ble_message_8cpp.html" target="_top" xlink:title=" ">
<polygon fill="white" stroke="#666666" points="148,-132 0,-132 0,-112 148,-112 148,-132"/>
<text text-anchor="middle" x="74" y="-118.5" font-family="Helvetica,sans-Serif" font-size="10.00">ExoCode/src/BleMessage.cpp</text>
</a>
</g>
</g>
<!-- Node1&#45;&gt;Node2 -->
<g id="edge1_Node000001_Node000002" class="edge">
<title>Node1&#45;&gt;Node2</title>
<g id="a_edge1_Node000001_Node000002"><a xlink:title=" ">
<path fill="none" stroke="#63b8ff" d="M239.42,-164.94C200.77,-155.14 147.01,-141.51 111.39,-132.48"/>
<polygon fill="#63b8ff" stroke="#63b8ff" points="238.34,-168.53 248.9,-167.59 240.07,-161.74 238.34,-168.53"/>
</a>
</g>
</g>
<!-- Node3 -->
<g id="Node000003" class="node">
<title>Node3</title>
<g id="a_Node000003"><a xlink:href="_ble_message_queue_8h.html" target="_top" xlink:title="Defines a FIFO queue for the BLEMessage type. The maximum size is specified in the cpp.">
<polygon fill="white" stroke="#666666" points="370,-132 204,-132 204,-112 370,-112 370,-132"/>
<text text-anchor="middle" x="287" y="-118.5" font-family="Helvetica,sans-Serif" font-size="10.00">ExoCode/src/BleMessageQueue.h</text>
</a>
</g>
</g>
<!-- Node1&#45;&gt;Node3 -->
<g id="edge2_Node000001_Node000003" class="edge">
<title>Node1&#45;&gt;Node3</title>
<g id="a_edge2_Node000001_Node000003"><a xlink:title=" ">
<path fill="none" stroke="#63b8ff" d="M287,-156.71C287,-148.32 287,-139.01 287,-132.3"/>
<polygon fill="#63b8ff" stroke="#63b8ff" points="283.5,-156.59 287,-166.59 290.5,-156.59 283.5,-156.59"/>
</a>
</g>
</g>
<!-- Node6 -->
<g id="Node000006" class="node">
<title>Node6</title>
<g id="a_Node000006"><a xlink:href="_coms_m_c_u_8h.html" target="_top" xlink:title="The top of the composite structure for the communication microcontroller. This class manages the blue...">
<polygon fill="white" stroke="#666666" points="202.38,-76 71.62,-76 71.62,-56 202.38,-56 202.38,-76"/>
<text text-anchor="middle" x="137" y="-62.5" font-family="Helvetica,sans-Serif" font-size="10.00">ExoCode/src/ComsMCU.h</text>
</a>
</g>
</g>
<!-- Node1&#45;&gt;Node6 -->
<g id="edge9_Node000001_Node000006" class="edge">
<title>Node1&#45;&gt;Node6</title>
<g id="a_edge9_Node000001_Node000006"><a xlink:title=" ">
<path fill="none" stroke="#63b8ff" d="M251.26,-163.38C233.41,-155.65 212.06,-144.93 195,-132 173.3,-115.56 153.44,-90.1 143.56,-76.44"/>
<polygon fill="#63b8ff" stroke="#63b8ff" points="249.72,-166.95 260.3,-167.58 252.42,-160.49 249.72,-166.95"/>
</a>
</g>
</g>
<!-- Node8 -->
<g id="Node000008" class="node">
<title>Node8</title>
<g id="a_Node000008"><a xlink:href="_ble_parser_8h.html" target="_top" xlink:title="This class is used to serialize and deserialize the BLE data. The application uses Nordic&#39;s UART serv...">
<polygon fill="white" stroke="#666666" points="617.12,-76 490.88,-76 490.88,-56 617.12,-56 617.12,-76"/>
<text text-anchor="middle" x="554" y="-62.5" font-family="Helvetica,sans-Serif" font-size="10.00">ExoCode/src/BleParser.h</text>
</a>
</g>
</g>
<!-- Node1&#45;&gt;Node8 -->
<g id="edge7_Node000001_Node000008" class="edge">
<title>Node1&#45;&gt;Node8</title>
<g id="a_edge7_Node000001_Node000008"><a xlink:title=" ">
<path fill="none" stroke="#63b8ff" d="M366.74,-173.49C433.95,-168.75 522.91,-157.69 547,-132 561.13,-116.93 558.71,-90.44 556.13,-76.38"/>
<polygon fill="#63b8ff" stroke="#63b8ff" points="366.9,-170.04 357.15,-174.2 367.37,-177.03 366.9,-170.04"/>
</a>
</g>
</g>
<!-- Node9 -->
<g id="Node000009" class="node">
<title>Node9</title>
<g id="a_Node000009"><a xlink:href="ble__commands_8h.html" target="_top" xlink:title="This file declares the BLE commands, and the functions that should be called when they are received.">
<polygon fill="white" stroke="#666666" points="537.75,-132 388.25,-132 388.25,-112 537.75,-112 537.75,-132"/>
<text text-anchor="middle" x="463" y="-118.5" font-family="Helvetica,sans-Serif" font-size="10.00">ExoCode/src/ble_commands.h</text>
</a>
</g>
</g>
<!-- Node1&#45;&gt;Node9 -->
<g id="edge10_Node000001_Node000009" class="edge">
<title>Node1&#45;&gt;Node9</title>
<g id="a_edge10_Node000001_Node000009"><a xlink:title=" ">
<path fill="none" stroke="#63b8ff" d="M327.96,-164.43C359.76,-154.67 403.18,-141.35 432.1,-132.48"/>
<polygon fill="#63b8ff" stroke="#63b8ff" points="327.19,-161.31 318.66,-167.59 329.24,-168.01 327.19,-161.31"/>
</a>
</g>
</g>
<!-- Node4 -->
<g id="Node000004" class="node">
<title>Node4</title>
<g id="a_Node000004"><a xlink:href="_ble_message_queue_8cpp.html" target="_top" xlink:title=" ">
<polygon fill="white" stroke="#666666" points="397.25,-76 220.75,-76 220.75,-56 397.25,-56 397.25,-76"/>
<text text-anchor="middle" x="309" y="-62.5" font-family="Helvetica,sans-Serif" font-size="10.00">ExoCode/src/BleMessageQueue.cpp</text>
</a>
</g>
</g>
<!-- Node3&#45;&gt;Node4 -->
<g id="edge3_Node000003_Node000004" class="edge">
<title>Node3&#45;&gt;Node4</title>
<g id="a_edge3_Node000003_Node000004"><a xlink:title=" ">
<path fill="none" stroke="#63b8ff" d="M294.91,-101.58C298.42,-92.97 302.38,-83.24 305.21,-76.3"/>
<polygon fill="#63b8ff" stroke="#63b8ff" points="291.36,-100.01 290.83,-110.59 297.85,-102.65 291.36,-100.01"/>
</a>
</g>
</g>
<!-- Node5 -->
<g id="Node000005" class="node">
<title>Node5</title>
<g id="a_Node000005"><a xlink:href="_ble_parser_8cpp.html" target="_top" xlink:title=" ">
<polygon fill="white" stroke="#666666" points="531.38,-20 394.62,-20 394.62,0 531.38,0 531.38,-20"/>
<text text-anchor="middle" x="463" y="-6.5" font-family="Helvetica,sans-Serif" font-size="10.00">ExoCode/src/BleParser.cpp</text>
</a>
</g>
</g>
<!-- Node3&#45;&gt;Node5 -->
<g id="edge4_Node000003_Node000005" class="edge">
<title>Node3&#45;&gt;Node5</title>
<g id="a_edge4_Node000003_Node000005"><a xlink:title=" ">
<path fill="none" stroke="#63b8ff" d="M336.14,-108.38C358.68,-101.15 385,-90.56 406,-76 428.45,-60.44 447.79,-34.15 457.09,-20.25"/>
<polygon fill="#63b8ff" stroke="#63b8ff" points="335.28,-105.29 326.75,-111.57 337.33,-111.98 335.28,-105.29"/>
</a>
</g>
</g>
<!-- Node3&#45;&gt;Node6 -->
<g id="edge5_Node000003_Node000006" class="edge">
<title>Node3&#45;&gt;Node6</title>
<g id="a_edge5_Node000003_Node000006"><a xlink:title=" ">
<path fill="none" stroke="#63b8ff" d="M250.67,-107.92C223.7,-98.21 187.56,-85.2 163.33,-76.48"/>
<polygon fill="#63b8ff" stroke="#63b8ff" points="249.28,-111.5 259.87,-111.59 251.65,-104.91 249.28,-111.5"/>
</a>
</g>
</g>
<!-- Node7 -->
<g id="Node000007" class="node">
<title>Node7</title>
<g id="a_Node000007"><a xlink:href="_coms_m_c_u_8cpp.html" target="_top" xlink:title=" ">
<polygon fill="white" stroke="#666666" points="207.62,-20 66.38,-20 66.38,0 207.62,0 207.62,-20"/>
<text text-anchor="middle" x="137" y="-6.5" font-family="Helvetica,sans-Serif" font-size="10.00">ExoCode/src/ComsMCU.cpp</text>
</a>
</g>
</g>
<!-- Node6&#45;&gt;Node7 -->
<g id="edge6_Node000006_Node000007" class="edge">
<title>Node6&#45;&gt;Node7</title>
<g id="a_edge6_Node000006_Node000007"><a xlink:title=" ">
<path fill="none" stroke="#63b8ff" d="M137,-44.71C137,-36.32 137,-27.01 137,-20.3"/>
<polygon fill="#63b8ff" stroke="#63b8ff" points="133.5,-44.59 137,-54.59 140.5,-44.59 133.5,-44.59"/>
</a>
</g>
</g>
<!-- Node8&#45;&gt;Node5 -->
<g id="edge8_Node000008_Node000005" class="edge">
<title>Node8&#45;&gt;Node5</title>
<g id="a_edge8_Node000008_Node000005"><a xlink:title=" ">
<path fill="none" stroke="#63b8ff" d="M528.86,-50.08C512.91,-40.62 492.76,-28.66 478.97,-20.48"/>
<polygon fill="#63b8ff" stroke="#63b8ff" points="526.76,-53.5 537.15,-55.59 530.34,-47.48 526.76,-53.5"/>
</a>
</g>
</g>
<!-- Node9&#45;&gt;Node5 -->
<g id="edge11_Node000009_Node000005" class="edge">
<title>Node9&#45;&gt;Node5</title>
<g id="a_edge11_Node000009_Node000005"><a xlink:title=" ">
<path fill="none" stroke="#63b8ff" d="M463,-100.64C463,-76.72 463,-38.03 463,-20.35"/>
<polygon fill="#63b8ff" stroke="#63b8ff" points="459.5,-100.62 463,-110.62 466.5,-100.62 459.5,-100.62"/>
</a>
</g>
</g>
<!-- Node9&#45;&gt;Node8 -->
<g id="edge12_Node000009_Node000008" class="edge">
<title>Node9&#45;&gt;Node8</title>
<g id="a_edge12_Node000009_Node000008"><a xlink:title=" ">
<path fill="none" stroke="#63b8ff" d="M488.14,-106.08C504.09,-96.62 524.24,-84.66 538.03,-76.48"/>
<polygon fill="#63b8ff" stroke="#63b8ff" points="486.66,-103.48 479.85,-111.59 490.24,-109.5 486.66,-103.48"/>
</a>
</g>
</g>
</g>
</svg>
