<?xml version="1.0" encoding="UTF-8" standalone="no"?>
<!DOCTYPE svg PUBLIC "-//W3C//DTD SVG 1.1//EN"
 "http://www.w3.org/Graphics/SVG/1.1/DTD/svg11.dtd">
<!-- Generated by graphviz version 8.1.0 (20230707.0739)
 -->
<!-- Title: ExoCode/src/BleMessageQueue.h Pages: 1 -->
<svg width="494pt" height="140pt"
 viewBox="0.00 0.00 493.88 140.00" xmlns="http://www.w3.org/2000/svg" xmlns:xlink="http://www.w3.org/1999/xlink">

<svg id="main" version="1.1" xmlns="http://www.w3.org/2000/svg" xmlns:xlink="http://www.w3.org/1999/xlink" xml:space="preserve" onload="init(evt)">
<style type="text/css"><![CDATA[
.node, .edge {opacity: 0.7;}
.node.selected, .edge.selected {opacity: 1;}
.edge:hover path { stroke: red; }
.edge:hover polygon { stroke: red; fill: red; }
]]></style>
<script type="application/ecmascript" xlink:href="svg.min.js"/>
<svg id="graph" class="graph">
<g id="graph0" class="graph" transform="scale(1 1) rotate(0) translate(4 136)">
<title>ExoCode/src/BleMessageQueue.h</title>
<!-- Node1 -->
<g id="Node000001" class="node">
<title>Node1</title>
<g id="a_Node000001"><a xlink:title="Defines a FIFO queue for the BLEMessage type. The maximum size is specified in the cpp.">
<polygon fill="#999999" stroke="#666666" points="346.25,-132 180.25,-132 180.25,-112 346.25,-112 346.25,-132"/>
<text text-anchor="middle" x="263.25" y="-118.5" font-family="Helvetica,sans-Serif" font-size="10.00">ExoCode/src/BleMessageQueue.h</text>
</a>
</g>
</g>
<!-- Node2 -->
<g id="Node000002" class="node">
<title>Node2</title>
<g id="a_Node000002"><a xlink:href="_ble_message_queue_8cpp.html" target="_top" xlink:title=" ">
<polygon fill="white" stroke="#666666" points="176.5,-76 0,-76 0,-56 176.5,-56 176.5,-76"/>
<text text-anchor="middle" x="88.25" y="-62.5" font-family="Helvetica,sans-Serif" font-size="10.00">ExoCode/src/BleMessageQueue.cpp</text>
</a>
</g>
</g>
<!-- Node1&#45;&gt;Node2 -->
<g id="edge1_Node000001_Node000002" class="edge">
<title>Node1&#45;&gt;Node2</title>
<g id="a_edge1_Node000001_Node000002"><a xlink:title=" ">
<path fill="none" stroke="#63b8ff" d="M222.52,-108.43C190.9,-98.67 147.73,-85.35 118.97,-76.48"/>
<polygon fill="#63b8ff" stroke="#63b8ff" points="221.18,-111.99 231.77,-111.59 223.24,-105.3 221.18,-111.99"/>
</a>
</g>
</g>
<!-- Node3 -->
<g id="Node000003" class="node">
<title>Node3</title>
<g id="a_Node000003"><a xlink:href="_ble_parser_8cpp.html" target="_top" xlink:title=" ">
<polygon fill="white" stroke="#666666" points="331.62,-76 194.88,-76 194.88,-56 331.62,-56 331.62,-76"/>
<text text-anchor="middle" x="263.25" y="-62.5" font-family="Helvetica,sans-Serif" font-size="10.00">ExoCode/src/BleParser.cpp</text>
</a>
</g>
</g>
<!-- Node1&#45;&gt;Node3 -->
<g id="edge2_Node000001_Node000003" class="edge">
<title>Node1&#45;&gt;Node3</title>
<g id="a_edge2_Node000001_Node000003"><a xlink:title=" ">
<path fill="none" stroke="#63b8ff" d="M263.25,-100.71C263.25,-92.32 263.25,-83.01 263.25,-76.3"/>
<polygon fill="#63b8ff" stroke="#63b8ff" points="259.75,-100.59 263.25,-110.59 266.75,-100.59 259.75,-100.59"/>
</a>
</g>
</g>
<!-- Node4 -->
<g id="Node000004" class="node">
<title>Node4</title>
<g id="a_Node000004"><a xlink:href="_coms_m_c_u_8h.html" target="_top" xlink:title="The top of the composite structure for the communication microcontroller. This class manages the blue...">
<polygon fill="white" stroke="#666666" points="480.62,-76 349.88,-76 349.88,-56 480.62,-56 480.62,-76"/>
<text text-anchor="middle" x="415.25" y="-62.5" font-family="Helvetica,sans-Serif" font-size="10.00">ExoCode/src/ComsMCU.h</text>
</a>
</g>
</g>
<!-- Node1&#45;&gt;Node4 -->
<g id="edge3_Node000001_Node000004" class="edge">
<title>Node1&#45;&gt;Node4</title>
<g id="a_edge3_Node000001_Node000004"><a xlink:title=" ">
<path fill="none" stroke="#63b8ff" d="M300.07,-107.92C327.39,-98.21 364.02,-85.2 388.57,-76.48"/>
<polygon fill="#63b8ff" stroke="#63b8ff" points="298.98,-104.95 290.73,-111.59 301.32,-111.54 298.98,-104.95"/>
</a>
</g>
</g>
<!-- Node5 -->
<g id="Node000005" class="node">
<title>Node5</title>
<g id="a_Node000005"><a xlink:href="_coms_m_c_u_8cpp.html" target="_top" xlink:title=" ">
<polygon fill="white" stroke="#666666" points="485.88,-20 344.62,-20 344.62,0 485.88,0 485.88,-20"/>
<text text-anchor="middle" x="415.25" y="-6.5" font-family="Helvetica,sans-Serif" font-size="10.00">ExoCode/src/ComsMCU.cpp</text>
</a>
</g>
</g>
<!-- Node4&#45;&gt;Node5 -->
<g id="edge4_Node000004_Node000005" class="edge">
<title>Node4&#45;&gt;Node5</title>
<g id="a_edge4_Node000004_Node000005"><a xlink:title=" ">
<path fill="none" stroke="#63b8ff" d="M415.25,-44.71C415.25,-36.32 415.25,-27.01 415.25,-20.3"/>
<polygon fill="#63b8ff" stroke="#63b8ff" points="411.75,-44.59 415.25,-54.59 418.75,-44.59 411.75,-44.59"/>
</a>
</g>
</g>
</g>
</svg>
</svg>

<style type='text/css'>
<![CDATA[
[data-mouse-over-selected='false'] { opacity: 0.7; }
[data-mouse-over-selected='true']  { opacity: 1.0; }
]]>
</style>
<script type="application/ecmascript"><![CDATA[
document.addEventListener('DOMContentLoaded', (event) => {
  highlightEdges();
  highlightAdjacentNodes();
});
]]></script>
</svg>
