<?xml version="1.0" encoding="UTF-8" standalone="no"?>
<!DOCTYPE svg PUBLIC "-//W3C//DTD SVG 1.1//EN"
 "http://www.w3.org/Graphics/SVG/1.1/DTD/svg11.dtd">
<!-- Generated by graphviz version 8.1.0 (20230707.0739)
 -->
<!-- Title: ExoCode/src/BleMessageQueue.cpp Pages: 1 -->
<svg width="326pt" height="196pt"
 viewBox="0.00 0.00 325.75 196.00" xmlns="http://www.w3.org/2000/svg" xmlns:xlink="http://www.w3.org/1999/xlink">
<g id="graph0" class="graph" transform="scale(1 1) rotate(0) translate(4 192)">
<title>ExoCode/src/BleMessageQueue.cpp</title>
<!-- Node1 -->
<g id="Node000001" class="node">
<title>Node1</title>
<g id="a_Node000001"><a xlink:title=" ">
<polygon fill="#999999" stroke="#666666" points="284.38,-188 107.88,-188 107.88,-168 284.38,-168 284.38,-188"/>
<text text-anchor="middle" x="196.12" y="-174.5" font-family="Helvetica,sans-Serif" font-size="10.00">ExoCode/src/BleMessageQueue.cpp</text>
</a>
</g>
</g>
<!-- Node2 -->
<g id="Node000002" class="node">
<title>Node2</title>
<g id="a_Node000002"><a xlink:title=" ">
<polygon fill="#e0e0e0" stroke="#999999" points="317.75,-20 260.5,-20 260.5,0 317.75,0 317.75,-20"/>
<text text-anchor="middle" x="289.12" y="-6.5" font-family="Helvetica,sans-Serif" font-size="10.00">Arduino.h</text>
</a>
</g>
</g>
<!-- Node1&#45;&gt;Node2 -->
<g id="edge1_Node000001_Node000002" class="edge">
<title>Node1&#45;&gt;Node2</title>
<g id="a_edge1_Node000001_Node000002"><a xlink:title=" ">
<path fill="none" stroke="#63b8ff" d="M209.57,-167.74C231.22,-151.9 273.01,-117.3 289.12,-76 294.72,-61.67 294.35,-44.18 292.79,-30.95"/>
<polygon fill="#63b8ff" stroke="#63b8ff" points="296.12,-30.57 291.16,-21.21 289.2,-31.63 296.12,-30.57"/>
</a>
</g>
</g>
<!-- Node3 -->
<g id="Node000003" class="node">
<title>Node3</title>
<g id="a_Node000003"><a xlink:href="_ble_message_queue_8h.html" target="_top" xlink:title="Defines a FIFO queue for the BLEMessage type. The maximum size is specified in the cpp.">
<polygon fill="white" stroke="#666666" points="140.5,-132 33.75,-132 33.75,-112 140.5,-112 140.5,-132"/>
<text text-anchor="middle" x="87.12" y="-118.5" font-family="Helvetica,sans-Serif" font-size="10.00">BleMessageQueue.h</text>
</a>
</g>
</g>
<!-- Node1&#45;&gt;Node3 -->
<g id="edge2_Node000001_Node000003" class="edge">
<title>Node1&#45;&gt;Node3</title>
<g id="a_edge2_Node000001_Node000003"><a xlink:title=" ">
<path fill="none" stroke="#63b8ff" d="M177.14,-167.59C160.28,-159.24 135.4,-146.92 116.07,-137.34"/>
<polygon fill="#63b8ff" stroke="#63b8ff" points="117.77,-133.78 107.26,-132.48 114.67,-140.05 117.77,-133.78"/>
</a>
</g>
</g>
<!-- Node6 -->
<g id="Node000006" class="node">
<title>Node6</title>
<g id="a_Node000006"><a xlink:href="_logger_8h.html" target="_top" xlink:title=" ">
<polygon fill="white" stroke="#666666" points="222.88,-132 169.38,-132 169.38,-112 222.88,-112 222.88,-132"/>
<text text-anchor="middle" x="196.12" y="-118.5" font-family="Helvetica,sans-Serif" font-size="10.00">Logger.h</text>
</a>
</g>
</g>
<!-- Node1&#45;&gt;Node6 -->
<g id="edge5_Node000001_Node000006" class="edge">
<title>Node1&#45;&gt;Node6</title>
<g id="a_edge5_Node000001_Node000006"><a xlink:title=" ">
<path fill="none" stroke="#63b8ff" d="M196.12,-167.59C196.12,-160.86 196.12,-151.53 196.12,-143.15"/>
<polygon fill="#63b8ff" stroke="#63b8ff" points="199.63,-143.3 196.12,-133.3 192.63,-143.3 199.63,-143.3"/>
</a>
</g>
</g>
<!-- Node4 -->
<g id="Node000004" class="node">
<title>Node4</title>
<g id="a_Node000004"><a xlink:href="_ble_message_8h.html" target="_top" xlink:title="Defines the BleMessage class used to hold command&#45;data pairs exchanged between the GUI.">
<polygon fill="white" stroke="#666666" points="78.25,-76 0,-76 0,-56 78.25,-56 78.25,-76"/>
<text text-anchor="middle" x="39.12" y="-62.5" font-family="Helvetica,sans-Serif" font-size="10.00">BleMessage.h</text>
</a>
</g>
</g>
<!-- Node3&#45;&gt;Node4 -->
<g id="edge3_Node000003_Node000004" class="edge">
<title>Node3&#45;&gt;Node4</title>
<g id="a_edge3_Node000003_Node000004"><a xlink:title=" ">
<path fill="none" stroke="#63b8ff" d="M78.76,-111.59C72.09,-104.08 62.55,-93.35 54.51,-84.3"/>
<polygon fill="#63b8ff" stroke="#63b8ff" points="57.65,-82.45 48.39,-77.3 52.42,-87.1 57.65,-82.45"/>
</a>
</g>
</g>
<!-- Node5 -->
<g id="Node000005" class="node">
<title>Node5</title>
<g id="a_Node000005"><a xlink:title=" ">
<polygon fill="#e0e0e0" stroke="#999999" points="59.88,-20 18.38,-20 18.38,0 59.88,0 59.88,-20"/>
<text text-anchor="middle" x="39.12" y="-6.5" font-family="Helvetica,sans-Serif" font-size="10.00">vector</text>
</a>
</g>
</g>
<!-- Node4&#45;&gt;Node5 -->
<g id="edge4_Node000004_Node000005" class="edge">
<title>Node4&#45;&gt;Node5</title>
<g id="a_edge4_Node000004_Node000005"><a xlink:title=" ">
<path fill="none" stroke="#63b8ff" d="M39.12,-55.59C39.12,-48.86 39.12,-39.53 39.12,-31.15"/>
<polygon fill="#63b8ff" stroke="#63b8ff" points="42.63,-31.3 39.12,-21.3 35.63,-31.3 42.63,-31.3"/>
</a>
</g>
</g>
<!-- Node6&#45;&gt;Node2 -->
<g id="edge6_Node000006_Node000002" class="edge">
<title>Node6&#45;&gt;Node2</title>
<g id="a_edge6_Node000006_Node000002"><a xlink:title=" ">
<path fill="none" stroke="#63b8ff" d="M220.75,-111.62C236.98,-104.25 257.49,-92.46 270.12,-76 280.09,-63.01 284.83,-44.93 287.09,-31.13"/>
<polygon fill="#63b8ff" stroke="#63b8ff" points="290.67,-31.71 288.5,-21.35 283.73,-30.81 290.67,-31.71"/>
</a>
</g>
</g>
<!-- Node7 -->
<g id="Node000007" class="node">
<title>Node7</title>
<g id="a_Node000007"><a xlink:href="_log_levels_8h.html" target="_top" xlink:title=" ">
<polygon fill="white" stroke="#666666" points="169.62,-20 102.62,-20 102.62,0 169.62,0 169.62,-20"/>
<text text-anchor="middle" x="136.12" y="-6.5" font-family="Helvetica,sans-Serif" font-size="10.00">LogLevels.h</text>
</a>
</g>
</g>
<!-- Node6&#45;&gt;Node7 -->
<g id="edge7_Node000006_Node000007" class="edge">
<title>Node6&#45;&gt;Node7</title>
<g id="a_edge7_Node000006_Node000007"><a xlink:title=" ">
<path fill="none" stroke="#63b8ff" d="M169.18,-111.6C153.28,-104.49 134.48,-93.01 125.12,-76 117.38,-61.92 121.44,-43.72 126.69,-30.16"/>
<polygon fill="#63b8ff" stroke="#63b8ff" points="130.14,-32.02 130.95,-21.45 123.73,-29.21 130.14,-32.02"/>
</a>
</g>
</g>
<!-- Node8 -->
<g id="Node000008" class="node">
<title>Node8</title>
<g id="a_Node000008"><a xlink:href="_config_8h.html" target="_top" xlink:title=" ">
<polygon fill="white" stroke="#666666" points="185.75,-76 134.5,-76 134.5,-56 185.75,-56 185.75,-76"/>
<text text-anchor="middle" x="160.12" y="-62.5" font-family="Helvetica,sans-Serif" font-size="10.00">Config.h</text>
</a>
</g>
</g>
<!-- Node6&#45;&gt;Node8 -->
<g id="edge8_Node000006_Node000008" class="edge">
<title>Node6&#45;&gt;Node8</title>
<g id="a_edge8_Node000006_Node000008"><a xlink:title=" ">
<path fill="none" stroke="#63b8ff" d="M189.85,-111.59C185.05,-104.39 178.28,-94.23 172.41,-85.43"/>
<polygon fill="#63b8ff" stroke="#63b8ff" points="174.78,-83.68 166.32,-77.3 168.96,-87.56 174.78,-83.68"/>
</a>
</g>
</g>
<!-- Node9 -->
<g id="Node000009" class="node">
<title>Node9</title>
<g id="a_Node000009"><a xlink:title=" ">
<polygon fill="#e0e0e0" stroke="#999999" points="260.75,-76 203.5,-76 203.5,-56 260.75,-56 260.75,-76"/>
<text text-anchor="middle" x="232.12" y="-62.5" font-family="Helvetica,sans-Serif" font-size="10.00">functional</text>
</a>
</g>
</g>
<!-- Node6&#45;&gt;Node9 -->
<g id="edge11_Node000006_Node000009" class="edge">
<title>Node6&#45;&gt;Node9</title>
<g id="a_edge11_Node000006_Node000009"><a xlink:title=" ">
<path fill="none" stroke="#63b8ff" d="M202.4,-111.59C207.2,-104.39 213.97,-94.23 219.84,-85.43"/>
<polygon fill="#63b8ff" stroke="#63b8ff" points="223.29,-87.56 225.93,-77.3 217.47,-83.68 223.29,-87.56"/>
</a>
</g>
</g>
<!-- Node8&#45;&gt;Node2 -->
<g id="edge9_Node000008_Node000002" class="edge">
<title>Node8&#45;&gt;Node2</title>
<g id="a_edge9_Node000008_Node000002"><a xlink:title=" ">
<path fill="none" stroke="#63b8ff" d="M182.6,-55.59C203,-47.05 233.35,-34.35 256.44,-24.68"/>
<polygon fill="#63b8ff" stroke="#63b8ff" points="257.61,-27.57 265.48,-20.48 254.9,-21.11 257.61,-27.57"/>
</a>
</g>
</g>
<!-- Node8&#45;&gt;Node7 -->
<g id="edge10_Node000008_Node000007" class="edge">
<title>Node8&#45;&gt;Node7</title>
<g id="a_edge10_Node000008_Node000007"><a xlink:title=" ">
<path fill="none" stroke="#63b8ff" d="M155.94,-55.59C152.85,-48.63 148.52,-38.89 144.7,-30.29"/>
<polygon fill="#63b8ff" stroke="#63b8ff" points="147.52,-29.01 140.26,-21.3 141.12,-31.86 147.52,-29.01"/>
</a>
</g>
</g>
</g>
</svg>
