<?xml version="1.0" encoding="UTF-8" standalone="no"?>
<!DOCTYPE svg PUBLIC "-//W3C//DTD SVG 1.1//EN"
 "http://www.w3.org/Graphics/SVG/1.1/DTD/svg11.dtd">
<!-- Generated by graphviz version 8.1.0 (20230707.0739)
 -->
<!-- Title: ExoCode/src/Board.h Pages: 1 -->
<!--zoomable 532 -->

<svg id="main" version="1.1" xmlns="http://www.w3.org/2000/svg" xmlns:xlink="http://www.w3.org/1999/xlink" xml:space="preserve" onload="init(evt)">
<style type="text/css"><![CDATA[
.node, .edge {opacity: 0.7;}
.node.selected, .edge.selected {opacity: 1;}
.edge:hover path { stroke: red; }
.edge:hover polygon { stroke: red; fill: red; }
]]></style>

<defs>
  <circle id="rim" cx="0" cy="0" r="7"/>
  <circle id="rim2" cx="0" cy="0" r="3.5"/>
  <g id="zoomPlus">
    <use xlink:href="#rim" fill="#404040"><set attributeName="fill" to="#808080" begin="zoomplus.mouseover" end="zoomplus.mouseout"/></use>
    <path d="M-4,0h8M0,-4v8" fill="none" stroke="white" stroke-width="1.5" pointer-events="none"/>
  </g>
  <g id="zoomMin">
    <use xlink:href="#rim" fill="#404040"><set attributeName="fill" to="#808080" begin="zoomminus.mouseover" end="zoomminus.mouseout"/></use>
    <path d="M-4,0h8" fill="none" stroke="white" stroke-width="1.5" pointer-events="none"/>
  </g>
  <g id="arrowUp" transform="translate(30 24)">
    <use xlink:href="#rim"/>
    <path pointer-events="none" fill="none" stroke="white" stroke-width="1.5" d="M0,-3.0v7 M-2.5,-0.5L0,-3.0L2.5,-0.5"/>
  </g>
  <g id="arrowRight" transform="rotate(90) translate(36 -43)">
    <use xlink:href="#rim"/>
    <path pointer-events="none" fill="none" stroke="white" stroke-width="1.5" d="M0,-3.0v7 M-2.5,-0.5L0,-3.0L2.5,-0.5"/>
  </g>
  <g id="arrowDown" transform="rotate(180) translate(-30 -48)">
    <use xlink:href="#rim"/>
    <path pointer-events="none" fill="none" stroke="white" stroke-width="1.5" d="M0,-3.0v7 M-2.5,-0.5L0,-3.0L2.5,-0.5"/>
  </g>
  <g id="arrowLeft" transform="rotate(270) translate(-36 17)">
    <use xlink:href="#rim"/>
    <path pointer-events="none" fill="none" stroke="white" stroke-width="1.5" d="M0,-3.0v7 M-2.5,-0.5L0,-3.0L2.5,-0.5"/>
  </g>
  <g id="resetDef">
    <use xlink:href="#rim2" fill="#404040"><set attributeName="fill" to="#808080" begin="reset.mouseover" end="reset.mouseout"/></use>
  </g>
</defs>
<script type="application/ecmascript">
var viewWidth = 987;
var viewHeight = 532;
var sectionId = 'dynsection-1';
</script>
<script type="application/ecmascript" xlink:href="svg.min.js"/>
<svg id="graph" class="graph">
<g id="viewport">
<title>ExoCode/src/Board.h</title>
<!-- Node1 -->
<g id="Node000001" class="node">
<title>Node1</title>
<g id="a_Node000001"><a xlink:title=" ">
<polygon fill="#999999" stroke="#666666" points="565.12,-524 456.12,-524 456.12,-504 565.12,-504 565.12,-524"/>
<text text-anchor="middle" x="510.62" y="-510.5" font-family="Helvetica,sans-Serif" font-size="10.00">ExoCode/src/Board.h</text>
</a>
</g>
</g>
<!-- Node2 -->
<g id="Node000002" class="node">
<title>Node2</title>
<g id="a_Node000002"><a xlink:href="_coms_led_8cpp.html" target="_top" xlink:title=" ">
<polygon fill="white" stroke="#666666" points="135.25,-468 0,-468 0,-448 135.25,-448 135.25,-468"/>
<text text-anchor="middle" x="67.62" y="-454.5" font-family="Helvetica,sans-Serif" font-size="10.00">ExoCode/src/ComsLed.cpp</text>
</a>
</g>
</g>
<!-- Node1&#45;&gt;Node2 -->
<g id="edge1_Node000001_Node000002" class="edge">
<title>Node1&#45;&gt;Node2</title>
<g id="a_edge1_Node000001_Node000002"><a xlink:title=" ">
<path fill="none" stroke="#63b8ff" d="M445.05,-505.01C362.06,-494.89 219.82,-477.55 135.67,-467.29"/>
<polygon fill="#63b8ff" stroke="#63b8ff" points="444.51,-508.59 454.86,-506.32 445.36,-501.64 444.51,-508.59"/>
</a>
</g>
</g>
<!-- Node3 -->
<g id="Node000003" class="node">
<title>Node3</title>
<g id="a_Node000003"><a xlink:href="_controller_data_8h.html" target="_top" xlink:title="Declares a class used to store data for controllers to access.">
<polygon fill="white" stroke="#666666" points="298.12,-468 153.12,-468 153.12,-448 298.12,-448 298.12,-468"/>
<text text-anchor="middle" x="225.62" y="-454.5" font-family="Helvetica,sans-Serif" font-size="10.00">ExoCode/src/ControllerData.h</text>
</a>
</g>
</g>
<!-- Node1&#45;&gt;Node3 -->
<g id="edge2_Node000001_Node000003" class="edge">
<title>Node1&#45;&gt;Node3</title>
<g id="a_edge2_Node000001_Node000003"><a xlink:title=" ">
<path fill="none" stroke="#63b8ff" d="M449.92,-501.5C397.98,-491.66 324.1,-477.66 275.54,-468.46"/>
<polygon fill="#63b8ff" stroke="#63b8ff" points="449.18,-505.11 459.66,-503.53 450.48,-498.23 449.18,-505.11"/>
</a>
</g>
</g>
<!-- Node5 -->
<g id="Node000005" class="node">
<title>Node5</title>
<g id="a_Node000005"><a xlink:href="_joint_data_8h.html" target="_top" xlink:title="Declares a class used to store data for joint to access.">
<polygon fill="white" stroke="#666666" points="324.62,-412 200.62,-412 200.62,-392 324.62,-392 324.62,-412"/>
<text text-anchor="middle" x="262.62" y="-398.5" font-family="Helvetica,sans-Serif" font-size="10.00">ExoCode/src/JointData.h</text>
</a>
</g>
</g>
<!-- Node1&#45;&gt;Node5 -->
<g id="edge33_Node000001_Node000005" class="edge">
<title>Node1&#45;&gt;Node5</title>
<g id="a_edge33_Node000001_Node000005"><a xlink:title=" ">
<path fill="none" stroke="#63b8ff" d="M445.53,-501.52C414.25,-494.45 376.86,-483.68 345.62,-468 315.86,-453.05 286.46,-426.51 271.96,-412.41"/>
<polygon fill="#63b8ff" stroke="#63b8ff" points="444.37,-505.07 454.89,-503.77 445.86,-498.23 444.37,-505.07"/>
</a>
</g>
</g>
<!-- Node7 -->
<g id="Node000007" class="node">
<title>Node7</title>
<g id="a_Node000007"><a xlink:href="_leg_data_8h.html" target="_top" xlink:title="Declares a class used to store data for leg to access.">
<polygon fill="white" stroke="#666666" points="494.38,-356 374.88,-356 374.88,-336 494.38,-336 494.38,-356"/>
<text text-anchor="middle" x="434.62" y="-342.5" font-family="Helvetica,sans-Serif" font-size="10.00">ExoCode/src/LegData.h</text>
</a>
</g>
</g>
<!-- Node1&#45;&gt;Node7 -->
<g id="edge34_Node000001_Node000007" class="edge">
<title>Node1&#45;&gt;Node7</title>
<g id="a_edge34_Node000001_Node000007"><a xlink:title=" ">
<path fill="none" stroke="#63b8ff" d="M511.79,-492.99C512.34,-467.72 510.17,-423.71 491.62,-392 482.52,-376.44 465.81,-364.22 452.82,-356.47"/>
<polygon fill="#63b8ff" stroke="#63b8ff" points="508.26,-492.62 511.36,-502.75 515.25,-492.9 508.26,-492.62"/>
</a>
</g>
</g>
<!-- Node8 -->
<g id="Node000008" class="node">
<title>Node8</title>
<g id="a_Node000008"><a xlink:href="_exo_data_8h.html" target="_top" xlink:title="Declares a class used to store data for the Exo to access.">
<polygon fill="white" stroke="#666666" points="555.12,-300 434.12,-300 434.12,-280 555.12,-280 555.12,-300"/>
<text text-anchor="middle" x="494.62" y="-286.5" font-family="Helvetica,sans-Serif" font-size="10.00">ExoCode/src/ExoData.h</text>
</a>
</g>
</g>
<!-- Node1&#45;&gt;Node8 -->
<g id="edge31_Node000001_Node000008" class="edge">
<title>Node1&#45;&gt;Node8</title>
<g id="a_edge31_Node000001_Node000008"><a xlink:title=" ">
<path fill="none" stroke="#63b8ff" d="M517.62,-493.28C520.03,-485.51 522.43,-476.44 523.62,-468 532.75,-403.56 507.65,-326.37 498.12,-300.19"/>
<polygon fill="#63b8ff" stroke="#63b8ff" points="514.05,-491.92 514.21,-502.51 520.69,-494.13 514.05,-491.92"/>
</a>
</g>
</g>
<!-- Node23 -->
<g id="Node000023" class="node">
<title>Node23</title>
<g id="a_Node000023"><a xlink:href="_f_s_r_8cpp.html" target="_top" xlink:title=" ">
<polygon fill="white" stroke="#666666" points="921.38,-468 807.88,-468 807.88,-448 921.38,-448 921.38,-468"/>
<text text-anchor="middle" x="864.62" y="-454.5" font-family="Helvetica,sans-Serif" font-size="10.00">ExoCode/src/FSR.cpp</text>
</a>
</g>
</g>
<!-- Node1&#45;&gt;Node23 -->
<g id="edge32_Node000001_Node000023" class="edge">
<title>Node1&#45;&gt;Node23</title>
<g id="a_edge32_Node000001_Node000023"><a xlink:title=" ">
<path fill="none" stroke="#63b8ff" d="M576.3,-502.98C642.72,-492.85 744.34,-477.35 807.52,-467.71"/>
<polygon fill="#63b8ff" stroke="#63b8ff" points="575.91,-499.65 566.55,-504.62 576.96,-506.57 575.91,-499.65"/>
</a>
</g>
</g>
<!-- Node24 -->
<g id="Node000024" class="node">
<title>Node24</title>
<g id="a_Node000024"><a xlink:href="_motor_data_8h.html" target="_top" xlink:title="Declares a class used to store data for motors to access.">
<polygon fill="white" stroke="#666666" points="482.88,-468 354.38,-468 354.38,-448 482.88,-448 482.88,-468"/>
<text text-anchor="middle" x="418.62" y="-454.5" font-family="Helvetica,sans-Serif" font-size="10.00">ExoCode/src/MotorData.h</text>
</a>
</g>
</g>
<!-- Node1&#45;&gt;Node24 -->
<g id="edge35_Node000001_Node000024" class="edge">
<title>Node1&#45;&gt;Node24</title>
<g id="a_edge35_Node000001_Node000024"><a xlink:title=" ">
<path fill="none" stroke="#63b8ff" d="M485.21,-498.08C469.08,-488.62 448.71,-476.66 434.78,-468.48"/>
<polygon fill="#63b8ff" stroke="#63b8ff" points="483.2,-501.55 493.6,-503.59 486.75,-495.51 483.2,-501.55"/>
</a>
</g>
</g>
<!-- Node26 -->
<g id="Node000026" class="node">
<title>Node26</title>
<g id="a_Node000026"><a xlink:href="_status_defs_8h.html" target="_top" xlink:title="Stores the different status messages for the system.">
<polygon fill="white" stroke="#666666" points="751.38,-412 619.88,-412 619.88,-392 751.38,-392 751.38,-412"/>
<text text-anchor="middle" x="685.62" y="-398.5" font-family="Helvetica,sans-Serif" font-size="10.00">ExoCode/src/StatusDefs.h</text>
</a>
</g>
</g>
<!-- Node1&#45;&gt;Node26 -->
<g id="edge38_Node000001_Node000026" class="edge">
<title>Node1&#45;&gt;Node26</title>
<g id="a_edge38_Node000001_Node000026"><a xlink:title=" ">
<path fill="none" stroke="#63b8ff" d="M534.56,-497.95C571.28,-474.88 640.42,-431.41 670.74,-412.35"/>
<polygon fill="#63b8ff" stroke="#63b8ff" points="533.15,-495.34 526.55,-503.62 536.87,-501.26 533.15,-495.34"/>
</a>
</g>
</g>
<!-- Node28 -->
<g id="Node000028" class="node">
<title>Node28</title>
<g id="a_Node000028"><a xlink:href="_status_led_8h.html" target="_top" xlink:title="Class to set an RGB LED to different colors based on the state of the system.">
<polygon fill="white" stroke="#666666" points="978.5,-356 850.75,-356 850.75,-336 978.5,-336 978.5,-356"/>
<text text-anchor="middle" x="914.62" y="-342.5" font-family="Helvetica,sans-Serif" font-size="10.00">ExoCode/src/StatusLed.h</text>
</a>
</g>
</g>
<!-- Node1&#45;&gt;Node28 -->
<g id="edge46_Node000001_Node000028" class="edge">
<title>Node1&#45;&gt;Node28</title>
<g id="a_edge46_Node000001_Node000028"><a xlink:title=" ">
<path fill="none" stroke="#63b8ff" d="M544.63,-499.45C592.79,-480.23 683.6,-443.81 760.62,-412 807.7,-392.56 862.61,-369.22 892.48,-356.47"/>
<polygon fill="#63b8ff" stroke="#63b8ff" points="543.45,-496.56 535.46,-503.51 546.04,-503.06 543.45,-496.56"/>
</a>
</g>
</g>
<!-- Node4 -->
<g id="Node000004" class="node">
<title>Node4</title>
<g id="a_Node000004"><a xlink:href="_controller_data_8cpp.html" target="_top" xlink:title=" ">
<polygon fill="white" stroke="#666666" points="182.38,-412 26.88,-412 26.88,-392 182.38,-392 182.38,-412"/>
<text text-anchor="middle" x="104.62" y="-398.5" font-family="Helvetica,sans-Serif" font-size="10.00">ExoCode/src/ControllerData.cpp</text>
</a>
</g>
</g>
<!-- Node3&#45;&gt;Node4 -->
<g id="edge3_Node000003_Node000004" class="edge">
<title>Node3&#45;&gt;Node4</title>
<g id="a_edge3_Node000003_Node000004"><a xlink:title=" ">
<path fill="none" stroke="#63b8ff" d="M194.57,-443.14C173.02,-433.52 144.89,-420.97 125.87,-412.48"/>
<polygon fill="#63b8ff" stroke="#63b8ff" points="192.99,-446.71 203.55,-447.59 195.84,-440.32 192.99,-446.71"/>
</a>
</g>
</g>
<!-- Node3&#45;&gt;Node5 -->
<g id="edge4_Node000003_Node000005" class="edge">
<title>Node3&#45;&gt;Node5</title>
<g id="a_edge4_Node000003_Node000005"><a xlink:title=" ">
<path fill="none" stroke="#63b8ff" d="M238.15,-438.72C244.24,-429.84 251.29,-419.55 256.25,-412.3"/>
<polygon fill="#63b8ff" stroke="#63b8ff" points="234.83,-436.37 232.07,-446.59 240.61,-440.32 234.83,-436.37"/>
</a>
</g>
</g>
<!-- Node6 -->
<g id="Node000006" class="node">
<title>Node6</title>
<g id="a_Node000006"><a xlink:href="_joint_data_8cpp.html" target="_top" xlink:title=" ">
<polygon fill="white" stroke="#666666" points="329.88,-356 195.38,-356 195.38,-336 329.88,-336 329.88,-356"/>
<text text-anchor="middle" x="262.62" y="-342.5" font-family="Helvetica,sans-Serif" font-size="10.00">ExoCode/src/JointData.cpp</text>
</a>
</g>
</g>
<!-- Node5&#45;&gt;Node6 -->
<g id="edge5_Node000005_Node000006" class="edge">
<title>Node5&#45;&gt;Node6</title>
<g id="a_edge5_Node000005_Node000006"><a xlink:title=" ">
<path fill="none" stroke="#63b8ff" d="M262.62,-380.71C262.62,-372.32 262.62,-363.01 262.62,-356.3"/>
<polygon fill="#63b8ff" stroke="#63b8ff" points="259.13,-380.59 262.62,-390.59 266.13,-380.59 259.13,-380.59"/>
</a>
</g>
</g>
<!-- Node5&#45;&gt;Node7 -->
<g id="edge6_Node000005_Node000007" class="edge">
<title>Node5&#45;&gt;Node7</title>
<g id="a_edge6_Node000005_Node000007"><a xlink:title=" ">
<path fill="none" stroke="#63b8ff" d="M303.06,-388.31C334.1,-378.56 376.29,-365.32 404.43,-356.48"/>
<polygon fill="#63b8ff" stroke="#63b8ff" points="302.08,-385.26 293.59,-391.59 304.17,-391.94 302.08,-385.26"/>
</a>
</g>
</g>
<!-- Node17 -->
<g id="Node000017" class="node">
<title>Node17</title>
<g id="a_Node000017"><a xlink:href="uart__commands_8h.html" target="_top" xlink:title=" ">
<polygon fill="white" stroke="#666666" points="174.25,-188 21,-188 21,-168 174.25,-168 174.25,-188"/>
<text text-anchor="middle" x="97.62" y="-174.5" font-family="Helvetica,sans-Serif" font-size="10.00">ExoCode/src/uart_commands.h</text>
</a>
</g>
</g>
<!-- Node5&#45;&gt;Node17 -->
<g id="edge30_Node000005_Node000017" class="edge">
<title>Node5&#45;&gt;Node17</title>
<g id="a_edge30_Node000005_Node000017"><a xlink:title=" ">
<path fill="none" stroke="#63b8ff" d="M232.55,-386.58C217.83,-378.72 200.36,-368.11 186.62,-356 139.34,-314.32 120.98,-303.3 99.62,-244 92.82,-225.09 94.51,-201.05 96.17,-188.16"/>
<polygon fill="#63b8ff" stroke="#63b8ff" points="230.73,-390.1 241.22,-391.58 233.94,-383.88 230.73,-390.1"/>
</a>
</g>
</g>
<!-- Node7&#45;&gt;Node8 -->
<g id="edge7_Node000007_Node000008" class="edge">
<title>Node7&#45;&gt;Node8</title>
<g id="a_edge7_Node000007_Node000008"><a xlink:title=" ">
<path fill="none" stroke="#63b8ff" d="M453.07,-328.4C463.33,-319.17 475.73,-308.01 484.29,-300.3"/>
<polygon fill="#63b8ff" stroke="#63b8ff" points="451.17,-325.3 446.08,-334.59 455.85,-330.51 451.17,-325.3"/>
</a>
</g>
</g>
<!-- Node22 -->
<g id="Node000022" class="node">
<title>Node22</title>
<g id="a_Node000022"><a xlink:href="_leg_data_8cpp.html" target="_top" xlink:title=" ">
<polygon fill="white" stroke="#666666" points="415.62,-300 285.62,-300 285.62,-280 415.62,-280 415.62,-300"/>
<text text-anchor="middle" x="350.62" y="-286.5" font-family="Helvetica,sans-Serif" font-size="10.00">ExoCode/src/LegData.cpp</text>
</a>
</g>
</g>
<!-- Node7&#45;&gt;Node22 -->
<g id="edge29_Node000007_Node000022" class="edge">
<title>Node7&#45;&gt;Node22</title>
<g id="a_edge29_Node000007_Node000022"><a xlink:title=" ">
<path fill="none" stroke="#63b8ff" d="M411,-329.81C396.35,-320.39 377.98,-308.58 365.37,-300.48"/>
<polygon fill="#63b8ff" stroke="#63b8ff" points="408.69,-333.13 418.99,-335.59 412.47,-327.24 408.69,-333.13"/>
</a>
</g>
</g>
<!-- Node9 -->
<g id="Node000009" class="node">
<title>Node9</title>
<g id="a_Node000009"><a xlink:href="_coms_m_c_u_8h.html" target="_top" xlink:title="The top of the composite structure for the communication microcontroller. This class manages the blue...">
<polygon fill="white" stroke="#666666" points="757,-244 626.25,-244 626.25,-224 757,-224 757,-244"/>
<text text-anchor="middle" x="691.62" y="-230.5" font-family="Helvetica,sans-Serif" font-size="10.00">ExoCode/src/ComsMCU.h</text>
</a>
</g>
</g>
<!-- Node8&#45;&gt;Node9 -->
<g id="edge8_Node000008_Node000009" class="edge">
<title>Node8&#45;&gt;Node9</title>
<g id="a_edge8_Node000008_Node000009"><a xlink:title=" ">
<path fill="none" stroke="#63b8ff" d="M539.55,-276.69C575.22,-266.91 624.38,-253.43 657.04,-244.48"/>
<polygon fill="#63b8ff" stroke="#63b8ff" points="538.66,-273.57 529.94,-279.59 540.51,-280.33 538.66,-273.57"/>
</a>
</g>
</g>
<!-- Node11 -->
<g id="Node000011" class="node">
<title>Node11</title>
<g id="a_Node000011"><a xlink:href="_exo_data_8cpp.html" target="_top" xlink:title=" ">
<polygon fill="white" stroke="#666666" points="544.38,-188 412.88,-188 412.88,-168 544.38,-168 544.38,-188"/>
<text text-anchor="middle" x="478.62" y="-174.5" font-family="Helvetica,sans-Serif" font-size="10.00">ExoCode/src/ExoData.cpp</text>
</a>
</g>
</g>
<!-- Node8&#45;&gt;Node11 -->
<g id="edge10_Node000008_Node000011" class="edge">
<title>Node8&#45;&gt;Node11</title>
<g id="a_edge10_Node000008_Node000011"><a xlink:title=" ">
<path fill="none" stroke="#63b8ff" d="M480.15,-270.91C474.79,-263.11 469.36,-253.58 466.62,-244 461.08,-224.58 468.83,-201.14 474.22,-188.39"/>
<polygon fill="#63b8ff" stroke="#63b8ff" points="477.93,-272.79 486.69,-278.75 483.55,-268.63 477.93,-272.79"/>
</a>
</g>
</g>
<!-- Node12 -->
<g id="Node000012" class="node">
<title>Node12</title>
<g id="a_Node000012"><a xlink:href="_params_from_s_d_8h.html" target="_top" xlink:title="Declares the functions to pull controller parameters from the SD card and defines the mapping to the ...">
<polygon fill="white" stroke="#666666" points="419.25,-244 266,-244 266,-224 419.25,-224 419.25,-244"/>
<text text-anchor="middle" x="342.62" y="-230.5" font-family="Helvetica,sans-Serif" font-size="10.00">ExoCode/src/ParamsFromSD.h</text>
</a>
</g>
</g>
<!-- Node8&#45;&gt;Node12 -->
<g id="edge11_Node000008_Node000012" class="edge">
<title>Node8&#45;&gt;Node12</title>
<g id="a_edge11_Node000008_Node000012"><a xlink:title=" ">
<path fill="none" stroke="#63b8ff" d="M457.81,-275.92C430.48,-266.21 393.86,-253.2 369.31,-244.48"/>
<polygon fill="#63b8ff" stroke="#63b8ff" points="456.55,-279.54 467.15,-279.59 458.9,-272.95 456.55,-279.54"/>
</a>
</g>
</g>
<!-- Node14 -->
<g id="Node000014" class="node">
<title>Node14</title>
<g id="a_Node000014"><a xlink:href="ble__commands_8h.html" target="_top" xlink:title="This file declares the BLE commands, and the functions that should be called when they are received.">
<polygon fill="white" stroke="#666666" points="390.38,-132 240.88,-132 240.88,-112 390.38,-112 390.38,-132"/>
<text text-anchor="middle" x="315.62" y="-118.5" font-family="Helvetica,sans-Serif" font-size="10.00">ExoCode/src/ble_commands.h</text>
</a>
</g>
</g>
<!-- Node8&#45;&gt;Node14 -->
<g id="edge23_Node000008_Node000014" class="edge">
<title>Node8&#45;&gt;Node14</title>
<g id="a_edge23_Node000008_Node000014"><a xlink:title=" ">
<path fill="none" stroke="#63b8ff" d="M423.31,-279.91C278.23,-264.07 233.49,-291.13 99.62,-244 55.9,-228.6 33.93,-228.64 11.62,-188 7.35,-180.21 5.82,-174.73 11.62,-168 26.42,-150.86 155.26,-136.66 240.39,-129.04"/>
<polygon fill="#63b8ff" stroke="#63b8ff" points="422.59,-283.47 432.93,-281.13 423.39,-276.51 422.59,-283.47"/>
</a>
</g>
</g>
<!-- Node8&#45;&gt;Node17 -->
<g id="edge28_Node000008_Node000017" class="edge">
<title>Node8&#45;&gt;Node17</title>
<g id="a_edge28_Node000008_Node000017"><a xlink:title=" ">
<path fill="none" stroke="#63b8ff" d="M423.07,-280.04C340.06,-272.97 166.96,-286.51 116.62,-244 100.1,-230.04 97.51,-202.57 97.37,-188.22"/>
<polygon fill="#63b8ff" stroke="#63b8ff" points="422.62,-283.61 432.92,-281.15 423.33,-276.65 422.62,-283.61"/>
</a>
</g>
</g>
<!-- Node19 -->
<g id="Node000019" class="node">
<title>Node19</title>
<g id="a_Node000019"><a xlink:href="_pi_logger_8h.html" target="_top" xlink:title=" ">
<polygon fill="white" stroke="#666666" points="247.5,-244 125.75,-244 125.75,-224 247.5,-224 247.5,-244"/>
<text text-anchor="middle" x="186.62" y="-230.5" font-family="Helvetica,sans-Serif" font-size="10.00">ExoCode/src/PiLogger.h</text>
</a>
</g>
</g>
<!-- Node8&#45;&gt;Node19 -->
<g id="edge22_Node000008_Node000019" class="edge">
<title>Node8&#45;&gt;Node19</title>
<g id="a_edge22_Node000008_Node000019"><a xlink:title=" ">
<path fill="none" stroke="#63b8ff" d="M430.08,-277.68C373.89,-267.83 293.38,-253.72 240.56,-244.46"/>
<polygon fill="#63b8ff" stroke="#63b8ff" points="429.17,-281.25 439.62,-279.53 430.38,-274.36 429.17,-281.25"/>
</a>
</g>
</g>
<!-- Node20 -->
<g id="Node000020" class="node">
<title>Node20</title>
<g id="a_Node000020"><a xlink:href="error__types_8h.html" target="_top" xlink:title=" ">
<polygon fill="white" stroke="#666666" points="607.75,-244 475.5,-244 475.5,-224 607.75,-224 607.75,-244"/>
<text text-anchor="middle" x="541.62" y="-230.5" font-family="Helvetica,sans-Serif" font-size="10.00">ExoCode/src/error_types.h</text>
</a>
</g>
</g>
<!-- Node8&#45;&gt;Node20 -->
<g id="edge24_Node000008_Node000020" class="edge">
<title>Node8&#45;&gt;Node20</title>
<g id="a_edge24_Node000008_Node000020"><a xlink:title=" ">
<path fill="none" stroke="#63b8ff" d="M509.8,-271.57C517.69,-262.5 527.02,-251.78 533.53,-244.3"/>
<polygon fill="#63b8ff" stroke="#63b8ff" points="506.74,-268.75 502.81,-278.59 512.02,-273.35 506.74,-268.75"/>
</a>
</g>
</g>
<!-- Node10 -->
<g id="Node000010" class="node">
<title>Node10</title>
<g id="a_Node000010"><a xlink:href="_coms_m_c_u_8cpp.html" target="_top" xlink:title=" ">
<polygon fill="white" stroke="#666666" points="855.25,-132 714,-132 714,-112 855.25,-112 855.25,-132"/>
<text text-anchor="middle" x="784.62" y="-118.5" font-family="Helvetica,sans-Serif" font-size="10.00">ExoCode/src/ComsMCU.cpp</text>
</a>
</g>
</g>
<!-- Node9&#45;&gt;Node10 -->
<g id="edge9_Node000009_Node000010" class="edge">
<title>Node9&#45;&gt;Node10</title>
<g id="a_edge9_Node000009_Node000010"><a xlink:title=" ">
<path fill="none" stroke="#63b8ff" d="M706.4,-215.53C726.33,-191.95 761.15,-150.76 776.72,-132.35"/>
<polygon fill="#63b8ff" stroke="#63b8ff" points="703.34,-212.73 699.55,-222.62 708.68,-217.24 703.34,-212.73"/>
</a>
</g>
</g>
<!-- Node12&#45;&gt;Node11 -->
<g id="edge12_Node000012_Node000011" class="edge">
<title>Node12&#45;&gt;Node11</title>
<g id="a_edge12_Node000012_Node000011"><a xlink:title=" ">
<path fill="none" stroke="#63b8ff" d="M376.22,-219.66C400.59,-209.98 432.98,-197.12 454.75,-188.48"/>
<polygon fill="#63b8ff" stroke="#63b8ff" points="375.32,-216.65 367.31,-223.59 377.9,-223.16 375.32,-216.65"/>
</a>
</g>
</g>
<!-- Node13 -->
<g id="Node000013" class="node">
<title>Node13</title>
<g id="a_Node000013"><a xlink:href="_params_from_s_d_8cpp.html" target="_top" xlink:title=" ">
<polygon fill="white" stroke="#666666" points="356.5,-188 192.75,-188 192.75,-168 356.5,-168 356.5,-188"/>
<text text-anchor="middle" x="274.62" y="-174.5" font-family="Helvetica,sans-Serif" font-size="10.00">ExoCode/src/ParamsFromSD.cpp</text>
</a>
</g>
</g>
<!-- Node12&#45;&gt;Node13 -->
<g id="edge13_Node000012_Node000013" class="edge">
<title>Node12&#45;&gt;Node13</title>
<g id="a_edge13_Node000012_Node000013"><a xlink:title=" ">
<path fill="none" stroke="#63b8ff" d="M322.42,-216.95C310.66,-207.61 296.24,-196.16 286.33,-188.3"/>
<polygon fill="#63b8ff" stroke="#63b8ff" points="319.77,-220.12 329.78,-223.59 324.13,-214.63 319.77,-220.12"/>
</a>
</g>
</g>
<!-- Node12&#45;&gt;Node14 -->
<g id="edge14_Node000012_Node000014" class="edge">
<title>Node12&#45;&gt;Node14</title>
<g id="a_edge14_Node000012_Node000014"><a xlink:title=" ">
<path fill="none" stroke="#63b8ff" d="M356.67,-214.56C364.9,-201.38 372.46,-183.34 365.62,-168 358.78,-152.64 343.82,-140.32 332.03,-132.48"/>
<polygon fill="#63b8ff" stroke="#63b8ff" points="353.26,-212.34 350.47,-222.56 359.02,-216.31 353.26,-212.34"/>
</a>
</g>
</g>
<!-- Node12&#45;&gt;Node17 -->
<g id="edge18_Node000012_Node000017" class="edge">
<title>Node12&#45;&gt;Node17</title>
<g id="a_edge18_Node000012_Node000017"><a xlink:title=" ">
<path fill="none" stroke="#63b8ff" d="M289.03,-221.19C244.46,-211.36 181.85,-197.56 140.53,-188.46"/>
<polygon fill="#63b8ff" stroke="#63b8ff" points="288.15,-224.8 298.67,-223.53 289.66,-217.96 288.15,-224.8"/>
</a>
</g>
</g>
<!-- Node15 -->
<g id="Node000015" class="node">
<title>Node15</title>
<g id="a_Node000015"><a xlink:href="_ble_parser_8cpp.html" target="_top" xlink:title=" ">
<polygon fill="white" stroke="#666666" points="383,-20 246.25,-20 246.25,0 383,0 383,-20"/>
<text text-anchor="middle" x="314.62" y="-6.5" font-family="Helvetica,sans-Serif" font-size="10.00">ExoCode/src/BleParser.cpp</text>
</a>
</g>
</g>
<!-- Node14&#45;&gt;Node15 -->
<g id="edge15_Node000014_Node000015" class="edge">
<title>Node14&#45;&gt;Node15</title>
<g id="a_edge15_Node000014_Node000015"><a xlink:title=" ">
<path fill="none" stroke="#63b8ff" d="M301.66,-102.84C296.49,-95.02 291.26,-85.51 288.62,-76 282.98,-55.62 297.02,-32.92 306.59,-20.46"/>
<polygon fill="#63b8ff" stroke="#63b8ff" points="299.32,-104.58 307.97,-110.7 305.02,-100.52 299.32,-104.58"/>
</a>
</g>
</g>
<!-- Node16 -->
<g id="Node000016" class="node">
<title>Node16</title>
<g id="a_Node000016"><a xlink:href="_ble_parser_8h.html" target="_top" xlink:title="This class is used to serialize and deserialize the BLE data. The application uses Nordic&#39;s UART serv...">
<polygon fill="white" stroke="#666666" points="423.75,-76 297.5,-76 297.5,-56 423.75,-56 423.75,-76"/>
<text text-anchor="middle" x="360.62" y="-62.5" font-family="Helvetica,sans-Serif" font-size="10.00">ExoCode/src/BleParser.h</text>
</a>
</g>
</g>
<!-- Node14&#45;&gt;Node16 -->
<g id="edge16_Node000014_Node000016" class="edge">
<title>Node14&#45;&gt;Node16</title>
<g id="a_edge16_Node000014_Node000016"><a xlink:title=" ">
<path fill="none" stroke="#63b8ff" d="M330.39,-103.29C337.89,-94.28 346.71,-83.7 352.88,-76.3"/>
<polygon fill="#63b8ff" stroke="#63b8ff" points="327.18,-100.67 323.46,-110.59 332.55,-105.15 327.18,-100.67"/>
</a>
</g>
</g>
<!-- Node16&#45;&gt;Node15 -->
<g id="edge17_Node000016_Node000015" class="edge">
<title>Node16&#45;&gt;Node15</title>
<g id="a_edge17_Node000016_Node000015"><a xlink:title=" ">
<path fill="none" stroke="#63b8ff" d="M345.54,-47.29C337.86,-38.28 328.85,-27.7 322.55,-20.3"/>
<polygon fill="#63b8ff" stroke="#63b8ff" points="343.46,-49.25 352.61,-54.59 348.79,-44.71 343.46,-49.25"/>
</a>
</g>
</g>
<!-- Node17&#45;&gt;Node10 -->
<g id="edge19_Node000017_Node000010" class="edge">
<title>Node17&#45;&gt;Node10</title>
<g id="a_edge19_Node000017_Node000010"><a xlink:title=" ">
<path fill="none" stroke="#63b8ff" d="M185.41,-167.87C383.25,-150.25 603.38,-134.98 713.79,-127.62"/>
<polygon fill="#63b8ff" stroke="#63b8ff" points="185.16,-164.46 175.51,-168.84 185.78,-171.44 185.16,-164.46"/>
</a>
</g>
</g>
<!-- Node17&#45;&gt;Node14 -->
<g id="edge21_Node000017_Node000014" class="edge">
<title>Node17&#45;&gt;Node14</title>
<g id="a_edge21_Node000017_Node000014"><a xlink:title=" ">
<path fill="none" stroke="#63b8ff" d="M146.32,-164.94C185.91,-155.13 241,-141.49 277.45,-132.46"/>
<polygon fill="#63b8ff" stroke="#63b8ff" points="145.71,-161.73 136.85,-167.53 147.4,-168.52 145.71,-161.73"/>
</a>
</g>
</g>
<!-- Node18 -->
<g id="Node000018" class="node">
<title>Node18</title>
<g id="a_Node000018"><a xlink:href="_exo_8cpp.html" target="_top" xlink:title=" ">
<polygon fill="white" stroke="#666666" points="153.25,-132 42,-132 42,-112 153.25,-112 153.25,-132"/>
<text text-anchor="middle" x="97.62" y="-118.5" font-family="Helvetica,sans-Serif" font-size="10.00">ExoCode/src/Exo.cpp</text>
</a>
</g>
</g>
<!-- Node17&#45;&gt;Node18 -->
<g id="edge20_Node000017_Node000018" class="edge">
<title>Node17&#45;&gt;Node18</title>
<g id="a_edge20_Node000017_Node000018"><a xlink:title=" ">
<path fill="none" stroke="#63b8ff" d="M97.62,-156.71C97.62,-148.32 97.62,-139.01 97.62,-132.3"/>
<polygon fill="#63b8ff" stroke="#63b8ff" points="94.13,-156.59 97.62,-166.59 101.13,-156.59 94.13,-156.59"/>
</a>
</g>
</g>
<!-- Node20&#45;&gt;Node10 -->
<g id="edge25_Node000020_Node000010" class="edge">
<title>Node20&#45;&gt;Node10</title>
<g id="a_edge25_Node000020_Node000010"><a xlink:title=" ">
<path fill="none" stroke="#63b8ff" d="M595.67,-220.81C624.37,-213.29 659.79,-202.33 689.62,-188 722.23,-172.34 756.22,-146.33 773.34,-132.44"/>
<polygon fill="#63b8ff" stroke="#63b8ff" points="594.85,-217.66 586.02,-223.52 596.58,-224.44 594.85,-217.66"/>
</a>
</g>
</g>
<!-- Node20&#45;&gt;Node11 -->
<g id="edge26_Node000020_Node000011" class="edge">
<title>Node20&#45;&gt;Node11</title>
<g id="a_edge26_Node000020_Node000011"><a xlink:title=" ">
<path fill="none" stroke="#63b8ff" d="M522.58,-216.68C511.75,-207.39 498.56,-196.09 489.47,-188.3"/>
<polygon fill="#63b8ff" stroke="#63b8ff" points="519.78,-219.74 529.65,-223.59 524.34,-214.43 519.78,-219.74"/>
</a>
</g>
</g>
<!-- Node21 -->
<g id="Node000021" class="node">
<title>Node21</title>
<g id="a_Node000021"><a xlink:href="_motor_8cpp.html" target="_top" xlink:title=" ">
<polygon fill="white" stroke="#666666" points="681,-188 562.25,-188 562.25,-168 681,-168 681,-188"/>
<text text-anchor="middle" x="621.62" y="-174.5" font-family="Helvetica,sans-Serif" font-size="10.00">ExoCode/src/Motor.cpp</text>
</a>
</g>
</g>
<!-- Node20&#45;&gt;Node21 -->
<g id="edge27_Node000020_Node000021" class="edge">
<title>Node20&#45;&gt;Node21</title>
<g id="a_edge27_Node000020_Node000021"><a xlink:title=" ">
<path fill="none" stroke="#63b8ff" d="M564.53,-217.54C578.41,-208.17 595.69,-196.51 607.58,-188.48"/>
<polygon fill="#63b8ff" stroke="#63b8ff" points="562.89,-215.1 556.56,-223.59 566.81,-220.9 562.89,-215.1"/>
</a>
</g>
</g>
<!-- Node24&#45;&gt;Node5 -->
<g id="edge36_Node000024_Node000005" class="edge">
<title>Node24&#45;&gt;Node5</title>
<g id="a_edge36_Node000024_Node000005"><a xlink:title=" ">
<path fill="none" stroke="#63b8ff" d="M381.21,-444.05C353.13,-434.33 315.31,-421.24 290.01,-412.48"/>
<polygon fill="#63b8ff" stroke="#63b8ff" points="379.86,-447.63 390.45,-447.59 382.15,-441.02 379.86,-447.63"/>
</a>
</g>
</g>
<!-- Node25 -->
<g id="Node000025" class="node">
<title>Node25</title>
<g id="a_Node000025"><a xlink:href="_motor_data_8cpp.html" target="_top" xlink:title=" ">
<polygon fill="white" stroke="#666666" points="482.12,-412 343.12,-412 343.12,-392 482.12,-392 482.12,-412"/>
<text text-anchor="middle" x="412.62" y="-398.5" font-family="Helvetica,sans-Serif" font-size="10.00">ExoCode/src/MotorData.cpp</text>
</a>
</g>
</g>
<!-- Node24&#45;&gt;Node25 -->
<g id="edge37_Node000024_Node000025" class="edge">
<title>Node24&#45;&gt;Node25</title>
<g id="a_edge37_Node000024_Node000025"><a xlink:title=" ">
<path fill="none" stroke="#63b8ff" d="M416.37,-436.71C415.44,-428.32 414.4,-419.01 413.66,-412.3"/>
<polygon fill="#63b8ff" stroke="#63b8ff" points="413,-437.04 417.58,-446.59 419.95,-436.27 413,-437.04"/>
</a>
</g>
</g>
<!-- Node26&#45;&gt;Node8 -->
<g id="edge40_Node000026_Node000008" class="edge">
<title>Node26&#45;&gt;Node8</title>
<g id="a_edge40_Node000026_Node000008"><a xlink:title=" ">
<path fill="none" stroke="#63b8ff" d="M659.18,-386.28C643.56,-377.54 623.42,-366.22 605.62,-356 571.54,-336.43 531.86,-313.05 510.38,-300.34"/>
<polygon fill="#63b8ff" stroke="#63b8ff" points="657.28,-389.78 667.72,-391.6 660.7,-383.67 657.28,-389.78"/>
</a>
</g>
</g>
<!-- Node26&#45;&gt;Node10 -->
<g id="edge39_Node000026_Node000010" class="edge">
<title>Node26&#45;&gt;Node10</title>
<g id="a_edge39_Node000026_Node000010"><a xlink:title=" ">
<path fill="none" stroke="#63b8ff" d="M743.68,-388.17C763.23,-381.38 783.82,-371.19 798.62,-356 820.12,-333.95 822.62,-321.8 822.62,-291 822.62,-291 822.62,-291 822.62,-233 822.62,-193.8 800.8,-150.84 790.23,-132.33"/>
<polygon fill="#63b8ff" stroke="#63b8ff" points="742.74,-385.12 734.28,-391.51 744.88,-391.78 742.74,-385.12"/>
</a>
</g>
</g>
<!-- Node26&#45;&gt;Node14 -->
<g id="edge45_Node000026_Node000014" class="edge">
<title>Node26&#45;&gt;Node14</title>
<g id="a_edge45_Node000026_Node000014"><a xlink:title=" ">
<path fill="none" stroke="#63b8ff" d="M728.24,-387.21C742.72,-380.26 757.32,-370.19 765.62,-356 795.24,-305.36 792.08,-276.36 765.62,-224 746.7,-186.55 728.63,-183.46 689.62,-168 636.88,-147.09 483.84,-133.86 390.68,-127.49"/>
<polygon fill="#63b8ff" stroke="#63b8ff" points="727.08,-384.34 719.31,-391.54 729.88,-390.75 727.08,-384.34"/>
</a>
</g>
</g>
<!-- Node27 -->
<g id="Node000027" class="node">
<title>Node27</title>
<g id="a_Node000027"><a xlink:href="_status_defs_8cpp.html" target="_top" xlink:title=" ">
<polygon fill="white" stroke="#666666" points="756.62,-356 614.62,-356 614.62,-336 756.62,-336 756.62,-356"/>
<text text-anchor="middle" x="685.62" y="-342.5" font-family="Helvetica,sans-Serif" font-size="10.00">ExoCode/src/StatusDefs.cpp</text>
</a>
</g>
</g>
<!-- Node26&#45;&gt;Node27 -->
<g id="edge41_Node000026_Node000027" class="edge">
<title>Node26&#45;&gt;Node27</title>
<g id="a_edge41_Node000026_Node000027"><a xlink:title=" ">
<path fill="none" stroke="#63b8ff" d="M685.62,-380.71C685.62,-372.32 685.62,-363.01 685.62,-356.3"/>
<polygon fill="#63b8ff" stroke="#63b8ff" points="682.13,-380.59 685.62,-390.59 689.13,-380.59 682.13,-380.59"/>
</a>
</g>
</g>
<!-- Node26&#45;&gt;Node28 -->
<g id="edge42_Node000026_Node000028" class="edge">
<title>Node26&#45;&gt;Node28</title>
<g id="a_edge42_Node000026_Node000028"><a xlink:title=" ">
<path fill="none" stroke="#63b8ff" d="M736.25,-389.06C777.87,-379.25 836.07,-365.52 874.52,-356.46"/>
<polygon fill="#63b8ff" stroke="#63b8ff" points="735.71,-385.83 726.78,-391.53 737.31,-392.64 735.71,-385.83"/>
</a>
</g>
</g>
<!-- Node28&#45;&gt;Node8 -->
<g id="edge44_Node000028_Node000008" class="edge">
<title>Node28&#45;&gt;Node8</title>
<g id="a_edge44_Node000028_Node000008"><a xlink:title=" ">
<path fill="none" stroke="#63b8ff" d="M839.74,-335.37C758.59,-324.94 630.64,-308.49 555.45,-298.82"/>
<polygon fill="#63b8ff" stroke="#63b8ff" points="839.01,-338.94 849.38,-336.74 839.91,-331.99 839.01,-338.94"/>
</a>
</g>
</g>
<!-- Node28&#45;&gt;Node10 -->
<g id="edge43_Node000028_Node000010" class="edge">
<title>Node28&#45;&gt;Node10</title>
<g id="a_edge43_Node000028_Node000010"><a xlink:title=" ">
<path fill="none" stroke="#63b8ff" d="M909.1,-325.33C898.81,-291 874.29,-218.98 836.62,-168 825.98,-153.6 809.96,-140.62 798.51,-132.35"/>
<polygon fill="#63b8ff" stroke="#63b8ff" points="905.99,-326.17 912.14,-334.8 912.71,-324.22 905.99,-326.17"/>
</a>
</g>
</g>
</g>
</svg>

<g id="navigator" transform="translate(0 0)" fill="#404254">
  <rect fill="#f2f5e9" fill-opacity="0.5" stroke="#606060" stroke-width=".5" x="0" y="0" width="60" height="60"/>
  <use id="zoomplus" xlink:href="#zoomPlus" x="17" y="9" onmousedown="handleZoom(evt,'in')"/>
  <use id="zoomminus" xlink:href="#zoomMin" x="42" y="9" onmousedown="handleZoom(evt,'out')"/>
  <use id="reset" xlink:href="#resetDef" x="30" y="36" onmousedown="handleReset()"/>
   <use id="arrowup" xlink:href="#arrowUp" x="0" y="0" onmousedown="handlePan(0,-1)"/>
  <use id="arrowright" xlink:href="#arrowRight" x="0" y="0" onmousedown="handlePan(1,0)"/>
  <use id="arrowdown" xlink:href="#arrowDown" x="0" y="0" onmousedown="handlePan(0,1)"/>
  <use id="arrowleft" xlink:href="#arrowLeft" x="0" y="0" onmousedown="handlePan(-1,0)"/>
</g>
<svg viewBox="0 0 15 15" width="100%" height="30px" preserveAspectRatio="xMaxYMin meet">
 <g id="arrow_out" transform="scale(0.3 0.3)">
  <a xlink:href="_board_8h__dep__incl_org.svg" target="_base">
   <rect id="button" ry="5" rx="5" y="6" x="6" height="38" width="38"
        fill="#f2f5e9" fill-opacity="0.5" stroke="#606060" stroke-width="1.0"/>
   <path id="arrow"
     d="M 11.500037,31.436501 C 11.940474,20.09759 22.043105,11.32322 32.158766,21.979434 L 37.068811,17.246167 C 37.068811,17.246167 37.088388,32 37.088388,32 L 22.160133,31.978069 C 22.160133,31.978069 26.997745,27.140456 26.997745,27.140456 C 18.528582,18.264221 13.291696,25.230495 11.500037,31.436501 z"
     style="fill:#404040;"/>
  </a>
 </g>
</svg>

<style type='text/css'>
<![CDATA[
[data-mouse-over-selected='false'] { opacity: 0.7; }
[data-mouse-over-selected='true']  { opacity: 1.0; }
]]>
</style>
<script type="application/ecmascript"><![CDATA[
document.addEventListener('DOMContentLoaded', (event) => {
  highlightEdges();
  highlightAdjacentNodes();
});
]]></script>
</svg>
