<?xml version="1.0" encoding="UTF-8" standalone="no"?>
<!DOCTYPE svg PUBLIC "-//W3C//DTD SVG 1.1//EN"
 "http://www.w3.org/Graphics/SVG/1.1/DTD/svg11.dtd">
<!-- Generated by graphviz version 8.1.0 (20230707.0739)
 -->
<!-- Title: ExoCode/src/CAN.h Pages: 1 -->
<svg width="239pt" height="196pt"
 viewBox="0.00 0.00 239.38 196.00" xmlns="http://www.w3.org/2000/svg" xmlns:xlink="http://www.w3.org/1999/xlink">

<svg id="main" version="1.1" xmlns="http://www.w3.org/2000/svg" xmlns:xlink="http://www.w3.org/1999/xlink" xml:space="preserve" onload="init(evt)">
<style type="text/css"><![CDATA[
.node, .edge {opacity: 0.7;}
.node.selected, .edge.selected {opacity: 1;}
.edge:hover path { stroke: red; }
.edge:hover polygon { stroke: red; fill: red; }
]]></style>
<script type="application/ecmascript" xlink:href="svg.min.js"/>
<svg id="graph" class="graph">
<g id="graph0" class="graph" transform="scale(1 1) rotate(0) translate(4 192)">
<title>ExoCode/src/CAN.h</title>
<!-- Node1 -->
<g id="Node000001" class="node">
<title>Node1</title>
<g id="a_Node000001"><a xlink:title=" ">
<polygon fill="#999999" stroke="#666666" points="231.38,-188 127.62,-188 127.62,-168 231.38,-168 231.38,-188"/>
<text text-anchor="middle" x="179.5" y="-174.5" font-family="Helvetica,sans-Serif" font-size="10.00">ExoCode/src/CAN.h</text>
</a>
</g>
</g>
<!-- Node2 -->
<g id="Node000002" class="node">
<title>Node2</title>
<g id="a_Node000002"><a xlink:href="_logger_8h.html" target="_top" xlink:title=" ">
<polygon fill="white" stroke="#666666" points="159.25,-132 105.75,-132 105.75,-112 159.25,-112 159.25,-132"/>
<text text-anchor="middle" x="132.5" y="-118.5" font-family="Helvetica,sans-Serif" font-size="10.00">Logger.h</text>
</a>
</g>
</g>
<!-- Node1&#45;&gt;Node2 -->
<g id="edge1_Node000001_Node000002" class="edge">
<title>Node1&#45;&gt;Node2</title>
<g id="a_edge1_Node000001_Node000002"><a xlink:title=" ">
<path fill="none" stroke="#63b8ff" d="M171.31,-167.59C164.84,-160.16 155.63,-149.58 147.8,-140.58"/>
<polygon fill="#63b8ff" stroke="#63b8ff" points="149.8,-138.54 140.59,-133.3 144.52,-143.14 149.8,-138.54"/>
</a>
</g>
</g>
<!-- Node3 -->
<g id="Node000003" class="node">
<title>Node3</title>
<g id="a_Node000003"><a xlink:title=" ">
<polygon fill="#e0e0e0" stroke="#999999" points="218.12,-20 160.88,-20 160.88,0 218.12,0 218.12,-20"/>
<text text-anchor="middle" x="189.5" y="-6.5" font-family="Helvetica,sans-Serif" font-size="10.00">Arduino.h</text>
</a>
</g>
</g>
<!-- Node1&#45;&gt;Node3 -->
<g id="edge8_Node000001_Node000003" class="edge">
<title>Node1&#45;&gt;Node3</title>
<g id="a_edge8_Node000001_Node000003"><a xlink:title=" ">
<path fill="none" stroke="#63b8ff" d="M180.58,-167.55C182.56,-149.69 186.74,-109.75 188.5,-76 189.28,-60.97 189.52,-43.96 189.57,-31.11"/>
<polygon fill="#63b8ff" stroke="#63b8ff" points="193.07,-31.26 189.57,-21.26 186.07,-31.26 193.07,-31.26"/>
</a>
</g>
</g>
<!-- Node2&#45;&gt;Node3 -->
<g id="edge2_Node000002_Node000003" class="edge">
<title>Node2&#45;&gt;Node3</title>
<g id="a_edge2_Node000002_Node000003"><a xlink:title=" ">
<path fill="none" stroke="#63b8ff" d="M142.58,-111.53C151.13,-102.99 163.15,-89.69 170.5,-76 178.16,-61.74 183.07,-44.02 185.98,-30.68"/>
<polygon fill="#63b8ff" stroke="#63b8ff" points="189.53,-31.78 188.04,-21.29 182.66,-30.42 189.53,-31.78"/>
</a>
</g>
</g>
<!-- Node4 -->
<g id="Node000004" class="node">
<title>Node4</title>
<g id="a_Node000004"><a xlink:href="_log_levels_8h.html" target="_top" xlink:title=" ">
<polygon fill="white" stroke="#666666" points="67,-20 0,-20 0,0 67,0 67,-20"/>
<text text-anchor="middle" x="33.5" y="-6.5" font-family="Helvetica,sans-Serif" font-size="10.00">LogLevels.h</text>
</a>
</g>
</g>
<!-- Node2&#45;&gt;Node4 -->
<g id="edge3_Node000002_Node000004" class="edge">
<title>Node2&#45;&gt;Node4</title>
<g id="a_edge3_Node000002_Node000004"><a xlink:title=" ">
<path fill="none" stroke="#63b8ff" d="M105.69,-118.01C80.21,-113.59 43.23,-102.69 25.5,-76 16.56,-62.55 20.01,-44.02 24.84,-30.18"/>
<polygon fill="#63b8ff" stroke="#63b8ff" points="28.34,-31.86 28.81,-21.28 21.84,-29.26 28.34,-31.86"/>
</a>
</g>
</g>
<!-- Node5 -->
<g id="Node000005" class="node">
<title>Node5</title>
<g id="a_Node000005"><a xlink:href="_config_8h.html" target="_top" xlink:title=" ">
<polygon fill="white" stroke="#666666" points="86.12,-76 34.88,-76 34.88,-56 86.12,-56 86.12,-76"/>
<text text-anchor="middle" x="60.5" y="-62.5" font-family="Helvetica,sans-Serif" font-size="10.00">Config.h</text>
</a>
</g>
</g>
<!-- Node2&#45;&gt;Node5 -->
<g id="edge4_Node000002_Node000005" class="edge">
<title>Node2&#45;&gt;Node5</title>
<g id="a_edge4_Node000002_Node000005"><a xlink:title=" ">
<path fill="none" stroke="#63b8ff" d="M119.96,-111.59C109.32,-103.62 93.85,-92.02 81.36,-82.64"/>
<polygon fill="#63b8ff" stroke="#63b8ff" points="84,-79.5 73.9,-76.3 79.8,-85.1 84,-79.5"/>
</a>
</g>
</g>
<!-- Node6 -->
<g id="Node000006" class="node">
<title>Node6</title>
<g id="a_Node000006"><a xlink:title=" ">
<polygon fill="#e0e0e0" stroke="#999999" points="161.12,-76 103.88,-76 103.88,-56 161.12,-56 161.12,-76"/>
<text text-anchor="middle" x="132.5" y="-62.5" font-family="Helvetica,sans-Serif" font-size="10.00">functional</text>
</a>
</g>
</g>
<!-- Node2&#45;&gt;Node6 -->
<g id="edge7_Node000002_Node000006" class="edge">
<title>Node2&#45;&gt;Node6</title>
<g id="a_edge7_Node000002_Node000006"><a xlink:title=" ">
<path fill="none" stroke="#63b8ff" d="M132.5,-111.59C132.5,-104.86 132.5,-95.53 132.5,-87.15"/>
<polygon fill="#63b8ff" stroke="#63b8ff" points="136,-87.3 132.5,-77.3 129,-87.3 136,-87.3"/>
</a>
</g>
</g>
<!-- Node5&#45;&gt;Node3 -->
<g id="edge5_Node000005_Node000003" class="edge">
<title>Node5&#45;&gt;Node3</title>
<g id="a_edge5_Node000005_Node000003"><a xlink:title=" ">
<path fill="none" stroke="#63b8ff" d="M82.97,-55.59C103.38,-47.05 133.73,-34.35 156.82,-24.68"/>
<polygon fill="#63b8ff" stroke="#63b8ff" points="157.98,-27.57 165.85,-20.48 155.28,-21.11 157.98,-27.57"/>
</a>
</g>
</g>
<!-- Node5&#45;&gt;Node4 -->
<g id="edge6_Node000005_Node000004" class="edge">
<title>Node5&#45;&gt;Node4</title>
<g id="a_edge6_Node000005_Node000004"><a xlink:title=" ">
<path fill="none" stroke="#63b8ff" d="M55.8,-55.59C52.27,-48.55 47.33,-38.67 43,-30"/>
<polygon fill="#63b8ff" stroke="#63b8ff" points="45.75,-28.68 38.15,-21.3 39.49,-31.81 45.75,-28.68"/>
</a>
</g>
</g>
</g>
</svg>
</svg>

<style type='text/css'>
<![CDATA[
[data-mouse-over-selected='false'] { opacity: 0.7; }
[data-mouse-over-selected='true']  { opacity: 1.0; }
]]>
</style>
<script type="application/ecmascript"><![CDATA[
document.addEventListener('DOMContentLoaded', (event) => {
  highlightEdges();
  highlightAdjacentNodes();
});
]]></script>
</svg>
