<?xml version="1.0" encoding="UTF-8" standalone="no"?>
<!DOCTYPE svg PUBLIC "-//W3C//DTD SVG 1.1//EN"
 "http://www.w3.org/Graphics/SVG/1.1/DTD/svg11.dtd">
<!-- Generated by graphviz version 8.1.0 (20230707.0739)
 -->
<!-- Title: ExoCode/src/ComsMCU.h Pages: 1 -->
<svg width="1379pt" height="420pt"
 viewBox="0.00 0.00 1378.62 420.00" xmlns="http://www.w3.org/2000/svg" xmlns:xlink="http://www.w3.org/1999/xlink">
<g id="graph0" class="graph" transform="scale(1 1) rotate(0) translate(4 416)">
<title>ExoCode/src/ComsMCU.h</title>
<!-- Node1 -->
<g id="Node000001" class="node">
<title>Node1</title>
<g id="a_Node000001"><a xlink:title="The top of the composite structure for the communication microcontroller. This class manages the blue...">
<polygon fill="#999999" stroke="#666666" points="1178.88,-412 1048.12,-412 1048.12,-392 1178.88,-392 1178.88,-412"/>
<text text-anchor="middle" x="1113.5" y="-398.5" font-family="Helvetica,sans-Serif" font-size="10.00">ExoCode/src/ComsMCU.h</text>
</a>
</g>
</g>
<!-- Node2 -->
<g id="Node000002" class="node">
<title>Node2</title>
<g id="a_Node000002"><a xlink:title=" ">
<polygon fill="#e0e0e0" stroke="#999999" points="411.12,-20 353.88,-20 353.88,0 411.12,0 411.12,-20"/>
<text text-anchor="middle" x="382.5" y="-6.5" font-family="Helvetica,sans-Serif" font-size="10.00">Arduino.h</text>
</a>
</g>
</g>
<!-- Node1&#45;&gt;Node2 -->
<g id="edge1_Node000001_Node000002" class="edge">
<title>Node1&#45;&gt;Node2</title>
<g id="a_edge1_Node000001_Node000002"><a xlink:title=" ">
<path fill="none" stroke="#63b8ff" d="M1047.76,-400.88C821.31,-399.6 87.5,-387.96 87.5,-291 87.5,-291 87.5,-291 87.5,-121 87.5,-84 107.76,-75.01 139.5,-56 203.32,-17.78 292.16,-10.69 342.85,-10.09"/>
<polygon fill="#63b8ff" stroke="#63b8ff" points="342.68,-13.59 352.67,-10.06 342.66,-6.59 342.68,-13.59"/>
</a>
</g>
</g>
<!-- Node3 -->
<g id="Node000003" class="node">
<title>Node3</title>
<g id="a_Node000003"><a xlink:href="_exo_b_l_e_8h.html" target="_top" xlink:title="Class to handle all bluetooth work. This include initialization, advertising, connection,...">
<polygon fill="white" stroke="#666666" points="1219.62,-356 1159.38,-356 1159.38,-336 1219.62,-336 1219.62,-356"/>
<text text-anchor="middle" x="1189.5" y="-342.5" font-family="Helvetica,sans-Serif" font-size="10.00">ExoBLE.h</text>
</a>
</g>
</g>
<!-- Node1&#45;&gt;Node3 -->
<g id="edge2_Node000001_Node000003" class="edge">
<title>Node1&#45;&gt;Node3</title>
<g id="a_edge2_Node000001_Node000003"><a xlink:title=" ">
<path fill="none" stroke="#63b8ff" d="M1126.74,-391.59C1137.89,-383.67 1154.09,-372.16 1167.24,-362.82"/>
<polygon fill="#63b8ff" stroke="#63b8ff" points="1169.03,-365.12 1175.16,-356.48 1164.98,-359.42 1169.03,-365.12"/>
</a>
</g>
</g>
<!-- Node4 -->
<g id="Node000004" class="node">
<title>Node4</title>
<g id="a_Node000004"><a xlink:href="_battery_8h.html" target="_top" xlink:title=" ">
<polygon fill="white" stroke="#666666" points="1141.38,-356 1085.62,-356 1085.62,-336 1141.38,-336 1141.38,-356"/>
<text text-anchor="middle" x="1113.5" y="-342.5" font-family="Helvetica,sans-Serif" font-size="10.00">Battery.h</text>
</a>
</g>
</g>
<!-- Node1&#45;&gt;Node4 -->
<g id="edge3_Node000001_Node000004" class="edge">
<title>Node1&#45;&gt;Node4</title>
<g id="a_edge3_Node000001_Node000004"><a xlink:title=" ">
<path fill="none" stroke="#63b8ff" d="M1113.5,-391.59C1113.5,-384.86 1113.5,-375.53 1113.5,-367.15"/>
<polygon fill="#63b8ff" stroke="#63b8ff" points="1117,-367.3 1113.5,-357.3 1110,-367.3 1117,-367.3"/>
</a>
</g>
</g>
<!-- Node6 -->
<g id="Node000006" class="node">
<title>Node6</title>
<g id="a_Node000006"><a xlink:href="_ble_message_8h.html" target="_top" xlink:title="Defines the BleMessage class used to hold command&#45;data pairs exchanged between the GUI.">
<polygon fill="white" stroke="#666666" points="1370.62,-300 1292.38,-300 1292.38,-280 1370.62,-280 1370.62,-300"/>
<text text-anchor="middle" x="1331.5" y="-286.5" font-family="Helvetica,sans-Serif" font-size="10.00">BleMessage.h</text>
</a>
</g>
</g>
<!-- Node1&#45;&gt;Node6 -->
<g id="edge6_Node000001_Node000006" class="edge">
<title>Node1&#45;&gt;Node6</title>
<g id="a_edge6_Node000001_Node000006"><a xlink:title=" ">
<path fill="none" stroke="#63b8ff" d="M1179.12,-397.86C1242.4,-393.29 1331.71,-382.26 1353.5,-356 1364.63,-342.59 1355.86,-323.29 1346.3,-309.2"/>
<polygon fill="#63b8ff" stroke="#63b8ff" points="1348.55,-307.37 1339.79,-301.42 1342.93,-311.54 1348.55,-307.37"/>
</a>
</g>
</g>
<!-- Node8 -->
<g id="Node000008" class="node">
<title>Node8</title>
<g id="a_Node000008"><a xlink:href="_parse_ini_8h.html" target="_top" xlink:title="Declares the functions needed and defines mapping between the INI keys and the exo components.">
<polygon fill="white" stroke="#666666" points="917.25,-132 857.75,-132 857.75,-112 917.25,-112 917.25,-132"/>
<text text-anchor="middle" x="887.5" y="-118.5" font-family="Helvetica,sans-Serif" font-size="10.00">ParseIni.h</text>
</a>
</g>
</g>
<!-- Node1&#45;&gt;Node8 -->
<g id="edge8_Node000001_Node000008" class="edge">
<title>Node1&#45;&gt;Node8</title>
<g id="a_edge8_Node000001_Node000008"><a xlink:title=" ">
<path fill="none" stroke="#63b8ff" d="M1104.03,-391.82C1095.69,-383.26 1083.78,-369.77 1076.5,-356 1062.43,-329.39 1057.5,-321.1 1057.5,-291 1057.5,-291 1057.5,-291 1057.5,-233 1057.5,-171.59 978.35,-142.77 928.06,-130.66"/>
<polygon fill="#63b8ff" stroke="#63b8ff" points="929.03,-127.06 918.5,-128.25 927.48,-133.89 929.03,-127.06"/>
</a>
</g>
</g>
<!-- Node10 -->
<g id="Node000010" class="node">
<title>Node10</title>
<g id="a_Node000010"><a xlink:href="_exo_data_8h.html" target="_top" xlink:title="Declares a class used to store data for the Exo to access.">
<polygon fill="white" stroke="#666666" points="574.38,-356 512.62,-356 512.62,-336 574.38,-336 574.38,-356"/>
<text text-anchor="middle" x="543.5" y="-342.5" font-family="Helvetica,sans-Serif" font-size="10.00">ExoData.h</text>
</a>
</g>
</g>
<!-- Node1&#45;&gt;Node10 -->
<g id="edge10_Node000001_Node000010" class="edge">
<title>Node1&#45;&gt;Node10</title>
<g id="a_edge10_Node000001_Node000010"><a xlink:title=" ">
<path fill="none" stroke="#63b8ff" d="M1047.84,-394.78C929.45,-383.56 683.43,-360.26 585.27,-350.96"/>
<polygon fill="#63b8ff" stroke="#63b8ff" points="585.88,-347.4 575.59,-349.95 585.22,-354.37 585.88,-347.4"/>
</a>
</g>
</g>
<!-- Node23 -->
<g id="Node000023" class="node">
<title>Node23</title>
<g id="a_Node000023"><a xlink:href="_ble_message_queue_8h.html" target="_top" xlink:title="Defines a FIFO queue for the BLEMessage type. The maximum size is specified in the cpp.">
<polygon fill="white" stroke="#666666" points="1344.88,-356 1238.12,-356 1238.12,-336 1344.88,-336 1344.88,-356"/>
<text text-anchor="middle" x="1291.5" y="-342.5" font-family="Helvetica,sans-Serif" font-size="10.00">BleMessageQueue.h</text>
</a>
</g>
</g>
<!-- Node1&#45;&gt;Node23 -->
<g id="edge50_Node000001_Node000023" class="edge">
<title>Node1&#45;&gt;Node23</title>
<g id="a_edge50_Node000001_Node000023"><a xlink:title=" ">
<path fill="none" stroke="#63b8ff" d="M1144.51,-391.59C1173.68,-382.74 1217.58,-369.43 1249.81,-359.65"/>
<polygon fill="#63b8ff" stroke="#63b8ff" points="1250.7,-362.73 1259.25,-356.48 1248.67,-356.03 1250.7,-362.73"/>
</a>
</g>
</g>
<!-- Node5 -->
<g id="Node000005" class="node">
<title>Node5</title>
<g id="a_Node000005"><a xlink:href="_i2_c_handler_8h.html" target="_top" xlink:title=" ">
<polygon fill="white" stroke="#666666" points="1163.25,-132 1091.75,-132 1091.75,-112 1163.25,-112 1163.25,-132"/>
<text text-anchor="middle" x="1127.5" y="-118.5" font-family="Helvetica,sans-Serif" font-size="10.00">I2CHandler.h</text>
</a>
</g>
</g>
<!-- Node4&#45;&gt;Node5 -->
<g id="edge4_Node000004_Node000005" class="edge">
<title>Node4&#45;&gt;Node5</title>
<g id="a_edge4_Node000004_Node000005"><a xlink:title=" ">
<path fill="none" stroke="#63b8ff" d="M1114.08,-335.74C1116.17,-302.6 1123.32,-189.35 1126.24,-143.01"/>
<polygon fill="#63b8ff" stroke="#63b8ff" points="1129.78,-143.5 1126.91,-133.3 1122.79,-143.06 1129.78,-143.5"/>
</a>
</g>
</g>
<!-- Node5&#45;&gt;Node2 -->
<g id="edge5_Node000005_Node000002" class="edge">
<title>Node5&#45;&gt;Node2</title>
<g id="a_edge5_Node000005_Node000002"><a xlink:title=" ">
<path fill="none" stroke="#63b8ff" d="M1122.79,-111.85C1114.62,-97.07 1096.3,-68.36 1071.5,-56 1013.39,-27.03 560.13,-14.87 422.2,-11.81"/>
<polygon fill="#63b8ff" stroke="#63b8ff" points="422.4,-8.29 412.33,-11.57 422.25,-15.29 422.4,-8.29"/>
</a>
</g>
</g>
<!-- Node7 -->
<g id="Node000007" class="node">
<title>Node7</title>
<g id="a_Node000007"><a xlink:title=" ">
<polygon fill="#e0e0e0" stroke="#999999" points="1352.25,-244 1310.75,-244 1310.75,-224 1352.25,-224 1352.25,-244"/>
<text text-anchor="middle" x="1331.5" y="-230.5" font-family="Helvetica,sans-Serif" font-size="10.00">vector</text>
</a>
</g>
</g>
<!-- Node6&#45;&gt;Node7 -->
<g id="edge7_Node000006_Node000007" class="edge">
<title>Node6&#45;&gt;Node7</title>
<g id="a_edge7_Node000006_Node000007"><a xlink:title=" ">
<path fill="none" stroke="#63b8ff" d="M1331.5,-279.59C1331.5,-272.86 1331.5,-263.53 1331.5,-255.15"/>
<polygon fill="#63b8ff" stroke="#63b8ff" points="1335,-255.3 1331.5,-245.3 1328,-255.3 1335,-255.3"/>
</a>
</g>
</g>
<!-- Node9 -->
<g id="Node000009" class="node">
<title>Node9</title>
<g id="a_Node000009"><a xlink:title=" ">
<polygon fill="#e0e0e0" stroke="#999999" points="882.62,-76 834.38,-76 834.38,-56 882.62,-56 882.62,-76"/>
<text text-anchor="middle" x="858.5" y="-62.5" font-family="Helvetica,sans-Serif" font-size="10.00">stdint.h</text>
</a>
</g>
</g>
<!-- Node8&#45;&gt;Node9 -->
<g id="edge9_Node000008_Node000009" class="edge">
<title>Node8&#45;&gt;Node9</title>
<g id="a_edge9_Node000008_Node000009"><a xlink:title=" ">
<path fill="none" stroke="#63b8ff" d="M882.45,-111.59C878.62,-104.47 873.24,-94.45 868.55,-85.72"/>
<polygon fill="#63b8ff" stroke="#63b8ff" points="871.31,-84.45 863.49,-77.3 865.14,-87.76 871.31,-84.45"/>
</a>
</g>
</g>
<!-- Node10&#45;&gt;Node2 -->
<g id="edge11_Node000010_Node000002" class="edge">
<title>Node10&#45;&gt;Node2</title>
<g id="a_edge11_Node000010_Node000002"><a xlink:title=" ">
<path fill="none" stroke="#63b8ff" d="M512.42,-343.52C415.55,-338.05 125.5,-315.01 125.5,-235 125.5,-235 125.5,-235 125.5,-121 125.5,-27.71 270.39,-12.5 342.59,-10.71"/>
<polygon fill="#63b8ff" stroke="#63b8ff" points="342.58,-14.19 352.52,-10.53 342.46,-7.19 342.58,-14.19"/>
</a>
</g>
</g>
<!-- Node10&#45;&gt;Node8 -->
<g id="edge41_Node000010_Node000008" class="edge">
<title>Node10&#45;&gt;Node8</title>
<g id="a_edge41_Node000010_Node000008"><a xlink:title=" ">
<path fill="none" stroke="#63b8ff" d="M574.65,-341.95C616.01,-337.08 690.67,-325.37 749.5,-300 822.03,-268.72 857.27,-260.98 887.5,-188 893.39,-173.79 893,-156.29 891.36,-143.03"/>
<polygon fill="#63b8ff" stroke="#63b8ff" points="894.67,-142.58 889.64,-133.26 887.76,-143.68 894.67,-142.58"/>
</a>
</g>
</g>
<!-- Node10&#45;&gt;Node9 -->
<g id="edge40_Node000010_Node000009" class="edge">
<title>Node10&#45;&gt;Node9</title>
<g id="a_edge40_Node000010_Node000009"><a xlink:title=" ">
<path fill="none" stroke="#63b8ff" d="M574.73,-341.52C621.51,-335.78 712.23,-322.68 786.5,-300 906.06,-263.5 975.93,-292.52 1044.5,-188 1085.45,-125.58 957.82,-88.33 893.37,-73.91"/>
<polygon fill="#63b8ff" stroke="#63b8ff" points="894.38,-70.33 883.86,-71.63 892.9,-77.17 894.38,-70.33"/>
</a>
</g>
</g>
<!-- Node11 -->
<g id="Node000011" class="node">
<title>Node11</title>
<g id="a_Node000011"><a xlink:href="_leg_data_8h.html" target="_top" xlink:title="Declares a class used to store data for leg to access.">
<polygon fill="white" stroke="#666666" points="740.62,-300 680.38,-300 680.38,-280 740.62,-280 740.62,-300"/>
<text text-anchor="middle" x="710.5" y="-286.5" font-family="Helvetica,sans-Serif" font-size="10.00">LegData.h</text>
</a>
</g>
</g>
<!-- Node10&#45;&gt;Node11 -->
<g id="edge12_Node000010_Node000011" class="edge">
<title>Node10&#45;&gt;Node11</title>
<g id="a_edge12_Node000010_Node000011"><a xlink:title=" ">
<path fill="none" stroke="#63b8ff" d="M572.59,-335.59C599.84,-326.78 640.79,-313.54 670.99,-303.78"/>
<polygon fill="#63b8ff" stroke="#63b8ff" points="671.75,-306.89 680.18,-300.48 669.59,-300.23 671.75,-306.89"/>
</a>
</g>
</g>
<!-- Node14 -->
<g id="Node000014" class="node">
<title>Node14</title>
<g id="a_Node000014"><a xlink:href="_board_8h.html" target="_top" xlink:title=" ">
<polygon fill="white" stroke="#666666" points="377.38,-132 327.62,-132 327.62,-112 377.38,-112 377.38,-132"/>
<text text-anchor="middle" x="352.5" y="-118.5" font-family="Helvetica,sans-Serif" font-size="10.00">Board.h</text>
</a>
</g>
</g>
<!-- Node10&#45;&gt;Node14 -->
<g id="edge42_Node000010_Node000014" class="edge">
<title>Node10&#45;&gt;Node14</title>
<g id="a_edge42_Node000010_Node000014"><a xlink:title=" ">
<path fill="none" stroke="#63b8ff" d="M525.19,-335.55C495.78,-319.69 437.35,-285.37 398.5,-244 378.57,-222.78 374.87,-215.21 364.5,-188 358.93,-173.39 355.89,-155.91 354.26,-142.76"/>
<polygon fill="#63b8ff" stroke="#63b8ff" points="357.67,-142.69 353.14,-133.11 350.71,-143.42 357.67,-142.69"/>
</a>
</g>
</g>
<!-- Node21 -->
<g id="Node000021" class="node">
<title>Node21</title>
<g id="a_Node000021"><a xlink:href="_status_led_8h.html" target="_top" xlink:title="Class to set an RGB LED to different colors based on the state of the system.">
<polygon fill="white" stroke="#666666" points="297.75,-244 229.25,-244 229.25,-224 297.75,-224 297.75,-244"/>
<text text-anchor="middle" x="263.5" y="-230.5" font-family="Helvetica,sans-Serif" font-size="10.00">StatusLed.h</text>
</a>
</g>
</g>
<!-- Node10&#45;&gt;Node21 -->
<g id="edge43_Node000010_Node000021" class="edge">
<title>Node10&#45;&gt;Node21</title>
<g id="a_edge43_Node000010_Node000021"><a xlink:title=" ">
<path fill="none" stroke="#63b8ff" d="M512.33,-345.43C466.06,-344.7 377.93,-337.89 315.5,-300 297.03,-288.79 282.4,-268.51 273.42,-253.57"/>
<polygon fill="#63b8ff" stroke="#63b8ff" points="276.11,-252.22 268.13,-245.26 270.03,-255.68 276.11,-252.22"/>
</a>
</g>
</g>
<!-- Node22 -->
<g id="Node000022" class="node">
<title>Node22</title>
<g id="a_Node000022"><a xlink:href="_status_defs_8h.html" target="_top" xlink:title="Stores the different status messages for the system.">
<polygon fill="white" stroke="#666666" points="225.62,-188 153.38,-188 153.38,-168 225.62,-168 225.62,-188"/>
<text text-anchor="middle" x="189.5" y="-174.5" font-family="Helvetica,sans-Serif" font-size="10.00">StatusDefs.h</text>
</a>
</g>
</g>
<!-- Node10&#45;&gt;Node22 -->
<g id="edge49_Node000010_Node000022" class="edge">
<title>Node10&#45;&gt;Node22</title>
<g id="a_edge49_Node000010_Node000022"><a xlink:title=" ">
<path fill="none" stroke="#63b8ff" d="M512.31,-344.45C462.88,-342.51 364.45,-334.24 289.5,-300 253.58,-283.59 244.93,-275.03 220.5,-244 209.62,-230.19 201.34,-211.94 196.09,-198.29"/>
<polygon fill="#63b8ff" stroke="#63b8ff" points="199.09,-197.32 192.39,-189.11 192.51,-199.7 199.09,-197.32"/>
</a>
</g>
</g>
<!-- Node11&#45;&gt;Node2 -->
<g id="edge13_Node000011_Node000002" class="edge">
<title>Node11&#45;&gt;Node2</title>
<g id="a_edge13_Node000011_Node000002"><a xlink:title=" ">
<path fill="none" stroke="#63b8ff" d="M740.83,-284.06C772.32,-278.01 822.21,-265.77 860.5,-244 920.54,-209.86 967.43,-176.41 942.5,-112 930.35,-80.61 921.66,-70.95 891.5,-56 809.25,-15.23 527.32,-10.97 422.33,-10.83"/>
<polygon fill="#63b8ff" stroke="#63b8ff" points="422.57,-7.33 412.57,-10.83 422.57,-14.33 422.57,-7.33"/>
</a>
</g>
</g>
<!-- Node11&#45;&gt;Node8 -->
<g id="edge33_Node000011_Node000008" class="edge">
<title>Node11&#45;&gt;Node8</title>
<g id="a_edge33_Node000011_Node000008"><a xlink:title=" ">
<path fill="none" stroke="#63b8ff" d="M735.34,-279.51C770,-265.01 832.54,-234.1 867.5,-188 877.43,-174.9 882.48,-156.83 885.01,-143.06"/>
<polygon fill="#63b8ff" stroke="#63b8ff" points="888.6,-143.72 886.65,-133.31 881.68,-142.66 888.6,-143.72"/>
</a>
</g>
</g>
<!-- Node11&#45;&gt;Node9 -->
<g id="edge39_Node000011_Node000009" class="edge">
<title>Node11&#45;&gt;Node9</title>
<g id="a_edge39_Node000011_Node000009"><a xlink:title=" ">
<path fill="none" stroke="#63b8ff" d="M741,-281.59C766.53,-274.49 803.21,-262.16 831.5,-244 886.43,-208.74 906.95,-194.28 926.5,-132 929.16,-123.52 930.71,-119.83 926.5,-112 919.18,-98.39 905.74,-88.2 892.73,-80.99"/>
<polygon fill="#63b8ff" stroke="#63b8ff" points="894.47,-77.45 883.97,-76.06 891.31,-83.69 894.47,-77.45"/>
</a>
</g>
</g>
<!-- Node12 -->
<g id="Node000012" class="node">
<title>Node12</title>
<g id="a_Node000012"><a xlink:href="_joint_data_8h.html" target="_top" xlink:title="Declares a class used to store data for joint to access.">
<polygon fill="white" stroke="#666666" points="742.88,-244 678.12,-244 678.12,-224 742.88,-224 742.88,-244"/>
<text text-anchor="middle" x="710.5" y="-230.5" font-family="Helvetica,sans-Serif" font-size="10.00">JointData.h</text>
</a>
</g>
</g>
<!-- Node11&#45;&gt;Node12 -->
<g id="edge14_Node000011_Node000012" class="edge">
<title>Node11&#45;&gt;Node12</title>
<g id="a_edge14_Node000011_Node000012"><a xlink:title=" ">
<path fill="none" stroke="#63b8ff" d="M710.5,-279.59C710.5,-272.86 710.5,-263.53 710.5,-255.15"/>
<polygon fill="#63b8ff" stroke="#63b8ff" points="714,-255.3 710.5,-245.3 707,-255.3 714,-255.3"/>
</a>
</g>
</g>
<!-- Node11&#45;&gt;Node14 -->
<g id="edge34_Node000011_Node000014" class="edge">
<title>Node11&#45;&gt;Node14</title>
<g id="a_edge34_Node000011_Node000014"><a xlink:title=" ">
<path fill="none" stroke="#63b8ff" d="M680.32,-287.5C615.39,-283.77 464.98,-272.25 423.5,-244 387.56,-219.53 367.22,-170.36 358.2,-142.83"/>
<polygon fill="#63b8ff" stroke="#63b8ff" points="361.3,-142.01 355.01,-133.49 354.62,-144.07 361.3,-142.01"/>
</a>
</g>
</g>
<!-- Node18 -->
<g id="Node000018" class="node">
<title>Node18</title>
<g id="a_Node000018"><a xlink:href="_inclination_detector_8h.html" target="_top" xlink:title=" ">
<polygon fill="white" stroke="#666666" points="536.75,-244 432.25,-244 432.25,-224 536.75,-224 536.75,-244"/>
<text text-anchor="middle" x="484.5" y="-230.5" font-family="Helvetica,sans-Serif" font-size="10.00">InclinationDetector.h</text>
</a>
</g>
</g>
<!-- Node11&#45;&gt;Node18 -->
<g id="edge35_Node000011_Node000018" class="edge">
<title>Node11&#45;&gt;Node18</title>
<g id="a_edge35_Node000011_Node000018"><a xlink:title=" ">
<path fill="none" stroke="#63b8ff" d="M680.02,-281.72C642.73,-272.81 579.09,-257.6 534.57,-246.96"/>
<polygon fill="#63b8ff" stroke="#63b8ff" points="535.51,-243.35 524.97,-244.43 533.89,-250.16 535.51,-243.35"/>
</a>
</g>
</g>
<!-- Node12&#45;&gt;Node2 -->
<g id="edge15_Node000012_Node000002" class="edge">
<title>Node12&#45;&gt;Node2</title>
<g id="a_edge15_Node000012_Node000002"><a xlink:title=" ">
<path fill="none" stroke="#63b8ff" d="M688.32,-223.57C669.29,-215.15 641.4,-202.02 618.5,-188 533.17,-135.78 440.65,-60.19 401.6,-27.31"/>
<polygon fill="#63b8ff" stroke="#63b8ff" points="404.16,-24.05 394.27,-20.26 399.64,-29.39 404.16,-24.05"/>
</a>
</g>
</g>
<!-- Node12&#45;&gt;Node8 -->
<g id="edge30_Node000012_Node000008" class="edge">
<title>Node12&#45;&gt;Node8</title>
<g id="a_edge30_Node000012_Node000008"><a xlink:title=" ">
<path fill="none" stroke="#63b8ff" d="M743.36,-227.98C772.12,-222.26 813.83,-210.6 843.5,-188 859.38,-175.91 871.49,-156.38 878.95,-141.88"/>
<polygon fill="#63b8ff" stroke="#63b8ff" points="882.33,-143.91 883.54,-133.39 876.03,-140.86 882.33,-143.91"/>
</a>
</g>
</g>
<!-- Node12&#45;&gt;Node9 -->
<g id="edge32_Node000012_Node000009" class="edge">
<title>Node12&#45;&gt;Node9</title>
<g id="a_edge32_Node000012_Node000009"><a xlink:title=" ">
<path fill="none" stroke="#63b8ff" d="M743.08,-225.24C764.71,-218.59 792.35,-206.99 810.5,-188 824.9,-172.93 843.47,-116.77 852.72,-86.55"/>
<polygon fill="#63b8ff" stroke="#63b8ff" points="856.25,-87.96 855.78,-77.37 849.55,-85.94 856.25,-87.96"/>
</a>
</g>
</g>
<!-- Node13 -->
<g id="Node000013" class="node">
<title>Node13</title>
<g id="a_Node000013"><a xlink:href="_motor_data_8h.html" target="_top" xlink:title="Declares a class used to store data for motors to access.">
<polygon fill="white" stroke="#666666" points="697.12,-188 627.88,-188 627.88,-168 697.12,-168 697.12,-188"/>
<text text-anchor="middle" x="662.5" y="-174.5" font-family="Helvetica,sans-Serif" font-size="10.00">MotorData.h</text>
</a>
</g>
</g>
<!-- Node12&#45;&gt;Node13 -->
<g id="edge16_Node000012_Node000013" class="edge">
<title>Node12&#45;&gt;Node13</title>
<g id="a_edge16_Node000012_Node000013"><a xlink:title=" ">
<path fill="none" stroke="#63b8ff" d="M702.14,-223.59C695.46,-216.08 685.93,-205.35 677.88,-196.3"/>
<polygon fill="#63b8ff" stroke="#63b8ff" points="681.02,-194.45 671.77,-189.3 675.79,-199.1 681.02,-194.45"/>
</a>
</g>
</g>
<!-- Node12&#45;&gt;Node14 -->
<g id="edge31_Node000012_Node000014" class="edge">
<title>Node12&#45;&gt;Node14</title>
<g id="a_edge31_Node000012_Node000014"><a xlink:title=" ">
<path fill="none" stroke="#63b8ff" d="M681.93,-223.53C656.41,-214.88 618.13,-201.43 585.5,-188 566.01,-179.98 562.41,-174.91 542.5,-168 490.18,-149.85 427.26,-136.54 388.57,-129.28"/>
<polygon fill="#63b8ff" stroke="#63b8ff" points="389.33,-125.68 378.86,-127.31 388.06,-132.56 389.33,-125.68"/>
</a>
</g>
</g>
<!-- Node17 -->
<g id="Node000017" class="node">
<title>Node17</title>
<g id="a_Node000017"><a xlink:href="_controller_data_8h.html" target="_top" xlink:title="Declares a class used to store data for controllers to access.">
<polygon fill="white" stroke="#666666" points="801.38,-188 715.62,-188 715.62,-168 801.38,-168 801.38,-188"/>
<text text-anchor="middle" x="758.5" y="-174.5" font-family="Helvetica,sans-Serif" font-size="10.00">ControllerData.h</text>
</a>
</g>
</g>
<!-- Node12&#45;&gt;Node17 -->
<g id="edge25_Node000012_Node000017" class="edge">
<title>Node12&#45;&gt;Node17</title>
<g id="a_edge25_Node000012_Node000017"><a xlink:title=" ">
<path fill="none" stroke="#63b8ff" d="M718.86,-223.59C725.54,-216.08 735.07,-205.35 743.12,-196.3"/>
<polygon fill="#63b8ff" stroke="#63b8ff" points="745.21,-199.1 749.23,-189.3 739.98,-194.45 745.21,-199.1"/>
</a>
</g>
</g>
<!-- Node13&#45;&gt;Node2 -->
<g id="edge17_Node000013_Node000002" class="edge">
<title>Node13&#45;&gt;Node2</title>
<g id="a_edge17_Node000013_Node000002"><a xlink:title=" ">
<path fill="none" stroke="#63b8ff" d="M661.67,-167.69C659.11,-144.78 649.18,-85.4 613.5,-56 584.77,-32.32 479.86,-19.55 421.81,-14.16"/>
<polygon fill="#63b8ff" stroke="#63b8ff" points="422.48,-10.61 412.2,-13.21 421.85,-17.58 422.48,-10.61"/>
</a>
</g>
</g>
<!-- Node13&#45;&gt;Node8 -->
<g id="edge18_Node000013_Node000008" class="edge">
<title>Node13&#45;&gt;Node8</title>
<g id="a_edge18_Node000013_Node000008"><a xlink:title=" ">
<path fill="none" stroke="#63b8ff" d="M697.16,-168.68C737.53,-158.99 804.13,-143.01 846.89,-132.75"/>
<polygon fill="#63b8ff" stroke="#63b8ff" points="847.57,-135.94 856.48,-130.2 845.94,-129.14 847.57,-135.94"/>
</a>
</g>
</g>
<!-- Node13&#45;&gt;Node9 -->
<g id="edge24_Node000013_Node000009" class="edge">
<title>Node13&#45;&gt;Node9</title>
<g id="a_edge24_Node000013_Node000009"><a xlink:title=" ">
<path fill="none" stroke="#63b8ff" d="M679.21,-167.62C713.35,-148.46 791.31,-104.71 832.27,-81.72"/>
<polygon fill="#63b8ff" stroke="#63b8ff" points="833.82,-84.3 840.83,-76.35 830.4,-78.2 833.82,-84.3"/>
</a>
</g>
</g>
<!-- Node13&#45;&gt;Node14 -->
<g id="edge19_Node000013_Node000014" class="edge">
<title>Node13&#45;&gt;Node14</title>
<g id="a_edge19_Node000013_Node000014"><a xlink:title=" ">
<path fill="none" stroke="#63b8ff" d="M627.54,-170.91C568.19,-160.57 448.32,-139.69 388.36,-129.25"/>
<polygon fill="#63b8ff" stroke="#63b8ff" points="389,-125.63 378.55,-127.36 387.8,-132.53 389,-125.63"/>
</a>
</g>
</g>
<!-- Node14&#45;&gt;Node2 -->
<g id="edge23_Node000014_Node000002" class="edge">
<title>Node14&#45;&gt;Node2</title>
<g id="a_edge23_Node000014_Node000002"><a xlink:title=" ">
<path fill="none" stroke="#63b8ff" d="M355.06,-111.62C359.93,-93.76 370.63,-54.53 377.14,-30.67"/>
<polygon fill="#63b8ff" stroke="#63b8ff" points="380.69,-31.92 379.95,-21.35 373.94,-30.08 380.69,-31.92"/>
</a>
</g>
</g>
<!-- Node15 -->
<g id="Node000015" class="node">
<title>Node15</title>
<g id="a_Node000015"><a xlink:href="_config_8h.html" target="_top" xlink:title=" ">
<polygon fill="white" stroke="#666666" points="59.12,-76 7.88,-76 7.88,-56 59.12,-56 59.12,-76"/>
<text text-anchor="middle" x="33.5" y="-62.5" font-family="Helvetica,sans-Serif" font-size="10.00">Config.h</text>
</a>
</g>
</g>
<!-- Node14&#45;&gt;Node15 -->
<g id="edge20_Node000014_Node000015" class="edge">
<title>Node14&#45;&gt;Node15</title>
<g id="a_edge20_Node000014_Node000015"><a xlink:title=" ">
<path fill="none" stroke="#63b8ff" d="M327.2,-116.72C270.92,-107.19 135.19,-84.21 69.85,-73.15"/>
<polygon fill="#63b8ff" stroke="#63b8ff" points="70.69,-69.58 60.24,-71.36 69.52,-76.48 70.69,-69.58"/>
</a>
</g>
</g>
<!-- Node15&#45;&gt;Node2 -->
<g id="edge21_Node000015_Node000002" class="edge">
<title>Node15&#45;&gt;Node2</title>
<g id="a_edge21_Node000015_Node000002"><a xlink:title=" ">
<path fill="none" stroke="#63b8ff" d="M59.26,-58.9C63.98,-57.87 68.88,-56.85 73.5,-56 169.65,-38.21 283.71,-23.15 342.71,-15.8"/>
<polygon fill="#63b8ff" stroke="#63b8ff" points="342.91,-19.18 352.41,-14.48 342.06,-12.23 342.91,-19.18"/>
</a>
</g>
</g>
<!-- Node16 -->
<g id="Node000016" class="node">
<title>Node16</title>
<g id="a_Node000016"><a xlink:href="_log_levels_8h.html" target="_top" xlink:title=" ">
<polygon fill="white" stroke="#666666" points="67,-20 0,-20 0,0 67,0 67,-20"/>
<text text-anchor="middle" x="33.5" y="-6.5" font-family="Helvetica,sans-Serif" font-size="10.00">LogLevels.h</text>
</a>
</g>
</g>
<!-- Node15&#45;&gt;Node16 -->
<g id="edge22_Node000015_Node000016" class="edge">
<title>Node15&#45;&gt;Node16</title>
<g id="a_edge22_Node000015_Node000016"><a xlink:title=" ">
<path fill="none" stroke="#63b8ff" d="M33.5,-55.59C33.5,-48.86 33.5,-39.53 33.5,-31.15"/>
<polygon fill="#63b8ff" stroke="#63b8ff" points="37,-31.3 33.5,-21.3 30,-31.3 37,-31.3"/>
</a>
</g>
</g>
<!-- Node17&#45;&gt;Node2 -->
<g id="edge27_Node000017_Node000002" class="edge">
<title>Node17&#45;&gt;Node2</title>
<g id="a_edge27_Node000017_Node000002"><a xlink:title=" ">
<path fill="none" stroke="#63b8ff" d="M752.13,-167.52C735.92,-144.22 690.53,-84.01 636.5,-56 567.05,-19.99 474.11,-12.17 422.08,-10.84"/>
<polygon fill="#63b8ff" stroke="#63b8ff" points="422.38,-7.32 412.31,-10.64 422.25,-14.32 422.38,-7.32"/>
</a>
</g>
</g>
<!-- Node17&#45;&gt;Node8 -->
<g id="edge29_Node000017_Node000008" class="edge">
<title>Node17&#45;&gt;Node8</title>
<g id="a_edge29_Node000017_Node000008"><a xlink:title=" ">
<path fill="none" stroke="#63b8ff" d="M780.97,-167.59C801.38,-159.05 831.73,-146.35 854.82,-136.68"/>
<polygon fill="#63b8ff" stroke="#63b8ff" points="855.98,-139.57 863.85,-132.48 853.28,-133.11 855.98,-139.57"/>
</a>
</g>
</g>
<!-- Node17&#45;&gt;Node9 -->
<g id="edge26_Node000017_Node000009" class="edge">
<title>Node17&#45;&gt;Node9</title>
<g id="a_edge26_Node000017_Node000009"><a xlink:title=" ">
<path fill="none" stroke="#63b8ff" d="M766.49,-167.63C777.41,-154.9 797.66,-131.48 815.5,-112 824.06,-102.65 833.8,-92.43 841.84,-84.09"/>
<polygon fill="#63b8ff" stroke="#63b8ff" points="844.04,-86.81 848.49,-77.2 839.02,-81.94 844.04,-86.81"/>
</a>
</g>
</g>
<!-- Node17&#45;&gt;Node14 -->
<g id="edge28_Node000017_Node000014" class="edge">
<title>Node17&#45;&gt;Node14</title>
<g id="a_edge28_Node000017_Node000014"><a xlink:title=" ">
<path fill="none" stroke="#63b8ff" d="M715.39,-169.39C712.39,-168.9 709.4,-168.43 706.5,-168 590.33,-150.57 452.04,-134.27 388.13,-126.99"/>
<polygon fill="#63b8ff" stroke="#63b8ff" points="388.78,-123.43 378.45,-125.78 387.99,-130.39 388.78,-123.43"/>
</a>
</g>
</g>
<!-- Node18&#45;&gt;Node2 -->
<g id="edge36_Node000018_Node000002" class="edge">
<title>Node18&#45;&gt;Node2</title>
<g id="a_edge36_Node000018_Node000002"><a xlink:title=" ">
<path fill="none" stroke="#63b8ff" d="M465.72,-223.54C452.23,-215.79 434.71,-203.57 424.5,-188 391.83,-138.14 384.5,-65.59 382.91,-30.91"/>
<polygon fill="#63b8ff" stroke="#63b8ff" points="386.39,-31.19 382.55,-21.32 379.39,-31.43 386.39,-31.19"/>
</a>
</g>
</g>
<!-- Node19 -->
<g id="Node000019" class="node">
<title>Node19</title>
<g id="a_Node000019"><a xlink:title=" ">
<polygon fill="#e0e0e0" stroke="#999999" points="475.62,-188 433.38,-188 433.38,-168 475.62,-168 475.62,-188"/>
<text text-anchor="middle" x="454.5" y="-174.5" font-family="Helvetica,sans-Serif" font-size="10.00">queue</text>
</a>
</g>
</g>
<!-- Node18&#45;&gt;Node19 -->
<g id="edge37_Node000018_Node000019" class="edge">
<title>Node18&#45;&gt;Node19</title>
<g id="a_edge37_Node000018_Node000019"><a xlink:title=" ">
<path fill="none" stroke="#63b8ff" d="M479.27,-223.59C475.32,-216.47 469.75,-206.45 464.9,-197.72"/>
<polygon fill="#63b8ff" stroke="#63b8ff" points="467.58,-196.34 459.67,-189.3 461.46,-199.74 467.58,-196.34"/>
</a>
</g>
</g>
<!-- Node20 -->
<g id="Node000020" class="node">
<title>Node20</title>
<g id="a_Node000020"><a xlink:title=" ">
<polygon fill="#e0e0e0" stroke="#999999" points="533.12,-188 493.88,-188 493.88,-168 533.12,-168 533.12,-188"/>
<text text-anchor="middle" x="513.5" y="-174.5" font-family="Helvetica,sans-Serif" font-size="10.00">utility</text>
</a>
</g>
</g>
<!-- Node18&#45;&gt;Node20 -->
<g id="edge38_Node000018_Node000020" class="edge">
<title>Node18&#45;&gt;Node20</title>
<g id="a_edge38_Node000018_Node000020"><a xlink:title=" ">
<path fill="none" stroke="#63b8ff" d="M489.55,-223.59C493.38,-216.47 498.76,-206.45 503.45,-197.72"/>
<polygon fill="#63b8ff" stroke="#63b8ff" points="506.86,-199.76 508.51,-189.3 500.69,-196.45 506.86,-199.76"/>
</a>
</g>
</g>
<!-- Node21&#45;&gt;Node2 -->
<g id="edge44_Node000021_Node000002" class="edge">
<title>Node21&#45;&gt;Node2</title>
<g id="a_edge44_Node000021_Node000002"><a xlink:title=" ">
<path fill="none" stroke="#63b8ff" d="M267.22,-223.68C275.54,-203.1 296.66,-152.39 318.5,-112 334.63,-82.16 356.24,-49.27 369.77,-29.37"/>
<polygon fill="#63b8ff" stroke="#63b8ff" points="373.1,-31.71 375.86,-21.48 367.32,-27.75 373.1,-31.71"/>
</a>
</g>
</g>
<!-- Node21&#45;&gt;Node14 -->
<g id="edge45_Node000021_Node000014" class="edge">
<title>Node21&#45;&gt;Node14</title>
<g id="a_edge45_Node000021_Node000014"><a xlink:title=" ">
<path fill="none" stroke="#63b8ff" d="M270.87,-223.71C280.91,-211.07 299.48,-187.75 315.5,-168 322.81,-158.98 331.01,-149 337.82,-140.74"/>
<polygon fill="#63b8ff" stroke="#63b8ff" points="341.14,-143.22 344.81,-133.28 335.74,-138.76 341.14,-143.22"/>
</a>
</g>
</g>
<!-- Node21&#45;&gt;Node22 -->
<g id="edge46_Node000021_Node000022" class="edge">
<title>Node21&#45;&gt;Node22</title>
<g id="a_edge46_Node000021_Node000022"><a xlink:title=" ">
<path fill="none" stroke="#63b8ff" d="M250.61,-223.59C239.68,-215.62 223.78,-204.02 210.94,-194.64"/>
<polygon fill="#63b8ff" stroke="#63b8ff" points="213.38,-191.37 203.24,-188.3 209.26,-197.02 213.38,-191.37"/>
</a>
</g>
</g>
<!-- Node22&#45;&gt;Node2 -->
<g id="edge47_Node000022_Node000002" class="edge">
<title>Node22&#45;&gt;Node2</title>
<g id="a_edge47_Node000022_Node000002"><a xlink:title=" ">
<path fill="none" stroke="#63b8ff" d="M190.67,-167.6C193.98,-144.99 205.49,-87.18 239.5,-56 267.9,-29.96 311.28,-18.99 342.81,-14.37"/>
<polygon fill="#63b8ff" stroke="#63b8ff" points="342.96,-17.75 352.43,-12.98 342.06,-10.81 342.96,-17.75"/>
</a>
</g>
</g>
<!-- Node22&#45;&gt;Node14 -->
<g id="edge48_Node000022_Node000014" class="edge">
<title>Node22&#45;&gt;Node14</title>
<g id="a_edge48_Node000022_Node000014"><a xlink:title=" ">
<path fill="none" stroke="#63b8ff" d="M217.89,-167.59C245.43,-158.47 287.3,-144.6 317.02,-134.75"/>
<polygon fill="#63b8ff" stroke="#63b8ff" points="317.98,-137.79 326.37,-131.32 315.78,-131.15 317.98,-137.79"/>
</a>
</g>
</g>
<!-- Node23&#45;&gt;Node6 -->
<g id="edge51_Node000023_Node000006" class="edge">
<title>Node23&#45;&gt;Node6</title>
<g id="a_edge51_Node000023_Node000006"><a xlink:title=" ">
<path fill="none" stroke="#63b8ff" d="M1298.47,-335.59C1303.92,-328.24 1311.65,-317.8 1318.27,-308.87"/>
<polygon fill="#63b8ff" stroke="#63b8ff" points="1321.47,-311.42 1324.61,-301.3 1315.85,-307.25 1321.47,-311.42"/>
</a>
</g>
</g>
</g>
</svg>
