<?xml version="1.0" encoding="UTF-8" standalone="no"?>
<!DOCTYPE svg PUBLIC "-//W3C//DTD SVG 1.1//EN"
 "http://www.w3.org/Graphics/SVG/1.1/DTD/svg11.dtd">
<!-- Generated by graphviz version 8.1.0 (20230707.0739)
 -->
<!-- Title: ExoCode/src/ComsLed.cpp Pages: 1 -->
<svg width="203pt" height="196pt"
 viewBox="0.00 0.00 203.25 196.00" xmlns="http://www.w3.org/2000/svg" xmlns:xlink="http://www.w3.org/1999/xlink">
<g id="graph0" class="graph" transform="scale(1 1) rotate(0) translate(4 192)">
<title>ExoCode/src/ComsLed.cpp</title>
<!-- Node1 -->
<g id="Node000001" class="node">
<title>Node1</title>
<g id="a_Node000001"><a xlink:title=" ">
<polygon fill="#999999" stroke="#666666" points="138.38,-188 3.12,-188 3.12,-168 138.38,-168 138.38,-188"/>
<text text-anchor="middle" x="70.75" y="-174.5" font-family="Helvetica,sans-Serif" font-size="10.00">ExoCode/src/ComsLed.cpp</text>
</a>
</g>
</g>
<!-- Node2 -->
<g id="Node000002" class="node">
<title>Node2</title>
<g id="a_Node000002"><a xlink:href="_coms_led_8h.html" target="_top" xlink:title="This class is used to control the LED on the coms board. It uses the singleton pattern.">
<polygon fill="white" stroke="#666666" points="65.5,-132 0,-132 0,-112 65.5,-112 65.5,-132"/>
<text text-anchor="middle" x="32.75" y="-118.5" font-family="Helvetica,sans-Serif" font-size="10.00">ComsLed.h</text>
</a>
</g>
</g>
<!-- Node1&#45;&gt;Node2 -->
<g id="edge1_Node000001_Node000002" class="edge">
<title>Node1&#45;&gt;Node2</title>
<g id="a_edge1_Node000001_Node000002"><a xlink:title=" ">
<path fill="none" stroke="#63b8ff" d="M64.13,-167.59C59.01,-160.32 51.76,-150.02 45.52,-141.15"/>
<polygon fill="#63b8ff" stroke="#63b8ff" points="47.91,-139.46 39.29,-133.3 42.19,-143.49 47.91,-139.46"/>
</a>
</g>
</g>
<!-- Node3 -->
<g id="Node000003" class="node">
<title>Node3</title>
<g id="a_Node000003"><a xlink:href="_board_8h.html" target="_top" xlink:title=" ">
<polygon fill="white" stroke="#666666" points="133.62,-132 83.88,-132 83.88,-112 133.62,-112 133.62,-132"/>
<text text-anchor="middle" x="108.75" y="-118.5" font-family="Helvetica,sans-Serif" font-size="10.00">Board.h</text>
</a>
</g>
</g>
<!-- Node1&#45;&gt;Node3 -->
<g id="edge2_Node000001_Node000003" class="edge">
<title>Node1&#45;&gt;Node3</title>
<g id="a_edge2_Node000001_Node000003"><a xlink:title=" ">
<path fill="none" stroke="#63b8ff" d="M77.37,-167.59C82.49,-160.32 89.74,-150.02 95.98,-141.15"/>
<polygon fill="#63b8ff" stroke="#63b8ff" points="99.31,-143.49 102.21,-133.3 93.59,-139.46 99.31,-143.49"/>
</a>
</g>
</g>
<!-- Node4 -->
<g id="Node000004" class="node">
<title>Node4</title>
<g id="a_Node000004"><a xlink:href="_config_8h.html" target="_top" xlink:title=" ">
<polygon fill="white" stroke="#666666" points="161.38,-76 110.12,-76 110.12,-56 161.38,-56 161.38,-76"/>
<text text-anchor="middle" x="135.75" y="-62.5" font-family="Helvetica,sans-Serif" font-size="10.00">Config.h</text>
</a>
</g>
</g>
<!-- Node3&#45;&gt;Node4 -->
<g id="edge3_Node000003_Node000004" class="edge">
<title>Node3&#45;&gt;Node4</title>
<g id="a_edge3_Node000003_Node000004"><a xlink:title=" ">
<path fill="none" stroke="#63b8ff" d="M113.45,-111.59C116.98,-104.55 121.92,-94.67 126.25,-86"/>
<polygon fill="#63b8ff" stroke="#63b8ff" points="129.76,-87.81 131.1,-77.3 123.5,-84.68 129.76,-87.81"/>
</a>
</g>
</g>
<!-- Node5 -->
<g id="Node000005" class="node">
<title>Node5</title>
<g id="a_Node000005"><a xlink:title=" ">
<polygon fill="#e0e0e0" stroke="#999999" points="110.38,-20 53.12,-20 53.12,0 110.38,0 110.38,-20"/>
<text text-anchor="middle" x="81.75" y="-6.5" font-family="Helvetica,sans-Serif" font-size="10.00">Arduino.h</text>
</a>
</g>
</g>
<!-- Node3&#45;&gt;Node5 -->
<g id="edge6_Node000003_Node000005" class="edge">
<title>Node3&#45;&gt;Node5</title>
<g id="a_edge6_Node000003_Node000005"><a xlink:title=" ">
<path fill="none" stroke="#63b8ff" d="M106.45,-111.62C102.08,-93.84 92.52,-54.88 86.66,-31"/>
<polygon fill="#63b8ff" stroke="#63b8ff" points="89.83,-30.23 84.05,-21.35 83.03,-31.9 89.83,-30.23"/>
</a>
</g>
</g>
<!-- Node4&#45;&gt;Node5 -->
<g id="edge4_Node000004_Node000005" class="edge">
<title>Node4&#45;&gt;Node5</title>
<g id="a_edge4_Node000004_Node000005"><a xlink:title=" ">
<path fill="none" stroke="#63b8ff" d="M126.34,-55.59C118.76,-48.01 107.88,-37.13 98.77,-28.02"/>
<polygon fill="#63b8ff" stroke="#63b8ff" points="101.59,-25.89 92.05,-21.3 96.64,-30.84 101.59,-25.89"/>
</a>
</g>
</g>
<!-- Node6 -->
<g id="Node000006" class="node">
<title>Node6</title>
<g id="a_Node000006"><a xlink:href="_log_levels_8h.html" target="_top" xlink:title=" ">
<polygon fill="white" stroke="#666666" points="195.25,-20 128.25,-20 128.25,0 195.25,0 195.25,-20"/>
<text text-anchor="middle" x="161.75" y="-6.5" font-family="Helvetica,sans-Serif" font-size="10.00">LogLevels.h</text>
</a>
</g>
</g>
<!-- Node4&#45;&gt;Node6 -->
<g id="edge5_Node000004_Node000006" class="edge">
<title>Node4&#45;&gt;Node6</title>
<g id="a_edge5_Node000004_Node000006"><a xlink:title=" ">
<path fill="none" stroke="#63b8ff" d="M140.28,-55.59C143.67,-48.55 148.43,-38.67 152.6,-30"/>
<polygon fill="#63b8ff" stroke="#63b8ff" points="156.09,-31.83 157.27,-21.3 149.78,-28.79 156.09,-31.83"/>
</a>
</g>
</g>
</g>
</svg>
