<?xml version="1.0" encoding="UTF-8" standalone="no"?>
<!DOCTYPE svg PUBLIC "-//W3C//DTD SVG 1.1//EN"
 "http://www.w3.org/Graphics/SVG/1.1/DTD/svg11.dtd">
<!-- Generated by graphviz version 8.1.0 (20230707.0739)
 -->
<!-- Title: ExoCode/src/ControllerData.h Pages: 1 -->
<svg width="956pt" height="476pt"
 viewBox="0.00 0.00 956.12 476.00" xmlns="http://www.w3.org/2000/svg" xmlns:xlink="http://www.w3.org/1999/xlink">
<g id="graph0" class="graph" transform="scale(1 1) rotate(0) translate(4 472)">
<title>ExoCode/src/ControllerData.h</title>
<!-- Node1 -->
<g id="Node000001" class="node">
<title>Node1</title>
<g id="a_Node000001"><a xlink:title="Declares a class used to store data for controllers to access.">
<polygon fill="#999999" stroke="#666666" points="229.25,-468 84.25,-468 84.25,-448 229.25,-448 229.25,-468"/>
<text text-anchor="middle" x="156.75" y="-454.5" font-family="Helvetica,sans-Serif" font-size="10.00">ExoCode/src/ControllerData.h</text>
</a>
</g>
</g>
<!-- Node2 -->
<g id="Node000002" class="node">
<title>Node2</title>
<g id="a_Node000002"><a xlink:href="_controller_data_8cpp.html" target="_top" xlink:title=" ">
<polygon fill="white" stroke="#666666" points="155.5,-412 0,-412 0,-392 155.5,-392 155.5,-412"/>
<text text-anchor="middle" x="77.75" y="-398.5" font-family="Helvetica,sans-Serif" font-size="10.00">ExoCode/src/ControllerData.cpp</text>
</a>
</g>
</g>
<!-- Node1&#45;&gt;Node2 -->
<g id="edge1_Node000001_Node000002" class="edge">
<title>Node1&#45;&gt;Node2</title>
<g id="a_edge1_Node000001_Node000002"><a xlink:title=" ">
<path fill="none" stroke="#63b8ff" d="M134.14,-441.54C120.42,-432.17 103.36,-420.51 91.62,-412.48"/>
<polygon fill="#63b8ff" stroke="#63b8ff" points="131.76,-444.84 141.99,-447.59 135.71,-439.06 131.76,-444.84"/>
</a>
</g>
</g>
<!-- Node3 -->
<g id="Node000003" class="node">
<title>Node3</title>
<g id="a_Node000003"><a xlink:href="_joint_data_8h.html" target="_top" xlink:title="Declares a class used to store data for joint to access.">
<polygon fill="white" stroke="#666666" points="297.75,-412 173.75,-412 173.75,-392 297.75,-392 297.75,-412"/>
<text text-anchor="middle" x="235.75" y="-398.5" font-family="Helvetica,sans-Serif" font-size="10.00">ExoCode/src/JointData.h</text>
</a>
</g>
</g>
<!-- Node1&#45;&gt;Node3 -->
<g id="edge2_Node000001_Node000003" class="edge">
<title>Node1&#45;&gt;Node3</title>
<g id="a_edge2_Node000001_Node000003"><a xlink:title=" ">
<path fill="none" stroke="#63b8ff" d="M179.36,-441.54C193.08,-432.17 210.14,-420.51 221.88,-412.48"/>
<polygon fill="#63b8ff" stroke="#63b8ff" points="177.79,-439.06 171.51,-447.59 181.74,-444.84 177.79,-439.06"/>
</a>
</g>
</g>
<!-- Node4 -->
<g id="Node000004" class="node">
<title>Node4</title>
<g id="a_Node000004"><a xlink:href="_joint_data_8cpp.html" target="_top" xlink:title=" ">
<polygon fill="white" stroke="#666666" points="208,-356 73.5,-356 73.5,-336 208,-336 208,-356"/>
<text text-anchor="middle" x="140.75" y="-342.5" font-family="Helvetica,sans-Serif" font-size="10.00">ExoCode/src/JointData.cpp</text>
</a>
</g>
</g>
<!-- Node3&#45;&gt;Node4 -->
<g id="edge3_Node000003_Node000004" class="edge">
<title>Node3&#45;&gt;Node4</title>
<g id="a_edge3_Node000003_Node000004"><a xlink:title=" ">
<path fill="none" stroke="#63b8ff" d="M209.97,-386.35C193.25,-376.84 171.95,-364.74 157.43,-356.48"/>
<polygon fill="#63b8ff" stroke="#63b8ff" points="207.78,-389.69 218.2,-391.59 211.24,-383.61 207.78,-389.69"/>
</a>
</g>
</g>
<!-- Node5 -->
<g id="Node000005" class="node">
<title>Node5</title>
<g id="a_Node000005"><a xlink:href="_leg_data_8h.html" target="_top" xlink:title="Declares a class used to store data for leg to access.">
<polygon fill="white" stroke="#666666" points="419.5,-356 300,-356 300,-336 419.5,-336 419.5,-356"/>
<text text-anchor="middle" x="359.75" y="-342.5" font-family="Helvetica,sans-Serif" font-size="10.00">ExoCode/src/LegData.h</text>
</a>
</g>
</g>
<!-- Node3&#45;&gt;Node5 -->
<g id="edge4_Node000003_Node000005" class="edge">
<title>Node3&#45;&gt;Node5</title>
<g id="a_edge4_Node000003_Node000005"><a xlink:title=" ">
<path fill="none" stroke="#63b8ff" d="M267.27,-387.27C289.39,-377.64 318.4,-365.01 337.98,-356.48"/>
<polygon fill="#63b8ff" stroke="#63b8ff" points="266.12,-384.39 258.35,-391.59 268.91,-390.81 266.12,-384.39"/>
</a>
</g>
</g>
<!-- Node15 -->
<g id="Node000015" class="node">
<title>Node15</title>
<g id="a_Node000015"><a xlink:href="uart__commands_8h.html" target="_top" xlink:title=" ">
<polygon fill="white" stroke="#666666" points="311.38,-188 158.12,-188 158.12,-168 311.38,-168 311.38,-188"/>
<text text-anchor="middle" x="234.75" y="-174.5" font-family="Helvetica,sans-Serif" font-size="10.00">ExoCode/src/uart_commands.h</text>
</a>
</g>
</g>
<!-- Node3&#45;&gt;Node15 -->
<g id="edge28_Node000003_Node000015" class="edge">
<title>Node3&#45;&gt;Node15</title>
<g id="a_edge28_Node000003_Node000015"><a xlink:title=" ">
<path fill="none" stroke="#63b8ff" d="M235.66,-380.75C235.45,-334.28 234.94,-221.43 234.79,-188.3"/>
<polygon fill="#63b8ff" stroke="#63b8ff" points="232.16,-380.76 235.71,-390.74 239.16,-380.73 232.16,-380.76"/>
</a>
</g>
</g>
<!-- Node6 -->
<g id="Node000006" class="node">
<title>Node6</title>
<g id="a_Node000006"><a xlink:href="_exo_data_8h.html" target="_top" xlink:title="Declares a class used to store data for the Exo to access.">
<polygon fill="white" stroke="#666666" points="579.25,-300 458.25,-300 458.25,-280 579.25,-280 579.25,-300"/>
<text text-anchor="middle" x="518.75" y="-286.5" font-family="Helvetica,sans-Serif" font-size="10.00">ExoCode/src/ExoData.h</text>
</a>
</g>
</g>
<!-- Node5&#45;&gt;Node6 -->
<g id="edge5_Node000005_Node000006" class="edge">
<title>Node5&#45;&gt;Node6</title>
<g id="a_edge5_Node000005_Node000006"><a xlink:title=" ">
<path fill="none" stroke="#63b8ff" d="M397.51,-332.18C426.17,-322.44 464.93,-309.28 490.84,-300.48"/>
<polygon fill="#63b8ff" stroke="#63b8ff" points="396.79,-329.06 388.45,-335.59 399.04,-335.69 396.79,-329.06"/>
</a>
</g>
</g>
<!-- Node20 -->
<g id="Node000020" class="node">
<title>Node20</title>
<g id="a_Node000020"><a xlink:href="_leg_data_8cpp.html" target="_top" xlink:title=" ">
<polygon fill="white" stroke="#666666" points="424.75,-300 294.75,-300 294.75,-280 424.75,-280 424.75,-300"/>
<text text-anchor="middle" x="359.75" y="-286.5" font-family="Helvetica,sans-Serif" font-size="10.00">ExoCode/src/LegData.cpp</text>
</a>
</g>
</g>
<!-- Node5&#45;&gt;Node20 -->
<g id="edge27_Node000005_Node000020" class="edge">
<title>Node5&#45;&gt;Node20</title>
<g id="a_edge27_Node000005_Node000020"><a xlink:title=" ">
<path fill="none" stroke="#63b8ff" d="M359.75,-324.71C359.75,-316.32 359.75,-307.01 359.75,-300.3"/>
<polygon fill="#63b8ff" stroke="#63b8ff" points="356.25,-324.59 359.75,-334.59 363.25,-324.59 356.25,-324.59"/>
</a>
</g>
</g>
<!-- Node7 -->
<g id="Node000007" class="node">
<title>Node7</title>
<g id="a_Node000007"><a xlink:href="_coms_m_c_u_8h.html" target="_top" xlink:title="The top of the composite structure for the communication microcontroller. This class manages the blue...">
<polygon fill="white" stroke="#666666" points="948.12,-244 817.38,-244 817.38,-224 948.12,-224 948.12,-244"/>
<text text-anchor="middle" x="882.75" y="-230.5" font-family="Helvetica,sans-Serif" font-size="10.00">ExoCode/src/ComsMCU.h</text>
</a>
</g>
</g>
<!-- Node6&#45;&gt;Node7 -->
<g id="edge6_Node000006_Node000007" class="edge">
<title>Node6&#45;&gt;Node7</title>
<g id="a_edge6_Node000006_Node000007"><a xlink:title=" ">
<path fill="none" stroke="#63b8ff" d="M590.48,-278.36C656.98,-268.49 755,-253.95 818.87,-244.48"/>
<polygon fill="#63b8ff" stroke="#63b8ff" points="590.05,-275.03 580.68,-279.96 591.08,-281.96 590.05,-275.03"/>
</a>
</g>
</g>
<!-- Node9 -->
<g id="Node000009" class="node">
<title>Node9</title>
<g id="a_Node000009"><a xlink:href="_exo_data_8cpp.html" target="_top" xlink:title=" ">
<polygon fill="white" stroke="#666666" points="681.5,-188 550,-188 550,-168 681.5,-168 681.5,-188"/>
<text text-anchor="middle" x="615.75" y="-174.5" font-family="Helvetica,sans-Serif" font-size="10.00">ExoCode/src/ExoData.cpp</text>
</a>
</g>
</g>
<!-- Node6&#45;&gt;Node9 -->
<g id="edge8_Node000006_Node000009" class="edge">
<title>Node6&#45;&gt;Node9</title>
<g id="a_edge8_Node000006_Node000009"><a xlink:title=" ">
<path fill="none" stroke="#63b8ff" d="M574.77,-275.81C591.1,-269.08 607.13,-259.01 616.75,-244 627.72,-226.9 622.77,-201.71 618.86,-188.26"/>
<polygon fill="#63b8ff" stroke="#63b8ff" points="573.77,-272.82 565.61,-279.58 576.21,-279.38 573.77,-272.82"/>
</a>
</g>
</g>
<!-- Node10 -->
<g id="Node000010" class="node">
<title>Node10</title>
<g id="a_Node000010"><a xlink:href="_params_from_s_d_8h.html" target="_top" xlink:title="Declares the functions to pull controller parameters from the SD card and defines the mapping to the ...">
<polygon fill="white" stroke="#666666" points="467.38,-244 314.12,-244 314.12,-224 467.38,-224 467.38,-244"/>
<text text-anchor="middle" x="390.75" y="-230.5" font-family="Helvetica,sans-Serif" font-size="10.00">ExoCode/src/ParamsFromSD.h</text>
</a>
</g>
</g>
<!-- Node6&#45;&gt;Node10 -->
<g id="edge9_Node000006_Node000010" class="edge">
<title>Node6&#45;&gt;Node10</title>
<g id="a_edge9_Node000006_Node000010"><a xlink:title=" ">
<path fill="none" stroke="#63b8ff" d="M486.52,-275.4C463.65,-265.75 433.53,-253.05 413.22,-244.48"/>
<polygon fill="#63b8ff" stroke="#63b8ff" points="484.88,-278.93 495.45,-279.59 487.6,-272.48 484.88,-278.93"/>
</a>
</g>
</g>
<!-- Node12 -->
<g id="Node000012" class="node">
<title>Node12</title>
<g id="a_Node000012"><a xlink:href="ble__commands_8h.html" target="_top" xlink:title="This file declares the BLE commands, and the functions that should be called when they are received.">
<polygon fill="white" stroke="#666666" points="257.5,-132 108,-132 108,-112 257.5,-112 257.5,-132"/>
<text text-anchor="middle" x="182.75" y="-118.5" font-family="Helvetica,sans-Serif" font-size="10.00">ExoCode/src/ble_commands.h</text>
</a>
</g>
</g>
<!-- Node6&#45;&gt;Node12 -->
<g id="edge21_Node000006_Node000012" class="edge">
<title>Node6&#45;&gt;Node12</title>
<g id="a_edge21_Node000006_Node000012"><a xlink:title=" ">
<path fill="none" stroke="#63b8ff" d="M447.3,-280.68C349.16,-267.51 181.08,-238.08 148.75,-188 136.45,-168.96 157.69,-144.97 171.78,-132.12"/>
<polygon fill="#63b8ff" stroke="#63b8ff" points="446.66,-284.26 457.03,-282.09 447.58,-277.32 446.66,-284.26"/>
</a>
</g>
</g>
<!-- Node6&#45;&gt;Node15 -->
<g id="edge26_Node000006_Node000015" class="edge">
<title>Node6&#45;&gt;Node15</title>
<g id="a_edge26_Node000006_Node000015"><a xlink:title=" ">
<path fill="none" stroke="#63b8ff" d="M447.24,-278.18C395.03,-269.5 329.27,-256.7 304.75,-244 277.65,-229.97 253.35,-202.53 241.82,-188.2"/>
<polygon fill="#63b8ff" stroke="#63b8ff" points="446.39,-281.75 456.82,-279.92 447.52,-274.84 446.39,-281.75"/>
</a>
</g>
</g>
<!-- Node17 -->
<g id="Node000017" class="node">
<title>Node17</title>
<g id="a_Node000017"><a xlink:href="_pi_logger_8h.html" target="_top" xlink:title=" ">
<polygon fill="white" stroke="#666666" points="607.62,-244 485.88,-244 485.88,-224 607.62,-224 607.62,-244"/>
<text text-anchor="middle" x="546.75" y="-230.5" font-family="Helvetica,sans-Serif" font-size="10.00">ExoCode/src/PiLogger.h</text>
</a>
</g>
</g>
<!-- Node6&#45;&gt;Node17 -->
<g id="edge20_Node000006_Node000017" class="edge">
<title>Node6&#45;&gt;Node17</title>
<g id="a_edge20_Node000006_Node000017"><a xlink:title=" ">
<path fill="none" stroke="#63b8ff" d="M528.67,-269.87C533.17,-261.19 538.29,-251.32 541.93,-244.3"/>
<polygon fill="#63b8ff" stroke="#63b8ff" points="525.12,-268.11 523.63,-278.59 531.34,-271.33 525.12,-268.11"/>
</a>
</g>
</g>
<!-- Node18 -->
<g id="Node000018" class="node">
<title>Node18</title>
<g id="a_Node000018"><a xlink:href="error__types_8h.html" target="_top" xlink:title=" ">
<polygon fill="white" stroke="#666666" points="797.88,-244 665.62,-244 665.62,-224 797.88,-224 797.88,-244"/>
<text text-anchor="middle" x="731.75" y="-230.5" font-family="Helvetica,sans-Serif" font-size="10.00">ExoCode/src/error_types.h</text>
</a>
</g>
</g>
<!-- Node6&#45;&gt;Node18 -->
<g id="edge22_Node000006_Node000018" class="edge">
<title>Node6&#45;&gt;Node18</title>
<g id="a_edge22_Node000006_Node000018"><a xlink:title=" ">
<path fill="none" stroke="#63b8ff" d="M566.33,-276.94C604.98,-267.14 658.74,-253.51 694.36,-244.48"/>
<polygon fill="#63b8ff" stroke="#63b8ff" points="565.68,-273.74 556.85,-279.59 567.41,-280.53 565.68,-273.74"/>
</a>
</g>
</g>
<!-- Node8 -->
<g id="Node000008" class="node">
<title>Node8</title>
<g id="a_Node000008"><a xlink:href="_coms_m_c_u_8cpp.html" target="_top" xlink:title=" ">
<polygon fill="white" stroke="#666666" points="916.38,-132 775.12,-132 775.12,-112 916.38,-112 916.38,-132"/>
<text text-anchor="middle" x="845.75" y="-118.5" font-family="Helvetica,sans-Serif" font-size="10.00">ExoCode/src/ComsMCU.cpp</text>
</a>
</g>
</g>
<!-- Node7&#45;&gt;Node8 -->
<g id="edge7_Node000007_Node000008" class="edge">
<title>Node7&#45;&gt;Node8</title>
<g id="a_edge7_Node000007_Node000008"><a xlink:title=" ">
<path fill="none" stroke="#63b8ff" d="M876.12,-213.3C868.09,-189.43 854.9,-150.2 848.9,-132.35"/>
<polygon fill="#63b8ff" stroke="#63b8ff" points="873.09,-214.26 879.6,-222.62 879.72,-212.03 873.09,-214.26"/>
</a>
</g>
</g>
<!-- Node10&#45;&gt;Node9 -->
<g id="edge10_Node000010_Node000009" class="edge">
<title>Node10&#45;&gt;Node9</title>
<g id="a_edge10_Node000010_Node000009"><a xlink:title=" ">
<path fill="none" stroke="#63b8ff" d="M440.75,-221C481.63,-211.19 538.64,-197.51 576.35,-188.46"/>
<polygon fill="#63b8ff" stroke="#63b8ff" points="440.11,-217.79 431.2,-223.53 441.74,-224.6 440.11,-217.79"/>
</a>
</g>
</g>
<!-- Node11 -->
<g id="Node000011" class="node">
<title>Node11</title>
<g id="a_Node000011"><a xlink:href="_params_from_s_d_8cpp.html" target="_top" xlink:title=" ">
<polygon fill="white" stroke="#666666" points="493.62,-188 329.88,-188 329.88,-168 493.62,-168 493.62,-188"/>
<text text-anchor="middle" x="411.75" y="-174.5" font-family="Helvetica,sans-Serif" font-size="10.00">ExoCode/src/ParamsFromSD.cpp</text>
</a>
</g>
</g>
<!-- Node10&#45;&gt;Node11 -->
<g id="edge11_Node000010_Node000011" class="edge">
<title>Node10&#45;&gt;Node11</title>
<g id="a_edge11_Node000010_Node000011"><a xlink:title=" ">
<path fill="none" stroke="#63b8ff" d="M398.3,-213.58C401.65,-204.97 405.44,-195.24 408.13,-188.3"/>
<polygon fill="#63b8ff" stroke="#63b8ff" points="394.77,-212.01 394.41,-222.59 401.29,-214.54 394.77,-212.01"/>
</a>
</g>
</g>
<!-- Node10&#45;&gt;Node12 -->
<g id="edge12_Node000010_Node000012" class="edge">
<title>Node10&#45;&gt;Node12</title>
<g id="a_edge12_Node000010_Node000012"><a xlink:title=" ">
<path fill="none" stroke="#63b8ff" d="M448.17,-220.69C485.67,-210.05 524.05,-192.51 502.75,-168 498.73,-163.38 351.09,-144.1 257.78,-132.32"/>
<polygon fill="#63b8ff" stroke="#63b8ff" points="447.42,-217.53 438.67,-223.5 449.23,-224.29 447.42,-217.53"/>
</a>
</g>
</g>
<!-- Node10&#45;&gt;Node15 -->
<g id="edge16_Node000010_Node000015" class="edge">
<title>Node10&#45;&gt;Node15</title>
<g id="a_edge16_Node000010_Node000015"><a xlink:title=" ">
<path fill="none" stroke="#63b8ff" d="M353.34,-220.05C325.25,-210.33 287.44,-197.24 262.14,-188.48"/>
<polygon fill="#63b8ff" stroke="#63b8ff" points="351.98,-223.63 362.58,-223.59 354.27,-217.02 351.98,-223.63"/>
</a>
</g>
</g>
<!-- Node13 -->
<g id="Node000013" class="node">
<title>Node13</title>
<g id="a_Node000013"><a xlink:href="_ble_parser_8cpp.html" target="_top" xlink:title=" ">
<polygon fill="white" stroke="#666666" points="251.12,-20 114.38,-20 114.38,0 251.12,0 251.12,-20"/>
<text text-anchor="middle" x="182.75" y="-6.5" font-family="Helvetica,sans-Serif" font-size="10.00">ExoCode/src/BleParser.cpp</text>
</a>
</g>
</g>
<!-- Node12&#45;&gt;Node13 -->
<g id="edge13_Node000012_Node000013" class="edge">
<title>Node12&#45;&gt;Node13</title>
<g id="a_edge13_Node000012_Node000013"><a xlink:title=" ">
<path fill="none" stroke="#63b8ff" d="M169.3,-102.77C164.32,-94.94 159.28,-85.44 156.75,-76 151.27,-55.57 165.25,-32.89 174.77,-20.45"/>
<polygon fill="#63b8ff" stroke="#63b8ff" points="166.84,-104.37 175.37,-110.65 172.62,-100.42 166.84,-104.37"/>
</a>
</g>
</g>
<!-- Node14 -->
<g id="Node000014" class="node">
<title>Node14</title>
<g id="a_Node000014"><a xlink:href="_ble_parser_8h.html" target="_top" xlink:title="This class is used to serialize and deserialize the BLE data. The application uses Nordic&#39;s UART serv...">
<polygon fill="white" stroke="#666666" points="291.88,-76 165.62,-76 165.62,-56 291.88,-56 291.88,-76"/>
<text text-anchor="middle" x="228.75" y="-62.5" font-family="Helvetica,sans-Serif" font-size="10.00">ExoCode/src/BleParser.h</text>
</a>
</g>
</g>
<!-- Node12&#45;&gt;Node14 -->
<g id="edge14_Node000012_Node000014" class="edge">
<title>Node12&#45;&gt;Node14</title>
<g id="a_edge14_Node000012_Node000014"><a xlink:title=" ">
<path fill="none" stroke="#63b8ff" d="M197.84,-103.29C205.51,-94.28 214.52,-83.7 220.83,-76.3"/>
<polygon fill="#63b8ff" stroke="#63b8ff" points="194.58,-100.71 190.76,-110.59 199.91,-105.25 194.58,-100.71"/>
</a>
</g>
</g>
<!-- Node14&#45;&gt;Node13 -->
<g id="edge15_Node000014_Node000013" class="edge">
<title>Node14&#45;&gt;Node13</title>
<g id="a_edge15_Node000014_Node000013"><a xlink:title=" ">
<path fill="none" stroke="#63b8ff" d="M213.66,-47.29C205.99,-38.28 196.98,-27.7 190.67,-20.3"/>
<polygon fill="#63b8ff" stroke="#63b8ff" points="211.59,-49.25 220.74,-54.59 216.92,-44.71 211.59,-49.25"/>
</a>
</g>
</g>
<!-- Node15&#45;&gt;Node8 -->
<g id="edge17_Node000015_Node000008" class="edge">
<title>Node15&#45;&gt;Node8</title>
<g id="a_edge17_Node000015_Node000008"><a xlink:title=" ">
<path fill="none" stroke="#63b8ff" d="M322.46,-167.85C491.05,-151.89 676,-136.63 774.81,-128.66"/>
<polygon fill="#63b8ff" stroke="#63b8ff" points="322.26,-164.45 312.64,-168.88 322.92,-171.42 322.26,-164.45"/>
</a>
</g>
</g>
<!-- Node15&#45;&gt;Node12 -->
<g id="edge19_Node000015_Node000012" class="edge">
<title>Node15&#45;&gt;Node12</title>
<g id="a_edge19_Node000015_Node000012"><a xlink:title=" ">
<path fill="none" stroke="#63b8ff" d="M218.23,-159.85C209.44,-150.72 198.98,-139.86 191.7,-132.3"/>
<polygon fill="#63b8ff" stroke="#63b8ff" points="215.23,-161.82 224.69,-166.59 220.28,-156.96 215.23,-161.82"/>
</a>
</g>
</g>
<!-- Node16 -->
<g id="Node000016" class="node">
<title>Node16</title>
<g id="a_Node000016"><a xlink:href="_exo_8cpp.html" target="_top" xlink:title=" ">
<polygon fill="white" stroke="#666666" points="386.38,-132 275.12,-132 275.12,-112 386.38,-112 386.38,-132"/>
<text text-anchor="middle" x="330.75" y="-118.5" font-family="Helvetica,sans-Serif" font-size="10.00">ExoCode/src/Exo.cpp</text>
</a>
</g>
</g>
<!-- Node15&#45;&gt;Node16 -->
<g id="edge18_Node000015_Node000016" class="edge">
<title>Node15&#45;&gt;Node16</title>
<g id="a_edge18_Node000015_Node000016"><a xlink:title=" ">
<path fill="none" stroke="#63b8ff" d="M260.8,-162.35C277.7,-152.84 299.22,-140.74 313.9,-132.48"/>
<polygon fill="#63b8ff" stroke="#63b8ff" points="259.47,-159.64 252.47,-167.59 262.9,-165.74 259.47,-159.64"/>
</a>
</g>
</g>
<!-- Node18&#45;&gt;Node8 -->
<g id="edge23_Node000018_Node000008" class="edge">
<title>Node18&#45;&gt;Node8</title>
<g id="a_edge23_Node000018_Node000008"><a xlink:title=" ">
<path fill="none" stroke="#63b8ff" d="M778.77,-219.78C795.98,-212.83 814.27,-202.62 826.75,-188 840.64,-171.72 844.38,-145.74 845.39,-132.07"/>
<polygon fill="#63b8ff" stroke="#63b8ff" points="777.96,-216.72 769.82,-223.5 780.41,-223.28 777.96,-216.72"/>
</a>
</g>
</g>
<!-- Node18&#45;&gt;Node9 -->
<g id="edge24_Node000018_Node000009" class="edge">
<title>Node18&#45;&gt;Node9</title>
<g id="a_edge24_Node000018_Node000009"><a xlink:title=" ">
<path fill="none" stroke="#63b8ff" d="M701.7,-219.01C681.08,-209.41 654.27,-196.93 636.11,-188.48"/>
<polygon fill="#63b8ff" stroke="#63b8ff" points="700,-222.55 710.54,-223.59 702.96,-216.2 700,-222.55"/>
</a>
</g>
</g>
<!-- Node19 -->
<g id="Node000019" class="node">
<title>Node19</title>
<g id="a_Node000019"><a xlink:href="_motor_8cpp.html" target="_top" xlink:title=" ">
<polygon fill="white" stroke="#666666" points="818.12,-188 699.38,-188 699.38,-168 818.12,-168 818.12,-188"/>
<text text-anchor="middle" x="758.75" y="-174.5" font-family="Helvetica,sans-Serif" font-size="10.00">ExoCode/src/Motor.cpp</text>
</a>
</g>
</g>
<!-- Node18&#45;&gt;Node19 -->
<g id="edge25_Node000018_Node000019" class="edge">
<title>Node18&#45;&gt;Node19</title>
<g id="a_edge25_Node000018_Node000019"><a xlink:title=" ">
<path fill="none" stroke="#63b8ff" d="M741.32,-213.87C745.66,-205.19 750.59,-195.32 754.1,-188.3"/>
<polygon fill="#63b8ff" stroke="#63b8ff" points="737.79,-212.08 736.45,-222.59 744.06,-215.21 737.79,-212.08"/>
</a>
</g>
</g>
</g>
</svg>
