<?xml version="1.0" encoding="UTF-8" standalone="no"?>
<!DOCTYPE svg PUBLIC "-//W3C//DTD SVG 1.1//EN"
 "http://www.w3.org/Graphics/SVG/1.1/DTD/svg11.dtd">
<!-- Generated by graphviz version 8.1.0 (20230707.0739)
 -->
<!-- Title: ExoCode/src/Exo.h Pages: 1 -->
<svg width="435pt" height="140pt"
 viewBox="0.00 0.00 435.00 140.00" xmlns="http://www.w3.org/2000/svg" xmlns:xlink="http://www.w3.org/1999/xlink">
<g id="graph0" class="graph" transform="scale(1 1) rotate(0) translate(4 136)">
<title>ExoCode/src/Exo.h</title>
<!-- Node1 -->
<g id="Node000001" class="node">
<title>Node1</title>
<g id="a_Node000001"><a xlink:title="Declares for the different exo class that all the other components will live in.">
<polygon fill="#999999" stroke="#666666" points="205,-132 104.25,-132 104.25,-112 205,-112 205,-132"/>
<text text-anchor="middle" x="154.62" y="-118.5" font-family="Helvetica,sans-Serif" font-size="10.00">ExoCode/src/Exo.h</text>
</a>
</g>
</g>
<!-- Node2 -->
<g id="Node000002" class="node">
<title>Node2</title>
<g id="a_Node000002"><a xlink:href="_exo_8cpp.html" target="_top" xlink:title=" ">
<polygon fill="white" stroke="#666666" points="140.25,-76 29,-76 29,-56 140.25,-56 140.25,-76"/>
<text text-anchor="middle" x="84.62" y="-62.5" font-family="Helvetica,sans-Serif" font-size="10.00">ExoCode/src/Exo.cpp</text>
</a>
</g>
</g>
<!-- Node1&#45;&gt;Node2 -->
<g id="edge1_Node000001_Node000002" class="edge">
<title>Node1&#45;&gt;Node2</title>
<g id="a_edge1_Node000001_Node000002"><a xlink:title=" ">
<path fill="none" stroke="#63b8ff" d="M133.83,-104.95C121.72,-95.61 106.87,-84.16 96.68,-76.3"/>
<polygon fill="#63b8ff" stroke="#63b8ff" points="131.38,-108.26 141.43,-111.59 135.65,-102.71 131.38,-108.26"/>
</a>
</g>
</g>
<!-- Node3 -->
<g id="Node000003" class="node">
<title>Node3</title>
<g id="a_Node000003"><a xlink:href="error__types_8h.html" target="_top" xlink:title=" ">
<polygon fill="white" stroke="#666666" points="290.75,-76 158.5,-76 158.5,-56 290.75,-56 290.75,-76"/>
<text text-anchor="middle" x="224.62" y="-62.5" font-family="Helvetica,sans-Serif" font-size="10.00">ExoCode/src/error_types.h</text>
</a>
</g>
</g>
<!-- Node1&#45;&gt;Node3 -->
<g id="edge2_Node000001_Node000003" class="edge">
<title>Node1&#45;&gt;Node3</title>
<g id="a_edge2_Node000001_Node000003"><a xlink:title=" ">
<path fill="none" stroke="#63b8ff" d="M175.42,-104.95C187.53,-95.61 202.38,-84.16 212.57,-76.3"/>
<polygon fill="#63b8ff" stroke="#63b8ff" points="173.6,-102.71 167.82,-111.59 177.87,-108.26 173.6,-102.71"/>
</a>
</g>
</g>
<!-- Node4 -->
<g id="Node000004" class="node">
<title>Node4</title>
<g id="a_Node000004"><a xlink:href="_coms_m_c_u_8cpp.html" target="_top" xlink:title=" ">
<polygon fill="white" stroke="#666666" points="141.25,-20 0,-20 0,0 141.25,0 141.25,-20"/>
<text text-anchor="middle" x="70.62" y="-6.5" font-family="Helvetica,sans-Serif" font-size="10.00">ExoCode/src/ComsMCU.cpp</text>
</a>
</g>
</g>
<!-- Node3&#45;&gt;Node4 -->
<g id="edge3_Node000003_Node000004" class="edge">
<title>Node3&#45;&gt;Node4</title>
<g id="a_edge3_Node000003_Node000004"><a xlink:title=" ">
<path fill="none" stroke="#63b8ff" d="M187.69,-52.05C159.97,-42.33 122.64,-29.24 97.66,-20.48"/>
<polygon fill="#63b8ff" stroke="#63b8ff" points="186.21,-55.59 196.8,-55.59 188.52,-48.98 186.21,-55.59"/>
</a>
</g>
</g>
<!-- Node5 -->
<g id="Node000005" class="node">
<title>Node5</title>
<g id="a_Node000005"><a xlink:href="_exo_data_8cpp.html" target="_top" xlink:title=" ">
<polygon fill="white" stroke="#666666" points="290.38,-20 158.88,-20 158.88,0 290.38,0 290.38,-20"/>
<text text-anchor="middle" x="224.62" y="-6.5" font-family="Helvetica,sans-Serif" font-size="10.00">ExoCode/src/ExoData.cpp</text>
</a>
</g>
</g>
<!-- Node3&#45;&gt;Node5 -->
<g id="edge4_Node000003_Node000005" class="edge">
<title>Node3&#45;&gt;Node5</title>
<g id="a_edge4_Node000003_Node000005"><a xlink:title=" ">
<path fill="none" stroke="#63b8ff" d="M224.62,-44.71C224.62,-36.32 224.62,-27.01 224.62,-20.3"/>
<polygon fill="#63b8ff" stroke="#63b8ff" points="221.13,-44.59 224.62,-54.59 228.13,-44.59 221.13,-44.59"/>
</a>
</g>
</g>
<!-- Node6 -->
<g id="Node000006" class="node">
<title>Node6</title>
<g id="a_Node000006"><a xlink:href="_motor_8cpp.html" target="_top" xlink:title=" ">
<polygon fill="white" stroke="#666666" points="427,-20 308.25,-20 308.25,0 427,0 427,-20"/>
<text text-anchor="middle" x="367.62" y="-6.5" font-family="Helvetica,sans-Serif" font-size="10.00">ExoCode/src/Motor.cpp</text>
</a>
</g>
</g>
<!-- Node3&#45;&gt;Node6 -->
<g id="edge5_Node000003_Node000006" class="edge">
<title>Node3&#45;&gt;Node6</title>
<g id="a_edge5_Node000003_Node000006"><a xlink:title=" ">
<path fill="none" stroke="#63b8ff" d="M259.6,-51.79C285.27,-42.1 319.53,-29.16 342.52,-20.48"/>
<polygon fill="#63b8ff" stroke="#63b8ff" points="258.65,-48.79 250.53,-55.59 261.13,-55.34 258.65,-48.79"/>
</a>
</g>
</g>
</g>
</svg>
