<?xml version="1.0" encoding="UTF-8" standalone="no"?>
<!DOCTYPE svg PUBLIC "-//W3C//DTD SVG 1.1//EN"
 "http://www.w3.org/Graphics/SVG/1.1/DTD/svg11.dtd">
<!-- Generated by graphviz version 8.1.0 (20230707.0739)
 -->
<!-- Title: ExoCode/src/ExoData.cpp Pages: 1 -->
<svg width="1213pt" height="476pt"
 viewBox="0.00 0.00 1212.62 476.00" xmlns="http://www.w3.org/2000/svg" xmlns:xlink="http://www.w3.org/1999/xlink">
<g id="graph0" class="graph" transform="scale(1 1) rotate(0) translate(4 472)">
<title>ExoCode/src/ExoData.cpp</title>
<!-- Node1 -->
<g id="Node000001" class="node">
<title>Node1</title>
<g id="a_Node000001"><a xlink:title=" ">
<polygon fill="#999999" stroke="#666666" points="886.75,-468 755.25,-468 755.25,-448 886.75,-448 886.75,-468"/>
<text text-anchor="middle" x="821" y="-454.5" font-family="Helvetica,sans-Serif" font-size="10.00">ExoCode/src/ExoData.cpp</text>
</a>
</g>
</g>
<!-- Node2 -->
<g id="Node000002" class="node">
<title>Node2</title>
<g id="a_Node000002"><a xlink:href="_exo_data_8h.html" target="_top" xlink:title="Declares a class used to store data for the Exo to access.">
<polygon fill="white" stroke="#666666" points="819.88,-356 758.12,-356 758.12,-336 819.88,-336 819.88,-356"/>
<text text-anchor="middle" x="789" y="-342.5" font-family="Helvetica,sans-Serif" font-size="10.00">ExoData.h</text>
</a>
</g>
</g>
<!-- Node1&#45;&gt;Node2 -->
<g id="edge1_Node000001_Node000002" class="edge">
<title>Node1&#45;&gt;Node2</title>
<g id="a_edge1_Node000001_Node000002"><a xlink:title=" ">
<path fill="none" stroke="#63b8ff" d="M818.27,-447.62C813.08,-429.76 801.66,-390.53 794.72,-366.67"/>
<polygon fill="#63b8ff" stroke="#63b8ff" points="797.88,-365.98 791.72,-357.35 791.15,-367.93 797.88,-365.98"/>
</a>
</g>
</g>
<!-- Node18 -->
<g id="Node000018" class="node">
<title>Node18</title>
<g id="a_Node000018"><a xlink:href="error__types_8h.html" target="_top" xlink:title=" ">
<polygon fill="white" stroke="#666666" points="890.5,-412 817.5,-412 817.5,-392 890.5,-392 890.5,-412"/>
<text text-anchor="middle" x="854" y="-398.5" font-family="Helvetica,sans-Serif" font-size="10.00">error_types.h</text>
</a>
</g>
</g>
<!-- Node1&#45;&gt;Node18 -->
<g id="edge42_Node000001_Node000018" class="edge">
<title>Node1&#45;&gt;Node18</title>
<g id="a_edge42_Node000001_Node000018"><a xlink:title=" ">
<path fill="none" stroke="#63b8ff" d="M826.75,-447.59C831.15,-440.39 837.36,-430.23 842.74,-421.43"/>
<polygon fill="#63b8ff" stroke="#63b8ff" points="846.09,-423.66 848.32,-413.3 840.12,-420.01 846.09,-423.66"/>
</a>
</g>
</g>
<!-- Node20 -->
<g id="Node000020" class="node">
<title>Node20</title>
<g id="a_Node000020"><a xlink:href="_logger_8h.html" target="_top" xlink:title=" ">
<polygon fill="white" stroke="#666666" points="1107.75,-132 1054.25,-132 1054.25,-112 1107.75,-112 1107.75,-132"/>
<text text-anchor="middle" x="1081" y="-118.5" font-family="Helvetica,sans-Serif" font-size="10.00">Logger.h</text>
</a>
</g>
</g>
<!-- Node1&#45;&gt;Node20 -->
<g id="edge45_Node000001_Node000020" class="edge">
<title>Node1&#45;&gt;Node20</title>
<g id="a_edge45_Node000001_Node000020"><a xlink:title=" ">
<path fill="none" stroke="#63b8ff" d="M887.03,-454.67C959.29,-448.18 1065,-425.3 1065,-347 1065,-347 1065,-347 1065,-233 1065,-201.25 1071.61,-164.87 1076.33,-142.93"/>
<polygon fill="#63b8ff" stroke="#63b8ff" points="1079.93,-143.87 1078.71,-133.35 1073.1,-142.34 1079.93,-143.87"/>
</a>
</g>
</g>
<!-- Node22 -->
<g id="Node000022" class="node">
<title>Node22</title>
<g id="a_Node000022"><a xlink:href="_params_from_s_d_8h.html" target="_top" xlink:title="Declares the functions to pull controller parameters from the SD card and defines the mapping to the ...">
<polygon fill="white" stroke="#666666" points="579,-412 485,-412 485,-392 579,-392 579,-412"/>
<text text-anchor="middle" x="532" y="-398.5" font-family="Helvetica,sans-Serif" font-size="10.00">ParamsFromSD.h</text>
</a>
</g>
</g>
<!-- Node1&#45;&gt;Node22 -->
<g id="edge50_Node000001_Node000022" class="edge">
<title>Node1&#45;&gt;Node22</title>
<g id="a_edge50_Node000001_Node000022"><a xlink:title=" ">
<path fill="none" stroke="#63b8ff" d="M770.33,-447.53C719.9,-438.11 642.6,-423.67 589.8,-413.8"/>
<polygon fill="#63b8ff" stroke="#63b8ff" points="590.73,-410.23 580.26,-411.83 589.44,-417.11 590.73,-410.23"/>
</a>
</g>
</g>
<!-- Node3 -->
<g id="Node000003" class="node">
<title>Node3</title>
<g id="a_Node000003"><a xlink:title=" ">
<polygon fill="#e0e0e0" stroke="#999999" points="780.62,-20 723.38,-20 723.38,0 780.62,0 780.62,-20"/>
<text text-anchor="middle" x="752" y="-6.5" font-family="Helvetica,sans-Serif" font-size="10.00">Arduino.h</text>
</a>
</g>
</g>
<!-- Node2&#45;&gt;Node3 -->
<g id="edge2_Node000002_Node000003" class="edge">
<title>Node2&#45;&gt;Node3</title>
<g id="a_edge2_Node000002_Node000003"><a xlink:title=" ">
<path fill="none" stroke="#63b8ff" d="M820.08,-335.6C841.03,-328.21 868.49,-316.42 889,-300 937.39,-261.26 949.09,-228.12 934,-168 918.92,-107.91 901.43,-91.99 851,-56 832.46,-42.77 809.4,-32.01 790.21,-24.34"/>
<polygon fill="#63b8ff" stroke="#63b8ff" points="791.58,-20.73 780.99,-20.4 789.06,-27.26 791.58,-20.73"/>
</a>
</g>
</g>
<!-- Node4 -->
<g id="Node000004" class="node">
<title>Node4</title>
<g id="a_Node000004"><a xlink:href="_leg_data_8h.html" target="_top" xlink:title="Declares a class used to store data for leg to access.">
<polygon fill="white" stroke="#666666" points="360.12,-300 299.88,-300 299.88,-280 360.12,-280 360.12,-300"/>
<text text-anchor="middle" x="330" y="-286.5" font-family="Helvetica,sans-Serif" font-size="10.00">LegData.h</text>
</a>
</g>
</g>
<!-- Node2&#45;&gt;Node4 -->
<g id="edge3_Node000002_Node000004" class="edge">
<title>Node2&#45;&gt;Node4</title>
<g id="a_edge3_Node000002_Node000004"><a xlink:title=" ">
<path fill="none" stroke="#63b8ff" d="M757.63,-342.61C688.22,-337.1 516.49,-322.25 374,-300 373.02,-299.85 372.03,-299.69 371.04,-299.52"/>
<polygon fill="#63b8ff" stroke="#63b8ff" points="371.69,-295.9 361.23,-297.57 370.45,-302.79 371.69,-295.9"/>
</a>
</g>
</g>
<!-- Node7 -->
<g id="Node000007" class="node">
<title>Node7</title>
<g id="a_Node000007"><a xlink:href="_parse_ini_8h.html" target="_top" xlink:title="Declares the functions needed and defines mapping between the INI keys and the exo components.">
<polygon fill="white" stroke="#666666" points="435.75,-132 376.25,-132 376.25,-112 435.75,-112 435.75,-132"/>
<text text-anchor="middle" x="406" y="-118.5" font-family="Helvetica,sans-Serif" font-size="10.00">ParseIni.h</text>
</a>
</g>
</g>
<!-- Node2&#45;&gt;Node7 -->
<g id="edge33_Node000002_Node000007" class="edge">
<title>Node2&#45;&gt;Node7</title>
<g id="a_edge33_Node000002_Node000007"><a xlink:title=" ">
<path fill="none" stroke="#63b8ff" d="M758.01,-343.6C694.09,-339.17 546.01,-320.72 455,-244 424.34,-218.16 412.66,-170.25 408.36,-143.11"/>
<polygon fill="#63b8ff" stroke="#63b8ff" points="411.7,-142.69 406.87,-133.26 404.77,-143.64 411.7,-142.69"/>
</a>
</g>
</g>
<!-- Node8 -->
<g id="Node000008" class="node">
<title>Node8</title>
<g id="a_Node000008"><a xlink:title=" ">
<polygon fill="#e0e0e0" stroke="#999999" points="567.12,-76 518.88,-76 518.88,-56 567.12,-56 567.12,-76"/>
<text text-anchor="middle" x="543" y="-62.5" font-family="Helvetica,sans-Serif" font-size="10.00">stdint.h</text>
</a>
</g>
</g>
<!-- Node2&#45;&gt;Node8 -->
<g id="edge32_Node000002_Node000008" class="edge">
<title>Node2&#45;&gt;Node8</title>
<g id="a_edge32_Node000002_Node000008"><a xlink:title=" ">
<path fill="none" stroke="#63b8ff" d="M784.42,-335.81C770.44,-308.32 726.11,-225.12 674,-168 646.91,-138.31 634.86,-136.5 603,-112 590.13,-102.1 575.57,-91.17 564.01,-82.56"/>
<polygon fill="#63b8ff" stroke="#63b8ff" points="566.59,-79.38 556.48,-76.22 562.42,-84.99 566.59,-79.38"/>
</a>
</g>
</g>
<!-- Node9 -->
<g id="Node000009" class="node">
<title>Node9</title>
<g id="a_Node000009"><a xlink:href="_board_8h.html" target="_top" xlink:title=" ">
<polygon fill="white" stroke="#666666" points="834.88,-132 785.12,-132 785.12,-112 834.88,-112 834.88,-132"/>
<text text-anchor="middle" x="810" y="-118.5" font-family="Helvetica,sans-Serif" font-size="10.00">Board.h</text>
</a>
</g>
</g>
<!-- Node2&#45;&gt;Node9 -->
<g id="edge34_Node000002_Node000009" class="edge">
<title>Node2&#45;&gt;Node9</title>
<g id="a_edge34_Node000002_Node000009"><a xlink:title=" ">
<path fill="none" stroke="#63b8ff" d="M808.83,-335.61C837.67,-320.74 890.22,-288.8 913,-244 928.32,-213.87 934.66,-196.19 916,-168 900.5,-144.58 870.09,-133.31 845.8,-127.91"/>
<polygon fill="#63b8ff" stroke="#63b8ff" points="846.64,-124.31 836.15,-125.82 845.29,-131.18 846.64,-124.31"/>
</a>
</g>
</g>
<!-- Node16 -->
<g id="Node000016" class="node">
<title>Node16</title>
<g id="a_Node000016"><a xlink:href="_status_led_8h.html" target="_top" xlink:title="Class to set an RGB LED to different colors based on the state of the system.">
<polygon fill="white" stroke="#666666" points="904.25,-244 835.75,-244 835.75,-224 904.25,-224 904.25,-244"/>
<text text-anchor="middle" x="870" y="-230.5" font-family="Helvetica,sans-Serif" font-size="10.00">StatusLed.h</text>
</a>
</g>
</g>
<!-- Node2&#45;&gt;Node16 -->
<g id="edge35_Node000002_Node000016" class="edge">
<title>Node2&#45;&gt;Node16</title>
<g id="a_edge35_Node000002_Node000016"><a xlink:title=" ">
<path fill="none" stroke="#63b8ff" d="M795.91,-335.62C809.36,-317.36 839.27,-276.73 856.7,-253.07"/>
<polygon fill="#63b8ff" stroke="#63b8ff" points="860,-255.48 863.11,-245.35 854.36,-251.33 860,-255.48"/>
</a>
</g>
</g>
<!-- Node17 -->
<g id="Node000017" class="node">
<title>Node17</title>
<g id="a_Node000017"><a xlink:href="_status_defs_8h.html" target="_top" xlink:title="Stores the different status messages for the system.">
<polygon fill="white" stroke="#666666" points="907.12,-188 834.88,-188 834.88,-168 907.12,-168 907.12,-188"/>
<text text-anchor="middle" x="871" y="-174.5" font-family="Helvetica,sans-Serif" font-size="10.00">StatusDefs.h</text>
</a>
</g>
</g>
<!-- Node2&#45;&gt;Node17 -->
<g id="edge41_Node000002_Node000017" class="edge">
<title>Node2&#45;&gt;Node17</title>
<g id="a_edge41_Node000002_Node000017"><a xlink:title=" ">
<path fill="none" stroke="#63b8ff" d="M790.41,-335.59C793.91,-314.38 804.39,-261.79 827,-224 833.4,-213.31 842.82,-203.22 851.31,-195.31"/>
<polygon fill="#63b8ff" stroke="#63b8ff" points="853.18,-198.44 858.34,-189.19 848.53,-193.21 853.18,-198.44"/>
</a>
</g>
</g>
<!-- Node4&#45;&gt;Node3 -->
<g id="edge4_Node000004_Node000003" class="edge">
<title>Node4&#45;&gt;Node3</title>
<g id="a_edge4_Node000004_Node000003"><a xlink:title=" ">
<path fill="none" stroke="#63b8ff" d="M299.55,-285.47C217.85,-275.17 0,-241.81 0,-179 0,-179 0,-179 0,-121 0,-69.1 47.9,-72.79 97,-56 211.78,-16.75 588.51,-11.66 712.24,-11.06"/>
<polygon fill="#63b8ff" stroke="#63b8ff" points="712.08,-14.56 722.07,-11.02 712.06,-7.56 712.08,-14.56"/>
</a>
</g>
</g>
<!-- Node5 -->
<g id="Node000005" class="node">
<title>Node5</title>
<g id="a_Node000005"><a xlink:href="_joint_data_8h.html" target="_top" xlink:title="Declares a class used to store data for joint to access.">
<polygon fill="white" stroke="#666666" points="528.38,-244 463.62,-244 463.62,-224 528.38,-224 528.38,-244"/>
<text text-anchor="middle" x="496" y="-230.5" font-family="Helvetica,sans-Serif" font-size="10.00">JointData.h</text>
</a>
</g>
</g>
<!-- Node4&#45;&gt;Node5 -->
<g id="edge5_Node000004_Node000005" class="edge">
<title>Node4&#45;&gt;Node5</title>
<g id="a_edge5_Node000004_Node000005"><a xlink:title=" ">
<path fill="none" stroke="#63b8ff" d="M358.91,-279.59C386,-270.78 426.71,-257.54 456.73,-247.78"/>
<polygon fill="#63b8ff" stroke="#63b8ff" points="457.43,-250.9 465.86,-244.48 455.27,-244.24 457.43,-250.9"/>
</a>
</g>
</g>
<!-- Node4&#45;&gt;Node7 -->
<g id="edge25_Node000004_Node000007" class="edge">
<title>Node4&#45;&gt;Node7</title>
<g id="a_edge25_Node000004_Node000007"><a xlink:title=" ">
<path fill="none" stroke="#63b8ff" d="M332.36,-279.51C337.77,-258.57 352.23,-207.21 373,-168 378.02,-158.52 384.87,-148.83 391.02,-140.88"/>
<polygon fill="#63b8ff" stroke="#63b8ff" points="394.25,-143.45 397.78,-133.46 388.79,-139.07 394.25,-143.45"/>
</a>
</g>
</g>
<!-- Node4&#45;&gt;Node8 -->
<g id="edge31_Node000004_Node000008" class="edge">
<title>Node4&#45;&gt;Node8</title>
<g id="a_edge31_Node000004_Node000008"><a xlink:title=" ">
<path fill="none" stroke="#63b8ff" d="M328.79,-279.71C325.54,-250.46 319.84,-159.41 367,-112 386.53,-92.37 462.09,-78.49 507.62,-71.72"/>
<polygon fill="#63b8ff" stroke="#63b8ff" points="508.09,-75.04 517.49,-70.15 507.09,-68.11 508.09,-75.04"/>
</a>
</g>
</g>
<!-- Node4&#45;&gt;Node9 -->
<g id="edge26_Node000004_Node000009" class="edge">
<title>Node4&#45;&gt;Node9</title>
<g id="a_edge26_Node000004_Node000009"><a xlink:title=" ">
<path fill="none" stroke="#63b8ff" d="M360.2,-284.73C425.98,-274.63 586.12,-245.67 708,-188 737.52,-174.03 768.83,-153.04 788.85,-138.72"/>
<polygon fill="#63b8ff" stroke="#63b8ff" points="790.68,-140.99 796.71,-132.28 786.56,-135.33 790.68,-140.99"/>
</a>
</g>
</g>
<!-- Node13 -->
<g id="Node000013" class="node">
<title>Node13</title>
<g id="a_Node000013"><a xlink:href="_inclination_detector_8h.html" target="_top" xlink:title=" ">
<polygon fill="white" stroke="#666666" points="132.25,-188 27.75,-188 27.75,-168 132.25,-168 132.25,-188"/>
<text text-anchor="middle" x="80" y="-174.5" font-family="Helvetica,sans-Serif" font-size="10.00">InclinationDetector.h</text>
</a>
</g>
</g>
<!-- Node4&#45;&gt;Node13 -->
<g id="edge27_Node000004_Node000013" class="edge">
<title>Node4&#45;&gt;Node13</title>
<g id="a_edge27_Node000004_Node000013"><a xlink:title=" ">
<path fill="none" stroke="#63b8ff" d="M308.69,-279.62C264.5,-260.18 162.74,-215.4 111.17,-192.71"/>
<polygon fill="#63b8ff" stroke="#63b8ff" points="112.82,-189.18 102.26,-188.35 110,-195.59 112.82,-189.18"/>
</a>
</g>
</g>
<!-- Node5&#45;&gt;Node3 -->
<g id="edge6_Node000005_Node000003" class="edge">
<title>Node5&#45;&gt;Node3</title>
<g id="a_edge6_Node000005_Node000003"><a xlink:title=" ">
<path fill="none" stroke="#63b8ff" d="M470.53,-223.64C424.39,-205.21 334.63,-161.64 367,-112 405,-53.71 621.47,-24.63 712.1,-14.87"/>
<polygon fill="#63b8ff" stroke="#63b8ff" points="712.43,-18.25 722.01,-13.72 711.7,-11.29 712.43,-18.25"/>
</a>
</g>
</g>
<!-- Node6 -->
<g id="Node000006" class="node">
<title>Node6</title>
<g id="a_Node000006"><a xlink:href="_motor_data_8h.html" target="_top" xlink:title="Declares a class used to store data for motors to access.">
<polygon fill="white" stroke="#666666" points="664.62,-188 595.38,-188 595.38,-168 664.62,-168 664.62,-188"/>
<text text-anchor="middle" x="630" y="-174.5" font-family="Helvetica,sans-Serif" font-size="10.00">MotorData.h</text>
</a>
</g>
</g>
<!-- Node5&#45;&gt;Node6 -->
<g id="edge7_Node000005_Node000006" class="edge">
<title>Node5&#45;&gt;Node6</title>
<g id="a_edge7_Node000005_Node000006"><a xlink:title=" ">
<path fill="none" stroke="#63b8ff" d="M519.34,-223.59C540.63,-215.01 572.35,-202.23 596.37,-192.55"/>
<polygon fill="#63b8ff" stroke="#63b8ff" points="597.51,-195.46 605.48,-188.48 594.89,-188.97 597.51,-195.46"/>
</a>
</g>
</g>
<!-- Node5&#45;&gt;Node7 -->
<g id="edge22_Node000005_Node000007" class="edge">
<title>Node5&#45;&gt;Node7</title>
<g id="a_edge22_Node000005_Node000007"><a xlink:title=" ">
<path fill="none" stroke="#63b8ff" d="M482.97,-223.67C471.75,-215.21 455.6,-201.96 444,-188 432.27,-173.88 421.97,-155.69 415.07,-142.14"/>
<polygon fill="#63b8ff" stroke="#63b8ff" points="417.85,-140.87 410.29,-133.44 411.57,-143.96 417.85,-140.87"/>
</a>
</g>
</g>
<!-- Node5&#45;&gt;Node8 -->
<g id="edge24_Node000005_Node000008" class="edge">
<title>Node5&#45;&gt;Node8</title>
<g id="a_edge24_Node000005_Node000008"><a xlink:title=" ">
<path fill="none" stroke="#63b8ff" d="M513.3,-223.51C525.51,-215.75 540.9,-203.53 548,-188 563.09,-154.98 555.55,-111.46 549.04,-86.63"/>
<polygon fill="#63b8ff" stroke="#63b8ff" points="552.22,-86.01 546.12,-77.35 545.49,-87.92 552.22,-86.01"/>
</a>
</g>
</g>
<!-- Node5&#45;&gt;Node9 -->
<g id="edge23_Node000005_Node000009" class="edge">
<title>Node5&#45;&gt;Node9</title>
<g id="a_edge23_Node000005_Node000009"><a xlink:title=" ">
<path fill="none" stroke="#63b8ff" d="M528.73,-226.76C564.89,-219.4 624.54,-205.87 674,-188 679.45,-186.03 742.49,-155.66 780.8,-137.13"/>
<polygon fill="#63b8ff" stroke="#63b8ff" points="781.94,-139.99 789.42,-132.48 778.9,-133.69 781.94,-139.99"/>
</a>
</g>
</g>
<!-- Node12 -->
<g id="Node000012" class="node">
<title>Node12</title>
<g id="a_Node000012"><a xlink:href="_controller_data_8h.html" target="_top" xlink:title="Declares a class used to store data for controllers to access.">
<polygon fill="white" stroke="#666666" points="538.88,-188 453.12,-188 453.12,-168 538.88,-168 538.88,-188"/>
<text text-anchor="middle" x="496" y="-174.5" font-family="Helvetica,sans-Serif" font-size="10.00">ControllerData.h</text>
</a>
</g>
</g>
<!-- Node5&#45;&gt;Node12 -->
<g id="edge17_Node000005_Node000012" class="edge">
<title>Node5&#45;&gt;Node12</title>
<g id="a_edge17_Node000005_Node000012"><a xlink:title=" ">
<path fill="none" stroke="#63b8ff" d="M496,-223.59C496,-216.86 496,-207.53 496,-199.15"/>
<polygon fill="#63b8ff" stroke="#63b8ff" points="499.5,-199.3 496,-189.3 492.5,-199.3 499.5,-199.3"/>
</a>
</g>
</g>
<!-- Node6&#45;&gt;Node3 -->
<g id="edge8_Node000006_Node000003" class="edge">
<title>Node6&#45;&gt;Node3</title>
<g id="a_edge8_Node000006_Node000003"><a xlink:title=" ">
<path fill="none" stroke="#63b8ff" d="M636.91,-167.6C656.54,-140.89 712.88,-64.23 738.74,-29.05"/>
<polygon fill="#63b8ff" stroke="#63b8ff" points="742.07,-31.43 745.17,-21.3 736.42,-27.28 742.07,-31.43"/>
</a>
</g>
</g>
<!-- Node6&#45;&gt;Node7 -->
<g id="edge9_Node000006_Node000007" class="edge">
<title>Node6&#45;&gt;Node7</title>
<g id="a_edge9_Node000006_Node000007"><a xlink:title=" ">
<path fill="none" stroke="#63b8ff" d="M595,-168.56C554.82,-158.88 489,-143.01 446.6,-132.79"/>
<polygon fill="#63b8ff" stroke="#63b8ff" points="447.64,-129.2 437.09,-130.25 445.99,-136 447.64,-129.2"/>
</a>
</g>
</g>
<!-- Node6&#45;&gt;Node8 -->
<g id="edge16_Node000006_Node000008" class="edge">
<title>Node6&#45;&gt;Node8</title>
<g id="a_edge16_Node000006_Node000008"><a xlink:title=" ">
<path fill="none" stroke="#63b8ff" d="M623.18,-167.62C613.86,-154.87 596.52,-131.44 581,-112 573.6,-102.73 565.1,-92.62 558.02,-84.33"/>
<polygon fill="#63b8ff" stroke="#63b8ff" points="560.19,-82.48 551.01,-77.18 554.88,-87.05 560.19,-82.48"/>
</a>
</g>
</g>
<!-- Node6&#45;&gt;Node9 -->
<g id="edge11_Node000006_Node000009" class="edge">
<title>Node6&#45;&gt;Node9</title>
<g id="a_edge11_Node000006_Node000009"><a xlink:title=" ">
<path fill="none" stroke="#63b8ff" d="M661.35,-167.59C692.98,-158.11 741.73,-143.48 774.7,-133.59"/>
<polygon fill="#63b8ff" stroke="#63b8ff" points="775.23,-136.78 783.81,-130.56 773.22,-130.08 775.23,-136.78"/>
</a>
</g>
</g>
<!-- Node7&#45;&gt;Node8 -->
<g id="edge10_Node000007_Node000008" class="edge">
<title>Node7&#45;&gt;Node8</title>
<g id="a_edge10_Node000007_Node000008"><a xlink:title=" ">
<path fill="none" stroke="#63b8ff" d="M429.86,-111.59C451.73,-102.97 484.35,-90.12 508.95,-80.42"/>
<polygon fill="#63b8ff" stroke="#63b8ff" points="509.93,-83.4 517.95,-76.48 507.36,-76.89 509.93,-83.4"/>
</a>
</g>
</g>
<!-- Node9&#45;&gt;Node3 -->
<g id="edge15_Node000009_Node000003" class="edge">
<title>Node9&#45;&gt;Node3</title>
<g id="a_edge15_Node000009_Node000003"><a xlink:title=" ">
<path fill="none" stroke="#63b8ff" d="M805.05,-111.62C795.55,-93.6 774.57,-53.81 762.03,-30.02"/>
<polygon fill="#63b8ff" stroke="#63b8ff" points="764.69,-28.57 756.93,-21.35 758.5,-31.83 764.69,-28.57"/>
</a>
</g>
</g>
<!-- Node10 -->
<g id="Node000010" class="node">
<title>Node10</title>
<g id="a_Node000010"><a xlink:href="_config_8h.html" target="_top" xlink:title=" ">
<polygon fill="white" stroke="#666666" points="1052.62,-76 1001.38,-76 1001.38,-56 1052.62,-56 1052.62,-76"/>
<text text-anchor="middle" x="1027" y="-62.5" font-family="Helvetica,sans-Serif" font-size="10.00">Config.h</text>
</a>
</g>
</g>
<!-- Node9&#45;&gt;Node10 -->
<g id="edge12_Node000009_Node000010" class="edge">
<title>Node9&#45;&gt;Node10</title>
<g id="a_edge12_Node000009_Node000010"><a xlink:title=" ">
<path fill="none" stroke="#63b8ff" d="M835.32,-114.7C873.66,-105.16 946.63,-87 990.64,-76.05"/>
<polygon fill="#63b8ff" stroke="#63b8ff" points="991.31,-79.24 1000.17,-73.43 989.62,-72.45 991.31,-79.24"/>
</a>
</g>
</g>
<!-- Node10&#45;&gt;Node3 -->
<g id="edge13_Node000010_Node000003" class="edge">
<title>Node10&#45;&gt;Node3</title>
<g id="a_edge13_Node000010_Node000003"><a xlink:title=" ">
<path fill="none" stroke="#63b8ff" d="M1001.21,-59.07C996.49,-58.02 991.6,-56.96 987,-56 918.48,-41.73 838.35,-26.75 791.58,-18.18"/>
<polygon fill="#63b8ff" stroke="#63b8ff" points="792.47,-14.6 782,-16.24 791.21,-21.49 792.47,-14.6"/>
</a>
</g>
</g>
<!-- Node11 -->
<g id="Node000011" class="node">
<title>Node11</title>
<g id="a_Node000011"><a xlink:href="_log_levels_8h.html" target="_top" xlink:title=" ">
<polygon fill="white" stroke="#666666" points="1106.5,-20 1039.5,-20 1039.5,0 1106.5,0 1106.5,-20"/>
<text text-anchor="middle" x="1073" y="-6.5" font-family="Helvetica,sans-Serif" font-size="10.00">LogLevels.h</text>
</a>
</g>
</g>
<!-- Node10&#45;&gt;Node11 -->
<g id="edge14_Node000010_Node000011" class="edge">
<title>Node10&#45;&gt;Node11</title>
<g id="a_edge14_Node000010_Node000011"><a xlink:title=" ">
<path fill="none" stroke="#63b8ff" d="M1035.01,-55.59C1041.34,-48.16 1050.36,-37.58 1058.02,-28.58"/>
<polygon fill="#63b8ff" stroke="#63b8ff" points="1061.26,-31.18 1065.08,-21.3 1055.93,-26.64 1061.26,-31.18"/>
</a>
</g>
</g>
<!-- Node12&#45;&gt;Node3 -->
<g id="edge19_Node000012_Node000003" class="edge">
<title>Node12&#45;&gt;Node3</title>
<g id="a_edge19_Node000012_Node000003"><a xlink:title=" ">
<path fill="none" stroke="#63b8ff" d="M493.78,-167.62C489.07,-145.08 480.7,-87.38 510,-56 536.9,-27.18 650.74,-16.53 712.22,-12.83"/>
<polygon fill="#63b8ff" stroke="#63b8ff" points="712.27,-16.27 722.06,-12.21 711.88,-9.28 712.27,-16.27"/>
</a>
</g>
</g>
<!-- Node12&#45;&gt;Node7 -->
<g id="edge21_Node000012_Node000007" class="edge">
<title>Node12&#45;&gt;Node7</title>
<g id="a_edge21_Node000012_Node000007"><a xlink:title=" ">
<path fill="none" stroke="#63b8ff" d="M480.32,-167.59C466.73,-159.44 446.8,-147.48 431.01,-138"/>
<polygon fill="#63b8ff" stroke="#63b8ff" points="433.17,-134.62 422.8,-132.48 429.57,-140.63 433.17,-134.62"/>
</a>
</g>
</g>
<!-- Node12&#45;&gt;Node8 -->
<g id="edge18_Node000012_Node000008" class="edge">
<title>Node12&#45;&gt;Node8</title>
<g id="a_edge18_Node000012_Node000008"><a xlink:title=" ">
<path fill="none" stroke="#63b8ff" d="M500.01,-167.62C507.67,-149.68 524.55,-110.17 534.73,-86.35"/>
<polygon fill="#63b8ff" stroke="#63b8ff" points="538.29,-87.93 539,-77.35 531.86,-85.18 538.29,-87.93"/>
</a>
</g>
</g>
<!-- Node12&#45;&gt;Node9 -->
<g id="edge20_Node000012_Node000009" class="edge">
<title>Node12&#45;&gt;Node9</title>
<g id="a_edge20_Node000012_Node000009"><a xlink:title=" ">
<path fill="none" stroke="#63b8ff" d="M539.33,-169.55C601.79,-158.81 715.98,-139.17 774.04,-129.18"/>
<polygon fill="#63b8ff" stroke="#63b8ff" points="774.61,-132.47 783.87,-127.32 773.43,-125.57 774.61,-132.47"/>
</a>
</g>
</g>
<!-- Node13&#45;&gt;Node3 -->
<g id="edge28_Node000013_Node000003" class="edge">
<title>Node13&#45;&gt;Node3</title>
<g id="a_edge28_Node000013_Node000003"><a xlink:title=" ">
<path fill="none" stroke="#63b8ff" d="M72.46,-167.76C62.47,-154.35 47.51,-129.2 60,-112 107.23,-46.95 153.22,-72.01 232,-56 408.52,-20.12 624.44,-12.83 712.14,-11.36"/>
<polygon fill="#63b8ff" stroke="#63b8ff" points="711.97,-14.85 721.92,-11.2 711.87,-7.85 711.97,-14.85"/>
</a>
</g>
</g>
<!-- Node14 -->
<g id="Node000014" class="node">
<title>Node14</title>
<g id="a_Node000014"><a xlink:title=" ">
<polygon fill="#e0e0e0" stroke="#999999" points="111.12,-132 68.88,-132 68.88,-112 111.12,-112 111.12,-132"/>
<text text-anchor="middle" x="90" y="-118.5" font-family="Helvetica,sans-Serif" font-size="10.00">queue</text>
</a>
</g>
</g>
<!-- Node13&#45;&gt;Node14 -->
<g id="edge29_Node000013_Node000014" class="edge">
<title>Node13&#45;&gt;Node14</title>
<g id="a_edge29_Node000013_Node000014"><a xlink:title=" ">
<path fill="none" stroke="#63b8ff" d="M81.74,-167.59C83,-160.78 84.76,-151.32 86.32,-142.86"/>
<polygon fill="#63b8ff" stroke="#63b8ff" points="89.9,-143.77 88.28,-133.3 83.02,-142.49 89.9,-143.77"/>
</a>
</g>
</g>
<!-- Node15 -->
<g id="Node000015" class="node">
<title>Node15</title>
<g id="a_Node000015"><a xlink:title=" ">
<polygon fill="#e0e0e0" stroke="#999999" points="168.62,-132 129.38,-132 129.38,-112 168.62,-112 168.62,-132"/>
<text text-anchor="middle" x="149" y="-118.5" font-family="Helvetica,sans-Serif" font-size="10.00">utility</text>
</a>
</g>
</g>
<!-- Node13&#45;&gt;Node15 -->
<g id="edge30_Node000013_Node000015" class="edge">
<title>Node13&#45;&gt;Node15</title>
<g id="a_edge30_Node000013_Node000015"><a xlink:title=" ">
<path fill="none" stroke="#63b8ff" d="M92.02,-167.59C102.11,-159.7 116.75,-148.24 128.66,-138.92"/>
<polygon fill="#63b8ff" stroke="#63b8ff" points="130.4,-141.22 136.12,-132.3 126.09,-135.71 130.4,-141.22"/>
</a>
</g>
</g>
<!-- Node16&#45;&gt;Node3 -->
<g id="edge36_Node000016_Node000003" class="edge">
<title>Node16&#45;&gt;Node3</title>
<g id="a_edge36_Node000016_Node000003"><a xlink:title=" ">
<path fill="none" stroke="#63b8ff" d="M884.68,-223.54C895.6,-215.56 909.68,-203.03 916,-188 919.45,-179.81 919,-176.37 916,-168 891.81,-100.44 819.07,-49.56 779.08,-25.81"/>
<polygon fill="#63b8ff" stroke="#63b8ff" points="781.08,-22.35 770.67,-20.37 777.57,-28.4 781.08,-22.35"/>
</a>
</g>
</g>
<!-- Node16&#45;&gt;Node9 -->
<g id="edge37_Node000016_Node000009" class="edge">
<title>Node16&#45;&gt;Node9</title>
<g id="a_edge37_Node000016_Node000009"><a xlink:title=" ">
<path fill="none" stroke="#63b8ff" d="M857.71,-223.61C847.71,-215.31 833.97,-202.32 826,-188 818.3,-174.16 814.26,-156.63 812.17,-143.27"/>
<polygon fill="#63b8ff" stroke="#63b8ff" points="815.52,-142.85 810.75,-133.39 808.58,-143.76 815.52,-142.85"/>
</a>
</g>
</g>
<!-- Node16&#45;&gt;Node17 -->
<g id="edge38_Node000016_Node000017" class="edge">
<title>Node16&#45;&gt;Node17</title>
<g id="a_edge38_Node000016_Node000017"><a xlink:title=" ">
<path fill="none" stroke="#63b8ff" d="M870.17,-223.59C870.3,-216.86 870.47,-207.53 870.63,-199.15"/>
<polygon fill="#63b8ff" stroke="#63b8ff" points="874.14,-199.36 870.83,-189.3 867.14,-199.23 874.14,-199.36"/>
</a>
</g>
</g>
<!-- Node17&#45;&gt;Node3 -->
<g id="edge39_Node000017_Node000003" class="edge">
<title>Node17&#45;&gt;Node3</title>
<g id="a_edge39_Node000017_Node000003"><a xlink:title=" ">
<path fill="none" stroke="#63b8ff" d="M868.21,-167.72C864.05,-154.68 855.48,-130.47 844,-112 823.29,-78.69 790.94,-46.27 770.64,-27.49"/>
<polygon fill="#63b8ff" stroke="#63b8ff" points="773.5,-25.45 763.74,-21.31 768.79,-30.63 773.5,-25.45"/>
</a>
</g>
</g>
<!-- Node17&#45;&gt;Node9 -->
<g id="edge40_Node000017_Node000009" class="edge">
<title>Node17&#45;&gt;Node9</title>
<g id="a_edge40_Node000017_Node000009"><a xlink:title=" ">
<path fill="none" stroke="#63b8ff" d="M860.37,-167.59C851.63,-159.85 839.02,-148.69 828.6,-139.47"/>
<polygon fill="#63b8ff" stroke="#63b8ff" points="831.31,-137.31 821.5,-133.3 826.67,-142.55 831.31,-137.31"/>
</a>
</g>
</g>
<!-- Node18&#45;&gt;Node2 -->
<g id="edge43_Node000018_Node000002" class="edge">
<title>Node18&#45;&gt;Node2</title>
<g id="a_edge43_Node000018_Node000002"><a xlink:title=" ">
<path fill="none" stroke="#63b8ff" d="M842.68,-391.59C833.26,-383.77 819.65,-372.46 808.49,-363.19"/>
<polygon fill="#63b8ff" stroke="#63b8ff" points="811.12,-360 801.19,-356.3 806.65,-365.38 811.12,-360"/>
</a>
</g>
</g>
<!-- Node19 -->
<g id="Node000019" class="node">
<title>Node19</title>
<g id="a_Node000019"><a xlink:href="_exo_8h.html" target="_top" xlink:title="Declares for the different exo class that all the other components will live in.">
<polygon fill="white" stroke="#666666" points="879.75,-356 838.25,-356 838.25,-336 879.75,-336 879.75,-356"/>
<text text-anchor="middle" x="859" y="-342.5" font-family="Helvetica,sans-Serif" font-size="10.00">Exo.h</text>
</a>
</g>
</g>
<!-- Node18&#45;&gt;Node19 -->
<g id="edge44_Node000018_Node000019" class="edge">
<title>Node18&#45;&gt;Node19</title>
<g id="a_edge44_Node000018_Node000019"><a xlink:title=" ">
<path fill="none" stroke="#63b8ff" d="M854.87,-391.59C855.49,-384.86 856.36,-375.53 857.13,-367.15"/>
<polygon fill="#63b8ff" stroke="#63b8ff" points="860.7,-367.58 858.14,-357.3 853.73,-366.93 860.7,-367.58"/>
</a>
</g>
</g>
<!-- Node20&#45;&gt;Node3 -->
<g id="edge46_Node000020_Node000003" class="edge">
<title>Node20&#45;&gt;Node3</title>
<g id="a_edge46_Node000020_Node000003"><a xlink:title=" ">
<path fill="none" stroke="#63b8ff" d="M1081.21,-111.83C1081,-97.56 1078.33,-70.19 1062,-56 1022.36,-21.57 866.16,-13.48 791.78,-11.58"/>
<polygon fill="#63b8ff" stroke="#63b8ff" points="792.08,-8.06 782,-11.33 791.92,-15.06 792.08,-8.06"/>
</a>
</g>
</g>
<!-- Node20&#45;&gt;Node10 -->
<g id="edge48_Node000020_Node000010" class="edge">
<title>Node20&#45;&gt;Node10</title>
<g id="a_edge48_Node000020_Node000010"><a xlink:title=" ">
<path fill="none" stroke="#63b8ff" d="M1071.59,-111.59C1064.01,-104.01 1053.13,-93.13 1044.02,-84.02"/>
<polygon fill="#63b8ff" stroke="#63b8ff" points="1046.84,-81.89 1037.3,-77.3 1041.89,-86.84 1046.84,-81.89"/>
</a>
</g>
</g>
<!-- Node20&#45;&gt;Node11 -->
<g id="edge47_Node000020_Node000011" class="edge">
<title>Node20&#45;&gt;Node11</title>
<g id="a_edge47_Node000020_Node000011"><a xlink:title=" ">
<path fill="none" stroke="#63b8ff" d="M1085.59,-111.72C1091.24,-99.09 1099.58,-75.79 1095,-56 1092.9,-46.91 1088.7,-37.54 1084.52,-29.72"/>
<polygon fill="#63b8ff" stroke="#63b8ff" points="1087.06,-28.11 1079.05,-21.18 1080.99,-31.6 1087.06,-28.11"/>
</a>
</g>
</g>
<!-- Node21 -->
<g id="Node000021" class="node">
<title>Node21</title>
<g id="a_Node000021"><a xlink:title=" ">
<polygon fill="#e0e0e0" stroke="#999999" points="1204.62,-76 1147.38,-76 1147.38,-56 1204.62,-56 1204.62,-76"/>
<text text-anchor="middle" x="1176" y="-62.5" font-family="Helvetica,sans-Serif" font-size="10.00">functional</text>
</a>
</g>
</g>
<!-- Node20&#45;&gt;Node21 -->
<g id="edge49_Node000020_Node000021" class="edge">
<title>Node20&#45;&gt;Node21</title>
<g id="a_edge49_Node000020_Node000021"><a xlink:title=" ">
<path fill="none" stroke="#63b8ff" d="M1097.55,-111.59C1112.03,-103.36 1133.33,-91.26 1150.07,-81.74"/>
<polygon fill="#63b8ff" stroke="#63b8ff" points="1151.36,-84.46 1158.32,-76.48 1147.9,-78.38 1151.36,-84.46"/>
</a>
</g>
</g>
<!-- Node22&#45;&gt;Node2 -->
<g id="edge51_Node000022_Node000002" class="edge">
<title>Node22&#45;&gt;Node2</title>
<g id="a_edge51_Node000022_Node000002"><a xlink:title=" ">
<path fill="none" stroke="#63b8ff" d="M577.06,-391.53C625.04,-381.45 700.36,-365.63 747.1,-355.8"/>
<polygon fill="#63b8ff" stroke="#63b8ff" points="747.69,-359.05 756.76,-353.56 746.25,-352.2 747.69,-359.05"/>
</a>
</g>
</g>
<!-- Node22&#45;&gt;Node7 -->
<g id="edge52_Node000022_Node000007" class="edge">
<title>Node22&#45;&gt;Node7</title>
<g id="a_edge52_Node000022_Node000007"><a xlink:title=" ">
<path fill="none" stroke="#63b8ff" d="M484.73,-396.57C427.55,-388.38 333.65,-365.21 291,-300 252.04,-240.43 338.41,-169.35 382.35,-138.53"/>
<polygon fill="#63b8ff" stroke="#63b8ff" points="384,-140.96 390.27,-132.42 380.05,-135.18 384,-140.96"/>
</a>
</g>
</g>
<!-- Node23 -->
<g id="Node000023" class="node">
<title>Node23</title>
<g id="a_Node000023"><a xlink:href="_utilities_8h.html" target="_top" xlink:title=" ">
<polygon fill="white" stroke="#666666" points="207.25,-188 150.75,-188 150.75,-168 207.25,-168 207.25,-188"/>
<text text-anchor="middle" x="179" y="-174.5" font-family="Helvetica,sans-Serif" font-size="10.00">Utilities.h</text>
</a>
</g>
</g>
<!-- Node22&#45;&gt;Node23 -->
<g id="edge53_Node000022_Node000023" class="edge">
<title>Node22&#45;&gt;Node23</title>
<g id="a_edge53_Node000022_Node000023"><a xlink:title=" ">
<path fill="none" stroke="#63b8ff" d="M484.69,-398.57C415.89,-394.17 292.64,-382.71 258,-356 206.54,-316.32 187.77,-235.79 181.64,-198.62"/>
<polygon fill="#63b8ff" stroke="#63b8ff" points="185.02,-198.55 180.08,-189.18 178.1,-199.59 185.02,-198.55"/>
</a>
</g>
</g>
<!-- Node24 -->
<g id="Node000024" class="node">
<title>Node24</title>
<g id="a_Node000024"><a xlink:title=" ">
<polygon fill="#e0e0e0" stroke="#999999" points="465.88,-356 428.12,-356 428.12,-336 465.88,-336 465.88,-356"/>
<text text-anchor="middle" x="447" y="-342.5" font-family="Helvetica,sans-Serif" font-size="10.00">SD.h</text>
</a>
</g>
</g>
<!-- Node22&#45;&gt;Node24 -->
<g id="edge59_Node000022_Node000024" class="edge">
<title>Node22&#45;&gt;Node24</title>
<g id="a_edge59_Node000022_Node000024"><a xlink:title=" ">
<path fill="none" stroke="#63b8ff" d="M517.19,-391.59C504.47,-383.51 485.89,-371.71 471.04,-362.27"/>
<polygon fill="#63b8ff" stroke="#63b8ff" points="473.24,-358.89 462.92,-356.48 469.49,-364.8 473.24,-358.89"/>
</a>
</g>
</g>
<!-- Node25 -->
<g id="Node000025" class="node">
<title>Node25</title>
<g id="a_Node000025"><a xlink:title=" ">
<polygon fill="#e0e0e0" stroke="#999999" points="524,-356 484,-356 484,-336 524,-336 524,-356"/>
<text text-anchor="middle" x="504" y="-342.5" font-family="Helvetica,sans-Serif" font-size="10.00">SPI.h</text>
</a>
</g>
</g>
<!-- Node22&#45;&gt;Node25 -->
<g id="edge60_Node000022_Node000025" class="edge">
<title>Node22&#45;&gt;Node25</title>
<g id="a_edge60_Node000022_Node000025"><a xlink:title=" ">
<path fill="none" stroke="#63b8ff" d="M527.12,-391.59C523.47,-384.55 518.35,-374.67 513.85,-366"/>
<polygon fill="#63b8ff" stroke="#63b8ff" points="516.53,-364.56 508.82,-357.3 510.32,-367.79 516.53,-364.56"/>
</a>
</g>
</g>
<!-- Node26 -->
<g id="Node000026" class="node">
<title>Node26</title>
<g id="a_Node000026"><a xlink:title=" ">
<polygon fill="#e0e0e0" stroke="#999999" points="576.38,-356 541.62,-356 541.62,-336 576.38,-336 576.38,-356"/>
<text text-anchor="middle" x="559" y="-342.5" font-family="Helvetica,sans-Serif" font-size="10.00">map</text>
</a>
</g>
</g>
<!-- Node22&#45;&gt;Node26 -->
<g id="edge61_Node000022_Node000026" class="edge">
<title>Node22&#45;&gt;Node26</title>
<g id="a_edge61_Node000022_Node000026"><a xlink:title=" ">
<path fill="none" stroke="#63b8ff" d="M536.7,-391.59C540.23,-384.55 545.17,-374.67 549.5,-366"/>
<polygon fill="#63b8ff" stroke="#63b8ff" points="553.01,-367.81 554.35,-357.3 546.75,-364.68 553.01,-367.81"/>
</a>
</g>
</g>
<!-- Node27 -->
<g id="Node000027" class="node">
<title>Node27</title>
<g id="a_Node000027"><a xlink:title=" ">
<polygon fill="#e0e0e0" stroke="#999999" points="634,-356 594,-356 594,-336 634,-336 634,-356"/>
<text text-anchor="middle" x="614" y="-342.5" font-family="Helvetica,sans-Serif" font-size="10.00">string</text>
</a>
</g>
</g>
<!-- Node22&#45;&gt;Node27 -->
<g id="edge62_Node000022_Node000027" class="edge">
<title>Node22&#45;&gt;Node27</title>
<g id="a_edge62_Node000022_Node000027"><a xlink:title=" ">
<path fill="none" stroke="#63b8ff" d="M546.28,-391.59C558.55,-383.51 576.48,-371.71 590.81,-362.27"/>
<polygon fill="#63b8ff" stroke="#63b8ff" points="592.18,-364.9 598.61,-356.48 588.33,-359.06 592.18,-364.9"/>
</a>
</g>
</g>
<!-- Node23&#45;&gt;Node3 -->
<g id="edge55_Node000023_Node000003" class="edge">
<title>Node23&#45;&gt;Node3</title>
<g id="a_edge55_Node000023_Node000003"><a xlink:title=" ">
<path fill="none" stroke="#63b8ff" d="M181.98,-167.66C190.04,-144.15 214.69,-82.49 259,-56 335.08,-10.52 608.62,-9.11 712.03,-10.29"/>
<polygon fill="#63b8ff" stroke="#63b8ff" points="711.87,-13.8 721.92,-10.43 711.96,-6.8 711.87,-13.8"/>
</a>
</g>
</g>
<!-- Node23&#45;&gt;Node7 -->
<g id="edge54_Node000023_Node000007" class="edge">
<title>Node23&#45;&gt;Node7</title>
<g id="a_edge54_Node000023_Node000007"><a xlink:title=" ">
<path fill="none" stroke="#63b8ff" d="M207.75,-170.16C247.65,-160.67 320.01,-143.46 365.4,-132.66"/>
<polygon fill="#63b8ff" stroke="#63b8ff" points="366.12,-135.85 375.04,-130.13 364.5,-129.04 366.12,-135.85"/>
</a>
</g>
</g>
<!-- Node23&#45;&gt;Node8 -->
<g id="edge56_Node000023_Node000008" class="edge">
<title>Node23&#45;&gt;Node8</title>
<g id="a_edge56_Node000023_Node000008"><a xlink:title=" ">
<path fill="none" stroke="#63b8ff" d="M192.48,-167.66C213.71,-153.41 256.68,-126.36 297,-112 369.32,-86.24 459.1,-74.6 507.72,-69.86"/>
<polygon fill="#63b8ff" stroke="#63b8ff" points="507.95,-73.26 517.58,-68.85 507.3,-66.29 507.95,-73.26"/>
</a>
</g>
</g>
<!-- Node23&#45;&gt;Node14 -->
<g id="edge58_Node000023_Node000014" class="edge">
<title>Node23&#45;&gt;Node14</title>
<g id="a_edge58_Node000023_Node000014"><a xlink:title=" ">
<path fill="none" stroke="#63b8ff" d="M163.5,-167.59C150.05,-159.44 130.35,-147.48 114.73,-138"/>
<polygon fill="#63b8ff" stroke="#63b8ff" points="116.99,-134.67 106.62,-132.48 113.36,-140.66 116.99,-134.67"/>
</a>
</g>
</g>
<!-- Node23&#45;&gt;Node15 -->
<g id="edge57_Node000023_Node000015" class="edge">
<title>Node23&#45;&gt;Node15</title>
<g id="a_edge57_Node000023_Node000015"><a xlink:title=" ">
<path fill="none" stroke="#63b8ff" d="M173.77,-167.59C169.82,-160.47 164.25,-150.45 159.4,-141.72"/>
<polygon fill="#63b8ff" stroke="#63b8ff" points="162.08,-140.34 154.17,-133.3 155.96,-143.74 162.08,-140.34"/>
</a>
</g>
</g>
</g>
</svg>
