<?xml version="1.0" encoding="UTF-8" standalone="no"?>
<!DOCTYPE svg PUBLIC "-//W3C//DTD SVG 1.1//EN"
 "http://www.w3.org/Graphics/SVG/1.1/DTD/svg11.dtd">
<!-- Generated by graphviz version 8.1.0 (20230707.0739)
 -->
<!-- Title: ExoCode/src/ExoData.h Pages: 1 -->
<!--zoomable 364 -->

<svg id="main" version="1.1" xmlns="http://www.w3.org/2000/svg" xmlns:xlink="http://www.w3.org/1999/xlink" xml:space="preserve" onload="init(evt)">
<style type="text/css"><![CDATA[
.node, .edge {opacity: 0.7;}
.node.selected, .edge.selected {opacity: 1;}
.edge:hover path { stroke: red; }
.edge:hover polygon { stroke: red; fill: red; }
]]></style>

<defs>
  <circle id="rim" cx="0" cy="0" r="7"/>
  <circle id="rim2" cx="0" cy="0" r="3.5"/>
  <g id="zoomPlus">
    <use xlink:href="#rim" fill="#404040"><set attributeName="fill" to="#808080" begin="zoomplus.mouseover" end="zoomplus.mouseout"/></use>
    <path d="M-4,0h8M0,-4v8" fill="none" stroke="white" stroke-width="1.5" pointer-events="none"/>
  </g>
  <g id="zoomMin">
    <use xlink:href="#rim" fill="#404040"><set attributeName="fill" to="#808080" begin="zoomminus.mouseover" end="zoomminus.mouseout"/></use>
    <path d="M-4,0h8" fill="none" stroke="white" stroke-width="1.5" pointer-events="none"/>
  </g>
  <g id="arrowUp" transform="translate(30 24)">
    <use xlink:href="#rim"/>
    <path pointer-events="none" fill="none" stroke="white" stroke-width="1.5" d="M0,-3.0v7 M-2.5,-0.5L0,-3.0L2.5,-0.5"/>
  </g>
  <g id="arrowRight" transform="rotate(90) translate(36 -43)">
    <use xlink:href="#rim"/>
    <path pointer-events="none" fill="none" stroke="white" stroke-width="1.5" d="M0,-3.0v7 M-2.5,-0.5L0,-3.0L2.5,-0.5"/>
  </g>
  <g id="arrowDown" transform="rotate(180) translate(-30 -48)">
    <use xlink:href="#rim"/>
    <path pointer-events="none" fill="none" stroke="white" stroke-width="1.5" d="M0,-3.0v7 M-2.5,-0.5L0,-3.0L2.5,-0.5"/>
  </g>
  <g id="arrowLeft" transform="rotate(270) translate(-36 17)">
    <use xlink:href="#rim"/>
    <path pointer-events="none" fill="none" stroke="white" stroke-width="1.5" d="M0,-3.0v7 M-2.5,-0.5L0,-3.0L2.5,-0.5"/>
  </g>
  <g id="resetDef">
    <use xlink:href="#rim2" fill="#404040"><set attributeName="fill" to="#808080" begin="reset.mouseover" end="reset.mouseout"/></use>
  </g>
</defs>
<script type="application/ecmascript">
var viewWidth = 941;
var viewHeight = 364;
var sectionId = 'dynsection-0';
</script>
<script type="application/ecmascript" xlink:href="svg.min.js"/>
<svg id="graph" class="graph">
<g id="viewport">
<title>ExoCode/src/ExoData.h</title>
<!-- Node1 -->
<g id="Node000001" class="node">
<title>Node1</title>
<g id="a_Node000001"><a xlink:title="Declares a class used to store data for the Exo to access.">
<polygon fill="#999999" stroke="#666666" points="788.5,-356 667.5,-356 667.5,-336 788.5,-336 788.5,-356"/>
<text text-anchor="middle" x="728" y="-342.5" font-family="Helvetica,sans-Serif" font-size="10.00">ExoCode/src/ExoData.h</text>
</a>
</g>
</g>
<!-- Node2 -->
<g id="Node000002" class="node">
<title>Node2</title>
<g id="a_Node000002"><a xlink:title=" ">
<polygon fill="#e0e0e0" stroke="#999999" points="601.62,-20 544.38,-20 544.38,0 601.62,0 601.62,-20"/>
<text text-anchor="middle" x="573" y="-6.5" font-family="Helvetica,sans-Serif" font-size="10.00">Arduino.h</text>
</a>
</g>
</g>
<!-- Node1&#45;&gt;Node2 -->
<g id="edge1_Node000001_Node000002" class="edge">
<title>Node1&#45;&gt;Node2</title>
<g id="a_edge1_Node000001_Node000002"><a xlink:title=" ">
<path fill="none" stroke="#63b8ff" d="M733.61,-335.67C744.18,-317.16 766,-274.2 766,-235 766,-235 766,-235 766,-121 766,-51.04 669.09,-24.99 612.61,-15.76"/>
<polygon fill="#63b8ff" stroke="#63b8ff" points="613.31,-12.17 602.89,-14.12 612.25,-19.09 613.31,-12.17"/>
</a>
</g>
</g>
<!-- Node3 -->
<g id="Node000003" class="node">
<title>Node3</title>
<g id="a_Node000003"><a xlink:href="_leg_data_8h.html" target="_top" xlink:title="Declares a class used to store data for leg to access.">
<polygon fill="white" stroke="#666666" points="526.12,-300 465.88,-300 465.88,-280 526.12,-280 526.12,-300"/>
<text text-anchor="middle" x="496" y="-286.5" font-family="Helvetica,sans-Serif" font-size="10.00">LegData.h</text>
</a>
</g>
</g>
<!-- Node1&#45;&gt;Node3 -->
<g id="edge2_Node000001_Node000003" class="edge">
<title>Node1&#45;&gt;Node3</title>
<g id="a_edge2_Node000001_Node000003"><a xlink:title=" ">
<path fill="none" stroke="#63b8ff" d="M687.32,-335.53C645.12,-325.71 579.49,-310.43 537.13,-300.57"/>
<polygon fill="#63b8ff" stroke="#63b8ff" points="538.15,-296.99 527.62,-298.13 536.57,-303.8 538.15,-296.99"/>
</a>
</g>
</g>
<!-- Node6 -->
<g id="Node000006" class="node">
<title>Node6</title>
<g id="a_Node000006"><a xlink:href="_parse_ini_8h.html" target="_top" xlink:title="Declares the functions needed and defines mapping between the INI keys and the exo components.">
<polygon fill="white" stroke="#666666" points="161.75,-132 102.25,-132 102.25,-112 161.75,-112 161.75,-132"/>
<text text-anchor="middle" x="132" y="-118.5" font-family="Helvetica,sans-Serif" font-size="10.00">ParseIni.h</text>
</a>
</g>
</g>
<!-- Node1&#45;&gt;Node6 -->
<g id="edge32_Node000001_Node000006" class="edge">
<title>Node1&#45;&gt;Node6</title>
<g id="a_edge32_Node000001_Node000006"><a xlink:title=" ">
<path fill="none" stroke="#63b8ff" d="M667.15,-344.5C564.65,-341.31 353.54,-324.55 198,-244 165.32,-227.08 153.09,-221.1 137,-188 130.26,-174.13 129.28,-156.6 129.83,-143.25"/>
<polygon fill="#63b8ff" stroke="#63b8ff" points="133.39,-143.62 130.66,-133.38 126.41,-143.09 133.39,-143.62"/>
</a>
</g>
</g>
<!-- Node7 -->
<g id="Node000007" class="node">
<title>Node7</title>
<g id="a_Node000007"><a xlink:title=" ">
<polygon fill="#e0e0e0" stroke="#999999" points="185.12,-76 136.88,-76 136.88,-56 185.12,-56 185.12,-76"/>
<text text-anchor="middle" x="161" y="-62.5" font-family="Helvetica,sans-Serif" font-size="10.00">stdint.h</text>
</a>
</g>
</g>
<!-- Node1&#45;&gt;Node7 -->
<g id="edge31_Node000001_Node000007" class="edge">
<title>Node1&#45;&gt;Node7</title>
<g id="a_edge31_Node000001_Node000007"><a xlink:title=" ">
<path fill="none" stroke="#63b8ff" d="M667.18,-342.19C492.22,-333.28 0,-302.27 0,-235 0,-235 0,-235 0,-177 0,-116.39 78.76,-86.75 126.11,-74.41"/>
<polygon fill="#63b8ff" stroke="#63b8ff" points="126.68,-77.63 135.55,-71.84 125,-70.83 126.68,-77.63"/>
</a>
</g>
</g>
<!-- Node8 -->
<g id="Node000008" class="node">
<title>Node8</title>
<g id="a_Node000008"><a xlink:href="_board_8h.html" target="_top" xlink:title=" ">
<polygon fill="white" stroke="#666666" points="714.88,-132 665.12,-132 665.12,-112 714.88,-112 714.88,-132"/>
<text text-anchor="middle" x="690" y="-118.5" font-family="Helvetica,sans-Serif" font-size="10.00">Board.h</text>
</a>
</g>
</g>
<!-- Node1&#45;&gt;Node8 -->
<g id="edge33_Node000001_Node000008" class="edge">
<title>Node1&#45;&gt;Node8</title>
<g id="a_edge33_Node000001_Node000008"><a xlink:title=" ">
<path fill="none" stroke="#63b8ff" d="M726.42,-335.74C720.74,-302.6 701.36,-189.35 693.43,-143.01"/>
<polygon fill="#63b8ff" stroke="#63b8ff" points="696.73,-142.56 691.59,-133.3 689.83,-143.74 696.73,-142.56"/>
</a>
</g>
</g>
<!-- Node15 -->
<g id="Node000015" class="node">
<title>Node15</title>
<g id="a_Node000015"><a xlink:href="_status_led_8h.html" target="_top" xlink:title="Class to set an RGB LED to different colors based on the state of the system.">
<polygon fill="white" stroke="#666666" points="901.25,-244 832.75,-244 832.75,-224 901.25,-224 901.25,-244"/>
<text text-anchor="middle" x="867" y="-230.5" font-family="Helvetica,sans-Serif" font-size="10.00">StatusLed.h</text>
</a>
</g>
</g>
<!-- Node1&#45;&gt;Node15 -->
<g id="edge34_Node000001_Node000015" class="edge">
<title>Node1&#45;&gt;Node15</title>
<g id="a_edge34_Node000001_Node000015"><a xlink:title=" ">
<path fill="none" stroke="#63b8ff" d="M755.06,-335.57C774.27,-327.98 799.94,-315.95 819,-300 834.58,-286.96 847.9,-267.87 856.52,-253.74"/>
<polygon fill="#63b8ff" stroke="#63b8ff" points="859.9,-255.9 861.94,-245.5 853.86,-252.36 859.9,-255.9"/>
</a>
</g>
</g>
<!-- Node16 -->
<g id="Node000016" class="node">
<title>Node16</title>
<g id="a_Node000016"><a xlink:href="_status_defs_8h.html" target="_top" xlink:title="Stores the different status messages for the system.">
<polygon fill="white" stroke="#666666" points="904.12,-188 831.88,-188 831.88,-168 904.12,-168 904.12,-188"/>
<text text-anchor="middle" x="868" y="-174.5" font-family="Helvetica,sans-Serif" font-size="10.00">StatusDefs.h</text>
</a>
</g>
</g>
<!-- Node1&#45;&gt;Node16 -->
<g id="edge40_Node000001_Node000016" class="edge">
<title>Node1&#45;&gt;Node16</title>
<g id="a_edge40_Node000001_Node000016"><a xlink:title=" ">
<path fill="none" stroke="#63b8ff" d="M741.05,-335.68C752.27,-327.23 768.43,-313.98 780,-300 804.88,-269.93 800.4,-255.08 824,-224 831.63,-213.95 841.33,-203.81 849.68,-195.7"/>
<polygon fill="#63b8ff" stroke="#63b8ff" points="851.59,-198.77 856.46,-189.36 846.79,-193.68 851.59,-198.77"/>
</a>
</g>
</g>
<!-- Node3&#45;&gt;Node2 -->
<g id="edge3_Node000003_Node000002" class="edge">
<title>Node3&#45;&gt;Node2</title>
<g id="a_edge3_Node000003_Node000002"><a xlink:title=" ">
<path fill="none" stroke="#63b8ff" d="M496,-279.58C496,-260.57 496,-216.24 496,-179 496,-179 496,-179 496,-121 496,-81.9 529.06,-46.81 551.85,-27.27"/>
<polygon fill="#63b8ff" stroke="#63b8ff" points="553.78,-29.39 559.29,-20.33 549.34,-23.98 553.78,-29.39"/>
</a>
</g>
</g>
<!-- Node4 -->
<g id="Node000004" class="node">
<title>Node4</title>
<g id="a_Node000004"><a xlink:href="_joint_data_8h.html" target="_top" xlink:title="Declares a class used to store data for joint to access.">
<polygon fill="white" stroke="#666666" points="389.38,-244 324.62,-244 324.62,-224 389.38,-224 389.38,-244"/>
<text text-anchor="middle" x="357" y="-230.5" font-family="Helvetica,sans-Serif" font-size="10.00">JointData.h</text>
</a>
</g>
</g>
<!-- Node3&#45;&gt;Node4 -->
<g id="edge4_Node000003_Node000004" class="edge">
<title>Node3&#45;&gt;Node4</title>
<g id="a_edge4_Node000003_Node000004"><a xlink:title=" ">
<path fill="none" stroke="#63b8ff" d="M471.79,-279.59C449.6,-270.97 416.51,-258.12 391.55,-248.42"/>
<polygon fill="#63b8ff" stroke="#63b8ff" points="392.99,-244.84 382.4,-244.48 390.45,-251.36 392.99,-244.84"/>
</a>
</g>
</g>
<!-- Node3&#45;&gt;Node6 -->
<g id="edge24_Node000003_Node000006" class="edge">
<title>Node3&#45;&gt;Node6</title>
<g id="a_edge24_Node000003_Node000006"><a xlink:title=" ">
<path fill="none" stroke="#63b8ff" d="M465.43,-289.32C398.8,-288.29 239.54,-276.15 153,-188 141.19,-175.97 136.02,-157.25 133.76,-142.98"/>
<polygon fill="#63b8ff" stroke="#63b8ff" points="137.14,-142.8 132.46,-133.29 130.19,-143.64 137.14,-142.8"/>
</a>
</g>
</g>
<!-- Node3&#45;&gt;Node7 -->
<g id="edge30_Node000003_Node000007" class="edge">
<title>Node3&#45;&gt;Node7</title>
<g id="a_edge30_Node000003_Node000007"><a xlink:title=" ">
<path fill="none" stroke="#63b8ff" d="M465.74,-286.68C399.76,-281.27 245.08,-266.53 198,-244 136.45,-214.55 115.3,-196.48 93,-132 90.09,-123.6 88.79,-119.83 93,-112 100.32,-98.39 113.76,-88.2 126.77,-80.99"/>
<polygon fill="#63b8ff" stroke="#63b8ff" points="128.19,-83.69 135.53,-76.06 125.03,-77.45 128.19,-83.69"/>
</a>
</g>
</g>
<!-- Node3&#45;&gt;Node8 -->
<g id="edge25_Node000003_Node000008" class="edge">
<title>Node3&#45;&gt;Node8</title>
<g id="a_edge25_Node000003_Node000008"><a xlink:title=" ">
<path fill="none" stroke="#63b8ff" d="M526.39,-286.14C557.88,-281.78 607.01,-270.9 640,-244 671.3,-218.48 683.24,-170.08 687.61,-142.87"/>
<polygon fill="#63b8ff" stroke="#63b8ff" points="691.17,-143.71 689.1,-133.32 684.24,-142.74 691.17,-143.71"/>
</a>
</g>
</g>
<!-- Node12 -->
<g id="Node000012" class="node">
<title>Node12</title>
<g id="a_Node000012"><a xlink:href="_inclination_detector_8h.html" target="_top" xlink:title=" ">
<polygon fill="white" stroke="#666666" points="631.25,-244 526.75,-244 526.75,-224 631.25,-224 631.25,-244"/>
<text text-anchor="middle" x="579" y="-230.5" font-family="Helvetica,sans-Serif" font-size="10.00">InclinationDetector.h</text>
</a>
</g>
</g>
<!-- Node3&#45;&gt;Node12 -->
<g id="edge26_Node000003_Node000012" class="edge">
<title>Node3&#45;&gt;Node12</title>
<g id="a_edge26_Node000003_Node000012"><a xlink:title=" ">
<path fill="none" stroke="#63b8ff" d="M510.46,-279.59C522.88,-271.51 541.02,-259.71 555.52,-250.27"/>
<polygon fill="#63b8ff" stroke="#63b8ff" points="556.96,-252.87 563.43,-244.48 553.14,-247 556.96,-252.87"/>
</a>
</g>
</g>
<!-- Node4&#45;&gt;Node2 -->
<g id="edge5_Node000004_Node000002" class="edge">
<title>Node4&#45;&gt;Node2</title>
<g id="a_edge5_Node000004_Node000002"><a xlink:title=" ">
<path fill="none" stroke="#63b8ff" d="M367.46,-223.58C376.83,-214.86 390.65,-201.27 401,-188 443.33,-133.72 431.16,-102.4 482,-56 497.02,-42.29 516.98,-31.8 534.38,-24.41"/>
<polygon fill="#63b8ff" stroke="#63b8ff" points="535.31,-27.41 543.27,-20.42 532.69,-20.92 535.31,-27.41"/>
</a>
</g>
</g>
<!-- Node5 -->
<g id="Node000005" class="node">
<title>Node5</title>
<g id="a_Node000005"><a xlink:href="_motor_data_8h.html" target="_top" xlink:title="Declares a class used to store data for motors to access.">
<polygon fill="white" stroke="#666666" points="391.62,-188 322.38,-188 322.38,-168 391.62,-168 391.62,-188"/>
<text text-anchor="middle" x="357" y="-174.5" font-family="Helvetica,sans-Serif" font-size="10.00">MotorData.h</text>
</a>
</g>
</g>
<!-- Node4&#45;&gt;Node5 -->
<g id="edge6_Node000004_Node000005" class="edge">
<title>Node4&#45;&gt;Node5</title>
<g id="a_edge6_Node000004_Node000005"><a xlink:title=" ">
<path fill="none" stroke="#63b8ff" d="M357,-223.59C357,-216.86 357,-207.53 357,-199.15"/>
<polygon fill="#63b8ff" stroke="#63b8ff" points="360.5,-199.3 357,-189.3 353.5,-199.3 360.5,-199.3"/>
</a>
</g>
</g>
<!-- Node4&#45;&gt;Node6 -->
<g id="edge21_Node000004_Node000006" class="edge">
<title>Node4&#45;&gt;Node6</title>
<g id="a_edge21_Node000004_Node000006"><a xlink:title=" ">
<path fill="none" stroke="#63b8ff" d="M324.38,-231.82C285.76,-228.97 221,-219.43 176,-188 159.46,-176.45 147.33,-156.51 140.05,-141.76"/>
<polygon fill="#63b8ff" stroke="#63b8ff" points="142.97,-140.74 135.61,-133.13 136.61,-143.67 142.97,-140.74"/>
</a>
</g>
</g>
<!-- Node4&#45;&gt;Node7 -->
<g id="edge23_Node000004_Node000007" class="edge">
<title>Node4&#45;&gt;Node7</title>
<g id="a_edge23_Node000004_Node000007"><a xlink:title=" ">
<path fill="none" stroke="#63b8ff" d="M324.43,-231.14C291.46,-227.6 240.91,-217.38 209,-188 193.67,-173.88 175.51,-117.3 166.56,-86.77"/>
<polygon fill="#63b8ff" stroke="#63b8ff" points="169.73,-86.13 163.61,-77.49 163,-88.07 169.73,-86.13"/>
</a>
</g>
</g>
<!-- Node4&#45;&gt;Node8 -->
<g id="edge22_Node000004_Node000008" class="edge">
<title>Node4&#45;&gt;Node8</title>
<g id="a_edge22_Node000004_Node000008"><a xlink:title=" ">
<path fill="none" stroke="#63b8ff" d="M385.56,-223.5C423.71,-210.82 493.42,-187.66 553,-168 587.42,-156.64 626.73,-143.74 654.38,-134.67"/>
<polygon fill="#63b8ff" stroke="#63b8ff" points="655.33,-137.71 663.74,-131.27 653.15,-131.06 655.33,-137.71"/>
</a>
</g>
</g>
<!-- Node11 -->
<g id="Node000011" class="node">
<title>Node11</title>
<g id="a_Node000011"><a xlink:href="_controller_data_8h.html" target="_top" xlink:title="Declares a class used to store data for controllers to access.">
<polygon fill="white" stroke="#666666" points="303.88,-188 218.12,-188 218.12,-168 303.88,-168 303.88,-188"/>
<text text-anchor="middle" x="261" y="-174.5" font-family="Helvetica,sans-Serif" font-size="10.00">ControllerData.h</text>
</a>
</g>
</g>
<!-- Node4&#45;&gt;Node11 -->
<g id="edge16_Node000004_Node000011" class="edge">
<title>Node4&#45;&gt;Node11</title>
<g id="a_edge16_Node000004_Node000011"><a xlink:title=" ">
<path fill="none" stroke="#63b8ff" d="M340.28,-223.59C325.64,-215.36 304.12,-203.26 287.2,-193.74"/>
<polygon fill="#63b8ff" stroke="#63b8ff" points="289.28,-190.33 278.85,-188.48 285.85,-196.43 289.28,-190.33"/>
</a>
</g>
</g>
<!-- Node5&#45;&gt;Node2 -->
<g id="edge7_Node000005_Node000002" class="edge">
<title>Node5&#45;&gt;Node2</title>
<g id="a_edge7_Node000005_Node000002"><a xlink:title=" ">
<path fill="none" stroke="#63b8ff" d="M358,-167.51C360.92,-144.71 371.55,-86.5 406,-56 441.25,-24.8 495.96,-14.93 533.07,-11.98"/>
<polygon fill="#63b8ff" stroke="#63b8ff" points="533.23,-15.41 542.98,-11.27 532.78,-8.42 533.23,-15.41"/>
</a>
</g>
</g>
<!-- Node5&#45;&gt;Node6 -->
<g id="edge8_Node000005_Node000006" class="edge">
<title>Node5&#45;&gt;Node6</title>
<g id="a_edge8_Node000005_Node000006"><a xlink:title=" ">
<path fill="none" stroke="#63b8ff" d="M322.34,-168.68C281.97,-158.99 215.37,-143.01 172.61,-132.75"/>
<polygon fill="#63b8ff" stroke="#63b8ff" points="173.56,-129.14 163.02,-130.2 171.93,-135.94 173.56,-129.14"/>
</a>
</g>
</g>
<!-- Node5&#45;&gt;Node7 -->
<g id="edge15_Node000005_Node000007" class="edge">
<title>Node5&#45;&gt;Node7</title>
<g id="a_edge15_Node000005_Node000007"><a xlink:title=" ">
<path fill="none" stroke="#63b8ff" d="M340.29,-167.62C306.15,-148.46 228.19,-104.71 187.23,-81.72"/>
<polygon fill="#63b8ff" stroke="#63b8ff" points="189.1,-78.2 178.67,-76.35 185.68,-84.3 189.1,-78.2"/>
</a>
</g>
</g>
<!-- Node5&#45;&gt;Node8 -->
<g id="edge10_Node000005_Node000008" class="edge">
<title>Node5&#45;&gt;Node8</title>
<g id="a_edge10_Node000005_Node000008"><a xlink:title=" ">
<path fill="none" stroke="#63b8ff" d="M392.01,-171.32C455.65,-161 589.66,-139.27 654.01,-128.84"/>
<polygon fill="#63b8ff" stroke="#63b8ff" points="654.51,-132.14 663.82,-127.08 653.39,-125.23 654.51,-132.14"/>
</a>
</g>
</g>
<!-- Node6&#45;&gt;Node7 -->
<g id="edge9_Node000006_Node000007" class="edge">
<title>Node6&#45;&gt;Node7</title>
<g id="a_edge9_Node000006_Node000007"><a xlink:title=" ">
<path fill="none" stroke="#63b8ff" d="M137.05,-111.59C140.88,-104.47 146.26,-94.45 150.95,-85.72"/>
<polygon fill="#63b8ff" stroke="#63b8ff" points="154.36,-87.76 156.01,-77.3 148.19,-84.45 154.36,-87.76"/>
</a>
</g>
</g>
<!-- Node8&#45;&gt;Node2 -->
<g id="edge14_Node000008_Node000002" class="edge">
<title>Node8&#45;&gt;Node2</title>
<g id="a_edge14_Node000008_Node000002"><a xlink:title=" ">
<path fill="none" stroke="#63b8ff" d="M680.02,-111.62C660.25,-93.03 615.85,-51.28 590.89,-27.82"/>
<polygon fill="#63b8ff" stroke="#63b8ff" points="593.63,-25.65 583.95,-21.35 588.84,-30.75 593.63,-25.65"/>
</a>
</g>
</g>
<!-- Node9 -->
<g id="Node000009" class="node">
<title>Node9</title>
<g id="a_Node000009"><a xlink:href="_config_8h.html" target="_top" xlink:title=" ">
<polygon fill="white" stroke="#666666" points="883.62,-76 832.38,-76 832.38,-56 883.62,-56 883.62,-76"/>
<text text-anchor="middle" x="858" y="-62.5" font-family="Helvetica,sans-Serif" font-size="10.00">Config.h</text>
</a>
</g>
</g>
<!-- Node8&#45;&gt;Node9 -->
<g id="edge11_Node000008_Node000009" class="edge">
<title>Node8&#45;&gt;Node9</title>
<g id="a_edge11_Node000008_Node000009"><a xlink:title=" ">
<path fill="none" stroke="#63b8ff" d="M715.15,-112.92C743.44,-103.82 789.63,-88.98 821.8,-78.64"/>
<polygon fill="#63b8ff" stroke="#63b8ff" points="822.67,-81.71 831.12,-75.32 820.53,-75.05 822.67,-81.71"/>
</a>
</g>
</g>
<!-- Node9&#45;&gt;Node2 -->
<g id="edge12_Node000009_Node000002" class="edge">
<title>Node9&#45;&gt;Node2</title>
<g id="a_edge12_Node000009_Node000002"><a xlink:title=" ">
<path fill="none" stroke="#63b8ff" d="M832.21,-59.04C827.49,-57.99 822.6,-56.94 818,-56 745.87,-41.27 661.33,-26.23 612.78,-17.81"/>
<polygon fill="#63b8ff" stroke="#63b8ff" points="613.56,-14.22 603.11,-15.96 612.37,-21.11 613.56,-14.22"/>
</a>
</g>
</g>
<!-- Node10 -->
<g id="Node000010" class="node">
<title>Node10</title>
<g id="a_Node000010"><a xlink:href="_log_levels_8h.html" target="_top" xlink:title=" ">
<polygon fill="white" stroke="#666666" points="891.5,-20 824.5,-20 824.5,0 891.5,0 891.5,-20"/>
<text text-anchor="middle" x="858" y="-6.5" font-family="Helvetica,sans-Serif" font-size="10.00">LogLevels.h</text>
</a>
</g>
</g>
<!-- Node9&#45;&gt;Node10 -->
<g id="edge13_Node000009_Node000010" class="edge">
<title>Node9&#45;&gt;Node10</title>
<g id="a_edge13_Node000009_Node000010"><a xlink:title=" ">
<path fill="none" stroke="#63b8ff" d="M858,-55.59C858,-48.86 858,-39.53 858,-31.15"/>
<polygon fill="#63b8ff" stroke="#63b8ff" points="861.5,-31.3 858,-21.3 854.5,-31.3 861.5,-31.3"/>
</a>
</g>
</g>
<!-- Node11&#45;&gt;Node2 -->
<g id="edge18_Node000011_Node000002" class="edge">
<title>Node11&#45;&gt;Node2</title>
<g id="a_edge18_Node000011_Node000002"><a xlink:title=" ">
<path fill="none" stroke="#63b8ff" d="M267.69,-167.72C284.69,-144.89 332.01,-85.68 386,-56 432.71,-30.32 493.87,-19.17 533.3,-14.41"/>
<polygon fill="#63b8ff" stroke="#63b8ff" points="533.51,-17.8 543.06,-13.21 532.74,-10.84 533.51,-17.8"/>
</a>
</g>
</g>
<!-- Node11&#45;&gt;Node6 -->
<g id="edge20_Node000011_Node000006" class="edge">
<title>Node11&#45;&gt;Node6</title>
<g id="a_edge20_Node000011_Node000006"><a xlink:title=" ">
<path fill="none" stroke="#63b8ff" d="M238.53,-167.59C218.12,-159.05 187.77,-146.35 164.68,-136.68"/>
<polygon fill="#63b8ff" stroke="#63b8ff" points="166.22,-133.11 155.65,-132.48 163.52,-139.57 166.22,-133.11"/>
</a>
</g>
</g>
<!-- Node11&#45;&gt;Node7 -->
<g id="edge17_Node000011_Node000007" class="edge">
<title>Node11&#45;&gt;Node7</title>
<g id="a_edge17_Node000011_Node000007"><a xlink:title=" ">
<path fill="none" stroke="#63b8ff" d="M253.01,-167.63C242.09,-154.9 221.84,-131.48 204,-112 195.44,-102.65 185.7,-92.43 177.66,-84.09"/>
<polygon fill="#63b8ff" stroke="#63b8ff" points="180.48,-81.94 171.01,-77.2 175.46,-86.81 180.48,-81.94"/>
</a>
</g>
</g>
<!-- Node11&#45;&gt;Node8 -->
<g id="edge19_Node000011_Node000008" class="edge">
<title>Node11&#45;&gt;Node8</title>
<g id="a_edge19_Node000011_Node000008"><a xlink:title=" ">
<path fill="none" stroke="#63b8ff" d="M304.1,-169.36C307.11,-168.88 310.1,-168.42 313,-168 437.85,-149.76 586.78,-133.64 653.97,-126.66"/>
<polygon fill="#63b8ff" stroke="#63b8ff" points="654.2,-130.05 663.79,-125.55 653.48,-123.09 654.2,-130.05"/>
</a>
</g>
</g>
<!-- Node12&#45;&gt;Node2 -->
<g id="edge27_Node000012_Node000002" class="edge">
<title>Node12&#45;&gt;Node2</title>
<g id="a_edge27_Node000012_Node000002"><a xlink:title=" ">
<path fill="none" stroke="#63b8ff" d="M571.62,-223.65C565.28,-214.98 556.6,-201.42 553,-188 538.03,-132.16 555.59,-63.48 566.15,-30.49"/>
<polygon fill="#63b8ff" stroke="#63b8ff" points="569.68,-31.99 569.53,-21.39 563.04,-29.77 569.68,-31.99"/>
</a>
</g>
</g>
<!-- Node13 -->
<g id="Node000013" class="node">
<title>Node13</title>
<g id="a_Node000013"><a xlink:title=" ">
<polygon fill="#e0e0e0" stroke="#999999" points="604.12,-188 561.88,-188 561.88,-168 604.12,-168 604.12,-188"/>
<text text-anchor="middle" x="583" y="-174.5" font-family="Helvetica,sans-Serif" font-size="10.00">queue</text>
</a>
</g>
</g>
<!-- Node12&#45;&gt;Node13 -->
<g id="edge28_Node000012_Node000013" class="edge">
<title>Node12&#45;&gt;Node13</title>
<g id="a_edge28_Node000012_Node000013"><a xlink:title=" ">
<path fill="none" stroke="#63b8ff" d="M579.7,-223.59C580.2,-216.86 580.89,-207.53 581.51,-199.15"/>
<polygon fill="#63b8ff" stroke="#63b8ff" points="585.06,-199.53 582.31,-189.3 578.08,-199.01 585.06,-199.53"/>
</a>
</g>
</g>
<!-- Node14 -->
<g id="Node000014" class="node">
<title>Node14</title>
<g id="a_Node000014"><a xlink:title=" ">
<polygon fill="#e0e0e0" stroke="#999999" points="661.62,-188 622.38,-188 622.38,-168 661.62,-168 661.62,-188"/>
<text text-anchor="middle" x="642" y="-174.5" font-family="Helvetica,sans-Serif" font-size="10.00">utility</text>
</a>
</g>
</g>
<!-- Node12&#45;&gt;Node14 -->
<g id="edge29_Node000012_Node000014" class="edge">
<title>Node12&#45;&gt;Node14</title>
<g id="a_edge29_Node000012_Node000014"><a xlink:title=" ">
<path fill="none" stroke="#63b8ff" d="M589.97,-223.59C599.1,-215.77 612.29,-204.46 623.11,-195.19"/>
<polygon fill="#63b8ff" stroke="#63b8ff" points="624.84,-197.46 630.15,-188.3 620.28,-192.15 624.84,-197.46"/>
</a>
</g>
</g>
<!-- Node15&#45;&gt;Node2 -->
<g id="edge35_Node000015_Node000002" class="edge">
<title>Node15&#45;&gt;Node2</title>
<g id="a_edge35_Node000015_Node000002"><a xlink:title=" ">
<path fill="none" stroke="#63b8ff" d="M881.68,-223.54C892.6,-215.56 906.68,-203.03 913,-188 929.23,-149.42 957.1,-117.77 893,-56 853.68,-18.11 689.11,-11.82 612.52,-10.99"/>
<polygon fill="#63b8ff" stroke="#63b8ff" points="612.91,-7.48 602.89,-10.9 612.86,-14.48 612.91,-7.48"/>
</a>
</g>
</g>
<!-- Node15&#45;&gt;Node8 -->
<g id="edge36_Node000015_Node000008" class="edge">
<title>Node15&#45;&gt;Node8</title>
<g id="a_edge36_Node000015_Node000008"><a xlink:title=" ">
<path fill="none" stroke="#63b8ff" d="M851.91,-223.62C821.21,-204.54 751.27,-161.08 714.16,-138.02"/>
<polygon fill="#63b8ff" stroke="#63b8ff" points="716.39,-134.66 706.05,-132.35 712.7,-140.61 716.39,-134.66"/>
</a>
</g>
</g>
<!-- Node15&#45;&gt;Node16 -->
<g id="edge37_Node000015_Node000016" class="edge">
<title>Node15&#45;&gt;Node16</title>
<g id="a_edge37_Node000015_Node000016"><a xlink:title=" ">
<path fill="none" stroke="#63b8ff" d="M867.17,-223.59C867.3,-216.86 867.47,-207.53 867.63,-199.15"/>
<polygon fill="#63b8ff" stroke="#63b8ff" points="871.14,-199.36 867.83,-189.3 864.14,-199.23 871.14,-199.36"/>
</a>
</g>
</g>
<!-- Node16&#45;&gt;Node2 -->
<g id="edge38_Node000016_Node000002" class="edge">
<title>Node16&#45;&gt;Node2</title>
<g id="a_edge38_Node000016_Node000002"><a xlink:title=" ">
<path fill="none" stroke="#63b8ff" d="M864.08,-167.63C853.91,-144.6 824.38,-84.95 780,-56 728.85,-22.63 656.97,-13.62 612.77,-11.4"/>
<polygon fill="#63b8ff" stroke="#63b8ff" points="613.02,-7.87 602.89,-10.97 612.74,-14.87 613.02,-7.87"/>
</a>
</g>
</g>
<!-- Node16&#45;&gt;Node8 -->
<g id="edge39_Node000016_Node000008" class="edge">
<title>Node16&#45;&gt;Node8</title>
<g id="a_edge39_Node000016_Node000008"><a xlink:title=" ">
<path fill="none" stroke="#63b8ff" d="M836.99,-167.59C805.94,-158.17 758.21,-143.69 725.62,-133.8"/>
<polygon fill="#63b8ff" stroke="#63b8ff" points="726.78,-130.2 716.19,-130.64 724.74,-136.89 726.78,-130.2"/>
</a>
</g>
</g>
</g>
</svg>

<g id="navigator" transform="translate(0 0)" fill="#404254">
  <rect fill="#f2f5e9" fill-opacity="0.5" stroke="#606060" stroke-width=".5" x="0" y="0" width="60" height="60"/>
  <use id="zoomplus" xlink:href="#zoomPlus" x="17" y="9" onmousedown="handleZoom(evt,'in')"/>
  <use id="zoomminus" xlink:href="#zoomMin" x="42" y="9" onmousedown="handleZoom(evt,'out')"/>
  <use id="reset" xlink:href="#resetDef" x="30" y="36" onmousedown="handleReset()"/>
   <use id="arrowup" xlink:href="#arrowUp" x="0" y="0" onmousedown="handlePan(0,-1)"/>
  <use id="arrowright" xlink:href="#arrowRight" x="0" y="0" onmousedown="handlePan(1,0)"/>
  <use id="arrowdown" xlink:href="#arrowDown" x="0" y="0" onmousedown="handlePan(0,1)"/>
  <use id="arrowleft" xlink:href="#arrowLeft" x="0" y="0" onmousedown="handlePan(-1,0)"/>
</g>
<svg viewBox="0 0 15 15" width="100%" height="30px" preserveAspectRatio="xMaxYMin meet">
 <g id="arrow_out" transform="scale(0.3 0.3)">
  <a xlink:href="_exo_data_8h__incl_org.svg" target="_base">
   <rect id="button" ry="5" rx="5" y="6" x="6" height="38" width="38"
        fill="#f2f5e9" fill-opacity="0.5" stroke="#606060" stroke-width="1.0"/>
   <path id="arrow"
     d="M 11.500037,31.436501 C 11.940474,20.09759 22.043105,11.32322 32.158766,21.979434 L 37.068811,17.246167 C 37.068811,17.246167 37.088388,32 37.088388,32 L 22.160133,31.978069 C 22.160133,31.978069 26.997745,27.140456 26.997745,27.140456 C 18.528582,18.264221 13.291696,25.230495 11.500037,31.436501 z"
     style="fill:#404040;"/>
  </a>
 </g>
</svg>

<style type='text/css'>
<![CDATA[
[data-mouse-over-selected='false'] { opacity: 0.7; }
[data-mouse-over-selected='true']  { opacity: 1.0; }
]]>
</style>
<script type="application/ecmascript"><![CDATA[
document.addEventListener('DOMContentLoaded', (event) => {
  highlightEdges();
  highlightAdjacentNodes();
});
]]></script>
</svg>
