<?xml version="1.0" encoding="UTF-8" standalone="no"?>
<!DOCTYPE svg PUBLIC "-//W3C//DTD SVG 1.1//EN"
 "http://www.w3.org/Graphics/SVG/1.1/DTD/svg11.dtd">
<!-- Generated by graphviz version 8.1.0 (20230707.0739)
 -->
<!-- Title: ExoCode/src/FSR.cpp Pages: 1 -->
<svg width="260pt" height="196pt"
 viewBox="0.00 0.00 260.38 196.00" xmlns="http://www.w3.org/2000/svg" xmlns:xlink="http://www.w3.org/1999/xlink">
<g id="graph0" class="graph" transform="scale(1 1) rotate(0) translate(4 192)">
<title>ExoCode/src/FSR.cpp</title>
<!-- Node1 -->
<g id="Node000001" class="node">
<title>Node1</title>
<g id="a_Node000001"><a xlink:title=" ">
<polygon fill="#999999" stroke="#666666" points="143.62,-188 30.12,-188 30.12,-168 143.62,-168 143.62,-188"/>
<text text-anchor="middle" x="86.88" y="-174.5" font-family="Helvetica,sans-Serif" font-size="10.00">ExoCode/src/FSR.cpp</text>
</a>
</g>
</g>
<!-- Node2 -->
<g id="Node000002" class="node">
<title>Node2</title>
<g id="a_Node000002"><a xlink:href="_f_s_r_8h.html" target="_top" xlink:title="Declares a class used to interface with a force sensitive resistor.">
<polygon fill="white" stroke="#666666" points="43.75,-132 0,-132 0,-112 43.75,-112 43.75,-132"/>
<text text-anchor="middle" x="21.88" y="-118.5" font-family="Helvetica,sans-Serif" font-size="10.00">FSR.h</text>
</a>
</g>
</g>
<!-- Node1&#45;&gt;Node2 -->
<g id="edge1_Node000001_Node000002" class="edge">
<title>Node1&#45;&gt;Node2</title>
<g id="a_edge1_Node000001_Node000002"><a xlink:title=" ">
<path fill="none" stroke="#63b8ff" d="M75.55,-167.59C66.14,-159.77 52.53,-148.46 41.37,-139.19"/>
<polygon fill="#63b8ff" stroke="#63b8ff" points="44,-136 34.07,-132.3 39.52,-141.38 44,-136"/>
</a>
</g>
</g>
<!-- Node3 -->
<g id="Node000003" class="node">
<title>Node3</title>
<g id="a_Node000003"><a xlink:href="_board_8h.html" target="_top" xlink:title=" ">
<polygon fill="white" stroke="#666666" points="111.75,-132 62,-132 62,-112 111.75,-112 111.75,-132"/>
<text text-anchor="middle" x="86.88" y="-118.5" font-family="Helvetica,sans-Serif" font-size="10.00">Board.h</text>
</a>
</g>
</g>
<!-- Node1&#45;&gt;Node3 -->
<g id="edge2_Node000001_Node000003" class="edge">
<title>Node1&#45;&gt;Node3</title>
<g id="a_edge2_Node000001_Node000003"><a xlink:title=" ">
<path fill="none" stroke="#63b8ff" d="M86.88,-167.59C86.88,-160.86 86.88,-151.53 86.88,-143.15"/>
<polygon fill="#63b8ff" stroke="#63b8ff" points="90.38,-143.3 86.88,-133.3 83.38,-143.3 90.38,-143.3"/>
</a>
</g>
</g>
<!-- Node7 -->
<g id="Node000007" class="node">
<title>Node7</title>
<g id="a_Node000007"><a xlink:href="_logger_8h.html" target="_top" xlink:title=" ">
<polygon fill="white" stroke="#666666" points="183.62,-132 130.12,-132 130.12,-112 183.62,-112 183.62,-132"/>
<text text-anchor="middle" x="156.88" y="-118.5" font-family="Helvetica,sans-Serif" font-size="10.00">Logger.h</text>
</a>
</g>
</g>
<!-- Node1&#45;&gt;Node7 -->
<g id="edge7_Node000001_Node000007" class="edge">
<title>Node1&#45;&gt;Node7</title>
<g id="a_edge7_Node000001_Node000007"><a xlink:title=" ">
<path fill="none" stroke="#63b8ff" d="M99.07,-167.59C109.31,-159.7 124.16,-148.24 136.24,-138.92"/>
<polygon fill="#63b8ff" stroke="#63b8ff" points="138.04,-141.18 143.82,-132.3 133.77,-135.64 138.04,-141.18"/>
</a>
</g>
</g>
<!-- Node4 -->
<g id="Node000004" class="node">
<title>Node4</title>
<g id="a_Node000004"><a xlink:href="_config_8h.html" target="_top" xlink:title=" ">
<polygon fill="white" stroke="#666666" points="120.5,-76 69.25,-76 69.25,-56 120.5,-56 120.5,-76"/>
<text text-anchor="middle" x="94.88" y="-62.5" font-family="Helvetica,sans-Serif" font-size="10.00">Config.h</text>
</a>
</g>
</g>
<!-- Node3&#45;&gt;Node4 -->
<g id="edge3_Node000003_Node000004" class="edge">
<title>Node3&#45;&gt;Node4</title>
<g id="a_edge3_Node000003_Node000004"><a xlink:title=" ">
<path fill="none" stroke="#63b8ff" d="M88.27,-111.59C89.27,-104.86 90.65,-95.53 91.89,-87.15"/>
<polygon fill="#63b8ff" stroke="#63b8ff" points="95.49,-87.7 93.5,-77.3 88.57,-86.68 95.49,-87.7"/>
</a>
</g>
</g>
<!-- Node5 -->
<g id="Node000005" class="node">
<title>Node5</title>
<g id="a_Node000005"><a xlink:title=" ">
<polygon fill="#e0e0e0" stroke="#999999" points="123.5,-20 66.25,-20 66.25,0 123.5,0 123.5,-20"/>
<text text-anchor="middle" x="94.88" y="-6.5" font-family="Helvetica,sans-Serif" font-size="10.00">Arduino.h</text>
</a>
</g>
</g>
<!-- Node3&#45;&gt;Node5 -->
<g id="edge6_Node000003_Node000005" class="edge">
<title>Node3&#45;&gt;Node5</title>
<g id="a_edge6_Node000003_Node000005"><a xlink:title=" ">
<path fill="none" stroke="#63b8ff" d="M78.57,-111.88C68.27,-99.44 52.9,-76.34 59.88,-56 63.42,-45.66 70.42,-35.87 77.24,-28.07"/>
<polygon fill="#63b8ff" stroke="#63b8ff" points="79.35,-30.88 83.66,-21.2 74.25,-26.08 79.35,-30.88"/>
</a>
</g>
</g>
<!-- Node4&#45;&gt;Node5 -->
<g id="edge4_Node000004_Node000005" class="edge">
<title>Node4&#45;&gt;Node5</title>
<g id="a_edge4_Node000004_Node000005"><a xlink:title=" ">
<path fill="none" stroke="#63b8ff" d="M94.88,-55.59C94.88,-48.86 94.88,-39.53 94.88,-31.15"/>
<polygon fill="#63b8ff" stroke="#63b8ff" points="98.38,-31.3 94.88,-21.3 91.38,-31.3 98.38,-31.3"/>
</a>
</g>
</g>
<!-- Node6 -->
<g id="Node000006" class="node">
<title>Node6</title>
<g id="a_Node000006"><a xlink:href="_log_levels_8h.html" target="_top" xlink:title=" ">
<polygon fill="white" stroke="#666666" points="252.38,-20 185.38,-20 185.38,0 252.38,0 252.38,-20"/>
<text text-anchor="middle" x="218.88" y="-6.5" font-family="Helvetica,sans-Serif" font-size="10.00">LogLevels.h</text>
</a>
</g>
</g>
<!-- Node4&#45;&gt;Node6 -->
<g id="edge5_Node000004_Node000006" class="edge">
<title>Node4&#45;&gt;Node6</title>
<g id="a_edge5_Node000004_Node000006"><a xlink:title=" ">
<path fill="none" stroke="#63b8ff" d="M116.47,-55.59C136,-47.09 165,-34.46 187.16,-24.81"/>
<polygon fill="#63b8ff" stroke="#63b8ff" points="188.34,-27.68 196.11,-20.48 185.54,-21.26 188.34,-27.68"/>
</a>
</g>
</g>
<!-- Node7&#45;&gt;Node4 -->
<g id="edge10_Node000007_Node000004" class="edge">
<title>Node7&#45;&gt;Node4</title>
<g id="a_edge10_Node000007_Node000004"><a xlink:title=" ">
<path fill="none" stroke="#63b8ff" d="M146.08,-111.59C137.19,-103.85 124.37,-92.69 113.78,-83.47"/>
<polygon fill="#63b8ff" stroke="#63b8ff" points="116.39,-80.23 106.55,-76.3 111.79,-85.51 116.39,-80.23"/>
</a>
</g>
</g>
<!-- Node7&#45;&gt;Node5 -->
<g id="edge8_Node000007_Node000005" class="edge">
<title>Node7&#45;&gt;Node5</title>
<g id="a_edge8_Node000007_Node000005"><a xlink:title=" ">
<path fill="none" stroke="#63b8ff" d="M153.93,-111.81C149.6,-98.88 140.82,-74.8 129.88,-56 124.3,-46.43 116.91,-36.63 110.36,-28.63"/>
<polygon fill="#63b8ff" stroke="#63b8ff" points="112.59,-26.84 103.46,-21.47 107.25,-31.36 112.59,-26.84"/>
</a>
</g>
</g>
<!-- Node7&#45;&gt;Node6 -->
<g id="edge9_Node000007_Node000006" class="edge">
<title>Node7&#45;&gt;Node6</title>
<g id="a_edge9_Node000007_Node000006"><a xlink:title=" ">
<path fill="none" stroke="#63b8ff" d="M184.11,-114.96C204.49,-108.86 230.97,-97.21 243.88,-76 252.97,-61.06 243.81,-42.26 234.12,-28.72"/>
<polygon fill="#63b8ff" stroke="#63b8ff" points="236.45,-27.03 227.54,-21.31 230.94,-31.34 236.45,-27.03"/>
</a>
</g>
</g>
<!-- Node8 -->
<g id="Node000008" class="node">
<title>Node8</title>
<g id="a_Node000008"><a xlink:title=" ">
<polygon fill="#e0e0e0" stroke="#999999" points="234.5,-76 177.25,-76 177.25,-56 234.5,-56 234.5,-76"/>
<text text-anchor="middle" x="205.88" y="-62.5" font-family="Helvetica,sans-Serif" font-size="10.00">functional</text>
</a>
</g>
</g>
<!-- Node7&#45;&gt;Node8 -->
<g id="edge11_Node000007_Node000008" class="edge">
<title>Node7&#45;&gt;Node8</title>
<g id="a_edge11_Node000007_Node000008"><a xlink:title=" ">
<path fill="none" stroke="#63b8ff" d="M165.41,-111.59C172.23,-104.08 181.96,-93.35 190.17,-84.3"/>
<polygon fill="#63b8ff" stroke="#63b8ff" points="192.31,-87.06 196.44,-77.3 187.13,-82.35 192.31,-87.06"/>
</a>
</g>
</g>
</g>
</svg>
