<?xml version="1.0" encoding="UTF-8" standalone="no"?>
<!DOCTYPE svg PUBLIC "-//W3C//DTD SVG 1.1//EN"
 "http://www.w3.org/Graphics/SVG/1.1/DTD/svg11.dtd">
<!-- Generated by graphviz version 8.1.0 (20230707.0739)
 -->
<!-- Title: ExoCode/src/I2CHandler.h Pages: 1 -->
<svg width="287pt" height="196pt"
 viewBox="0.00 0.00 287.38 196.00" xmlns="http://www.w3.org/2000/svg" xmlns:xlink="http://www.w3.org/1999/xlink">
<g id="graph0" class="graph" transform="scale(1 1) rotate(0) translate(4 192)">
<title>ExoCode/src/I2CHandler.h</title>
<!-- Node1 -->
<g id="Node000001" class="node">
<title>Node1</title>
<g id="a_Node000001"><a xlink:title=" ">
<polygon fill="#999999" stroke="#666666" points="201.12,-188 70.38,-188 70.38,-168 201.12,-168 201.12,-188"/>
<text text-anchor="middle" x="135.75" y="-174.5" font-family="Helvetica,sans-Serif" font-size="10.00">ExoCode/src/I2CHandler.h</text>
</a>
</g>
</g>
<!-- Node2 -->
<g id="Node000002" class="node">
<title>Node2</title>
<g id="a_Node000002"><a xlink:href="_battery_8h.html" target="_top" xlink:title=" ">
<polygon fill="white" stroke="#666666" points="193.25,-132 78.25,-132 78.25,-112 193.25,-112 193.25,-132"/>
<text text-anchor="middle" x="135.75" y="-118.5" font-family="Helvetica,sans-Serif" font-size="10.00">ExoCode/src/Battery.h</text>
</a>
</g>
</g>
<!-- Node1&#45;&gt;Node2 -->
<g id="edge1_Node000001_Node000002" class="edge">
<title>Node1&#45;&gt;Node2</title>
<g id="a_edge1_Node000001_Node000002"><a xlink:title=" ">
<path fill="none" stroke="#63b8ff" d="M135.75,-156.71C135.75,-148.32 135.75,-139.01 135.75,-132.3"/>
<polygon fill="#63b8ff" stroke="#63b8ff" points="132.25,-156.59 135.75,-166.59 139.25,-156.59 132.25,-156.59"/>
</a>
</g>
</g>
<!-- Node3 -->
<g id="Node000003" class="node">
<title>Node3</title>
<g id="a_Node000003"><a xlink:href="_battery_8cpp.html" target="_top" xlink:title=" ">
<polygon fill="white" stroke="#666666" points="125.5,-76 0,-76 0,-56 125.5,-56 125.5,-76"/>
<text text-anchor="middle" x="62.75" y="-62.5" font-family="Helvetica,sans-Serif" font-size="10.00">ExoCode/src/Battery.cpp</text>
</a>
</g>
</g>
<!-- Node2&#45;&gt;Node3 -->
<g id="edge2_Node000002_Node000003" class="edge">
<title>Node2&#45;&gt;Node3</title>
<g id="a_edge2_Node000002_Node000003"><a xlink:title=" ">
<path fill="none" stroke="#63b8ff" d="M114.43,-105.23C101.73,-95.84 86.06,-84.24 75.32,-76.3"/>
<polygon fill="#63b8ff" stroke="#63b8ff" points="111.91,-108.46 122.03,-111.59 116.08,-102.83 111.91,-108.46"/>
</a>
</g>
</g>
<!-- Node4 -->
<g id="Node000004" class="node">
<title>Node4</title>
<g id="a_Node000004"><a xlink:href="_coms_m_c_u_8h.html" target="_top" xlink:title="The top of the composite structure for the communication microcontroller. This class manages the blue...">
<polygon fill="white" stroke="#666666" points="274.12,-76 143.38,-76 143.38,-56 274.12,-56 274.12,-76"/>
<text text-anchor="middle" x="208.75" y="-62.5" font-family="Helvetica,sans-Serif" font-size="10.00">ExoCode/src/ComsMCU.h</text>
</a>
</g>
</g>
<!-- Node2&#45;&gt;Node4 -->
<g id="edge3_Node000002_Node000004" class="edge">
<title>Node2&#45;&gt;Node4</title>
<g id="a_edge3_Node000002_Node000004"><a xlink:title=" ">
<path fill="none" stroke="#63b8ff" d="M157.07,-105.23C169.77,-95.84 185.44,-84.24 196.18,-76.3"/>
<polygon fill="#63b8ff" stroke="#63b8ff" points="155.42,-102.83 149.47,-111.59 159.59,-108.46 155.42,-102.83"/>
</a>
</g>
</g>
<!-- Node5 -->
<g id="Node000005" class="node">
<title>Node5</title>
<g id="a_Node000005"><a xlink:href="_coms_m_c_u_8cpp.html" target="_top" xlink:title=" ">
<polygon fill="white" stroke="#666666" points="279.38,-20 138.12,-20 138.12,0 279.38,0 279.38,-20"/>
<text text-anchor="middle" x="208.75" y="-6.5" font-family="Helvetica,sans-Serif" font-size="10.00">ExoCode/src/ComsMCU.cpp</text>
</a>
</g>
</g>
<!-- Node4&#45;&gt;Node5 -->
<g id="edge4_Node000004_Node000005" class="edge">
<title>Node4&#45;&gt;Node5</title>
<g id="a_edge4_Node000004_Node000005"><a xlink:title=" ">
<path fill="none" stroke="#63b8ff" d="M208.75,-44.71C208.75,-36.32 208.75,-27.01 208.75,-20.3"/>
<polygon fill="#63b8ff" stroke="#63b8ff" points="205.25,-44.59 208.75,-54.59 212.25,-44.59 205.25,-44.59"/>
</a>
</g>
</g>
</g>
</svg>
