<?xml version="1.0" encoding="UTF-8" standalone="no"?>
<!DOCTYPE svg PUBLIC "-//W3C//DTD SVG 1.1//EN"
 "http://www.w3.org/Graphics/SVG/1.1/DTD/svg11.dtd">
<!-- Generated by graphviz version 8.1.0 (20230707.0739)
 -->
<!-- Title: ExoCode/src/InclinationDetector.cpp Pages: 1 -->
<svg width="582pt" height="196pt"
 viewBox="0.00 0.00 582.25 196.00" xmlns="http://www.w3.org/2000/svg" xmlns:xlink="http://www.w3.org/1999/xlink">
<g id="graph0" class="graph" transform="scale(1 1) rotate(0) translate(4 192)">
<title>ExoCode/src/InclinationDetector.cpp</title>
<!-- Node1 -->
<g id="Node000001" class="node">
<title>Node1</title>
<g id="a_Node000001"><a xlink:title=" ">
<polygon fill="#999999" stroke="#666666" points="341.62,-188 167.38,-188 167.38,-168 341.62,-168 341.62,-188"/>
<text text-anchor="middle" x="254.5" y="-174.5" font-family="Helvetica,sans-Serif" font-size="10.00">ExoCode/src/InclinationDetector.cpp</text>
</a>
</g>
</g>
<!-- Node2 -->
<g id="Node000002" class="node">
<title>Node2</title>
<g id="a_Node000002"><a xlink:href="_inclination_detector_8h.html" target="_top" xlink:title=" ">
<polygon fill="white" stroke="#666666" points="389.75,-132 285.25,-132 285.25,-112 389.75,-112 389.75,-132"/>
<text text-anchor="middle" x="337.5" y="-118.5" font-family="Helvetica,sans-Serif" font-size="10.00">InclinationDetector.h</text>
</a>
</g>
</g>
<!-- Node1&#45;&gt;Node2 -->
<g id="edge1_Node000001_Node000002" class="edge">
<title>Node1&#45;&gt;Node2</title>
<g id="a_edge1_Node000001_Node000002"><a xlink:title=" ">
<path fill="none" stroke="#63b8ff" d="M268.96,-167.59C281.38,-159.51 299.52,-147.71 314.02,-138.27"/>
<polygon fill="#63b8ff" stroke="#63b8ff" points="315.46,-140.87 321.93,-132.48 311.64,-135 315.46,-140.87"/>
</a>
</g>
</g>
<!-- Node3 -->
<g id="Node000003" class="node">
<title>Node3</title>
<g id="a_Node000003"><a xlink:title=" ">
<polygon fill="#e0e0e0" stroke="#999999" points="283.12,-20 225.88,-20 225.88,0 283.12,0 283.12,-20"/>
<text text-anchor="middle" x="254.5" y="-6.5" font-family="Helvetica,sans-Serif" font-size="10.00">Arduino.h</text>
</a>
</g>
</g>
<!-- Node1&#45;&gt;Node3 -->
<g id="edge5_Node000001_Node000003" class="edge">
<title>Node1&#45;&gt;Node3</title>
<g id="a_edge5_Node000001_Node000003"><a xlink:title=" ">
<path fill="none" stroke="#63b8ff" d="M254.5,-167.6C254.5,-141.35 254.5,-66.84 254.5,-30.89"/>
<polygon fill="#63b8ff" stroke="#63b8ff" points="258,-31.3 254.5,-21.3 251,-31.3 258,-31.3"/>
</a>
</g>
</g>
<!-- Node6 -->
<g id="Node000006" class="node">
<title>Node6</title>
<g id="a_Node000006"><a xlink:href="_logger_8h.html" target="_top" xlink:title=" ">
<polygon fill="white" stroke="#666666" points="189.25,-132 135.75,-132 135.75,-112 189.25,-112 189.25,-132"/>
<text text-anchor="middle" x="162.5" y="-118.5" font-family="Helvetica,sans-Serif" font-size="10.00">Logger.h</text>
</a>
</g>
</g>
<!-- Node1&#45;&gt;Node6 -->
<g id="edge6_Node000001_Node000006" class="edge">
<title>Node1&#45;&gt;Node6</title>
<g id="a_edge6_Node000001_Node000006"><a xlink:title=" ">
<path fill="none" stroke="#63b8ff" d="M238.47,-167.59C224.58,-159.44 204.21,-147.48 188.06,-138"/>
<polygon fill="#63b8ff" stroke="#63b8ff" points="190.05,-134.52 179.65,-132.48 186.5,-140.56 190.05,-134.52"/>
</a>
</g>
</g>
<!-- Node7 -->
<g id="Node000007" class="node">
<title>Node7</title>
<g id="a_Node000007"><a xlink:href="_log_levels_8h.html" target="_top" xlink:title=" ">
<polygon fill="white" stroke="#666666" points="67,-20 0,-20 0,0 67,0 67,-20"/>
<text text-anchor="middle" x="33.5" y="-6.5" font-family="Helvetica,sans-Serif" font-size="10.00">LogLevels.h</text>
</a>
</g>
</g>
<!-- Node1&#45;&gt;Node7 -->
<g id="edge13_Node000001_Node000007" class="edge">
<title>Node1&#45;&gt;Node7</title>
<g id="a_edge13_Node000001_Node000007"><a xlink:title=" ">
<path fill="none" stroke="#63b8ff" d="M192.62,-167.55C140.64,-155.91 69.83,-130.51 37.5,-76 29.47,-62.46 28.99,-44.43 30.23,-30.79"/>
<polygon fill="#63b8ff" stroke="#63b8ff" points="33.79,-31.52 31.6,-21.16 26.85,-30.62 33.79,-31.52"/>
</a>
</g>
</g>
<!-- Node10 -->
<g id="Node000010" class="node">
<title>Node10</title>
<g id="a_Node000010"><a xlink:href="_utilities_8h.html" target="_top" xlink:title=" ">
<polygon fill="white" stroke="#666666" points="470.75,-132 414.25,-132 414.25,-112 470.75,-112 470.75,-132"/>
<text text-anchor="middle" x="442.5" y="-118.5" font-family="Helvetica,sans-Serif" font-size="10.00">Utilities.h</text>
</a>
</g>
</g>
<!-- Node1&#45;&gt;Node10 -->
<g id="edge14_Node000001_Node000010" class="edge">
<title>Node1&#45;&gt;Node10</title>
<g id="a_edge14_Node000001_Node000010"><a xlink:title=" ">
<path fill="none" stroke="#63b8ff" d="M287.25,-167.59C319.66,-158.28 369.29,-144.03 403.67,-134.15"/>
<polygon fill="#63b8ff" stroke="#63b8ff" points="404.17,-137.36 412.82,-131.24 402.24,-130.63 404.17,-137.36"/>
</a>
</g>
</g>
<!-- Node2&#45;&gt;Node3 -->
<g id="edge2_Node000002_Node000003" class="edge">
<title>Node2&#45;&gt;Node3</title>
<g id="a_edge2_Node000002_Node000003"><a xlink:title=" ">
<path fill="none" stroke="#63b8ff" d="M330.42,-111.62C316.64,-93.36 285.99,-52.73 268.13,-29.07"/>
<polygon fill="#63b8ff" stroke="#63b8ff" points="270.38,-27.23 261.56,-21.35 264.79,-31.45 270.38,-27.23"/>
</a>
</g>
</g>
<!-- Node4 -->
<g id="Node000004" class="node">
<title>Node4</title>
<g id="a_Node000004"><a xlink:title=" ">
<polygon fill="#e0e0e0" stroke="#999999" points="420.62,-76 378.38,-76 378.38,-56 420.62,-56 420.62,-76"/>
<text text-anchor="middle" x="399.5" y="-62.5" font-family="Helvetica,sans-Serif" font-size="10.00">queue</text>
</a>
</g>
</g>
<!-- Node2&#45;&gt;Node4 -->
<g id="edge3_Node000002_Node000004" class="edge">
<title>Node2&#45;&gt;Node4</title>
<g id="a_edge3_Node000002_Node000004"><a xlink:title=" ">
<path fill="none" stroke="#63b8ff" d="M348.3,-111.59C357.19,-103.85 370.01,-92.69 380.59,-83.47"/>
<polygon fill="#63b8ff" stroke="#63b8ff" points="382.58,-85.51 387.82,-76.3 377.98,-80.23 382.58,-85.51"/>
</a>
</g>
</g>
<!-- Node5 -->
<g id="Node000005" class="node">
<title>Node5</title>
<g id="a_Node000005"><a xlink:title=" ">
<polygon fill="#e0e0e0" stroke="#999999" points="360.12,-76 320.88,-76 320.88,-56 360.12,-56 360.12,-76"/>
<text text-anchor="middle" x="340.5" y="-62.5" font-family="Helvetica,sans-Serif" font-size="10.00">utility</text>
</a>
</g>
</g>
<!-- Node2&#45;&gt;Node5 -->
<g id="edge4_Node000002_Node000005" class="edge">
<title>Node2&#45;&gt;Node5</title>
<g id="a_edge4_Node000002_Node000005"><a xlink:title=" ">
<path fill="none" stroke="#63b8ff" d="M338.02,-111.59C338.4,-104.86 338.91,-95.53 339.38,-87.15"/>
<polygon fill="#63b8ff" stroke="#63b8ff" points="342.92,-87.48 339.98,-77.3 335.93,-87.09 342.92,-87.48"/>
</a>
</g>
</g>
<!-- Node6&#45;&gt;Node3 -->
<g id="edge7_Node000006_Node000003" class="edge">
<title>Node6&#45;&gt;Node3</title>
<g id="a_edge7_Node000006_Node000003"><a xlink:title=" ">
<path fill="none" stroke="#63b8ff" d="M170.34,-111.62C185.69,-93.27 219.9,-52.37 239.65,-28.75"/>
<polygon fill="#63b8ff" stroke="#63b8ff" points="242.95,-31.27 246.68,-21.35 237.58,-26.78 242.95,-31.27"/>
</a>
</g>
</g>
<!-- Node6&#45;&gt;Node7 -->
<g id="edge8_Node000006_Node000007" class="edge">
<title>Node6&#45;&gt;Node7</title>
<g id="a_edge8_Node000006_Node000007"><a xlink:title=" ">
<path fill="none" stroke="#63b8ff" d="M135.6,-116.81C110.64,-111.54 74.19,-100.07 52.5,-76 41.31,-63.58 36.69,-44.91 34.79,-30.75"/>
<polygon fill="#63b8ff" stroke="#63b8ff" points="38.21,-30.78 33.75,-21.17 31.25,-31.46 38.21,-30.78"/>
</a>
</g>
</g>
<!-- Node8 -->
<g id="Node000008" class="node">
<title>Node8</title>
<g id="a_Node000008"><a xlink:href="_config_8h.html" target="_top" xlink:title=" ">
<polygon fill="white" stroke="#666666" points="188.12,-76 136.88,-76 136.88,-56 188.12,-56 188.12,-76"/>
<text text-anchor="middle" x="162.5" y="-62.5" font-family="Helvetica,sans-Serif" font-size="10.00">Config.h</text>
</a>
</g>
</g>
<!-- Node6&#45;&gt;Node8 -->
<g id="edge9_Node000006_Node000008" class="edge">
<title>Node6&#45;&gt;Node8</title>
<g id="a_edge9_Node000006_Node000008"><a xlink:title=" ">
<path fill="none" stroke="#63b8ff" d="M162.5,-111.59C162.5,-104.86 162.5,-95.53 162.5,-87.15"/>
<polygon fill="#63b8ff" stroke="#63b8ff" points="166,-87.3 162.5,-77.3 159,-87.3 166,-87.3"/>
</a>
</g>
</g>
<!-- Node9 -->
<g id="Node000009" class="node">
<title>Node9</title>
<g id="a_Node000009"><a xlink:title=" ">
<polygon fill="#e0e0e0" stroke="#999999" points="119.12,-76 61.88,-76 61.88,-56 119.12,-56 119.12,-76"/>
<text text-anchor="middle" x="90.5" y="-62.5" font-family="Helvetica,sans-Serif" font-size="10.00">functional</text>
</a>
</g>
</g>
<!-- Node6&#45;&gt;Node9 -->
<g id="edge12_Node000006_Node000009" class="edge">
<title>Node6&#45;&gt;Node9</title>
<g id="a_edge12_Node000006_Node000009"><a xlink:title=" ">
<path fill="none" stroke="#63b8ff" d="M149.96,-111.59C139.32,-103.62 123.85,-92.02 111.36,-82.64"/>
<polygon fill="#63b8ff" stroke="#63b8ff" points="114,-79.5 103.9,-76.3 109.8,-85.1 114,-79.5"/>
</a>
</g>
</g>
<!-- Node8&#45;&gt;Node3 -->
<g id="edge10_Node000008_Node000003" class="edge">
<title>Node8&#45;&gt;Node3</title>
<g id="a_edge10_Node000008_Node000003"><a xlink:title=" ">
<path fill="none" stroke="#63b8ff" d="M178.53,-55.59C192.42,-47.44 212.79,-35.48 228.94,-26"/>
<polygon fill="#63b8ff" stroke="#63b8ff" points="230.5,-28.56 237.35,-20.48 226.95,-22.52 230.5,-28.56"/>
</a>
</g>
</g>
<!-- Node8&#45;&gt;Node7 -->
<g id="edge11_Node000008_Node000007" class="edge">
<title>Node8&#45;&gt;Node7</title>
<g id="a_edge11_Node000008_Node000007"><a xlink:title=" ">
<path fill="none" stroke="#63b8ff" d="M140.03,-55.59C119.62,-47.05 89.27,-34.35 66.18,-24.68"/>
<polygon fill="#63b8ff" stroke="#63b8ff" points="67.72,-21.11 57.15,-20.48 65.02,-27.57 67.72,-21.11"/>
</a>
</g>
</g>
<!-- Node10&#45;&gt;Node3 -->
<g id="edge17_Node000010_Node000003" class="edge">
<title>Node10&#45;&gt;Node3</title>
<g id="a_edge17_Node000010_Node000003"><a xlink:title=" ">
<path fill="none" stroke="#63b8ff" d="M443.48,-111.66C444.4,-97.64 443.9,-71.21 429.5,-56 411.17,-36.64 340.02,-23.15 294.28,-16.27"/>
<polygon fill="#63b8ff" stroke="#63b8ff" points="294.93,-12.68 284.53,-14.7 293.92,-19.61 294.93,-12.68"/>
</a>
</g>
</g>
<!-- Node10&#45;&gt;Node4 -->
<g id="edge20_Node000010_Node000004" class="edge">
<title>Node10&#45;&gt;Node4</title>
<g id="a_edge20_Node000010_Node000004"><a xlink:title=" ">
<path fill="none" stroke="#63b8ff" d="M435.01,-111.59C429.15,-104.24 420.84,-93.8 413.73,-84.87"/>
<polygon fill="#63b8ff" stroke="#63b8ff" points="415.87,-82.94 406.9,-77.3 410.4,-87.3 415.87,-82.94"/>
</a>
</g>
</g>
<!-- Node10&#45;&gt;Node5 -->
<g id="edge19_Node000010_Node000005" class="edge">
<title>Node10&#45;&gt;Node5</title>
<g id="a_edge19_Node000010_Node000005"><a xlink:title=" ">
<path fill="none" stroke="#63b8ff" d="M424.73,-111.59C409.11,-103.32 386.11,-91.14 368.09,-81.6"/>
<polygon fill="#63b8ff" stroke="#63b8ff" points="369.88,-78.07 359.41,-76.48 366.61,-84.25 369.88,-78.07"/>
</a>
</g>
</g>
<!-- Node11 -->
<g id="Node000011" class="node">
<title>Node11</title>
<g id="a_Node000011"><a xlink:href="_parse_ini_8h.html" target="_top" xlink:title="Declares the functions needed and defines mapping between the INI keys and the exo components.">
<polygon fill="white" stroke="#666666" points="574.25,-76 514.75,-76 514.75,-56 574.25,-56 574.25,-76"/>
<text text-anchor="middle" x="544.5" y="-62.5" font-family="Helvetica,sans-Serif" font-size="10.00">ParseIni.h</text>
</a>
</g>
</g>
<!-- Node10&#45;&gt;Node11 -->
<g id="edge15_Node000010_Node000011" class="edge">
<title>Node10&#45;&gt;Node11</title>
<g id="a_edge15_Node000010_Node000011"><a xlink:title=" ">
<path fill="none" stroke="#63b8ff" d="M460.27,-111.59C475.89,-103.32 498.89,-91.14 516.91,-81.6"/>
<polygon fill="#63b8ff" stroke="#63b8ff" points="518.39,-84.25 525.59,-76.48 515.12,-78.07 518.39,-84.25"/>
</a>
</g>
</g>
<!-- Node12 -->
<g id="Node000012" class="node">
<title>Node12</title>
<g id="a_Node000012"><a xlink:title=" ">
<polygon fill="#e0e0e0" stroke="#999999" points="539.62,-20 491.38,-20 491.38,0 539.62,0 539.62,-20"/>
<text text-anchor="middle" x="515.5" y="-6.5" font-family="Helvetica,sans-Serif" font-size="10.00">stdint.h</text>
</a>
</g>
</g>
<!-- Node10&#45;&gt;Node12 -->
<g id="edge18_Node000010_Node000012" class="edge">
<title>Node10&#45;&gt;Node12</title>
<g id="a_edge18_Node000010_Node000012"><a xlink:title=" ">
<path fill="none" stroke="#63b8ff" d="M448.72,-111.62C460.79,-93.44 487.57,-53.09 503.3,-29.38"/>
<polygon fill="#63b8ff" stroke="#63b8ff" points="506.68,-31.62 509.29,-21.35 500.85,-27.75 506.68,-31.62"/>
</a>
</g>
</g>
<!-- Node11&#45;&gt;Node12 -->
<g id="edge16_Node000011_Node000012" class="edge">
<title>Node11&#45;&gt;Node12</title>
<g id="a_edge16_Node000011_Node000012"><a xlink:title=" ">
<path fill="none" stroke="#63b8ff" d="M539.45,-55.59C535.62,-48.47 530.24,-38.45 525.55,-29.72"/>
<polygon fill="#63b8ff" stroke="#63b8ff" points="528.31,-28.45 520.49,-21.3 522.14,-31.76 528.31,-28.45"/>
</a>
</g>
</g>
</g>
</svg>
