<?xml version="1.0" encoding="UTF-8" standalone="no"?>
<!DOCTYPE svg PUBLIC "-//W3C//DTD SVG 1.1//EN"
 "http://www.w3.org/Graphics/SVG/1.1/DTD/svg11.dtd">
<!-- Generated by graphviz version 8.1.0 (20230707.0739)
 -->
<!-- Title: ExoCode/src/IniFile.cpp Pages: 1 -->
<svg width="200pt" height="140pt"
 viewBox="0.00 0.00 199.75 140.00" xmlns="http://www.w3.org/2000/svg" xmlns:xlink="http://www.w3.org/1999/xlink">
<g id="graph0" class="graph" transform="scale(1 1) rotate(0) translate(4 136)">
<title>ExoCode/src/IniFile.cpp</title>
<!-- Node1 -->
<g id="Node000001" class="node">
<title>Node1</title>
<g id="a_Node000001"><a xlink:title=" ">
<polygon fill="#999999" stroke="#666666" points="177.88,-132 58.38,-132 58.38,-112 177.88,-112 177.88,-132"/>
<text text-anchor="middle" x="118.12" y="-118.5" font-family="Helvetica,sans-Serif" font-size="10.00">ExoCode/src/IniFile.cpp</text>
</a>
</g>
</g>
<!-- Node2 -->
<g id="Node000002" class="node">
<title>Node2</title>
<g id="a_Node000002"><a xlink:href="_ini_file_8h.html" target="_top" xlink:title=" ">
<polygon fill="white" stroke="#666666" points="110,-76 60.25,-76 60.25,-56 110,-56 110,-76"/>
<text text-anchor="middle" x="85.12" y="-62.5" font-family="Helvetica,sans-Serif" font-size="10.00">IniFile.h</text>
</a>
</g>
</g>
<!-- Node1&#45;&gt;Node2 -->
<g id="edge1_Node000001_Node000002" class="edge">
<title>Node1&#45;&gt;Node2</title>
<g id="a_edge1_Node000001_Node000002"><a xlink:title=" ">
<path fill="none" stroke="#63b8ff" d="M112.38,-111.59C107.98,-104.39 101.77,-94.23 96.39,-85.43"/>
<polygon fill="#63b8ff" stroke="#63b8ff" points="99.01,-84.01 90.81,-77.3 93.04,-87.66 99.01,-84.01"/>
</a>
</g>
</g>
<!-- Node6 -->
<g id="Node000006" class="node">
<title>Node6</title>
<g id="a_Node000006"><a xlink:title=" ">
<polygon fill="#e0e0e0" stroke="#999999" points="176.25,-76 128,-76 128,-56 176.25,-56 176.25,-76"/>
<text text-anchor="middle" x="152.12" y="-62.5" font-family="Helvetica,sans-Serif" font-size="10.00">string.h</text>
</a>
</g>
</g>
<!-- Node1&#45;&gt;Node6 -->
<g id="edge5_Node000001_Node000006" class="edge">
<title>Node1&#45;&gt;Node6</title>
<g id="a_edge5_Node000001_Node000006"><a xlink:title=" ">
<path fill="none" stroke="#63b8ff" d="M124.05,-111.59C128.58,-104.39 134.98,-94.23 140.52,-85.43"/>
<polygon fill="#63b8ff" stroke="#63b8ff" points="143.9,-87.63 146.27,-77.3 137.98,-83.9 143.9,-87.63"/>
</a>
</g>
</g>
<!-- Node3 -->
<g id="Node000003" class="node">
<title>Node3</title>
<g id="a_Node000003"><a xlink:title=" ">
<polygon fill="#e0e0e0" stroke="#999999" points="48.25,-20 0,-20 0,0 48.25,0 48.25,-20"/>
<text text-anchor="middle" x="24.12" y="-6.5" font-family="Helvetica,sans-Serif" font-size="10.00">stdint.h</text>
</a>
</g>
</g>
<!-- Node2&#45;&gt;Node3 -->
<g id="edge2_Node000002_Node000003" class="edge">
<title>Node2&#45;&gt;Node3</title>
<g id="a_edge2_Node000002_Node000003"><a xlink:title=" ">
<path fill="none" stroke="#63b8ff" d="M74.5,-55.59C65.75,-47.85 53.14,-36.69 42.73,-27.47"/>
<polygon fill="#63b8ff" stroke="#63b8ff" points="45.44,-25.31 35.63,-21.3 40.8,-30.55 45.44,-25.31"/>
</a>
</g>
</g>
<!-- Node4 -->
<g id="Node000004" class="node">
<title>Node4</title>
<g id="a_Node000004"><a xlink:title=" ">
<polygon fill="#e0e0e0" stroke="#999999" points="104,-20 66.25,-20 66.25,0 104,0 104,-20"/>
<text text-anchor="middle" x="85.12" y="-6.5" font-family="Helvetica,sans-Serif" font-size="10.00">SD.h</text>
</a>
</g>
</g>
<!-- Node2&#45;&gt;Node4 -->
<g id="edge3_Node000002_Node000004" class="edge">
<title>Node2&#45;&gt;Node4</title>
<g id="a_edge3_Node000002_Node000004"><a xlink:title=" ">
<path fill="none" stroke="#63b8ff" d="M85.12,-55.59C85.12,-48.86 85.12,-39.53 85.12,-31.15"/>
<polygon fill="#63b8ff" stroke="#63b8ff" points="88.63,-31.3 85.12,-21.3 81.63,-31.3 88.63,-31.3"/>
</a>
</g>
</g>
<!-- Node5 -->
<g id="Node000005" class="node">
<title>Node5</title>
<g id="a_Node000005"><a xlink:title=" ">
<polygon fill="#e0e0e0" stroke="#999999" points="191.75,-20 122.5,-20 122.5,0 191.75,0 191.75,-20"/>
<text text-anchor="middle" x="157.12" y="-6.5" font-family="Helvetica,sans-Serif" font-size="10.00">IPAddress.h</text>
</a>
</g>
</g>
<!-- Node2&#45;&gt;Node5 -->
<g id="edge4_Node000002_Node000005" class="edge">
<title>Node2&#45;&gt;Node5</title>
<g id="a_edge4_Node000002_Node000005"><a xlink:title=" ">
<path fill="none" stroke="#63b8ff" d="M97.67,-55.59C108.3,-47.62 123.77,-36.02 136.27,-26.64"/>
<polygon fill="#63b8ff" stroke="#63b8ff" points="137.83,-29.1 143.73,-20.3 133.63,-23.5 137.83,-29.1"/>
</a>
</g>
</g>
</g>
</svg>
