<?xml version="1.0" encoding="UTF-8" standalone="no"?>
<!DOCTYPE svg PUBLIC "-//W3C//DTD SVG 1.1//EN"
 "http://www.w3.org/Graphics/SVG/1.1/DTD/svg11.dtd">
<!-- Generated by graphviz version 8.1.0 (20230707.0739)
 -->
<!-- Title: ExoCode/src/JointData.cpp Pages: 1 -->
<svg width="520pt" height="308pt"
 viewBox="0.00 0.00 520.35 308.00" xmlns="http://www.w3.org/2000/svg" xmlns:xlink="http://www.w3.org/1999/xlink">
<g id="graph0" class="graph" transform="scale(1 1) rotate(0) translate(4 304)">
<title>ExoCode/src/JointData.cpp</title>
<!-- Node1 -->
<g id="Node000001" class="node">
<title>Node1</title>
<g id="a_Node000001"><a xlink:title=" ">
<polygon fill="#999999" stroke="#666666" points="330.97,-300 196.47,-300 196.47,-280 330.97,-280 330.97,-300"/>
<text text-anchor="middle" x="263.72" y="-286.5" font-family="Helvetica,sans-Serif" font-size="10.00">ExoCode/src/JointData.cpp</text>
</a>
</g>
</g>
<!-- Node2 -->
<g id="Node000002" class="node">
<title>Node2</title>
<g id="a_Node000002"><a xlink:href="_joint_data_8h.html" target="_top" xlink:title="Declares a class used to store data for joint to access.">
<polygon fill="white" stroke="#666666" points="227.1,-244 162.35,-244 162.35,-224 227.1,-224 227.1,-244"/>
<text text-anchor="middle" x="194.72" y="-230.5" font-family="Helvetica,sans-Serif" font-size="10.00">JointData.h</text>
</a>
</g>
</g>
<!-- Node1&#45;&gt;Node2 -->
<g id="edge1_Node000001_Node000002" class="edge">
<title>Node1&#45;&gt;Node2</title>
<g id="a_edge1_Node000001_Node000002"><a xlink:title=" ">
<path fill="none" stroke="#63b8ff" d="M251.7,-279.59C241.61,-271.7 226.97,-260.24 215.06,-250.92"/>
<polygon fill="#63b8ff" stroke="#63b8ff" points="217.64,-247.71 207.6,-244.3 213.32,-253.22 217.64,-247.71"/>
</a>
</g>
</g>
<!-- Node11 -->
<g id="Node000011" class="node">
<title>Node11</title>
<g id="a_Node000011"><a xlink:href="_logger_8h.html" target="_top" xlink:title=" ">
<polygon fill="white" stroke="#666666" points="399.47,-132 345.97,-132 345.97,-112 399.47,-112 399.47,-132"/>
<text text-anchor="middle" x="372.72" y="-118.5" font-family="Helvetica,sans-Serif" font-size="10.00">Logger.h</text>
</a>
</g>
</g>
<!-- Node1&#45;&gt;Node11 -->
<g id="edge21_Node000001_Node000011" class="edge">
<title>Node1&#45;&gt;Node11</title>
<g id="a_edge21_Node000001_Node000011"><a xlink:title=" ">
<path fill="none" stroke="#63b8ff" d="M269.9,-279.6C287.43,-252.89 337.77,-176.23 360.87,-141.05"/>
<polygon fill="#63b8ff" stroke="#63b8ff" points="364.05,-143.58 366.62,-133.3 358.2,-139.74 364.05,-143.58"/>
</a>
</g>
</g>
<!-- Node3 -->
<g id="Node000003" class="node">
<title>Node3</title>
<g id="a_Node000003"><a xlink:title=" ">
<polygon fill="#e0e0e0" stroke="#999999" points="290.35,-20 233.1,-20 233.1,0 290.35,0 290.35,-20"/>
<text text-anchor="middle" x="261.72" y="-6.5" font-family="Helvetica,sans-Serif" font-size="10.00">Arduino.h</text>
</a>
</g>
</g>
<!-- Node2&#45;&gt;Node3 -->
<g id="edge2_Node000002_Node000003" class="edge">
<title>Node2&#45;&gt;Node3</title>
<g id="a_edge2_Node000002_Node000003"><a xlink:title=" ">
<path fill="none" stroke="#63b8ff" d="M212.06,-223.59C225.31,-215.63 243.21,-203.12 254.72,-188 270.92,-166.73 271.75,-158.27 276.72,-132 283.43,-96.61 274.59,-54.81 267.91,-30.75"/>
<polygon fill="#63b8ff" stroke="#63b8ff" points="271.07,-30.08 264.88,-21.48 264.35,-32.06 271.07,-30.08"/>
</a>
</g>
</g>
<!-- Node4 -->
<g id="Node000004" class="node">
<title>Node4</title>
<g id="a_Node000004"><a xlink:href="_motor_data_8h.html" target="_top" xlink:title="Declares a class used to store data for motors to access.">
<polygon fill="white" stroke="#666666" points="229.35,-188 160.1,-188 160.1,-168 229.35,-168 229.35,-188"/>
<text text-anchor="middle" x="194.72" y="-174.5" font-family="Helvetica,sans-Serif" font-size="10.00">MotorData.h</text>
</a>
</g>
</g>
<!-- Node2&#45;&gt;Node4 -->
<g id="edge3_Node000002_Node000004" class="edge">
<title>Node2&#45;&gt;Node4</title>
<g id="a_edge3_Node000002_Node000004"><a xlink:title=" ">
<path fill="none" stroke="#63b8ff" d="M194.72,-223.59C194.72,-216.86 194.72,-207.53 194.72,-199.15"/>
<polygon fill="#63b8ff" stroke="#63b8ff" points="198.22,-199.3 194.72,-189.3 191.22,-199.3 198.22,-199.3"/>
</a>
</g>
</g>
<!-- Node5 -->
<g id="Node000005" class="node">
<title>Node5</title>
<g id="a_Node000005"><a xlink:href="_parse_ini_8h.html" target="_top" xlink:title="Declares the functions needed and defines mapping between the INI keys and the exo components.">
<polygon fill="white" stroke="#666666" points="123.47,-132 63.97,-132 63.97,-112 123.47,-112 123.47,-132"/>
<text text-anchor="middle" x="93.72" y="-118.5" font-family="Helvetica,sans-Serif" font-size="10.00">ParseIni.h</text>
</a>
</g>
</g>
<!-- Node2&#45;&gt;Node5 -->
<g id="edge18_Node000002_Node000005" class="edge">
<title>Node2&#45;&gt;Node5</title>
<g id="a_edge18_Node000002_Node000005"><a xlink:title=" ">
<path fill="none" stroke="#63b8ff" d="M185.47,-223.83C176.46,-214.84 162.45,-200.67 150.72,-188 136.14,-172.25 120.06,-153.82 108.71,-140.61"/>
<polygon fill="#63b8ff" stroke="#63b8ff" points="110.85,-138.72 101.68,-133.4 105.53,-143.27 110.85,-138.72"/>
</a>
</g>
</g>
<!-- Node6 -->
<g id="Node000006" class="node">
<title>Node6</title>
<g id="a_Node000006"><a xlink:title=" ">
<polygon fill="#e0e0e0" stroke="#999999" points="88.85,-76 40.6,-76 40.6,-56 88.85,-56 88.85,-76"/>
<text text-anchor="middle" x="64.72" y="-62.5" font-family="Helvetica,sans-Serif" font-size="10.00">stdint.h</text>
</a>
</g>
</g>
<!-- Node2&#45;&gt;Node6 -->
<g id="edge20_Node000002_Node000006" class="edge">
<title>Node2&#45;&gt;Node6</title>
<g id="a_edge20_Node000002_Node000006"><a xlink:title=" ">
<path fill="none" stroke="#63b8ff" d="M162.17,-229.89C114.02,-224.55 27.47,-211.82 8.72,-188 -17.13,-155.15 21.36,-108.44 46.28,-83.76"/>
<polygon fill="#63b8ff" stroke="#63b8ff" points="48.28,-86.73 53.09,-77.29 43.45,-81.67 48.28,-86.73"/>
</a>
</g>
</g>
<!-- Node7 -->
<g id="Node000007" class="node">
<title>Node7</title>
<g id="a_Node000007"><a xlink:href="_board_8h.html" target="_top" xlink:title=" ">
<polygon fill="white" stroke="#666666" points="267.6,-132 217.85,-132 217.85,-112 267.6,-112 267.6,-132"/>
<text text-anchor="middle" x="242.72" y="-118.5" font-family="Helvetica,sans-Serif" font-size="10.00">Board.h</text>
</a>
</g>
</g>
<!-- Node2&#45;&gt;Node7 -->
<g id="edge19_Node000002_Node000007" class="edge">
<title>Node2&#45;&gt;Node7</title>
<g id="a_edge19_Node000002_Node000007"><a xlink:title=" ">
<path fill="none" stroke="#63b8ff" d="M208.11,-223.62C218.48,-215.51 232.16,-202.78 238.72,-188 244.97,-173.92 245.7,-156.41 245.02,-143.11"/>
<polygon fill="#63b8ff" stroke="#63b8ff" points="248.44,-142.97 244.11,-133.3 241.46,-143.56 248.44,-142.97"/>
</a>
</g>
</g>
<!-- Node10 -->
<g id="Node000010" class="node">
<title>Node10</title>
<g id="a_Node000010"><a xlink:href="_controller_data_8h.html" target="_top" xlink:title="Declares a class used to store data for controllers to access.">
<polygon fill="white" stroke="#666666" points="103.6,-188 17.85,-188 17.85,-168 103.6,-168 103.6,-188"/>
<text text-anchor="middle" x="60.72" y="-174.5" font-family="Helvetica,sans-Serif" font-size="10.00">ControllerData.h</text>
</a>
</g>
</g>
<!-- Node2&#45;&gt;Node10 -->
<g id="edge13_Node000002_Node000010" class="edge">
<title>Node2&#45;&gt;Node10</title>
<g id="a_edge13_Node000002_Node000010"><a xlink:title=" ">
<path fill="none" stroke="#63b8ff" d="M171.38,-223.59C150.09,-215.01 118.37,-202.23 94.35,-192.55"/>
<polygon fill="#63b8ff" stroke="#63b8ff" points="95.83,-188.97 85.25,-188.48 93.21,-195.46 95.83,-188.97"/>
</a>
</g>
</g>
<!-- Node4&#45;&gt;Node3 -->
<g id="edge4_Node000004_Node000003" class="edge">
<title>Node4&#45;&gt;Node3</title>
<g id="a_edge4_Node000004_Node000003"><a xlink:title=" ">
<path fill="none" stroke="#63b8ff" d="M195.94,-167.52C197.78,-154.66 201.8,-131.1 208.72,-112 219.65,-81.86 237.95,-49.44 249.93,-29.69"/>
<polygon fill="#63b8ff" stroke="#63b8ff" points="253.42,-31.7 255.7,-21.35 247.47,-28.02 253.42,-31.7"/>
</a>
</g>
</g>
<!-- Node4&#45;&gt;Node5 -->
<g id="edge5_Node000004_Node000005" class="edge">
<title>Node4&#45;&gt;Node5</title>
<g id="a_edge5_Node000004_Node000005"><a xlink:title=" ">
<path fill="none" stroke="#63b8ff" d="M177.13,-167.59C161.66,-159.32 138.88,-147.14 121.04,-137.6"/>
<polygon fill="#63b8ff" stroke="#63b8ff" points="122.92,-134.11 112.45,-132.48 119.62,-140.28 122.92,-134.11"/>
</a>
</g>
</g>
<!-- Node4&#45;&gt;Node6 -->
<g id="edge12_Node000004_Node000006" class="edge">
<title>Node4&#45;&gt;Node6</title>
<g id="a_edge12_Node000004_Node000006"><a xlink:title=" ">
<path fill="none" stroke="#63b8ff" d="M186.89,-167.54C175.67,-154.28 154.01,-129.82 132.72,-112 119.44,-100.89 103.33,-90.12 90.12,-81.91"/>
<polygon fill="#63b8ff" stroke="#63b8ff" points="92.46,-78.62 82.1,-76.41 88.82,-84.6 92.46,-78.62"/>
</a>
</g>
</g>
<!-- Node4&#45;&gt;Node7 -->
<g id="edge7_Node000004_Node000007" class="edge">
<title>Node4&#45;&gt;Node7</title>
<g id="a_edge7_Node000004_Node000007"><a xlink:title=" ">
<path fill="none" stroke="#63b8ff" d="M203.08,-167.59C209.76,-160.08 219.3,-149.35 227.34,-140.3"/>
<polygon fill="#63b8ff" stroke="#63b8ff" points="229.43,-143.1 233.46,-133.3 224.2,-138.45 229.43,-143.1"/>
</a>
</g>
</g>
<!-- Node5&#45;&gt;Node6 -->
<g id="edge6_Node000005_Node000006" class="edge">
<title>Node5&#45;&gt;Node6</title>
<g id="a_edge6_Node000005_Node000006"><a xlink:title=" ">
<path fill="none" stroke="#63b8ff" d="M88.67,-111.59C84.85,-104.47 79.47,-94.45 74.77,-85.72"/>
<polygon fill="#63b8ff" stroke="#63b8ff" points="77.53,-84.45 69.72,-77.3 71.36,-87.76 77.53,-84.45"/>
</a>
</g>
</g>
<!-- Node7&#45;&gt;Node3 -->
<g id="edge11_Node000007_Node000003" class="edge">
<title>Node7&#45;&gt;Node3</title>
<g id="a_edge11_Node000007_Node000003"><a xlink:title=" ">
<path fill="none" stroke="#63b8ff" d="M244.34,-111.62C247.41,-93.84 254.14,-54.88 258.27,-31"/>
<polygon fill="#63b8ff" stroke="#63b8ff" points="261.85,-31.8 260.11,-21.35 254.96,-30.61 261.85,-31.8"/>
</a>
</g>
</g>
<!-- Node8 -->
<g id="Node000008" class="node">
<title>Node8</title>
<g id="a_Node000008"><a xlink:href="_config_8h.html" target="_top" xlink:title=" ">
<polygon fill="white" stroke="#666666" points="398.35,-76 347.1,-76 347.1,-56 398.35,-56 398.35,-76"/>
<text text-anchor="middle" x="372.72" y="-62.5" font-family="Helvetica,sans-Serif" font-size="10.00">Config.h</text>
</a>
</g>
</g>
<!-- Node7&#45;&gt;Node8 -->
<g id="edge8_Node000007_Node000008" class="edge">
<title>Node7&#45;&gt;Node8</title>
<g id="a_edge8_Node000007_Node000008"><a xlink:title=" ">
<path fill="none" stroke="#63b8ff" d="M265.37,-111.59C285.93,-103.05 316.52,-90.35 339.79,-80.68"/>
<polygon fill="#63b8ff" stroke="#63b8ff" points="341.01,-83.55 348.9,-76.48 338.32,-77.08 341.01,-83.55"/>
</a>
</g>
</g>
<!-- Node8&#45;&gt;Node3 -->
<g id="edge9_Node000008_Node000003" class="edge">
<title>Node8&#45;&gt;Node3</title>
<g id="a_edge9_Node000008_Node000003"><a xlink:title=" ">
<path fill="none" stroke="#63b8ff" d="M353.39,-55.59C336.14,-47.21 310.65,-34.8 290.92,-25.21"/>
<polygon fill="#63b8ff" stroke="#63b8ff" points="292.73,-21.71 282.21,-20.48 289.67,-28 292.73,-21.71"/>
</a>
</g>
</g>
<!-- Node9 -->
<g id="Node000009" class="node">
<title>Node9</title>
<g id="a_Node000009"><a xlink:href="_log_levels_8h.html" target="_top" xlink:title=" ">
<polygon fill="white" stroke="#666666" points="433.22,-20 366.22,-20 366.22,0 433.22,0 433.22,-20"/>
<text text-anchor="middle" x="399.72" y="-6.5" font-family="Helvetica,sans-Serif" font-size="10.00">LogLevels.h</text>
</a>
</g>
</g>
<!-- Node8&#45;&gt;Node9 -->
<g id="edge10_Node000008_Node000009" class="edge">
<title>Node8&#45;&gt;Node9</title>
<g id="a_edge10_Node000008_Node000009"><a xlink:title=" ">
<path fill="none" stroke="#63b8ff" d="M377.43,-55.59C380.95,-48.55 385.89,-38.67 390.22,-30"/>
<polygon fill="#63b8ff" stroke="#63b8ff" points="393.73,-31.81 395.07,-21.3 387.47,-28.68 393.73,-31.81"/>
</a>
</g>
</g>
<!-- Node10&#45;&gt;Node3 -->
<g id="edge15_Node000010_Node000003" class="edge">
<title>Node10&#45;&gt;Node3</title>
<g id="a_edge15_Node000010_Node000003"><a xlink:title=" ">
<path fill="none" stroke="#63b8ff" d="M53.69,-167.62C38.08,-145.55 3.99,-89.69 31.72,-56 55.35,-27.3 162.42,-16.65 221.79,-12.9"/>
<polygon fill="#63b8ff" stroke="#63b8ff" points="221.86,-16.34 231.63,-12.25 221.44,-9.35 221.86,-16.34"/>
</a>
</g>
</g>
<!-- Node10&#45;&gt;Node5 -->
<g id="edge17_Node000010_Node000005" class="edge">
<title>Node10&#45;&gt;Node5</title>
<g id="a_edge17_Node000010_Node000005"><a xlink:title=" ">
<path fill="none" stroke="#63b8ff" d="M66.47,-167.59C70.87,-160.39 77.08,-150.23 82.46,-141.43"/>
<polygon fill="#63b8ff" stroke="#63b8ff" points="85.81,-143.66 88.04,-133.3 79.84,-140.01 85.81,-143.66"/>
</a>
</g>
</g>
<!-- Node10&#45;&gt;Node6 -->
<g id="edge14_Node000010_Node000006" class="edge">
<title>Node10&#45;&gt;Node6</title>
<g id="a_edge14_Node000010_Node000006"><a xlink:title=" ">
<path fill="none" stroke="#63b8ff" d="M58.69,-167.73C56.2,-155.11 52.55,-131.83 54.72,-112 55.64,-103.65 57.48,-94.59 59.34,-86.8"/>
<polygon fill="#63b8ff" stroke="#63b8ff" points="62.96,-87.76 62.06,-77.21 56.18,-86.03 62.96,-87.76"/>
</a>
</g>
</g>
<!-- Node10&#45;&gt;Node7 -->
<g id="edge16_Node000010_Node000007" class="edge">
<title>Node10&#45;&gt;Node7</title>
<g id="a_edge16_Node000010_Node000007"><a xlink:title=" ">
<path fill="none" stroke="#63b8ff" d="M92.42,-167.59C124.5,-158.08 173.98,-143.4 207.32,-133.51"/>
<polygon fill="#63b8ff" stroke="#63b8ff" points="207.94,-136.67 216.53,-130.47 205.95,-129.96 207.94,-136.67"/>
</a>
</g>
</g>
<!-- Node11&#45;&gt;Node3 -->
<g id="edge22_Node000011_Node000003" class="edge">
<title>Node11&#45;&gt;Node3</title>
<g id="a_edge22_Node000011_Node000003"><a xlink:title=" ">
<path fill="none" stroke="#63b8ff" d="M363.26,-111.62C344.5,-93.03 302.37,-51.28 278.7,-27.82"/>
<polygon fill="#63b8ff" stroke="#63b8ff" points="281.73,-25.91 272.16,-21.35 276.8,-30.88 281.73,-25.91"/>
</a>
</g>
</g>
<!-- Node11&#45;&gt;Node8 -->
<g id="edge24_Node000011_Node000008" class="edge">
<title>Node11&#45;&gt;Node8</title>
<g id="a_edge24_Node000011_Node000008"><a xlink:title=" ">
<path fill="none" stroke="#63b8ff" d="M372.72,-111.59C372.72,-104.86 372.72,-95.53 372.72,-87.15"/>
<polygon fill="#63b8ff" stroke="#63b8ff" points="376.22,-87.3 372.72,-77.3 369.22,-87.3 376.22,-87.3"/>
</a>
</g>
</g>
<!-- Node11&#45;&gt;Node9 -->
<g id="edge23_Node000011_Node000009" class="edge">
<title>Node11&#45;&gt;Node9</title>
<g id="a_edge23_Node000011_Node000009"><a xlink:title=" ">
<path fill="none" stroke="#63b8ff" d="M382.94,-111.8C391.42,-103.43 402.84,-90.23 407.72,-76 412.8,-61.19 410.11,-43.51 406.53,-30.33"/>
<polygon fill="#63b8ff" stroke="#63b8ff" points="409.65,-29.6 403.33,-21.09 402.97,-31.68 409.65,-29.6"/>
</a>
</g>
</g>
<!-- Node12 -->
<g id="Node000012" class="node">
<title>Node12</title>
<g id="a_Node000012"><a xlink:title=" ">
<polygon fill="#e0e0e0" stroke="#999999" points="512.35,-76 455.1,-76 455.1,-56 512.35,-56 512.35,-76"/>
<text text-anchor="middle" x="483.72" y="-62.5" font-family="Helvetica,sans-Serif" font-size="10.00">functional</text>
</a>
</g>
</g>
<!-- Node11&#45;&gt;Node12 -->
<g id="edge25_Node000011_Node000012" class="edge">
<title>Node11&#45;&gt;Node12</title>
<g id="a_edge25_Node000011_Node000012"><a xlink:title=" ">
<path fill="none" stroke="#63b8ff" d="M392.06,-111.59C409.3,-103.21 434.79,-90.8 454.52,-81.21"/>
<polygon fill="#63b8ff" stroke="#63b8ff" points="455.78,-84 463.24,-76.48 452.71,-77.71 455.78,-84"/>
</a>
</g>
</g>
</g>
</svg>
