<?xml version="1.0" encoding="UTF-8" standalone="no"?>
<!DOCTYPE svg PUBLIC "-//W3C//DTD SVG 1.1//EN"
 "http://www.w3.org/Graphics/SVG/1.1/DTD/svg11.dtd">
<!-- Generated by graphviz version 8.1.0 (20230707.0739)
 -->
<!-- Title: ExoCode/src/JointData.h Pages: 1 -->
<svg width="360pt" height="252pt"
 viewBox="0.00 0.00 360.34 252.00" xmlns="http://www.w3.org/2000/svg" xmlns:xlink="http://www.w3.org/1999/xlink">

<svg id="main" version="1.1" xmlns="http://www.w3.org/2000/svg" xmlns:xlink="http://www.w3.org/1999/xlink" xml:space="preserve" onload="init(evt)">
<style type="text/css"><![CDATA[
.node, .edge {opacity: 0.7;}
.node.selected, .edge.selected {opacity: 1;}
.edge:hover path { stroke: red; }
.edge:hover polygon { stroke: red; fill: red; }
]]></style>
<script type="application/ecmascript" xlink:href="svg.min.js"/>
<svg id="graph" class="graph">
<g id="graph0" class="graph" transform="scale(1 1) rotate(0) translate(4 248)">
<title>ExoCode/src/JointData.h</title>
<!-- Node1 -->
<g id="Node000001" class="node">
<title>Node1</title>
<g id="a_Node000001"><a xlink:title="Declares a class used to store data for joint to access.">
<polygon fill="#999999" stroke="#666666" points="142.84,-244 18.84,-244 18.84,-224 142.84,-224 142.84,-244"/>
<text text-anchor="middle" x="80.84" y="-230.5" font-family="Helvetica,sans-Serif" font-size="10.00">ExoCode/src/JointData.h</text>
</a>
</g>
</g>
<!-- Node2 -->
<g id="Node000002" class="node">
<title>Node2</title>
<g id="a_Node000002"><a xlink:title=" ">
<polygon fill="#e0e0e0" stroke="#999999" points="255.47,-20 198.22,-20 198.22,0 255.47,0 255.47,-20"/>
<text text-anchor="middle" x="226.84" y="-6.5" font-family="Helvetica,sans-Serif" font-size="10.00">Arduino.h</text>
</a>
</g>
</g>
<!-- Node1&#45;&gt;Node2 -->
<g id="edge1_Node000001_Node000002" class="edge">
<title>Node1&#45;&gt;Node2</title>
<g id="a_edge1_Node000001_Node000002"><a xlink:title=" ">
<path fill="none" stroke="#63b8ff" d="M59.62,-223.53C45.24,-215.99 27.06,-204.04 16.84,-188 -1.47,-159.27 -4.29,-144.2 6.84,-112 17.19,-82.09 24.33,-73.28 50.84,-56 92.45,-28.89 149.46,-18.1 187.18,-13.82"/>
<polygon fill="#63b8ff" stroke="#63b8ff" points="187.16,-17.23 196.75,-12.73 186.45,-10.27 187.16,-17.23"/>
</a>
</g>
</g>
<!-- Node3 -->
<g id="Node000003" class="node">
<title>Node3</title>
<g id="a_Node000003"><a xlink:href="_motor_data_8h.html" target="_top" xlink:title="Declares a class used to store data for motors to access.">
<polygon fill="white" stroke="#666666" points="147.47,-188 78.22,-188 78.22,-168 147.47,-168 147.47,-188"/>
<text text-anchor="middle" x="112.84" y="-174.5" font-family="Helvetica,sans-Serif" font-size="10.00">MotorData.h</text>
</a>
</g>
</g>
<!-- Node1&#45;&gt;Node3 -->
<g id="edge2_Node000001_Node000003" class="edge">
<title>Node1&#45;&gt;Node3</title>
<g id="a_edge2_Node000001_Node000003"><a xlink:title=" ">
<path fill="none" stroke="#63b8ff" d="M86.42,-223.59C90.64,-216.47 96.58,-206.45 101.75,-197.72"/>
<polygon fill="#63b8ff" stroke="#63b8ff" points="105.25,-199.69 107.33,-189.3 99.22,-196.12 105.25,-199.69"/>
</a>
</g>
</g>
<!-- Node4 -->
<g id="Node000004" class="node">
<title>Node4</title>
<g id="a_Node000004"><a xlink:href="_parse_ini_8h.html" target="_top" xlink:title="Declares the functions needed and defines mapping between the INI keys and the exo components.">
<polygon fill="white" stroke="#666666" points="84.59,-132 25.09,-132 25.09,-112 84.59,-112 84.59,-132"/>
<text text-anchor="middle" x="54.84" y="-118.5" font-family="Helvetica,sans-Serif" font-size="10.00">ParseIni.h</text>
</a>
</g>
</g>
<!-- Node1&#45;&gt;Node4 -->
<g id="edge17_Node000001_Node000004" class="edge">
<title>Node1&#45;&gt;Node4</title>
<g id="a_edge17_Node000001_Node000004"><a xlink:title=" ">
<path fill="none" stroke="#63b8ff" d="M78.23,-223.73C75.7,-214.65 71.83,-200.42 68.84,-188 65.2,-172.88 61.51,-155.67 58.84,-142.75"/>
<polygon fill="#63b8ff" stroke="#63b8ff" points="62.13,-142.38 56.7,-133.29 55.27,-143.79 62.13,-142.38"/>
</a>
</g>
</g>
<!-- Node5 -->
<g id="Node000005" class="node">
<title>Node5</title>
<g id="a_Node000005"><a xlink:title=" ">
<polygon fill="#e0e0e0" stroke="#999999" points="107.97,-76 59.72,-76 59.72,-56 107.97,-56 107.97,-76"/>
<text text-anchor="middle" x="83.84" y="-62.5" font-family="Helvetica,sans-Serif" font-size="10.00">stdint.h</text>
</a>
</g>
</g>
<!-- Node1&#45;&gt;Node5 -->
<g id="edge19_Node000001_Node000005" class="edge">
<title>Node1&#45;&gt;Node5</title>
<g id="a_edge19_Node000001_Node000005"><a xlink:title=" ">
<path fill="none" stroke="#63b8ff" d="M68.9,-223.59C44.6,-203.23 -6.51,-153.59 15.84,-112 23.16,-98.39 36.6,-88.2 49.62,-80.99"/>
<polygon fill="#63b8ff" stroke="#63b8ff" points="51.03,-83.69 58.37,-76.06 47.87,-77.45 51.03,-83.69"/>
</a>
</g>
</g>
<!-- Node6 -->
<g id="Node000006" class="node">
<title>Node6</title>
<g id="a_Node000006"><a xlink:href="_board_8h.html" target="_top" xlink:title=" ">
<polygon fill="white" stroke="#666666" points="304.72,-132 254.97,-132 254.97,-112 304.72,-112 304.72,-132"/>
<text text-anchor="middle" x="279.84" y="-118.5" font-family="Helvetica,sans-Serif" font-size="10.00">Board.h</text>
</a>
</g>
</g>
<!-- Node1&#45;&gt;Node6 -->
<g id="edge18_Node000001_Node000006" class="edge">
<title>Node1&#45;&gt;Node6</title>
<g id="a_edge18_Node000001_Node000006"><a xlink:title=" ">
<path fill="none" stroke="#63b8ff" d="M143.06,-224.16C188.11,-216.56 243.95,-204.24 260.84,-188 272.89,-176.41 277.42,-157.65 279.06,-143.25"/>
<polygon fill="#63b8ff" stroke="#63b8ff" points="282.61,-143.67 279.87,-133.44 275.63,-143.15 282.61,-143.67"/>
</a>
</g>
</g>
<!-- Node9 -->
<g id="Node000009" class="node">
<title>Node9</title>
<g id="a_Node000009"><a xlink:href="_controller_data_8h.html" target="_top" xlink:title="Declares a class used to store data for controllers to access.">
<polygon fill="white" stroke="#666666" points="251.72,-188 165.97,-188 165.97,-168 251.72,-168 251.72,-188"/>
<text text-anchor="middle" x="208.84" y="-174.5" font-family="Helvetica,sans-Serif" font-size="10.00">ControllerData.h</text>
</a>
</g>
</g>
<!-- Node1&#45;&gt;Node9 -->
<g id="edge12_Node000001_Node000009" class="edge">
<title>Node1&#45;&gt;Node9</title>
<g id="a_edge12_Node000001_Node000009"><a xlink:title=" ">
<path fill="none" stroke="#63b8ff" d="M103.14,-223.59C123.39,-215.05 153.5,-202.35 176.41,-192.68"/>
<polygon fill="#63b8ff" stroke="#63b8ff" points="177.52,-195.59 185.37,-188.48 174.8,-189.14 177.52,-195.59"/>
</a>
</g>
</g>
<!-- Node3&#45;&gt;Node2 -->
<g id="edge3_Node000003_Node000002" class="edge">
<title>Node3&#45;&gt;Node2</title>
<g id="a_edge3_Node000003_Node000002"><a xlink:title=" ">
<path fill="none" stroke="#63b8ff" d="M119.3,-167.6C137.64,-140.89 190.29,-64.23 214.45,-29.05"/>
<polygon fill="#63b8ff" stroke="#63b8ff" points="217.68,-31.52 220.46,-21.3 211.91,-27.56 217.68,-31.52"/>
</a>
</g>
</g>
<!-- Node3&#45;&gt;Node4 -->
<g id="edge4_Node000003_Node000004" class="edge">
<title>Node3&#45;&gt;Node4</title>
<g id="a_edge4_Node000003_Node000004"><a xlink:title=" ">
<path fill="none" stroke="#63b8ff" d="M102.74,-167.59C94.51,-159.93 82.67,-148.91 72.83,-139.75"/>
<polygon fill="#63b8ff" stroke="#63b8ff" points="75.53,-137.55 65.83,-133.3 70.76,-142.67 75.53,-137.55"/>
</a>
</g>
</g>
<!-- Node3&#45;&gt;Node5 -->
<g id="edge11_Node000003_Node000005" class="edge">
<title>Node3&#45;&gt;Node5</title>
<g id="a_edge11_Node000003_Node000005"><a xlink:title=" ">
<path fill="none" stroke="#63b8ff" d="M110.37,-167.62C105.66,-149.76 95.32,-110.53 89.03,-86.67"/>
<polygon fill="#63b8ff" stroke="#63b8ff" points="92.24,-86.13 86.31,-77.35 85.47,-87.92 92.24,-86.13"/>
</a>
</g>
</g>
<!-- Node3&#45;&gt;Node6 -->
<g id="edge6_Node000003_Node000006" class="edge">
<title>Node3&#45;&gt;Node6</title>
<g id="a_edge6_Node000003_Node000006"><a xlink:title=" ">
<path fill="none" stroke="#63b8ff" d="M141.93,-167.59C170.44,-158.38 213.93,-144.31 244.43,-134.45"/>
<polygon fill="#63b8ff" stroke="#63b8ff" points="245.19,-137.56 253.63,-131.15 243.04,-130.9 245.19,-137.56"/>
</a>
</g>
</g>
<!-- Node4&#45;&gt;Node5 -->
<g id="edge5_Node000004_Node000005" class="edge">
<title>Node4&#45;&gt;Node5</title>
<g id="a_edge5_Node000004_Node000005"><a xlink:title=" ">
<path fill="none" stroke="#63b8ff" d="M59.89,-111.59C63.72,-104.47 69.1,-94.45 73.79,-85.72"/>
<polygon fill="#63b8ff" stroke="#63b8ff" points="77.2,-87.76 78.85,-77.3 71.04,-84.45 77.2,-87.76"/>
</a>
</g>
</g>
<!-- Node6&#45;&gt;Node2 -->
<g id="edge10_Node000006_Node000002" class="edge">
<title>Node6&#45;&gt;Node2</title>
<g id="a_edge10_Node000006_Node000002"><a xlink:title=" ">
<path fill="none" stroke="#63b8ff" d="M275.32,-111.62C266.64,-93.6 247.47,-53.81 236.01,-30.02"/>
<polygon fill="#63b8ff" stroke="#63b8ff" points="238.84,-28.84 231.35,-21.35 232.54,-31.88 238.84,-28.84"/>
</a>
</g>
</g>
<!-- Node7 -->
<g id="Node000007" class="node">
<title>Node7</title>
<g id="a_Node000007"><a xlink:href="_config_8h.html" target="_top" xlink:title=" ">
<polygon fill="white" stroke="#666666" points="344.47,-76 293.22,-76 293.22,-56 344.47,-56 344.47,-76"/>
<text text-anchor="middle" x="318.84" y="-62.5" font-family="Helvetica,sans-Serif" font-size="10.00">Config.h</text>
</a>
</g>
</g>
<!-- Node6&#45;&gt;Node7 -->
<g id="edge7_Node000006_Node000007" class="edge">
<title>Node6&#45;&gt;Node7</title>
<g id="a_edge7_Node000006_Node000007"><a xlink:title=" ">
<path fill="none" stroke="#63b8ff" d="M286.64,-111.59C291.89,-104.32 299.33,-94.02 305.74,-85.15"/>
<polygon fill="#63b8ff" stroke="#63b8ff" points="309.11,-87.45 312.13,-77.3 303.44,-83.36 309.11,-87.45"/>
</a>
</g>
</g>
<!-- Node7&#45;&gt;Node2 -->
<g id="edge8_Node000007_Node000002" class="edge">
<title>Node7&#45;&gt;Node2</title>
<g id="a_edge8_Node000007_Node000002"><a xlink:title=" ">
<path fill="none" stroke="#63b8ff" d="M302.82,-55.59C288.92,-47.44 268.56,-35.48 252.41,-26"/>
<polygon fill="#63b8ff" stroke="#63b8ff" points="254.39,-22.52 243.99,-20.48 250.85,-28.56 254.39,-22.52"/>
</a>
</g>
</g>
<!-- Node8 -->
<g id="Node000008" class="node">
<title>Node8</title>
<g id="a_Node000008"><a xlink:href="_log_levels_8h.html" target="_top" xlink:title=" ">
<polygon fill="white" stroke="#666666" points="352.34,-20 285.34,-20 285.34,0 352.34,0 352.34,-20"/>
<text text-anchor="middle" x="318.84" y="-6.5" font-family="Helvetica,sans-Serif" font-size="10.00">LogLevels.h</text>
</a>
</g>
</g>
<!-- Node7&#45;&gt;Node8 -->
<g id="edge9_Node000007_Node000008" class="edge">
<title>Node7&#45;&gt;Node8</title>
<g id="a_edge9_Node000007_Node000008"><a xlink:title=" ">
<path fill="none" stroke="#63b8ff" d="M318.84,-55.59C318.84,-48.86 318.84,-39.53 318.84,-31.15"/>
<polygon fill="#63b8ff" stroke="#63b8ff" points="322.34,-31.3 318.84,-21.3 315.34,-31.3 322.34,-31.3"/>
</a>
</g>
</g>
<!-- Node9&#45;&gt;Node2 -->
<g id="edge14_Node000009_Node000002" class="edge">
<title>Node9&#45;&gt;Node2</title>
<g id="a_edge14_Node000009_Node000002"><a xlink:title=" ">
<path fill="none" stroke="#63b8ff" d="M209.86,-167.6C212.71,-141.35 220.79,-66.84 224.69,-30.89"/>
<polygon fill="#63b8ff" stroke="#63b8ff" points="228.24,-31.62 225.84,-21.3 221.28,-30.86 228.24,-31.62"/>
</a>
</g>
</g>
<!-- Node9&#45;&gt;Node4 -->
<g id="edge16_Node000009_Node000004" class="edge">
<title>Node9&#45;&gt;Node4</title>
<g id="a_edge16_Node000009_Node000004"><a xlink:title=" ">
<path fill="none" stroke="#63b8ff" d="M182.02,-167.59C157.11,-158.86 119.79,-145.77 92.01,-136.03"/>
<polygon fill="#63b8ff" stroke="#63b8ff" points="93.47,-132.49 82.88,-132.48 91.16,-139.09 93.47,-132.49"/>
</a>
</g>
</g>
<!-- Node9&#45;&gt;Node5 -->
<g id="edge13_Node000009_Node000005" class="edge">
<title>Node9&#45;&gt;Node5</title>
<g id="a_edge13_Node000009_Node000005"><a xlink:title=" ">
<path fill="none" stroke="#63b8ff" d="M198.19,-167.62C176.97,-148.95 129.2,-106.92 102.61,-83.52"/>
<polygon fill="#63b8ff" stroke="#63b8ff" points="105.29,-80.33 95.47,-76.35 100.67,-85.59 105.29,-80.33"/>
</a>
</g>
</g>
<!-- Node9&#45;&gt;Node6 -->
<g id="edge15_Node000009_Node000006" class="edge">
<title>Node9&#45;&gt;Node6</title>
<g id="a_edge15_Node000009_Node000006"><a xlink:title=" ">
<path fill="none" stroke="#63b8ff" d="M221.21,-167.59C231.6,-159.7 246.66,-148.24 258.91,-138.92"/>
<polygon fill="#63b8ff" stroke="#63b8ff" points="260.78,-141.14 266.62,-132.3 256.54,-135.57 260.78,-141.14"/>
</a>
</g>
</g>
</g>
</svg>
</svg>

<style type='text/css'>
<![CDATA[
[data-mouse-over-selected='false'] { opacity: 0.7; }
[data-mouse-over-selected='true']  { opacity: 1.0; }
]]>
</style>
<script type="application/ecmascript"><![CDATA[
document.addEventListener('DOMContentLoaded', (event) => {
  highlightEdges();
  highlightAdjacentNodes();
});
]]></script>
</svg>
