<?xml version="1.0" encoding="UTF-8" standalone="no"?>
<!DOCTYPE svg PUBLIC "-//W3C//DTD SVG 1.1//EN"
 "http://www.w3.org/Graphics/SVG/1.1/DTD/svg11.dtd">
<!-- Generated by graphviz version 8.1.0 (20230707.0739)
 -->
<!-- Title: ExoCode/src/Joint.cpp Pages: 1 -->
<svg width="343pt" height="196pt"
 viewBox="0.00 0.00 342.88 196.00" xmlns="http://www.w3.org/2000/svg" xmlns:xlink="http://www.w3.org/1999/xlink">

<svg id="main" version="1.1" xmlns="http://www.w3.org/2000/svg" xmlns:xlink="http://www.w3.org/1999/xlink" xml:space="preserve" onload="init(evt)">
<style type="text/css"><![CDATA[
.node, .edge {opacity: 0.7;}
.node.selected, .edge.selected {opacity: 1;}
.edge:hover path { stroke: red; }
.edge:hover polygon { stroke: red; fill: red; }
]]></style>
<script type="application/ecmascript" xlink:href="svg.min.js"/>
<svg id="graph" class="graph">
<g id="graph0" class="graph" transform="scale(1 1) rotate(0) translate(4 192)">
<title>ExoCode/src/Joint.cpp</title>
<!-- Node1 -->
<g id="Node000001" class="node">
<title>Node1</title>
<g id="a_Node000001"><a xlink:title=" ">
<polygon fill="#999999" stroke="#666666" points="158.38,-188 44.12,-188 44.12,-168 158.38,-168 158.38,-188"/>
<text text-anchor="middle" x="101.25" y="-174.5" font-family="Helvetica,sans-Serif" font-size="10.00">ExoCode/src/Joint.cpp</text>
</a>
</g>
</g>
<!-- Node2 -->
<g id="Node000002" class="node">
<title>Node2</title>
<g id="a_Node000002"><a xlink:href="_joint_8h.html" target="_top" xlink:title="Declares a class for controlling and reading sensors for a joint.">
<polygon fill="white" stroke="#666666" points="44.5,-132 0,-132 0,-112 44.5,-112 44.5,-132"/>
<text text-anchor="middle" x="22.25" y="-118.5" font-family="Helvetica,sans-Serif" font-size="10.00">Joint.h</text>
</a>
</g>
</g>
<!-- Node1&#45;&gt;Node2 -->
<g id="edge1_Node000001_Node000002" class="edge">
<title>Node1&#45;&gt;Node2</title>
<g id="a_edge1_Node000001_Node000002"><a xlink:title=" ">
<path fill="none" stroke="#63b8ff" d="M87.49,-167.59C75.78,-159.59 58.73,-147.93 44.99,-138.54"/>
<polygon fill="#63b8ff" stroke="#63b8ff" points="47.35,-135.23 37.12,-132.48 43.4,-141.01 47.35,-135.23"/>
</a>
</g>
</g>
<!-- Node3 -->
<g id="Node000003" class="node">
<title>Node3</title>
<g id="a_Node000003"><a xlink:href="_time___helper_8h.html" target="_top" xlink:title=" ">
<polygon fill="white" stroke="#666666" points="140.38,-132 62.12,-132 62.12,-112 140.38,-112 140.38,-132"/>
<text text-anchor="middle" x="101.25" y="-118.5" font-family="Helvetica,sans-Serif" font-size="10.00">Time_Helper.h</text>
</a>
</g>
</g>
<!-- Node1&#45;&gt;Node3 -->
<g id="edge2_Node000001_Node000003" class="edge">
<title>Node1&#45;&gt;Node3</title>
<g id="a_edge2_Node000001_Node000003"><a xlink:title=" ">
<path fill="none" stroke="#63b8ff" d="M101.25,-167.59C101.25,-160.86 101.25,-151.53 101.25,-143.15"/>
<polygon fill="#63b8ff" stroke="#63b8ff" points="104.75,-143.3 101.25,-133.3 97.75,-143.3 104.75,-143.3"/>
</a>
</g>
</g>
<!-- Node5 -->
<g id="Node000005" class="node">
<title>Node5</title>
<g id="a_Node000005"><a xlink:href="_logger_8h.html" target="_top" xlink:title=" ">
<polygon fill="white" stroke="#666666" points="222,-132 168.5,-132 168.5,-112 222,-112 222,-132"/>
<text text-anchor="middle" x="195.25" y="-118.5" font-family="Helvetica,sans-Serif" font-size="10.00">Logger.h</text>
</a>
</g>
</g>
<!-- Node1&#45;&gt;Node5 -->
<g id="edge4_Node000001_Node000005" class="edge">
<title>Node1&#45;&gt;Node5</title>
<g id="a_edge4_Node000001_Node000005"><a xlink:title=" ">
<path fill="none" stroke="#63b8ff" d="M117.62,-167.59C131.96,-159.36 153.02,-147.26 169.6,-137.74"/>
<polygon fill="#63b8ff" stroke="#63b8ff" points="170.82,-140.5 177.75,-132.48 167.33,-134.43 170.82,-140.5"/>
</a>
</g>
</g>
<!-- Node4 -->
<g id="Node000004" class="node">
<title>Node4</title>
<g id="a_Node000004"><a xlink:title=" ">
<polygon fill="#e0e0e0" stroke="#999999" points="113,-76 71.5,-76 71.5,-56 113,-56 113,-76"/>
<text text-anchor="middle" x="92.25" y="-62.5" font-family="Helvetica,sans-Serif" font-size="10.00">vector</text>
</a>
</g>
</g>
<!-- Node3&#45;&gt;Node4 -->
<g id="edge3_Node000003_Node000004" class="edge">
<title>Node3&#45;&gt;Node4</title>
<g id="a_edge3_Node000003_Node000004"><a xlink:title=" ">
<path fill="none" stroke="#63b8ff" d="M99.68,-111.59C98.55,-104.78 96.97,-95.32 95.56,-86.86"/>
<polygon fill="#63b8ff" stroke="#63b8ff" points="98.9,-86.59 93.8,-77.3 91.99,-87.74 98.9,-86.59"/>
</a>
</g>
</g>
<!-- Node6 -->
<g id="Node000006" class="node">
<title>Node6</title>
<g id="a_Node000006"><a xlink:title=" ">
<polygon fill="#e0e0e0" stroke="#999999" points="183.88,-20 126.62,-20 126.62,0 183.88,0 183.88,-20"/>
<text text-anchor="middle" x="155.25" y="-6.5" font-family="Helvetica,sans-Serif" font-size="10.00">Arduino.h</text>
</a>
</g>
</g>
<!-- Node5&#45;&gt;Node6 -->
<g id="edge5_Node000005_Node000006" class="edge">
<title>Node5&#45;&gt;Node6</title>
<g id="a_edge5_Node000005_Node000006"><a xlink:title=" ">
<path fill="none" stroke="#63b8ff" d="M185.3,-111.7C177,-103.27 165.67,-90.03 160.25,-76 154.69,-61.61 153.63,-44.12 153.86,-30.91"/>
<polygon fill="#63b8ff" stroke="#63b8ff" points="157.39,-31.34 154.34,-21.19 150.39,-31.03 157.39,-31.34"/>
</a>
</g>
</g>
<!-- Node7 -->
<g id="Node000007" class="node">
<title>Node7</title>
<g id="a_Node000007"><a xlink:href="_log_levels_8h.html" target="_top" xlink:title=" ">
<polygon fill="white" stroke="#666666" points="275.75,-20 208.75,-20 208.75,0 275.75,0 275.75,-20"/>
<text text-anchor="middle" x="242.25" y="-6.5" font-family="Helvetica,sans-Serif" font-size="10.00">LogLevels.h</text>
</a>
</g>
</g>
<!-- Node5&#45;&gt;Node7 -->
<g id="edge6_Node000005_Node000007" class="edge">
<title>Node5&#45;&gt;Node7</title>
<g id="a_edge6_Node000005_Node000007"><a xlink:title=" ">
<path fill="none" stroke="#63b8ff" d="M204.84,-111.55C212.91,-103.02 224.09,-89.73 230.25,-76 236.65,-61.73 239.64,-44.23 241.03,-30.99"/>
<polygon fill="#63b8ff" stroke="#63b8ff" points="244.59,-31.49 241.92,-21.24 237.61,-30.92 244.59,-31.49"/>
</a>
</g>
</g>
<!-- Node8 -->
<g id="Node000008" class="node">
<title>Node8</title>
<g id="a_Node000008"><a xlink:href="_config_8h.html" target="_top" xlink:title=" ">
<polygon fill="white" stroke="#666666" points="220.88,-76 169.62,-76 169.62,-56 220.88,-56 220.88,-76"/>
<text text-anchor="middle" x="195.25" y="-62.5" font-family="Helvetica,sans-Serif" font-size="10.00">Config.h</text>
</a>
</g>
</g>
<!-- Node5&#45;&gt;Node8 -->
<g id="edge7_Node000005_Node000008" class="edge">
<title>Node5&#45;&gt;Node8</title>
<g id="a_edge7_Node000005_Node000008"><a xlink:title=" ">
<path fill="none" stroke="#63b8ff" d="M195.25,-111.59C195.25,-104.86 195.25,-95.53 195.25,-87.15"/>
<polygon fill="#63b8ff" stroke="#63b8ff" points="198.75,-87.3 195.25,-77.3 191.75,-87.3 198.75,-87.3"/>
</a>
</g>
</g>
<!-- Node9 -->
<g id="Node000009" class="node">
<title>Node9</title>
<g id="a_Node000009"><a xlink:title=" ">
<polygon fill="#e0e0e0" stroke="#999999" points="334.88,-76 277.62,-76 277.62,-56 334.88,-56 334.88,-76"/>
<text text-anchor="middle" x="306.25" y="-62.5" font-family="Helvetica,sans-Serif" font-size="10.00">functional</text>
</a>
</g>
</g>
<!-- Node5&#45;&gt;Node9 -->
<g id="edge10_Node000005_Node000009" class="edge">
<title>Node5&#45;&gt;Node9</title>
<g id="a_edge10_Node000005_Node000009"><a xlink:title=" ">
<path fill="none" stroke="#63b8ff" d="M214.58,-111.59C231.83,-103.21 257.32,-90.8 277.05,-81.21"/>
<polygon fill="#63b8ff" stroke="#63b8ff" points="278.3,-84 285.76,-76.48 275.24,-77.71 278.3,-84"/>
</a>
</g>
</g>
<!-- Node8&#45;&gt;Node6 -->
<g id="edge8_Node000008_Node000006" class="edge">
<title>Node8&#45;&gt;Node6</title>
<g id="a_edge8_Node000008_Node000006"><a xlink:title=" ">
<path fill="none" stroke="#63b8ff" d="M188.28,-55.59C182.83,-48.24 175.1,-37.8 168.48,-28.87"/>
<polygon fill="#63b8ff" stroke="#63b8ff" points="170.9,-27.25 162.14,-21.3 165.28,-31.42 170.9,-27.25"/>
</a>
</g>
</g>
<!-- Node8&#45;&gt;Node7 -->
<g id="edge9_Node000008_Node000007" class="edge">
<title>Node8&#45;&gt;Node7</title>
<g id="a_edge9_Node000008_Node000007"><a xlink:title=" ">
<path fill="none" stroke="#63b8ff" d="M203.44,-55.59C209.91,-48.16 219.12,-37.58 226.95,-28.58"/>
<polygon fill="#63b8ff" stroke="#63b8ff" points="230.23,-31.14 234.16,-21.3 224.95,-26.54 230.23,-31.14"/>
</a>
</g>
</g>
</g>
</svg>
</svg>

<style type='text/css'>
<![CDATA[
[data-mouse-over-selected='false'] { opacity: 0.7; }
[data-mouse-over-selected='true']  { opacity: 1.0; }
]]>
</style>
<script type="application/ecmascript"><![CDATA[
document.addEventListener('DOMContentLoaded', (event) => {
  highlightEdges();
  highlightAdjacentNodes();
});
]]></script>
</svg>
