<?xml version="1.0" encoding="UTF-8" standalone="no"?>
<!DOCTYPE svg PUBLIC "-//W3C//DTD SVG 1.1//EN"
 "http://www.w3.org/Graphics/SVG/1.1/DTD/svg11.dtd">
<!-- Generated by graphviz version 8.1.0 (20230707.0739)
 -->
<!-- Title: ExoCode/src/LegData.h Pages: 1 -->
<svg width="700pt" height="308pt"
 viewBox="0.00 0.00 699.75 308.00" xmlns="http://www.w3.org/2000/svg" xmlns:xlink="http://www.w3.org/1999/xlink">
<g id="graph0" class="graph" transform="scale(1 1) rotate(0) translate(4 304)">
<title>ExoCode/src/LegData.h</title>
<!-- Node1 -->
<g id="Node000001" class="node">
<title>Node1</title>
<g id="a_Node000001"><a xlink:title="Declares a class used to store data for leg to access.">
<polygon fill="#999999" stroke="#666666" points="493.25,-300 373.75,-300 373.75,-280 493.25,-280 493.25,-300"/>
<text text-anchor="middle" x="433.5" y="-286.5" font-family="Helvetica,sans-Serif" font-size="10.00">ExoCode/src/LegData.h</text>
</a>
</g>
</g>
<!-- Node2 -->
<g id="Node000002" class="node">
<title>Node2</title>
<g id="a_Node000002"><a xlink:title=" ">
<polygon fill="#e0e0e0" stroke="#999999" points="230.12,-20 172.88,-20 172.88,0 230.12,0 230.12,-20"/>
<text text-anchor="middle" x="201.5" y="-6.5" font-family="Helvetica,sans-Serif" font-size="10.00">Arduino.h</text>
</a>
</g>
</g>
<!-- Node1&#45;&gt;Node2 -->
<g id="edge1_Node000001_Node000002" class="edge">
<title>Node1&#45;&gt;Node2</title>
<g id="a_edge1_Node000001_Node000002"><a xlink:title=" ">
<path fill="none" stroke="#63b8ff" d="M373.63,-282.43C274.6,-269.88 87.5,-238.33 87.5,-179 87.5,-179 87.5,-179 87.5,-121 87.5,-75.19 135.76,-42.43 169.48,-25.12"/>
<polygon fill="#63b8ff" stroke="#63b8ff" points="170.55,-28.01 177.98,-20.45 167.46,-21.72 170.55,-28.01"/>
</a>
</g>
</g>
<!-- Node3 -->
<g id="Node000003" class="node">
<title>Node3</title>
<g id="a_Node000003"><a xlink:href="_joint_data_8h.html" target="_top" xlink:title="Declares a class used to store data for joint to access.">
<polygon fill="white" stroke="#666666" points="392.88,-244 328.12,-244 328.12,-224 392.88,-224 392.88,-244"/>
<text text-anchor="middle" x="360.5" y="-230.5" font-family="Helvetica,sans-Serif" font-size="10.00">JointData.h</text>
</a>
</g>
</g>
<!-- Node1&#45;&gt;Node3 -->
<g id="edge2_Node000001_Node000003" class="edge">
<title>Node1&#45;&gt;Node3</title>
<g id="a_edge2_Node000001_Node000003"><a xlink:title=" ">
<path fill="none" stroke="#63b8ff" d="M420.78,-279.59C410,-271.62 394.32,-260.02 381.65,-250.64"/>
<polygon fill="#63b8ff" stroke="#63b8ff" points="384.19,-247.43 374.07,-244.3 380.03,-253.06 384.19,-247.43"/>
</a>
</g>
</g>
<!-- Node5 -->
<g id="Node000005" class="node">
<title>Node5</title>
<g id="a_Node000005"><a xlink:href="_parse_ini_8h.html" target="_top" xlink:title="Declares the functions needed and defines mapping between the INI keys and the exo components.">
<polygon fill="white" stroke="#666666" points="456.25,-132 396.75,-132 396.75,-112 456.25,-112 456.25,-132"/>
<text text-anchor="middle" x="426.5" y="-118.5" font-family="Helvetica,sans-Serif" font-size="10.00">ParseIni.h</text>
</a>
</g>
</g>
<!-- Node1&#45;&gt;Node5 -->
<g id="edge22_Node000001_Node000005" class="edge">
<title>Node1&#45;&gt;Node5</title>
<g id="a_edge22_Node000001_Node000005"><a xlink:title=" ">
<path fill="none" stroke="#63b8ff" d="M433.47,-279.58C433.36,-259.21 432.86,-209.54 430.5,-168 430.04,-159.88 429.3,-150.96 428.57,-143.21"/>
<polygon fill="#63b8ff" stroke="#63b8ff" points="431.96,-142.91 427.5,-133.3 425,-143.59 431.96,-142.91"/>
</a>
</g>
</g>
<!-- Node6 -->
<g id="Node000006" class="node">
<title>Node6</title>
<g id="a_Node000006"><a xlink:title=" ">
<polygon fill="#e0e0e0" stroke="#999999" points="450.62,-76 402.38,-76 402.38,-56 450.62,-56 450.62,-76"/>
<text text-anchor="middle" x="426.5" y="-62.5" font-family="Helvetica,sans-Serif" font-size="10.00">stdint.h</text>
</a>
</g>
</g>
<!-- Node1&#45;&gt;Node6 -->
<g id="edge28_Node000001_Node000006" class="edge">
<title>Node1&#45;&gt;Node6</title>
<g id="a_edge28_Node000001_Node000006"><a xlink:title=" ">
<path fill="none" stroke="#63b8ff" d="M440.37,-279.76C459.49,-252.82 510.13,-172.42 481.5,-112 475.7,-99.76 464.75,-89.73 454.14,-82.28"/>
<polygon fill="#63b8ff" stroke="#63b8ff" points="456.34,-78.89 446.04,-76.41 452.54,-84.77 456.34,-78.89"/>
</a>
</g>
</g>
<!-- Node7 -->
<g id="Node000007" class="node">
<title>Node7</title>
<g id="a_Node000007"><a xlink:href="_board_8h.html" target="_top" xlink:title=" ">
<polygon fill="white" stroke="#666666" points="226.38,-132 176.62,-132 176.62,-112 226.38,-112 226.38,-132"/>
<text text-anchor="middle" x="201.5" y="-118.5" font-family="Helvetica,sans-Serif" font-size="10.00">Board.h</text>
</a>
</g>
</g>
<!-- Node1&#45;&gt;Node7 -->
<g id="edge23_Node000001_Node000007" class="edge">
<title>Node1&#45;&gt;Node7</title>
<g id="a_edge23_Node000001_Node000007"><a xlink:title=" ">
<path fill="none" stroke="#63b8ff" d="M373.45,-280.53C319.43,-269.41 242.95,-244.2 205.5,-188 196.77,-174.9 196.35,-156.83 197.79,-143.06"/>
<polygon fill="#63b8ff" stroke="#63b8ff" points="201.38,-143.71 199.36,-133.31 194.45,-142.69 201.38,-143.71"/>
</a>
</g>
</g>
<!-- Node11 -->
<g id="Node000011" class="node">
<title>Node11</title>
<g id="a_Node000011"><a xlink:href="_inclination_detector_8h.html" target="_top" xlink:title=" ">
<polygon fill="white" stroke="#666666" points="691.75,-244 587.25,-244 587.25,-224 691.75,-224 691.75,-244"/>
<text text-anchor="middle" x="639.5" y="-230.5" font-family="Helvetica,sans-Serif" font-size="10.00">InclinationDetector.h</text>
</a>
</g>
</g>
<!-- Node1&#45;&gt;Node11 -->
<g id="edge24_Node000001_Node000011" class="edge">
<title>Node1&#45;&gt;Node11</title>
<g id="a_edge24_Node000001_Node000011"><a xlink:title=" ">
<path fill="none" stroke="#63b8ff" d="M469.38,-279.59C503.59,-270.63 555.28,-257.08 592.7,-247.27"/>
<polygon fill="#63b8ff" stroke="#63b8ff" points="593.55,-250.4 602.34,-244.48 591.78,-243.63 593.55,-250.4"/>
</a>
</g>
</g>
<!-- Node3&#45;&gt;Node2 -->
<g id="edge3_Node000003_Node000002" class="edge">
<title>Node3&#45;&gt;Node2</title>
<g id="a_edge3_Node000003_Node000002"><a xlink:title=" ">
<path fill="none" stroke="#63b8ff" d="M327.69,-230.01C294.21,-225.55 242.1,-214.61 205.5,-188 174.95,-165.79 161.4,-149.27 167.5,-112 172.3,-82.71 184.43,-50.47 192.83,-30.48"/>
<polygon fill="#63b8ff" stroke="#63b8ff" points="196.39,-32.05 197.14,-21.48 189.96,-29.28 196.39,-32.05"/>
</a>
</g>
</g>
<!-- Node4 -->
<g id="Node000004" class="node">
<title>Node4</title>
<g id="a_Node000004"><a xlink:href="_motor_data_8h.html" target="_top" xlink:title="Declares a class used to store data for motors to access.">
<polygon fill="white" stroke="#666666" points="299.12,-188 229.88,-188 229.88,-168 299.12,-168 299.12,-188"/>
<text text-anchor="middle" x="264.5" y="-174.5" font-family="Helvetica,sans-Serif" font-size="10.00">MotorData.h</text>
</a>
</g>
</g>
<!-- Node3&#45;&gt;Node4 -->
<g id="edge4_Node000003_Node000004" class="edge">
<title>Node3&#45;&gt;Node4</title>
<g id="a_edge4_Node000003_Node000004"><a xlink:title=" ">
<path fill="none" stroke="#63b8ff" d="M343.78,-223.59C329.14,-215.36 307.62,-203.26 290.7,-193.74"/>
<polygon fill="#63b8ff" stroke="#63b8ff" points="292.78,-190.33 282.35,-188.48 289.35,-196.43 292.78,-190.33"/>
</a>
</g>
</g>
<!-- Node3&#45;&gt;Node5 -->
<g id="edge19_Node000003_Node000005" class="edge">
<title>Node3&#45;&gt;Node5</title>
<g id="a_edge19_Node000003_Node000005"><a xlink:title=" ">
<path fill="none" stroke="#63b8ff" d="M376.13,-223.52C387.95,-215.52 403.62,-203 412.5,-188 420.61,-174.31 424.04,-156.53 425.49,-143.02"/>
<polygon fill="#63b8ff" stroke="#63b8ff" points="429.05,-143.3 426.33,-133.06 422.07,-142.76 429.05,-143.3"/>
</a>
</g>
</g>
<!-- Node3&#45;&gt;Node6 -->
<g id="edge21_Node000003_Node000006" class="edge">
<title>Node3&#45;&gt;Node6</title>
<g id="a_edge21_Node000003_Node000006"><a xlink:title=" ">
<path fill="none" stroke="#63b8ff" d="M379.96,-223.53C395,-215.54 415.68,-203.01 430.5,-188 451.12,-167.11 457.41,-160.21 465.5,-132 467.95,-123.46 468.61,-120.33 465.5,-112 461.52,-101.33 453.74,-91.51 446.18,-83.79"/>
<polygon fill="#63b8ff" stroke="#63b8ff" points="448.91,-81.61 439.23,-77.28 444.1,-86.69 448.91,-81.61"/>
</a>
</g>
</g>
<!-- Node3&#45;&gt;Node7 -->
<g id="edge20_Node000003_Node000007" class="edge">
<title>Node3&#45;&gt;Node7</title>
<g id="a_edge20_Node000003_Node000007"><a xlink:title=" ">
<path fill="none" stroke="#63b8ff" d="M327.63,-231.04C295.97,-227.4 248.82,-217.08 220.5,-188 208.84,-176.02 204.27,-157.3 202.51,-143.02"/>
<polygon fill="#63b8ff" stroke="#63b8ff" points="205.94,-142.98 201.6,-133.31 198.96,-143.57 205.94,-142.98"/>
</a>
</g>
</g>
<!-- Node10 -->
<g id="Node000010" class="node">
<title>Node10</title>
<g id="a_Node000010"><a xlink:href="_controller_data_8h.html" target="_top" xlink:title="Declares a class used to store data for controllers to access.">
<polygon fill="white" stroke="#666666" points="403.38,-188 317.62,-188 317.62,-168 403.38,-168 403.38,-188"/>
<text text-anchor="middle" x="360.5" y="-174.5" font-family="Helvetica,sans-Serif" font-size="10.00">ControllerData.h</text>
</a>
</g>
</g>
<!-- Node3&#45;&gt;Node10 -->
<g id="edge14_Node000003_Node000010" class="edge">
<title>Node3&#45;&gt;Node10</title>
<g id="a_edge14_Node000003_Node000010"><a xlink:title=" ">
<path fill="none" stroke="#63b8ff" d="M360.5,-223.59C360.5,-216.86 360.5,-207.53 360.5,-199.15"/>
<polygon fill="#63b8ff" stroke="#63b8ff" points="364,-199.3 360.5,-189.3 357,-199.3 364,-199.3"/>
</a>
</g>
</g>
<!-- Node4&#45;&gt;Node2 -->
<g id="edge5_Node000004_Node000002" class="edge">
<title>Node4&#45;&gt;Node2</title>
<g id="a_edge5_Node000004_Node000002"><a xlink:title=" ">
<path fill="none" stroke="#63b8ff" d="M260.93,-167.6C250.93,-141.23 222.44,-66.19 208.87,-30.42"/>
<polygon fill="#63b8ff" stroke="#63b8ff" points="211.85,-29.4 205.03,-21.3 205.3,-31.89 211.85,-29.4"/>
</a>
</g>
</g>
<!-- Node4&#45;&gt;Node5 -->
<g id="edge6_Node000004_Node000005" class="edge">
<title>Node4&#45;&gt;Node5</title>
<g id="a_edge6_Node000004_Node000005"><a xlink:title=" ">
<path fill="none" stroke="#63b8ff" d="M292.72,-167.59C319.04,-158.82 358.53,-145.66 387.79,-135.9"/>
<polygon fill="#63b8ff" stroke="#63b8ff" points="388.68,-138.96 397.06,-132.48 386.47,-132.32 388.68,-138.96"/>
</a>
</g>
</g>
<!-- Node4&#45;&gt;Node6 -->
<g id="edge13_Node000004_Node000006" class="edge">
<title>Node4&#45;&gt;Node6</title>
<g id="a_edge13_Node000004_Node000006"><a xlink:title=" ">
<path fill="none" stroke="#63b8ff" d="M278.31,-167.62C306.29,-148.63 369.88,-105.45 403.95,-82.31"/>
<polygon fill="#63b8ff" stroke="#63b8ff" points="405.42,-84.87 411.72,-76.35 401.48,-79.08 405.42,-84.87"/>
</a>
</g>
</g>
<!-- Node4&#45;&gt;Node7 -->
<g id="edge8_Node000004_Node000007" class="edge">
<title>Node4&#45;&gt;Node7</title>
<g id="a_edge8_Node000004_Node000007"><a xlink:title=" ">
<path fill="none" stroke="#63b8ff" d="M253.53,-167.59C244.4,-159.77 231.21,-148.46 220.39,-139.19"/>
<polygon fill="#63b8ff" stroke="#63b8ff" points="223.22,-136.15 213.35,-132.3 218.66,-141.46 223.22,-136.15"/>
</a>
</g>
</g>
<!-- Node5&#45;&gt;Node6 -->
<g id="edge7_Node000005_Node000006" class="edge">
<title>Node5&#45;&gt;Node6</title>
<g id="a_edge7_Node000005_Node000006"><a xlink:title=" ">
<path fill="none" stroke="#63b8ff" d="M426.5,-111.59C426.5,-104.86 426.5,-95.53 426.5,-87.15"/>
<polygon fill="#63b8ff" stroke="#63b8ff" points="430,-87.3 426.5,-77.3 423,-87.3 430,-87.3"/>
</a>
</g>
</g>
<!-- Node7&#45;&gt;Node2 -->
<g id="edge12_Node000007_Node000002" class="edge">
<title>Node7&#45;&gt;Node2</title>
<g id="a_edge12_Node000007_Node000002"><a xlink:title=" ">
<path fill="none" stroke="#63b8ff" d="M201.5,-111.62C201.5,-93.92 201.5,-55.24 201.5,-31.32"/>
<polygon fill="#63b8ff" stroke="#63b8ff" points="205,-31.35 201.5,-21.35 198,-31.35 205,-31.35"/>
</a>
</g>
</g>
<!-- Node8 -->
<g id="Node000008" class="node">
<title>Node8</title>
<g id="a_Node000008"><a xlink:href="_config_8h.html" target="_top" xlink:title=" ">
<polygon fill="white" stroke="#666666" points="59.12,-76 7.88,-76 7.88,-56 59.12,-56 59.12,-76"/>
<text text-anchor="middle" x="33.5" y="-62.5" font-family="Helvetica,sans-Serif" font-size="10.00">Config.h</text>
</a>
</g>
</g>
<!-- Node7&#45;&gt;Node8 -->
<g id="edge9_Node000007_Node000008" class="edge">
<title>Node7&#45;&gt;Node8</title>
<g id="a_edge9_Node000007_Node000008"><a xlink:title=" ">
<path fill="none" stroke="#63b8ff" d="M176.35,-112.92C148.06,-103.82 101.87,-88.98 69.7,-78.64"/>
<polygon fill="#63b8ff" stroke="#63b8ff" points="70.97,-75.05 60.38,-75.32 68.83,-81.71 70.97,-75.05"/>
</a>
</g>
</g>
<!-- Node8&#45;&gt;Node2 -->
<g id="edge10_Node000008_Node000002" class="edge">
<title>Node8&#45;&gt;Node2</title>
<g id="a_edge10_Node000008_Node000002"><a xlink:title=" ">
<path fill="none" stroke="#63b8ff" d="M59.38,-56.68C86.84,-47.86 130.54,-33.81 162.24,-23.62"/>
<polygon fill="#63b8ff" stroke="#63b8ff" points="163.04,-26.72 171.49,-20.33 160.89,-20.05 163.04,-26.72"/>
</a>
</g>
</g>
<!-- Node9 -->
<g id="Node000009" class="node">
<title>Node9</title>
<g id="a_Node000009"><a xlink:href="_log_levels_8h.html" target="_top" xlink:title=" ">
<polygon fill="white" stroke="#666666" points="67,-20 0,-20 0,0 67,0 67,-20"/>
<text text-anchor="middle" x="33.5" y="-6.5" font-family="Helvetica,sans-Serif" font-size="10.00">LogLevels.h</text>
</a>
</g>
</g>
<!-- Node8&#45;&gt;Node9 -->
<g id="edge11_Node000008_Node000009" class="edge">
<title>Node8&#45;&gt;Node9</title>
<g id="a_edge11_Node000008_Node000009"><a xlink:title=" ">
<path fill="none" stroke="#63b8ff" d="M33.5,-55.59C33.5,-48.86 33.5,-39.53 33.5,-31.15"/>
<polygon fill="#63b8ff" stroke="#63b8ff" points="37,-31.3 33.5,-21.3 30,-31.3 37,-31.3"/>
</a>
</g>
</g>
<!-- Node10&#45;&gt;Node2 -->
<g id="edge16_Node000010_Node000002" class="edge">
<title>Node10&#45;&gt;Node2</title>
<g id="a_edge16_Node000010_Node000002"><a xlink:title=" ">
<path fill="none" stroke="#63b8ff" d="M351.5,-167.6C325.7,-140.66 251.23,-62.92 217.93,-28.15"/>
<polygon fill="#63b8ff" stroke="#63b8ff" points="220.85,-26.1 211.41,-21.3 215.79,-30.94 220.85,-26.1"/>
</a>
</g>
</g>
<!-- Node10&#45;&gt;Node5 -->
<g id="edge18_Node000010_Node000005" class="edge">
<title>Node10&#45;&gt;Node5</title>
<g id="a_edge18_Node000010_Node000005"><a xlink:title=" ">
<path fill="none" stroke="#63b8ff" d="M372,-167.59C381.55,-159.77 395.38,-148.46 406.71,-139.19"/>
<polygon fill="#63b8ff" stroke="#63b8ff" points="408.61,-141.34 414.14,-132.3 404.18,-135.92 408.61,-141.34"/>
</a>
</g>
</g>
<!-- Node10&#45;&gt;Node6 -->
<g id="edge15_Node000010_Node000006" class="edge">
<title>Node10&#45;&gt;Node6</title>
<g id="a_edge15_Node000010_Node000006"><a xlink:title=" ">
<path fill="none" stroke="#63b8ff" d="M363.31,-167.73C367.47,-154.7 376.06,-130.5 387.5,-112 393.65,-102.06 401.98,-92.12 409.36,-84.12"/>
<polygon fill="#63b8ff" stroke="#63b8ff" points="411.46,-86.93 415.85,-77.29 406.41,-82.1 411.46,-86.93"/>
</a>
</g>
</g>
<!-- Node10&#45;&gt;Node7 -->
<g id="edge17_Node000010_Node000007" class="edge">
<title>Node10&#45;&gt;Node7</title>
<g id="a_edge17_Node000010_Node000007"><a xlink:title=" ">
<path fill="none" stroke="#63b8ff" d="M332.8,-167.59C306.18,-158.55 265.82,-144.85 236.88,-135.02"/>
<polygon fill="#63b8ff" stroke="#63b8ff" points="238.38,-131.49 227.78,-131.59 236.13,-138.12 238.38,-131.49"/>
</a>
</g>
</g>
<!-- Node11&#45;&gt;Node2 -->
<g id="edge25_Node000011_Node000002" class="edge">
<title>Node11&#45;&gt;Node2</title>
<g id="a_edge25_Node000011_Node000002"><a xlink:title=" ">
<path fill="none" stroke="#63b8ff" d="M653.42,-223.65C670.27,-211.13 694.93,-188.15 682.5,-168 624.28,-73.6 564.81,-90.79 459.5,-56 384.49,-31.22 292.45,-19.35 241.05,-14.28"/>
<polygon fill="#63b8ff" stroke="#63b8ff" points="241.7,-10.73 231.42,-13.27 241.04,-17.7 241.7,-10.73"/>
</a>
</g>
</g>
<!-- Node12 -->
<g id="Node000012" class="node">
<title>Node12</title>
<g id="a_Node000012"><a xlink:title=" ">
<polygon fill="#e0e0e0" stroke="#999999" points="615.62,-188 573.38,-188 573.38,-168 615.62,-168 615.62,-188"/>
<text text-anchor="middle" x="594.5" y="-174.5" font-family="Helvetica,sans-Serif" font-size="10.00">queue</text>
</a>
</g>
</g>
<!-- Node11&#45;&gt;Node12 -->
<g id="edge26_Node000011_Node000012" class="edge">
<title>Node11&#45;&gt;Node12</title>
<g id="a_edge26_Node000011_Node000012"><a xlink:title=" ">
<path fill="none" stroke="#63b8ff" d="M631.66,-223.59C625.47,-216.16 616.65,-205.58 609.15,-196.58"/>
<polygon fill="#63b8ff" stroke="#63b8ff" points="611.34,-194.74 602.25,-189.3 605.96,-199.22 611.34,-194.74"/>
</a>
</g>
</g>
<!-- Node13 -->
<g id="Node000013" class="node">
<title>Node13</title>
<g id="a_Node000013"><a xlink:title=" ">
<polygon fill="#e0e0e0" stroke="#999999" points="673.12,-188 633.88,-188 633.88,-168 673.12,-168 673.12,-188"/>
<text text-anchor="middle" x="653.5" y="-174.5" font-family="Helvetica,sans-Serif" font-size="10.00">utility</text>
</a>
</g>
</g>
<!-- Node11&#45;&gt;Node13 -->
<g id="edge27_Node000011_Node000013" class="edge">
<title>Node11&#45;&gt;Node13</title>
<g id="a_edge27_Node000011_Node000013"><a xlink:title=" ">
<path fill="none" stroke="#63b8ff" d="M641.94,-223.59C643.71,-216.78 646.16,-207.32 648.35,-198.86"/>
<polygon fill="#63b8ff" stroke="#63b8ff" points="651.97,-199.86 651.09,-189.3 645.19,-198.1 651.97,-199.86"/>
</a>
</g>
</g>
</g>
</svg>
