<?xml version="1.0" encoding="UTF-8" standalone="no"?>
<!DOCTYPE svg PUBLIC "-//W3C//DTD SVG 1.1//EN"
 "http://www.w3.org/Graphics/SVG/1.1/DTD/svg11.dtd">
<!-- Generated by graphviz version 8.1.0 (20230707.0739)
 -->
<!-- Title: ExoCode/src/LegData.cpp Pages: 1 -->
<svg width="765pt" height="364pt"
 viewBox="0.00 0.00 764.62 364.00" xmlns="http://www.w3.org/2000/svg" xmlns:xlink="http://www.w3.org/1999/xlink">
<g id="graph0" class="graph" transform="scale(1 1) rotate(0) translate(4 360)">
<title>ExoCode/src/LegData.cpp</title>
<!-- Node1 -->
<g id="Node000001" class="node">
<title>Node1</title>
<g id="a_Node000001"><a xlink:title=" ">
<polygon fill="#999999" stroke="#666666" points="550,-356 420,-356 420,-336 550,-336 550,-356"/>
<text text-anchor="middle" x="485" y="-342.5" font-family="Helvetica,sans-Serif" font-size="10.00">ExoCode/src/LegData.cpp</text>
</a>
</g>
</g>
<!-- Node2 -->
<g id="Node000002" class="node">
<title>Node2</title>
<g id="a_Node000002"><a xlink:href="_leg_data_8h.html" target="_top" xlink:title="Declares a class used to store data for leg to access.">
<polygon fill="white" stroke="#666666" points="301.12,-300 240.88,-300 240.88,-280 301.12,-280 301.12,-300"/>
<text text-anchor="middle" x="271" y="-286.5" font-family="Helvetica,sans-Serif" font-size="10.00">LegData.h</text>
</a>
</g>
</g>
<!-- Node1&#45;&gt;Node2 -->
<g id="edge1_Node000001_Node000002" class="edge">
<title>Node1&#45;&gt;Node2</title>
<g id="a_edge1_Node000001_Node000002"><a xlink:title=" ">
<path fill="none" stroke="#63b8ff" d="M447.72,-335.59C409.85,-326.04 351.34,-311.27 312.13,-301.38"/>
<polygon fill="#63b8ff" stroke="#63b8ff" points="313.17,-297.78 302.62,-298.73 311.46,-304.57 313.17,-297.78"/>
</a>
</g>
</g>
<!-- Node15 -->
<g id="Node000015" class="node">
<title>Node15</title>
<g id="a_Node000015"><a xlink:href="_logger_8h.html" target="_top" xlink:title=" ">
<polygon fill="white" stroke="#666666" points="678.75,-132 625.25,-132 625.25,-112 678.75,-112 678.75,-132"/>
<text text-anchor="middle" x="652" y="-118.5" font-family="Helvetica,sans-Serif" font-size="10.00">Logger.h</text>
</a>
</g>
</g>
<!-- Node1&#45;&gt;Node15 -->
<g id="edge30_Node000001_Node000015" class="edge">
<title>Node1&#45;&gt;Node15</title>
<g id="a_edge30_Node000001_Node000015"><a xlink:title=" ">
<path fill="none" stroke="#63b8ff" d="M502.63,-335.68C530.16,-320.24 583.28,-286.77 613,-244 634.76,-212.69 644.91,-168.55 649.21,-143.14"/>
<polygon fill="#63b8ff" stroke="#63b8ff" points="652.82,-143.73 650.88,-133.31 645.9,-142.66 652.82,-143.73"/>
</a>
</g>
</g>
<!-- Node3 -->
<g id="Node000003" class="node">
<title>Node3</title>
<g id="a_Node000003"><a xlink:title=" ">
<polygon fill="#e0e0e0" stroke="#999999" points="445.62,-20 388.38,-20 388.38,0 445.62,0 445.62,-20"/>
<text text-anchor="middle" x="417" y="-6.5" font-family="Helvetica,sans-Serif" font-size="10.00">Arduino.h</text>
</a>
</g>
</g>
<!-- Node2&#45;&gt;Node3 -->
<g id="edge2_Node000002_Node000003" class="edge">
<title>Node2&#45;&gt;Node3</title>
<g id="a_edge2_Node000002_Node000003"><a xlink:title=" ">
<path fill="none" stroke="#63b8ff" d="M240.44,-283.33C169.57,-269.32 0,-230.41 0,-179 0,-179 0,-179 0,-121 0,-43.43 273.17,-19.37 377.32,-13.01"/>
<polygon fill="#63b8ff" stroke="#63b8ff" points="377.23,-16.46 387.01,-12.39 376.82,-9.48 377.23,-16.46"/>
</a>
</g>
</g>
<!-- Node4 -->
<g id="Node000004" class="node">
<title>Node4</title>
<g id="a_Node000004"><a xlink:href="_joint_data_8h.html" target="_top" xlink:title="Declares a class used to store data for joint to access.">
<polygon fill="white" stroke="#666666" points="303.38,-244 238.62,-244 238.62,-224 303.38,-224 303.38,-244"/>
<text text-anchor="middle" x="271" y="-230.5" font-family="Helvetica,sans-Serif" font-size="10.00">JointData.h</text>
</a>
</g>
</g>
<!-- Node2&#45;&gt;Node4 -->
<g id="edge3_Node000002_Node000004" class="edge">
<title>Node2&#45;&gt;Node4</title>
<g id="a_edge3_Node000002_Node000004"><a xlink:title=" ">
<path fill="none" stroke="#63b8ff" d="M271,-279.59C271,-272.86 271,-263.53 271,-255.15"/>
<polygon fill="#63b8ff" stroke="#63b8ff" points="274.5,-255.3 271,-245.3 267.5,-255.3 274.5,-255.3"/>
</a>
</g>
</g>
<!-- Node6 -->
<g id="Node000006" class="node">
<title>Node6</title>
<g id="a_Node000006"><a xlink:href="_parse_ini_8h.html" target="_top" xlink:title="Declares the functions needed and defines mapping between the INI keys and the exo components.">
<polygon fill="white" stroke="#666666" points="190.75,-132 131.25,-132 131.25,-112 190.75,-112 190.75,-132"/>
<text text-anchor="middle" x="161" y="-118.5" font-family="Helvetica,sans-Serif" font-size="10.00">ParseIni.h</text>
</a>
</g>
</g>
<!-- Node2&#45;&gt;Node6 -->
<g id="edge23_Node000002_Node000006" class="edge">
<title>Node2&#45;&gt;Node6</title>
<g id="a_edge23_Node000002_Node000006"><a xlink:title=" ">
<path fill="none" stroke="#63b8ff" d="M253.62,-279.73C227.34,-264.58 178.47,-231.78 159,-188 152.68,-173.8 153.74,-156.07 156.06,-142.72"/>
<polygon fill="#63b8ff" stroke="#63b8ff" points="159.62,-143.82 158.28,-133.31 152.78,-142.36 159.62,-143.82"/>
</a>
</g>
</g>
<!-- Node7 -->
<g id="Node000007" class="node">
<title>Node7</title>
<g id="a_Node000007"><a xlink:title=" ">
<polygon fill="#e0e0e0" stroke="#999999" points="185.12,-76 136.88,-76 136.88,-56 185.12,-56 185.12,-76"/>
<text text-anchor="middle" x="161" y="-62.5" font-family="Helvetica,sans-Serif" font-size="10.00">stdint.h</text>
</a>
</g>
</g>
<!-- Node2&#45;&gt;Node7 -->
<g id="edge29_Node000002_Node000007" class="edge">
<title>Node2&#45;&gt;Node7</title>
<g id="a_edge29_Node000002_Node000007"><a xlink:title=" ">
<path fill="none" stroke="#63b8ff" d="M241.72,-279.56C222.45,-272.22 197.63,-260.5 180,-244 137.97,-204.68 129.96,-187.58 115,-132 112.69,-123.42 111.55,-120.19 115,-112 119.74,-100.72 128.85,-90.86 137.71,-83.27"/>
<polygon fill="#63b8ff" stroke="#63b8ff" points="139.65,-85.4 145.32,-76.46 135.31,-79.91 139.65,-85.4"/>
</a>
</g>
</g>
<!-- Node8 -->
<g id="Node000008" class="node">
<title>Node8</title>
<g id="a_Node000008"><a xlink:href="_board_8h.html" target="_top" xlink:title=" ">
<polygon fill="white" stroke="#666666" points="410.88,-132 361.12,-132 361.12,-112 410.88,-112 410.88,-132"/>
<text text-anchor="middle" x="386" y="-118.5" font-family="Helvetica,sans-Serif" font-size="10.00">Board.h</text>
</a>
</g>
</g>
<!-- Node2&#45;&gt;Node8 -->
<g id="edge24_Node000002_Node000008" class="edge">
<title>Node2&#45;&gt;Node8</title>
<g id="a_edge24_Node000002_Node000008"><a xlink:title=" ">
<path fill="none" stroke="#63b8ff" d="M288.13,-279.61C314.09,-264.32 362.52,-231.32 383,-188 389.58,-174.08 390,-156.56 388.96,-143.22"/>
<polygon fill="#63b8ff" stroke="#63b8ff" points="392.33,-142.9 387.73,-133.36 385.38,-143.69 392.33,-142.9"/>
</a>
</g>
</g>
<!-- Node12 -->
<g id="Node000012" class="node">
<title>Node12</title>
<g id="a_Node000012"><a xlink:href="_inclination_detector_8h.html" target="_top" xlink:title=" ">
<polygon fill="white" stroke="#666666" points="604.25,-244 499.75,-244 499.75,-224 604.25,-224 604.25,-244"/>
<text text-anchor="middle" x="552" y="-230.5" font-family="Helvetica,sans-Serif" font-size="10.00">InclinationDetector.h</text>
</a>
</g>
</g>
<!-- Node2&#45;&gt;Node12 -->
<g id="edge25_Node000002_Node000012" class="edge">
<title>Node2&#45;&gt;Node12</title>
<g id="a_edge25_Node000002_Node000012"><a xlink:title=" ">
<path fill="none" stroke="#63b8ff" d="M301.61,-283.12C347.14,-274.37 433.6,-257.75 492.02,-246.53"/>
<polygon fill="#63b8ff" stroke="#63b8ff" points="492.43,-249.82 501.59,-244.5 491.11,-242.95 492.43,-249.82"/>
</a>
</g>
</g>
<!-- Node4&#45;&gt;Node3 -->
<g id="edge4_Node000004_Node000003" class="edge">
<title>Node4&#45;&gt;Node3</title>
<g id="a_edge4_Node000004_Node000003"><a xlink:title=" ">
<path fill="none" stroke="#63b8ff" d="M303.63,-225.51C327.56,-218.77 359.78,-206.95 383,-188 406.11,-169.14 411.41,-160.57 420,-132 430.3,-97.74 425.57,-55.54 421.25,-31.11"/>
<polygon fill="#63b8ff" stroke="#63b8ff" points="424.51,-30.52 419.17,-21.37 417.64,-31.85 424.51,-30.52"/>
</a>
</g>
</g>
<!-- Node5 -->
<g id="Node000005" class="node">
<title>Node5</title>
<g id="a_Node000005"><a xlink:href="_motor_data_8h.html" target="_top" xlink:title="Declares a class used to store data for motors to access.">
<polygon fill="white" stroke="#666666" points="353.62,-188 284.38,-188 284.38,-168 353.62,-168 353.62,-188"/>
<text text-anchor="middle" x="319" y="-174.5" font-family="Helvetica,sans-Serif" font-size="10.00">MotorData.h</text>
</a>
</g>
</g>
<!-- Node4&#45;&gt;Node5 -->
<g id="edge5_Node000004_Node000005" class="edge">
<title>Node4&#45;&gt;Node5</title>
<g id="a_edge5_Node000004_Node000005"><a xlink:title=" ">
<path fill="none" stroke="#63b8ff" d="M279.36,-223.59C286.04,-216.08 295.57,-205.35 303.62,-196.3"/>
<polygon fill="#63b8ff" stroke="#63b8ff" points="305.71,-199.1 309.73,-189.3 300.48,-194.45 305.71,-199.1"/>
</a>
</g>
</g>
<!-- Node4&#45;&gt;Node6 -->
<g id="edge20_Node000004_Node000006" class="edge">
<title>Node4&#45;&gt;Node6</title>
<g id="a_edge20_Node000004_Node000006"><a xlink:title=" ">
<path fill="none" stroke="#63b8ff" d="M238.43,-226.85C215.94,-220.85 187.25,-209.36 171,-188 161.38,-175.35 159.26,-157.23 159.34,-143.34"/>
<polygon fill="#63b8ff" stroke="#63b8ff" points="162.87,-143.61 159.83,-133.46 155.88,-143.29 162.87,-143.61"/>
</a>
</g>
</g>
<!-- Node4&#45;&gt;Node7 -->
<g id="edge22_Node000004_Node000007" class="edge">
<title>Node4&#45;&gt;Node7</title>
<g id="a_edge22_Node000004_Node000007"><a xlink:title=" ">
<path fill="none" stroke="#63b8ff" d="M238.37,-225.51C214.44,-218.77 182.22,-206.95 159,-188 129.89,-164.25 108.87,-147.2 122,-112 125.98,-101.33 133.76,-91.51 141.32,-83.79"/>
<polygon fill="#63b8ff" stroke="#63b8ff" points="143.4,-86.69 148.27,-77.28 138.59,-81.61 143.4,-86.69"/>
</a>
</g>
</g>
<!-- Node4&#45;&gt;Node8 -->
<g id="edge21_Node000004_Node000008" class="edge">
<title>Node4&#45;&gt;Node8</title>
<g id="a_edge21_Node000004_Node000008"><a xlink:title=" ">
<path fill="none" stroke="#63b8ff" d="M303.85,-223.89C323.41,-216.94 347.38,-205.52 363,-188 374.32,-175.29 380.16,-156.65 383.12,-142.58"/>
<polygon fill="#63b8ff" stroke="#63b8ff" points="386.68,-143.53 384.98,-133.08 379.79,-142.31 386.68,-143.53"/>
</a>
</g>
</g>
<!-- Node11 -->
<g id="Node000011" class="node">
<title>Node11</title>
<g id="a_Node000011"><a xlink:href="_controller_data_8h.html" target="_top" xlink:title="Declares a class used to store data for controllers to access.">
<polygon fill="white" stroke="#666666" points="265.88,-188 180.12,-188 180.12,-168 265.88,-168 265.88,-188"/>
<text text-anchor="middle" x="223" y="-174.5" font-family="Helvetica,sans-Serif" font-size="10.00">ControllerData.h</text>
</a>
</g>
</g>
<!-- Node4&#45;&gt;Node11 -->
<g id="edge15_Node000004_Node000011" class="edge">
<title>Node4&#45;&gt;Node11</title>
<g id="a_edge15_Node000004_Node000011"><a xlink:title=" ">
<path fill="none" stroke="#63b8ff" d="M262.64,-223.59C255.96,-216.08 246.43,-205.35 238.38,-196.3"/>
<polygon fill="#63b8ff" stroke="#63b8ff" points="241.52,-194.45 232.27,-189.3 236.29,-199.1 241.52,-194.45"/>
</a>
</g>
</g>
<!-- Node5&#45;&gt;Node3 -->
<g id="edge6_Node000005_Node000003" class="edge">
<title>Node5&#45;&gt;Node3</title>
<g id="a_edge6_Node000005_Node000003"><a xlink:title=" ">
<path fill="none" stroke="#63b8ff" d="M323.41,-167.58C329.48,-154.8 340.92,-131.32 352,-112 369.04,-82.29 390.97,-49.13 404.5,-29.17"/>
<polygon fill="#63b8ff" stroke="#63b8ff" points="407.83,-31.5 410.58,-21.27 402.05,-27.56 407.83,-31.5"/>
</a>
</g>
</g>
<!-- Node5&#45;&gt;Node6 -->
<g id="edge7_Node000005_Node000006" class="edge">
<title>Node5&#45;&gt;Node6</title>
<g id="a_edge7_Node000005_Node000006"><a xlink:title=" ">
<path fill="none" stroke="#63b8ff" d="M291.48,-167.59C265.92,-158.86 227.63,-145.77 199.13,-136.03"/>
<polygon fill="#63b8ff" stroke="#63b8ff" points="200.33,-132.4 189.74,-132.48 198.07,-139.03 200.33,-132.4"/>
</a>
</g>
</g>
<!-- Node5&#45;&gt;Node7 -->
<g id="edge14_Node000005_Node000007" class="edge">
<title>Node5&#45;&gt;Node7</title>
<g id="a_edge14_Node000005_Node000007"><a xlink:title=" ">
<path fill="none" stroke="#63b8ff" d="M305.53,-167.62C278.36,-148.71 216.75,-105.82 183.42,-82.61"/>
<polygon fill="#63b8ff" stroke="#63b8ff" points="185.64,-79.2 175.44,-76.35 181.64,-84.94 185.64,-79.2"/>
</a>
</g>
</g>
<!-- Node5&#45;&gt;Node8 -->
<g id="edge9_Node000005_Node000008" class="edge">
<title>Node5&#45;&gt;Node8</title>
<g id="a_edge9_Node000005_Node000008"><a xlink:title=" ">
<path fill="none" stroke="#63b8ff" d="M330.67,-167.59C340.37,-159.77 354.41,-148.46 365.91,-139.19"/>
<polygon fill="#63b8ff" stroke="#63b8ff" points="367.87,-141.3 373.46,-132.3 363.48,-135.85 367.87,-141.3"/>
</a>
</g>
</g>
<!-- Node6&#45;&gt;Node7 -->
<g id="edge8_Node000006_Node000007" class="edge">
<title>Node6&#45;&gt;Node7</title>
<g id="a_edge8_Node000006_Node000007"><a xlink:title=" ">
<path fill="none" stroke="#63b8ff" d="M161,-111.59C161,-104.86 161,-95.53 161,-87.15"/>
<polygon fill="#63b8ff" stroke="#63b8ff" points="164.5,-87.3 161,-77.3 157.5,-87.3 164.5,-87.3"/>
</a>
</g>
</g>
<!-- Node8&#45;&gt;Node3 -->
<g id="edge13_Node000008_Node000003" class="edge">
<title>Node8&#45;&gt;Node3</title>
<g id="a_edge13_Node000008_Node000003"><a xlink:title=" ">
<path fill="none" stroke="#63b8ff" d="M388.64,-111.62C393.68,-93.76 404.73,-54.53 411.46,-30.67"/>
<polygon fill="#63b8ff" stroke="#63b8ff" points="415.02,-31.93 414.36,-21.35 408.28,-30.03 415.02,-31.93"/>
</a>
</g>
</g>
<!-- Node9 -->
<g id="Node000009" class="node">
<title>Node9</title>
<g id="a_Node000009"><a xlink:href="_config_8h.html" target="_top" xlink:title=" ">
<polygon fill="white" stroke="#666666" points="604.62,-76 553.38,-76 553.38,-56 604.62,-56 604.62,-76"/>
<text text-anchor="middle" x="579" y="-62.5" font-family="Helvetica,sans-Serif" font-size="10.00">Config.h</text>
</a>
</g>
</g>
<!-- Node8&#45;&gt;Node9 -->
<g id="edge10_Node000008_Node000009" class="edge">
<title>Node8&#45;&gt;Node9</title>
<g id="a_edge10_Node000008_Node000009"><a xlink:title=" ">
<path fill="none" stroke="#63b8ff" d="M411.23,-113.94C444.85,-104.53 504.56,-87.83 542.93,-77.09"/>
<polygon fill="#63b8ff" stroke="#63b8ff" points="543.46,-80.3 552.15,-74.23 541.57,-73.56 543.46,-80.3"/>
</a>
</g>
</g>
<!-- Node9&#45;&gt;Node3 -->
<g id="edge11_Node000009_Node000003" class="edge">
<title>Node9&#45;&gt;Node3</title>
<g id="a_edge11_Node000009_Node000003"><a xlink:title=" ">
<path fill="none" stroke="#63b8ff" d="M552.97,-56.32C526.65,-47.55 485.66,-33.89 455.57,-23.86"/>
<polygon fill="#63b8ff" stroke="#63b8ff" points="457.01,-20.31 446.42,-20.47 454.8,-26.95 457.01,-20.31"/>
</a>
</g>
</g>
<!-- Node10 -->
<g id="Node000010" class="node">
<title>Node10</title>
<g id="a_Node000010"><a xlink:href="_log_levels_8h.html" target="_top" xlink:title=" ">
<polygon fill="white" stroke="#666666" points="658.5,-20 591.5,-20 591.5,0 658.5,0 658.5,-20"/>
<text text-anchor="middle" x="625" y="-6.5" font-family="Helvetica,sans-Serif" font-size="10.00">LogLevels.h</text>
</a>
</g>
</g>
<!-- Node9&#45;&gt;Node10 -->
<g id="edge12_Node000009_Node000010" class="edge">
<title>Node9&#45;&gt;Node10</title>
<g id="a_edge12_Node000009_Node000010"><a xlink:title=" ">
<path fill="none" stroke="#63b8ff" d="M587.01,-55.59C593.34,-48.16 602.36,-37.58 610.02,-28.58"/>
<polygon fill="#63b8ff" stroke="#63b8ff" points="613.26,-31.18 617.08,-21.3 607.93,-26.64 613.26,-31.18"/>
</a>
</g>
</g>
<!-- Node11&#45;&gt;Node3 -->
<g id="edge17_Node000011_Node000003" class="edge">
<title>Node11&#45;&gt;Node3</title>
<g id="a_edge17_Node000011_Node000003"><a xlink:title=" ">
<path fill="none" stroke="#63b8ff" d="M233.99,-167.6C265.73,-140.44 357.87,-61.6 397.98,-27.28"/>
<polygon fill="#63b8ff" stroke="#63b8ff" points="399.81,-29.46 405.13,-20.3 395.26,-24.14 399.81,-29.46"/>
</a>
</g>
</g>
<!-- Node11&#45;&gt;Node6 -->
<g id="edge19_Node000011_Node000006" class="edge">
<title>Node11&#45;&gt;Node6</title>
<g id="a_edge19_Node000011_Node000006"><a xlink:title=" ">
<path fill="none" stroke="#63b8ff" d="M212.2,-167.59C203.31,-159.85 190.49,-148.69 179.91,-139.47"/>
<polygon fill="#63b8ff" stroke="#63b8ff" points="182.52,-136.23 172.68,-132.3 177.92,-141.51 182.52,-136.23"/>
</a>
</g>
</g>
<!-- Node11&#45;&gt;Node7 -->
<g id="edge16_Node000011_Node000007" class="edge">
<title>Node11&#45;&gt;Node7</title>
<g id="a_edge16_Node000011_Node000007"><a xlink:title=" ">
<path fill="none" stroke="#63b8ff" d="M220.88,-167.7C217.65,-154.65 210.72,-130.42 200,-112 194.12,-101.9 185.82,-91.94 178.39,-83.97"/>
<polygon fill="#63b8ff" stroke="#63b8ff" points="181.31,-81.91 171.83,-77.19 176.29,-86.79 181.31,-81.91"/>
</a>
</g>
</g>
<!-- Node11&#45;&gt;Node8 -->
<g id="edge18_Node000011_Node000008" class="edge">
<title>Node11&#45;&gt;Node8</title>
<g id="a_edge18_Node000011_Node000008"><a xlink:title=" ">
<path fill="none" stroke="#63b8ff" d="M251.39,-167.59C278.93,-158.47 320.8,-144.6 350.52,-134.75"/>
<polygon fill="#63b8ff" stroke="#63b8ff" points="351.48,-137.79 359.87,-131.32 349.28,-131.15 351.48,-137.79"/>
</a>
</g>
</g>
<!-- Node12&#45;&gt;Node3 -->
<g id="edge26_Node000012_Node000003" class="edge">
<title>Node12&#45;&gt;Node3</title>
<g id="a_edge26_Node000012_Node000003"><a xlink:title=" ">
<path fill="none" stroke="#63b8ff" d="M565.67,-223.66C581.61,-211.52 604.63,-189.34 595,-168 564.15,-99.65 487.2,-49.13 445.29,-25.64"/>
<polygon fill="#63b8ff" stroke="#63b8ff" points="447.14,-22.11 436.68,-20.38 443.78,-28.25 447.14,-22.11"/>
</a>
</g>
</g>
<!-- Node13 -->
<g id="Node000013" class="node">
<title>Node13</title>
<g id="a_Node000013"><a xlink:title=" ">
<polygon fill="#e0e0e0" stroke="#999999" points="528.12,-188 485.88,-188 485.88,-168 528.12,-168 528.12,-188"/>
<text text-anchor="middle" x="507" y="-174.5" font-family="Helvetica,sans-Serif" font-size="10.00">queue</text>
</a>
</g>
</g>
<!-- Node12&#45;&gt;Node13 -->
<g id="edge27_Node000012_Node000013" class="edge">
<title>Node12&#45;&gt;Node13</title>
<g id="a_edge27_Node000012_Node000013"><a xlink:title=" ">
<path fill="none" stroke="#63b8ff" d="M544.16,-223.59C537.97,-216.16 529.15,-205.58 521.65,-196.58"/>
<polygon fill="#63b8ff" stroke="#63b8ff" points="523.84,-194.74 514.75,-189.3 518.46,-199.22 523.84,-194.74"/>
</a>
</g>
</g>
<!-- Node14 -->
<g id="Node000014" class="node">
<title>Node14</title>
<g id="a_Node000014"><a xlink:title=" ">
<polygon fill="#e0e0e0" stroke="#999999" points="585.62,-188 546.38,-188 546.38,-168 585.62,-168 585.62,-188"/>
<text text-anchor="middle" x="566" y="-174.5" font-family="Helvetica,sans-Serif" font-size="10.00">utility</text>
</a>
</g>
</g>
<!-- Node12&#45;&gt;Node14 -->
<g id="edge28_Node000012_Node000014" class="edge">
<title>Node12&#45;&gt;Node14</title>
<g id="a_edge28_Node000012_Node000014"><a xlink:title=" ">
<path fill="none" stroke="#63b8ff" d="M554.44,-223.59C556.21,-216.78 558.66,-207.32 560.85,-198.86"/>
<polygon fill="#63b8ff" stroke="#63b8ff" points="564.47,-199.86 563.59,-189.3 557.69,-198.1 564.47,-199.86"/>
</a>
</g>
</g>
<!-- Node15&#45;&gt;Node3 -->
<g id="edge31_Node000015_Node000003" class="edge">
<title>Node15&#45;&gt;Node3</title>
<g id="a_edge31_Node000015_Node000003"><a xlink:title=" ">
<path fill="none" stroke="#63b8ff" d="M649.27,-111.84C644.54,-97.58 633.39,-70.23 614,-56 567.53,-21.89 499.55,-13.03 456.82,-11.06"/>
<polygon fill="#63b8ff" stroke="#63b8ff" points="457.12,-7.53 447.01,-10.68 456.88,-14.53 457.12,-7.53"/>
</a>
</g>
</g>
<!-- Node15&#45;&gt;Node9 -->
<g id="edge33_Node000015_Node000009" class="edge">
<title>Node15&#45;&gt;Node9</title>
<g id="a_edge33_Node000015_Node000009"><a xlink:title=" ">
<path fill="none" stroke="#63b8ff" d="M639.28,-111.59C628.5,-103.62 612.82,-92.02 600.15,-82.64"/>
<polygon fill="#63b8ff" stroke="#63b8ff" points="602.69,-79.43 592.57,-76.3 598.53,-85.06 602.69,-79.43"/>
</a>
</g>
</g>
<!-- Node15&#45;&gt;Node10 -->
<g id="edge32_Node000015_Node000010" class="edge">
<title>Node15&#45;&gt;Node10</title>
<g id="a_edge32_Node000015_Node000010"><a xlink:title=" ">
<path fill="none" stroke="#63b8ff" d="M652.37,-111.56C652.63,-98.74 652.23,-75.22 647,-56 644.55,-47 640.29,-37.64 636.17,-29.81"/>
<polygon fill="#63b8ff" stroke="#63b8ff" points="638.76,-28.26 630.82,-21.24 632.65,-31.68 638.76,-28.26"/>
</a>
</g>
</g>
<!-- Node16 -->
<g id="Node000016" class="node">
<title>Node16</title>
<g id="a_Node000016"><a xlink:title=" ">
<polygon fill="#e0e0e0" stroke="#999999" points="756.62,-76 699.38,-76 699.38,-56 756.62,-56 756.62,-76"/>
<text text-anchor="middle" x="728" y="-62.5" font-family="Helvetica,sans-Serif" font-size="10.00">functional</text>
</a>
</g>
</g>
<!-- Node15&#45;&gt;Node16 -->
<g id="edge34_Node000015_Node000016" class="edge">
<title>Node15&#45;&gt;Node16</title>
<g id="a_edge34_Node000015_Node000016"><a xlink:title=" ">
<path fill="none" stroke="#63b8ff" d="M665.24,-111.59C676.39,-103.67 692.59,-92.16 705.74,-82.82"/>
<polygon fill="#63b8ff" stroke="#63b8ff" points="707.53,-85.12 713.66,-76.48 703.48,-79.42 707.53,-85.12"/>
</a>
</g>
</g>
</g>
</svg>
