<?xml version="1.0" encoding="UTF-8" standalone="no"?>
<!DOCTYPE svg PUBLIC "-//W3C//DTD SVG 1.1//EN"
 "http://www.w3.org/Graphics/SVG/1.1/DTD/svg11.dtd">
<!-- Generated by graphviz version 8.1.0 (20230707.0739)
 -->
<!-- Title: ExoCode/src/Logger.h Pages: 1 -->
<svg width="216pt" height="140pt"
 viewBox="0.00 0.00 216.25 140.00" xmlns="http://www.w3.org/2000/svg" xmlns:xlink="http://www.w3.org/1999/xlink">
<g id="graph0" class="graph" transform="scale(1 1) rotate(0) translate(4 136)">
<title>ExoCode/src/Logger.h</title>
<!-- Node1 -->
<g id="Node000001" class="node">
<title>Node1</title>
<g id="a_Node000001"><a xlink:title=" ">
<polygon fill="#999999" stroke="#666666" points="152,-132 39.25,-132 39.25,-112 152,-112 152,-132"/>
<text text-anchor="middle" x="95.62" y="-118.5" font-family="Helvetica,sans-Serif" font-size="10.00">ExoCode/src/Logger.h</text>
</a>
</g>
</g>
<!-- Node2 -->
<g id="Node000002" class="node">
<title>Node2</title>
<g id="a_Node000002"><a xlink:title=" ">
<polygon fill="#e0e0e0" stroke="#999999" points="57.25,-20 0,-20 0,0 57.25,0 57.25,-20"/>
<text text-anchor="middle" x="28.62" y="-6.5" font-family="Helvetica,sans-Serif" font-size="10.00">Arduino.h</text>
</a>
</g>
</g>
<!-- Node1&#45;&gt;Node2 -->
<g id="edge1_Node000001_Node000002" class="edge">
<title>Node1&#45;&gt;Node2</title>
<g id="a_edge1_Node000001_Node000002"><a xlink:title=" ">
<path fill="none" stroke="#63b8ff" d="M74.27,-111.5C60.15,-104.02 42.65,-92.14 33.62,-76 25.93,-62.25 25.13,-44.23 26,-30.65"/>
<polygon fill="#63b8ff" stroke="#63b8ff" points="29.54,-31.38 27.06,-21.08 22.58,-30.68 29.54,-31.38"/>
</a>
</g>
</g>
<!-- Node3 -->
<g id="Node000003" class="node">
<title>Node3</title>
<g id="a_Node000003"><a xlink:href="_log_levels_8h.html" target="_top" xlink:title=" ">
<polygon fill="white" stroke="#666666" points="149.12,-20 82.12,-20 82.12,0 149.12,0 149.12,-20"/>
<text text-anchor="middle" x="115.62" y="-6.5" font-family="Helvetica,sans-Serif" font-size="10.00">LogLevels.h</text>
</a>
</g>
</g>
<!-- Node1&#45;&gt;Node3 -->
<g id="edge2_Node000001_Node000003" class="edge">
<title>Node1&#45;&gt;Node3</title>
<g id="a_edge2_Node000001_Node000003"><a xlink:title=" ">
<path fill="none" stroke="#63b8ff" d="M97.33,-111.62C100.56,-93.84 107.65,-54.88 111.99,-31"/>
<polygon fill="#63b8ff" stroke="#63b8ff" points="115.58,-31.82 113.92,-21.35 108.69,-30.57 115.58,-31.82"/>
</a>
</g>
</g>
<!-- Node4 -->
<g id="Node000004" class="node">
<title>Node4</title>
<g id="a_Node000004"><a xlink:href="_config_8h.html" target="_top" xlink:title=" ">
<polygon fill="white" stroke="#666666" points="94.25,-76 43,-76 43,-56 94.25,-56 94.25,-76"/>
<text text-anchor="middle" x="68.62" y="-62.5" font-family="Helvetica,sans-Serif" font-size="10.00">Config.h</text>
</a>
</g>
</g>
<!-- Node1&#45;&gt;Node4 -->
<g id="edge3_Node000001_Node000004" class="edge">
<title>Node1&#45;&gt;Node4</title>
<g id="a_edge3_Node000001_Node000004"><a xlink:title=" ">
<path fill="none" stroke="#63b8ff" d="M90.92,-111.59C87.4,-104.55 82.46,-94.67 78.13,-86"/>
<polygon fill="#63b8ff" stroke="#63b8ff" points="80.88,-84.68 73.27,-77.3 74.62,-87.81 80.88,-84.68"/>
</a>
</g>
</g>
<!-- Node5 -->
<g id="Node000005" class="node">
<title>Node5</title>
<g id="a_Node000005"><a xlink:title=" ">
<polygon fill="#e0e0e0" stroke="#999999" points="208.25,-76 151,-76 151,-56 208.25,-56 208.25,-76"/>
<text text-anchor="middle" x="179.62" y="-62.5" font-family="Helvetica,sans-Serif" font-size="10.00">functional</text>
</a>
</g>
</g>
<!-- Node1&#45;&gt;Node5 -->
<g id="edge6_Node000001_Node000005" class="edge">
<title>Node1&#45;&gt;Node5</title>
<g id="a_edge6_Node000001_Node000005"><a xlink:title=" ">
<path fill="none" stroke="#63b8ff" d="M110.26,-111.59C122.83,-103.51 141.19,-91.71 155.87,-82.27"/>
<polygon fill="#63b8ff" stroke="#63b8ff" points="157.36,-84.83 163.88,-76.48 153.57,-78.94 157.36,-84.83"/>
</a>
</g>
</g>
<!-- Node4&#45;&gt;Node2 -->
<g id="edge4_Node000004_Node000002" class="edge">
<title>Node4&#45;&gt;Node2</title>
<g id="a_edge4_Node000004_Node000002"><a xlink:title=" ">
<path fill="none" stroke="#63b8ff" d="M61.66,-55.59C56.21,-48.24 48.47,-37.8 41.86,-28.87"/>
<polygon fill="#63b8ff" stroke="#63b8ff" points="44.28,-27.25 35.51,-21.3 38.65,-31.42 44.28,-27.25"/>
</a>
</g>
</g>
<!-- Node4&#45;&gt;Node3 -->
<g id="edge5_Node000004_Node000003" class="edge">
<title>Node4&#45;&gt;Node3</title>
<g id="a_edge5_Node000004_Node000003"><a xlink:title=" ">
<path fill="none" stroke="#63b8ff" d="M76.81,-55.59C83.28,-48.16 92.49,-37.58 100.32,-28.58"/>
<polygon fill="#63b8ff" stroke="#63b8ff" points="103.61,-31.14 107.53,-21.3 98.33,-26.54 103.61,-31.14"/>
</a>
</g>
</g>
</g>
</svg>
