<?xml version="1.0" encoding="UTF-8" standalone="no"?>
<!DOCTYPE svg PUBLIC "-//W3C//DTD SVG 1.1//EN"
 "http://www.w3.org/Graphics/SVG/1.1/DTD/svg11.dtd">
<!-- Generated by graphviz version 8.1.0 (20230707.0739)
 -->
<!-- Title: ExoCode/src/Logger.h Pages: 1 -->
<!--zoomable 364 -->

<svg id="main" version="1.1" xmlns="http://www.w3.org/2000/svg" xmlns:xlink="http://www.w3.org/1999/xlink" xml:space="preserve" onload="init(evt)">
<style type="text/css"><![CDATA[
.node, .edge {opacity: 0.7;}
.node.selected, .edge.selected {opacity: 1;}
.edge:hover path { stroke: red; }
.edge:hover polygon { stroke: red; fill: red; }
]]></style>

<defs>
  <circle id="rim" cx="0" cy="0" r="7"/>
  <circle id="rim2" cx="0" cy="0" r="3.5"/>
  <g id="zoomPlus">
    <use xlink:href="#rim" fill="#404040"><set attributeName="fill" to="#808080" begin="zoomplus.mouseover" end="zoomplus.mouseout"/></use>
    <path d="M-4,0h8M0,-4v8" fill="none" stroke="white" stroke-width="1.5" pointer-events="none"/>
  </g>
  <g id="zoomMin">
    <use xlink:href="#rim" fill="#404040"><set attributeName="fill" to="#808080" begin="zoomminus.mouseover" end="zoomminus.mouseout"/></use>
    <path d="M-4,0h8" fill="none" stroke="white" stroke-width="1.5" pointer-events="none"/>
  </g>
  <g id="arrowUp" transform="translate(30 24)">
    <use xlink:href="#rim"/>
    <path pointer-events="none" fill="none" stroke="white" stroke-width="1.5" d="M0,-3.0v7 M-2.5,-0.5L0,-3.0L2.5,-0.5"/>
  </g>
  <g id="arrowRight" transform="rotate(90) translate(36 -43)">
    <use xlink:href="#rim"/>
    <path pointer-events="none" fill="none" stroke="white" stroke-width="1.5" d="M0,-3.0v7 M-2.5,-0.5L0,-3.0L2.5,-0.5"/>
  </g>
  <g id="arrowDown" transform="rotate(180) translate(-30 -48)">
    <use xlink:href="#rim"/>
    <path pointer-events="none" fill="none" stroke="white" stroke-width="1.5" d="M0,-3.0v7 M-2.5,-0.5L0,-3.0L2.5,-0.5"/>
  </g>
  <g id="arrowLeft" transform="rotate(270) translate(-36 17)">
    <use xlink:href="#rim"/>
    <path pointer-events="none" fill="none" stroke="white" stroke-width="1.5" d="M0,-3.0v7 M-2.5,-0.5L0,-3.0L2.5,-0.5"/>
  </g>
  <g id="resetDef">
    <use xlink:href="#rim2" fill="#404040"><set attributeName="fill" to="#808080" begin="reset.mouseover" end="reset.mouseout"/></use>
  </g>
</defs>
<script type="application/ecmascript">
var viewWidth = 4323;
var viewHeight = 364;
var sectionId = 'dynsection-1';
</script>
<script type="application/ecmascript" xlink:href="svg.min.js"/>
<svg id="graph" class="graph">
<g id="viewport">
<title>ExoCode/src/Logger.h</title>
<!-- Node1 -->
<g id="Node000001" class="node">
<title>Node1</title>
<g id="a_Node000001"><a xlink:title=" ">
<polygon fill="#999999" stroke="#666666" points="1921.75,-356 1809,-356 1809,-336 1921.75,-336 1921.75,-356"/>
<text text-anchor="middle" x="1865.38" y="-342.5" font-family="Helvetica,sans-Serif" font-size="10.00">ExoCode/src/Logger.h</text>
</a>
</g>
</g>
<!-- Node2 -->
<g id="Node000002" class="node">
<title>Node2</title>
<g id="a_Node000002"><a xlink:href="_ankle_angles_8cpp.html" target="_top" xlink:title=" ">
<polygon fill="white" stroke="#666666" points="148.75,-300 0,-300 0,-280 148.75,-280 148.75,-300"/>
<text text-anchor="middle" x="74.38" y="-286.5" font-family="Helvetica,sans-Serif" font-size="10.00">ExoCode/src/AnkleAngles.cpp</text>
</a>
</g>
</g>
<!-- Node1&#45;&gt;Node2 -->
<g id="edge1_Node000001_Node000002" class="edge">
<title>Node1&#45;&gt;Node2</title>
<g id="a_edge1_Node000001_Node000002"><a xlink:title=" ">
<path fill="none" stroke="#63b8ff" d="M1797.67,-345.2C1567.53,-345.46 794.36,-342.85 157.38,-300 154.63,-299.82 151.83,-299.61 149.01,-299.38"/>
<polygon fill="#63b8ff" stroke="#63b8ff" points="1797.54,-348.7 1807.53,-345.19 1797.53,-341.7 1797.54,-348.7"/>
</a>
</g>
</g>
<!-- Node3 -->
<g id="Node000003" class="node">
<title>Node3</title>
<g id="a_Node000003"><a xlink:href="_ankle_i_m_u_8cpp.html" target="_top" xlink:title=" ">
<polygon fill="white" stroke="#666666" points="302.38,-300 166.38,-300 166.38,-280 302.38,-280 302.38,-300"/>
<text text-anchor="middle" x="234.38" y="-286.5" font-family="Helvetica,sans-Serif" font-size="10.00">ExoCode/src/AnkleIMU.cpp</text>
</a>
</g>
</g>
<!-- Node1&#45;&gt;Node3 -->
<g id="edge2_Node000001_Node000003" class="edge">
<title>Node1&#45;&gt;Node3</title>
<g id="a_edge2_Node000001_Node000003"><a xlink:title=" ">
<path fill="none" stroke="#63b8ff" d="M1797.99,-345.15C1581.69,-345.18 885.54,-341.79 311.38,-300 308.56,-299.79 305.68,-299.56 302.78,-299.31"/>
<polygon fill="#63b8ff" stroke="#63b8ff" points="1797.84,-348.65 1807.84,-345.15 1797.84,-341.65 1797.84,-348.65"/>
</a>
</g>
</g>
<!-- Node4 -->
<g id="Node000004" class="node">
<title>Node4</title>
<g id="a_Node000004"><a xlink:href="_battery_8cpp.html" target="_top" xlink:title=" ">
<polygon fill="white" stroke="#666666" points="446.12,-300 320.62,-300 320.62,-280 446.12,-280 446.12,-300"/>
<text text-anchor="middle" x="383.38" y="-286.5" font-family="Helvetica,sans-Serif" font-size="10.00">ExoCode/src/Battery.cpp</text>
</a>
</g>
</g>
<!-- Node1&#45;&gt;Node4 -->
<g id="edge3_Node000001_Node000004" class="edge">
<title>Node1&#45;&gt;Node4</title>
<g id="a_edge3_Node000001_Node000004"><a xlink:title=" ">
<path fill="none" stroke="#63b8ff" d="M1797.73,-345.06C1594.32,-344.75 970.55,-340.33 455.38,-300 452.49,-299.77 449.54,-299.52 446.56,-299.23"/>
<polygon fill="#63b8ff" stroke="#63b8ff" points="1797.52,-348.56 1807.52,-345.07 1797.53,-341.56 1797.52,-348.56"/>
</a>
</g>
</g>
<!-- Node5 -->
<g id="Node000005" class="node">
<title>Node5</title>
<g id="a_Node000005"><a xlink:href="_ble_message_8cpp.html" target="_top" xlink:title=" ">
<polygon fill="white" stroke="#666666" points="612.38,-300 464.38,-300 464.38,-280 612.38,-280 612.38,-300"/>
<text text-anchor="middle" x="538.38" y="-286.5" font-family="Helvetica,sans-Serif" font-size="10.00">ExoCode/src/BleMessage.cpp</text>
</a>
</g>
</g>
<!-- Node1&#45;&gt;Node5 -->
<g id="edge4_Node000001_Node000005" class="edge">
<title>Node1&#45;&gt;Node5</title>
<g id="a_edge4_Node000001_Node000005"><a xlink:title=" ">
<path fill="none" stroke="#63b8ff" d="M1797.81,-344.26C1610.65,-341.85 1069.68,-332.37 621.38,-300 618.48,-299.79 615.54,-299.56 612.56,-299.31"/>
<polygon fill="#63b8ff" stroke="#63b8ff" points="1797.53,-347.77 1807.57,-344.4 1797.62,-340.77 1797.53,-347.77"/>
</a>
</g>
</g>
<!-- Node6 -->
<g id="Node000006" class="node">
<title>Node6</title>
<g id="a_Node000006"><a xlink:href="_ble_message_queue_8cpp.html" target="_top" xlink:title=" ">
<polygon fill="white" stroke="#666666" points="806.62,-300 630.12,-300 630.12,-280 806.62,-280 806.62,-300"/>
<text text-anchor="middle" x="718.38" y="-286.5" font-family="Helvetica,sans-Serif" font-size="10.00">ExoCode/src/BleMessageQueue.cpp</text>
</a>
</g>
</g>
<!-- Node1&#45;&gt;Node6 -->
<g id="edge5_Node000001_Node000006" class="edge">
<title>Node1&#45;&gt;Node6</title>
<g id="a_edge5_Node000001_Node000006"><a xlink:title=" ">
<path fill="none" stroke="#63b8ff" d="M1798.15,-343.15C1632.09,-338.36 1189.18,-324.2 820.38,-300 816.03,-299.71 811.58,-299.4 807.09,-299.07"/>
<polygon fill="#63b8ff" stroke="#63b8ff" points="1797.59,-346.67 1807.69,-343.46 1797.79,-339.67 1797.59,-346.67"/>
</a>
</g>
</g>
<!-- Node7 -->
<g id="Node000007" class="node">
<title>Node7</title>
<g id="a_Node000007"><a xlink:href="_ble_parser_8cpp.html" target="_top" xlink:title=" ">
<polygon fill="white" stroke="#666666" points="993.75,-20 857,-20 857,0 993.75,0 993.75,-20"/>
<text text-anchor="middle" x="925.38" y="-6.5" font-family="Helvetica,sans-Serif" font-size="10.00">ExoCode/src/BleParser.cpp</text>
</a>
</g>
</g>
<!-- Node1&#45;&gt;Node7 -->
<g id="edge6_Node000001_Node000007" class="edge">
<title>Node1&#45;&gt;Node7</title>
<g id="a_edge6_Node000001_Node000007"><a xlink:title=" ">
<path fill="none" stroke="#63b8ff" d="M1797.98,-344.56C1620.28,-342.91 1142.12,-335.24 988.38,-300 915.96,-283.4 834.38,-309.29 834.38,-235 834.38,-235 834.38,-235 834.38,-121 834.38,-90.9 835.2,-79.99 853.38,-56 865.75,-39.67 885.91,-27.8 901.76,-20.37"/>
<polygon fill="#63b8ff" stroke="#63b8ff" points="1797.71,-348.06 1807.74,-344.65 1797.77,-341.06 1797.71,-348.06"/>
</a>
</g>
</g>
<!-- Node8 -->
<g id="Node000008" class="node">
<title>Node8</title>
<g id="a_Node000008"><a xlink:href="_c_a_n_8h.html" target="_top" xlink:title=" ">
<polygon fill="white" stroke="#666666" points="1537.25,-300 1433.5,-300 1433.5,-280 1537.25,-280 1537.25,-300"/>
<text text-anchor="middle" x="1485.38" y="-286.5" font-family="Helvetica,sans-Serif" font-size="10.00">ExoCode/src/CAN.h</text>
</a>
</g>
</g>
<!-- Node1&#45;&gt;Node8 -->
<g id="edge7_Node000001_Node000008" class="edge">
<title>Node1&#45;&gt;Node8</title>
<g id="a_edge7_Node000001_Node000008"><a xlink:title=" ">
<path fill="none" stroke="#63b8ff" d="M1797.76,-335.59C1733.17,-326.57 1633.11,-312.52 1546.38,-300 1543.51,-299.59 1540.58,-299.16 1537.62,-298.73"/>
<polygon fill="#63b8ff" stroke="#63b8ff" points="1797.21,-339.19 1807.6,-337.1 1798.18,-332.25 1797.21,-339.19"/>
</a>
</g>
</g>
<!-- Node9 -->
<g id="Node000009" class="node">
<title>Node9</title>
<g id="a_Node000009"><a xlink:href="_motor_8cpp.html" target="_top" xlink:title=" ">
<polygon fill="white" stroke="#666666" points="1555.75,-244 1437,-244 1437,-224 1555.75,-224 1555.75,-244"/>
<text text-anchor="middle" x="1496.38" y="-230.5" font-family="Helvetica,sans-Serif" font-size="10.00">ExoCode/src/Motor.cpp</text>
</a>
</g>
</g>
<!-- Node1&#45;&gt;Node9 -->
<g id="edge20_Node000001_Node000009" class="edge">
<title>Node1&#45;&gt;Node9</title>
<g id="a_edge20_Node000001_Node000009"><a xlink:title=" ">
<path fill="none" stroke="#63b8ff" d="M1798.01,-343C1680.68,-338.81 1448.92,-327.17 1424.38,-300 1404.96,-278.5 1444.14,-256.55 1471.94,-244.46"/>
<polygon fill="#63b8ff" stroke="#63b8ff" points="1797.54,-346.52 1807.65,-343.37 1797.78,-339.52 1797.54,-346.52"/>
</a>
</g>
</g>
<!-- Node10 -->
<g id="Node000010" class="node">
<title>Node10</title>
<g id="a_Node000010"><a xlink:href="_coms_m_c_u_8cpp.html" target="_top" xlink:title=" ">
<polygon fill="white" stroke="#666666" points="1238,-132 1096.75,-132 1096.75,-112 1238,-112 1238,-132"/>
<text text-anchor="middle" x="1167.38" y="-118.5" font-family="Helvetica,sans-Serif" font-size="10.00">ExoCode/src/ComsMCU.cpp</text>
</a>
</g>
</g>
<!-- Node1&#45;&gt;Node10 -->
<g id="edge9_Node000001_Node000010" class="edge">
<title>Node1&#45;&gt;Node10</title>
<g id="a_edge9_Node000001_Node000010"><a xlink:title=" ">
<path fill="none" stroke="#63b8ff" d="M1797.75,-343.44C1622.91,-339.05 1165.12,-325.28 1101.38,-300 1023.66,-269.18 915.15,-233.28 967.38,-168 983.49,-147.85 1045.52,-136.09 1096.27,-129.68"/>
<polygon fill="#63b8ff" stroke="#63b8ff" points="1797.51,-346.96 1807.6,-343.71 1797.69,-339.96 1797.51,-346.96"/>
</a>
</g>
</g>
<!-- Node11 -->
<g id="Node000011" class="node">
<title>Node11</title>
<g id="a_Node000011"><a xlink:href="_controller_8cpp.html" target="_top" xlink:title=" ">
<polygon fill="white" stroke="#666666" points="1691,-300 1555.75,-300 1555.75,-280 1691,-280 1691,-300"/>
<text text-anchor="middle" x="1623.38" y="-286.5" font-family="Helvetica,sans-Serif" font-size="10.00">ExoCode/src/Controller.cpp</text>
</a>
</g>
</g>
<!-- Node1&#45;&gt;Node11 -->
<g id="edge10_Node000001_Node000011" class="edge">
<title>Node1&#45;&gt;Node11</title>
<g id="a_edge10_Node000001_Node000011"><a xlink:title=" ">
<path fill="none" stroke="#63b8ff" d="M1812.44,-333.19C1768.41,-323.36 1706.56,-309.56 1665.76,-300.46"/>
<polygon fill="#63b8ff" stroke="#63b8ff" points="1811.42,-336.77 1821.94,-335.53 1812.95,-329.94 1811.42,-336.77"/>
</a>
</g>
</g>
<!-- Node12 -->
<g id="Node000012" class="node">
<title>Node12</title>
<g id="a_Node000012"><a xlink:href="_error_manager_8cpp.html" target="_top" xlink:title=" ">
<polygon fill="white" stroke="#666666" points="1861.62,-300 1709.12,-300 1709.12,-280 1861.62,-280 1861.62,-300"/>
<text text-anchor="middle" x="1785.38" y="-286.5" font-family="Helvetica,sans-Serif" font-size="10.00">ExoCode/src/ErrorManager.cpp</text>
</a>
</g>
</g>
<!-- Node1&#45;&gt;Node12 -->
<g id="edge11_Node000001_Node000012" class="edge">
<title>Node1&#45;&gt;Node12</title>
<g id="a_edge11_Node000001_Node000012"><a xlink:title=" ">
<path fill="none" stroke="#63b8ff" d="M1842.47,-329.54C1828.59,-320.17 1811.31,-308.51 1799.42,-300.48"/>
<polygon fill="#63b8ff" stroke="#63b8ff" points="1840.19,-332.9 1850.44,-335.59 1844.11,-327.1 1840.19,-332.9"/>
</a>
</g>
</g>
<!-- Node13 -->
<g id="Node000013" class="node">
<title>Node13</title>
<g id="a_Node000013"><a xlink:href="_exo_8cpp.html" target="_top" xlink:title=" ">
<polygon fill="white" stroke="#666666" points="1451,-132 1339.75,-132 1339.75,-112 1451,-112 1451,-132"/>
<text text-anchor="middle" x="1395.38" y="-118.5" font-family="Helvetica,sans-Serif" font-size="10.00">ExoCode/src/Exo.cpp</text>
</a>
</g>
</g>
<!-- Node1&#45;&gt;Node13 -->
<g id="edge12_Node000001_Node000013" class="edge">
<title>Node1&#45;&gt;Node13</title>
<g id="a_edge12_Node000001_Node000013"><a xlink:title=" ">
<path fill="none" stroke="#63b8ff" d="M1797.86,-343.16C1678.32,-339.2 1439.59,-327.86 1414.38,-300 1408.41,-293.41 1413.29,-288.82 1414.38,-280 1417.51,-254.54 1417.56,-247.26 1428.38,-224 1436.7,-206.1 1448.3,-206.78 1454.38,-188 1457.11,-179.54 1458.32,-175.97 1454.38,-168 1446.37,-151.84 1429.48,-139.89 1415.81,-132.39"/>
<polygon fill="#63b8ff" stroke="#63b8ff" points="1797.59,-346.68 1807.7,-343.51 1797.81,-339.69 1797.59,-346.68"/>
</a>
</g>
</g>
<!-- Node14 -->
<g id="Node000014" class="node">
<title>Node14</title>
<g id="a_Node000014"><a xlink:href="_exo_data_8cpp.html" target="_top" xlink:title=" ">
<polygon fill="white" stroke="#666666" points="2011.12,-300 1879.62,-300 1879.62,-280 2011.12,-280 2011.12,-300"/>
<text text-anchor="middle" x="1945.38" y="-286.5" font-family="Helvetica,sans-Serif" font-size="10.00">ExoCode/src/ExoData.cpp</text>
</a>
</g>
</g>
<!-- Node1&#45;&gt;Node14 -->
<g id="edge13_Node000001_Node000014" class="edge">
<title>Node1&#45;&gt;Node14</title>
<g id="a_edge13_Node000001_Node000014"><a xlink:title=" ">
<path fill="none" stroke="#63b8ff" d="M1888.28,-329.54C1902.16,-320.17 1919.44,-308.51 1931.33,-300.48"/>
<polygon fill="#63b8ff" stroke="#63b8ff" points="1886.64,-327.1 1880.31,-335.59 1890.56,-332.9 1886.64,-327.1"/>
</a>
</g>
</g>
<!-- Node15 -->
<g id="Node000015" class="node">
<title>Node15</title>
<g id="a_Node000015"><a xlink:href="_f_s_r_8cpp.html" target="_top" xlink:title=" ">
<polygon fill="white" stroke="#666666" points="2143.12,-300 2029.62,-300 2029.62,-280 2143.12,-280 2143.12,-300"/>
<text text-anchor="middle" x="2086.38" y="-286.5" font-family="Helvetica,sans-Serif" font-size="10.00">ExoCode/src/FSR.cpp</text>
</a>
</g>
</g>
<!-- Node1&#45;&gt;Node15 -->
<g id="edge14_Node000001_Node000015" class="edge">
<title>Node1&#45;&gt;Node15</title>
<g id="a_edge14_Node000001_Node000015"><a xlink:title=" ">
<path fill="none" stroke="#63b8ff" d="M1914.74,-332.94C1954.88,-323.13 2010.72,-309.49 2047.67,-300.46"/>
<polygon fill="#63b8ff" stroke="#63b8ff" points="1914.01,-329.76 1905.12,-335.53 1915.67,-336.56 1914.01,-329.76"/>
</a>
</g>
</g>
<!-- Node16 -->
<g id="Node000016" class="node">
<title>Node16</title>
<g id="a_Node000016"><a xlink:href="_inclination_detector_8cpp.html" target="_top" xlink:title=" ">
<polygon fill="white" stroke="#666666" points="2335.5,-300 2161.25,-300 2161.25,-280 2335.5,-280 2335.5,-300"/>
<text text-anchor="middle" x="2248.38" y="-286.5" font-family="Helvetica,sans-Serif" font-size="10.00">ExoCode/src/InclinationDetector.cpp</text>
</a>
</g>
</g>
<!-- Node1&#45;&gt;Node16 -->
<g id="edge15_Node000001_Node000016" class="edge">
<title>Node1&#45;&gt;Node16</title>
<g id="a_edge15_Node000001_Node000016"><a xlink:title=" ">
<path fill="none" stroke="#63b8ff" d="M1932.77,-335.5C2002.72,-325.64 2111.48,-310.3 2181.31,-300.46"/>
<polygon fill="#63b8ff" stroke="#63b8ff" points="1932.3,-332.17 1922.89,-337.03 1933.28,-339.1 1932.3,-332.17"/>
</a>
</g>
</g>
<!-- Node17 -->
<g id="Node000017" class="node">
<title>Node17</title>
<g id="a_Node000017"><a xlink:href="_joint_8cpp.html" target="_top" xlink:title=" ">
<polygon fill="white" stroke="#666666" points="2467.5,-300 2353.25,-300 2353.25,-280 2467.5,-280 2467.5,-300"/>
<text text-anchor="middle" x="2410.38" y="-286.5" font-family="Helvetica,sans-Serif" font-size="10.00">ExoCode/src/Joint.cpp</text>
</a>
</g>
</g>
<!-- Node1&#45;&gt;Node17 -->
<g id="edge16_Node000001_Node000017" class="edge">
<title>Node1&#45;&gt;Node17</title>
<g id="a_edge16_Node000001_Node000017"><a xlink:title=" ">
<path fill="none" stroke="#63b8ff" d="M1933.16,-339.53C2026.05,-331.83 2198.06,-316.84 2344.38,-300 2347.13,-299.68 2349.95,-299.35 2352.8,-299"/>
<polygon fill="#63b8ff" stroke="#63b8ff" points="1932.91,-336.12 1923.23,-340.43 1933.49,-343.1 1932.91,-336.12"/>
</a>
</g>
</g>
<!-- Node18 -->
<g id="Node000018" class="node">
<title>Node18</title>
<g id="a_Node000018"><a xlink:href="_joint_data_8cpp.html" target="_top" xlink:title=" ">
<polygon fill="white" stroke="#666666" points="2619.62,-300 2485.12,-300 2485.12,-280 2619.62,-280 2619.62,-300"/>
<text text-anchor="middle" x="2552.38" y="-286.5" font-family="Helvetica,sans-Serif" font-size="10.00">ExoCode/src/JointData.cpp</text>
</a>
</g>
</g>
<!-- Node1&#45;&gt;Node18 -->
<g id="edge17_Node000001_Node000018" class="edge">
<title>Node1&#45;&gt;Node18</title>
<g id="a_edge17_Node000001_Node000018"><a xlink:title=" ">
<path fill="none" stroke="#63b8ff" d="M1932.73,-341.02C2045.39,-334.14 2279.13,-318.93 2476.38,-300 2479.15,-299.73 2481.99,-299.45 2484.85,-299.15"/>
<polygon fill="#63b8ff" stroke="#63b8ff" points="1932.65,-337.58 1922.88,-341.68 1933.08,-344.57 1932.65,-337.58"/>
</a>
</g>
</g>
<!-- Node19 -->
<g id="Node000019" class="node">
<title>Node19</title>
<g id="a_Node000019"><a xlink:href="_leg_8cpp.html" target="_top" xlink:title=" ">
<polygon fill="white" stroke="#666666" points="2747.25,-300 2637.5,-300 2637.5,-280 2747.25,-280 2747.25,-300"/>
<text text-anchor="middle" x="2692.38" y="-286.5" font-family="Helvetica,sans-Serif" font-size="10.00">ExoCode/src/Leg.cpp</text>
</a>
</g>
</g>
<!-- Node1&#45;&gt;Node19 -->
<g id="edge18_Node000001_Node000019" class="edge">
<title>Node1&#45;&gt;Node19</title>
<g id="a_edge18_Node000001_Node000019"><a xlink:title=" ">
<path fill="none" stroke="#63b8ff" d="M1932.79,-342.85C2065.98,-338.21 2372.15,-325.53 2628.38,-300 2631.28,-299.71 2634.25,-299.39 2637.25,-299.04"/>
<polygon fill="#63b8ff" stroke="#63b8ff" points="1932.85,-339.38 1922.97,-343.23 1933.09,-346.38 1932.85,-339.38"/>
</a>
</g>
</g>
<!-- Node20 -->
<g id="Node000020" class="node">
<title>Node20</title>
<g id="a_Node000020"><a xlink:href="_leg_data_8cpp.html" target="_top" xlink:title=" ">
<polygon fill="white" stroke="#666666" points="2895.38,-300 2765.38,-300 2765.38,-280 2895.38,-280 2895.38,-300"/>
<text text-anchor="middle" x="2830.38" y="-286.5" font-family="Helvetica,sans-Serif" font-size="10.00">ExoCode/src/LegData.cpp</text>
</a>
</g>
</g>
<!-- Node1&#45;&gt;Node20 -->
<g id="edge19_Node000001_Node000020" class="edge">
<title>Node1&#45;&gt;Node20</title>
<g id="a_edge19_Node000001_Node000020"><a xlink:title=" ">
<path fill="none" stroke="#63b8ff" d="M1932.78,-343.22C2081.61,-338.93 2449.44,-326.38 2756.38,-300 2759.21,-299.76 2762.11,-299.49 2765.03,-299.2"/>
<polygon fill="#63b8ff" stroke="#63b8ff" points="1932.92,-339.74 1923.02,-343.53 1933.12,-346.74 1932.92,-339.74"/>
</a>
</g>
</g>
<!-- Node21 -->
<g id="Node000021" class="node">
<title>Node21</title>
<g id="a_Node000021"><a xlink:href="_motor_data_8cpp.html" target="_top" xlink:title=" ">
<polygon fill="white" stroke="#666666" points="3052.88,-300 2913.88,-300 2913.88,-280 3052.88,-280 3052.88,-300"/>
<text text-anchor="middle" x="2983.38" y="-286.5" font-family="Helvetica,sans-Serif" font-size="10.00">ExoCode/src/MotorData.cpp</text>
</a>
</g>
</g>
<!-- Node1&#45;&gt;Node21 -->
<g id="edge21_Node000001_Node000021" class="edge">
<title>Node1&#45;&gt;Node21</title>
<g id="a_edge21_Node000001_Node000021"><a xlink:title=" ">
<path fill="none" stroke="#63b8ff" d="M1933.05,-343.71C2098.87,-340.2 2538.61,-328.72 2904.38,-300 2907.4,-299.76 2910.49,-299.5 2913.61,-299.22"/>
<polygon fill="#63b8ff" stroke="#63b8ff" points="1932.98,-340.23 1923.05,-343.94 1933.13,-347.23 1932.98,-340.23"/>
</a>
</g>
</g>
<!-- Node22 -->
<g id="Node000022" class="node">
<title>Node22</title>
<g id="a_Node000022"><a xlink:href="_params_from_s_d_8cpp.html" target="_top" xlink:title=" ">
<polygon fill="white" stroke="#666666" points="3234.25,-300 3070.5,-300 3070.5,-280 3234.25,-280 3234.25,-300"/>
<text text-anchor="middle" x="3152.38" y="-286.5" font-family="Helvetica,sans-Serif" font-size="10.00">ExoCode/src/ParamsFromSD.cpp</text>
</a>
</g>
</g>
<!-- Node1&#45;&gt;Node22 -->
<g id="edge22_Node000001_Node000022" class="edge">
<title>Node1&#45;&gt;Node22</title>
<g id="a_edge22_Node000001_Node000022"><a xlink:title=" ">
<path fill="none" stroke="#63b8ff" d="M1932.89,-343.93C2115.24,-340.72 2632.87,-329.52 3062.38,-300 3065.04,-299.82 3067.74,-299.62 3070.48,-299.41"/>
<polygon fill="#63b8ff" stroke="#63b8ff" points="1933.08,-340.44 1923.14,-344.12 1933.2,-347.44 1933.08,-340.44"/>
</a>
</g>
</g>
<!-- Node23 -->
<g id="Node000023" class="node">
<title>Node23</title>
<g id="a_Node000023"><a xlink:href="_parse_ini_8cpp.html" target="_top" xlink:title=" ">
<polygon fill="white" stroke="#666666" points="3382,-300 3252.75,-300 3252.75,-280 3382,-280 3382,-300"/>
<text text-anchor="middle" x="3317.38" y="-286.5" font-family="Helvetica,sans-Serif" font-size="10.00">ExoCode/src/ParseIni.cpp</text>
</a>
</g>
</g>
<!-- Node1&#45;&gt;Node23 -->
<g id="edge23_Node000001_Node000023" class="edge">
<title>Node1&#45;&gt;Node23</title>
<g id="a_edge23_Node000001_Node000023"><a xlink:title=" ">
<path fill="none" stroke="#63b8ff" d="M1933.18,-344.9C2133.7,-344.17 2741.25,-338.66 3243.38,-300 3246.34,-299.77 3249.37,-299.51 3252.44,-299.23"/>
<polygon fill="#63b8ff" stroke="#63b8ff" points="1933.23,-341.41 1923.24,-344.94 1933.26,-348.41 1933.23,-341.41"/>
</a>
</g>
</g>
<!-- Node24 -->
<g id="Node000024" class="node">
<title>Node24</title>
<g id="a_Node000024"><a xlink:href="_status_defs_8cpp.html" target="_top" xlink:title=" ">
<polygon fill="white" stroke="#666666" points="3542.38,-300 3400.38,-300 3400.38,-280 3542.38,-280 3542.38,-300"/>
<text text-anchor="middle" x="3471.38" y="-286.5" font-family="Helvetica,sans-Serif" font-size="10.00">ExoCode/src/StatusDefs.cpp</text>
</a>
</g>
</g>
<!-- Node1&#45;&gt;Node24 -->
<g id="edge24_Node000001_Node000024" class="edge">
<title>Node1&#45;&gt;Node24</title>
<g id="a_edge24_Node000001_Node000024"><a xlink:title=" ">
<path fill="none" stroke="#63b8ff" d="M1932.64,-345C2146.28,-344.56 2828.44,-339.9 3391.38,-300 3394.3,-299.79 3397.29,-299.56 3400.3,-299.3"/>
<polygon fill="#63b8ff" stroke="#63b8ff" points="1932.92,-341.5 1922.93,-345.01 1932.93,-348.5 1932.92,-341.5"/>
</a>
</g>
</g>
<!-- Node25 -->
<g id="Node000025" class="node">
<title>Node25</title>
<g id="a_Node000025"><a xlink:href="_sync_led_8cpp.html" target="_top" xlink:title=" ">
<polygon fill="white" stroke="#666666" points="3692.5,-300 3560.25,-300 3560.25,-280 3692.5,-280 3692.5,-300"/>
<text text-anchor="middle" x="3626.38" y="-286.5" font-family="Helvetica,sans-Serif" font-size="10.00">ExoCode/src/SyncLed.cpp</text>
</a>
</g>
</g>
<!-- Node1&#45;&gt;Node25 -->
<g id="edge25_Node000001_Node000025" class="edge">
<title>Node1&#45;&gt;Node25</title>
<g id="a_edge25_Node000001_Node000025"><a xlink:title=" ">
<path fill="none" stroke="#63b8ff" d="M1933.01,-345.44C2161.21,-346.46 2923.57,-345.95 3551.38,-300 3554.25,-299.79 3557.19,-299.55 3560.15,-299.28"/>
<polygon fill="#63b8ff" stroke="#63b8ff" points="1933.25,-341.94 1923.23,-345.39 1933.22,-348.94 1933.25,-341.94"/>
</a>
</g>
</g>
<!-- Node26 -->
<g id="Node000026" class="node">
<title>Node26</title>
<g id="a_Node000026"><a xlink:href="_th_i_m_u_8cpp.html" target="_top" xlink:title=" ">
<polygon fill="white" stroke="#666666" points="3832.25,-300 3710.5,-300 3710.5,-280 3832.25,-280 3832.25,-300"/>
<text text-anchor="middle" x="3771.38" y="-286.5" font-family="Helvetica,sans-Serif" font-size="10.00">ExoCode/src/ThIMU.cpp</text>
</a>
</g>
</g>
<!-- Node1&#45;&gt;Node26 -->
<g id="edge26_Node000001_Node000026" class="edge">
<title>Node1&#45;&gt;Node26</title>
<g id="a_edge26_Node000001_Node000026"><a xlink:title=" ">
<path fill="none" stroke="#63b8ff" d="M1932.76,-344.28C2220.5,-341.08 3347.47,-327.02 3701.38,-300 3704.31,-299.78 3707.3,-299.52 3710.33,-299.23"/>
<polygon fill="#63b8ff" stroke="#63b8ff" points="1933.04,-340.79 1923.08,-344.4 1933.12,-347.79 1933.04,-340.79"/>
</a>
</g>
</g>
<!-- Node27 -->
<g id="Node000027" class="node">
<title>Node27</title>
<g id="a_Node000027"><a xlink:href="_time___helper_8cpp.html" target="_top" xlink:title=" ">
<polygon fill="white" stroke="#666666" points="3998.38,-300 3850.38,-300 3850.38,-280 3998.38,-280 3998.38,-300"/>
<text text-anchor="middle" x="3924.38" y="-286.5" font-family="Helvetica,sans-Serif" font-size="10.00">ExoCode/src/Time_Helper.cpp</text>
</a>
</g>
</g>
<!-- Node1&#45;&gt;Node27 -->
<g id="edge27_Node000001_Node000027" class="edge">
<title>Node1&#45;&gt;Node27</title>
<g id="a_edge27_Node000001_Node000027"><a xlink:title=" ">
<path fill="none" stroke="#63b8ff" d="M1932.87,-344.24C2234.17,-340.71 3458.12,-325.1 3841.38,-300 3844.27,-299.81 3847.21,-299.6 3850.19,-299.36"/>
<polygon fill="#63b8ff" stroke="#63b8ff" points="1933.09,-340.75 1923.13,-344.36 1933.17,-347.75 1933.09,-340.75"/>
</a>
</g>
</g>
<!-- Node28 -->
<g id="Node000028" class="node">
<title>Node28</title>
<g id="a_Node000028"><a xlink:href="_torque_sensor_8cpp.html" target="_top" xlink:title=" ">
<polygon fill="white" stroke="#666666" points="4170.38,-300 4016.38,-300 4016.38,-280 4170.38,-280 4170.38,-300"/>
<text text-anchor="middle" x="4093.38" y="-286.5" font-family="Helvetica,sans-Serif" font-size="10.00">ExoCode/src/TorqueSensor.cpp</text>
</a>
</g>
</g>
<!-- Node1&#45;&gt;Node28 -->
<g id="edge28_Node000001_Node000028" class="edge">
<title>Node1&#45;&gt;Node28</title>
<g id="a_edge28_Node000001_Node000028"><a xlink:title=" ">
<path fill="none" stroke="#63b8ff" d="M1932.76,-344.34C2249.15,-341.13 3589.36,-326.22 4007.38,-300 4010.22,-299.82 4013.12,-299.62 4016.05,-299.4"/>
<polygon fill="#63b8ff" stroke="#63b8ff" points="1932.9,-340.85 1922.94,-344.45 1932.97,-347.85 1932.9,-340.85"/>
</a>
</g>
</g>
<!-- Node29 -->
<g id="Node000029" class="node">
<title>Node29</title>
<g id="a_Node000029"><a xlink:href="_u_a_r_t_handler_8cpp.html" target="_top" xlink:title=" ">
<polygon fill="white" stroke="#666666" points="1414.62,-188 1262.12,-188 1262.12,-168 1414.62,-168 1414.62,-188"/>
<text text-anchor="middle" x="1338.38" y="-174.5" font-family="Helvetica,sans-Serif" font-size="10.00">ExoCode/src/UARTHandler.cpp</text>
</a>
</g>
</g>
<!-- Node1&#45;&gt;Node29 -->
<g id="edge29_Node000001_Node000029" class="edge">
<title>Node1&#45;&gt;Node29</title>
<g id="a_edge29_Node000001_Node000029"><a xlink:title=" ">
<path fill="none" stroke="#63b8ff" d="M1797.88,-343.71C1666.11,-340.53 1384.72,-330.25 1353.38,-300 1322.3,-270.02 1331.23,-210.98 1336.13,-188.24"/>
<polygon fill="#63b8ff" stroke="#63b8ff" points="1797.55,-347.23 1807.63,-343.96 1797.71,-340.23 1797.55,-347.23"/>
</a>
</g>
</g>
<!-- Node30 -->
<g id="Node000030" class="node">
<title>Node30</title>
<g id="a_Node000030"><a xlink:href="_u_a_r_t__msg__t_8h.html" target="_top" xlink:title=" ">
<polygon fill="white" stroke="#666666" points="1279,-300 1137.75,-300 1137.75,-280 1279,-280 1279,-300"/>
<text text-anchor="middle" x="1208.38" y="-286.5" font-family="Helvetica,sans-Serif" font-size="10.00">ExoCode/src/UART_msg_t.h</text>
</a>
</g>
</g>
<!-- Node1&#45;&gt;Node30 -->
<g id="edge30_Node000001_Node000030" class="edge">
<title>Node1&#45;&gt;Node30</title>
<g id="a_edge30_Node000001_Node000030"><a xlink:title=" ">
<path fill="none" stroke="#63b8ff" d="M1797.83,-339.52C1694.08,-331.1 1489.25,-314.43 1315.38,-300 1303.76,-299.04 1291.44,-298.01 1279.45,-297"/>
<polygon fill="#63b8ff" stroke="#63b8ff" points="1797.51,-343.09 1807.76,-340.41 1798.08,-336.11 1797.51,-343.09"/>
</a>
</g>
</g>
<!-- Node32 -->
<g id="Node000032" class="node">
<title>Node32</title>
<g id="a_Node000032"><a xlink:href="ble__commands_8h.html" target="_top" xlink:title="This file declares the BLE commands, and the functions that should be called when they are received.">
<polygon fill="white" stroke="#666666" points="1051.12,-132 901.62,-132 901.62,-112 1051.12,-112 1051.12,-132"/>
<text text-anchor="middle" x="976.38" y="-118.5" font-family="Helvetica,sans-Serif" font-size="10.00">ExoCode/src/ble_commands.h</text>
</a>
</g>
</g>
<!-- Node1&#45;&gt;Node32 -->
<g id="edge48_Node000001_Node000032" class="edge">
<title>Node1&#45;&gt;Node32</title>
<g id="a_edge48_Node000001_Node000032"><a xlink:title=" ">
<path fill="none" stroke="#63b8ff" d="M1797.95,-345.53C1628.45,-346.17 1188.24,-343.47 1049.38,-300 1004.05,-285.81 981.54,-285.46 958.38,-244 937.55,-206.73 960.52,-153.39 971.36,-132.2"/>
<polygon fill="#63b8ff" stroke="#63b8ff" points="1797.73,-349.02 1807.71,-345.48 1797.7,-342.02 1797.73,-349.02"/>
</a>
</g>
</g>
<!-- Node34 -->
<g id="Node000034" class="node">
<title>Node34</title>
<g id="a_Node000034"><a xlink:href="uart__commands_8h.html" target="_top" xlink:title=" ">
<polygon fill="white" stroke="#666666" points="1130,-188 976.75,-188 976.75,-168 1130,-168 1130,-188"/>
<text text-anchor="middle" x="1053.38" y="-174.5" font-family="Helvetica,sans-Serif" font-size="10.00">ExoCode/src/uart_commands.h</text>
</a>
</g>
</g>
<!-- Node1&#45;&gt;Node34 -->
<g id="edge49_Node000001_Node000034" class="edge">
<title>Node1&#45;&gt;Node34</title>
<g id="a_edge49_Node000001_Node000034"><a xlink:title=" ">
<path fill="none" stroke="#63b8ff" d="M1797.91,-344.25C1626.86,-341.88 1185.66,-332.63 1128.38,-300 1084.14,-274.8 1062.53,-211.81 1055.78,-188.16"/>
<polygon fill="#63b8ff" stroke="#63b8ff" points="1797.74,-347.76 1807.78,-344.4 1797.83,-340.76 1797.74,-347.76"/>
</a>
</g>
</g>
<!-- Node35 -->
<g id="Node000035" class="node">
<title>Node35</title>
<g id="a_Node000035"><a xlink:href="_utilities_8cpp.html" target="_top" xlink:title=" ">
<polygon fill="white" stroke="#666666" points="4314.5,-300 4188.25,-300 4188.25,-280 4314.5,-280 4314.5,-300"/>
<text text-anchor="middle" x="4251.38" y="-286.5" font-family="Helvetica,sans-Serif" font-size="10.00">ExoCode/src/Utilities.cpp</text>
</a>
</g>
</g>
<!-- Node1&#45;&gt;Node35 -->
<g id="edge47_Node000001_Node000035" class="edge">
<title>Node1&#45;&gt;Node35</title>
<g id="a_edge47_Node000001_Node000035"><a xlink:title=" ">
<path fill="none" stroke="#63b8ff" d="M1932.98,-344.64C2265.07,-342.75 3725.77,-332.67 4179.38,-300 4182.14,-299.8 4184.96,-299.57 4187.81,-299.31"/>
<polygon fill="#63b8ff" stroke="#63b8ff" points="1933.09,-341.15 1923.11,-344.71 1933.13,-348.15 1933.09,-341.15"/>
</a>
</g>
</g>
<!-- Node8&#45;&gt;Node9 -->
<g id="edge8_Node000008_Node000009" class="edge">
<title>Node8&#45;&gt;Node9</title>
<g id="a_edge8_Node000008_Node000009"><a xlink:title=" ">
<path fill="none" stroke="#63b8ff" d="M1489.45,-269C1491.17,-260.54 1493.1,-251.08 1494.48,-244.3"/>
<polygon fill="#63b8ff" stroke="#63b8ff" points="1485.86,-268.1 1487.29,-278.59 1492.72,-269.49 1485.86,-268.1"/>
</a>
</g>
</g>
<!-- Node30&#45;&gt;Node10 -->
<g id="edge31_Node000030_Node000010" class="edge">
<title>Node30&#45;&gt;Node10</title>
<g id="a_edge31_Node000030_Node000010"><a xlink:title=" ">
<path fill="none" stroke="#63b8ff" d="M1231.43,-273.69C1253.39,-259.55 1287.71,-238.58 1319.38,-224 1363.8,-203.54 1395,-227.84 1423.38,-188 1428.53,-180.76 1429.09,-174.81 1423.38,-168 1400.13,-140.31 1305.67,-129.65 1238.27,-125.55"/>
<polygon fill="#63b8ff" stroke="#63b8ff" points="1229.73,-271.27 1223.26,-279.66 1233.55,-277.14 1229.73,-271.27"/>
</a>
</g>
</g>
<!-- Node30&#45;&gt;Node13 -->
<g id="edge32_Node000030_Node000013" class="edge">
<title>Node30&#45;&gt;Node13</title>
<g id="a_edge32_Node000030_Node000013"><a xlink:title=" ">
<path fill="none" stroke="#63b8ff" d="M1251.52,-276.38C1312.24,-257.64 1417.94,-221.1 1439.38,-188 1452.34,-167.98 1427.02,-144.96 1409.7,-132.39"/>
<polygon fill="#63b8ff" stroke="#63b8ff" points="1250.64,-273.29 1242.09,-279.56 1252.68,-279.99 1250.64,-273.29"/>
</a>
</g>
</g>
<!-- Node31 -->
<g id="Node000031" class="node">
<title>Node31</title>
<g id="a_Node000031"><a xlink:href="_u_a_r_t_handler_8h.html" target="_top" xlink:title="Singleton class that manages the UART data. NOT THREAD SAFE. The class queues recieved messages.">
<polygon fill="white" stroke="#666666" points="1267.38,-244 1125.38,-244 1125.38,-224 1267.38,-224 1267.38,-244"/>
<text text-anchor="middle" x="1196.38" y="-230.5" font-family="Helvetica,sans-Serif" font-size="10.00">ExoCode/src/UARTHandler.h</text>
</a>
</g>
</g>
<!-- Node30&#45;&gt;Node31 -->
<g id="edge33_Node000030_Node000031" class="edge">
<title>Node30&#45;&gt;Node31</title>
<g id="a_edge33_Node000030_Node000031"><a xlink:title=" ">
<path fill="none" stroke="#63b8ff" d="M1203.93,-269C1202.05,-260.54 1199.95,-251.08 1198.44,-244.3"/>
<polygon fill="#63b8ff" stroke="#63b8ff" points="1200.7,-269.59 1206.28,-278.59 1207.53,-268.07 1200.7,-269.59"/>
</a>
</g>
</g>
<!-- Node30&#45;&gt;Node32 -->
<g id="edge45_Node000030_Node000032" class="edge">
<title>Node30&#45;&gt;Node32</title>
<g id="a_edge45_Node000030_Node000032"><a xlink:title=" ">
<path fill="none" stroke="#63b8ff" d="M1126.75,-278.65C1071.27,-266.85 1001.91,-241.67 967.38,-188 956.28,-170.76 965.24,-145.63 971.53,-132.23"/>
<polygon fill="#63b8ff" stroke="#63b8ff" points="1125.8,-282.23 1136.29,-280.77 1127.18,-275.37 1125.8,-282.23"/>
</a>
</g>
</g>
<!-- Node30&#45;&gt;Node34 -->
<g id="edge46_Node000030_Node000034" class="edge">
<title>Node30&#45;&gt;Node34</title>
<g id="a_edge46_Node000030_Node000034"><a xlink:title=" ">
<path fill="none" stroke="#63b8ff" d="M1173.59,-275.4C1155.66,-267.57 1133.94,-256.75 1116.38,-244 1093.48,-227.38 1071.64,-202 1060.68,-188.39"/>
<polygon fill="#63b8ff" stroke="#63b8ff" points="1172.08,-278.99 1182.65,-279.66 1174.81,-272.54 1172.08,-278.99"/>
</a>
</g>
</g>
<!-- Node31&#45;&gt;Node10 -->
<g id="edge34_Node000031_Node000010" class="edge">
<title>Node31&#45;&gt;Node10</title>
<g id="a_edge34_Node000031_Node000010"><a xlink:title=" ">
<path fill="none" stroke="#63b8ff" d="M1191.18,-213.3C1184.89,-189.43 1174.54,-150.2 1169.84,-132.35"/>
<polygon fill="#63b8ff" stroke="#63b8ff" points="1187.97,-213.84 1193.9,-222.62 1194.74,-212.06 1187.97,-213.84"/>
</a>
</g>
</g>
<!-- Node31&#45;&gt;Node13 -->
<g id="edge35_Node000031_Node000013" class="edge">
<title>Node31&#45;&gt;Node13</title>
<g id="a_edge35_Node000031_Node000013"><a xlink:title=" ">
<path fill="none" stroke="#63b8ff" d="M1208.35,-214.51C1218.66,-199.95 1234.8,-180.14 1253.38,-168 1280.33,-150.39 1314.65,-139.26 1342.8,-132.48"/>
<polygon fill="#63b8ff" stroke="#63b8ff" points="1204.9,-212.35 1202.18,-222.59 1210.69,-216.29 1204.9,-212.35"/>
</a>
</g>
</g>
<!-- Node31&#45;&gt;Node29 -->
<g id="edge36_Node000031_Node000029" class="edge">
<title>Node31&#45;&gt;Node29</title>
<g id="a_edge36_Node000031_Node000029"><a xlink:title=" ">
<path fill="none" stroke="#63b8ff" d="M1231.11,-219.79C1256.6,-210.1 1290.62,-197.16 1313.45,-188.48"/>
<polygon fill="#63b8ff" stroke="#63b8ff" points="1230.21,-216.77 1222.11,-223.59 1232.7,-223.31 1230.21,-216.77"/>
</a>
</g>
</g>
<!-- Node31&#45;&gt;Node32 -->
<g id="edge37_Node000031_Node000032" class="edge">
<title>Node31&#45;&gt;Node32</title>
<g id="a_edge37_Node000031_Node000032"><a xlink:title=" ">
<path fill="none" stroke="#63b8ff" d="M1184.86,-214.8C1174.63,-200.09 1158.38,-179.92 1139.38,-168 1110.52,-149.91 1074.35,-138.97 1043.42,-132.42"/>
<polygon fill="#63b8ff" stroke="#63b8ff" points="1182.49,-216.56 1190.94,-222.95 1188.32,-212.68 1182.49,-216.56"/>
</a>
</g>
</g>
<!-- Node31&#45;&gt;Node34 -->
<g id="edge41_Node000031_Node000034" class="edge">
<title>Node31&#45;&gt;Node34</title>
<g id="a_edge41_Node000031_Node000034"><a xlink:title=" ">
<path fill="none" stroke="#63b8ff" d="M1161.4,-219.79C1135.73,-210.1 1101.47,-197.16 1078.48,-188.48"/>
<polygon fill="#63b8ff" stroke="#63b8ff" points="1159.87,-223.34 1170.47,-223.59 1162.35,-216.79 1159.87,-223.34"/>
</a>
</g>
</g>
<!-- Node32&#45;&gt;Node7 -->
<g id="edge38_Node000032_Node000007" class="edge">
<title>Node32&#45;&gt;Node7</title>
<g id="a_edge38_Node000032_Node000007"><a xlink:title=" ">
<path fill="none" stroke="#63b8ff" d="M989.8,-102.92C998.06,-89.44 1005.61,-70.86 997.38,-56 987.94,-38.98 969.09,-27.55 953.05,-20.47"/>
<polygon fill="#63b8ff" stroke="#63b8ff" points="986.56,-100.47 983.89,-110.72 992.37,-104.37 986.56,-100.47"/>
</a>
</g>
</g>
<!-- Node33 -->
<g id="Node000033" class="node">
<title>Node33</title>
<g id="a_Node000033"><a xlink:href="_ble_parser_8h.html" target="_top" xlink:title="This class is used to serialize and deserialize the BLE data. The application uses Nordic&#39;s UART serv...">
<polygon fill="white" stroke="#666666" points="988.5,-76 862.25,-76 862.25,-56 988.5,-56 988.5,-76"/>
<text text-anchor="middle" x="925.38" y="-62.5" font-family="Helvetica,sans-Serif" font-size="10.00">ExoCode/src/BleParser.h</text>
</a>
</g>
</g>
<!-- Node32&#45;&gt;Node33 -->
<g id="edge39_Node000032_Node000033" class="edge">
<title>Node32&#45;&gt;Node33</title>
<g id="a_edge39_Node000032_Node000033"><a xlink:title=" ">
<path fill="none" stroke="#63b8ff" d="M960.17,-103.85C951.56,-94.72 941.29,-83.86 934.16,-76.3"/>
<polygon fill="#63b8ff" stroke="#63b8ff" points="957.08,-105.73 966.49,-110.59 962.17,-100.92 957.08,-105.73"/>
</a>
</g>
</g>
<!-- Node33&#45;&gt;Node7 -->
<g id="edge40_Node000033_Node000007" class="edge">
<title>Node33&#45;&gt;Node7</title>
<g id="a_edge40_Node000033_Node000007"><a xlink:title=" ">
<path fill="none" stroke="#63b8ff" d="M925.38,-44.71C925.38,-36.32 925.38,-27.01 925.38,-20.3"/>
<polygon fill="#63b8ff" stroke="#63b8ff" points="921.88,-44.59 925.38,-54.59 928.88,-44.59 921.88,-44.59"/>
</a>
</g>
</g>
<!-- Node34&#45;&gt;Node10 -->
<g id="edge42_Node000034_Node000010" class="edge">
<title>Node34&#45;&gt;Node10</title>
<g id="a_edge42_Node000034_Node000010"><a xlink:title=" ">
<path fill="none" stroke="#63b8ff" d="M1082.91,-163.01C1103.17,-153.41 1129.52,-140.93 1147.36,-132.48"/>
<polygon fill="#63b8ff" stroke="#63b8ff" points="1081.77,-160.15 1074.23,-167.59 1084.77,-166.48 1081.77,-160.15"/>
</a>
</g>
</g>
<!-- Node34&#45;&gt;Node13 -->
<g id="edge43_Node000034_Node000013" class="edge">
<title>Node34&#45;&gt;Node13</title>
<g id="a_edge43_Node000034_Node000013"><a xlink:title=" ">
<path fill="none" stroke="#63b8ff" d="M1124.12,-165.83C1187.97,-155.75 1280.65,-141.11 1339.45,-131.83"/>
<polygon fill="#63b8ff" stroke="#63b8ff" points="1123.67,-162.52 1114.34,-167.53 1124.76,-169.43 1123.67,-162.52"/>
</a>
</g>
</g>
<!-- Node34&#45;&gt;Node32 -->
<g id="edge44_Node000034_Node000032" class="edge">
<title>Node34&#45;&gt;Node32</title>
<g id="a_edge44_Node000034_Node000032"><a xlink:title=" ">
<path fill="none" stroke="#63b8ff" d="M1031.33,-161.54C1017.97,-152.17 1001.34,-140.51 989.89,-132.48"/>
<polygon fill="#63b8ff" stroke="#63b8ff" points="1028.77,-164.72 1038.96,-167.59 1032.78,-158.99 1028.77,-164.72"/>
</a>
</g>
</g>
</g>
</svg>

<g id="navigator" transform="translate(0 0)" fill="#404254">
  <rect fill="#f2f5e9" fill-opacity="0.5" stroke="#606060" stroke-width=".5" x="0" y="0" width="60" height="60"/>
  <use id="zoomplus" xlink:href="#zoomPlus" x="17" y="9" onmousedown="handleZoom(evt,'in')"/>
  <use id="zoomminus" xlink:href="#zoomMin" x="42" y="9" onmousedown="handleZoom(evt,'out')"/>
  <use id="reset" xlink:href="#resetDef" x="30" y="36" onmousedown="handleReset()"/>
   <use id="arrowup" xlink:href="#arrowUp" x="0" y="0" onmousedown="handlePan(0,-1)"/>
  <use id="arrowright" xlink:href="#arrowRight" x="0" y="0" onmousedown="handlePan(1,0)"/>
  <use id="arrowdown" xlink:href="#arrowDown" x="0" y="0" onmousedown="handlePan(0,1)"/>
  <use id="arrowleft" xlink:href="#arrowLeft" x="0" y="0" onmousedown="handlePan(-1,0)"/>
</g>
<svg viewBox="0 0 15 15" width="100%" height="30px" preserveAspectRatio="xMaxYMin meet">
 <g id="arrow_out" transform="scale(0.3 0.3)">
  <a xlink:href="_logger_8h__dep__incl_org.svg" target="_base">
   <rect id="button" ry="5" rx="5" y="6" x="6" height="38" width="38"
        fill="#f2f5e9" fill-opacity="0.5" stroke="#606060" stroke-width="1.0"/>
   <path id="arrow"
     d="M 11.500037,31.436501 C 11.940474,20.09759 22.043105,11.32322 32.158766,21.979434 L 37.068811,17.246167 C 37.068811,17.246167 37.088388,32 37.088388,32 L 22.160133,31.978069 C 22.160133,31.978069 26.997745,27.140456 26.997745,27.140456 C 18.528582,18.264221 13.291696,25.230495 11.500037,31.436501 z"
     style="fill:#404040;"/>
  </a>
 </g>
</svg>

<style type='text/css'>
<![CDATA[
[data-mouse-over-selected='false'] { opacity: 0.7; }
[data-mouse-over-selected='true']  { opacity: 1.0; }
]]>
</style>
<script type="application/ecmascript"><![CDATA[
document.addEventListener('DOMContentLoaded', (event) => {
  highlightEdges();
  highlightAdjacentNodes();
});
]]></script>
</svg>
