<?xml version="1.0" encoding="UTF-8" standalone="no"?>
<!DOCTYPE svg PUBLIC "-//W3C//DTD SVG 1.1//EN"
 "http://www.w3.org/Graphics/SVG/1.1/DTD/svg11.dtd">
<!-- Generated by graphviz version 8.1.0 (20230707.0739)
 -->
<!-- Title: ExoCode/src/MotorData.h Pages: 1 -->
<svg width="206pt" height="196pt"
 viewBox="0.00 0.00 205.74 196.00" xmlns="http://www.w3.org/2000/svg" xmlns:xlink="http://www.w3.org/1999/xlink">

<svg id="main" version="1.1" xmlns="http://www.w3.org/2000/svg" xmlns:xlink="http://www.w3.org/1999/xlink" xml:space="preserve" onload="init(evt)">
<style type="text/css"><![CDATA[
.node, .edge {opacity: 0.7;}
.node.selected, .edge.selected {opacity: 1;}
.edge:hover path { stroke: red; }
.edge:hover polygon { stroke: red; fill: red; }
]]></style>
<script type="application/ecmascript" xlink:href="svg.min.js"/>
<svg id="graph" class="graph">
<g id="graph0" class="graph" transform="scale(1 1) rotate(0) translate(4 192)">
<title>ExoCode/src/MotorData.h</title>
<!-- Node1 -->
<g id="Node000001" class="node">
<title>Node1</title>
<g id="a_Node000001"><a xlink:title="Declares a class used to store data for motors to access.">
<polygon fill="#999999" stroke="#666666" points="134.49,-188 5.99,-188 5.99,-168 134.49,-168 134.49,-188"/>
<text text-anchor="middle" x="70.24" y="-174.5" font-family="Helvetica,sans-Serif" font-size="10.00">ExoCode/src/MotorData.h</text>
</a>
</g>
</g>
<!-- Node2 -->
<g id="Node000002" class="node">
<title>Node2</title>
<g id="a_Node000002"><a xlink:title=" ">
<polygon fill="#e0e0e0" stroke="#999999" points="112.87,-20 55.62,-20 55.62,0 112.87,0 112.87,-20"/>
<text text-anchor="middle" x="84.24" y="-6.5" font-family="Helvetica,sans-Serif" font-size="10.00">Arduino.h</text>
</a>
</g>
</g>
<!-- Node1&#45;&gt;Node2 -->
<g id="edge1_Node000001_Node000002" class="edge">
<title>Node1&#45;&gt;Node2</title>
<g id="a_edge1_Node000001_Node000002"><a xlink:title=" ">
<path fill="none" stroke="#63b8ff" d="M45.09,-167.63C29.7,-160.43 11.29,-148.83 2.24,-132 -1.97,-124.17 1.69,-120.87 2.24,-112 3.8,-86.97 -4.45,-77.02 9.24,-56 18.2,-42.25 32.96,-32.09 47.02,-24.94"/>
<polygon fill="#63b8ff" stroke="#63b8ff" points="48,-27.88 55.57,-20.46 45.03,-21.54 48,-27.88"/>
</a>
</g>
</g>
<!-- Node3 -->
<g id="Node000003" class="node">
<title>Node3</title>
<g id="a_Node000003"><a xlink:href="_parse_ini_8h.html" target="_top" xlink:title="Declares the functions needed and defines mapping between the INI keys and the exo components.">
<polygon fill="white" stroke="#666666" points="70.99,-132 11.49,-132 11.49,-112 70.99,-112 70.99,-132"/>
<text text-anchor="middle" x="41.24" y="-118.5" font-family="Helvetica,sans-Serif" font-size="10.00">ParseIni.h</text>
</a>
</g>
</g>
<!-- Node1&#45;&gt;Node3 -->
<g id="edge2_Node000001_Node000003" class="edge">
<title>Node1&#45;&gt;Node3</title>
<g id="a_edge2_Node000001_Node000003"><a xlink:title=" ">
<path fill="none" stroke="#63b8ff" d="M65.19,-167.59C61.36,-160.47 55.98,-150.45 51.29,-141.72"/>
<polygon fill="#63b8ff" stroke="#63b8ff" points="54.05,-140.45 46.24,-133.3 47.88,-143.76 54.05,-140.45"/>
</a>
</g>
</g>
<!-- Node4 -->
<g id="Node000004" class="node">
<title>Node4</title>
<g id="a_Node000004"><a xlink:title=" ">
<polygon fill="#e0e0e0" stroke="#999999" points="66.37,-76 18.12,-76 18.12,-56 66.37,-56 66.37,-76"/>
<text text-anchor="middle" x="42.24" y="-62.5" font-family="Helvetica,sans-Serif" font-size="10.00">stdint.h</text>
</a>
</g>
</g>
<!-- Node1&#45;&gt;Node4 -->
<g id="edge9_Node000001_Node000004" class="edge">
<title>Node1&#45;&gt;Node4</title>
<g id="a_edge9_Node000001_Node000004"><a xlink:title=" ">
<path fill="none" stroke="#63b8ff" d="M74.41,-167.89C79.66,-155.06 87.22,-131.09 80.24,-112 76.37,-101.42 68.8,-91.61 61.42,-83.87"/>
<polygon fill="#63b8ff" stroke="#63b8ff" points="64.29,-81.81 54.68,-77.35 59.41,-86.83 64.29,-81.81"/>
</a>
</g>
</g>
<!-- Node5 -->
<g id="Node000005" class="node">
<title>Node5</title>
<g id="a_Node000005"><a xlink:href="_board_8h.html" target="_top" xlink:title=" ">
<polygon fill="white" stroke="#666666" points="177.12,-132 127.37,-132 127.37,-112 177.12,-112 177.12,-132"/>
<text text-anchor="middle" x="152.24" y="-118.5" font-family="Helvetica,sans-Serif" font-size="10.00">Board.h</text>
</a>
</g>
</g>
<!-- Node1&#45;&gt;Node5 -->
<g id="edge4_Node000001_Node000005" class="edge">
<title>Node1&#45;&gt;Node5</title>
<g id="a_edge4_Node000001_Node000005"><a xlink:title=" ">
<path fill="none" stroke="#63b8ff" d="M84.53,-167.59C96.8,-159.51 114.72,-147.71 129.05,-138.27"/>
<polygon fill="#63b8ff" stroke="#63b8ff" points="130.42,-140.9 136.85,-132.48 126.57,-135.06 130.42,-140.9"/>
</a>
</g>
</g>
<!-- Node3&#45;&gt;Node4 -->
<g id="edge3_Node000003_Node000004" class="edge">
<title>Node3&#45;&gt;Node4</title>
<g id="a_edge3_Node000003_Node000004"><a xlink:title=" ">
<path fill="none" stroke="#63b8ff" d="M41.42,-111.59C41.54,-104.86 41.71,-95.53 41.87,-87.15"/>
<polygon fill="#63b8ff" stroke="#63b8ff" points="45.38,-87.36 42.07,-77.3 38.39,-87.23 45.38,-87.36"/>
</a>
</g>
</g>
<!-- Node5&#45;&gt;Node2 -->
<g id="edge8_Node000005_Node000002" class="edge">
<title>Node5&#45;&gt;Node2</title>
<g id="a_edge8_Node000005_Node000002"><a xlink:title=" ">
<path fill="none" stroke="#63b8ff" d="M144.18,-111.73C136.7,-102.9 125.51,-89.04 117.24,-76 107.81,-61.14 98.89,-43.24 92.71,-30"/>
<polygon fill="#63b8ff" stroke="#63b8ff" points="95.54,-28.77 88.2,-21.13 89.17,-31.68 95.54,-28.77"/>
</a>
</g>
</g>
<!-- Node6 -->
<g id="Node000006" class="node">
<title>Node6</title>
<g id="a_Node000006"><a xlink:href="_config_8h.html" target="_top" xlink:title=" ">
<polygon fill="white" stroke="#666666" points="177.87,-76 126.62,-76 126.62,-56 177.87,-56 177.87,-76"/>
<text text-anchor="middle" x="152.24" y="-62.5" font-family="Helvetica,sans-Serif" font-size="10.00">Config.h</text>
</a>
</g>
</g>
<!-- Node5&#45;&gt;Node6 -->
<g id="edge5_Node000005_Node000006" class="edge">
<title>Node5&#45;&gt;Node6</title>
<g id="a_edge5_Node000005_Node000006"><a xlink:title=" ">
<path fill="none" stroke="#63b8ff" d="M152.24,-111.59C152.24,-104.86 152.24,-95.53 152.24,-87.15"/>
<polygon fill="#63b8ff" stroke="#63b8ff" points="155.74,-87.3 152.24,-77.3 148.74,-87.3 155.74,-87.3"/>
</a>
</g>
</g>
<!-- Node6&#45;&gt;Node2 -->
<g id="edge6_Node000006_Node000002" class="edge">
<title>Node6&#45;&gt;Node2</title>
<g id="a_edge6_Node000006_Node000002"><a xlink:title=" ">
<path fill="none" stroke="#63b8ff" d="M140.4,-55.59C130.45,-47.7 116.03,-36.24 104.29,-26.92"/>
<polygon fill="#63b8ff" stroke="#63b8ff" points="106.96,-23.78 96.95,-20.3 102.61,-29.26 106.96,-23.78"/>
</a>
</g>
</g>
<!-- Node7 -->
<g id="Node000007" class="node">
<title>Node7</title>
<g id="a_Node000007"><a xlink:href="_log_levels_8h.html" target="_top" xlink:title=" ">
<polygon fill="white" stroke="#666666" points="197.74,-20 130.74,-20 130.74,0 197.74,0 197.74,-20"/>
<text text-anchor="middle" x="164.24" y="-6.5" font-family="Helvetica,sans-Serif" font-size="10.00">LogLevels.h</text>
</a>
</g>
</g>
<!-- Node6&#45;&gt;Node7 -->
<g id="edge7_Node000006_Node000007" class="edge">
<title>Node6&#45;&gt;Node7</title>
<g id="a_edge7_Node000006_Node000007"><a xlink:title=" ">
<path fill="none" stroke="#63b8ff" d="M154.33,-55.59C155.85,-48.78 157.95,-39.32 159.83,-30.86"/>
<polygon fill="#63b8ff" stroke="#63b8ff" points="163.42,-31.82 162.18,-21.3 156.59,-30.3 163.42,-31.82"/>
</a>
</g>
</g>
</g>
</svg>
</svg>

<style type='text/css'>
<![CDATA[
[data-mouse-over-selected='false'] { opacity: 0.7; }
[data-mouse-over-selected='true']  { opacity: 1.0; }
]]>
</style>
<script type="application/ecmascript"><![CDATA[
document.addEventListener('DOMContentLoaded', (event) => {
  highlightEdges();
  highlightAdjacentNodes();
});
]]></script>
</svg>
