<?xml version="1.0" encoding="UTF-8" standalone="no"?>
<!DOCTYPE svg PUBLIC "-//W3C//DTD SVG 1.1//EN"
 "http://www.w3.org/Graphics/SVG/1.1/DTD/svg11.dtd">
<!-- Generated by graphviz version 8.1.0 (20230707.0739)
 -->
<!-- Title: ExoCode/src/MotorData.h Pages: 1 -->
<!--zoomable 476 -->

<svg id="main" version="1.1" xmlns="http://www.w3.org/2000/svg" xmlns:xlink="http://www.w3.org/1999/xlink" xml:space="preserve" onload="init(evt)">
<style type="text/css"><![CDATA[
.node, .edge {opacity: 0.7;}
.node.selected, .edge.selected {opacity: 1;}
.edge:hover path { stroke: red; }
.edge:hover polygon { stroke: red; fill: red; }
]]></style>

<defs>
  <circle id="rim" cx="0" cy="0" r="7"/>
  <circle id="rim2" cx="0" cy="0" r="3.5"/>
  <g id="zoomPlus">
    <use xlink:href="#rim" fill="#404040"><set attributeName="fill" to="#808080" begin="zoomplus.mouseover" end="zoomplus.mouseout"/></use>
    <path d="M-4,0h8M0,-4v8" fill="none" stroke="white" stroke-width="1.5" pointer-events="none"/>
  </g>
  <g id="zoomMin">
    <use xlink:href="#rim" fill="#404040"><set attributeName="fill" to="#808080" begin="zoomminus.mouseover" end="zoomminus.mouseout"/></use>
    <path d="M-4,0h8" fill="none" stroke="white" stroke-width="1.5" pointer-events="none"/>
  </g>
  <g id="arrowUp" transform="translate(30 24)">
    <use xlink:href="#rim"/>
    <path pointer-events="none" fill="none" stroke="white" stroke-width="1.5" d="M0,-3.0v7 M-2.5,-0.5L0,-3.0L2.5,-0.5"/>
  </g>
  <g id="arrowRight" transform="rotate(90) translate(36 -43)">
    <use xlink:href="#rim"/>
    <path pointer-events="none" fill="none" stroke="white" stroke-width="1.5" d="M0,-3.0v7 M-2.5,-0.5L0,-3.0L2.5,-0.5"/>
  </g>
  <g id="arrowDown" transform="rotate(180) translate(-30 -48)">
    <use xlink:href="#rim"/>
    <path pointer-events="none" fill="none" stroke="white" stroke-width="1.5" d="M0,-3.0v7 M-2.5,-0.5L0,-3.0L2.5,-0.5"/>
  </g>
  <g id="arrowLeft" transform="rotate(270) translate(-36 17)">
    <use xlink:href="#rim"/>
    <path pointer-events="none" fill="none" stroke="white" stroke-width="1.5" d="M0,-3.0v7 M-2.5,-0.5L0,-3.0L2.5,-0.5"/>
  </g>
  <g id="resetDef">
    <use xlink:href="#rim2" fill="#404040"><set attributeName="fill" to="#808080" begin="reset.mouseover" end="reset.mouseout"/></use>
  </g>
</defs>
<script type="application/ecmascript">
var viewWidth = 883;
var viewHeight = 476;
var sectionId = 'dynsection-1';
</script>
<script type="application/ecmascript" xlink:href="svg.min.js"/>
<svg id="graph" class="graph">
<g id="viewport">
<title>ExoCode/src/MotorData.h</title>
<!-- Node1 -->
<g id="Node000001" class="node">
<title>Node1</title>
<g id="a_Node000001"><a xlink:title="Declares a class used to store data for motors to access.">
<polygon fill="#999999" stroke="#666666" points="301.5,-468 173,-468 173,-448 301.5,-448 301.5,-468"/>
<text text-anchor="middle" x="237.25" y="-454.5" font-family="Helvetica,sans-Serif" font-size="10.00">ExoCode/src/MotorData.h</text>
</a>
</g>
</g>
<!-- Node2 -->
<g id="Node000002" class="node">
<title>Node2</title>
<g id="a_Node000002"><a xlink:href="_joint_data_8h.html" target="_top" xlink:title="Declares a class used to store data for joint to access.">
<polygon fill="white" stroke="#666666" points="224.25,-412 100.25,-412 100.25,-392 224.25,-392 224.25,-412"/>
<text text-anchor="middle" x="162.25" y="-398.5" font-family="Helvetica,sans-Serif" font-size="10.00">ExoCode/src/JointData.h</text>
</a>
</g>
</g>
<!-- Node1&#45;&gt;Node2 -->
<g id="edge1_Node000001_Node000002" class="edge">
<title>Node1&#45;&gt;Node2</title>
<g id="a_edge1_Node000001_Node000002"><a xlink:title=" ">
<path fill="none" stroke="#63b8ff" d="M215.4,-441.27C202.45,-431.94 186.46,-420.43 175.42,-412.48"/>
<polygon fill="#63b8ff" stroke="#63b8ff" points="213.03,-444.59 223.19,-447.59 217.12,-438.91 213.03,-444.59"/>
</a>
</g>
</g>
<!-- Node20 -->
<g id="Node000020" class="node">
<title>Node20</title>
<g id="a_Node000020"><a xlink:href="_motor_data_8cpp.html" target="_top" xlink:title=" ">
<polygon fill="white" stroke="#666666" points="381.75,-412 242.75,-412 242.75,-392 381.75,-392 381.75,-412"/>
<text text-anchor="middle" x="312.25" y="-398.5" font-family="Helvetica,sans-Serif" font-size="10.00">ExoCode/src/MotorData.cpp</text>
</a>
</g>
</g>
<!-- Node1&#45;&gt;Node20 -->
<g id="edge28_Node000001_Node000020" class="edge">
<title>Node1&#45;&gt;Node20</title>
<g id="a_edge28_Node000001_Node000020"><a xlink:title=" ">
<path fill="none" stroke="#63b8ff" d="M259.1,-441.27C272.05,-431.94 288.04,-420.43 299.08,-412.48"/>
<polygon fill="#63b8ff" stroke="#63b8ff" points="257.38,-438.91 251.31,-447.59 261.47,-444.59 257.38,-438.91"/>
</a>
</g>
</g>
<!-- Node3 -->
<g id="Node000003" class="node">
<title>Node3</title>
<g id="a_Node000003"><a xlink:href="_joint_data_8cpp.html" target="_top" xlink:title=" ">
<polygon fill="white" stroke="#666666" points="134.5,-356 0,-356 0,-336 134.5,-336 134.5,-356"/>
<text text-anchor="middle" x="67.25" y="-342.5" font-family="Helvetica,sans-Serif" font-size="10.00">ExoCode/src/JointData.cpp</text>
</a>
</g>
</g>
<!-- Node2&#45;&gt;Node3 -->
<g id="edge2_Node000002_Node000003" class="edge">
<title>Node2&#45;&gt;Node3</title>
<g id="a_edge2_Node000002_Node000003"><a xlink:title=" ">
<path fill="none" stroke="#63b8ff" d="M136.47,-386.35C119.75,-376.84 98.45,-364.74 83.93,-356.48"/>
<polygon fill="#63b8ff" stroke="#63b8ff" points="134.28,-389.69 144.7,-391.59 137.74,-383.61 134.28,-389.69"/>
</a>
</g>
</g>
<!-- Node4 -->
<g id="Node000004" class="node">
<title>Node4</title>
<g id="a_Node000004"><a xlink:href="_leg_data_8h.html" target="_top" xlink:title="Declares a class used to store data for leg to access.">
<polygon fill="white" stroke="#666666" points="346,-356 226.5,-356 226.5,-336 346,-336 346,-356"/>
<text text-anchor="middle" x="286.25" y="-342.5" font-family="Helvetica,sans-Serif" font-size="10.00">ExoCode/src/LegData.h</text>
</a>
</g>
</g>
<!-- Node2&#45;&gt;Node4 -->
<g id="edge3_Node000002_Node000004" class="edge">
<title>Node2&#45;&gt;Node4</title>
<g id="a_edge3_Node000002_Node000004"><a xlink:title=" ">
<path fill="none" stroke="#63b8ff" d="M193.77,-387.27C215.89,-377.64 244.9,-365.01 264.48,-356.48"/>
<polygon fill="#63b8ff" stroke="#63b8ff" points="192.62,-384.39 184.85,-391.59 195.41,-390.81 192.62,-384.39"/>
</a>
</g>
</g>
<!-- Node14 -->
<g id="Node000014" class="node">
<title>Node14</title>
<g id="a_Node000014"><a xlink:href="uart__commands_8h.html" target="_top" xlink:title=" ">
<polygon fill="white" stroke="#666666" points="237.88,-188 84.62,-188 84.62,-168 237.88,-168 237.88,-188"/>
<text text-anchor="middle" x="161.25" y="-174.5" font-family="Helvetica,sans-Serif" font-size="10.00">ExoCode/src/uart_commands.h</text>
</a>
</g>
</g>
<!-- Node2&#45;&gt;Node14 -->
<g id="edge27_Node000002_Node000014" class="edge">
<title>Node2&#45;&gt;Node14</title>
<g id="a_edge27_Node000002_Node000014"><a xlink:title=" ">
<path fill="none" stroke="#63b8ff" d="M162.16,-380.75C161.95,-334.28 161.44,-221.43 161.29,-188.3"/>
<polygon fill="#63b8ff" stroke="#63b8ff" points="158.66,-380.76 162.21,-390.74 165.66,-380.73 158.66,-380.76"/>
</a>
</g>
</g>
<!-- Node5 -->
<g id="Node000005" class="node">
<title>Node5</title>
<g id="a_Node000005"><a xlink:href="_exo_data_8h.html" target="_top" xlink:title="Declares a class used to store data for the Exo to access.">
<polygon fill="white" stroke="#666666" points="505.75,-300 384.75,-300 384.75,-280 505.75,-280 505.75,-300"/>
<text text-anchor="middle" x="445.25" y="-286.5" font-family="Helvetica,sans-Serif" font-size="10.00">ExoCode/src/ExoData.h</text>
</a>
</g>
</g>
<!-- Node4&#45;&gt;Node5 -->
<g id="edge4_Node000004_Node000005" class="edge">
<title>Node4&#45;&gt;Node5</title>
<g id="a_edge4_Node000004_Node000005"><a xlink:title=" ">
<path fill="none" stroke="#63b8ff" d="M324.01,-332.18C352.67,-322.44 391.43,-309.28 417.34,-300.48"/>
<polygon fill="#63b8ff" stroke="#63b8ff" points="323.29,-329.06 314.95,-335.59 325.54,-335.69 323.29,-329.06"/>
</a>
</g>
</g>
<!-- Node19 -->
<g id="Node000019" class="node">
<title>Node19</title>
<g id="a_Node000019"><a xlink:href="_leg_data_8cpp.html" target="_top" xlink:title=" ">
<polygon fill="white" stroke="#666666" points="351.25,-300 221.25,-300 221.25,-280 351.25,-280 351.25,-300"/>
<text text-anchor="middle" x="286.25" y="-286.5" font-family="Helvetica,sans-Serif" font-size="10.00">ExoCode/src/LegData.cpp</text>
</a>
</g>
</g>
<!-- Node4&#45;&gt;Node19 -->
<g id="edge26_Node000004_Node000019" class="edge">
<title>Node4&#45;&gt;Node19</title>
<g id="a_edge26_Node000004_Node000019"><a xlink:title=" ">
<path fill="none" stroke="#63b8ff" d="M286.25,-324.71C286.25,-316.32 286.25,-307.01 286.25,-300.3"/>
<polygon fill="#63b8ff" stroke="#63b8ff" points="282.75,-324.59 286.25,-334.59 289.75,-324.59 282.75,-324.59"/>
</a>
</g>
</g>
<!-- Node6 -->
<g id="Node000006" class="node">
<title>Node6</title>
<g id="a_Node000006"><a xlink:href="_coms_m_c_u_8h.html" target="_top" xlink:title="The top of the composite structure for the communication microcontroller. This class manages the blue...">
<polygon fill="white" stroke="#666666" points="874.62,-244 743.88,-244 743.88,-224 874.62,-224 874.62,-244"/>
<text text-anchor="middle" x="809.25" y="-230.5" font-family="Helvetica,sans-Serif" font-size="10.00">ExoCode/src/ComsMCU.h</text>
</a>
</g>
</g>
<!-- Node5&#45;&gt;Node6 -->
<g id="edge5_Node000005_Node000006" class="edge">
<title>Node5&#45;&gt;Node6</title>
<g id="a_edge5_Node000005_Node000006"><a xlink:title=" ">
<path fill="none" stroke="#63b8ff" d="M516.98,-278.36C583.48,-268.49 681.5,-253.95 745.37,-244.48"/>
<polygon fill="#63b8ff" stroke="#63b8ff" points="516.55,-275.03 507.18,-279.96 517.58,-281.96 516.55,-275.03"/>
</a>
</g>
</g>
<!-- Node8 -->
<g id="Node000008" class="node">
<title>Node8</title>
<g id="a_Node000008"><a xlink:href="_exo_data_8cpp.html" target="_top" xlink:title=" ">
<polygon fill="white" stroke="#666666" points="608,-188 476.5,-188 476.5,-168 608,-168 608,-188"/>
<text text-anchor="middle" x="542.25" y="-174.5" font-family="Helvetica,sans-Serif" font-size="10.00">ExoCode/src/ExoData.cpp</text>
</a>
</g>
</g>
<!-- Node5&#45;&gt;Node8 -->
<g id="edge7_Node000005_Node000008" class="edge">
<title>Node5&#45;&gt;Node8</title>
<g id="a_edge7_Node000005_Node000008"><a xlink:title=" ">
<path fill="none" stroke="#63b8ff" d="M501.27,-275.81C517.6,-269.08 533.63,-259.01 543.25,-244 554.22,-226.9 549.27,-201.71 545.36,-188.26"/>
<polygon fill="#63b8ff" stroke="#63b8ff" points="500.27,-272.82 492.11,-279.58 502.71,-279.38 500.27,-272.82"/>
</a>
</g>
</g>
<!-- Node9 -->
<g id="Node000009" class="node">
<title>Node9</title>
<g id="a_Node000009"><a xlink:href="_params_from_s_d_8h.html" target="_top" xlink:title="Declares the functions to pull controller parameters from the SD card and defines the mapping to the ...">
<polygon fill="white" stroke="#666666" points="393.88,-244 240.62,-244 240.62,-224 393.88,-224 393.88,-244"/>
<text text-anchor="middle" x="317.25" y="-230.5" font-family="Helvetica,sans-Serif" font-size="10.00">ExoCode/src/ParamsFromSD.h</text>
</a>
</g>
</g>
<!-- Node5&#45;&gt;Node9 -->
<g id="edge8_Node000005_Node000009" class="edge">
<title>Node5&#45;&gt;Node9</title>
<g id="a_edge8_Node000005_Node000009"><a xlink:title=" ">
<path fill="none" stroke="#63b8ff" d="M413.02,-275.4C390.15,-265.75 360.03,-253.05 339.72,-244.48"/>
<polygon fill="#63b8ff" stroke="#63b8ff" points="411.38,-278.93 421.95,-279.59 414.1,-272.48 411.38,-278.93"/>
</a>
</g>
</g>
<!-- Node11 -->
<g id="Node000011" class="node">
<title>Node11</title>
<g id="a_Node000011"><a xlink:href="ble__commands_8h.html" target="_top" xlink:title="This file declares the BLE commands, and the functions that should be called when they are received.">
<polygon fill="white" stroke="#666666" points="184,-132 34.5,-132 34.5,-112 184,-112 184,-132"/>
<text text-anchor="middle" x="109.25" y="-118.5" font-family="Helvetica,sans-Serif" font-size="10.00">ExoCode/src/ble_commands.h</text>
</a>
</g>
</g>
<!-- Node5&#45;&gt;Node11 -->
<g id="edge20_Node000005_Node000011" class="edge">
<title>Node5&#45;&gt;Node11</title>
<g id="a_edge20_Node000005_Node000011"><a xlink:title=" ">
<path fill="none" stroke="#63b8ff" d="M373.8,-280.68C275.66,-267.51 107.58,-238.08 75.25,-188 62.95,-168.96 84.19,-144.97 98.28,-132.12"/>
<polygon fill="#63b8ff" stroke="#63b8ff" points="373.16,-284.26 383.53,-282.09 374.08,-277.32 373.16,-284.26"/>
</a>
</g>
</g>
<!-- Node5&#45;&gt;Node14 -->
<g id="edge25_Node000005_Node000014" class="edge">
<title>Node5&#45;&gt;Node14</title>
<g id="a_edge25_Node000005_Node000014"><a xlink:title=" ">
<path fill="none" stroke="#63b8ff" d="M373.74,-278.18C321.53,-269.5 255.77,-256.7 231.25,-244 204.15,-229.97 179.85,-202.53 168.32,-188.2"/>
<polygon fill="#63b8ff" stroke="#63b8ff" points="372.89,-281.75 383.32,-279.92 374.02,-274.84 372.89,-281.75"/>
</a>
</g>
</g>
<!-- Node16 -->
<g id="Node000016" class="node">
<title>Node16</title>
<g id="a_Node000016"><a xlink:href="_pi_logger_8h.html" target="_top" xlink:title=" ">
<polygon fill="white" stroke="#666666" points="534.12,-244 412.38,-244 412.38,-224 534.12,-224 534.12,-244"/>
<text text-anchor="middle" x="473.25" y="-230.5" font-family="Helvetica,sans-Serif" font-size="10.00">ExoCode/src/PiLogger.h</text>
</a>
</g>
</g>
<!-- Node5&#45;&gt;Node16 -->
<g id="edge19_Node000005_Node000016" class="edge">
<title>Node5&#45;&gt;Node16</title>
<g id="a_edge19_Node000005_Node000016"><a xlink:title=" ">
<path fill="none" stroke="#63b8ff" d="M455.17,-269.87C459.67,-261.19 464.79,-251.32 468.43,-244.3"/>
<polygon fill="#63b8ff" stroke="#63b8ff" points="451.62,-268.11 450.13,-278.59 457.84,-271.33 451.62,-268.11"/>
</a>
</g>
</g>
<!-- Node17 -->
<g id="Node000017" class="node">
<title>Node17</title>
<g id="a_Node000017"><a xlink:href="error__types_8h.html" target="_top" xlink:title=" ">
<polygon fill="white" stroke="#666666" points="724.38,-244 592.12,-244 592.12,-224 724.38,-224 724.38,-244"/>
<text text-anchor="middle" x="658.25" y="-230.5" font-family="Helvetica,sans-Serif" font-size="10.00">ExoCode/src/error_types.h</text>
</a>
</g>
</g>
<!-- Node5&#45;&gt;Node17 -->
<g id="edge21_Node000005_Node000017" class="edge">
<title>Node5&#45;&gt;Node17</title>
<g id="a_edge21_Node000005_Node000017"><a xlink:title=" ">
<path fill="none" stroke="#63b8ff" d="M492.83,-276.94C531.48,-267.14 585.24,-253.51 620.86,-244.48"/>
<polygon fill="#63b8ff" stroke="#63b8ff" points="492.18,-273.74 483.35,-279.59 493.91,-280.53 492.18,-273.74"/>
</a>
</g>
</g>
<!-- Node7 -->
<g id="Node000007" class="node">
<title>Node7</title>
<g id="a_Node000007"><a xlink:href="_coms_m_c_u_8cpp.html" target="_top" xlink:title=" ">
<polygon fill="white" stroke="#666666" points="842.88,-132 701.62,-132 701.62,-112 842.88,-112 842.88,-132"/>
<text text-anchor="middle" x="772.25" y="-118.5" font-family="Helvetica,sans-Serif" font-size="10.00">ExoCode/src/ComsMCU.cpp</text>
</a>
</g>
</g>
<!-- Node6&#45;&gt;Node7 -->
<g id="edge6_Node000006_Node000007" class="edge">
<title>Node6&#45;&gt;Node7</title>
<g id="a_edge6_Node000006_Node000007"><a xlink:title=" ">
<path fill="none" stroke="#63b8ff" d="M802.62,-213.3C794.59,-189.43 781.4,-150.2 775.4,-132.35"/>
<polygon fill="#63b8ff" stroke="#63b8ff" points="799.59,-214.26 806.1,-222.62 806.22,-212.03 799.59,-214.26"/>
</a>
</g>
</g>
<!-- Node9&#45;&gt;Node8 -->
<g id="edge9_Node000009_Node000008" class="edge">
<title>Node9&#45;&gt;Node8</title>
<g id="a_edge9_Node000009_Node000008"><a xlink:title=" ">
<path fill="none" stroke="#63b8ff" d="M367.25,-221C408.13,-211.19 465.14,-197.51 502.85,-188.46"/>
<polygon fill="#63b8ff" stroke="#63b8ff" points="366.61,-217.79 357.7,-223.53 368.24,-224.6 366.61,-217.79"/>
</a>
</g>
</g>
<!-- Node10 -->
<g id="Node000010" class="node">
<title>Node10</title>
<g id="a_Node000010"><a xlink:href="_params_from_s_d_8cpp.html" target="_top" xlink:title=" ">
<polygon fill="white" stroke="#666666" points="420.12,-188 256.38,-188 256.38,-168 420.12,-168 420.12,-188"/>
<text text-anchor="middle" x="338.25" y="-174.5" font-family="Helvetica,sans-Serif" font-size="10.00">ExoCode/src/ParamsFromSD.cpp</text>
</a>
</g>
</g>
<!-- Node9&#45;&gt;Node10 -->
<g id="edge10_Node000009_Node000010" class="edge">
<title>Node9&#45;&gt;Node10</title>
<g id="a_edge10_Node000009_Node000010"><a xlink:title=" ">
<path fill="none" stroke="#63b8ff" d="M324.8,-213.58C328.15,-204.97 331.94,-195.24 334.63,-188.3"/>
<polygon fill="#63b8ff" stroke="#63b8ff" points="321.27,-212.01 320.91,-222.59 327.79,-214.54 321.27,-212.01"/>
</a>
</g>
</g>
<!-- Node9&#45;&gt;Node11 -->
<g id="edge11_Node000009_Node000011" class="edge">
<title>Node9&#45;&gt;Node11</title>
<g id="a_edge11_Node000009_Node000011"><a xlink:title=" ">
<path fill="none" stroke="#63b8ff" d="M374.67,-220.69C412.17,-210.05 450.55,-192.51 429.25,-168 425.23,-163.38 277.59,-144.1 184.28,-132.32"/>
<polygon fill="#63b8ff" stroke="#63b8ff" points="373.92,-217.53 365.17,-223.5 375.73,-224.29 373.92,-217.53"/>
</a>
</g>
</g>
<!-- Node9&#45;&gt;Node14 -->
<g id="edge15_Node000009_Node000014" class="edge">
<title>Node9&#45;&gt;Node14</title>
<g id="a_edge15_Node000009_Node000014"><a xlink:title=" ">
<path fill="none" stroke="#63b8ff" d="M279.84,-220.05C251.75,-210.33 213.94,-197.24 188.64,-188.48"/>
<polygon fill="#63b8ff" stroke="#63b8ff" points="278.48,-223.63 289.08,-223.59 280.77,-217.02 278.48,-223.63"/>
</a>
</g>
</g>
<!-- Node12 -->
<g id="Node000012" class="node">
<title>Node12</title>
<g id="a_Node000012"><a xlink:href="_ble_parser_8cpp.html" target="_top" xlink:title=" ">
<polygon fill="white" stroke="#666666" points="177.62,-20 40.88,-20 40.88,0 177.62,0 177.62,-20"/>
<text text-anchor="middle" x="109.25" y="-6.5" font-family="Helvetica,sans-Serif" font-size="10.00">ExoCode/src/BleParser.cpp</text>
</a>
</g>
</g>
<!-- Node11&#45;&gt;Node12 -->
<g id="edge12_Node000011_Node000012" class="edge">
<title>Node11&#45;&gt;Node12</title>
<g id="a_edge12_Node000011_Node000012"><a xlink:title=" ">
<path fill="none" stroke="#63b8ff" d="M95.8,-102.77C90.82,-94.94 85.78,-85.44 83.25,-76 77.77,-55.57 91.75,-32.89 101.27,-20.45"/>
<polygon fill="#63b8ff" stroke="#63b8ff" points="93.34,-104.37 101.87,-110.65 99.12,-100.42 93.34,-104.37"/>
</a>
</g>
</g>
<!-- Node13 -->
<g id="Node000013" class="node">
<title>Node13</title>
<g id="a_Node000013"><a xlink:href="_ble_parser_8h.html" target="_top" xlink:title="This class is used to serialize and deserialize the BLE data. The application uses Nordic&#39;s UART serv...">
<polygon fill="white" stroke="#666666" points="218.38,-76 92.12,-76 92.12,-56 218.38,-56 218.38,-76"/>
<text text-anchor="middle" x="155.25" y="-62.5" font-family="Helvetica,sans-Serif" font-size="10.00">ExoCode/src/BleParser.h</text>
</a>
</g>
</g>
<!-- Node11&#45;&gt;Node13 -->
<g id="edge13_Node000011_Node000013" class="edge">
<title>Node11&#45;&gt;Node13</title>
<g id="a_edge13_Node000011_Node000013"><a xlink:title=" ">
<path fill="none" stroke="#63b8ff" d="M124.34,-103.29C132.01,-94.28 141.02,-83.7 147.33,-76.3"/>
<polygon fill="#63b8ff" stroke="#63b8ff" points="121.08,-100.71 117.26,-110.59 126.41,-105.25 121.08,-100.71"/>
</a>
</g>
</g>
<!-- Node13&#45;&gt;Node12 -->
<g id="edge14_Node000013_Node000012" class="edge">
<title>Node13&#45;&gt;Node12</title>
<g id="a_edge14_Node000013_Node000012"><a xlink:title=" ">
<path fill="none" stroke="#63b8ff" d="M140.16,-47.29C132.49,-38.28 123.48,-27.7 117.17,-20.3"/>
<polygon fill="#63b8ff" stroke="#63b8ff" points="138.09,-49.25 147.24,-54.59 143.42,-44.71 138.09,-49.25"/>
</a>
</g>
</g>
<!-- Node14&#45;&gt;Node7 -->
<g id="edge16_Node000014_Node000007" class="edge">
<title>Node14&#45;&gt;Node7</title>
<g id="a_edge16_Node000014_Node000007"><a xlink:title=" ">
<path fill="none" stroke="#63b8ff" d="M248.96,-167.85C417.55,-151.89 602.5,-136.63 701.31,-128.66"/>
<polygon fill="#63b8ff" stroke="#63b8ff" points="248.76,-164.45 239.14,-168.88 249.42,-171.42 248.76,-164.45"/>
</a>
</g>
</g>
<!-- Node14&#45;&gt;Node11 -->
<g id="edge18_Node000014_Node000011" class="edge">
<title>Node14&#45;&gt;Node11</title>
<g id="a_edge18_Node000014_Node000011"><a xlink:title=" ">
<path fill="none" stroke="#63b8ff" d="M144.73,-159.85C135.94,-150.72 125.48,-139.86 118.2,-132.3"/>
<polygon fill="#63b8ff" stroke="#63b8ff" points="141.73,-161.82 151.19,-166.59 146.78,-156.96 141.73,-161.82"/>
</a>
</g>
</g>
<!-- Node15 -->
<g id="Node000015" class="node">
<title>Node15</title>
<g id="a_Node000015"><a xlink:href="_exo_8cpp.html" target="_top" xlink:title=" ">
<polygon fill="white" stroke="#666666" points="312.88,-132 201.62,-132 201.62,-112 312.88,-112 312.88,-132"/>
<text text-anchor="middle" x="257.25" y="-118.5" font-family="Helvetica,sans-Serif" font-size="10.00">ExoCode/src/Exo.cpp</text>
</a>
</g>
</g>
<!-- Node14&#45;&gt;Node15 -->
<g id="edge17_Node000014_Node000015" class="edge">
<title>Node14&#45;&gt;Node15</title>
<g id="a_edge17_Node000014_Node000015"><a xlink:title=" ">
<path fill="none" stroke="#63b8ff" d="M187.3,-162.35C204.2,-152.84 225.72,-140.74 240.4,-132.48"/>
<polygon fill="#63b8ff" stroke="#63b8ff" points="185.97,-159.64 178.97,-167.59 189.4,-165.74 185.97,-159.64"/>
</a>
</g>
</g>
<!-- Node17&#45;&gt;Node7 -->
<g id="edge22_Node000017_Node000007" class="edge">
<title>Node17&#45;&gt;Node7</title>
<g id="a_edge22_Node000017_Node000007"><a xlink:title=" ">
<path fill="none" stroke="#63b8ff" d="M705.27,-219.78C722.48,-212.83 740.77,-202.62 753.25,-188 767.14,-171.72 770.88,-145.74 771.89,-132.07"/>
<polygon fill="#63b8ff" stroke="#63b8ff" points="704.46,-216.72 696.32,-223.5 706.91,-223.28 704.46,-216.72"/>
</a>
</g>
</g>
<!-- Node17&#45;&gt;Node8 -->
<g id="edge23_Node000017_Node000008" class="edge">
<title>Node17&#45;&gt;Node8</title>
<g id="a_edge23_Node000017_Node000008"><a xlink:title=" ">
<path fill="none" stroke="#63b8ff" d="M628.2,-219.01C607.58,-209.41 580.77,-196.93 562.61,-188.48"/>
<polygon fill="#63b8ff" stroke="#63b8ff" points="626.5,-222.55 637.04,-223.59 629.46,-216.2 626.5,-222.55"/>
</a>
</g>
</g>
<!-- Node18 -->
<g id="Node000018" class="node">
<title>Node18</title>
<g id="a_Node000018"><a xlink:href="_motor_8cpp.html" target="_top" xlink:title=" ">
<polygon fill="white" stroke="#666666" points="744.62,-188 625.88,-188 625.88,-168 744.62,-168 744.62,-188"/>
<text text-anchor="middle" x="685.25" y="-174.5" font-family="Helvetica,sans-Serif" font-size="10.00">ExoCode/src/Motor.cpp</text>
</a>
</g>
</g>
<!-- Node17&#45;&gt;Node18 -->
<g id="edge24_Node000017_Node000018" class="edge">
<title>Node17&#45;&gt;Node18</title>
<g id="a_edge24_Node000017_Node000018"><a xlink:title=" ">
<path fill="none" stroke="#63b8ff" d="M667.82,-213.87C672.16,-205.19 677.09,-195.32 680.6,-188.3"/>
<polygon fill="#63b8ff" stroke="#63b8ff" points="664.29,-212.08 662.95,-222.59 670.56,-215.21 664.29,-212.08"/>
</a>
</g>
</g>
</g>
</svg>

<g id="navigator" transform="translate(0 0)" fill="#404254">
  <rect fill="#f2f5e9" fill-opacity="0.5" stroke="#606060" stroke-width=".5" x="0" y="0" width="60" height="60"/>
  <use id="zoomplus" xlink:href="#zoomPlus" x="17" y="9" onmousedown="handleZoom(evt,'in')"/>
  <use id="zoomminus" xlink:href="#zoomMin" x="42" y="9" onmousedown="handleZoom(evt,'out')"/>
  <use id="reset" xlink:href="#resetDef" x="30" y="36" onmousedown="handleReset()"/>
   <use id="arrowup" xlink:href="#arrowUp" x="0" y="0" onmousedown="handlePan(0,-1)"/>
  <use id="arrowright" xlink:href="#arrowRight" x="0" y="0" onmousedown="handlePan(1,0)"/>
  <use id="arrowdown" xlink:href="#arrowDown" x="0" y="0" onmousedown="handlePan(0,1)"/>
  <use id="arrowleft" xlink:href="#arrowLeft" x="0" y="0" onmousedown="handlePan(-1,0)"/>
</g>
<svg viewBox="0 0 15 15" width="100%" height="30px" preserveAspectRatio="xMaxYMin meet">
 <g id="arrow_out" transform="scale(0.3 0.3)">
  <a xlink:href="_motor_data_8h__dep__incl_org.svg" target="_base">
   <rect id="button" ry="5" rx="5" y="6" x="6" height="38" width="38"
        fill="#f2f5e9" fill-opacity="0.5" stroke="#606060" stroke-width="1.0"/>
   <path id="arrow"
     d="M 11.500037,31.436501 C 11.940474,20.09759 22.043105,11.32322 32.158766,21.979434 L 37.068811,17.246167 C 37.068811,17.246167 37.088388,32 37.088388,32 L 22.160133,31.978069 C 22.160133,31.978069 26.997745,27.140456 26.997745,27.140456 C 18.528582,18.264221 13.291696,25.230495 11.500037,31.436501 z"
     style="fill:#404040;"/>
  </a>
 </g>
</svg>

<style type='text/css'>
<![CDATA[
[data-mouse-over-selected='false'] { opacity: 0.7; }
[data-mouse-over-selected='true']  { opacity: 1.0; }
]]>
</style>
<script type="application/ecmascript"><![CDATA[
document.addEventListener('DOMContentLoaded', (event) => {
  highlightEdges();
  highlightAdjacentNodes();
});
]]></script>
</svg>
