<?xml version="1.0" encoding="UTF-8" standalone="no"?>
<!DOCTYPE svg PUBLIC "-//W3C//DTD SVG 1.1//EN"
 "http://www.w3.org/Graphics/SVG/1.1/DTD/svg11.dtd">
<!-- Generated by graphviz version 8.1.0 (20230707.0739)
 -->
<!-- Title: ExoCode/src/Motor.cpp Pages: 1 -->
<svg width="1362pt" height="476pt"
 viewBox="0.00 0.00 1362.26 476.00" xmlns="http://www.w3.org/2000/svg" xmlns:xlink="http://www.w3.org/1999/xlink">
<g id="graph0" class="graph" transform="scale(1 1) rotate(0) translate(4 472)">
<title>ExoCode/src/Motor.cpp</title>
<!-- Node1 -->
<g id="Node000001" class="node">
<title>Node1</title>
<g id="a_Node000001"><a xlink:title=" ">
<polygon fill="#999999" stroke="#666666" points="1095.26,-468 976.51,-468 976.51,-448 1095.26,-448 1095.26,-468"/>
<text text-anchor="middle" x="1035.88" y="-454.5" font-family="Helvetica,sans-Serif" font-size="10.00">ExoCode/src/Motor.cpp</text>
</a>
</g>
</g>
<!-- Node2 -->
<g id="Node000002" class="node">
<title>Node2</title>
<g id="a_Node000002"><a xlink:title=" ">
<polygon fill="#e0e0e0" stroke="#999999" points="473.51,-20 416.26,-20 416.26,0 473.51,0 473.51,-20"/>
<text text-anchor="middle" x="444.88" y="-6.5" font-family="Helvetica,sans-Serif" font-size="10.00">Arduino.h</text>
</a>
</g>
</g>
<!-- Node1&#45;&gt;Node2 -->
<g id="edge1_Node000001_Node000002" class="edge">
<title>Node1&#45;&gt;Node2</title>
<g id="a_edge1_Node000001_Node000002"><a xlink:title=" ">
<path fill="none" stroke="#63b8ff" d="M1068,-447.55C1109.34,-433.17 1175.88,-401.56 1175.88,-347 1175.88,-347 1175.88,-347 1175.88,-121 1175.88,-40.94 1085.94,-73.82 1007.88,-56 815.4,-12.05 577.42,-9.4 484.58,-10.27"/>
<polygon fill="#63b8ff" stroke="#63b8ff" points="484.7,-6.78 474.74,-10.39 484.78,-13.78 484.7,-6.78"/>
</a>
</g>
</g>
<!-- Node3 -->
<g id="Node000003" class="node">
<title>Node3</title>
<g id="a_Node000003"><a xlink:href="_motor_8h.html" target="_top" xlink:title="Declares a class used to interface with motors.">
<polygon fill="white" stroke="#666666" points="1253.38,-412 1204.38,-412 1204.38,-392 1253.38,-392 1253.38,-412"/>
<text text-anchor="middle" x="1228.88" y="-398.5" font-family="Helvetica,sans-Serif" font-size="10.00">Motor.h</text>
</a>
</g>
</g>
<!-- Node1&#45;&gt;Node3 -->
<g id="edge2_Node000001_Node000003" class="edge">
<title>Node1&#45;&gt;Node3</title>
<g id="a_edge2_Node000001_Node000003"><a xlink:title=" ">
<path fill="none" stroke="#63b8ff" d="M1069.5,-447.59C1104.25,-437.87 1158.26,-422.76 1193.6,-412.87"/>
<polygon fill="#63b8ff" stroke="#63b8ff" points="1194.24,-416.05 1202.93,-409.98 1192.36,-409.31 1194.24,-416.05"/>
</a>
</g>
</g>
<!-- Node4 -->
<g id="Node000004" class="node">
<title>Node4</title>
<g id="a_Node000004"><a xlink:href="_c_a_n_8h.html" target="_top" xlink:title=" ">
<polygon fill="white" stroke="#666666" points="178.13,-188 133.63,-188 133.63,-168 178.13,-168 178.13,-188"/>
<text text-anchor="middle" x="155.88" y="-174.5" font-family="Helvetica,sans-Serif" font-size="10.00">CAN.h</text>
</a>
</g>
</g>
<!-- Node1&#45;&gt;Node4 -->
<g id="edge3_Node000001_Node000004" class="edge">
<title>Node1&#45;&gt;Node4</title>
<g id="a_edge3_Node000001_Node000004"><a xlink:title=" ">
<path fill="none" stroke="#63b8ff" d="M976.15,-455.77C779.07,-450.94 161.88,-429.25 161.88,-347 161.88,-347 161.88,-347 161.88,-289 161.88,-257.68 159.43,-221.41 157.66,-199.35"/>
<polygon fill="#63b8ff" stroke="#63b8ff" points="161.07,-199.08 156.74,-189.41 154.09,-199.66 161.07,-199.08"/>
</a>
</g>
</g>
<!-- Node5 -->
<g id="Node000005" class="node">
<title>Node5</title>
<g id="a_Node000005"><a xlink:href="_logger_8h.html" target="_top" xlink:title=" ">
<polygon fill="white" stroke="#666666" points="136.63,-132 83.13,-132 83.13,-112 136.63,-112 136.63,-132"/>
<text text-anchor="middle" x="109.88" y="-118.5" font-family="Helvetica,sans-Serif" font-size="10.00">Logger.h</text>
</a>
</g>
</g>
<!-- Node1&#45;&gt;Node5 -->
<g id="edge54_Node000001_Node000005" class="edge">
<title>Node1&#45;&gt;Node5</title>
<g id="a_edge54_Node000001_Node000005"><a xlink:title=" ">
<path fill="none" stroke="#63b8ff" d="M976.03,-456.45C816.83,-454.51 385.7,-446.19 247.88,-412 180.52,-395.29 105.88,-416.41 105.88,-347 105.88,-347 105.88,-347 105.88,-233 105.88,-201.7 107.52,-165.43 108.7,-143.36"/>
<polygon fill="#63b8ff" stroke="#63b8ff" points="112.25,-143.59 109.31,-133.41 105.26,-143.2 112.25,-143.59"/>
</a>
</g>
</g>
<!-- Node9 -->
<g id="Node000009" class="node">
<title>Node9</title>
<g id="a_Node000009"><a xlink:href="_error_manager_8h.html" target="_top" xlink:title=" ">
<polygon fill="white" stroke="#666666" points="1354.26,-412 1271.51,-412 1271.51,-392 1354.26,-392 1354.26,-412"/>
<text text-anchor="middle" x="1312.88" y="-398.5" font-family="Helvetica,sans-Serif" font-size="10.00">ErrorManager.h</text>
</a>
</g>
</g>
<!-- Node1&#45;&gt;Node9 -->
<g id="edge12_Node000001_Node000009" class="edge">
<title>Node1&#45;&gt;Node9</title>
<g id="a_edge12_Node000001_Node000009"><a xlink:title=" ">
<path fill="none" stroke="#63b8ff" d="M1084.45,-447.53C1133.74,-437.92 1209.81,-423.09 1260.45,-413.22"/>
<polygon fill="#63b8ff" stroke="#63b8ff" points="1261.02,-416.48 1270.17,-411.13 1259.68,-409.61 1261.02,-416.48"/>
</a>
</g>
</g>
<!-- Node10 -->
<g id="Node000010" class="node">
<title>Node10</title>
<g id="a_Node000010"><a xlink:href="error__types_8h.html" target="_top" xlink:title=" ">
<polygon fill="white" stroke="#666666" points="1040.38,-412 967.38,-412 967.38,-392 1040.38,-392 1040.38,-412"/>
<text text-anchor="middle" x="1003.88" y="-398.5" font-family="Helvetica,sans-Serif" font-size="10.00">error_types.h</text>
</a>
</g>
</g>
<!-- Node1&#45;&gt;Node10 -->
<g id="edge13_Node000001_Node000010" class="edge">
<title>Node1&#45;&gt;Node10</title>
<g id="a_edge13_Node000001_Node000010"><a xlink:title=" ">
<path fill="none" stroke="#63b8ff" d="M1030.31,-447.59C1026.09,-440.47 1020.15,-430.45 1014.97,-421.72"/>
<polygon fill="#63b8ff" stroke="#63b8ff" points="1017.5,-420.12 1009.39,-413.3 1011.48,-423.69 1017.5,-420.12"/>
</a>
</g>
</g>
<!-- Node4&#45;&gt;Node2 -->
<g id="edge11_Node000004_Node000002" class="edge">
<title>Node4&#45;&gt;Node2</title>
<g id="a_edge11_Node000004_Node000002"><a xlink:title=" ">
<path fill="none" stroke="#63b8ff" d="M158.72,-167.63C166.21,-144.6 188.83,-84.95 229.88,-56 282.43,-18.95 359.02,-11.18 405.19,-10.2"/>
<polygon fill="#63b8ff" stroke="#63b8ff" points="405,-13.69 414.96,-10.08 404.92,-6.69 405,-13.69"/>
</a>
</g>
</g>
<!-- Node4&#45;&gt;Node5 -->
<g id="edge4_Node000004_Node000005" class="edge">
<title>Node4&#45;&gt;Node5</title>
<g id="a_edge4_Node000004_Node000005"><a xlink:title=" ">
<path fill="none" stroke="#63b8ff" d="M147.87,-167.59C141.54,-160.16 132.52,-149.58 124.86,-140.58"/>
<polygon fill="#63b8ff" stroke="#63b8ff" points="126.95,-138.64 117.8,-133.3 121.62,-143.18 126.95,-138.64"/>
</a>
</g>
</g>
<!-- Node5&#45;&gt;Node2 -->
<g id="edge5_Node000005_Node000002" class="edge">
<title>Node5&#45;&gt;Node2</title>
<g id="a_edge5_Node000005_Node000002"><a xlink:title=" ">
<path fill="none" stroke="#63b8ff" d="M118.46,-111.72C132.38,-97.3 161.41,-69.73 191.88,-56 262.41,-24.24 353.46,-14.86 404.88,-12.11"/>
<polygon fill="#63b8ff" stroke="#63b8ff" points="405.02,-15.56 414.84,-11.59 404.69,-8.57 405.02,-15.56"/>
</a>
</g>
</g>
<!-- Node6 -->
<g id="Node000006" class="node">
<title>Node6</title>
<g id="a_Node000006"><a xlink:href="_log_levels_8h.html" target="_top" xlink:title=" ">
<polygon fill="white" stroke="#666666" points="83.38,-20 16.38,-20 16.38,0 83.38,0 83.38,-20"/>
<text text-anchor="middle" x="49.88" y="-6.5" font-family="Helvetica,sans-Serif" font-size="10.00">LogLevels.h</text>
</a>
</g>
</g>
<!-- Node5&#45;&gt;Node6 -->
<g id="edge6_Node000005_Node000006" class="edge">
<title>Node5&#45;&gt;Node6</title>
<g id="a_edge6_Node000005_Node000006"><a xlink:title=" ">
<path fill="none" stroke="#63b8ff" d="M82.84,-117.85C57.61,-113.31 21.32,-102.34 3.88,-76 -7.49,-58.82 9.97,-39.62 26.54,-26.57"/>
<polygon fill="#63b8ff" stroke="#63b8ff" points="28,-29.1 33.97,-20.34 23.85,-23.47 28,-29.1"/>
</a>
</g>
</g>
<!-- Node7 -->
<g id="Node000007" class="node">
<title>Node7</title>
<g id="a_Node000007"><a xlink:href="_config_8h.html" target="_top" xlink:title=" ">
<polygon fill="white" stroke="#666666" points="139.51,-76 88.26,-76 88.26,-56 139.51,-56 139.51,-76"/>
<text text-anchor="middle" x="113.88" y="-62.5" font-family="Helvetica,sans-Serif" font-size="10.00">Config.h</text>
</a>
</g>
</g>
<!-- Node5&#45;&gt;Node7 -->
<g id="edge7_Node000005_Node000007" class="edge">
<title>Node5&#45;&gt;Node7</title>
<g id="a_edge7_Node000005_Node000007"><a xlink:title=" ">
<path fill="none" stroke="#63b8ff" d="M110.58,-111.59C111.08,-104.86 111.77,-95.53 112.39,-87.15"/>
<polygon fill="#63b8ff" stroke="#63b8ff" points="115.95,-87.53 113.19,-77.3 108.97,-87.01 115.95,-87.53"/>
</a>
</g>
</g>
<!-- Node8 -->
<g id="Node000008" class="node">
<title>Node8</title>
<g id="a_Node000008"><a xlink:title=" ">
<polygon fill="#e0e0e0" stroke="#999999" points="70.51,-76 13.26,-76 13.26,-56 70.51,-56 70.51,-76"/>
<text text-anchor="middle" x="41.88" y="-62.5" font-family="Helvetica,sans-Serif" font-size="10.00">functional</text>
</a>
</g>
</g>
<!-- Node5&#45;&gt;Node8 -->
<g id="edge10_Node000005_Node000008" class="edge">
<title>Node5&#45;&gt;Node8</title>
<g id="a_edge10_Node000005_Node000008"><a xlink:title=" ">
<path fill="none" stroke="#63b8ff" d="M98.04,-111.59C88.09,-103.7 73.67,-92.24 61.93,-82.92"/>
<polygon fill="#63b8ff" stroke="#63b8ff" points="64.6,-79.78 54.59,-76.3 60.25,-85.26 64.6,-79.78"/>
</a>
</g>
</g>
<!-- Node7&#45;&gt;Node2 -->
<g id="edge8_Node000007_Node000002" class="edge">
<title>Node7&#45;&gt;Node2</title>
<g id="a_edge8_Node000007_Node000002"><a xlink:title=" ">
<path fill="none" stroke="#63b8ff" d="M139.65,-58.93C144.37,-57.9 149.27,-56.88 153.88,-56 243.16,-39.07 348.76,-23.96 404.97,-16.3"/>
<polygon fill="#63b8ff" stroke="#63b8ff" points="405.42,-19.63 414.86,-14.82 404.48,-12.7 405.42,-19.63"/>
</a>
</g>
</g>
<!-- Node7&#45;&gt;Node6 -->
<g id="edge9_Node000007_Node000006" class="edge">
<title>Node7&#45;&gt;Node6</title>
<g id="a_edge9_Node000007_Node000006"><a xlink:title=" ">
<path fill="none" stroke="#63b8ff" d="M102.74,-55.59C93.47,-47.77 80.06,-36.46 69.07,-27.19"/>
<polygon fill="#63b8ff" stroke="#63b8ff" points="71.8,-24.07 61.9,-20.3 67.29,-29.42 71.8,-24.07"/>
</a>
</g>
</g>
<!-- Node11 -->
<g id="Node000011" class="node">
<title>Node11</title>
<g id="a_Node000011"><a xlink:href="_exo_data_8h.html" target="_top" xlink:title="Declares a class used to store data for the Exo to access.">
<polygon fill="white" stroke="#666666" points="910.76,-356 849.01,-356 849.01,-336 910.76,-336 910.76,-356"/>
<text text-anchor="middle" x="879.88" y="-342.5" font-family="Helvetica,sans-Serif" font-size="10.00">ExoData.h</text>
</a>
</g>
</g>
<!-- Node10&#45;&gt;Node11 -->
<g id="edge14_Node000010_Node000011" class="edge">
<title>Node10&#45;&gt;Node11</title>
<g id="a_edge14_Node000010_Node000011"><a xlink:title=" ">
<path fill="none" stroke="#63b8ff" d="M982.28,-391.59C962.76,-383.09 933.76,-370.46 911.6,-360.81"/>
<polygon fill="#63b8ff" stroke="#63b8ff" points="913.22,-357.26 902.65,-356.48 910.42,-363.68 913.22,-357.26"/>
</a>
</g>
</g>
<!-- Node24 -->
<g id="Node000024" class="node">
<title>Node24</title>
<g id="a_Node000024"><a xlink:href="_exo_8h.html" target="_top" xlink:title="Declares for the different exo class that all the other components will live in.">
<polygon fill="white" stroke="#666666" points="1024.63,-356 983.13,-356 983.13,-336 1024.63,-336 1024.63,-356"/>
<text text-anchor="middle" x="1003.88" y="-342.5" font-family="Helvetica,sans-Serif" font-size="10.00">Exo.h</text>
</a>
</g>
</g>
<!-- Node10&#45;&gt;Node24 -->
<g id="edge53_Node000010_Node000024" class="edge">
<title>Node10&#45;&gt;Node24</title>
<g id="a_edge53_Node000010_Node000024"><a xlink:title=" ">
<path fill="none" stroke="#63b8ff" d="M1003.88,-391.59C1003.88,-384.86 1003.88,-375.53 1003.88,-367.15"/>
<polygon fill="#63b8ff" stroke="#63b8ff" points="1007.38,-367.3 1003.88,-357.3 1000.38,-367.3 1007.38,-367.3"/>
</a>
</g>
</g>
<!-- Node11&#45;&gt;Node2 -->
<g id="edge15_Node000011_Node000002" class="edge">
<title>Node11&#45;&gt;Node2</title>
<g id="a_edge15_Node000011_Node000002"><a xlink:title=" ">
<path fill="none" stroke="#63b8ff" d="M911,-340.28C945.84,-334.19 1003.4,-321.72 1048.88,-300 1093.08,-278.89 1137.88,-283.98 1137.88,-235 1137.88,-235 1137.88,-235 1137.88,-121 1137.88,-54.37 631.65,-21.28 484.53,-13.07"/>
<polygon fill="#63b8ff" stroke="#63b8ff" points="484.96,-9.54 474.78,-12.48 484.57,-16.52 484.96,-9.54"/>
</a>
</g>
</g>
<!-- Node12 -->
<g id="Node000012" class="node">
<title>Node12</title>
<g id="a_Node000012"><a xlink:href="_leg_data_8h.html" target="_top" xlink:title="Declares a class used to store data for leg to access.">
<polygon fill="white" stroke="#666666" points="856.01,-300 795.76,-300 795.76,-280 856.01,-280 856.01,-300"/>
<text text-anchor="middle" x="825.88" y="-286.5" font-family="Helvetica,sans-Serif" font-size="10.00">LegData.h</text>
</a>
</g>
</g>
<!-- Node11&#45;&gt;Node12 -->
<g id="edge16_Node000011_Node000012" class="edge">
<title>Node11&#45;&gt;Node12</title>
<g id="a_edge16_Node000011_Node000012"><a xlink:title=" ">
<path fill="none" stroke="#63b8ff" d="M870.48,-335.59C862.89,-328.01 852.02,-317.13 842.91,-308.02"/>
<polygon fill="#63b8ff" stroke="#63b8ff" points="845.73,-305.89 836.18,-301.3 840.78,-310.84 845.73,-305.89"/>
</a>
</g>
</g>
<!-- Node15 -->
<g id="Node000015" class="node">
<title>Node15</title>
<g id="a_Node000015"><a xlink:href="_parse_ini_8h.html" target="_top" xlink:title="Declares the functions needed and defines mapping between the INI keys and the exo components.">
<polygon fill="white" stroke="#666666" points="841.63,-132 782.13,-132 782.13,-112 841.63,-112 841.63,-132"/>
<text text-anchor="middle" x="811.88" y="-118.5" font-family="Helvetica,sans-Serif" font-size="10.00">ParseIni.h</text>
</a>
</g>
</g>
<!-- Node11&#45;&gt;Node15 -->
<g id="edge44_Node000011_Node000015" class="edge">
<title>Node11&#45;&gt;Node15</title>
<g id="a_edge44_Node000011_Node000015"><a xlink:title=" ">
<path fill="none" stroke="#63b8ff" d="M891.02,-335.87C923.03,-308.55 1010.27,-225.77 966.88,-168 953.17,-149.73 894.04,-136.48 852.92,-129.26"/>
<polygon fill="#63b8ff" stroke="#63b8ff" points="853.56,-125.65 843.11,-127.43 852.39,-132.55 853.56,-125.65"/>
</a>
</g>
</g>
<!-- Node16 -->
<g id="Node000016" class="node">
<title>Node16</title>
<g id="a_Node000016"><a xlink:title=" ">
<polygon fill="#e0e0e0" stroke="#999999" points="807.01,-76 758.76,-76 758.76,-56 807.01,-56 807.01,-76"/>
<text text-anchor="middle" x="782.88" y="-62.5" font-family="Helvetica,sans-Serif" font-size="10.00">stdint.h</text>
</a>
</g>
</g>
<!-- Node11&#45;&gt;Node16 -->
<g id="edge43_Node000011_Node000016" class="edge">
<title>Node11&#45;&gt;Node16</title>
<g id="a_edge43_Node000011_Node000016"><a xlink:title=" ">
<path fill="none" stroke="#63b8ff" d="M911.17,-340.61C963.21,-331.34 1061.88,-304.59 1061.88,-235 1061.88,-235 1061.88,-235 1061.88,-177 1061.88,-60.67 934.43,-107.61 817.77,-77.53"/>
<polygon fill="#63b8ff" stroke="#63b8ff" points="818.81,-73.91 808.24,-74.59 816.93,-80.65 818.81,-73.91"/>
</a>
</g>
</g>
<!-- Node17 -->
<g id="Node000017" class="node">
<title>Node17</title>
<g id="a_Node000017"><a xlink:href="_board_8h.html" target="_top" xlink:title=" ">
<polygon fill="white" stroke="#666666" points="469.76,-132 420.01,-132 420.01,-112 469.76,-112 469.76,-132"/>
<text text-anchor="middle" x="444.88" y="-118.5" font-family="Helvetica,sans-Serif" font-size="10.00">Board.h</text>
</a>
</g>
</g>
<!-- Node11&#45;&gt;Node17 -->
<g id="edge45_Node000011_Node000017" class="edge">
<title>Node11&#45;&gt;Node17</title>
<g id="a_edge45_Node000011_Node000017"><a xlink:title=" ">
<path fill="none" stroke="#63b8ff" d="M848.58,-344.59C750.05,-342.96 447.48,-335.15 356.88,-300 318.76,-285.21 301.97,-280.67 283.88,-244 255.1,-185.64 353.24,-148.19 408.99,-132.09"/>
<polygon fill="#63b8ff" stroke="#63b8ff" points="409.83,-135.21 418.52,-129.15 407.95,-128.46 409.83,-135.21"/>
</a>
</g>
</g>
<!-- Node22 -->
<g id="Node000022" class="node">
<title>Node22</title>
<g id="a_Node000022"><a xlink:href="_status_led_8h.html" target="_top" xlink:title="Class to set an RGB LED to different colors based on the state of the system.">
<polygon fill="white" stroke="#666666" points="361.13,-244 292.63,-244 292.63,-224 361.13,-224 361.13,-244"/>
<text text-anchor="middle" x="326.88" y="-230.5" font-family="Helvetica,sans-Serif" font-size="10.00">StatusLed.h</text>
</a>
</g>
</g>
<!-- Node11&#45;&gt;Node22 -->
<g id="edge46_Node000011_Node000022" class="edge">
<title>Node11&#45;&gt;Node22</title>
<g id="a_edge46_Node000011_Node000022"><a xlink:title=" ">
<path fill="none" stroke="#63b8ff" d="M848.6,-344.97C753.69,-344.43 470.58,-339.48 388.88,-300 367.46,-289.65 349.55,-268.54 338.58,-253.18"/>
<polygon fill="#63b8ff" stroke="#63b8ff" points="340.91,-251.4 332.4,-245.09 335.12,-255.33 340.91,-251.4"/>
</a>
</g>
</g>
<!-- Node23 -->
<g id="Node000023" class="node">
<title>Node23</title>
<g id="a_Node000023"><a xlink:href="_status_defs_8h.html" target="_top" xlink:title="Stores the different status messages for the system.">
<polygon fill="white" stroke="#666666" points="420.01,-188 347.76,-188 347.76,-168 420.01,-168 420.01,-188"/>
<text text-anchor="middle" x="383.88" y="-174.5" font-family="Helvetica,sans-Serif" font-size="10.00">StatusDefs.h</text>
</a>
</g>
</g>
<!-- Node11&#45;&gt;Node23 -->
<g id="edge52_Node000011_Node000023" class="edge">
<title>Node11&#45;&gt;Node23</title>
<g id="a_edge52_Node000011_Node000023"><a xlink:title=" ">
<path fill="none" stroke="#63b8ff" d="M848.72,-337.42C787.3,-322.17 646.61,-285.64 531.88,-244 489.64,-228.67 442.34,-207.09 412.84,-193.07"/>
<polygon fill="#63b8ff" stroke="#63b8ff" points="414.71,-189.61 404.18,-188.45 411.69,-195.93 414.71,-189.61"/>
</a>
</g>
</g>
<!-- Node12&#45;&gt;Node2 -->
<g id="edge17_Node000012_Node000002" class="edge">
<title>Node12&#45;&gt;Node2</title>
<g id="a_edge17_Node000012_Node000002"><a xlink:title=" ">
<path fill="none" stroke="#63b8ff" d="M795.39,-288.06C687.45,-284.54 327.58,-270.85 283.88,-244 254.98,-226.24 243.88,-212.92 243.88,-179 243.88,-179 243.88,-179 243.88,-121 243.88,-48.13 346.81,-23.22 405.36,-14.95"/>
<polygon fill="#63b8ff" stroke="#63b8ff" points="405.62,-18.31 415.09,-13.55 404.72,-11.37 405.62,-18.31"/>
</a>
</g>
</g>
<!-- Node13 -->
<g id="Node000013" class="node">
<title>Node13</title>
<g id="a_Node000013"><a xlink:href="_joint_data_8h.html" target="_top" xlink:title="Declares a class used to store data for joint to access.">
<polygon fill="white" stroke="#666666" points="723.26,-244 658.51,-244 658.51,-224 723.26,-224 723.26,-244"/>
<text text-anchor="middle" x="690.88" y="-230.5" font-family="Helvetica,sans-Serif" font-size="10.00">JointData.h</text>
</a>
</g>
</g>
<!-- Node12&#45;&gt;Node13 -->
<g id="edge18_Node000012_Node000013" class="edge">
<title>Node12&#45;&gt;Node13</title>
<g id="a_edge18_Node000012_Node000013"><a xlink:title=" ">
<path fill="none" stroke="#63b8ff" d="M802.37,-279.59C780.92,-271.01 748.96,-258.23 724.76,-248.55"/>
<polygon fill="#63b8ff" stroke="#63b8ff" points="726.17,-244.94 715.58,-244.48 723.57,-251.44 726.17,-244.94"/>
</a>
</g>
</g>
<!-- Node12&#45;&gt;Node15 -->
<g id="edge36_Node000012_Node000015" class="edge">
<title>Node12&#45;&gt;Node15</title>
<g id="a_edge36_Node000012_Node000015"><a xlink:title=" ">
<path fill="none" stroke="#63b8ff" d="M825.09,-279.6C822.88,-253.35 816.59,-178.84 813.56,-142.89"/>
<polygon fill="#63b8ff" stroke="#63b8ff" points="817,-142.97 812.67,-133.3 810.02,-143.56 817,-142.97"/>
</a>
</g>
</g>
<!-- Node12&#45;&gt;Node16 -->
<g id="edge42_Node000012_Node000016" class="edge">
<title>Node12&#45;&gt;Node16</title>
<g id="a_edge42_Node000012_Node000016"><a xlink:title=" ">
<path fill="none" stroke="#63b8ff" d="M856.28,-289.01C889.59,-287.19 941.65,-278.55 966.88,-244 986.81,-216.73 984.09,-197.07 966.88,-168 934.63,-113.5 861.38,-86.45 817.66,-74.7"/>
<polygon fill="#63b8ff" stroke="#63b8ff" points="818.77,-71.12 808.22,-72.03 817.04,-77.9 818.77,-71.12"/>
</a>
</g>
</g>
<!-- Node12&#45;&gt;Node17 -->
<g id="edge37_Node000012_Node000017" class="edge">
<title>Node12&#45;&gt;Node17</title>
<g id="a_edge37_Node000012_Node000017"><a xlink:title=" ">
<path fill="none" stroke="#63b8ff" d="M795.61,-288.18C730.21,-284.88 573.93,-268.49 478.88,-188 464.93,-176.18 455.93,-157.17 450.72,-142.75"/>
<polygon fill="#63b8ff" stroke="#63b8ff" points="453.77,-141.81 447.33,-133.4 447.12,-143.99 453.77,-141.81"/>
</a>
</g>
</g>
<!-- Node19 -->
<g id="Node000019" class="node">
<title>Node19</title>
<g id="a_Node000019"><a xlink:href="_inclination_detector_8h.html" target="_top" xlink:title=" ">
<polygon fill="white" stroke="#666666" points="958.13,-244 853.63,-244 853.63,-224 958.13,-224 958.13,-244"/>
<text text-anchor="middle" x="905.88" y="-230.5" font-family="Helvetica,sans-Serif" font-size="10.00">InclinationDetector.h</text>
</a>
</g>
</g>
<!-- Node12&#45;&gt;Node19 -->
<g id="edge38_Node000012_Node000019" class="edge">
<title>Node12&#45;&gt;Node19</title>
<g id="a_edge38_Node000012_Node000019"><a xlink:title=" ">
<path fill="none" stroke="#63b8ff" d="M839.82,-279.59C851.68,-271.59 868.95,-259.93 882.86,-250.54"/>
<polygon fill="#63b8ff" stroke="#63b8ff" points="884.51,-252.98 890.84,-244.48 880.59,-247.17 884.51,-252.98"/>
</a>
</g>
</g>
<!-- Node13&#45;&gt;Node2 -->
<g id="edge19_Node000013_Node000002" class="edge">
<title>Node13&#45;&gt;Node2</title>
<g id="a_edge19_Node000013_Node000002"><a xlink:title=" ">
<path fill="none" stroke="#63b8ff" d="M658.15,-230.16C625.75,-225.85 576.29,-215.02 542.88,-188 515.74,-166.04 471.67,-71.47 453.32,-30.29"/>
<polygon fill="#63b8ff" stroke="#63b8ff" points="456.19,-29.14 448.95,-21.4 449.79,-31.96 456.19,-29.14"/>
</a>
</g>
</g>
<!-- Node14 -->
<g id="Node000014" class="node">
<title>Node14</title>
<g id="a_Node000014"><a xlink:href="_motor_data_8h.html" target="_top" xlink:title="Declares a class used to store data for motors to access.">
<polygon fill="white" stroke="#666666" points="725.51,-188 656.26,-188 656.26,-168 725.51,-168 725.51,-188"/>
<text text-anchor="middle" x="690.88" y="-174.5" font-family="Helvetica,sans-Serif" font-size="10.00">MotorData.h</text>
</a>
</g>
</g>
<!-- Node13&#45;&gt;Node14 -->
<g id="edge20_Node000013_Node000014" class="edge">
<title>Node13&#45;&gt;Node14</title>
<g id="a_edge20_Node000013_Node000014"><a xlink:title=" ">
<path fill="none" stroke="#63b8ff" d="M690.88,-223.59C690.88,-216.86 690.88,-207.53 690.88,-199.15"/>
<polygon fill="#63b8ff" stroke="#63b8ff" points="694.38,-199.3 690.88,-189.3 687.38,-199.3 694.38,-199.3"/>
</a>
</g>
</g>
<!-- Node13&#45;&gt;Node15 -->
<g id="edge33_Node000013_Node000015" class="edge">
<title>Node13&#45;&gt;Node15</title>
<g id="a_edge33_Node000013_Node000015"><a xlink:title=" ">
<path fill="none" stroke="#63b8ff" d="M712.51,-223.61C728.97,-215.74 751.49,-203.34 767.88,-188 782.15,-174.64 794.25,-155.85 802.12,-141.9"/>
<polygon fill="#63b8ff" stroke="#63b8ff" points="805.61,-143.81 807.29,-133.35 799.45,-140.48 805.61,-143.81"/>
</a>
</g>
</g>
<!-- Node13&#45;&gt;Node16 -->
<g id="edge35_Node000013_Node000016" class="edge">
<title>Node13&#45;&gt;Node16</title>
<g id="a_edge35_Node000013_Node000016"><a xlink:title=" ">
<path fill="none" stroke="#63b8ff" d="M702.29,-223.65C712.02,-215.18 725.84,-201.93 734.88,-188 756.13,-155.27 770.55,-111.65 777.69,-86.72"/>
<polygon fill="#63b8ff" stroke="#63b8ff" points="781.25,-87.97 780.53,-77.4 774.5,-86.11 781.25,-87.97"/>
</a>
</g>
</g>
<!-- Node13&#45;&gt;Node17 -->
<g id="edge34_Node000013_Node000017" class="edge">
<title>Node13&#45;&gt;Node17</title>
<g id="a_edge34_Node000013_Node000017"><a xlink:title=" ">
<path fill="none" stroke="#63b8ff" d="M658.21,-230.19C620.39,-225.79 557.24,-214.77 509.88,-188 488.71,-176.03 469.72,-155.28 457.81,-140.45"/>
<polygon fill="#63b8ff" stroke="#63b8ff" points="460.24,-138.87 451.35,-133.1 454.7,-143.15 460.24,-138.87"/>
</a>
</g>
</g>
<!-- Node18 -->
<g id="Node000018" class="node">
<title>Node18</title>
<g id="a_Node000018"><a xlink:href="_controller_data_8h.html" target="_top" xlink:title="Declares a class used to store data for controllers to access.">
<polygon fill="white" stroke="#666666" points="637.76,-188 552.01,-188 552.01,-168 637.76,-168 637.76,-188"/>
<text text-anchor="middle" x="594.88" y="-174.5" font-family="Helvetica,sans-Serif" font-size="10.00">ControllerData.h</text>
</a>
</g>
</g>
<!-- Node13&#45;&gt;Node18 -->
<g id="edge28_Node000013_Node000018" class="edge">
<title>Node13&#45;&gt;Node18</title>
<g id="a_edge28_Node000013_Node000018"><a xlink:title=" ">
<path fill="none" stroke="#63b8ff" d="M674.16,-223.59C659.52,-215.36 638.01,-203.26 621.08,-193.74"/>
<polygon fill="#63b8ff" stroke="#63b8ff" points="623.17,-190.33 612.74,-188.48 619.74,-196.43 623.17,-190.33"/>
</a>
</g>
</g>
<!-- Node14&#45;&gt;Node2 -->
<g id="edge21_Node000014_Node000002" class="edge">
<title>Node14&#45;&gt;Node2</title>
<g id="a_edge21_Node000014_Node000002"><a xlink:title=" ">
<path fill="none" stroke="#63b8ff" d="M682.85,-167.56C663.53,-145.39 612.12,-89.3 558.88,-56 535.68,-41.49 507.01,-30.2 484.23,-22.56"/>
<polygon fill="#63b8ff" stroke="#63b8ff" points="485.49,-18.96 474.9,-19.2 483.33,-25.62 485.49,-18.96"/>
</a>
</g>
</g>
<!-- Node14&#45;&gt;Node15 -->
<g id="edge22_Node000014_Node000015" class="edge">
<title>Node14&#45;&gt;Node15</title>
<g id="a_edge22_Node000014_Node000015"><a xlink:title=" ">
<path fill="none" stroke="#63b8ff" d="M711.96,-167.59C730.93,-159.13 759.06,-146.58 780.64,-136.94"/>
<polygon fill="#63b8ff" stroke="#63b8ff" points="781.94,-139.75 789.64,-132.48 779.08,-133.36 781.94,-139.75"/>
</a>
</g>
</g>
<!-- Node14&#45;&gt;Node16 -->
<g id="edge27_Node000014_Node000016" class="edge">
<title>Node14&#45;&gt;Node16</title>
<g id="a_edge27_Node000014_Node000016"><a xlink:title=" ">
<path fill="none" stroke="#63b8ff" d="M697.22,-167.91C706.27,-155.11 723.6,-131.17 739.88,-112 747.98,-102.47 757.55,-92.35 765.61,-84.13"/>
<polygon fill="#63b8ff" stroke="#63b8ff" points="767.76,-86.92 772.32,-77.35 762.79,-81.99 767.76,-86.92"/>
</a>
</g>
</g>
<!-- Node14&#45;&gt;Node17 -->
<g id="edge24_Node000014_Node000017" class="edge">
<title>Node14&#45;&gt;Node17</title>
<g id="a_edge24_Node000014_Node000017"><a xlink:title=" ">
<path fill="none" stroke="#63b8ff" d="M655.9,-169.32C609.36,-159.1 527.51,-141.14 480.6,-130.84"/>
<polygon fill="#63b8ff" stroke="#63b8ff" points="481.54,-127.24 471.03,-128.52 480.04,-134.08 481.54,-127.24"/>
</a>
</g>
</g>
<!-- Node15&#45;&gt;Node16 -->
<g id="edge23_Node000015_Node000016" class="edge">
<title>Node15&#45;&gt;Node16</title>
<g id="a_edge23_Node000015_Node000016"><a xlink:title=" ">
<path fill="none" stroke="#63b8ff" d="M806.83,-111.59C803.01,-104.47 797.63,-94.45 792.93,-85.72"/>
<polygon fill="#63b8ff" stroke="#63b8ff" points="795.69,-84.45 787.88,-77.3 789.53,-87.76 795.69,-84.45"/>
</a>
</g>
</g>
<!-- Node17&#45;&gt;Node2 -->
<g id="edge26_Node000017_Node000002" class="edge">
<title>Node17&#45;&gt;Node2</title>
<g id="a_edge26_Node000017_Node000002"><a xlink:title=" ">
<path fill="none" stroke="#63b8ff" d="M444.88,-111.62C444.88,-93.92 444.88,-55.24 444.88,-31.32"/>
<polygon fill="#63b8ff" stroke="#63b8ff" points="448.38,-31.35 444.88,-21.35 441.38,-31.35 448.38,-31.35"/>
</a>
</g>
</g>
<!-- Node17&#45;&gt;Node7 -->
<g id="edge25_Node000017_Node000007" class="edge">
<title>Node17&#45;&gt;Node7</title>
<g id="a_edge25_Node000017_Node000007"><a xlink:title=" ">
<path fill="none" stroke="#63b8ff" d="M419.73,-116.9C361.71,-107.43 218.29,-84.03 150.5,-72.97"/>
<polygon fill="#63b8ff" stroke="#63b8ff" points="151.34,-69.4 140.91,-71.25 150.21,-76.31 151.34,-69.4"/>
</a>
</g>
</g>
<!-- Node18&#45;&gt;Node2 -->
<g id="edge30_Node000018_Node000002" class="edge">
<title>Node18&#45;&gt;Node2</title>
<g id="a_edge30_Node000018_Node000002"><a xlink:title=" ">
<path fill="none" stroke="#63b8ff" d="M592.75,-167.57C587.29,-145.4 570.88,-89.34 537.88,-56 523.05,-41.01 502.22,-30.3 484.04,-23.09"/>
<polygon fill="#63b8ff" stroke="#63b8ff" points="485.58,-19.56 474.98,-19.35 483.13,-26.12 485.58,-19.56"/>
</a>
</g>
</g>
<!-- Node18&#45;&gt;Node15 -->
<g id="edge32_Node000018_Node000015" class="edge">
<title>Node18&#45;&gt;Node15</title>
<g id="a_edge32_Node000018_Node000015"><a xlink:title=" ">
<path fill="none" stroke="#63b8ff" d="M632.68,-167.59C671.42,-157.95 731.45,-143.02 771.21,-133.12"/>
<polygon fill="#63b8ff" stroke="#63b8ff" points="771.99,-136.29 780.85,-130.47 770.3,-129.49 771.99,-136.29"/>
</a>
</g>
</g>
<!-- Node18&#45;&gt;Node16 -->
<g id="edge29_Node000018_Node000016" class="edge">
<title>Node18&#45;&gt;Node16</title>
<g id="a_edge29_Node000018_Node000016"><a xlink:title=" ">
<path fill="none" stroke="#63b8ff" d="M610.91,-167.62C643.59,-148.5 718.12,-104.89 757.47,-81.87"/>
<polygon fill="#63b8ff" stroke="#63b8ff" points="759.03,-84.43 765.9,-76.35 755.5,-78.38 759.03,-84.43"/>
</a>
</g>
</g>
<!-- Node18&#45;&gt;Node17 -->
<g id="edge31_Node000018_Node000017" class="edge">
<title>Node18&#45;&gt;Node17</title>
<g id="a_edge31_Node000018_Node000017"><a xlink:title=" ">
<path fill="none" stroke="#63b8ff" d="M568.76,-167.59C544.3,-158.79 507.57,-145.57 480.45,-135.8"/>
<polygon fill="#63b8ff" stroke="#63b8ff" points="481.81,-132.21 471.21,-132.12 479.44,-138.8 481.81,-132.21"/>
</a>
</g>
</g>
<!-- Node19&#45;&gt;Node2 -->
<g id="edge39_Node000019_Node000002" class="edge">
<title>Node19&#45;&gt;Node2</title>
<g id="a_edge39_Node000019_Node000002"><a xlink:title=" ">
<path fill="none" stroke="#63b8ff" d="M926.3,-223.68C948.29,-212.21 978.64,-191.36 966.88,-168 929.32,-93.36 893.5,-86.95 815.88,-56 756.32,-32.25 567.56,-18.35 484.62,-13.25"/>
<polygon fill="#63b8ff" stroke="#63b8ff" points="485.07,-9.71 474.88,-12.6 484.65,-16.69 485.07,-9.71"/>
</a>
</g>
</g>
<!-- Node20 -->
<g id="Node000020" class="node">
<title>Node20</title>
<g id="a_Node000020"><a xlink:title=" ">
<polygon fill="#e0e0e0" stroke="#999999" points="900.01,-188 857.76,-188 857.76,-168 900.01,-168 900.01,-188"/>
<text text-anchor="middle" x="878.88" y="-174.5" font-family="Helvetica,sans-Serif" font-size="10.00">queue</text>
</a>
</g>
</g>
<!-- Node19&#45;&gt;Node20 -->
<g id="edge40_Node000019_Node000020" class="edge">
<title>Node19&#45;&gt;Node20</title>
<g id="a_edge40_Node000019_Node000020"><a xlink:title=" ">
<path fill="none" stroke="#63b8ff" d="M901.18,-223.59C897.66,-216.55 892.72,-206.67 888.38,-198"/>
<polygon fill="#63b8ff" stroke="#63b8ff" points="891.14,-196.68 883.53,-189.3 884.87,-199.81 891.14,-196.68"/>
</a>
</g>
</g>
<!-- Node21 -->
<g id="Node000021" class="node">
<title>Node21</title>
<g id="a_Node000021"><a xlink:title=" ">
<polygon fill="#e0e0e0" stroke="#999999" points="957.51,-188 918.26,-188 918.26,-168 957.51,-168 957.51,-188"/>
<text text-anchor="middle" x="937.88" y="-174.5" font-family="Helvetica,sans-Serif" font-size="10.00">utility</text>
</a>
</g>
</g>
<!-- Node19&#45;&gt;Node21 -->
<g id="edge41_Node000019_Node000021" class="edge">
<title>Node19&#45;&gt;Node21</title>
<g id="a_edge41_Node000019_Node000021"><a xlink:title=" ">
<path fill="none" stroke="#63b8ff" d="M911.46,-223.59C915.68,-216.47 921.62,-206.45 926.79,-197.72"/>
<polygon fill="#63b8ff" stroke="#63b8ff" points="930.29,-199.69 932.37,-189.3 924.26,-196.12 930.29,-199.69"/>
</a>
</g>
</g>
<!-- Node22&#45;&gt;Node2 -->
<g id="edge47_Node000022_Node000002" class="edge">
<title>Node22&#45;&gt;Node2</title>
<g id="a_edge47_Node000022_Node000002"><a xlink:title=" ">
<path fill="none" stroke="#63b8ff" d="M324.65,-223.88C321.93,-211.02 318.44,-187.04 324.88,-168 345.01,-108.51 397.72,-53.82 426.11,-27.48"/>
<polygon fill="#63b8ff" stroke="#63b8ff" points="428.03,-30.56 433.08,-21.25 423.33,-25.38 428.03,-30.56"/>
</a>
</g>
</g>
<!-- Node22&#45;&gt;Node17 -->
<g id="edge48_Node000022_Node000017" class="edge">
<title>Node22&#45;&gt;Node17</title>
<g id="a_edge48_Node000022_Node000017"><a xlink:title=" ">
<path fill="none" stroke="#63b8ff" d="M326.04,-223.93C325.26,-210.27 325.82,-184.29 338.88,-168 356.16,-146.46 385.65,-135.06 409.15,-129.13"/>
<polygon fill="#63b8ff" stroke="#63b8ff" points="409.81,-132.34 418.79,-126.71 408.26,-125.52 409.81,-132.34"/>
</a>
</g>
</g>
<!-- Node22&#45;&gt;Node23 -->
<g id="edge49_Node000022_Node000023" class="edge">
<title>Node22&#45;&gt;Node23</title>
<g id="a_edge49_Node000022_Node000023"><a xlink:title=" ">
<path fill="none" stroke="#63b8ff" d="M336.81,-223.59C344.9,-215.93 356.53,-204.91 366.21,-195.75"/>
<polygon fill="#63b8ff" stroke="#63b8ff" points="368.22,-198.72 373.07,-189.3 363.4,-193.63 368.22,-198.72"/>
</a>
</g>
</g>
<!-- Node23&#45;&gt;Node2 -->
<g id="edge50_Node000023_Node000002" class="edge">
<title>Node23&#45;&gt;Node2</title>
<g id="a_edge50_Node000023_Node000002"><a xlink:title=" ">
<path fill="none" stroke="#63b8ff" d="M387.34,-167.6C397.03,-141.23 424.6,-66.19 437.75,-30.42"/>
<polygon fill="#63b8ff" stroke="#63b8ff" points="441.3,-31.89 441.47,-21.3 434.73,-29.48 441.3,-31.89"/>
</a>
</g>
</g>
<!-- Node23&#45;&gt;Node17 -->
<g id="edge51_Node000023_Node000017" class="edge">
<title>Node23&#45;&gt;Node17</title>
<g id="a_edge51_Node000023_Node000017"><a xlink:title=" ">
<path fill="none" stroke="#63b8ff" d="M394.51,-167.59C403.26,-159.85 415.87,-148.69 426.28,-139.47"/>
<polygon fill="#63b8ff" stroke="#63b8ff" points="428.21,-142.55 433.38,-133.3 423.57,-137.31 428.21,-142.55"/>
</a>
</g>
</g>
</g>
</svg>
