<?xml version="1.0" encoding="UTF-8" standalone="no"?>
<!DOCTYPE svg PUBLIC "-//W3C//DTD SVG 1.1//EN"
 "http://www.w3.org/Graphics/SVG/1.1/DTD/svg11.dtd">
<!-- Generated by graphviz version 8.1.0 (20230707.0739)
 -->
<!-- Title: ExoCode/src/ParamsFromSD.h Pages: 1 -->
<svg width="697pt" height="252pt"
 viewBox="0.00 0.00 697.38 252.00" xmlns="http://www.w3.org/2000/svg" xmlns:xlink="http://www.w3.org/1999/xlink">
<g id="graph0" class="graph" transform="scale(1 1) rotate(0) translate(4 248)">
<title>ExoCode/src/ParamsFromSD.h</title>
<!-- Node1 -->
<g id="Node000001" class="node">
<title>Node1</title>
<g id="a_Node000001"><a xlink:title="Declares the functions to pull controller parameters from the SD card and defines the mapping to the ...">
<polygon fill="#999999" stroke="#666666" points="363.38,-244 210.12,-244 210.12,-224 363.38,-224 363.38,-244"/>
<text text-anchor="middle" x="286.75" y="-230.5" font-family="Helvetica,sans-Serif" font-size="10.00">ExoCode/src/ParamsFromSD.h</text>
</a>
</g>
</g>
<!-- Node2 -->
<g id="Node000002" class="node">
<title>Node2</title>
<g id="a_Node000002"><a xlink:href="_exo_data_8cpp.html" target="_top" xlink:title=" ">
<polygon fill="white" stroke="#666666" points="131.5,-188 0,-188 0,-168 131.5,-168 131.5,-188"/>
<text text-anchor="middle" x="65.75" y="-174.5" font-family="Helvetica,sans-Serif" font-size="10.00">ExoCode/src/ExoData.cpp</text>
</a>
</g>
</g>
<!-- Node1&#45;&gt;Node2 -->
<g id="edge1_Node000001_Node000002" class="edge">
<title>Node1&#45;&gt;Node2</title>
<g id="a_edge1_Node000001_Node000002"><a xlink:title=" ">
<path fill="none" stroke="#63b8ff" d="M237.38,-220.94C197.25,-211.13 141.41,-197.49 104.45,-188.46"/>
<polygon fill="#63b8ff" stroke="#63b8ff" points="236.46,-224.56 247,-223.53 238.12,-217.76 236.46,-224.56"/>
</a>
</g>
</g>
<!-- Node3 -->
<g id="Node000003" class="node">
<title>Node3</title>
<g id="a_Node000003"><a xlink:href="_params_from_s_d_8cpp.html" target="_top" xlink:title=" ">
<polygon fill="white" stroke="#666666" points="313.62,-188 149.88,-188 149.88,-168 313.62,-168 313.62,-188"/>
<text text-anchor="middle" x="231.75" y="-174.5" font-family="Helvetica,sans-Serif" font-size="10.00">ExoCode/src/ParamsFromSD.cpp</text>
</a>
</g>
</g>
<!-- Node1&#45;&gt;Node3 -->
<g id="edge2_Node000001_Node000003" class="edge">
<title>Node1&#45;&gt;Node3</title>
<g id="a_edge2_Node000001_Node000003"><a xlink:title=" ">
<path fill="none" stroke="#63b8ff" d="M269.56,-216.13C260.21,-206.94 249,-195.93 241.22,-188.3"/>
<polygon fill="#63b8ff" stroke="#63b8ff" points="266.58,-218.09 276.17,-222.59 271.49,-213.09 266.58,-218.09"/>
</a>
</g>
</g>
<!-- Node4 -->
<g id="Node000004" class="node">
<title>Node4</title>
<g id="a_Node000004"><a xlink:href="ble__commands_8h.html" target="_top" xlink:title="This file declares the BLE commands, and the functions that should be called when they are received.">
<polygon fill="white" stroke="#666666" points="401.5,-132 252,-132 252,-112 401.5,-112 401.5,-132"/>
<text text-anchor="middle" x="326.75" y="-118.5" font-family="Helvetica,sans-Serif" font-size="10.00">ExoCode/src/ble_commands.h</text>
</a>
</g>
</g>
<!-- Node1&#45;&gt;Node4 -->
<g id="edge3_Node000001_Node000004" class="edge">
<title>Node1&#45;&gt;Node4</title>
<g id="a_edge3_Node000001_Node000004"><a xlink:title=" ">
<path fill="none" stroke="#63b8ff" d="M304.57,-215.9C311.53,-208.1 318.77,-198.31 322.75,-188 329.99,-169.22 329.1,-145.13 327.88,-132.2"/>
<polygon fill="#63b8ff" stroke="#63b8ff" points="302.42,-213.13 298.04,-222.78 307.48,-217.97 302.42,-213.13"/>
</a>
</g>
</g>
<!-- Node7 -->
<g id="Node000007" class="node">
<title>Node7</title>
<g id="a_Node000007"><a xlink:href="uart__commands_8h.html" target="_top" xlink:title=" ">
<polygon fill="white" stroke="#666666" points="552.38,-188 399.12,-188 399.12,-168 552.38,-168 552.38,-188"/>
<text text-anchor="middle" x="475.75" y="-174.5" font-family="Helvetica,sans-Serif" font-size="10.00">ExoCode/src/uart_commands.h</text>
</a>
</g>
</g>
<!-- Node1&#45;&gt;Node7 -->
<g id="edge7_Node000001_Node000007" class="edge">
<title>Node1&#45;&gt;Node7</title>
<g id="a_edge7_Node000001_Node000007"><a xlink:title=" ">
<path fill="none" stroke="#63b8ff" d="M329.85,-220.69C364.08,-210.91 411.24,-197.43 442.57,-188.48"/>
<polygon fill="#63b8ff" stroke="#63b8ff" points="329.32,-217.48 320.67,-223.59 331.25,-224.21 329.32,-217.48"/>
</a>
</g>
</g>
<!-- Node5 -->
<g id="Node000005" class="node">
<title>Node5</title>
<g id="a_Node000005"><a xlink:href="_ble_parser_8cpp.html" target="_top" xlink:title=" ">
<polygon fill="white" stroke="#666666" points="395.12,-20 258.38,-20 258.38,0 395.12,0 395.12,-20"/>
<text text-anchor="middle" x="326.75" y="-6.5" font-family="Helvetica,sans-Serif" font-size="10.00">ExoCode/src/BleParser.cpp</text>
</a>
</g>
</g>
<!-- Node4&#45;&gt;Node5 -->
<g id="edge4_Node000004_Node000005" class="edge">
<title>Node4&#45;&gt;Node5</title>
<g id="a_edge4_Node000004_Node000005"><a xlink:title=" ">
<path fill="none" stroke="#63b8ff" d="M313.3,-102.77C308.32,-94.94 303.28,-85.44 300.75,-76 295.27,-55.57 309.25,-32.89 318.77,-20.45"/>
<polygon fill="#63b8ff" stroke="#63b8ff" points="310.84,-104.37 319.37,-110.65 316.62,-100.42 310.84,-104.37"/>
</a>
</g>
</g>
<!-- Node6 -->
<g id="Node000006" class="node">
<title>Node6</title>
<g id="a_Node000006"><a xlink:href="_ble_parser_8h.html" target="_top" xlink:title="This class is used to serialize and deserialize the BLE data. The application uses Nordic&#39;s UART serv...">
<polygon fill="white" stroke="#666666" points="435.88,-76 309.62,-76 309.62,-56 435.88,-56 435.88,-76"/>
<text text-anchor="middle" x="372.75" y="-62.5" font-family="Helvetica,sans-Serif" font-size="10.00">ExoCode/src/BleParser.h</text>
</a>
</g>
</g>
<!-- Node4&#45;&gt;Node6 -->
<g id="edge5_Node000004_Node000006" class="edge">
<title>Node4&#45;&gt;Node6</title>
<g id="a_edge5_Node000004_Node000006"><a xlink:title=" ">
<path fill="none" stroke="#63b8ff" d="M341.84,-103.29C349.51,-94.28 358.52,-83.7 364.83,-76.3"/>
<polygon fill="#63b8ff" stroke="#63b8ff" points="338.58,-100.71 334.76,-110.59 343.91,-105.25 338.58,-100.71"/>
</a>
</g>
</g>
<!-- Node6&#45;&gt;Node5 -->
<g id="edge6_Node000006_Node000005" class="edge">
<title>Node6&#45;&gt;Node5</title>
<g id="a_edge6_Node000006_Node000005"><a xlink:title=" ">
<path fill="none" stroke="#63b8ff" d="M357.66,-47.29C349.99,-38.28 340.98,-27.7 334.67,-20.3"/>
<polygon fill="#63b8ff" stroke="#63b8ff" points="355.59,-49.25 364.74,-54.59 360.92,-44.71 355.59,-49.25"/>
</a>
</g>
</g>
<!-- Node7&#45;&gt;Node4 -->
<g id="edge10_Node000007_Node000004" class="edge">
<title>Node7&#45;&gt;Node4</title>
<g id="a_edge10_Node000007_Node000004"><a xlink:title=" ">
<path fill="none" stroke="#63b8ff" d="M439.66,-163.92C412.87,-154.21 376.97,-141.2 352.91,-132.48"/>
<polygon fill="#63b8ff" stroke="#63b8ff" points="438.2,-167.48 448.8,-167.59 440.59,-160.9 438.2,-167.48"/>
</a>
</g>
</g>
<!-- Node8 -->
<g id="Node000008" class="node">
<title>Node8</title>
<g id="a_Node000008"><a xlink:href="_coms_m_c_u_8cpp.html" target="_top" xlink:title=" ">
<polygon fill="white" stroke="#666666" points="560.38,-132 419.12,-132 419.12,-112 560.38,-112 560.38,-132"/>
<text text-anchor="middle" x="489.75" y="-118.5" font-family="Helvetica,sans-Serif" font-size="10.00">ExoCode/src/ComsMCU.cpp</text>
</a>
</g>
</g>
<!-- Node7&#45;&gt;Node8 -->
<g id="edge8_Node000007_Node000008" class="edge">
<title>Node7&#45;&gt;Node8</title>
<g id="a_edge8_Node000007_Node000008"><a xlink:title=" ">
<path fill="none" stroke="#63b8ff" d="M480.93,-157C483.13,-148.54 485.58,-139.08 487.34,-132.3"/>
<polygon fill="#63b8ff" stroke="#63b8ff" points="477.31,-156.04 478.19,-166.59 484.09,-157.79 477.31,-156.04"/>
</a>
</g>
</g>
<!-- Node9 -->
<g id="Node000009" class="node">
<title>Node9</title>
<g id="a_Node000009"><a xlink:href="_exo_8cpp.html" target="_top" xlink:title=" ">
<polygon fill="white" stroke="#666666" points="689.38,-132 578.12,-132 578.12,-112 689.38,-112 689.38,-132"/>
<text text-anchor="middle" x="633.75" y="-118.5" font-family="Helvetica,sans-Serif" font-size="10.00">ExoCode/src/Exo.cpp</text>
</a>
</g>
</g>
<!-- Node7&#45;&gt;Node9 -->
<g id="edge9_Node000007_Node000009" class="edge">
<title>Node7&#45;&gt;Node9</title>
<g id="a_edge9_Node000007_Node000009"><a xlink:title=" ">
<path fill="none" stroke="#63b8ff" d="M513.64,-164.05C542.09,-154.33 580.38,-141.24 606.01,-132.48"/>
<polygon fill="#63b8ff" stroke="#63b8ff" points="512.6,-161.05 504.27,-167.59 514.87,-167.67 512.6,-161.05"/>
</a>
</g>
</g>
</g>
</svg>
