<?xml version="1.0" encoding="UTF-8" standalone="no"?>
<!DOCTYPE svg PUBLIC "-//W3C//DTD SVG 1.1//EN"
 "http://www.w3.org/Graphics/SVG/1.1/DTD/svg11.dtd">
<!-- Generated by graphviz version 8.1.0 (20230707.0739)
 -->
<!-- Title: ExoCode/src/ParamsFromSD.h Pages: 1 -->
<svg width="1122pt" height="420pt"
 viewBox="0.00 0.00 1122.00 420.00" xmlns="http://www.w3.org/2000/svg" xmlns:xlink="http://www.w3.org/1999/xlink">
<g id="graph0" class="graph" transform="scale(1 1) rotate(0) translate(4 416)">
<title>ExoCode/src/ParamsFromSD.h</title>
<!-- Node1 -->
<g id="Node000001" class="node">
<title>Node1</title>
<g id="a_Node000001"><a xlink:title="Declares the functions to pull controller parameters from the SD card and defines the mapping to the ...">
<polygon fill="#999999" stroke="#666666" points="1003.62,-412 850.38,-412 850.38,-392 1003.62,-392 1003.62,-412"/>
<text text-anchor="middle" x="927" y="-398.5" font-family="Helvetica,sans-Serif" font-size="10.00">ExoCode/src/ParamsFromSD.h</text>
</a>
</g>
</g>
<!-- Node2 -->
<g id="Node000002" class="node">
<title>Node2</title>
<g id="a_Node000002"><a xlink:href="_exo_data_8h.html" target="_top" xlink:title="Declares a class used to store data for the Exo to access.">
<polygon fill="white" stroke="#666666" points="625.88,-356 564.12,-356 564.12,-336 625.88,-336 625.88,-356"/>
<text text-anchor="middle" x="595" y="-342.5" font-family="Helvetica,sans-Serif" font-size="10.00">ExoData.h</text>
</a>
</g>
</g>
<!-- Node1&#45;&gt;Node2 -->
<g id="edge1_Node000001_Node000002" class="edge">
<title>Node1&#45;&gt;Node2</title>
<g id="a_edge1_Node000001_Node000002"><a xlink:title=" ">
<path fill="none" stroke="#63b8ff" d="M868.79,-391.53C802.4,-380.73 695.49,-363.34 636.83,-353.8"/>
<polygon fill="#63b8ff" stroke="#63b8ff" points="637.55,-350.21 627.12,-352.06 636.43,-357.12 637.55,-350.21"/>
</a>
</g>
</g>
<!-- Node7 -->
<g id="Node000007" class="node">
<title>Node7</title>
<g id="a_Node000007"><a xlink:href="_parse_ini_8h.html" target="_top" xlink:title="Declares the functions needed and defines mapping between the INI keys and the exo components.">
<polygon fill="white" stroke="#666666" points="545.75,-132 486.25,-132 486.25,-112 545.75,-112 545.75,-132"/>
<text text-anchor="middle" x="516" y="-118.5" font-family="Helvetica,sans-Serif" font-size="10.00">ParseIni.h</text>
</a>
</g>
</g>
<!-- Node1&#45;&gt;Node7 -->
<g id="edge42_Node000001_Node000007" class="edge">
<title>Node1&#45;&gt;Node7</title>
<g id="a_edge42_Node000001_Node000007"><a xlink:title=" ">
<path fill="none" stroke="#63b8ff" d="M865.9,-391.53C810.68,-379.09 738,-351.27 738,-291 738,-291 738,-291 738,-233 738,-153.06 621.01,-131.22 556.88,-125.25"/>
<polygon fill="#63b8ff" stroke="#63b8ff" points="557.2,-121.68 546.94,-124.33 556.61,-128.65 557.2,-121.68"/>
</a>
</g>
</g>
<!-- Node18 -->
<g id="Node000018" class="node">
<title>Node18</title>
<g id="a_Node000018"><a xlink:href="_utilities_8h.html" target="_top" xlink:title=" ">
<polygon fill="white" stroke="#666666" points="898.25,-188 841.75,-188 841.75,-168 898.25,-168 898.25,-188"/>
<text text-anchor="middle" x="870" y="-174.5" font-family="Helvetica,sans-Serif" font-size="10.00">Utilities.h</text>
</a>
</g>
</g>
<!-- Node1&#45;&gt;Node18 -->
<g id="edge43_Node000001_Node000018" class="edge">
<title>Node1&#45;&gt;Node18</title>
<g id="a_edge43_Node000001_Node000018"><a xlink:title=" ">
<path fill="none" stroke="#63b8ff" d="M919.58,-391.58C913.11,-382.85 903.99,-369.26 899,-356 878.51,-301.48 872.48,-232.15 870.72,-198.75"/>
<polygon fill="#63b8ff" stroke="#63b8ff" points="874.19,-198.99 870.24,-189.16 867.2,-199.31 874.19,-198.99"/>
</a>
</g>
</g>
<!-- Node19 -->
<g id="Node000019" class="node">
<title>Node19</title>
<g id="a_Node000019"><a xlink:title=" ">
<polygon fill="#e0e0e0" stroke="#999999" points="945.88,-356 908.12,-356 908.12,-336 945.88,-336 945.88,-356"/>
<text text-anchor="middle" x="927" y="-342.5" font-family="Helvetica,sans-Serif" font-size="10.00">SD.h</text>
</a>
</g>
</g>
<!-- Node1&#45;&gt;Node19 -->
<g id="edge49_Node000001_Node000019" class="edge">
<title>Node1&#45;&gt;Node19</title>
<g id="a_edge49_Node000001_Node000019"><a xlink:title=" ">
<path fill="none" stroke="#63b8ff" d="M927,-391.59C927,-384.86 927,-375.53 927,-367.15"/>
<polygon fill="#63b8ff" stroke="#63b8ff" points="930.5,-367.3 927,-357.3 923.5,-367.3 930.5,-367.3"/>
</a>
</g>
</g>
<!-- Node20 -->
<g id="Node000020" class="node">
<title>Node20</title>
<g id="a_Node000020"><a xlink:title=" ">
<polygon fill="#e0e0e0" stroke="#999999" points="1004,-356 964,-356 964,-336 1004,-336 1004,-356"/>
<text text-anchor="middle" x="984" y="-342.5" font-family="Helvetica,sans-Serif" font-size="10.00">SPI.h</text>
</a>
</g>
</g>
<!-- Node1&#45;&gt;Node20 -->
<g id="edge50_Node000001_Node000020" class="edge">
<title>Node1&#45;&gt;Node20</title>
<g id="a_edge50_Node000001_Node000020"><a xlink:title=" ">
<path fill="none" stroke="#63b8ff" d="M936.93,-391.59C945.02,-383.93 956.65,-372.91 966.32,-363.75"/>
<polygon fill="#63b8ff" stroke="#63b8ff" points="968.33,-366.72 973.19,-357.3 963.52,-361.63 968.33,-366.72"/>
</a>
</g>
</g>
<!-- Node21 -->
<g id="Node000021" class="node">
<title>Node21</title>
<g id="a_Node000021"><a xlink:title=" ">
<polygon fill="#e0e0e0" stroke="#999999" points="1056.38,-356 1021.62,-356 1021.62,-336 1056.38,-336 1056.38,-356"/>
<text text-anchor="middle" x="1039" y="-342.5" font-family="Helvetica,sans-Serif" font-size="10.00">map</text>
</a>
</g>
</g>
<!-- Node1&#45;&gt;Node21 -->
<g id="edge51_Node000001_Node000021" class="edge">
<title>Node1&#45;&gt;Node21</title>
<g id="a_edge51_Node000001_Node000021"><a xlink:title=" ">
<path fill="none" stroke="#63b8ff" d="M946.51,-391.59C964.44,-382.95 991.22,-370.04 1011.35,-360.33"/>
<polygon fill="#63b8ff" stroke="#63b8ff" points="1012.7,-363.08 1020.19,-355.59 1009.66,-356.78 1012.7,-363.08"/>
</a>
</g>
</g>
<!-- Node22 -->
<g id="Node000022" class="node">
<title>Node22</title>
<g id="a_Node000022"><a xlink:title=" ">
<polygon fill="#e0e0e0" stroke="#999999" points="1114,-356 1074,-356 1074,-336 1114,-336 1114,-356"/>
<text text-anchor="middle" x="1094" y="-342.5" font-family="Helvetica,sans-Serif" font-size="10.00">string</text>
</a>
</g>
</g>
<!-- Node1&#45;&gt;Node22 -->
<g id="edge52_Node000001_Node000022" class="edge">
<title>Node1&#45;&gt;Node22</title>
<g id="a_edge52_Node000001_Node000022"><a xlink:title=" ">
<path fill="none" stroke="#63b8ff" d="M956.09,-391.59C986.18,-381.86 1032.98,-366.73 1063.56,-356.84"/>
<polygon fill="#63b8ff" stroke="#63b8ff" points="1064.21,-359.99 1072.65,-353.58 1062.06,-353.33 1064.21,-359.99"/>
</a>
</g>
</g>
<!-- Node3 -->
<g id="Node000003" class="node">
<title>Node3</title>
<g id="a_Node000003"><a xlink:title=" ">
<polygon fill="#e0e0e0" stroke="#999999" points="327.62,-20 270.38,-20 270.38,0 327.62,0 327.62,-20"/>
<text text-anchor="middle" x="299" y="-6.5" font-family="Helvetica,sans-Serif" font-size="10.00">Arduino.h</text>
</a>
</g>
</g>
<!-- Node2&#45;&gt;Node3 -->
<g id="edge2_Node000002_Node000003" class="edge">
<title>Node2&#45;&gt;Node3</title>
<g id="a_edge2_Node000002_Node000003"><a xlink:title=" ">
<path fill="none" stroke="#63b8ff" d="M563.85,-342.58C441.42,-332.67 0,-292.91 0,-235 0,-235 0,-235 0,-121 0,-87.54 10.5,-75.07 38,-56 73.2,-31.59 195.41,-18.88 259.33,-13.76"/>
<polygon fill="#63b8ff" stroke="#63b8ff" points="259.49,-17.18 269.19,-12.92 258.95,-10.2 259.49,-17.18"/>
</a>
</g>
</g>
<!-- Node4 -->
<g id="Node000004" class="node">
<title>Node4</title>
<g id="a_Node000004"><a xlink:href="_leg_data_8h.html" target="_top" xlink:title="Declares a class used to store data for leg to access.">
<polygon fill="white" stroke="#666666" points="530.12,-300 469.88,-300 469.88,-280 530.12,-280 530.12,-300"/>
<text text-anchor="middle" x="500" y="-286.5" font-family="Helvetica,sans-Serif" font-size="10.00">LegData.h</text>
</a>
</g>
</g>
<!-- Node2&#45;&gt;Node4 -->
<g id="edge3_Node000002_Node000004" class="edge">
<title>Node2&#45;&gt;Node4</title>
<g id="a_edge3_Node000002_Node000004"><a xlink:title=" ">
<path fill="none" stroke="#63b8ff" d="M578.45,-335.59C563.97,-327.36 542.67,-315.26 525.93,-305.74"/>
<polygon fill="#63b8ff" stroke="#63b8ff" points="528.1,-302.38 517.68,-300.48 524.64,-308.46 528.1,-302.38"/>
</a>
</g>
</g>
<!-- Node2&#45;&gt;Node7 -->
<g id="edge33_Node000002_Node000007" class="edge">
<title>Node2&#45;&gt;Node7</title>
<g id="a_edge33_Node000002_Node000007"><a xlink:title=" ">
<path fill="none" stroke="#63b8ff" d="M606.09,-335.83C637.96,-308.38 724.76,-225.29 681,-168 665.96,-148.31 600.43,-135.17 556.62,-128.41"/>
<polygon fill="#63b8ff" stroke="#63b8ff" points="557.39,-124.84 546.99,-126.83 556.36,-131.76 557.39,-124.84"/>
</a>
</g>
</g>
<!-- Node8 -->
<g id="Node000008" class="node">
<title>Node8</title>
<g id="a_Node000008"><a xlink:title=" ">
<polygon fill="#e0e0e0" stroke="#999999" points="540.12,-76 491.88,-76 491.88,-56 540.12,-56 540.12,-76"/>
<text text-anchor="middle" x="516" y="-62.5" font-family="Helvetica,sans-Serif" font-size="10.00">stdint.h</text>
</a>
</g>
</g>
<!-- Node2&#45;&gt;Node8 -->
<g id="edge32_Node000002_Node000008" class="edge">
<title>Node2&#45;&gt;Node8</title>
<g id="a_edge32_Node000002_Node000008"><a xlink:title=" ">
<path fill="none" stroke="#63b8ff" d="M615.58,-335.65C667.91,-310.55 798.71,-238.8 752,-168 728.78,-132.8 610.95,-94.46 551.06,-76.85"/>
<polygon fill="#63b8ff" stroke="#63b8ff" points="552.16,-73.23 541.58,-73.81 550.21,-79.96 552.16,-73.23"/>
</a>
</g>
</g>
<!-- Node9 -->
<g id="Node000009" class="node">
<title>Node9</title>
<g id="a_Node000009"><a xlink:href="_board_8h.html" target="_top" xlink:title=" ">
<polygon fill="white" stroke="#666666" points="252.88,-132 203.12,-132 203.12,-112 252.88,-112 252.88,-132"/>
<text text-anchor="middle" x="228" y="-118.5" font-family="Helvetica,sans-Serif" font-size="10.00">Board.h</text>
</a>
</g>
</g>
<!-- Node2&#45;&gt;Node9 -->
<g id="edge34_Node000002_Node000009" class="edge">
<title>Node2&#45;&gt;Node9</title>
<g id="a_edge34_Node000002_Node000009"><a xlink:title=" ">
<path fill="none" stroke="#63b8ff" d="M563.71,-342.94C497.83,-337.24 342.34,-316.5 238,-244 206.48,-222.1 185.6,-204.65 197,-168 200.05,-158.21 206.04,-148.67 211.96,-140.91"/>
<polygon fill="#63b8ff" stroke="#63b8ff" points="215.28,-143.38 218.93,-133.43 209.88,-138.93 215.28,-143.38"/>
</a>
</g>
</g>
<!-- Node16 -->
<g id="Node000016" class="node">
<title>Node16</title>
<g id="a_Node000016"><a xlink:href="_status_led_8h.html" target="_top" xlink:title="Class to set an RGB LED to different colors based on the state of the system.">
<polygon fill="white" stroke="#666666" points="672.25,-244 603.75,-244 603.75,-224 672.25,-224 672.25,-244"/>
<text text-anchor="middle" x="638" y="-230.5" font-family="Helvetica,sans-Serif" font-size="10.00">StatusLed.h</text>
</a>
</g>
</g>
<!-- Node2&#45;&gt;Node16 -->
<g id="edge35_Node000002_Node000016" class="edge">
<title>Node2&#45;&gt;Node16</title>
<g id="a_edge35_Node000002_Node000016"><a xlink:title=" ">
<path fill="none" stroke="#63b8ff" d="M598.67,-335.62C605.68,-317.68 621.12,-278.17 630.44,-254.35"/>
<polygon fill="#63b8ff" stroke="#63b8ff" points="633.96,-255.94 634.34,-245.35 627.44,-253.39 633.96,-255.94"/>
</a>
</g>
</g>
<!-- Node17 -->
<g id="Node000017" class="node">
<title>Node17</title>
<g id="a_Node000017"><a xlink:href="_status_defs_8h.html" target="_top" xlink:title="Stores the different status messages for the system.">
<polygon fill="white" stroke="#666666" points="672.12,-188 599.88,-188 599.88,-168 672.12,-168 672.12,-188"/>
<text text-anchor="middle" x="636" y="-174.5" font-family="Helvetica,sans-Serif" font-size="10.00">StatusDefs.h</text>
</a>
</g>
</g>
<!-- Node2&#45;&gt;Node17 -->
<g id="edge41_Node000002_Node000017" class="edge">
<title>Node2&#45;&gt;Node17</title>
<g id="a_edge41_Node000002_Node000017"><a xlink:title=" ">
<path fill="none" stroke="#63b8ff" d="M592.82,-335.79C588.36,-314.99 579.83,-263.18 595,-224 599.19,-213.17 607.34,-203.35 615.27,-195.67"/>
<polygon fill="#63b8ff" stroke="#63b8ff" points="617.17,-198.76 622.28,-189.48 612.5,-193.55 617.17,-198.76"/>
</a>
</g>
</g>
<!-- Node4&#45;&gt;Node3 -->
<g id="edge4_Node000004_Node000003" class="edge">
<title>Node4&#45;&gt;Node3</title>
<g id="a_edge4_Node000004_Node000003"><a xlink:title=" ">
<path fill="none" stroke="#63b8ff" d="M469.69,-288.3C366.9,-285.14 38,-268.05 38,-179 38,-179 38,-179 38,-121 38,-90.9 34.68,-76.19 57,-56 86.17,-29.63 198.48,-17.92 259.3,-13.42"/>
<polygon fill="#63b8ff" stroke="#63b8ff" points="259.3,-16.85 269.03,-12.66 258.81,-9.87 259.3,-16.85"/>
</a>
</g>
</g>
<!-- Node5 -->
<g id="Node000005" class="node">
<title>Node5</title>
<g id="a_Node000005"><a xlink:href="_joint_data_8h.html" target="_top" xlink:title="Declares a class used to store data for joint to access.">
<polygon fill="white" stroke="#666666" points="427.38,-244 362.62,-244 362.62,-224 427.38,-224 427.38,-244"/>
<text text-anchor="middle" x="395" y="-230.5" font-family="Helvetica,sans-Serif" font-size="10.00">JointData.h</text>
</a>
</g>
</g>
<!-- Node4&#45;&gt;Node5 -->
<g id="edge5_Node000004_Node000005" class="edge">
<title>Node4&#45;&gt;Node5</title>
<g id="a_edge5_Node000004_Node000005"><a xlink:title=" ">
<path fill="none" stroke="#63b8ff" d="M481.71,-279.59C465.55,-271.28 441.73,-259.03 423.14,-249.47"/>
<polygon fill="#63b8ff" stroke="#63b8ff" points="424.93,-245.94 414.43,-244.48 421.72,-252.17 424.93,-245.94"/>
</a>
</g>
</g>
<!-- Node4&#45;&gt;Node7 -->
<g id="edge25_Node000004_Node000007" class="edge">
<title>Node4&#45;&gt;Node7</title>
<g id="a_edge25_Node000004_Node000007"><a xlink:title=" ">
<path fill="none" stroke="#63b8ff" d="M500.91,-279.6C503.44,-253.35 510.62,-178.84 514.08,-142.89"/>
<polygon fill="#63b8ff" stroke="#63b8ff" points="517.63,-143.59 515.1,-133.3 510.66,-142.92 517.63,-143.59"/>
</a>
</g>
</g>
<!-- Node4&#45;&gt;Node8 -->
<g id="edge31_Node000004_Node000008" class="edge">
<title>Node4&#45;&gt;Node8</title>
<g id="a_edge31_Node000004_Node000008"><a xlink:title=" ">
<path fill="none" stroke="#63b8ff" d="M504.59,-279.75C516.08,-255.98 545.83,-190.49 555,-132 556.38,-123.22 558.11,-120.33 555,-112 551.02,-101.33 543.24,-91.51 535.68,-83.79"/>
<polygon fill="#63b8ff" stroke="#63b8ff" points="538.41,-81.61 528.73,-77.28 533.6,-86.69 538.41,-81.61"/>
</a>
</g>
</g>
<!-- Node4&#45;&gt;Node9 -->
<g id="edge26_Node000004_Node000009" class="edge">
<title>Node4&#45;&gt;Node9</title>
<g id="a_edge26_Node000004_Node000009"><a xlink:title=" ">
<path fill="none" stroke="#63b8ff" d="M469.41,-289.34C406.96,-288.16 265.56,-275.45 205,-188 195.03,-173.61 203.96,-154.45 213.45,-140.66"/>
<polygon fill="#63b8ff" stroke="#63b8ff" points="216.67,-143.2 219.88,-133.1 211.07,-138.99 216.67,-143.2"/>
</a>
</g>
</g>
<!-- Node13 -->
<g id="Node000013" class="node">
<title>Node13</title>
<g id="a_Node000013"><a xlink:href="_inclination_detector_8h.html" target="_top" xlink:title=" ">
<polygon fill="white" stroke="#666666" points="1021.25,-188 916.75,-188 916.75,-168 1021.25,-168 1021.25,-188"/>
<text text-anchor="middle" x="969" y="-174.5" font-family="Helvetica,sans-Serif" font-size="10.00">InclinationDetector.h</text>
</a>
</g>
</g>
<!-- Node4&#45;&gt;Node13 -->
<g id="edge27_Node000004_Node000013" class="edge">
<title>Node4&#45;&gt;Node13</title>
<g id="a_edge27_Node000004_Node000013"><a xlink:title=" ">
<path fill="none" stroke="#63b8ff" d="M530.41,-281.87C609.16,-263.4 820.38,-213.86 918.11,-190.94"/>
<polygon fill="#63b8ff" stroke="#63b8ff" points="918.67,-194.16 927.61,-188.47 917.07,-187.35 918.67,-194.16"/>
</a>
</g>
</g>
<!-- Node5&#45;&gt;Node3 -->
<g id="edge6_Node000005_Node000003" class="edge">
<title>Node5&#45;&gt;Node3</title>
<g id="a_edge6_Node000005_Node000003"><a xlink:title=" ">
<path fill="none" stroke="#63b8ff" d="M362.31,-229.51C313.88,-223.67 226.45,-210.29 205,-188 181.34,-163.41 180.63,-143.4 194,-112 210.16,-74.03 248.37,-43.43 273.96,-26.23"/>
<polygon fill="#63b8ff" stroke="#63b8ff" points="275.6,-28.69 282.08,-20.31 271.79,-22.82 275.6,-28.69"/>
</a>
</g>
</g>
<!-- Node6 -->
<g id="Node000006" class="node">
<title>Node6</title>
<g id="a_Node000006"><a xlink:href="_motor_data_8h.html" target="_top" xlink:title="Declares a class used to store data for motors to access.">
<polygon fill="white" stroke="#666666" points="429.62,-188 360.38,-188 360.38,-168 429.62,-168 429.62,-188"/>
<text text-anchor="middle" x="395" y="-174.5" font-family="Helvetica,sans-Serif" font-size="10.00">MotorData.h</text>
</a>
</g>
</g>
<!-- Node5&#45;&gt;Node6 -->
<g id="edge7_Node000005_Node000006" class="edge">
<title>Node5&#45;&gt;Node6</title>
<g id="a_edge7_Node000005_Node000006"><a xlink:title=" ">
<path fill="none" stroke="#63b8ff" d="M395,-223.59C395,-216.86 395,-207.53 395,-199.15"/>
<polygon fill="#63b8ff" stroke="#63b8ff" points="398.5,-199.3 395,-189.3 391.5,-199.3 398.5,-199.3"/>
</a>
</g>
</g>
<!-- Node5&#45;&gt;Node7 -->
<g id="edge22_Node000005_Node000007" class="edge">
<title>Node5&#45;&gt;Node7</title>
<g id="a_edge22_Node000005_Node000007"><a xlink:title=" ">
<path fill="none" stroke="#63b8ff" d="M416.63,-223.61C433.08,-215.74 455.61,-203.34 472,-188 486.27,-174.64 498.36,-155.85 506.24,-141.9"/>
<polygon fill="#63b8ff" stroke="#63b8ff" points="509.72,-143.81 511.4,-133.35 503.57,-140.48 509.72,-143.81"/>
</a>
</g>
</g>
<!-- Node5&#45;&gt;Node8 -->
<g id="edge24_Node000005_Node000008" class="edge">
<title>Node5&#45;&gt;Node8</title>
<g id="a_edge24_Node000005_Node000008"><a xlink:title=" ">
<path fill="none" stroke="#63b8ff" d="M405.74,-223.79C415.3,-215.21 429.24,-201.71 439,-188 460.91,-157.24 456.02,-143.4 477,-112 483.49,-102.28 491.86,-92.36 499.18,-84.32"/>
<polygon fill="#63b8ff" stroke="#63b8ff" points="501.29,-87.12 505.57,-77.43 496.18,-82.34 501.29,-87.12"/>
</a>
</g>
</g>
<!-- Node5&#45;&gt;Node9 -->
<g id="edge23_Node000005_Node000009" class="edge">
<title>Node5&#45;&gt;Node9</title>
<g id="a_edge23_Node000005_Node000009"><a xlink:title=" ">
<path fill="none" stroke="#63b8ff" d="M362.14,-229.62C315.06,-224.02 232.05,-211.09 214,-188 203.8,-174.96 209.43,-156.12 216.35,-142.08"/>
<polygon fill="#63b8ff" stroke="#63b8ff" points="219.89,-143.9 221.65,-133.46 213.76,-140.53 219.89,-143.9"/>
</a>
</g>
</g>
<!-- Node12 -->
<g id="Node000012" class="node">
<title>Node12</title>
<g id="a_Node000012"><a xlink:href="_controller_data_8h.html" target="_top" xlink:title="Declares a class used to store data for controllers to access.">
<polygon fill="white" stroke="#666666" points="341.88,-188 256.12,-188 256.12,-168 341.88,-168 341.88,-188"/>
<text text-anchor="middle" x="299" y="-174.5" font-family="Helvetica,sans-Serif" font-size="10.00">ControllerData.h</text>
</a>
</g>
</g>
<!-- Node5&#45;&gt;Node12 -->
<g id="edge17_Node000005_Node000012" class="edge">
<title>Node5&#45;&gt;Node12</title>
<g id="a_edge17_Node000005_Node000012"><a xlink:title=" ">
<path fill="none" stroke="#63b8ff" d="M378.28,-223.59C363.64,-215.36 342.12,-203.26 325.2,-193.74"/>
<polygon fill="#63b8ff" stroke="#63b8ff" points="327.28,-190.33 316.85,-188.48 323.85,-196.43 327.28,-190.33"/>
</a>
</g>
</g>
<!-- Node6&#45;&gt;Node3 -->
<g id="edge8_Node000006_Node000003" class="edge">
<title>Node6&#45;&gt;Node3</title>
<g id="a_edge8_Node000006_Node000003"><a xlink:title=" ">
<path fill="none" stroke="#63b8ff" d="M389.56,-167.6C374.18,-141.01 330.16,-64.89 309.7,-29.5"/>
<polygon fill="#63b8ff" stroke="#63b8ff" points="312.41,-28.2 304.38,-21.3 306.35,-31.71 312.41,-28.2"/>
</a>
</g>
</g>
<!-- Node6&#45;&gt;Node7 -->
<g id="edge9_Node000006_Node000007" class="edge">
<title>Node6&#45;&gt;Node7</title>
<g id="a_edge9_Node000006_Node000007"><a xlink:title=" ">
<path fill="none" stroke="#63b8ff" d="M416.08,-167.59C435.05,-159.13 463.17,-146.58 484.76,-136.94"/>
<polygon fill="#63b8ff" stroke="#63b8ff" points="486.05,-139.75 493.76,-132.48 483.2,-133.36 486.05,-139.75"/>
</a>
</g>
</g>
<!-- Node6&#45;&gt;Node8 -->
<g id="edge16_Node000006_Node000008" class="edge">
<title>Node6&#45;&gt;Node8</title>
<g id="a_edge16_Node000006_Node000008"><a xlink:title=" ">
<path fill="none" stroke="#63b8ff" d="M400.43,-167.76C408.64,-154.34 425.24,-129.18 444,-112 456.94,-100.14 473.43,-89.58 487.35,-81.67"/>
<polygon fill="#63b8ff" stroke="#63b8ff" points="488.87,-84.28 495.96,-76.4 485.51,-78.14 488.87,-84.28"/>
</a>
</g>
</g>
<!-- Node6&#45;&gt;Node9 -->
<g id="edge11_Node000006_Node000009" class="edge">
<title>Node6&#45;&gt;Node9</title>
<g id="a_edge11_Node000006_Node000009"><a xlink:title=" ">
<path fill="none" stroke="#63b8ff" d="M365.91,-167.59C337.41,-158.38 293.91,-144.31 263.41,-134.45"/>
<polygon fill="#63b8ff" stroke="#63b8ff" points="264.8,-130.9 254.21,-131.15 262.65,-137.56 264.8,-130.9"/>
</a>
</g>
</g>
<!-- Node7&#45;&gt;Node8 -->
<g id="edge10_Node000007_Node000008" class="edge">
<title>Node7&#45;&gt;Node8</title>
<g id="a_edge10_Node000007_Node000008"><a xlink:title=" ">
<path fill="none" stroke="#63b8ff" d="M516,-111.59C516,-104.86 516,-95.53 516,-87.15"/>
<polygon fill="#63b8ff" stroke="#63b8ff" points="519.5,-87.3 516,-77.3 512.5,-87.3 519.5,-87.3"/>
</a>
</g>
</g>
<!-- Node9&#45;&gt;Node3 -->
<g id="edge15_Node000009_Node000003" class="edge">
<title>Node9&#45;&gt;Node3</title>
<g id="a_edge15_Node000009_Node000003"><a xlink:title=" ">
<path fill="none" stroke="#63b8ff" d="M234.05,-111.62C245.79,-93.44 271.83,-53.09 287.13,-29.38"/>
<polygon fill="#63b8ff" stroke="#63b8ff" points="290.48,-31.65 292.96,-21.35 284.6,-27.86 290.48,-31.65"/>
</a>
</g>
</g>
<!-- Node10 -->
<g id="Node000010" class="node">
<title>Node10</title>
<g id="a_Node000010"><a xlink:href="_config_8h.html" target="_top" xlink:title=" ">
<polygon fill="white" stroke="#666666" points="117.62,-76 66.38,-76 66.38,-56 117.62,-56 117.62,-76"/>
<text text-anchor="middle" x="92" y="-62.5" font-family="Helvetica,sans-Serif" font-size="10.00">Config.h</text>
</a>
</g>
</g>
<!-- Node9&#45;&gt;Node10 -->
<g id="edge12_Node000009_Node000010" class="edge">
<title>Node9&#45;&gt;Node10</title>
<g id="a_edge12_Node000009_Node000010"><a xlink:title=" ">
<path fill="none" stroke="#63b8ff" d="M204.31,-111.59C182.6,-102.97 150.22,-90.12 125.8,-80.42"/>
<polygon fill="#63b8ff" stroke="#63b8ff" points="127.46,-76.92 116.87,-76.48 124.88,-83.42 127.46,-76.92"/>
</a>
</g>
</g>
<!-- Node10&#45;&gt;Node3 -->
<g id="edge13_Node000010_Node000003" class="edge">
<title>Node10&#45;&gt;Node3</title>
<g id="a_edge13_Node000010_Node000003"><a xlink:title=" ">
<path fill="none" stroke="#63b8ff" d="M117.8,-58.27C153.42,-48.98 217.96,-32.14 259.63,-21.27"/>
<polygon fill="#63b8ff" stroke="#63b8ff" points="260.42,-24.42 269.21,-18.51 258.65,-17.65 260.42,-24.42"/>
</a>
</g>
</g>
<!-- Node11 -->
<g id="Node000011" class="node">
<title>Node11</title>
<g id="a_Node000011"><a xlink:href="_log_levels_8h.html" target="_top" xlink:title=" ">
<polygon fill="white" stroke="#666666" points="125.5,-20 58.5,-20 58.5,0 125.5,0 125.5,-20"/>
<text text-anchor="middle" x="92" y="-6.5" font-family="Helvetica,sans-Serif" font-size="10.00">LogLevels.h</text>
</a>
</g>
</g>
<!-- Node10&#45;&gt;Node11 -->
<g id="edge14_Node000010_Node000011" class="edge">
<title>Node10&#45;&gt;Node11</title>
<g id="a_edge14_Node000010_Node000011"><a xlink:title=" ">
<path fill="none" stroke="#63b8ff" d="M92,-55.59C92,-48.86 92,-39.53 92,-31.15"/>
<polygon fill="#63b8ff" stroke="#63b8ff" points="95.5,-31.3 92,-21.3 88.5,-31.3 95.5,-31.3"/>
</a>
</g>
</g>
<!-- Node12&#45;&gt;Node3 -->
<g id="edge19_Node000012_Node000003" class="edge">
<title>Node12&#45;&gt;Node3</title>
<g id="a_edge19_Node000012_Node000003"><a xlink:title=" ">
<path fill="none" stroke="#63b8ff" d="M299,-167.6C299,-141.35 299,-66.84 299,-30.89"/>
<polygon fill="#63b8ff" stroke="#63b8ff" points="302.5,-31.3 299,-21.3 295.5,-31.3 302.5,-31.3"/>
</a>
</g>
</g>
<!-- Node12&#45;&gt;Node7 -->
<g id="edge21_Node000012_Node000007" class="edge">
<title>Node12&#45;&gt;Node7</title>
<g id="a_edge21_Node000012_Node000007"><a xlink:title=" ">
<path fill="none" stroke="#63b8ff" d="M336.8,-167.59C375.54,-157.95 435.57,-143.02 475.32,-133.12"/>
<polygon fill="#63b8ff" stroke="#63b8ff" points="476.1,-136.29 484.96,-130.47 474.41,-129.49 476.1,-136.29"/>
</a>
</g>
</g>
<!-- Node12&#45;&gt;Node8 -->
<g id="edge18_Node000012_Node000008" class="edge">
<title>Node12&#45;&gt;Node8</title>
<g id="a_edge18_Node000012_Node000008"><a xlink:title=" ">
<path fill="none" stroke="#63b8ff" d="M315.84,-167.7C339.26,-154.85 383.05,-131.08 421,-112 442.46,-101.21 466.97,-89.62 485.71,-80.9"/>
<polygon fill="#63b8ff" stroke="#63b8ff" points="486.88,-83.76 494.48,-76.38 483.94,-77.41 486.88,-83.76"/>
</a>
</g>
</g>
<!-- Node12&#45;&gt;Node9 -->
<g id="edge20_Node000012_Node000009" class="edge">
<title>Node12&#45;&gt;Node9</title>
<g id="a_edge20_Node000012_Node000009"><a xlink:title=" ">
<path fill="none" stroke="#63b8ff" d="M286.63,-167.59C276.25,-159.7 261.19,-148.24 248.93,-138.92"/>
<polygon fill="#63b8ff" stroke="#63b8ff" points="251.3,-135.57 241.23,-132.3 247.07,-141.14 251.3,-135.57"/>
</a>
</g>
</g>
<!-- Node13&#45;&gt;Node3 -->
<g id="edge28_Node000013_Node000003" class="edge">
<title>Node13&#45;&gt;Node3</title>
<g id="a_edge28_Node000013_Node000003"><a xlink:title=" ">
<path fill="none" stroke="#63b8ff" d="M969.9,-167.88C970.75,-154.16 970.3,-128.11 957,-112 913.55,-59.36 880.45,-71.57 814,-56 640.47,-15.33 426.27,-10.68 338.91,-10.64"/>
<polygon fill="#63b8ff" stroke="#63b8ff" points="338.92,-7.14 328.93,-10.66 338.93,-14.14 338.92,-7.14"/>
</a>
</g>
</g>
<!-- Node14 -->
<g id="Node000014" class="node">
<title>Node14</title>
<g id="a_Node000014"><a xlink:title=" ">
<polygon fill="#e0e0e0" stroke="#999999" points="948.12,-132 905.88,-132 905.88,-112 948.12,-112 948.12,-132"/>
<text text-anchor="middle" x="927" y="-118.5" font-family="Helvetica,sans-Serif" font-size="10.00">queue</text>
</a>
</g>
</g>
<!-- Node13&#45;&gt;Node14 -->
<g id="edge29_Node000013_Node000014" class="edge">
<title>Node13&#45;&gt;Node14</title>
<g id="a_edge29_Node000013_Node000014"><a xlink:title=" ">
<path fill="none" stroke="#63b8ff" d="M961.68,-167.59C955.96,-160.24 947.84,-149.8 940.9,-140.87"/>
<polygon fill="#63b8ff" stroke="#63b8ff" points="943.13,-139.04 934.23,-133.3 937.61,-143.34 943.13,-139.04"/>
</a>
</g>
</g>
<!-- Node15 -->
<g id="Node000015" class="node">
<title>Node15</title>
<g id="a_Node000015"><a xlink:title=" ">
<polygon fill="#e0e0e0" stroke="#999999" points="887.62,-132 848.38,-132 848.38,-112 887.62,-112 887.62,-132"/>
<text text-anchor="middle" x="868" y="-118.5" font-family="Helvetica,sans-Serif" font-size="10.00">utility</text>
</a>
</g>
</g>
<!-- Node13&#45;&gt;Node15 -->
<g id="edge30_Node000013_Node000015" class="edge">
<title>Node13&#45;&gt;Node15</title>
<g id="a_edge30_Node000013_Node000015"><a xlink:title=" ">
<path fill="none" stroke="#63b8ff" d="M951.41,-167.59C935.93,-159.32 913.16,-147.14 895.32,-137.6"/>
<polygon fill="#63b8ff" stroke="#63b8ff" points="897.2,-134.11 886.73,-132.48 893.9,-140.28 897.2,-134.11"/>
</a>
</g>
</g>
<!-- Node16&#45;&gt;Node3 -->
<g id="edge36_Node000016_Node000003" class="edge">
<title>Node16&#45;&gt;Node3</title>
<g id="a_edge36_Node000016_Node000003"><a xlink:title=" ">
<path fill="none" stroke="#63b8ff" d="M651.63,-223.58C667.24,-211.53 689.61,-189.62 681,-168 655.65,-104.33 635.56,-88.09 575,-56 534.75,-34.67 405.22,-20.43 338.92,-14.35"/>
<polygon fill="#63b8ff" stroke="#63b8ff" points="339.35,-10.78 329.07,-13.38 338.72,-17.76 339.35,-10.78"/>
</a>
</g>
</g>
<!-- Node16&#45;&gt;Node9 -->
<g id="edge37_Node000016_Node000009" class="edge">
<title>Node16&#45;&gt;Node9</title>
<g id="a_edge37_Node000016_Node000009"><a xlink:title=" ">
<path fill="none" stroke="#63b8ff" d="M603.48,-231.19C512.99,-226.15 274.03,-210.79 247,-188 233.95,-177 229.59,-157.57 228.26,-142.81"/>
<polygon fill="#63b8ff" stroke="#63b8ff" points="231.73,-143.04 227.74,-133.22 224.74,-143.38 231.73,-143.04"/>
</a>
</g>
</g>
<!-- Node16&#45;&gt;Node17 -->
<g id="edge38_Node000016_Node000017" class="edge">
<title>Node16&#45;&gt;Node17</title>
<g id="a_edge38_Node000016_Node000017"><a xlink:title=" ">
<path fill="none" stroke="#63b8ff" d="M637.65,-223.59C637.4,-216.86 637.06,-207.53 636.75,-199.15"/>
<polygon fill="#63b8ff" stroke="#63b8ff" points="640.21,-199.16 636.34,-189.3 633.22,-199.42 640.21,-199.16"/>
</a>
</g>
</g>
<!-- Node17&#45;&gt;Node3 -->
<g id="edge39_Node000017_Node000003" class="edge">
<title>Node17&#45;&gt;Node3</title>
<g id="a_edge39_Node000017_Node000003"><a xlink:title=" ">
<path fill="none" stroke="#63b8ff" d="M632.22,-167.54C622.38,-144.28 593.64,-84.16 549,-56 514.59,-34.29 399.91,-20.5 338.54,-14.49"/>
<polygon fill="#63b8ff" stroke="#63b8ff" points="339.03,-10.92 328.74,-13.46 338.36,-17.89 339.03,-10.92"/>
</a>
</g>
</g>
<!-- Node17&#45;&gt;Node9 -->
<g id="edge40_Node000017_Node000009" class="edge">
<title>Node17&#45;&gt;Node9</title>
<g id="a_edge40_Node000017_Node000009"><a xlink:title=" ">
<path fill="none" stroke="#63b8ff" d="M599.43,-172.16C521.69,-161.87 340.82,-137.93 263.78,-127.74"/>
<polygon fill="#63b8ff" stroke="#63b8ff" points="264.57,-124.18 254.19,-126.33 263.65,-131.12 264.57,-124.18"/>
</a>
</g>
</g>
<!-- Node18&#45;&gt;Node3 -->
<g id="edge45_Node000018_Node000003" class="edge">
<title>Node18&#45;&gt;Node3</title>
<g id="a_edge45_Node000018_Node000003"><a xlink:title=" ">
<path fill="none" stroke="#63b8ff" d="M863.5,-167.75C857.17,-158.69 847.31,-144.47 839,-132 816.71,-98.56 824.37,-76.83 790,-56 751.77,-32.84 449.1,-17.52 338.93,-12.66"/>
<polygon fill="#63b8ff" stroke="#63b8ff" points="339.12,-9.12 328.97,-12.18 338.81,-16.11 339.12,-9.12"/>
</a>
</g>
</g>
<!-- Node18&#45;&gt;Node7 -->
<g id="edge44_Node000018_Node000007" class="edge">
<title>Node18&#45;&gt;Node7</title>
<g id="a_edge44_Node000018_Node000007"><a xlink:title=" ">
<path fill="none" stroke="#63b8ff" d="M841.33,-172.63C778.63,-163.06 629.13,-140.26 556.71,-129.21"/>
<polygon fill="#63b8ff" stroke="#63b8ff" points="557.6,-125.65 547.19,-127.6 556.55,-132.57 557.6,-125.65"/>
</a>
</g>
</g>
<!-- Node18&#45;&gt;Node8 -->
<g id="edge46_Node000018_Node000008" class="edge">
<title>Node18&#45;&gt;Node8</title>
<g id="a_edge46_Node000018_Node000008"><a xlink:title=" ">
<path fill="none" stroke="#63b8ff" d="M850.7,-167.69C821.63,-153.96 764.59,-128.16 714,-112 658.1,-94.15 591.18,-80.49 551.21,-73.11"/>
<polygon fill="#63b8ff" stroke="#63b8ff" points="551.9,-69.5 541.44,-71.16 550.65,-76.39 551.9,-69.5"/>
</a>
</g>
</g>
<!-- Node18&#45;&gt;Node14 -->
<g id="edge48_Node000018_Node000014" class="edge">
<title>Node18&#45;&gt;Node14</title>
<g id="a_edge48_Node000018_Node000014"><a xlink:title=" ">
<path fill="none" stroke="#63b8ff" d="M879.93,-167.59C888.02,-159.93 899.65,-148.91 909.32,-139.75"/>
<polygon fill="#63b8ff" stroke="#63b8ff" points="911.33,-142.72 916.19,-133.3 906.52,-137.63 911.33,-142.72"/>
</a>
</g>
</g>
<!-- Node18&#45;&gt;Node15 -->
<g id="edge47_Node000018_Node000015" class="edge">
<title>Node18&#45;&gt;Node15</title>
<g id="a_edge47_Node000018_Node000015"><a xlink:title=" ">
<path fill="none" stroke="#63b8ff" d="M869.65,-167.59C869.4,-160.86 869.06,-151.53 868.75,-143.15"/>
<polygon fill="#63b8ff" stroke="#63b8ff" points="872.21,-143.16 868.34,-133.3 865.22,-143.42 872.21,-143.16"/>
</a>
</g>
</g>
</g>
</svg>
