<?xml version="1.0" encoding="UTF-8" standalone="no"?>
<!DOCTYPE svg PUBLIC "-//W3C//DTD SVG 1.1//EN"
 "http://www.w3.org/Graphics/SVG/1.1/DTD/svg11.dtd">
<!-- Generated by graphviz version 8.1.0 (20230707.0739)
 -->
<!-- Title: ExoCode/src/ParseIni.h Pages: 1 -->
<!--zoomable 532 -->

<svg id="main" version="1.1" xmlns="http://www.w3.org/2000/svg" xmlns:xlink="http://www.w3.org/1999/xlink" xml:space="preserve" onload="init(evt)">
<style type="text/css"><![CDATA[
.node, .edge {opacity: 0.7;}
.node.selected, .edge.selected {opacity: 1;}
.edge:hover path { stroke: red; }
.edge:hover polygon { stroke: red; fill: red; }
]]></style>

<defs>
  <circle id="rim" cx="0" cy="0" r="7"/>
  <circle id="rim2" cx="0" cy="0" r="3.5"/>
  <g id="zoomPlus">
    <use xlink:href="#rim" fill="#404040"><set attributeName="fill" to="#808080" begin="zoomplus.mouseover" end="zoomplus.mouseout"/></use>
    <path d="M-4,0h8M0,-4v8" fill="none" stroke="white" stroke-width="1.5" pointer-events="none"/>
  </g>
  <g id="zoomMin">
    <use xlink:href="#rim" fill="#404040"><set attributeName="fill" to="#808080" begin="zoomminus.mouseover" end="zoomminus.mouseout"/></use>
    <path d="M-4,0h8" fill="none" stroke="white" stroke-width="1.5" pointer-events="none"/>
  </g>
  <g id="arrowUp" transform="translate(30 24)">
    <use xlink:href="#rim"/>
    <path pointer-events="none" fill="none" stroke="white" stroke-width="1.5" d="M0,-3.0v7 M-2.5,-0.5L0,-3.0L2.5,-0.5"/>
  </g>
  <g id="arrowRight" transform="rotate(90) translate(36 -43)">
    <use xlink:href="#rim"/>
    <path pointer-events="none" fill="none" stroke="white" stroke-width="1.5" d="M0,-3.0v7 M-2.5,-0.5L0,-3.0L2.5,-0.5"/>
  </g>
  <g id="arrowDown" transform="rotate(180) translate(-30 -48)">
    <use xlink:href="#rim"/>
    <path pointer-events="none" fill="none" stroke="white" stroke-width="1.5" d="M0,-3.0v7 M-2.5,-0.5L0,-3.0L2.5,-0.5"/>
  </g>
  <g id="arrowLeft" transform="rotate(270) translate(-36 17)">
    <use xlink:href="#rim"/>
    <path pointer-events="none" fill="none" stroke="white" stroke-width="1.5" d="M0,-3.0v7 M-2.5,-0.5L0,-3.0L2.5,-0.5"/>
  </g>
  <g id="resetDef">
    <use xlink:href="#rim2" fill="#404040"><set attributeName="fill" to="#808080" begin="reset.mouseover" end="reset.mouseout"/></use>
  </g>
</defs>
<script type="application/ecmascript">
var viewWidth = 1808;
var viewHeight = 532;
var sectionId = 'dynsection-1';
</script>
<script type="application/ecmascript" xlink:href="svg.min.js"/>
<svg id="graph" class="graph">
<g id="viewport">
<title>ExoCode/src/ParseIni.h</title>
<!-- Node1 -->
<g id="Node000001" class="node">
<title>Node1</title>
<g id="a_Node000001"><a xlink:title="Declares the functions needed and defines mapping between the INI keys and the exo components.">
<polygon fill="#999999" stroke="#666666" points="788.75,-524 670,-524 670,-504 788.75,-504 788.75,-524"/>
<text text-anchor="middle" x="729.38" y="-510.5" font-family="Helvetica,sans-Serif" font-size="10.00">ExoCode/src/ParseIni.h</text>
</a>
</g>
</g>
<!-- Node2 -->
<g id="Node000002" class="node">
<title>Node2</title>
<g id="a_Node000002"><a xlink:href="_coms_m_c_u_8h.html" target="_top" xlink:title="The top of the composite structure for the communication microcontroller. This class manages the blue...">
<polygon fill="white" stroke="#666666" points="130.75,-244 0,-244 0,-224 130.75,-224 130.75,-244"/>
<text text-anchor="middle" x="65.38" y="-230.5" font-family="Helvetica,sans-Serif" font-size="10.00">ExoCode/src/ComsMCU.h</text>
</a>
</g>
</g>
<!-- Node1&#45;&gt;Node2 -->
<g id="edge1_Node000001_Node000002" class="edge">
<title>Node1&#45;&gt;Node2</title>
<g id="a_edge1_Node000001_Node000002"><a xlink:title=" ">
<path fill="none" stroke="#63b8ff" d="M658.96,-509.55C579.71,-504.61 447.53,-493.16 336.38,-468 249.74,-448.39 147.38,-491.83 147.38,-403 147.38,-403 147.38,-403 147.38,-345 147.38,-299.98 102.68,-261.48 79.29,-244.41"/>
<polygon fill="#63b8ff" stroke="#63b8ff" points="658.59,-513.1 668.78,-510.21 659.01,-506.11 658.59,-513.1"/>
</a>
</g>
</g>
<!-- Node4 -->
<g id="Node000004" class="node">
<title>Node4</title>
<g id="a_Node000004"><a xlink:href="_controller_data_8h.html" target="_top" xlink:title="Declares a class used to store data for controllers to access.">
<polygon fill="white" stroke="#666666" points="562.88,-468 417.88,-468 417.88,-448 562.88,-448 562.88,-468"/>
<text text-anchor="middle" x="490.38" y="-454.5" font-family="Helvetica,sans-Serif" font-size="10.00">ExoCode/src/ControllerData.h</text>
</a>
</g>
</g>
<!-- Node1&#45;&gt;Node4 -->
<g id="edge3_Node000001_Node000004" class="edge">
<title>Node1&#45;&gt;Node4</title>
<g id="a_edge3_Node000001_Node000004"><a xlink:title=" ">
<path fill="none" stroke="#63b8ff" d="M676.82,-501.13C633.36,-491.31 572.45,-477.54 532.23,-468.46"/>
<polygon fill="#63b8ff" stroke="#63b8ff" points="675.95,-504.74 686.47,-503.53 677.49,-497.91 675.95,-504.74"/>
</a>
</g>
</g>
<!-- Node6 -->
<g id="Node000006" class="node">
<title>Node6</title>
<g id="a_Node000006"><a xlink:href="_joint_data_8h.html" target="_top" xlink:title="Declares a class used to store data for joint to access.">
<polygon fill="white" stroke="#666666" points="640.38,-412 516.38,-412 516.38,-392 640.38,-392 640.38,-412"/>
<text text-anchor="middle" x="578.38" y="-398.5" font-family="Helvetica,sans-Serif" font-size="10.00">ExoCode/src/JointData.h</text>
</a>
</g>
</g>
<!-- Node1&#45;&gt;Node6 -->
<g id="edge32_Node000001_Node000006" class="edge">
<title>Node1&#45;&gt;Node6</title>
<g id="a_edge32_Node000001_Node000006"><a xlink:title=" ">
<path fill="none" stroke="#63b8ff" d="M670.76,-500.4C649.8,-493.59 627.23,-483.31 610.38,-468 593.43,-452.61 584.4,-426.25 580.6,-412.3"/>
<polygon fill="#63b8ff" stroke="#63b8ff" points="669.62,-504.02 680.21,-503.57 671.65,-497.32 669.62,-504.02"/>
</a>
</g>
</g>
<!-- Node8 -->
<g id="Node000008" class="node">
<title>Node8</title>
<g id="a_Node000008"><a xlink:href="_leg_data_8h.html" target="_top" xlink:title="Declares a class used to store data for leg to access.">
<polygon fill="white" stroke="#666666" points="491.12,-356 371.62,-356 371.62,-336 491.12,-336 491.12,-356"/>
<text text-anchor="middle" x="431.38" y="-342.5" font-family="Helvetica,sans-Serif" font-size="10.00">ExoCode/src/LegData.h</text>
</a>
</g>
</g>
<!-- Node1&#45;&gt;Node8 -->
<g id="edge33_Node000001_Node000008" class="edge">
<title>Node1&#45;&gt;Node8</title>
<g id="a_edge33_Node000001_Node000008"><a xlink:title=" ">
<path fill="none" stroke="#63b8ff" d="M658.85,-513.09C592.01,-510.9 489.96,-501.57 408.38,-468 369.9,-452.17 352.02,-449.19 333.38,-412 319.33,-383.98 357.36,-366.2 390.07,-356.44"/>
<polygon fill="#63b8ff" stroke="#63b8ff" points="658.59,-516.61 668.68,-513.39 658.78,-509.61 658.59,-516.61"/>
</a>
</g>
</g>
<!-- Node9 -->
<g id="Node000009" class="node">
<title>Node9</title>
<g id="a_Node000009"><a xlink:href="_exo_data_8h.html" target="_top" xlink:title="Declares a class used to store data for the Exo to access.">
<polygon fill="white" stroke="#666666" points="414.88,-300 293.88,-300 293.88,-280 414.88,-280 414.88,-300"/>
<text text-anchor="middle" x="354.38" y="-286.5" font-family="Helvetica,sans-Serif" font-size="10.00">ExoCode/src/ExoData.h</text>
</a>
</g>
</g>
<!-- Node1&#45;&gt;Node9 -->
<g id="edge31_Node000001_Node000009" class="edge">
<title>Node1&#45;&gt;Node9</title>
<g id="a_edge31_Node000001_Node000009"><a xlink:title=" ">
<path fill="none" stroke="#63b8ff" d="M658.9,-511.72C565.82,-508.8 408.09,-499.25 360.38,-468 336.21,-452.17 334.98,-439.87 327.38,-412 316.16,-370.88 338.45,-320.99 349.12,-300.49"/>
<polygon fill="#63b8ff" stroke="#63b8ff" points="658.54,-515.24 668.64,-512.03 658.75,-508.24 658.54,-515.24"/>
</a>
</g>
</g>
<!-- Node11 -->
<g id="Node000011" class="node">
<title>Node11</title>
<g id="a_Node000011"><a xlink:href="_params_from_s_d_8h.html" target="_top" xlink:title="Declares the functions to pull controller parameters from the SD card and defines the mapping to the ...">
<polygon fill="white" stroke="#666666" points="883,-244 729.75,-244 729.75,-224 883,-224 883,-244"/>
<text text-anchor="middle" x="806.38" y="-230.5" font-family="Helvetica,sans-Serif" font-size="10.00">ExoCode/src/ParamsFromSD.h</text>
</a>
</g>
</g>
<!-- Node1&#45;&gt;Node11 -->
<g id="edge38_Node000001_Node000011" class="edge">
<title>Node1&#45;&gt;Node11</title>
<g id="a_edge38_Node000001_Node000011"><a xlink:title=" ">
<path fill="none" stroke="#63b8ff" d="M785.69,-500.22C805.11,-493.41 825.66,-483.19 840.38,-468 861.81,-445.88 864.38,-433.8 864.38,-403 864.38,-403 864.38,-403 864.38,-345 864.38,-303.55 831.75,-262.4 815.44,-244.42"/>
<polygon fill="#63b8ff" stroke="#63b8ff" points="784.8,-497.15 776.37,-503.57 786.96,-503.81 784.8,-497.15"/>
</a>
</g>
</g>
<!-- Node13 -->
<g id="Node000013" class="node">
<title>Node13</title>
<g id="a_Node000013"><a xlink:href="ble__commands_8h.html" target="_top" xlink:title="This file declares the BLE commands, and the functions that should be called when they are received.">
<polygon fill="white" stroke="#666666" points="792.12,-132 642.62,-132 642.62,-112 792.12,-112 792.12,-132"/>
<text text-anchor="middle" x="717.38" y="-118.5" font-family="Helvetica,sans-Serif" font-size="10.00">ExoCode/src/ble_commands.h</text>
</a>
</g>
</g>
<!-- Node1&#45;&gt;Node13 -->
<g id="edge48_Node000001_Node000013" class="edge">
<title>Node1&#45;&gt;Node13</title>
<g id="a_edge48_Node000001_Node000013"><a xlink:title=" ">
<path fill="none" stroke="#63b8ff" d="M795.54,-500.95C847.59,-487.21 911.38,-458.96 911.38,-403 911.38,-403 911.38,-403 911.38,-289 911.38,-234.86 933.09,-208.68 897.38,-168 882.87,-151.48 832.66,-139.78 788.94,-132.46"/>
<polygon fill="#63b8ff" stroke="#63b8ff" points="794.82,-497.77 785.97,-503.59 796.52,-504.56 794.82,-497.77"/>
</a>
</g>
</g>
<!-- Node16 -->
<g id="Node000016" class="node">
<title>Node16</title>
<g id="a_Node000016"><a xlink:href="uart__commands_8h.html" target="_top" xlink:title=" ">
<polygon fill="white" stroke="#666666" points="668,-188 514.75,-188 514.75,-168 668,-168 668,-188"/>
<text text-anchor="middle" x="591.38" y="-174.5" font-family="Helvetica,sans-Serif" font-size="10.00">ExoCode/src/uart_commands.h</text>
</a>
</g>
</g>
<!-- Node1&#45;&gt;Node16 -->
<g id="edge49_Node000001_Node000016" class="edge">
<title>Node1&#45;&gt;Node16</title>
<g id="a_edge49_Node000001_Node000016"><a xlink:title=" ">
<path fill="none" stroke="#63b8ff" d="M751.34,-497.41C779.22,-475.53 822.05,-433.7 807.38,-392 771.35,-289.66 653.44,-214.1 608.75,-188.49"/>
<polygon fill="#63b8ff" stroke="#63b8ff" points="749.77,-494.97 743.9,-503.79 753.99,-500.55 749.77,-494.97"/>
</a>
</g>
</g>
<!-- Node22 -->
<g id="Node000022" class="node">
<title>Node22</title>
<g id="a_Node000022"><a xlink:href="_motor_data_8cpp.html" target="_top" xlink:title=" ">
<polygon fill="white" stroke="#666666" points="797.88,-412 658.88,-412 658.88,-392 797.88,-392 797.88,-412"/>
<text text-anchor="middle" x="728.38" y="-398.5" font-family="Helvetica,sans-Serif" font-size="10.00">ExoCode/src/MotorData.cpp</text>
</a>
</g>
</g>
<!-- Node1&#45;&gt;Node22 -->
<g id="edge34_Node000001_Node000022" class="edge">
<title>Node1&#45;&gt;Node22</title>
<g id="a_edge34_Node000001_Node000022"><a xlink:title=" ">
<path fill="none" stroke="#63b8ff" d="M744.13,-494.82C752.72,-482 761.03,-464.29 756.38,-448 752.48,-434.38 743.14,-420.86 736.31,-412.25"/>
<polygon fill="#63b8ff" stroke="#63b8ff" points="740.81,-492.43 737.71,-502.56 746.45,-496.57 740.81,-492.43"/>
</a>
</g>
</g>
<!-- Node23 -->
<g id="Node000023" class="node">
<title>Node23</title>
<g id="a_Node000023"><a xlink:href="_motor_data_8h.html" target="_top" xlink:title="Declares a class used to store data for motors to access.">
<polygon fill="white" stroke="#666666" points="747.62,-468 619.12,-468 619.12,-448 747.62,-448 747.62,-468"/>
<text text-anchor="middle" x="683.38" y="-454.5" font-family="Helvetica,sans-Serif" font-size="10.00">ExoCode/src/MotorData.h</text>
</a>
</g>
</g>
<!-- Node1&#45;&gt;Node23 -->
<g id="edge35_Node000001_Node000023" class="edge">
<title>Node1&#45;&gt;Node23</title>
<g id="a_edge35_Node000001_Node000023"><a xlink:title=" ">
<path fill="none" stroke="#63b8ff" d="M714.29,-495.29C706.61,-486.28 697.6,-475.7 691.3,-468.3"/>
<polygon fill="#63b8ff" stroke="#63b8ff" points="712.21,-497.25 721.36,-502.59 717.54,-492.71 712.21,-497.25"/>
</a>
</g>
</g>
<!-- Node24 -->
<g id="Node000024" class="node">
<title>Node24</title>
<g id="a_Node000024"><a xlink:href="_parse_ini_8cpp.html" target="_top" xlink:title=" ">
<polygon fill="white" stroke="#666666" points="1107,-468 977.75,-468 977.75,-448 1107,-448 1107,-468"/>
<text text-anchor="middle" x="1042.38" y="-454.5" font-family="Helvetica,sans-Serif" font-size="10.00">ExoCode/src/ParseIni.cpp</text>
</a>
</g>
</g>
<!-- Node1&#45;&gt;Node24 -->
<g id="edge39_Node000001_Node000024" class="edge">
<title>Node1&#45;&gt;Node24</title>
<g id="a_edge39_Node000001_Node000024"><a xlink:title=" ">
<path fill="none" stroke="#63b8ff" d="M794.97,-501.68C852.07,-491.83 933.89,-477.72 987.56,-468.46"/>
<polygon fill="#63b8ff" stroke="#63b8ff" points="794.51,-498.38 785.25,-503.53 795.7,-505.28 794.51,-498.38"/>
</a>
</g>
</g>
<!-- Node25 -->
<g id="Node000025" class="node">
<title>Node25</title>
<g id="a_Node000025"><a xlink:href="_utilities_8h.html" target="_top" xlink:title=" ">
<polygon fill="white" stroke="#666666" points="1230.25,-300 1114.5,-300 1114.5,-280 1230.25,-280 1230.25,-300"/>
<text text-anchor="middle" x="1172.38" y="-286.5" font-family="Helvetica,sans-Serif" font-size="10.00">ExoCode/src/Utilities.h</text>
</a>
</g>
</g>
<!-- Node1&#45;&gt;Node25 -->
<g id="edge40_Node000001_Node000025" class="edge">
<title>Node1&#45;&gt;Node25</title>
<g id="a_edge40_Node000001_Node000025"><a xlink:title=" ">
<path fill="none" stroke="#63b8ff" d="M799.78,-503.77C838.11,-497.05 885.67,-485.91 925.38,-468 1027.81,-421.8 1130.78,-329.95 1162.48,-300.39"/>
<polygon fill="#63b8ff" stroke="#63b8ff" points="799.51,-500.43 790.23,-505.55 800.67,-507.34 799.51,-500.43"/>
</a>
</g>
</g>
<!-- Node3 -->
<g id="Node000003" class="node">
<title>Node3</title>
<g id="a_Node000003"><a xlink:href="_coms_m_c_u_8cpp.html" target="_top" xlink:title=" ">
<polygon fill="white" stroke="#666666" points="233,-132 91.75,-132 91.75,-112 233,-112 233,-132"/>
<text text-anchor="middle" x="162.38" y="-118.5" font-family="Helvetica,sans-Serif" font-size="10.00">ExoCode/src/ComsMCU.cpp</text>
</a>
</g>
</g>
<!-- Node2&#45;&gt;Node3 -->
<g id="edge2_Node000002_Node000003" class="edge">
<title>Node2&#45;&gt;Node3</title>
<g id="a_edge2_Node000002_Node000003"><a xlink:title=" ">
<path fill="none" stroke="#63b8ff" d="M80.78,-215.53C101.58,-191.95 137.89,-150.76 154.13,-132.35"/>
<polygon fill="#63b8ff" stroke="#63b8ff" points="78.63,-212.81 74.65,-222.62 83.88,-217.44 78.63,-212.81"/>
</a>
</g>
</g>
<!-- Node5 -->
<g id="Node000005" class="node">
<title>Node5</title>
<g id="a_Node000005"><a xlink:href="_controller_data_8cpp.html" target="_top" xlink:title=" ">
<polygon fill="white" stroke="#666666" points="498.12,-412 342.62,-412 342.62,-392 498.12,-392 498.12,-412"/>
<text text-anchor="middle" x="420.38" y="-398.5" font-family="Helvetica,sans-Serif" font-size="10.00">ExoCode/src/ControllerData.cpp</text>
</a>
</g>
</g>
<!-- Node4&#45;&gt;Node5 -->
<g id="edge4_Node000004_Node000005" class="edge">
<title>Node4&#45;&gt;Node5</title>
<g id="a_edge4_Node000004_Node000005"><a xlink:title=" ">
<path fill="none" stroke="#63b8ff" d="M469.58,-440.95C457.47,-431.61 442.62,-420.16 432.43,-412.3"/>
<polygon fill="#63b8ff" stroke="#63b8ff" points="467.13,-444.26 477.18,-447.59 471.4,-438.71 467.13,-444.26"/>
</a>
</g>
</g>
<!-- Node4&#45;&gt;Node6 -->
<g id="edge5_Node000004_Node000006" class="edge">
<title>Node4&#45;&gt;Node6</title>
<g id="a_edge5_Node000004_Node000006"><a xlink:title=" ">
<path fill="none" stroke="#63b8ff" d="M514.69,-442.08C530.11,-432.62 549.6,-420.66 562.93,-412.48"/>
<polygon fill="#63b8ff" stroke="#63b8ff" points="513.4,-439.38 506.7,-447.59 517.06,-445.35 513.4,-439.38"/>
</a>
</g>
</g>
<!-- Node7 -->
<g id="Node000007" class="node">
<title>Node7</title>
<g id="a_Node000007"><a xlink:href="_joint_data_8cpp.html" target="_top" xlink:title=" ">
<polygon fill="white" stroke="#666666" points="753.62,-356 619.12,-356 619.12,-336 753.62,-336 753.62,-356"/>
<text text-anchor="middle" x="686.38" y="-342.5" font-family="Helvetica,sans-Serif" font-size="10.00">ExoCode/src/JointData.cpp</text>
</a>
</g>
</g>
<!-- Node6&#45;&gt;Node7 -->
<g id="edge6_Node000006_Node000007" class="edge">
<title>Node6&#45;&gt;Node7</title>
<g id="a_edge6_Node000006_Node000007"><a xlink:title=" ">
<path fill="none" stroke="#63b8ff" d="M606.88,-386.75C626.01,-377.18 650.67,-364.85 667.42,-356.48"/>
<polygon fill="#63b8ff" stroke="#63b8ff" points="605.57,-383.99 598.19,-391.59 608.7,-390.25 605.57,-383.99"/>
</a>
</g>
</g>
<!-- Node6&#45;&gt;Node8 -->
<g id="edge7_Node000006_Node000008" class="edge">
<title>Node6&#45;&gt;Node8</title>
<g id="a_edge7_Node000006_Node000008"><a xlink:title=" ">
<path fill="none" stroke="#63b8ff" d="M542.77,-387.92C516.34,-378.21 480.92,-365.2 457.18,-356.48"/>
<polygon fill="#63b8ff" stroke="#63b8ff" points="541.18,-391.43 551.77,-391.59 543.59,-384.86 541.18,-391.43"/>
</a>
</g>
</g>
<!-- Node6&#45;&gt;Node16 -->
<g id="edge30_Node000006_Node000016" class="edge">
<title>Node6&#45;&gt;Node16</title>
<g id="a_edge30_Node000006_Node000016"><a xlink:title=" ">
<path fill="none" stroke="#63b8ff" d="M579.54,-381.04C582.25,-334.76 588.89,-221.5 590.83,-188.3"/>
<polygon fill="#63b8ff" stroke="#63b8ff" points="576.01,-380.56 578.92,-390.74 583,-380.97 576.01,-380.56"/>
</a>
</g>
</g>
<!-- Node8&#45;&gt;Node9 -->
<g id="edge8_Node000008_Node000009" class="edge">
<title>Node8&#45;&gt;Node9</title>
<g id="a_edge8_Node000008_Node000009"><a xlink:title=" ">
<path fill="none" stroke="#63b8ff" d="M409.33,-329.54C395.97,-320.17 379.34,-308.51 367.89,-300.48"/>
<polygon fill="#63b8ff" stroke="#63b8ff" points="406.77,-332.72 416.96,-335.59 410.78,-326.99 406.77,-332.72"/>
</a>
</g>
</g>
<!-- Node21 -->
<g id="Node000021" class="node">
<title>Node21</title>
<g id="a_Node000021"><a xlink:href="_leg_data_8cpp.html" target="_top" xlink:title=" ">
<polygon fill="white" stroke="#666666" points="563.38,-300 433.38,-300 433.38,-280 563.38,-280 563.38,-300"/>
<text text-anchor="middle" x="498.38" y="-286.5" font-family="Helvetica,sans-Serif" font-size="10.00">ExoCode/src/LegData.cpp</text>
</a>
</g>
</g>
<!-- Node8&#45;&gt;Node21 -->
<g id="edge29_Node000008_Node000021" class="edge">
<title>Node8&#45;&gt;Node21</title>
<g id="a_edge29_Node000008_Node000021"><a xlink:title=" ">
<path fill="none" stroke="#63b8ff" d="M451.28,-328.95C462.87,-319.61 477.08,-308.16 486.84,-300.3"/>
<polygon fill="#63b8ff" stroke="#63b8ff" points="449.64,-326.59 444.05,-335.59 454.03,-332.04 449.64,-326.59"/>
</a>
</g>
</g>
<!-- Node9&#45;&gt;Node2 -->
<g id="edge9_Node000009_Node000002" class="edge">
<title>Node9&#45;&gt;Node2</title>
<g id="a_edge9_Node000009_Node000002"><a xlink:title=" ">
<path fill="none" stroke="#63b8ff" d="M293.15,-277.56C240.46,-267.71 165.34,-253.68 115.99,-244.46"/>
<polygon fill="#63b8ff" stroke="#63b8ff" points="292.23,-281.14 302.7,-279.53 293.52,-274.25 292.23,-281.14"/>
</a>
</g>
</g>
<!-- Node10 -->
<g id="Node000010" class="node">
<title>Node10</title>
<g id="a_Node000010"><a xlink:href="_exo_data_8cpp.html" target="_top" xlink:title=" ">
<polygon fill="white" stroke="#666666" points="458.12,-188 326.62,-188 326.62,-168 458.12,-168 458.12,-188"/>
<text text-anchor="middle" x="392.38" y="-174.5" font-family="Helvetica,sans-Serif" font-size="10.00">ExoCode/src/ExoData.cpp</text>
</a>
</g>
</g>
<!-- Node9&#45;&gt;Node10 -->
<g id="edge10_Node000009_Node000010" class="edge">
<title>Node9&#45;&gt;Node10</title>
<g id="a_edge10_Node000009_Node000010"><a xlink:title=" ">
<path fill="none" stroke="#63b8ff" d="M393.83,-274.9C407.6,-267.86 421.55,-257.82 429.38,-244 440.57,-224.23 419.17,-201.11 404.51,-188.47"/>
<polygon fill="#63b8ff" stroke="#63b8ff" points="392.52,-272.12 384.93,-279.51 395.47,-278.47 392.52,-272.12"/>
</a>
</g>
</g>
<!-- Node9&#45;&gt;Node11 -->
<g id="edge11_Node000009_Node000011" class="edge">
<title>Node9&#45;&gt;Node11</title>
<g id="a_edge11_Node000009_Node000011"><a xlink:title=" ">
<path fill="none" stroke="#63b8ff" d="M425.88,-279.83C537.68,-266.09 654.77,-252.44 729.52,-243.81"/>
<polygon fill="#63b8ff" stroke="#63b8ff" points="425.57,-276.46 416.08,-281.16 426.43,-283.41 425.57,-276.46"/>
</a>
</g>
</g>
<!-- Node9&#45;&gt;Node13 -->
<g id="edge23_Node000009_Node000013" class="edge">
<title>Node9&#45;&gt;Node13</title>
<g id="a_edge23_Node000009_Node000013"><a xlink:title=" ">
<path fill="none" stroke="#63b8ff" d="M390.8,-275.42C408.37,-267.8 429.12,-257.17 445.38,-244 478.81,-216.91 468.82,-190.71 505.38,-168 528.99,-153.33 595.96,-140.61 648.38,-132.47"/>
<polygon fill="#63b8ff" stroke="#63b8ff" points="389.76,-272.47 381.87,-279.55 392.45,-278.94 389.76,-272.47"/>
</a>
</g>
</g>
<!-- Node9&#45;&gt;Node16 -->
<g id="edge28_Node000009_Node000016" class="edge">
<title>Node9&#45;&gt;Node16</title>
<g id="a_edge28_Node000009_Node000016"><a xlink:title=" ">
<path fill="none" stroke="#63b8ff" d="M408.11,-276.87C436.4,-269.39 471.18,-258.45 500.38,-244 531.87,-228.41 564.32,-202.37 580.63,-188.45"/>
<polygon fill="#63b8ff" stroke="#63b8ff" points="407.42,-273.69 398.61,-279.56 409.16,-280.47 407.42,-273.69"/>
</a>
</g>
</g>
<!-- Node18 -->
<g id="Node000018" class="node">
<title>Node18</title>
<g id="a_Node000018"><a xlink:href="_pi_logger_8h.html" target="_top" xlink:title=" ">
<polygon fill="white" stroke="#666666" points="270.25,-244 148.5,-244 148.5,-224 270.25,-224 270.25,-244"/>
<text text-anchor="middle" x="209.38" y="-230.5" font-family="Helvetica,sans-Serif" font-size="10.00">ExoCode/src/PiLogger.h</text>
</a>
</g>
</g>
<!-- Node9&#45;&gt;Node18 -->
<g id="edge22_Node000009_Node000018" class="edge">
<title>Node9&#45;&gt;Node18</title>
<g id="a_edge22_Node000009_Node000018"><a xlink:title=" ">
<path fill="none" stroke="#63b8ff" d="M318.91,-275.79C292.88,-266.1 258.14,-253.16 234.83,-244.48"/>
<polygon fill="#63b8ff" stroke="#63b8ff" points="317.53,-279.38 328.12,-279.59 319.97,-272.82 317.53,-279.38"/>
</a>
</g>
</g>
<!-- Node19 -->
<g id="Node000019" class="node">
<title>Node19</title>
<g id="a_Node000019"><a xlink:href="error__types_8h.html" target="_top" xlink:title=" ">
<polygon fill="white" stroke="#666666" points="420.5,-244 288.25,-244 288.25,-224 420.5,-224 420.5,-244"/>
<text text-anchor="middle" x="354.38" y="-230.5" font-family="Helvetica,sans-Serif" font-size="10.00">ExoCode/src/error_types.h</text>
</a>
</g>
</g>
<!-- Node9&#45;&gt;Node19 -->
<g id="edge24_Node000009_Node000019" class="edge">
<title>Node9&#45;&gt;Node19</title>
<g id="a_edge24_Node000009_Node000019"><a xlink:title=" ">
<path fill="none" stroke="#63b8ff" d="M354.38,-268.71C354.38,-260.32 354.38,-251.01 354.38,-244.3"/>
<polygon fill="#63b8ff" stroke="#63b8ff" points="350.88,-268.59 354.38,-278.59 357.88,-268.59 350.88,-268.59"/>
</a>
</g>
</g>
<!-- Node11&#45;&gt;Node10 -->
<g id="edge12_Node000011_Node000010" class="edge">
<title>Node11&#45;&gt;Node10</title>
<g id="a_edge12_Node000011_Node000010"><a xlink:title=" ">
<path fill="none" stroke="#63b8ff" d="M723.04,-222.13C645.08,-211.96 530.17,-196.97 458.38,-187.61"/>
<polygon fill="#63b8ff" stroke="#63b8ff" points="722.42,-225.71 732.79,-223.53 723.32,-218.77 722.42,-225.71"/>
</a>
</g>
</g>
<!-- Node12 -->
<g id="Node000012" class="node">
<title>Node12</title>
<g id="a_Node000012"><a xlink:href="_params_from_s_d_8cpp.html" target="_top" xlink:title=" ">
<polygon fill="white" stroke="#666666" points="888.25,-188 724.5,-188 724.5,-168 888.25,-168 888.25,-188"/>
<text text-anchor="middle" x="806.38" y="-174.5" font-family="Helvetica,sans-Serif" font-size="10.00">ExoCode/src/ParamsFromSD.cpp</text>
</a>
</g>
</g>
<!-- Node11&#45;&gt;Node12 -->
<g id="edge13_Node000011_Node000012" class="edge">
<title>Node11&#45;&gt;Node12</title>
<g id="a_edge13_Node000011_Node000012"><a xlink:title=" ">
<path fill="none" stroke="#63b8ff" d="M806.38,-212.71C806.38,-204.32 806.38,-195.01 806.38,-188.3"/>
<polygon fill="#63b8ff" stroke="#63b8ff" points="802.88,-212.59 806.38,-222.59 809.88,-212.59 802.88,-212.59"/>
</a>
</g>
</g>
<!-- Node11&#45;&gt;Node13 -->
<g id="edge14_Node000011_Node000013" class="edge">
<title>Node11&#45;&gt;Node13</title>
<g id="a_edge14_Node000011_Node000013"><a xlink:title=" ">
<path fill="none" stroke="#63b8ff" d="M756.24,-219.79C740.39,-212.99 724.62,-202.88 715.38,-188 704.65,-170.74 710,-145.61 714.12,-132.22"/>
<polygon fill="#63b8ff" stroke="#63b8ff" points="754.47,-223.24 765.06,-223.61 757.01,-216.72 754.47,-223.24"/>
</a>
</g>
</g>
<!-- Node11&#45;&gt;Node16 -->
<g id="edge18_Node000011_Node000016" class="edge">
<title>Node11&#45;&gt;Node16</title>
<g id="a_edge18_Node000011_Node000016"><a xlink:title=" ">
<path fill="none" stroke="#63b8ff" d="M758.35,-220.94C719.34,-211.14 665.07,-197.51 629.12,-188.48"/>
<polygon fill="#63b8ff" stroke="#63b8ff" points="757.37,-224.55 767.92,-223.59 759.08,-217.76 757.37,-224.55"/>
</a>
</g>
</g>
<!-- Node14 -->
<g id="Node000014" class="node">
<title>Node14</title>
<g id="a_Node000014"><a xlink:href="_ble_parser_8cpp.html" target="_top" xlink:title=" ">
<polygon fill="white" stroke="#666666" points="876.75,-20 740,-20 740,0 876.75,0 876.75,-20"/>
<text text-anchor="middle" x="808.38" y="-6.5" font-family="Helvetica,sans-Serif" font-size="10.00">ExoCode/src/BleParser.cpp</text>
</a>
</g>
</g>
<!-- Node13&#45;&gt;Node14 -->
<g id="edge15_Node000013_Node000014" class="edge">
<title>Node13&#45;&gt;Node14</title>
<g id="a_edge15_Node000013_Node000014"><a xlink:title=" ">
<path fill="none" stroke="#63b8ff" d="M750.68,-106.77C764.42,-99.39 779.42,-89.14 789.38,-76 802.15,-59.13 806.36,-33.85 807.72,-20.32"/>
<polygon fill="#63b8ff" stroke="#63b8ff" points="749.36,-104.01 741.99,-111.63 752.5,-110.27 749.36,-104.01"/>
</a>
</g>
</g>
<!-- Node15 -->
<g id="Node000015" class="node">
<title>Node15</title>
<g id="a_Node000015"><a xlink:href="_ble_parser_8h.html" target="_top" xlink:title="This class is used to serialize and deserialize the BLE data. The application uses Nordic&#39;s UART serv...">
<polygon fill="white" stroke="#666666" points="780.5,-76 654.25,-76 654.25,-56 780.5,-56 780.5,-76"/>
<text text-anchor="middle" x="717.38" y="-62.5" font-family="Helvetica,sans-Serif" font-size="10.00">ExoCode/src/BleParser.h</text>
</a>
</g>
</g>
<!-- Node13&#45;&gt;Node15 -->
<g id="edge16_Node000013_Node000015" class="edge">
<title>Node13&#45;&gt;Node15</title>
<g id="a_edge16_Node000013_Node000015"><a xlink:title=" ">
<path fill="none" stroke="#63b8ff" d="M717.38,-100.71C717.38,-92.32 717.38,-83.01 717.38,-76.3"/>
<polygon fill="#63b8ff" stroke="#63b8ff" points="713.88,-100.59 717.38,-110.59 720.88,-100.59 713.88,-100.59"/>
</a>
</g>
</g>
<!-- Node15&#45;&gt;Node14 -->
<g id="edge17_Node000015_Node000014" class="edge">
<title>Node15&#45;&gt;Node14</title>
<g id="a_edge17_Node000015_Node000014"><a xlink:title=" ">
<path fill="none" stroke="#63b8ff" d="M742.52,-50.08C758.46,-40.62 778.61,-28.66 792.4,-20.48"/>
<polygon fill="#63b8ff" stroke="#63b8ff" points="741.04,-47.48 734.23,-55.59 744.61,-53.5 741.04,-47.48"/>
</a>
</g>
</g>
<!-- Node16&#45;&gt;Node3 -->
<g id="edge19_Node000016_Node000003" class="edge">
<title>Node16&#45;&gt;Node3</title>
<g id="a_edge19_Node000016_Node000003"><a xlink:title=" ">
<path fill="none" stroke="#63b8ff" d="M505.63,-166.21C425.72,-156.15 307.95,-141.32 233.23,-131.92"/>
<polygon fill="#63b8ff" stroke="#63b8ff" points="504.8,-169.76 515.16,-167.53 505.67,-162.81 504.8,-169.76"/>
</a>
</g>
</g>
<!-- Node16&#45;&gt;Node13 -->
<g id="edge21_Node000016_Node000013" class="edge">
<title>Node16&#45;&gt;Node13</title>
<g id="a_edge21_Node000016_Node000013"><a xlink:title=" ">
<path fill="none" stroke="#63b8ff" d="M623.41,-163.27C645.88,-153.64 675.36,-141.01 695.26,-132.48"/>
<polygon fill="#63b8ff" stroke="#63b8ff" points="622.14,-160.44 614.32,-167.59 624.89,-166.87 622.14,-160.44"/>
</a>
</g>
</g>
<!-- Node17 -->
<g id="Node000017" class="node">
<title>Node17</title>
<g id="a_Node000017"><a xlink:href="_exo_8cpp.html" target="_top" xlink:title=" ">
<polygon fill="white" stroke="#666666" points="625,-132 513.75,-132 513.75,-112 625,-112 625,-132"/>
<text text-anchor="middle" x="569.38" y="-118.5" font-family="Helvetica,sans-Serif" font-size="10.00">ExoCode/src/Exo.cpp</text>
</a>
</g>
</g>
<!-- Node16&#45;&gt;Node17 -->
<g id="edge20_Node000016_Node000017" class="edge">
<title>Node16&#45;&gt;Node17</title>
<g id="a_edge20_Node000016_Node000017"><a xlink:title=" ">
<path fill="none" stroke="#63b8ff" d="M583.46,-157.58C579.95,-148.97 575.99,-139.24 573.16,-132.3"/>
<polygon fill="#63b8ff" stroke="#63b8ff" points="580.53,-158.65 587.54,-166.59 587.01,-156.01 580.53,-158.65"/>
</a>
</g>
</g>
<!-- Node19&#45;&gt;Node3 -->
<g id="edge25_Node000019_Node000003" class="edge">
<title>Node19&#45;&gt;Node3</title>
<g id="a_edge25_Node000019_Node000003"><a xlink:title=" ">
<path fill="none" stroke="#63b8ff" d="M282.02,-221.55C241.42,-213.74 196.04,-202.24 181.38,-188 166.02,-173.1 162.89,-146.53 162.37,-132.42"/>
<polygon fill="#63b8ff" stroke="#63b8ff" points="281.3,-225.16 291.77,-223.55 282.58,-218.28 281.3,-225.16"/>
</a>
</g>
</g>
<!-- Node19&#45;&gt;Node10 -->
<g id="edge26_Node000019_Node000010" class="edge">
<title>Node19&#45;&gt;Node10</title>
<g id="a_edge26_Node000019_Node000010"><a xlink:title=" ">
<path fill="none" stroke="#63b8ff" d="M367.24,-214.72C373.49,-205.84 380.73,-195.55 385.83,-188.3"/>
<polygon fill="#63b8ff" stroke="#63b8ff" points="363.89,-212.4 360.99,-222.59 369.61,-216.43 363.89,-212.4"/>
</a>
</g>
</g>
<!-- Node20 -->
<g id="Node000020" class="node">
<title>Node20</title>
<g id="a_Node000020"><a xlink:href="_motor_8cpp.html" target="_top" xlink:title=" ">
<polygon fill="white" stroke="#666666" points="308.75,-188 190,-188 190,-168 308.75,-168 308.75,-188"/>
<text text-anchor="middle" x="249.38" y="-174.5" font-family="Helvetica,sans-Serif" font-size="10.00">ExoCode/src/Motor.cpp</text>
</a>
</g>
</g>
<!-- Node19&#45;&gt;Node20 -->
<g id="edge27_Node000019_Node000020" class="edge">
<title>Node19&#45;&gt;Node20</title>
<g id="a_edge27_Node000019_Node000020"><a xlink:title=" ">
<path fill="none" stroke="#63b8ff" d="M326.4,-218.61C307.84,-209.07 284.01,-196.81 267.81,-188.48"/>
<polygon fill="#63b8ff" stroke="#63b8ff" points="324.59,-222.13 335.09,-223.59 327.79,-215.91 324.59,-222.13"/>
</a>
</g>
</g>
<!-- Node23&#45;&gt;Node6 -->
<g id="edge36_Node000023_Node000006" class="edge">
<title>Node23&#45;&gt;Node6</title>
<g id="a_edge36_Node000023_Node000006"><a xlink:title=" ">
<path fill="none" stroke="#63b8ff" d="M655.4,-442.61C636.84,-433.07 613.01,-420.81 596.81,-412.48"/>
<polygon fill="#63b8ff" stroke="#63b8ff" points="653.59,-446.13 664.09,-447.59 656.79,-439.91 653.59,-446.13"/>
</a>
</g>
</g>
<!-- Node23&#45;&gt;Node22 -->
<g id="edge37_Node000023_Node000022" class="edge">
<title>Node23&#45;&gt;Node22</title>
<g id="a_edge37_Node000023_Node000022"><a xlink:title=" ">
<path fill="none" stroke="#63b8ff" d="M698.14,-439.29C705.64,-430.28 714.46,-419.7 720.63,-412.3"/>
<polygon fill="#63b8ff" stroke="#63b8ff" points="694.93,-436.67 691.21,-446.59 700.3,-441.15 694.93,-436.67"/>
</a>
</g>
</g>
<!-- Node25&#45;&gt;Node11 -->
<g id="edge44_Node000025_Node000011" class="edge">
<title>Node25&#45;&gt;Node11</title>
<g id="a_edge44_Node000025_Node000011"><a xlink:title=" ">
<path fill="none" stroke="#63b8ff" d="M1103.53,-278.84C1036.63,-268.97 935.84,-254.1 870.56,-244.47"/>
<polygon fill="#63b8ff" stroke="#63b8ff" points="1102.98,-282.45 1113.38,-280.44 1104,-275.52 1102.98,-282.45"/>
</a>
</g>
</g>
<!-- Node25&#45;&gt;Node14 -->
<g id="edge42_Node000025_Node000014" class="edge">
<title>Node25&#45;&gt;Node14</title>
<g id="a_edge42_Node000025_Node000014"><a xlink:title=" ">
<path fill="none" stroke="#63b8ff" d="M1154.9,-271.8C1147.69,-263.9 1139.78,-254.06 1134.38,-244 1120.14,-217.48 1115.38,-209.1 1115.38,-179 1115.38,-179 1115.38,-179 1115.38,-121 1115.38,-69.62 961.06,-35.8 871.24,-20.47"/>
<polygon fill="#63b8ff" stroke="#63b8ff" points="1151.86,-273.73 1161.3,-278.53 1156.91,-268.89 1151.86,-273.73"/>
</a>
</g>
</g>
<!-- Node26 -->
<g id="Node000026" class="node">
<title>Node26</title>
<g id="a_Node000026"><a xlink:href="_ankle_angles_8cpp.html" target="_top" xlink:title=" ">
<polygon fill="white" stroke="#666666" points="1087.75,-244 939,-244 939,-224 1087.75,-224 1087.75,-244"/>
<text text-anchor="middle" x="1013.38" y="-230.5" font-family="Helvetica,sans-Serif" font-size="10.00">ExoCode/src/AnkleAngles.cpp</text>
</a>
</g>
</g>
<!-- Node25&#45;&gt;Node26 -->
<g id="edge41_Node000025_Node000026" class="edge">
<title>Node25&#45;&gt;Node26</title>
<g id="a_edge41_Node000025_Node000026"><a xlink:title=" ">
<path fill="none" stroke="#63b8ff" d="M1134.62,-276.18C1105.96,-266.44 1067.19,-253.28 1041.29,-244.48"/>
<polygon fill="#63b8ff" stroke="#63b8ff" points="1133.08,-279.69 1143.68,-279.59 1135.34,-273.06 1133.08,-279.69"/>
</a>
</g>
</g>
<!-- Node27 -->
<g id="Node000027" class="node">
<title>Node27</title>
<g id="a_Node000027"><a xlink:href="_inclination_detector_8cpp.html" target="_top" xlink:title=" ">
<polygon fill="white" stroke="#666666" points="1317.5,-244 1143.25,-244 1143.25,-224 1317.5,-224 1317.5,-244"/>
<text text-anchor="middle" x="1230.38" y="-230.5" font-family="Helvetica,sans-Serif" font-size="10.00">ExoCode/src/InclinationDetector.cpp</text>
</a>
</g>
</g>
<!-- Node25&#45;&gt;Node27 -->
<g id="edge43_Node000025_Node000027" class="edge">
<title>Node25&#45;&gt;Node27</title>
<g id="a_edge43_Node000025_Node000027"><a xlink:title=" ">
<path fill="none" stroke="#63b8ff" d="M1190.5,-272.13C1200.36,-262.94 1212.19,-251.93 1220.39,-244.3"/>
<polygon fill="#63b8ff" stroke="#63b8ff" points="1188.41,-269.22 1183.48,-278.59 1193.18,-274.34 1188.41,-269.22"/>
</a>
</g>
</g>
<!-- Node28 -->
<g id="Node000028" class="node">
<title>Node28</title>
<g id="a_Node000028"><a xlink:href="_real_time_i2_c_8cpp.html" target="_top" xlink:title=" ">
<polygon fill="white" stroke="#666666" points="1484.75,-244 1336,-244 1336,-224 1484.75,-224 1484.75,-244"/>
<text text-anchor="middle" x="1410.38" y="-230.5" font-family="Helvetica,sans-Serif" font-size="10.00">ExoCode/src/RealTimeI2C.cpp</text>
</a>
</g>
</g>
<!-- Node25&#45;&gt;Node28 -->
<g id="edge45_Node000025_Node000028" class="edge">
<title>Node25&#45;&gt;Node28</title>
<g id="a_edge45_Node000025_Node000028"><a xlink:title=" ">
<path fill="none" stroke="#63b8ff" d="M1224.71,-277.13C1267.99,-267.31 1328.65,-253.54 1368.69,-244.46"/>
<polygon fill="#63b8ff" stroke="#63b8ff" points="1224.08,-273.91 1215.1,-279.53 1225.63,-280.73 1224.08,-273.91"/>
</a>
</g>
</g>
<!-- Node29 -->
<g id="Node000029" class="node">
<title>Node29</title>
<g id="a_Node000029"><a xlink:href="_u_a_r_t_handler_8cpp.html" target="_top" xlink:title=" ">
<polygon fill="white" stroke="#666666" points="1655.62,-244 1503.12,-244 1503.12,-224 1655.62,-224 1655.62,-244"/>
<text text-anchor="middle" x="1579.38" y="-230.5" font-family="Helvetica,sans-Serif" font-size="10.00">ExoCode/src/UARTHandler.cpp</text>
</a>
</g>
</g>
<!-- Node25&#45;&gt;Node29 -->
<g id="edge46_Node000025_Node000029" class="edge">
<title>Node25&#45;&gt;Node29</title>
<g id="a_edge46_Node000025_Node000029"><a xlink:title=" ">
<path fill="none" stroke="#63b8ff" d="M1241.3,-279.86C1315.41,-270.02 1432.68,-254.46 1507.8,-244.5"/>
<polygon fill="#63b8ff" stroke="#63b8ff" points="1241.14,-276.48 1231.69,-281.26 1242.06,-283.42 1241.14,-276.48"/>
</a>
</g>
</g>
<!-- Node30 -->
<g id="Node000030" class="node">
<title>Node30</title>
<g id="a_Node000030"><a xlink:href="_utilities_8cpp.html" target="_top" xlink:title=" ">
<polygon fill="white" stroke="#666666" points="1799.5,-244 1673.25,-244 1673.25,-224 1799.5,-224 1799.5,-244"/>
<text text-anchor="middle" x="1736.38" y="-230.5" font-family="Helvetica,sans-Serif" font-size="10.00">ExoCode/src/Utilities.cpp</text>
</a>
</g>
</g>
<!-- Node25&#45;&gt;Node30 -->
<g id="edge47_Node000025_Node000030" class="edge">
<title>Node25&#45;&gt;Node30</title>
<g id="a_edge47_Node000025_Node000030"><a xlink:title=" ">
<path fill="none" stroke="#63b8ff" d="M1241.3,-283.42C1336.52,-275.55 1513.65,-260.31 1664.38,-244 1667.13,-243.7 1669.94,-243.39 1672.79,-243.06"/>
<polygon fill="#63b8ff" stroke="#63b8ff" points="1241.06,-280.01 1231.38,-284.32 1241.63,-286.99 1241.06,-280.01"/>
</a>
</g>
</g>
</g>
</svg>

<g id="navigator" transform="translate(0 0)" fill="#404254">
  <rect fill="#f2f5e9" fill-opacity="0.5" stroke="#606060" stroke-width=".5" x="0" y="0" width="60" height="60"/>
  <use id="zoomplus" xlink:href="#zoomPlus" x="17" y="9" onmousedown="handleZoom(evt,'in')"/>
  <use id="zoomminus" xlink:href="#zoomMin" x="42" y="9" onmousedown="handleZoom(evt,'out')"/>
  <use id="reset" xlink:href="#resetDef" x="30" y="36" onmousedown="handleReset()"/>
   <use id="arrowup" xlink:href="#arrowUp" x="0" y="0" onmousedown="handlePan(0,-1)"/>
  <use id="arrowright" xlink:href="#arrowRight" x="0" y="0" onmousedown="handlePan(1,0)"/>
  <use id="arrowdown" xlink:href="#arrowDown" x="0" y="0" onmousedown="handlePan(0,1)"/>
  <use id="arrowleft" xlink:href="#arrowLeft" x="0" y="0" onmousedown="handlePan(-1,0)"/>
</g>
<svg viewBox="0 0 15 15" width="100%" height="30px" preserveAspectRatio="xMaxYMin meet">
 <g id="arrow_out" transform="scale(0.3 0.3)">
  <a xlink:href="_parse_ini_8h__dep__incl_org.svg" target="_base">
   <rect id="button" ry="5" rx="5" y="6" x="6" height="38" width="38"
        fill="#f2f5e9" fill-opacity="0.5" stroke="#606060" stroke-width="1.0"/>
   <path id="arrow"
     d="M 11.500037,31.436501 C 11.940474,20.09759 22.043105,11.32322 32.158766,21.979434 L 37.068811,17.246167 C 37.068811,17.246167 37.088388,32 37.088388,32 L 22.160133,31.978069 C 22.160133,31.978069 26.997745,27.140456 26.997745,27.140456 C 18.528582,18.264221 13.291696,25.230495 11.500037,31.436501 z"
     style="fill:#404040;"/>
  </a>
 </g>
</svg>

<style type='text/css'>
<![CDATA[
[data-mouse-over-selected='false'] { opacity: 0.7; }
[data-mouse-over-selected='true']  { opacity: 1.0; }
]]>
</style>
<script type="application/ecmascript"><![CDATA[
document.addEventListener('DOMContentLoaded', (event) => {
  highlightEdges();
  highlightAdjacentNodes();
});
]]></script>
</svg>
