<?xml version="1.0" encoding="UTF-8" standalone="no"?>
<!DOCTYPE svg PUBLIC "-//W3C//DTD SVG 1.1//EN"
 "http://www.w3.org/Graphics/SVG/1.1/DTD/svg11.dtd">
<!-- Generated by graphviz version 8.1.0 (20230707.0739)
 -->
<!-- Title: ExoCode/src/ParamsFromSD.cpp Pages: 1 -->
<svg width="1192pt" height="476pt"
 viewBox="0.00 0.00 1191.62 476.00" xmlns="http://www.w3.org/2000/svg" xmlns:xlink="http://www.w3.org/1999/xlink">
<g id="graph0" class="graph" transform="scale(1 1) rotate(0) translate(4 472)">
<title>ExoCode/src/ParamsFromSD.cpp</title>
<!-- Node1 -->
<g id="Node000001" class="node">
<title>Node1</title>
<g id="a_Node000001"><a xlink:title=" ">
<polygon fill="#999999" stroke="#666666" points="822.88,-468 659.12,-468 659.12,-448 822.88,-448 822.88,-468"/>
<text text-anchor="middle" x="741" y="-454.5" font-family="Helvetica,sans-Serif" font-size="10.00">ExoCode/src/ParamsFromSD.cpp</text>
</a>
</g>
</g>
<!-- Node2 -->
<g id="Node000002" class="node">
<title>Node2</title>
<g id="a_Node000002"><a xlink:href="_params_from_s_d_8h.html" target="_top" xlink:title="Declares the functions to pull controller parameters from the SD card and defines the mapping to the ...">
<polygon fill="white" stroke="#666666" points="507,-412 413,-412 413,-392 507,-392 507,-412"/>
<text text-anchor="middle" x="460" y="-398.5" font-family="Helvetica,sans-Serif" font-size="10.00">ParamsFromSD.h</text>
</a>
</g>
</g>
<!-- Node1&#45;&gt;Node2 -->
<g id="edge1_Node000001_Node000002" class="edge">
<title>Node1&#45;&gt;Node2</title>
<g id="a_edge1_Node000001_Node000002"><a xlink:title=" ">
<path fill="none" stroke="#63b8ff" d="M691.73,-447.53C643.24,-438.21 569.2,-423.99 517.92,-414.13"/>
<polygon fill="#63b8ff" stroke="#63b8ff" points="518.82,-410.55 508.34,-412.1 517.5,-417.42 518.82,-410.55"/>
</a>
</g>
</g>
<!-- Node24 -->
<g id="Node000024" class="node">
<title>Node24</title>
<g id="a_Node000024"><a xlink:href="_logger_8h.html" target="_top" xlink:title=" ">
<polygon fill="white" stroke="#666666" points="1075.75,-132 1022.25,-132 1022.25,-112 1075.75,-112 1075.75,-132"/>
<text text-anchor="middle" x="1049" y="-118.5" font-family="Helvetica,sans-Serif" font-size="10.00">Logger.h</text>
</a>
</g>
</g>
<!-- Node1&#45;&gt;Node24 -->
<g id="edge54_Node000001_Node000024" class="edge">
<title>Node1&#45;&gt;Node24</title>
<g id="a_edge54_Node000001_Node000024"><a xlink:title=" ">
<path fill="none" stroke="#63b8ff" d="M804.44,-447.5C894.61,-432.19 1049,-398.46 1049,-347 1049,-347 1049,-347 1049,-233 1049,-201.72 1049,-165.45 1049,-143.37"/>
<polygon fill="#63b8ff" stroke="#63b8ff" points="1052.5,-143.42 1049,-133.42 1045.5,-143.42 1052.5,-143.42"/>
</a>
</g>
</g>
<!-- Node3 -->
<g id="Node000003" class="node">
<title>Node3</title>
<g id="a_Node000003"><a xlink:href="_exo_data_8h.html" target="_top" xlink:title="Declares a class used to store data for the Exo to access.">
<polygon fill="white" stroke="#666666" points="771.88,-356 710.12,-356 710.12,-336 771.88,-336 771.88,-356"/>
<text text-anchor="middle" x="741" y="-342.5" font-family="Helvetica,sans-Serif" font-size="10.00">ExoData.h</text>
</a>
</g>
</g>
<!-- Node2&#45;&gt;Node3 -->
<g id="edge2_Node000002_Node000003" class="edge">
<title>Node2&#45;&gt;Node3</title>
<g id="a_edge2_Node000002_Node000003"><a xlink:title=" ">
<path fill="none" stroke="#63b8ff" d="M507.35,-391.9C561.12,-381.57 648.02,-364.87 699.32,-355.01"/>
<polygon fill="#63b8ff" stroke="#63b8ff" points="699.85,-358.28 709.01,-352.96 698.53,-351.41 699.85,-358.28"/>
</a>
</g>
</g>
<!-- Node8 -->
<g id="Node000008" class="node">
<title>Node8</title>
<g id="a_Node000008"><a xlink:href="_parse_ini_8h.html" target="_top" xlink:title="Declares the functions needed and defines mapping between the INI keys and the exo components.">
<polygon fill="white" stroke="#666666" points="404.75,-132 345.25,-132 345.25,-112 404.75,-112 404.75,-132"/>
<text text-anchor="middle" x="375" y="-118.5" font-family="Helvetica,sans-Serif" font-size="10.00">ParseIni.h</text>
</a>
</g>
</g>
<!-- Node2&#45;&gt;Node8 -->
<g id="edge43_Node000002_Node000008" class="edge">
<title>Node2&#45;&gt;Node8</title>
<g id="a_edge43_Node000002_Node000008"><a xlink:title=" ">
<path fill="none" stroke="#63b8ff" d="M412.59,-400.41C375.11,-397.4 323.96,-387.24 292,-356 270.48,-334.96 273,-321.1 273,-291 273,-291 273,-291 273,-233 273,-189.29 316.84,-155.61 347.04,-137.6"/>
<polygon fill="#63b8ff" stroke="#63b8ff" points="348.35,-140.31 355.29,-132.31 344.87,-134.24 348.35,-140.31"/>
</a>
</g>
</g>
<!-- Node19 -->
<g id="Node000019" class="node">
<title>Node19</title>
<g id="a_Node000019"><a xlink:href="_utilities_8h.html" target="_top" xlink:title=" ">
<polygon fill="white" stroke="#666666" points="122.25,-188 65.75,-188 65.75,-168 122.25,-168 122.25,-188"/>
<text text-anchor="middle" x="94" y="-174.5" font-family="Helvetica,sans-Serif" font-size="10.00">Utilities.h</text>
</a>
</g>
</g>
<!-- Node2&#45;&gt;Node19 -->
<g id="edge44_Node000002_Node000019" class="edge">
<title>Node2&#45;&gt;Node19</title>
<g id="a_edge44_Node000002_Node000019"><a xlink:title=" ">
<path fill="none" stroke="#63b8ff" d="M478.54,-391.57C500.08,-379.32 530.88,-357.04 516,-336 488.23,-296.76 459.15,-316.5 414,-300 309.75,-261.9 187.19,-214.95 128.6,-192.37"/>
<polygon fill="#63b8ff" stroke="#63b8ff" points="130.01,-188.78 119.42,-188.45 127.49,-195.31 130.01,-188.78"/>
</a>
</g>
</g>
<!-- Node20 -->
<g id="Node000020" class="node">
<title>Node20</title>
<g id="a_Node000020"><a xlink:title=" ">
<polygon fill="#e0e0e0" stroke="#999999" points="338.88,-356 301.12,-356 301.12,-336 338.88,-336 338.88,-356"/>
<text text-anchor="middle" x="320" y="-342.5" font-family="Helvetica,sans-Serif" font-size="10.00">SD.h</text>
</a>
</g>
</g>
<!-- Node2&#45;&gt;Node20 -->
<g id="edge50_Node000002_Node000020" class="edge">
<title>Node2&#45;&gt;Node20</title>
<g id="a_edge50_Node000002_Node000020"><a xlink:title=" ">
<path fill="none" stroke="#63b8ff" d="M435.61,-391.59C411.62,-382.34 374.97,-368.2 349.38,-358.33"/>
<polygon fill="#63b8ff" stroke="#63b8ff" points="350.75,-354.72 340.16,-354.39 348.23,-361.26 350.75,-354.72"/>
</a>
</g>
</g>
<!-- Node21 -->
<g id="Node000021" class="node">
<title>Node21</title>
<g id="a_Node000021"><a xlink:title=" ">
<polygon fill="#e0e0e0" stroke="#999999" points="397,-356 357,-356 357,-336 397,-336 397,-356"/>
<text text-anchor="middle" x="377" y="-342.5" font-family="Helvetica,sans-Serif" font-size="10.00">SPI.h</text>
</a>
</g>
</g>
<!-- Node2&#45;&gt;Node21 -->
<g id="edge51_Node000002_Node000021" class="edge">
<title>Node2&#45;&gt;Node21</title>
<g id="a_edge51_Node000002_Node000021"><a xlink:title=" ">
<path fill="none" stroke="#63b8ff" d="M445.54,-391.59C433.12,-383.51 414.98,-371.71 400.48,-362.27"/>
<polygon fill="#63b8ff" stroke="#63b8ff" points="402.86,-359 392.57,-356.48 399.04,-364.87 402.86,-359"/>
</a>
</g>
</g>
<!-- Node22 -->
<g id="Node000022" class="node">
<title>Node22</title>
<g id="a_Node000022"><a xlink:title=" ">
<polygon fill="#e0e0e0" stroke="#999999" points="449.38,-356 414.62,-356 414.62,-336 449.38,-336 449.38,-356"/>
<text text-anchor="middle" x="432" y="-342.5" font-family="Helvetica,sans-Serif" font-size="10.00">map</text>
</a>
</g>
</g>
<!-- Node2&#45;&gt;Node22 -->
<g id="edge52_Node000002_Node000022" class="edge">
<title>Node2&#45;&gt;Node22</title>
<g id="a_edge52_Node000002_Node000022"><a xlink:title=" ">
<path fill="none" stroke="#63b8ff" d="M455.12,-391.59C451.47,-384.55 446.35,-374.67 441.85,-366"/>
<polygon fill="#63b8ff" stroke="#63b8ff" points="444.53,-364.56 436.82,-357.3 438.32,-367.79 444.53,-364.56"/>
</a>
</g>
</g>
<!-- Node23 -->
<g id="Node000023" class="node">
<title>Node23</title>
<g id="a_Node000023"><a xlink:title=" ">
<polygon fill="#e0e0e0" stroke="#999999" points="507,-356 467,-356 467,-336 507,-336 507,-356"/>
<text text-anchor="middle" x="487" y="-342.5" font-family="Helvetica,sans-Serif" font-size="10.00">string</text>
</a>
</g>
</g>
<!-- Node2&#45;&gt;Node23 -->
<g id="edge53_Node000002_Node000023" class="edge">
<title>Node2&#45;&gt;Node23</title>
<g id="a_edge53_Node000002_Node000023"><a xlink:title=" ">
<path fill="none" stroke="#63b8ff" d="M464.7,-391.59C468.23,-384.55 473.17,-374.67 477.5,-366"/>
<polygon fill="#63b8ff" stroke="#63b8ff" points="481.01,-367.81 482.35,-357.3 474.75,-364.68 481.01,-367.81"/>
</a>
</g>
</g>
<!-- Node4 -->
<g id="Node000004" class="node">
<title>Node4</title>
<g id="a_Node000004"><a xlink:title=" ">
<polygon fill="#e0e0e0" stroke="#999999" points="799.62,-20 742.38,-20 742.38,0 799.62,0 799.62,-20"/>
<text text-anchor="middle" x="771" y="-6.5" font-family="Helvetica,sans-Serif" font-size="10.00">Arduino.h</text>
</a>
</g>
</g>
<!-- Node3&#45;&gt;Node4 -->
<g id="edge3_Node000003_Node000004" class="edge">
<title>Node3&#45;&gt;Node4</title>
<g id="a_edge3_Node000003_Node000004"><a xlink:title=" ">
<path fill="none" stroke="#63b8ff" d="M772.26,-338.06C800.16,-331.03 841.5,-318.55 874,-300 930.69,-267.64 953.11,-251.31 969,-188 990.11,-103.91 873.39,-47.86 809.92,-24.02"/>
<polygon fill="#63b8ff" stroke="#63b8ff" points="811.45,-20.49 800.85,-20.34 809.04,-27.06 811.45,-20.49"/>
</a>
</g>
</g>
<!-- Node5 -->
<g id="Node000005" class="node">
<title>Node5</title>
<g id="a_Node000005"><a xlink:href="_leg_data_8h.html" target="_top" xlink:title="Declares a class used to store data for leg to access.">
<polygon fill="white" stroke="#666666" points="513.12,-300 452.88,-300 452.88,-280 513.12,-280 513.12,-300"/>
<text text-anchor="middle" x="483" y="-286.5" font-family="Helvetica,sans-Serif" font-size="10.00">LegData.h</text>
</a>
</g>
</g>
<!-- Node3&#45;&gt;Node5 -->
<g id="edge4_Node000003_Node000005" class="edge">
<title>Node3&#45;&gt;Node5</title>
<g id="a_edge4_Node000003_Node000005"><a xlink:title=" ">
<path fill="none" stroke="#63b8ff" d="M709.88,-338.49C663.33,-328.74 575.54,-310.37 523.88,-299.56"/>
<polygon fill="#63b8ff" stroke="#63b8ff" points="524.93,-295.99 514.43,-297.37 523.5,-302.84 524.93,-295.99"/>
</a>
</g>
</g>
<!-- Node3&#45;&gt;Node8 -->
<g id="edge34_Node000003_Node000008" class="edge">
<title>Node3&#45;&gt;Node8</title>
<g id="a_edge34_Node000003_Node000008"><a xlink:title=" ">
<path fill="none" stroke="#63b8ff" d="M709.83,-343.54C642.78,-339.88 487.37,-328.49 444,-300 395.33,-268.02 391.75,-244.06 376,-188 371.89,-173.36 371.83,-156.12 372.69,-143.08"/>
<polygon fill="#63b8ff" stroke="#63b8ff" points="376.24,-143.75 373.66,-133.47 369.26,-143.11 376.24,-143.75"/>
</a>
</g>
</g>
<!-- Node9 -->
<g id="Node000009" class="node">
<title>Node9</title>
<g id="a_Node000009"><a xlink:title=" ">
<polygon fill="#e0e0e0" stroke="#999999" points="553.12,-76 504.88,-76 504.88,-56 553.12,-56 553.12,-76"/>
<text text-anchor="middle" x="529" y="-62.5" font-family="Helvetica,sans-Serif" font-size="10.00">stdint.h</text>
</a>
</g>
</g>
<!-- Node3&#45;&gt;Node9 -->
<g id="edge33_Node000003_Node000009" class="edge">
<title>Node3&#45;&gt;Node9</title>
<g id="a_edge33_Node000003_Node000009"><a xlink:title=" ">
<path fill="none" stroke="#63b8ff" d="M733.71,-335.6C720.28,-317.31 693,-275.21 693,-235 693,-235 693,-235 693,-177 693,-115.46 612.36,-86.13 564.17,-74.11"/>
<polygon fill="#63b8ff" stroke="#63b8ff" points="565.09,-70.49 554.55,-71.61 563.48,-77.31 565.09,-70.49"/>
</a>
</g>
</g>
<!-- Node10 -->
<g id="Node000010" class="node">
<title>Node10</title>
<g id="a_Node000010"><a xlink:href="_board_8h.html" target="_top" xlink:title=" ">
<polygon fill="white" stroke="#666666" points="872.88,-132 823.12,-132 823.12,-112 872.88,-112 872.88,-132"/>
<text text-anchor="middle" x="848" y="-118.5" font-family="Helvetica,sans-Serif" font-size="10.00">Board.h</text>
</a>
</g>
</g>
<!-- Node3&#45;&gt;Node10 -->
<g id="edge35_Node000003_Node000010" class="edge">
<title>Node3&#45;&gt;Node10</title>
<g id="a_edge35_Node000003_Node000010"><a xlink:title=" ">
<path fill="none" stroke="#63b8ff" d="M768.94,-335.54C818.95,-316.79 921.54,-269.52 954,-188 967.17,-154.92 919.37,-137.48 883.7,-129.27"/>
<polygon fill="#63b8ff" stroke="#63b8ff" points="884.6,-125.67 874.09,-127 883.14,-132.51 884.6,-125.67"/>
</a>
</g>
</g>
<!-- Node17 -->
<g id="Node000017" class="node">
<title>Node17</title>
<g id="a_Node000017"><a xlink:href="_status_led_8h.html" target="_top" xlink:title="Class to set an RGB LED to different colors based on the state of the system.">
<polygon fill="white" stroke="#666666" points="872.25,-244 803.75,-244 803.75,-224 872.25,-224 872.25,-244"/>
<text text-anchor="middle" x="838" y="-230.5" font-family="Helvetica,sans-Serif" font-size="10.00">StatusLed.h</text>
</a>
</g>
</g>
<!-- Node3&#45;&gt;Node17 -->
<g id="edge36_Node000003_Node000017" class="edge">
<title>Node3&#45;&gt;Node17</title>
<g id="a_edge36_Node000003_Node000017"><a xlink:title=" ">
<path fill="none" stroke="#63b8ff" d="M749.27,-335.62C765.52,-317.19 801.84,-276.01 822.62,-252.44"/>
<polygon fill="#63b8ff" stroke="#63b8ff" points="824.76,-255.17 828.75,-245.35 819.51,-250.54 824.76,-255.17"/>
</a>
</g>
</g>
<!-- Node18 -->
<g id="Node000018" class="node">
<title>Node18</title>
<g id="a_Node000018"><a xlink:href="_status_defs_8h.html" target="_top" xlink:title="Stores the different status messages for the system.">
<polygon fill="white" stroke="#666666" points="945.12,-188 872.88,-188 872.88,-168 945.12,-168 945.12,-188"/>
<text text-anchor="middle" x="909" y="-174.5" font-family="Helvetica,sans-Serif" font-size="10.00">StatusDefs.h</text>
</a>
</g>
</g>
<!-- Node3&#45;&gt;Node18 -->
<g id="edge42_Node000003_Node000018" class="edge">
<title>Node3&#45;&gt;Node18</title>
<g id="a_edge42_Node000003_Node000018"><a xlink:title=" ">
<path fill="none" stroke="#63b8ff" d="M759.8,-335.73C789.26,-320.37 846.48,-287.01 881,-244 891.81,-230.52 899.2,-212.24 903.65,-198.5"/>
<polygon fill="#63b8ff" stroke="#63b8ff" points="907.21,-199.81 906.72,-189.22 900.51,-197.8 907.21,-199.81"/>
</a>
</g>
</g>
<!-- Node5&#45;&gt;Node4 -->
<g id="edge5_Node000005_Node000004" class="edge">
<title>Node5&#45;&gt;Node4</title>
<g id="a_edge5_Node000005_Node000004"><a xlink:title=" ">
<path fill="none" stroke="#63b8ff" d="M452.42,-288.61C346.25,-286.44 0,-272.2 0,-179 0,-179 0,-179 0,-121 0,-54.81 70.05,-73.09 134,-56 247.49,-25.68 609.58,-14.72 730.93,-11.85"/>
<polygon fill="#63b8ff" stroke="#63b8ff" points="730.99,-15.32 740.91,-11.59 730.83,-8.32 730.99,-15.32"/>
</a>
</g>
</g>
<!-- Node6 -->
<g id="Node000006" class="node">
<title>Node6</title>
<g id="a_Node000006"><a xlink:href="_joint_data_8h.html" target="_top" xlink:title="Declares a class used to store data for joint to access.">
<polygon fill="white" stroke="#666666" points="515.38,-244 450.62,-244 450.62,-224 515.38,-224 515.38,-244"/>
<text text-anchor="middle" x="483" y="-230.5" font-family="Helvetica,sans-Serif" font-size="10.00">JointData.h</text>
</a>
</g>
</g>
<!-- Node5&#45;&gt;Node6 -->
<g id="edge6_Node000005_Node000006" class="edge">
<title>Node5&#45;&gt;Node6</title>
<g id="a_edge6_Node000005_Node000006"><a xlink:title=" ">
<path fill="none" stroke="#63b8ff" d="M483,-279.59C483,-272.86 483,-263.53 483,-255.15"/>
<polygon fill="#63b8ff" stroke="#63b8ff" points="486.5,-255.3 483,-245.3 479.5,-255.3 486.5,-255.3"/>
</a>
</g>
</g>
<!-- Node5&#45;&gt;Node8 -->
<g id="edge26_Node000005_Node000008" class="edge">
<title>Node5&#45;&gt;Node8</title>
<g id="a_edge26_Node000005_Node000008"><a xlink:title=" ">
<path fill="none" stroke="#63b8ff" d="M470.51,-279.66C449.81,-263.46 408.63,-228.01 388,-188 380.81,-174.06 377.59,-156.54 376.15,-143.2"/>
<polygon fill="#63b8ff" stroke="#63b8ff" points="379.57,-143.04 375.27,-133.36 372.59,-143.61 379.57,-143.04"/>
</a>
</g>
</g>
<!-- Node5&#45;&gt;Node9 -->
<g id="edge32_Node000005_Node000009" class="edge">
<title>Node5&#45;&gt;Node9</title>
<g id="a_edge32_Node000005_Node000009"><a xlink:title=" ">
<path fill="none" stroke="#63b8ff" d="M494.86,-279.65C504.43,-271.37 517.37,-258.4 524,-244 548.68,-190.42 543.81,-170.71 538,-112 537.18,-103.68 535.52,-94.62 533.84,-86.83"/>
<polygon fill="#63b8ff" stroke="#63b8ff" points="537.06,-86.19 531.4,-77.23 530.24,-87.76 537.06,-86.19"/>
</a>
</g>
</g>
<!-- Node5&#45;&gt;Node10 -->
<g id="edge27_Node000005_Node000010" class="edge">
<title>Node5&#45;&gt;Node10</title>
<g id="a_edge27_Node000005_Node000010"><a xlink:title=" ">
<path fill="none" stroke="#63b8ff" d="M506.1,-279.51C548.29,-262.07 640.52,-223.45 717,-188 752.99,-171.32 793.85,-150.78 820.23,-137.31"/>
<polygon fill="#63b8ff" stroke="#63b8ff" points="821.62,-140.02 828.92,-132.35 818.43,-133.79 821.62,-140.02"/>
</a>
</g>
</g>
<!-- Node14 -->
<g id="Node000014" class="node">
<title>Node14</title>
<g id="a_Node000014"><a xlink:href="_inclination_detector_8h.html" target="_top" xlink:title=" ">
<polygon fill="white" stroke="#666666" points="245.25,-188 140.75,-188 140.75,-168 245.25,-168 245.25,-188"/>
<text text-anchor="middle" x="193" y="-174.5" font-family="Helvetica,sans-Serif" font-size="10.00">InclinationDetector.h</text>
</a>
</g>
</g>
<!-- Node5&#45;&gt;Node14 -->
<g id="edge28_Node000005_Node000014" class="edge">
<title>Node5&#45;&gt;Node14</title>
<g id="a_edge28_Node000005_Node000014"><a xlink:title=" ">
<path fill="none" stroke="#63b8ff" d="M458.02,-279.53C406.31,-259.91 287.4,-214.81 228.04,-192.29"/>
<polygon fill="#63b8ff" stroke="#63b8ff" points="229.61,-188.76 219.02,-188.49 227.13,-195.31 229.61,-188.76"/>
</a>
</g>
</g>
<!-- Node6&#45;&gt;Node4 -->
<g id="edge7_Node000006_Node000004" class="edge">
<title>Node6&#45;&gt;Node4</title>
<g id="a_edge7_Node000006_Node000004"><a xlink:title=" ">
<path fill="none" stroke="#63b8ff" d="M450.23,-232.01C354.98,-228.79 83.21,-217.13 57,-188 51.05,-181.39 54.14,-176.42 57,-168 82.29,-93.53 119.04,-79.81 194,-56 294.45,-24.09 617.77,-14.26 731.21,-11.75"/>
<polygon fill="#63b8ff" stroke="#63b8ff" points="731.22,-15.23 741.14,-11.52 731.07,-8.23 731.22,-15.23"/>
</a>
</g>
</g>
<!-- Node7 -->
<g id="Node000007" class="node">
<title>Node7</title>
<g id="a_Node000007"><a xlink:href="_motor_data_8h.html" target="_top" xlink:title="Declares a class used to store data for motors to access.">
<polygon fill="white" stroke="#666666" points="664.62,-188 595.38,-188 595.38,-168 664.62,-168 664.62,-188"/>
<text text-anchor="middle" x="630" y="-174.5" font-family="Helvetica,sans-Serif" font-size="10.00">MotorData.h</text>
</a>
</g>
</g>
<!-- Node6&#45;&gt;Node7 -->
<g id="edge8_Node000006_Node000007" class="edge">
<title>Node6&#45;&gt;Node7</title>
<g id="a_edge8_Node000006_Node000007"><a xlink:title=" ">
<path fill="none" stroke="#63b8ff" d="M508.61,-223.59C532.28,-214.9 567.69,-201.89 594.17,-192.16"/>
<polygon fill="#63b8ff" stroke="#63b8ff" points="595.01,-195.21 603.19,-188.48 592.6,-188.64 595.01,-195.21"/>
</a>
</g>
</g>
<!-- Node6&#45;&gt;Node8 -->
<g id="edge23_Node000006_Node000008" class="edge">
<title>Node6&#45;&gt;Node8</title>
<g id="a_edge23_Node000006_Node000008"><a xlink:title=" ">
<path fill="none" stroke="#63b8ff" d="M459.29,-223.65C442.63,-216.09 420.78,-204.07 406,-188 394.1,-175.06 385.92,-156.72 380.96,-142.82"/>
<polygon fill="#63b8ff" stroke="#63b8ff" points="383.99,-141.82 377.55,-133.4 377.34,-144 383.99,-141.82"/>
</a>
</g>
</g>
<!-- Node6&#45;&gt;Node9 -->
<g id="edge25_Node000006_Node000009" class="edge">
<title>Node6&#45;&gt;Node9</title>
<g id="a_edge25_Node000006_Node000009"><a xlink:title=" ">
<path fill="none" stroke="#63b8ff" d="M490.16,-223.54C496.42,-214.79 505.21,-201.19 510,-188 522.35,-153.97 526.68,-111.69 528.19,-87.18"/>
<polygon fill="#63b8ff" stroke="#63b8ff" points="531.72,-87.57 528.74,-77.41 524.73,-87.22 531.72,-87.57"/>
</a>
</g>
</g>
<!-- Node6&#45;&gt;Node10 -->
<g id="edge24_Node000006_Node000010" class="edge">
<title>Node6&#45;&gt;Node10</title>
<g id="a_edge24_Node000006_Node000010"><a xlink:title=" ">
<path fill="none" stroke="#63b8ff" d="M515.78,-226.59C554.09,-218.8 619.23,-204.61 674,-188 724.2,-172.78 780.86,-150.65 815.5,-136.55"/>
<polygon fill="#63b8ff" stroke="#63b8ff" points="816.59,-139.48 824.51,-132.44 813.93,-133 816.59,-139.48"/>
</a>
</g>
</g>
<!-- Node13 -->
<g id="Node000013" class="node">
<title>Node13</title>
<g id="a_Node000013"><a xlink:href="_controller_data_8h.html" target="_top" xlink:title="Declares a class used to store data for controllers to access.">
<polygon fill="white" stroke="#666666" points="500.88,-188 415.12,-188 415.12,-168 500.88,-168 500.88,-188"/>
<text text-anchor="middle" x="458" y="-174.5" font-family="Helvetica,sans-Serif" font-size="10.00">ControllerData.h</text>
</a>
</g>
</g>
<!-- Node6&#45;&gt;Node13 -->
<g id="edge18_Node000006_Node000013" class="edge">
<title>Node6&#45;&gt;Node13</title>
<g id="a_edge18_Node000006_Node000013"><a xlink:title=" ">
<path fill="none" stroke="#63b8ff" d="M478.65,-223.59C475.38,-216.55 470.81,-206.67 466.8,-198"/>
<polygon fill="#63b8ff" stroke="#63b8ff" points="469.68,-196.9 462.3,-189.3 463.33,-199.84 469.68,-196.9"/>
</a>
</g>
</g>
<!-- Node7&#45;&gt;Node4 -->
<g id="edge9_Node000007_Node000004" class="edge">
<title>Node7&#45;&gt;Node4</title>
<g id="a_edge9_Node000007_Node000004"><a xlink:title=" ">
<path fill="none" stroke="#63b8ff" d="M637.98,-167.6C660.77,-140.78 726.34,-63.57 756.05,-28.6"/>
<polygon fill="#63b8ff" stroke="#63b8ff" points="759.3,-31.18 763.1,-21.3 753.96,-26.65 759.3,-31.18"/>
</a>
</g>
</g>
<!-- Node7&#45;&gt;Node8 -->
<g id="edge10_Node000007_Node000008" class="edge">
<title>Node7&#45;&gt;Node8</title>
<g id="a_edge10_Node000007_Node000008"><a xlink:title=" ">
<path fill="none" stroke="#63b8ff" d="M595.08,-169.6C548.28,-159.7 465.4,-142.14 415.79,-131.64"/>
<polygon fill="#63b8ff" stroke="#63b8ff" points="416.64,-128.03 406.13,-129.38 415.19,-134.88 416.64,-128.03"/>
</a>
</g>
</g>
<!-- Node7&#45;&gt;Node9 -->
<g id="edge17_Node000007_Node000009" class="edge">
<title>Node7&#45;&gt;Node9</title>
<g id="a_edge17_Node000007_Node000009"><a xlink:title=" ">
<path fill="none" stroke="#63b8ff" d="M623.91,-167.69C615.16,-154.62 598.18,-130.38 581,-112 571.39,-101.72 559.6,-91.36 549.68,-83.18"/>
<polygon fill="#63b8ff" stroke="#63b8ff" points="552.19,-79.9 542.21,-76.34 547.79,-85.35 552.19,-79.9"/>
</a>
</g>
</g>
<!-- Node7&#45;&gt;Node10 -->
<g id="edge12_Node000007_Node000010" class="edge">
<title>Node7&#45;&gt;Node10</title>
<g id="a_edge12_Node000007_Node000010"><a xlink:title=" ">
<path fill="none" stroke="#63b8ff" d="M665.03,-168.32C705.49,-158.3 771.7,-141.9 812.4,-131.82"/>
<polygon fill="#63b8ff" stroke="#63b8ff" points="813.05,-135.02 821.91,-129.21 811.37,-128.22 813.05,-135.02"/>
</a>
</g>
</g>
<!-- Node8&#45;&gt;Node9 -->
<g id="edge11_Node000008_Node000009" class="edge">
<title>Node8&#45;&gt;Node9</title>
<g id="a_edge11_Node000008_Node000009"><a xlink:title=" ">
<path fill="none" stroke="#63b8ff" d="M401.82,-111.59C427.5,-102.59 466.36,-88.97 494.36,-79.15"/>
<polygon fill="#63b8ff" stroke="#63b8ff" points="495.23,-82.2 503.51,-75.59 492.92,-75.59 495.23,-82.2"/>
</a>
</g>
</g>
<!-- Node10&#45;&gt;Node4 -->
<g id="edge16_Node000010_Node000004" class="edge">
<title>Node10&#45;&gt;Node4</title>
<g id="a_edge16_Node000010_Node000004"><a xlink:title=" ">
<path fill="none" stroke="#63b8ff" d="M843.14,-111.88C836.16,-99.04 822.63,-75.05 809,-56 802.19,-46.47 793.86,-36.46 786.74,-28.3"/>
<polygon fill="#63b8ff" stroke="#63b8ff" points="789.88,-26.44 780.62,-21.3 784.65,-31.09 789.88,-26.44"/>
</a>
</g>
</g>
<!-- Node11 -->
<g id="Node000011" class="node">
<title>Node11</title>
<g id="a_Node000011"><a xlink:href="_config_8h.html" target="_top" xlink:title=" ">
<polygon fill="white" stroke="#666666" points="1069.62,-76 1018.38,-76 1018.38,-56 1069.62,-56 1069.62,-76"/>
<text text-anchor="middle" x="1044" y="-62.5" font-family="Helvetica,sans-Serif" font-size="10.00">Config.h</text>
</a>
</g>
</g>
<!-- Node10&#45;&gt;Node11 -->
<g id="edge13_Node000010_Node000011" class="edge">
<title>Node10&#45;&gt;Node11</title>
<g id="a_edge13_Node000010_Node000011"><a xlink:title=" ">
<path fill="none" stroke="#63b8ff" d="M873.22,-114.05C907.34,-104.65 968.41,-87.82 1007.53,-77.05"/>
<polygon fill="#63b8ff" stroke="#63b8ff" points="1008.23,-80.21 1016.94,-74.18 1006.37,-73.46 1008.23,-80.21"/>
</a>
</g>
</g>
<!-- Node11&#45;&gt;Node4 -->
<g id="edge14_Node000011_Node000004" class="edge">
<title>Node11&#45;&gt;Node4</title>
<g id="a_edge14_Node000011_Node000004"><a xlink:title=" ">
<path fill="none" stroke="#63b8ff" d="M1018.2,-59.07C1013.48,-58.02 1008.6,-56.96 1004,-56 936.38,-41.87 857.38,-26.94 810.92,-18.33"/>
<polygon fill="#63b8ff" stroke="#63b8ff" points="811.59,-14.71 801.12,-16.33 810.31,-21.59 811.59,-14.71"/>
</a>
</g>
</g>
<!-- Node12 -->
<g id="Node000012" class="node">
<title>Node12</title>
<g id="a_Node000012"><a xlink:href="_log_levels_8h.html" target="_top" xlink:title=" ">
<polygon fill="white" stroke="#666666" points="1104.5,-20 1037.5,-20 1037.5,0 1104.5,0 1104.5,-20"/>
<text text-anchor="middle" x="1071" y="-6.5" font-family="Helvetica,sans-Serif" font-size="10.00">LogLevels.h</text>
</a>
</g>
</g>
<!-- Node11&#45;&gt;Node12 -->
<g id="edge15_Node000011_Node000012" class="edge">
<title>Node11&#45;&gt;Node12</title>
<g id="a_edge15_Node000011_Node000012"><a xlink:title=" ">
<path fill="none" stroke="#63b8ff" d="M1048.7,-55.59C1052.23,-48.55 1057.17,-38.67 1061.5,-30"/>
<polygon fill="#63b8ff" stroke="#63b8ff" points="1065.01,-31.81 1066.35,-21.3 1058.75,-28.68 1065.01,-31.81"/>
</a>
</g>
</g>
<!-- Node13&#45;&gt;Node4 -->
<g id="edge20_Node000013_Node000004" class="edge">
<title>Node13&#45;&gt;Node4</title>
<g id="a_edge20_Node000013_Node000004"><a xlink:title=" ">
<path fill="none" stroke="#63b8ff" d="M457.87,-167.69C458.08,-144.79 462.06,-85.43 496,-56 530.54,-26.05 663.94,-15.8 731.43,-12.48"/>
<polygon fill="#63b8ff" stroke="#63b8ff" points="731.23,-15.95 741.05,-11.99 730.9,-8.95 731.23,-15.95"/>
</a>
</g>
</g>
<!-- Node13&#45;&gt;Node8 -->
<g id="edge22_Node000013_Node000008" class="edge">
<title>Node13&#45;&gt;Node8</title>
<g id="a_edge22_Node000013_Node000008"><a xlink:title=" ">
<path fill="none" stroke="#63b8ff" d="M443.54,-167.59C431.12,-159.51 412.98,-147.71 398.48,-138.27"/>
<polygon fill="#63b8ff" stroke="#63b8ff" points="400.86,-135 390.57,-132.48 397.04,-140.87 400.86,-135"/>
</a>
</g>
</g>
<!-- Node13&#45;&gt;Node9 -->
<g id="edge19_Node000013_Node000009" class="edge">
<title>Node13&#45;&gt;Node9</title>
<g id="a_edge19_Node000013_Node000009"><a xlink:title=" ">
<path fill="none" stroke="#63b8ff" d="M464.05,-167.62C475.79,-149.44 501.83,-109.09 517.13,-85.38"/>
<polygon fill="#63b8ff" stroke="#63b8ff" points="520.48,-87.65 522.96,-77.35 514.6,-83.86 520.48,-87.65"/>
</a>
</g>
</g>
<!-- Node13&#45;&gt;Node10 -->
<g id="edge21_Node000013_Node000010" class="edge">
<title>Node13&#45;&gt;Node10</title>
<g id="a_edge21_Node000013_Node000010"><a xlink:title=" ">
<path fill="none" stroke="#63b8ff" d="M501.23,-171.01C578.79,-160.28 740.18,-137.93 812.09,-127.97"/>
<polygon fill="#63b8ff" stroke="#63b8ff" points="812.41,-131.32 821.83,-126.48 811.45,-124.39 812.41,-131.32"/>
</a>
</g>
</g>
<!-- Node14&#45;&gt;Node4 -->
<g id="edge29_Node000014_Node000004" class="edge">
<title>Node14&#45;&gt;Node4</title>
<g id="a_edge29_Node000014_Node000004"><a xlink:title=" ">
<path fill="none" stroke="#63b8ff" d="M212.77,-167.67C240.24,-154.77 291.61,-130.96 336,-112 397.63,-85.68 411.34,-73.61 476,-56 565.51,-31.62 674.13,-19.33 731.33,-14.14"/>
<polygon fill="#63b8ff" stroke="#63b8ff" points="731.41,-17.56 741.07,-13.2 730.8,-10.59 731.41,-17.56"/>
</a>
</g>
</g>
<!-- Node15 -->
<g id="Node000015" class="node">
<title>Node15</title>
<g id="a_Node000015"><a xlink:title=" ">
<polygon fill="#e0e0e0" stroke="#999999" points="251.12,-132 208.88,-132 208.88,-112 251.12,-112 251.12,-132"/>
<text text-anchor="middle" x="230" y="-118.5" font-family="Helvetica,sans-Serif" font-size="10.00">queue</text>
</a>
</g>
</g>
<!-- Node14&#45;&gt;Node15 -->
<g id="edge30_Node000014_Node000015" class="edge">
<title>Node14&#45;&gt;Node15</title>
<g id="a_edge30_Node000014_Node000015"><a xlink:title=" ">
<path fill="none" stroke="#63b8ff" d="M199.44,-167.59C204.43,-160.32 211.49,-150.02 217.57,-141.15"/>
<polygon fill="#63b8ff" stroke="#63b8ff" points="220.86,-143.53 223.63,-133.3 215.09,-139.57 220.86,-143.53"/>
</a>
</g>
</g>
<!-- Node16 -->
<g id="Node000016" class="node">
<title>Node16</title>
<g id="a_Node000016"><a xlink:title=" ">
<polygon fill="#e0e0e0" stroke="#999999" points="190.62,-132 151.38,-132 151.38,-112 190.62,-112 190.62,-132"/>
<text text-anchor="middle" x="171" y="-118.5" font-family="Helvetica,sans-Serif" font-size="10.00">utility</text>
</a>
</g>
</g>
<!-- Node14&#45;&gt;Node16 -->
<g id="edge31_Node000014_Node000016" class="edge">
<title>Node14&#45;&gt;Node16</title>
<g id="a_edge31_Node000014_Node000016"><a xlink:title=" ">
<path fill="none" stroke="#63b8ff" d="M189.17,-167.59C186.33,-160.63 182.36,-150.89 178.86,-142.29"/>
<polygon fill="#63b8ff" stroke="#63b8ff" points="181.8,-141.24 174.79,-133.3 175.32,-143.88 181.8,-141.24"/>
</a>
</g>
</g>
<!-- Node17&#45;&gt;Node4 -->
<g id="edge37_Node000017_Node000004" class="edge">
<title>Node17&#45;&gt;Node4</title>
<g id="a_edge37_Node000017_Node000004"><a xlink:title=" ">
<path fill="none" stroke="#63b8ff" d="M835.21,-223.74C825.18,-190.53 790.88,-76.87 776.95,-30.72"/>
<polygon fill="#63b8ff" stroke="#63b8ff" points="780.05,-29.86 773.81,-21.3 773.34,-31.88 780.05,-29.86"/>
</a>
</g>
</g>
<!-- Node17&#45;&gt;Node10 -->
<g id="edge38_Node000017_Node000010" class="edge">
<title>Node17&#45;&gt;Node10</title>
<g id="a_edge38_Node000017_Node000010"><a xlink:title=" ">
<path fill="none" stroke="#63b8ff" d="M838.85,-223.62C840.47,-205.84 844.01,-166.88 846.18,-143"/>
<polygon fill="#63b8ff" stroke="#63b8ff" points="849.73,-143.63 847.15,-133.35 842.76,-143 849.73,-143.63"/>
</a>
</g>
</g>
<!-- Node17&#45;&gt;Node18 -->
<g id="edge39_Node000017_Node000018" class="edge">
<title>Node17&#45;&gt;Node18</title>
<g id="a_edge39_Node000017_Node000018"><a xlink:title=" ">
<path fill="none" stroke="#63b8ff" d="M850.37,-223.59C860.75,-215.7 875.81,-204.24 888.07,-194.92"/>
<polygon fill="#63b8ff" stroke="#63b8ff" points="889.93,-197.14 895.77,-188.3 885.7,-191.57 889.93,-197.14"/>
</a>
</g>
</g>
<!-- Node18&#45;&gt;Node4 -->
<g id="edge40_Node000018_Node000004" class="edge">
<title>Node18&#45;&gt;Node4</title>
<g id="a_edge40_Node000018_Node000004"><a xlink:title=" ">
<path fill="none" stroke="#63b8ff" d="M906.31,-167.66C902.27,-154.54 893.84,-130.24 882,-112 858.6,-75.96 819.28,-44.43 794.26,-26.57"/>
<polygon fill="#63b8ff" stroke="#63b8ff" points="796.64,-23.26 786.44,-20.41 792.64,-29 796.64,-23.26"/>
</a>
</g>
</g>
<!-- Node18&#45;&gt;Node10 -->
<g id="edge41_Node000018_Node000010" class="edge">
<title>Node18&#45;&gt;Node10</title>
<g id="a_edge41_Node000018_Node000010"><a xlink:title=" ">
<path fill="none" stroke="#63b8ff" d="M898.37,-167.59C889.63,-159.85 877.02,-148.69 866.6,-139.47"/>
<polygon fill="#63b8ff" stroke="#63b8ff" points="869.31,-137.31 859.5,-133.3 864.67,-142.55 869.31,-137.31"/>
</a>
</g>
</g>
<!-- Node19&#45;&gt;Node4 -->
<g id="edge46_Node000019_Node000004" class="edge">
<title>Node19&#45;&gt;Node4</title>
<g id="a_edge46_Node000019_Node000004"><a xlink:title=" ">
<path fill="none" stroke="#63b8ff" d="M94.47,-167.87C95.72,-153.65 100.28,-126.34 117,-112 210.21,-32.03 603.88,-15.19 731.14,-11.81"/>
<polygon fill="#63b8ff" stroke="#63b8ff" points="731.01,-15.29 740.92,-11.54 730.83,-8.29 731.01,-15.29"/>
</a>
</g>
</g>
<!-- Node19&#45;&gt;Node8 -->
<g id="edge45_Node000019_Node000008" class="edge">
<title>Node19&#45;&gt;Node8</title>
<g id="a_edge45_Node000019_Node000008"><a xlink:title=" ">
<path fill="none" stroke="#63b8ff" d="M122.6,-170.07C125.77,-169.35 128.95,-168.64 132,-168 202.88,-153.05 285.97,-138.25 334.33,-129.9"/>
<polygon fill="#63b8ff" stroke="#63b8ff" points="334.72,-133.21 343.98,-128.07 333.53,-126.31 334.72,-133.21"/>
</a>
</g>
</g>
<!-- Node19&#45;&gt;Node9 -->
<g id="edge47_Node000019_Node000009" class="edge">
<title>Node19&#45;&gt;Node9</title>
<g id="a_edge47_Node000019_Node000009"><a xlink:title=" ">
<path fill="none" stroke="#63b8ff" d="M97.96,-167.54C104.64,-152.86 119.67,-124.94 142,-112 201.38,-77.59 409.78,-69.46 493.65,-67.56"/>
<polygon fill="#63b8ff" stroke="#63b8ff" points="493.47,-71.05 503.4,-67.34 493.33,-64.05 493.47,-71.05"/>
</a>
</g>
</g>
<!-- Node19&#45;&gt;Node15 -->
<g id="edge49_Node000019_Node000015" class="edge">
<title>Node19&#45;&gt;Node15</title>
<g id="a_edge49_Node000019_Node000015"><a xlink:title=" ">
<path fill="none" stroke="#63b8ff" d="M117.69,-167.59C140.06,-158.71 173.77,-145.32 198.42,-135.54"/>
<polygon fill="#63b8ff" stroke="#63b8ff" points="199.37,-138.53 207.38,-131.59 196.79,-132.02 199.37,-138.53"/>
</a>
</g>
</g>
<!-- Node19&#45;&gt;Node16 -->
<g id="edge48_Node000019_Node000016" class="edge">
<title>Node19&#45;&gt;Node16</title>
<g id="a_edge48_Node000019_Node000016"><a xlink:title=" ">
<path fill="none" stroke="#63b8ff" d="M107.41,-167.59C118.83,-159.59 135.45,-147.93 148.84,-138.54"/>
<polygon fill="#63b8ff" stroke="#63b8ff" points="150.31,-141.09 156.48,-132.48 146.29,-135.36 150.31,-141.09"/>
</a>
</g>
</g>
<!-- Node24&#45;&gt;Node4 -->
<g id="edge55_Node000024_Node000004" class="edge">
<title>Node24&#45;&gt;Node4</title>
<g id="a_edge55_Node000024_Node000004"><a xlink:title=" ">
<path fill="none" stroke="#63b8ff" d="M1040.21,-111.91C1025.97,-97.74 996.39,-70.51 966,-56 915.56,-31.91 851.51,-20.33 810.87,-15.04"/>
<polygon fill="#63b8ff" stroke="#63b8ff" points="811.41,-11.46 801.06,-13.72 810.56,-18.41 811.41,-11.46"/>
</a>
</g>
</g>
<!-- Node24&#45;&gt;Node11 -->
<g id="edge57_Node000024_Node000011" class="edge">
<title>Node24&#45;&gt;Node11</title>
<g id="a_edge57_Node000024_Node000011"><a xlink:title=" ">
<path fill="none" stroke="#63b8ff" d="M1048.13,-111.59C1047.51,-104.86 1046.64,-95.53 1045.87,-87.15"/>
<polygon fill="#63b8ff" stroke="#63b8ff" points="1049.27,-86.93 1044.86,-77.3 1042.3,-87.58 1049.27,-86.93"/>
</a>
</g>
</g>
<!-- Node24&#45;&gt;Node12 -->
<g id="edge56_Node000024_Node000012" class="edge">
<title>Node24&#45;&gt;Node12</title>
<g id="a_edge56_Node000024_Node000012"><a xlink:title=" ">
<path fill="none" stroke="#63b8ff" d="M1057.78,-111.52C1065.06,-102.96 1074.86,-89.66 1079,-76 1083.49,-61.19 1080.94,-43.75 1077.57,-30.67"/>
<polygon fill="#63b8ff" stroke="#63b8ff" points="1080.75,-30.06 1074.55,-21.46 1074.03,-32.05 1080.75,-30.06"/>
</a>
</g>
</g>
<!-- Node25 -->
<g id="Node000025" class="node">
<title>Node25</title>
<g id="a_Node000025"><a xlink:title=" ">
<polygon fill="#e0e0e0" stroke="#999999" points="1183.62,-76 1126.38,-76 1126.38,-56 1183.62,-56 1183.62,-76"/>
<text text-anchor="middle" x="1155" y="-62.5" font-family="Helvetica,sans-Serif" font-size="10.00">functional</text>
</a>
</g>
</g>
<!-- Node24&#45;&gt;Node25 -->
<g id="edge58_Node000024_Node000025" class="edge">
<title>Node24&#45;&gt;Node25</title>
<g id="a_edge58_Node000024_Node000025"><a xlink:title=" ">
<path fill="none" stroke="#63b8ff" d="M1067.46,-111.59C1083.78,-103.28 1107.83,-91.03 1126.59,-81.47"/>
<polygon fill="#63b8ff" stroke="#63b8ff" points="1128.07,-84.14 1135.39,-76.48 1124.89,-77.9 1128.07,-84.14"/>
</a>
</g>
</g>
</g>
</svg>
