<?xml version="1.0" encoding="UTF-8" standalone="no"?>
<!DOCTYPE svg PUBLIC "-//W3C//DTD SVG 1.1//EN"
 "http://www.w3.org/Graphics/SVG/1.1/DTD/svg11.dtd">
<!-- Generated by graphviz version 8.1.0 (20230707.0739)
 -->
<!-- Title: ExoCode/src/ParseIni.cpp Pages: 1 -->
<svg width="278pt" height="196pt"
 viewBox="0.00 0.00 277.75 196.00" xmlns="http://www.w3.org/2000/svg" xmlns:xlink="http://www.w3.org/1999/xlink">
<g id="graph0" class="graph" transform="scale(1 1) rotate(0) translate(4 192)">
<title>ExoCode/src/ParseIni.cpp</title>
<!-- Node1 -->
<g id="Node000001" class="node">
<title>Node1</title>
<g id="a_Node000001"><a xlink:title=" ">
<polygon fill="#999999" stroke="#666666" points="141.75,-188 12.5,-188 12.5,-168 141.75,-168 141.75,-188"/>
<text text-anchor="middle" x="77.12" y="-174.5" font-family="Helvetica,sans-Serif" font-size="10.00">ExoCode/src/ParseIni.cpp</text>
</a>
</g>
</g>
<!-- Node2 -->
<g id="Node000002" class="node">
<title>Node2</title>
<g id="a_Node000002"><a xlink:href="_parse_ini_8h.html" target="_top" xlink:title="Declares the functions needed and defines mapping between the INI keys and the exo components.">
<polygon fill="white" stroke="#666666" points="69.88,-132 10.37,-132 10.37,-112 69.88,-112 69.88,-132"/>
<text text-anchor="middle" x="40.12" y="-118.5" font-family="Helvetica,sans-Serif" font-size="10.00">ParseIni.h</text>
</a>
</g>
</g>
<!-- Node1&#45;&gt;Node2 -->
<g id="edge1_Node000001_Node000002" class="edge">
<title>Node1&#45;&gt;Node2</title>
<g id="a_edge1_Node000001_Node000002"><a xlink:title=" ">
<path fill="none" stroke="#63b8ff" d="M70.68,-167.59C65.69,-160.32 58.64,-150.02 52.56,-141.15"/>
<polygon fill="#63b8ff" stroke="#63b8ff" points="55.04,-139.57 46.5,-133.3 49.26,-143.53 55.04,-139.57"/>
</a>
</g>
</g>
<!-- Node4 -->
<g id="Node000004" class="node">
<title>Node4</title>
<g id="a_Node000004"><a xlink:href="_logger_8h.html" target="_top" xlink:title=" ">
<polygon fill="white" stroke="#666666" points="156.88,-132 103.38,-132 103.38,-112 156.88,-112 156.88,-132"/>
<text text-anchor="middle" x="130.12" y="-118.5" font-family="Helvetica,sans-Serif" font-size="10.00">Logger.h</text>
</a>
</g>
</g>
<!-- Node1&#45;&gt;Node4 -->
<g id="edge3_Node000001_Node000004" class="edge">
<title>Node1&#45;&gt;Node4</title>
<g id="a_edge3_Node000001_Node000004"><a xlink:title=" ">
<path fill="none" stroke="#63b8ff" d="M86.36,-167.59C93.8,-160.01 104.48,-149.13 113.42,-140.02"/>
<polygon fill="#63b8ff" stroke="#63b8ff" points="115.49,-142.89 120,-133.3 110.5,-137.98 115.49,-142.89"/>
</a>
</g>
</g>
<!-- Node3 -->
<g id="Node000003" class="node">
<title>Node3</title>
<g id="a_Node000003"><a xlink:title=" ">
<polygon fill="#e0e0e0" stroke="#999999" points="48.25,-76 0,-76 0,-56 48.25,-56 48.25,-76"/>
<text text-anchor="middle" x="24.12" y="-62.5" font-family="Helvetica,sans-Serif" font-size="10.00">stdint.h</text>
</a>
</g>
</g>
<!-- Node2&#45;&gt;Node3 -->
<g id="edge2_Node000002_Node000003" class="edge">
<title>Node2&#45;&gt;Node3</title>
<g id="a_edge2_Node000002_Node000003"><a xlink:title=" ">
<path fill="none" stroke="#63b8ff" d="M37.34,-111.59C35.3,-104.7 32.45,-95.1 29.92,-86.57"/>
<polygon fill="#63b8ff" stroke="#63b8ff" points="33.08,-85.89 26.88,-77.3 26.37,-87.88 33.08,-85.89"/>
</a>
</g>
</g>
<!-- Node5 -->
<g id="Node000005" class="node">
<title>Node5</title>
<g id="a_Node000005"><a xlink:title=" ">
<polygon fill="#e0e0e0" stroke="#999999" points="118.75,-20 61.5,-20 61.5,0 118.75,0 118.75,-20"/>
<text text-anchor="middle" x="90.12" y="-6.5" font-family="Helvetica,sans-Serif" font-size="10.00">Arduino.h</text>
</a>
</g>
</g>
<!-- Node4&#45;&gt;Node5 -->
<g id="edge4_Node000004_Node000005" class="edge">
<title>Node4&#45;&gt;Node5</title>
<g id="a_edge4_Node000004_Node000005"><a xlink:title=" ">
<path fill="none" stroke="#63b8ff" d="M120.18,-111.7C111.87,-103.27 100.55,-90.03 95.12,-76 89.56,-61.61 88.51,-44.12 88.73,-30.91"/>
<polygon fill="#63b8ff" stroke="#63b8ff" points="92.26,-31.34 89.21,-21.19 85.27,-31.03 92.26,-31.34"/>
</a>
</g>
</g>
<!-- Node6 -->
<g id="Node000006" class="node">
<title>Node6</title>
<g id="a_Node000006"><a xlink:href="_log_levels_8h.html" target="_top" xlink:title=" ">
<polygon fill="white" stroke="#666666" points="210.62,-20 143.62,-20 143.62,0 210.62,0 210.62,-20"/>
<text text-anchor="middle" x="177.12" y="-6.5" font-family="Helvetica,sans-Serif" font-size="10.00">LogLevels.h</text>
</a>
</g>
</g>
<!-- Node4&#45;&gt;Node6 -->
<g id="edge5_Node000004_Node000006" class="edge">
<title>Node4&#45;&gt;Node6</title>
<g id="a_edge5_Node000004_Node000006"><a xlink:title=" ">
<path fill="none" stroke="#63b8ff" d="M139.71,-111.55C147.78,-103.02 158.97,-89.73 165.12,-76 171.53,-61.73 174.51,-44.23 175.91,-30.99"/>
<polygon fill="#63b8ff" stroke="#63b8ff" points="179.46,-31.49 176.79,-21.24 172.48,-30.92 179.46,-31.49"/>
</a>
</g>
</g>
<!-- Node7 -->
<g id="Node000007" class="node">
<title>Node7</title>
<g id="a_Node000007"><a xlink:href="_config_8h.html" target="_top" xlink:title=" ">
<polygon fill="white" stroke="#666666" points="155.75,-76 104.5,-76 104.5,-56 155.75,-56 155.75,-76"/>
<text text-anchor="middle" x="130.12" y="-62.5" font-family="Helvetica,sans-Serif" font-size="10.00">Config.h</text>
</a>
</g>
</g>
<!-- Node4&#45;&gt;Node7 -->
<g id="edge6_Node000004_Node000007" class="edge">
<title>Node4&#45;&gt;Node7</title>
<g id="a_edge6_Node000004_Node000007"><a xlink:title=" ">
<path fill="none" stroke="#63b8ff" d="M130.12,-111.59C130.12,-104.86 130.12,-95.53 130.12,-87.15"/>
<polygon fill="#63b8ff" stroke="#63b8ff" points="133.63,-87.3 130.12,-77.3 126.63,-87.3 133.63,-87.3"/>
</a>
</g>
</g>
<!-- Node8 -->
<g id="Node000008" class="node">
<title>Node8</title>
<g id="a_Node000008"><a xlink:title=" ">
<polygon fill="#e0e0e0" stroke="#999999" points="269.75,-76 212.5,-76 212.5,-56 269.75,-56 269.75,-76"/>
<text text-anchor="middle" x="241.12" y="-62.5" font-family="Helvetica,sans-Serif" font-size="10.00">functional</text>
</a>
</g>
</g>
<!-- Node4&#45;&gt;Node8 -->
<g id="edge9_Node000004_Node000008" class="edge">
<title>Node4&#45;&gt;Node8</title>
<g id="a_edge9_Node000004_Node000008"><a xlink:title=" ">
<path fill="none" stroke="#63b8ff" d="M149.46,-111.59C166.7,-103.21 192.2,-90.8 211.92,-81.21"/>
<polygon fill="#63b8ff" stroke="#63b8ff" points="213.18,-84 220.64,-76.48 210.12,-77.71 213.18,-84"/>
</a>
</g>
</g>
<!-- Node7&#45;&gt;Node5 -->
<g id="edge7_Node000007_Node000005" class="edge">
<title>Node7&#45;&gt;Node5</title>
<g id="a_edge7_Node000007_Node000005"><a xlink:title=" ">
<path fill="none" stroke="#63b8ff" d="M123.16,-55.59C117.71,-48.24 109.97,-37.8 103.36,-28.87"/>
<polygon fill="#63b8ff" stroke="#63b8ff" points="105.78,-27.25 97.01,-21.3 100.15,-31.42 105.78,-27.25"/>
</a>
</g>
</g>
<!-- Node7&#45;&gt;Node6 -->
<g id="edge8_Node000007_Node000006" class="edge">
<title>Node7&#45;&gt;Node6</title>
<g id="a_edge8_Node000007_Node000006"><a xlink:title=" ">
<path fill="none" stroke="#63b8ff" d="M138.31,-55.59C144.78,-48.16 153.99,-37.58 161.82,-28.58"/>
<polygon fill="#63b8ff" stroke="#63b8ff" points="165.11,-31.14 169.03,-21.3 159.83,-26.54 165.11,-31.14"/>
</a>
</g>
</g>
</g>
</svg>
