<?xml version="1.0" encoding="UTF-8" standalone="no"?>
<!DOCTYPE svg PUBLIC "-//W3C//DTD SVG 1.1//EN"
 "http://www.w3.org/Graphics/SVG/1.1/DTD/svg11.dtd">
<!-- Generated by graphviz version 8.1.0 (20230707.0739)
 -->
<!-- Title: ExoCode/src/RealTimeI2C.h Pages: 1 -->
<svg width="508pt" height="252pt"
 viewBox="0.00 0.00 507.50 252.00" xmlns="http://www.w3.org/2000/svg" xmlns:xlink="http://www.w3.org/1999/xlink">
<g id="graph0" class="graph" transform="scale(1 1) rotate(0) translate(4 248)">
<title>ExoCode/src/RealTimeI2C.h</title>
<!-- Node1 -->
<g id="Node000001" class="node">
<title>Node1</title>
<g id="a_Node000001"><a xlink:title=" ">
<polygon fill="#999999" stroke="#666666" points="227.5,-244 89.25,-244 89.25,-224 227.5,-224 227.5,-244"/>
<text text-anchor="middle" x="158.38" y="-230.5" font-family="Helvetica,sans-Serif" font-size="10.00">ExoCode/src/RealTimeI2C.h</text>
</a>
</g>
</g>
<!-- Node2 -->
<g id="Node000002" class="node">
<title>Node2</title>
<g id="a_Node000002"><a xlink:href="_real_time_i2_c_8cpp.html" target="_top" xlink:title=" ">
<polygon fill="white" stroke="#666666" points="148.75,-188 0,-188 0,-168 148.75,-168 148.75,-188"/>
<text text-anchor="middle" x="74.38" y="-174.5" font-family="Helvetica,sans-Serif" font-size="10.00">ExoCode/src/RealTimeI2C.cpp</text>
</a>
</g>
</g>
<!-- Node1&#45;&gt;Node2 -->
<g id="edge1_Node000001_Node000002" class="edge">
<title>Node1&#45;&gt;Node2</title>
<g id="a_edge1_Node000001_Node000002"><a xlink:title=" ">
<path fill="none" stroke="#63b8ff" d="M134.75,-217.81C120.1,-208.39 101.73,-196.58 89.12,-188.48"/>
<polygon fill="#63b8ff" stroke="#63b8ff" points="132.44,-221.13 142.74,-223.59 136.22,-215.24 132.44,-221.13"/>
</a>
</g>
</g>
<!-- Node3 -->
<g id="Node000003" class="node">
<title>Node3</title>
<g id="a_Node000003"><a xlink:href="uart__commands_8h.html" target="_top" xlink:title=" ">
<polygon fill="white" stroke="#666666" points="320,-188 166.75,-188 166.75,-168 320,-168 320,-188"/>
<text text-anchor="middle" x="243.38" y="-174.5" font-family="Helvetica,sans-Serif" font-size="10.00">ExoCode/src/uart_commands.h</text>
</a>
</g>
</g>
<!-- Node1&#45;&gt;Node3 -->
<g id="edge2_Node000001_Node000003" class="edge">
<title>Node1&#45;&gt;Node3</title>
<g id="a_edge2_Node000001_Node000003"><a xlink:title=" ">
<path fill="none" stroke="#63b8ff" d="M182.28,-217.81C197.11,-208.39 215.7,-196.58 228.45,-188.48"/>
<polygon fill="#63b8ff" stroke="#63b8ff" points="180.74,-215.28 174.18,-223.59 184.5,-221.19 180.74,-215.28"/>
</a>
</g>
</g>
<!-- Node4 -->
<g id="Node000004" class="node">
<title>Node4</title>
<g id="a_Node000004"><a xlink:href="_coms_m_c_u_8cpp.html" target="_top" xlink:title=" ">
<polygon fill="white" stroke="#666666" points="170,-132 28.75,-132 28.75,-112 170,-112 170,-132"/>
<text text-anchor="middle" x="99.38" y="-118.5" font-family="Helvetica,sans-Serif" font-size="10.00">ExoCode/src/ComsMCU.cpp</text>
</a>
</g>
</g>
<!-- Node3&#45;&gt;Node4 -->
<g id="edge3_Node000003_Node000004" class="edge">
<title>Node3&#45;&gt;Node4</title>
<g id="a_edge3_Node000003_Node000004"><a xlink:title=" ">
<path fill="none" stroke="#63b8ff" d="M208.15,-163.79C182.3,-154.1 147.81,-141.16 124.65,-132.48"/>
<polygon fill="#63b8ff" stroke="#63b8ff" points="206.7,-167.36 217.29,-167.59 209.16,-160.81 206.7,-167.36"/>
</a>
</g>
</g>
<!-- Node5 -->
<g id="Node000005" class="node">
<title>Node5</title>
<g id="a_Node000005"><a xlink:href="_exo_8cpp.html" target="_top" xlink:title=" ">
<polygon fill="white" stroke="#666666" points="299,-132 187.75,-132 187.75,-112 299,-112 299,-132"/>
<text text-anchor="middle" x="243.38" y="-118.5" font-family="Helvetica,sans-Serif" font-size="10.00">ExoCode/src/Exo.cpp</text>
</a>
</g>
</g>
<!-- Node3&#45;&gt;Node5 -->
<g id="edge4_Node000003_Node000005" class="edge">
<title>Node3&#45;&gt;Node5</title>
<g id="a_edge4_Node000003_Node000005"><a xlink:title=" ">
<path fill="none" stroke="#63b8ff" d="M243.38,-156.71C243.38,-148.32 243.38,-139.01 243.38,-132.3"/>
<polygon fill="#63b8ff" stroke="#63b8ff" points="239.88,-156.59 243.38,-166.59 246.88,-156.59 239.88,-156.59"/>
</a>
</g>
</g>
<!-- Node6 -->
<g id="Node000006" class="node">
<title>Node6</title>
<g id="a_Node000006"><a xlink:href="ble__commands_8h.html" target="_top" xlink:title="This file declares the BLE commands, and the functions that should be called when they are received.">
<polygon fill="white" stroke="#666666" points="466.12,-132 316.62,-132 316.62,-112 466.12,-112 466.12,-132"/>
<text text-anchor="middle" x="391.38" y="-118.5" font-family="Helvetica,sans-Serif" font-size="10.00">ExoCode/src/ble_commands.h</text>
</a>
</g>
</g>
<!-- Node3&#45;&gt;Node6 -->
<g id="edge5_Node000003_Node000006" class="edge">
<title>Node3&#45;&gt;Node6</title>
<g id="a_edge5_Node000003_Node000006"><a xlink:title=" ">
<path fill="none" stroke="#63b8ff" d="M279.22,-163.92C305.83,-154.21 341.49,-141.2 365.39,-132.48"/>
<polygon fill="#63b8ff" stroke="#63b8ff" points="278.35,-160.88 270.15,-167.59 280.75,-167.45 278.35,-160.88"/>
</a>
</g>
</g>
<!-- Node7 -->
<g id="Node000007" class="node">
<title>Node7</title>
<g id="a_Node000007"><a xlink:href="_ble_parser_8cpp.html" target="_top" xlink:title=" ">
<polygon fill="white" stroke="#666666" points="458.75,-20 322,-20 322,0 458.75,0 458.75,-20"/>
<text text-anchor="middle" x="390.38" y="-6.5" font-family="Helvetica,sans-Serif" font-size="10.00">ExoCode/src/BleParser.cpp</text>
</a>
</g>
</g>
<!-- Node6&#45;&gt;Node7 -->
<g id="edge6_Node000006_Node000007" class="edge">
<title>Node6&#45;&gt;Node7</title>
<g id="a_edge6_Node000006_Node000007"><a xlink:title=" ">
<path fill="none" stroke="#63b8ff" d="M377.41,-102.84C372.24,-95.02 367.01,-85.51 364.38,-76 358.73,-55.62 372.77,-32.92 382.34,-20.46"/>
<polygon fill="#63b8ff" stroke="#63b8ff" points="375.07,-104.58 383.72,-110.7 380.77,-100.52 375.07,-104.58"/>
</a>
</g>
</g>
<!-- Node8 -->
<g id="Node000008" class="node">
<title>Node8</title>
<g id="a_Node000008"><a xlink:href="_ble_parser_8h.html" target="_top" xlink:title="This class is used to serialize and deserialize the BLE data. The application uses Nordic&#39;s UART serv...">
<polygon fill="white" stroke="#666666" points="499.5,-76 373.25,-76 373.25,-56 499.5,-56 499.5,-76"/>
<text text-anchor="middle" x="436.38" y="-62.5" font-family="Helvetica,sans-Serif" font-size="10.00">ExoCode/src/BleParser.h</text>
</a>
</g>
</g>
<!-- Node6&#45;&gt;Node8 -->
<g id="edge7_Node000006_Node000008" class="edge">
<title>Node6&#45;&gt;Node8</title>
<g id="a_edge7_Node000006_Node000008"><a xlink:title=" ">
<path fill="none" stroke="#63b8ff" d="M406.14,-103.29C413.64,-94.28 422.46,-83.7 428.63,-76.3"/>
<polygon fill="#63b8ff" stroke="#63b8ff" points="402.93,-100.67 399.21,-110.59 408.3,-105.15 402.93,-100.67"/>
</a>
</g>
</g>
<!-- Node8&#45;&gt;Node7 -->
<g id="edge8_Node000008_Node000007" class="edge">
<title>Node8&#45;&gt;Node7</title>
<g id="a_edge8_Node000008_Node000007"><a xlink:title=" ">
<path fill="none" stroke="#63b8ff" d="M421.29,-47.29C413.61,-38.28 404.6,-27.7 398.3,-20.3"/>
<polygon fill="#63b8ff" stroke="#63b8ff" points="419.21,-49.25 428.36,-54.59 424.54,-44.71 419.21,-49.25"/>
</a>
</g>
</g>
</g>
</svg>
