<?xml version="1.0" encoding="UTF-8" standalone="no"?>
<!DOCTYPE svg PUBLIC "-//W3C//DTD SVG 1.1//EN"
 "http://www.w3.org/Graphics/SVG/1.1/DTD/svg11.dtd">
<!-- Generated by graphviz version 8.1.0 (20230707.0739)
 -->
<!-- Title: ExoCode/src/RealTimeI2C.cpp Pages: 1 -->
<svg width="369pt" height="196pt"
 viewBox="0.00 0.00 368.62 196.00" xmlns="http://www.w3.org/2000/svg" xmlns:xlink="http://www.w3.org/1999/xlink">
<g id="graph0" class="graph" transform="scale(1 1) rotate(0) translate(4 192)">
<title>ExoCode/src/RealTimeI2C.cpp</title>
<!-- Node1 -->
<g id="Node000001" class="node">
<title>Node1</title>
<g id="a_Node000001"><a xlink:title=" ">
<polygon fill="#999999" stroke="#666666" points="251.88,-188 103.12,-188 103.12,-168 251.88,-168 251.88,-188"/>
<text text-anchor="middle" x="177.5" y="-174.5" font-family="Helvetica,sans-Serif" font-size="10.00">ExoCode/src/RealTimeI2C.cpp</text>
</a>
</g>
</g>
<!-- Node2 -->
<g id="Node000002" class="node">
<title>Node2</title>
<g id="a_Node000002"><a xlink:href="_real_time_i2_c_8h.html" target="_top" xlink:title=" ">
<polygon fill="white" stroke="#666666" points="174,-132 95,-132 95,-112 174,-112 174,-132"/>
<text text-anchor="middle" x="134.5" y="-118.5" font-family="Helvetica,sans-Serif" font-size="10.00">RealTimeI2C.h</text>
</a>
</g>
</g>
<!-- Node1&#45;&gt;Node2 -->
<g id="edge1_Node000001_Node000002" class="edge">
<title>Node1&#45;&gt;Node2</title>
<g id="a_edge1_Node000001_Node000002"><a xlink:title=" ">
<path fill="none" stroke="#63b8ff" d="M170.01,-167.59C164.15,-160.24 155.84,-149.8 148.73,-140.87"/>
<polygon fill="#63b8ff" stroke="#63b8ff" points="150.87,-138.94 141.9,-133.3 145.4,-143.3 150.87,-138.94"/>
</a>
</g>
</g>
<!-- Node4 -->
<g id="Node000004" class="node">
<title>Node4</title>
<g id="a_Node000004"><a xlink:href="_config_8h.html" target="_top" xlink:title=" ">
<polygon fill="white" stroke="#666666" points="77.12,-132 25.88,-132 25.88,-112 77.12,-112 77.12,-132"/>
<text text-anchor="middle" x="51.5" y="-118.5" font-family="Helvetica,sans-Serif" font-size="10.00">Config.h</text>
</a>
</g>
</g>
<!-- Node1&#45;&gt;Node4 -->
<g id="edge3_Node000001_Node000004" class="edge">
<title>Node1&#45;&gt;Node4</title>
<g id="a_edge3_Node000001_Node000004"><a xlink:title=" ">
<path fill="none" stroke="#63b8ff" d="M155.55,-167.59C135.71,-159.09 106.24,-146.46 83.73,-136.81"/>
<polygon fill="#63b8ff" stroke="#63b8ff" points="85.19,-133.2 74.62,-132.48 82.43,-139.64 85.19,-133.2"/>
</a>
</g>
</g>
<!-- Node6 -->
<g id="Node000006" class="node">
<title>Node6</title>
<g id="a_Node000006"><a xlink:href="_utilities_8h.html" target="_top" xlink:title=" ">
<polygon fill="white" stroke="#666666" points="248.75,-132 192.25,-132 192.25,-112 248.75,-112 248.75,-132"/>
<text text-anchor="middle" x="220.5" y="-118.5" font-family="Helvetica,sans-Serif" font-size="10.00">Utilities.h</text>
</a>
</g>
</g>
<!-- Node1&#45;&gt;Node6 -->
<g id="edge6_Node000001_Node000006" class="edge">
<title>Node1&#45;&gt;Node6</title>
<g id="a_edge6_Node000001_Node000006"><a xlink:title=" ">
<path fill="none" stroke="#63b8ff" d="M184.99,-167.59C190.85,-160.24 199.16,-149.8 206.27,-140.87"/>
<polygon fill="#63b8ff" stroke="#63b8ff" points="209.6,-143.3 213.1,-133.3 204.13,-138.94 209.6,-143.3"/>
</a>
</g>
</g>
<!-- Node11 -->
<g id="Node000011" class="node">
<title>Node11</title>
<g id="a_Node000011"><a xlink:title=" ">
<polygon fill="#e0e0e0" stroke="#999999" points="311.75,-132 267.25,-132 267.25,-112 311.75,-112 311.75,-132"/>
<text text-anchor="middle" x="289.5" y="-118.5" font-family="Helvetica,sans-Serif" font-size="10.00">Wire.h</text>
</a>
</g>
</g>
<!-- Node1&#45;&gt;Node11 -->
<g id="edge13_Node000001_Node000011" class="edge">
<title>Node1&#45;&gt;Node11</title>
<g id="a_edge13_Node000001_Node000011"><a xlink:title=" ">
<path fill="none" stroke="#63b8ff" d="M197.01,-167.59C214.41,-159.21 240.13,-146.8 260.04,-137.21"/>
<polygon fill="#63b8ff" stroke="#63b8ff" points="261.35,-139.98 268.84,-132.48 258.31,-133.67 261.35,-139.98"/>
</a>
</g>
</g>
<!-- Node3 -->
<g id="Node000003" class="node">
<title>Node3</title>
<g id="a_Node000003"><a xlink:title=" ">
<polygon fill="#e0e0e0" stroke="#999999" points="142.12,-76 84.88,-76 84.88,-56 142.12,-56 142.12,-76"/>
<text text-anchor="middle" x="113.5" y="-62.5" font-family="Helvetica,sans-Serif" font-size="10.00">Arduino.h</text>
</a>
</g>
</g>
<!-- Node2&#45;&gt;Node3 -->
<g id="edge2_Node000002_Node000003" class="edge">
<title>Node2&#45;&gt;Node3</title>
<g id="a_edge2_Node000002_Node000003"><a xlink:title=" ">
<path fill="none" stroke="#63b8ff" d="M130.84,-111.59C128.13,-104.63 124.34,-94.89 121,-86.29"/>
<polygon fill="#63b8ff" stroke="#63b8ff" points="124,-85.35 117.12,-77.3 117.48,-87.89 124,-85.35"/>
</a>
</g>
</g>
<!-- Node4&#45;&gt;Node3 -->
<g id="edge4_Node000004_Node000003" class="edge">
<title>Node4&#45;&gt;Node3</title>
<g id="a_edge4_Node000004_Node000003"><a xlink:title=" ">
<path fill="none" stroke="#63b8ff" d="M62.3,-111.59C71.19,-103.85 84.01,-92.69 94.59,-83.47"/>
<polygon fill="#63b8ff" stroke="#63b8ff" points="96.58,-85.51 101.82,-76.3 91.98,-80.23 96.58,-85.51"/>
</a>
</g>
</g>
<!-- Node5 -->
<g id="Node000005" class="node">
<title>Node5</title>
<g id="a_Node000005"><a xlink:href="_log_levels_8h.html" target="_top" xlink:title=" ">
<polygon fill="white" stroke="#666666" points="67,-76 0,-76 0,-56 67,-56 67,-76"/>
<text text-anchor="middle" x="33.5" y="-62.5" font-family="Helvetica,sans-Serif" font-size="10.00">LogLevels.h</text>
</a>
</g>
</g>
<!-- Node4&#45;&gt;Node5 -->
<g id="edge5_Node000004_Node000005" class="edge">
<title>Node4&#45;&gt;Node5</title>
<g id="a_edge5_Node000004_Node000005"><a xlink:title=" ">
<path fill="none" stroke="#63b8ff" d="M48.36,-111.59C46.07,-104.7 42.87,-95.1 40.02,-86.57"/>
<polygon fill="#63b8ff" stroke="#63b8ff" points="43.08,-85.68 36.6,-77.3 36.44,-87.89 43.08,-85.68"/>
</a>
</g>
</g>
<!-- Node6&#45;&gt;Node3 -->
<g id="edge9_Node000006_Node000003" class="edge">
<title>Node6&#45;&gt;Node3</title>
<g id="a_edge9_Node000006_Node000003"><a xlink:title=" ">
<path fill="none" stroke="#63b8ff" d="M201.86,-111.59C185.32,-103.24 160.89,-90.92 141.91,-81.34"/>
<polygon fill="#63b8ff" stroke="#63b8ff" points="143.79,-77.86 133.28,-76.48 140.63,-84.11 143.79,-77.86"/>
</a>
</g>
</g>
<!-- Node7 -->
<g id="Node000007" class="node">
<title>Node7</title>
<g id="a_Node000007"><a xlink:href="_parse_ini_8h.html" target="_top" xlink:title="Declares the functions needed and defines mapping between the INI keys and the exo components.">
<polygon fill="white" stroke="#666666" points="337.25,-76 277.75,-76 277.75,-56 337.25,-56 337.25,-76"/>
<text text-anchor="middle" x="307.5" y="-62.5" font-family="Helvetica,sans-Serif" font-size="10.00">ParseIni.h</text>
</a>
</g>
</g>
<!-- Node6&#45;&gt;Node7 -->
<g id="edge7_Node000006_Node000007" class="edge">
<title>Node6&#45;&gt;Node7</title>
<g id="a_edge7_Node000006_Node000007"><a xlink:title=" ">
<path fill="none" stroke="#63b8ff" d="M235.65,-111.59C248.67,-103.51 267.69,-91.71 282.89,-82.27"/>
<polygon fill="#63b8ff" stroke="#63b8ff" points="284.58,-84.73 291.23,-76.48 280.89,-78.78 284.58,-84.73"/>
</a>
</g>
</g>
<!-- Node8 -->
<g id="Node000008" class="node">
<title>Node8</title>
<g id="a_Node000008"><a xlink:title=" ">
<polygon fill="#e0e0e0" stroke="#999999" points="360.62,-20 312.38,-20 312.38,0 360.62,0 360.62,-20"/>
<text text-anchor="middle" x="336.5" y="-6.5" font-family="Helvetica,sans-Serif" font-size="10.00">stdint.h</text>
</a>
</g>
</g>
<!-- Node6&#45;&gt;Node8 -->
<g id="edge10_Node000006_Node000008" class="edge">
<title>Node6&#45;&gt;Node8</title>
<g id="a_edge10_Node000006_Node000008"><a xlink:title=" ">
<path fill="none" stroke="#63b8ff" d="M249.21,-112.65C284.56,-102.08 340.68,-84.26 346.5,-76 355.84,-62.74 351.74,-44.19 346.24,-30.3"/>
<polygon fill="#63b8ff" stroke="#63b8ff" points="349.05,-29.02 341.75,-21.34 342.67,-31.9 349.05,-29.02"/>
</a>
</g>
</g>
<!-- Node9 -->
<g id="Node000009" class="node">
<title>Node9</title>
<g id="a_Node000009"><a xlink:title=" ">
<polygon fill="#e0e0e0" stroke="#999999" points="199.12,-76 159.88,-76 159.88,-56 199.12,-56 199.12,-76"/>
<text text-anchor="middle" x="179.5" y="-62.5" font-family="Helvetica,sans-Serif" font-size="10.00">utility</text>
</a>
</g>
</g>
<!-- Node6&#45;&gt;Node9 -->
<g id="edge11_Node000006_Node000009" class="edge">
<title>Node6&#45;&gt;Node9</title>
<g id="a_edge11_Node000006_Node000009"><a xlink:title=" ">
<path fill="none" stroke="#63b8ff" d="M213.36,-111.59C207.77,-104.24 199.84,-93.8 193.06,-84.87"/>
<polygon fill="#63b8ff" stroke="#63b8ff" points="195.39,-83.15 186.56,-77.3 189.82,-87.38 195.39,-83.15"/>
</a>
</g>
</g>
<!-- Node10 -->
<g id="Node000010" class="node">
<title>Node10</title>
<g id="a_Node000010"><a xlink:title=" ">
<polygon fill="#e0e0e0" stroke="#999999" points="259.62,-76 217.38,-76 217.38,-56 259.62,-56 259.62,-76"/>
<text text-anchor="middle" x="238.5" y="-62.5" font-family="Helvetica,sans-Serif" font-size="10.00">queue</text>
</a>
</g>
</g>
<!-- Node6&#45;&gt;Node10 -->
<g id="edge12_Node000006_Node000010" class="edge">
<title>Node6&#45;&gt;Node10</title>
<g id="a_edge12_Node000006_Node000010"><a xlink:title=" ">
<path fill="none" stroke="#63b8ff" d="M223.64,-111.59C225.93,-104.7 229.13,-95.1 231.98,-86.57"/>
<polygon fill="#63b8ff" stroke="#63b8ff" points="235.56,-87.89 235.4,-77.3 228.92,-85.68 235.56,-87.89"/>
</a>
</g>
</g>
<!-- Node7&#45;&gt;Node8 -->
<g id="edge8_Node000007_Node000008" class="edge">
<title>Node7&#45;&gt;Node8</title>
<g id="a_edge8_Node000007_Node000008"><a xlink:title=" ">
<path fill="none" stroke="#63b8ff" d="M312.55,-55.59C316.38,-48.47 321.76,-38.45 326.45,-29.72"/>
<polygon fill="#63b8ff" stroke="#63b8ff" points="329.86,-31.76 331.51,-21.3 323.69,-28.45 329.86,-31.76"/>
</a>
</g>
</g>
</g>
</svg>
