<?xml version="1.0" encoding="UTF-8" standalone="no"?>
<!DOCTYPE svg PUBLIC "-//W3C//DTD SVG 1.1//EN"
 "http://www.w3.org/Graphics/SVG/1.1/DTD/svg11.dtd">
<!-- Generated by graphviz version 8.1.0 (20230707.0739)
 -->
<!-- Title: ExoCode/src/StatusLed.h Pages: 1 -->
<svg width="172pt" height="252pt"
 viewBox="0.00 0.00 172.00 252.00" xmlns="http://www.w3.org/2000/svg" xmlns:xlink="http://www.w3.org/1999/xlink">

<svg id="main" version="1.1" xmlns="http://www.w3.org/2000/svg" xmlns:xlink="http://www.w3.org/1999/xlink" xml:space="preserve" onload="init(evt)">
<style type="text/css"><![CDATA[
.node, .edge {opacity: 0.7;}
.node.selected, .edge.selected {opacity: 1;}
.edge:hover path { stroke: red; }
.edge:hover polygon { stroke: red; fill: red; }
]]></style>
<script type="application/ecmascript" xlink:href="svg.min.js"/>
<svg id="graph" class="graph">
<g id="graph0" class="graph" transform="scale(1 1) rotate(0) translate(4 248)">
<title>ExoCode/src/StatusLed.h</title>
<!-- Node1 -->
<g id="Node000001" class="node">
<title>Node1</title>
<g id="a_Node000001"><a xlink:title="Class to set an RGB LED to different colors based on the state of the system.">
<polygon fill="#999999" stroke="#666666" points="127.75,-244 0,-244 0,-224 127.75,-224 127.75,-244"/>
<text text-anchor="middle" x="63.88" y="-230.5" font-family="Helvetica,sans-Serif" font-size="10.00">ExoCode/src/StatusLed.h</text>
</a>
</g>
</g>
<!-- Node2 -->
<g id="Node000002" class="node">
<title>Node2</title>
<g id="a_Node000002"><a xlink:title=" ">
<polygon fill="#e0e0e0" stroke="#999999" points="70.5,-20 13.25,-20 13.25,0 70.5,0 70.5,-20"/>
<text text-anchor="middle" x="41.88" y="-6.5" font-family="Helvetica,sans-Serif" font-size="10.00">Arduino.h</text>
</a>
</g>
</g>
<!-- Node1&#45;&gt;Node2 -->
<g id="edge1_Node000001_Node000002" class="edge">
<title>Node1&#45;&gt;Node2</title>
<g id="a_edge1_Node000001_Node000002"><a xlink:title=" ">
<path fill="none" stroke="#63b8ff" d="M61.73,-223.6C57.79,-205.82 49.45,-166.01 45.88,-132 42.17,-96.76 41.61,-55.45 41.66,-31.35"/>
<polygon fill="#63b8ff" stroke="#63b8ff" points="45.17,-31.47 41.73,-21.45 38.17,-31.42 45.17,-31.47"/>
</a>
</g>
</g>
<!-- Node3 -->
<g id="Node000003" class="node">
<title>Node3</title>
<g id="a_Node000003"><a xlink:href="_board_8h.html" target="_top" xlink:title=" ">
<polygon fill="white" stroke="#666666" points="104.75,-132 55,-132 55,-112 104.75,-112 104.75,-132"/>
<text text-anchor="middle" x="79.88" y="-118.5" font-family="Helvetica,sans-Serif" font-size="10.00">Board.h</text>
</a>
</g>
</g>
<!-- Node1&#45;&gt;Node3 -->
<g id="edge2_Node000001_Node000003" class="edge">
<title>Node1&#45;&gt;Node3</title>
<g id="a_edge2_Node000001_Node000003"><a xlink:title=" ">
<path fill="none" stroke="#63b8ff" d="M65.24,-223.62C67.83,-205.84 73.49,-166.88 76.97,-143"/>
<polygon fill="#63b8ff" stroke="#63b8ff" points="80.54,-143.75 78.51,-133.35 73.61,-142.75 80.54,-143.75"/>
</a>
</g>
</g>
<!-- Node6 -->
<g id="Node000006" class="node">
<title>Node6</title>
<g id="a_Node000006"><a xlink:href="_status_defs_8h.html" target="_top" xlink:title="Stores the different status messages for the system.">
<polygon fill="white" stroke="#666666" points="164,-188 91.75,-188 91.75,-168 164,-168 164,-188"/>
<text text-anchor="middle" x="127.88" y="-174.5" font-family="Helvetica,sans-Serif" font-size="10.00">StatusDefs.h</text>
</a>
</g>
</g>
<!-- Node1&#45;&gt;Node6 -->
<g id="edge7_Node000001_Node000006" class="edge">
<title>Node1&#45;&gt;Node6</title>
<g id="a_edge7_Node000001_Node000006"><a xlink:title=" ">
<path fill="none" stroke="#63b8ff" d="M75.02,-223.59C84.29,-215.77 97.69,-204.46 108.68,-195.19"/>
<polygon fill="#63b8ff" stroke="#63b8ff" points="110.47,-197.42 115.85,-188.3 105.95,-192.07 110.47,-197.42"/>
</a>
</g>
</g>
<!-- Node3&#45;&gt;Node2 -->
<g id="edge6_Node000003_Node000002" class="edge">
<title>Node3&#45;&gt;Node2</title>
<g id="a_edge6_Node000003_Node000002"><a xlink:title=" ">
<path fill="none" stroke="#63b8ff" d="M75.63,-111.81C71.55,-102.81 65.37,-88.62 60.88,-76 55.56,-61.07 50.58,-43.85 47.05,-30.89"/>
<polygon fill="#63b8ff" stroke="#63b8ff" points="50.2,-30.13 44.25,-21.36 43.44,-31.93 50.2,-30.13"/>
</a>
</g>
</g>
<!-- Node4 -->
<g id="Node000004" class="node">
<title>Node4</title>
<g id="a_Node000004"><a xlink:href="_config_8h.html" target="_top" xlink:title=" ">
<polygon fill="white" stroke="#666666" points="121.5,-76 70.25,-76 70.25,-56 121.5,-56 121.5,-76"/>
<text text-anchor="middle" x="95.88" y="-62.5" font-family="Helvetica,sans-Serif" font-size="10.00">Config.h</text>
</a>
</g>
</g>
<!-- Node3&#45;&gt;Node4 -->
<g id="edge3_Node000003_Node000004" class="edge">
<title>Node3&#45;&gt;Node4</title>
<g id="a_edge3_Node000003_Node000004"><a xlink:title=" ">
<path fill="none" stroke="#63b8ff" d="M82.66,-111.59C84.7,-104.7 87.55,-95.1 90.08,-86.57"/>
<polygon fill="#63b8ff" stroke="#63b8ff" points="93.63,-87.88 93.12,-77.3 86.92,-85.89 93.63,-87.88"/>
</a>
</g>
</g>
<!-- Node4&#45;&gt;Node2 -->
<g id="edge4_Node000004_Node000002" class="edge">
<title>Node4&#45;&gt;Node2</title>
<g id="a_edge4_Node000004_Node000002"><a xlink:title=" ">
<path fill="none" stroke="#63b8ff" d="M86.47,-55.59C78.88,-48.01 68.01,-37.13 58.9,-28.02"/>
<polygon fill="#63b8ff" stroke="#63b8ff" points="61.72,-25.89 52.17,-21.3 56.77,-30.84 61.72,-25.89"/>
</a>
</g>
</g>
<!-- Node5 -->
<g id="Node000005" class="node">
<title>Node5</title>
<g id="a_Node000005"><a xlink:href="_log_levels_8h.html" target="_top" xlink:title=" ">
<polygon fill="white" stroke="#666666" points="155.38,-20 88.38,-20 88.38,0 155.38,0 155.38,-20"/>
<text text-anchor="middle" x="121.88" y="-6.5" font-family="Helvetica,sans-Serif" font-size="10.00">LogLevels.h</text>
</a>
</g>
</g>
<!-- Node4&#45;&gt;Node5 -->
<g id="edge5_Node000004_Node000005" class="edge">
<title>Node4&#45;&gt;Node5</title>
<g id="a_edge5_Node000004_Node000005"><a xlink:title=" ">
<path fill="none" stroke="#63b8ff" d="M100.4,-55.59C103.8,-48.55 108.55,-38.67 112.73,-30"/>
<polygon fill="#63b8ff" stroke="#63b8ff" points="116.21,-31.83 117.4,-21.3 109.91,-28.79 116.21,-31.83"/>
</a>
</g>
</g>
<!-- Node6&#45;&gt;Node2 -->
<g id="edge8_Node000006_Node000002" class="edge">
<title>Node6&#45;&gt;Node2</title>
<g id="a_edge8_Node000006_Node000002"><a xlink:title=" ">
<path fill="none" stroke="#63b8ff" d="M131.29,-167.63C138.53,-146.05 153,-91.98 130.88,-56 124.65,-45.88 99.51,-33.67 77.54,-24.53"/>
<polygon fill="#63b8ff" stroke="#63b8ff" points="79,-20.94 68.42,-20.44 76.38,-27.43 79,-20.94"/>
</a>
</g>
</g>
<!-- Node6&#45;&gt;Node3 -->
<g id="edge9_Node000006_Node000003" class="edge">
<title>Node6&#45;&gt;Node3</title>
<g id="a_edge9_Node000006_Node000003"><a xlink:title=" ">
<path fill="none" stroke="#63b8ff" d="M119.51,-167.59C112.84,-160.08 103.3,-149.35 95.26,-140.3"/>
<polygon fill="#63b8ff" stroke="#63b8ff" points="98.4,-138.45 89.14,-133.3 93.17,-143.1 98.4,-138.45"/>
</a>
</g>
</g>
</g>
</svg>
</svg>

<style type='text/css'>
<![CDATA[
[data-mouse-over-selected='false'] { opacity: 0.7; }
[data-mouse-over-selected='true']  { opacity: 1.0; }
]]>
</style>
<script type="application/ecmascript"><![CDATA[
document.addEventListener('DOMContentLoaded', (event) => {
  highlightEdges();
  highlightAdjacentNodes();
});
]]></script>
</svg>
