<?xml version="1.0" encoding="UTF-8" standalone="no"?>
<!DOCTYPE svg PUBLIC "-//W3C//DTD SVG 1.1//EN"
 "http://www.w3.org/Graphics/SVG/1.1/DTD/svg11.dtd">
<!-- Generated by graphviz version 8.1.0 (20230707.0739)
 -->
<!-- Title: ExoCode/src/StatusLed.h Pages: 1 -->
<svg width="883pt" height="364pt"
 viewBox="0.00 0.00 882.75 364.00" xmlns="http://www.w3.org/2000/svg" xmlns:xlink="http://www.w3.org/1999/xlink">
<g id="graph0" class="graph" transform="scale(1 1) rotate(0) translate(4 360)">
<title>ExoCode/src/StatusLed.h</title>
<!-- Node1 -->
<g id="Node000001" class="node">
<title>Node1</title>
<g id="a_Node000001"><a xlink:title="Class to set an RGB LED to different colors based on the state of the system.">
<polygon fill="#999999" stroke="#666666" points="238.5,-356 110.75,-356 110.75,-336 238.5,-336 238.5,-356"/>
<text text-anchor="middle" x="174.62" y="-342.5" font-family="Helvetica,sans-Serif" font-size="10.00">ExoCode/src/StatusLed.h</text>
</a>
</g>
</g>
<!-- Node2 -->
<g id="Node000002" class="node">
<title>Node2</title>
<g id="a_Node000002"><a xlink:href="_coms_m_c_u_8cpp.html" target="_top" xlink:title=" ">
<polygon fill="white" stroke="#666666" points="141.25,-132 0,-132 0,-112 141.25,-112 141.25,-132"/>
<text text-anchor="middle" x="70.62" y="-118.5" font-family="Helvetica,sans-Serif" font-size="10.00">ExoCode/src/ComsMCU.cpp</text>
</a>
</g>
</g>
<!-- Node1&#45;&gt;Node2 -->
<g id="edge1_Node000001_Node000002" class="edge">
<title>Node1&#45;&gt;Node2</title>
<g id="a_edge1_Node000001_Node000002"><a xlink:title=" ">
<path fill="none" stroke="#63b8ff" d="M136.87,-331.47C100.92,-316.33 48.94,-287.98 25.62,-244 4.73,-204.6 43.51,-153.34 61.82,-132.46"/>
<polygon fill="#63b8ff" stroke="#63b8ff" points="135.43,-335.07 146.01,-335.58 138.05,-328.58 135.43,-335.07"/>
</a>
</g>
</g>
<!-- Node3 -->
<g id="Node000003" class="node">
<title>Node3</title>
<g id="a_Node000003"><a xlink:href="_exo_data_8h.html" target="_top" xlink:title="Declares a class used to store data for the Exo to access.">
<polygon fill="white" stroke="#666666" points="423.12,-300 302.12,-300 302.12,-280 423.12,-280 423.12,-300"/>
<text text-anchor="middle" x="362.62" y="-286.5" font-family="Helvetica,sans-Serif" font-size="10.00">ExoCode/src/ExoData.h</text>
</a>
</g>
</g>
<!-- Node1&#45;&gt;Node3 -->
<g id="edge2_Node000001_Node000003" class="edge">
<title>Node1&#45;&gt;Node3</title>
<g id="a_edge2_Node000001_Node000003"><a xlink:title=" ">
<path fill="none" stroke="#63b8ff" d="M217.94,-332.56C251.95,-322.79 298.59,-309.39 329.62,-300.48"/>
<polygon fill="#63b8ff" stroke="#63b8ff" points="217.02,-329.47 208.37,-335.59 218.95,-336.2 217.02,-329.47"/>
</a>
</g>
</g>
<!-- Node4 -->
<g id="Node000004" class="node">
<title>Node4</title>
<g id="a_Node000004"><a xlink:href="_coms_m_c_u_8h.html" target="_top" xlink:title="The top of the composite structure for the communication microcontroller. This class manages the blue...">
<polygon fill="white" stroke="#666666" points="165,-244 34.25,-244 34.25,-224 165,-224 165,-244"/>
<text text-anchor="middle" x="99.62" y="-230.5" font-family="Helvetica,sans-Serif" font-size="10.00">ExoCode/src/ComsMCU.h</text>
</a>
</g>
</g>
<!-- Node3&#45;&gt;Node4 -->
<g id="edge3_Node000003_Node000004" class="edge">
<title>Node3&#45;&gt;Node4</title>
<g id="a_edge3_Node000003_Node000004"><a xlink:title=" ">
<path fill="none" stroke="#63b8ff" d="M306,-277.37C258.1,-267.54 190.31,-253.62 145.68,-244.46"/>
<polygon fill="#63b8ff" stroke="#63b8ff" points="305.01,-280.95 315.51,-279.53 306.42,-274.09 305.01,-280.95"/>
</a>
</g>
</g>
<!-- Node5 -->
<g id="Node000005" class="node">
<title>Node5</title>
<g id="a_Node000005"><a xlink:href="_exo_data_8cpp.html" target="_top" xlink:title=" ">
<polygon fill="white" stroke="#666666" points="385.38,-188 253.88,-188 253.88,-168 385.38,-168 385.38,-188"/>
<text text-anchor="middle" x="319.62" y="-174.5" font-family="Helvetica,sans-Serif" font-size="10.00">ExoCode/src/ExoData.cpp</text>
</a>
</g>
</g>
<!-- Node3&#45;&gt;Node5 -->
<g id="edge5_Node000003_Node000005" class="edge">
<title>Node3&#45;&gt;Node5</title>
<g id="a_edge5_Node000003_Node000005"><a xlink:title=" ">
<path fill="none" stroke="#63b8ff" d="M355.05,-269.62C345.73,-245.78 330.29,-206.28 323.28,-188.35"/>
<polygon fill="#63b8ff" stroke="#63b8ff" points="352.06,-270.58 358.96,-278.62 358.58,-268.03 352.06,-270.58"/>
</a>
</g>
</g>
<!-- Node6 -->
<g id="Node000006" class="node">
<title>Node6</title>
<g id="a_Node000006"><a xlink:href="_params_from_s_d_8h.html" target="_top" xlink:title="Declares the functions to pull controller parameters from the SD card and defines the mapping to the ...">
<polygon fill="white" stroke="#666666" points="563.25,-244 410,-244 410,-224 563.25,-224 563.25,-244"/>
<text text-anchor="middle" x="486.62" y="-230.5" font-family="Helvetica,sans-Serif" font-size="10.00">ExoCode/src/ParamsFromSD.h</text>
</a>
</g>
</g>
<!-- Node3&#45;&gt;Node6 -->
<g id="edge6_Node000003_Node000006" class="edge">
<title>Node3&#45;&gt;Node6</title>
<g id="a_edge6_Node000003_Node000006"><a xlink:title=" ">
<path fill="none" stroke="#63b8ff" d="M394.15,-275.27C416.27,-265.64 445.28,-253.01 464.86,-244.48"/>
<polygon fill="#63b8ff" stroke="#63b8ff" points="393,-272.39 385.22,-279.59 395.79,-278.81 393,-272.39"/>
</a>
</g>
</g>
<!-- Node8 -->
<g id="Node000008" class="node">
<title>Node8</title>
<g id="a_Node000008"><a xlink:href="ble__commands_8h.html" target="_top" xlink:title="This file declares the BLE commands, and the functions that should be called when they are received.">
<polygon fill="white" stroke="#666666" points="841.38,-132 691.88,-132 691.88,-112 841.38,-112 841.38,-132"/>
<text text-anchor="middle" x="766.62" y="-118.5" font-family="Helvetica,sans-Serif" font-size="10.00">ExoCode/src/ble_commands.h</text>
</a>
</g>
</g>
<!-- Node3&#45;&gt;Node8 -->
<g id="edge18_Node000003_Node000008" class="edge">
<title>Node3&#45;&gt;Node8</title>
<g id="a_edge18_Node000003_Node000008"><a xlink:title=" ">
<path fill="none" stroke="#63b8ff" d="M434.39,-285.3C522.25,-279.82 665.21,-267.56 712.62,-244 743.87,-228.48 754.42,-220.29 767.62,-188 775.23,-169.41 771.78,-145.24 768.96,-132.25"/>
<polygon fill="#63b8ff" stroke="#63b8ff" points="434.2,-281.86 424.44,-285.97 434.63,-288.85 434.2,-281.86"/>
</a>
</g>
</g>
<!-- Node11 -->
<g id="Node000011" class="node">
<title>Node11</title>
<g id="a_Node000011"><a xlink:href="uart__commands_8h.html" target="_top" xlink:title=" ">
<polygon fill="white" stroke="#666666" points="556.25,-188 403,-188 403,-168 556.25,-168 556.25,-188"/>
<text text-anchor="middle" x="479.62" y="-174.5" font-family="Helvetica,sans-Serif" font-size="10.00">ExoCode/src/uart_commands.h</text>
</a>
</g>
</g>
<!-- Node3&#45;&gt;Node11 -->
<g id="edge23_Node000003_Node000011" class="edge">
<title>Node3&#45;&gt;Node11</title>
<g id="a_edge23_Node000003_Node000011"><a xlink:title=" ">
<path fill="none" stroke="#63b8ff" d="M370.66,-269.58C377.17,-255.63 387.42,-237.05 400.62,-224 416.56,-208.24 439.13,-196.12 456.06,-188.45"/>
<polygon fill="#63b8ff" stroke="#63b8ff" points="367.09,-268.03 366.26,-278.59 373.49,-270.85 367.09,-268.03"/>
</a>
</g>
</g>
<!-- Node13 -->
<g id="Node000013" class="node">
<title>Node13</title>
<g id="a_Node000013"><a xlink:href="_pi_logger_8h.html" target="_top" xlink:title=" ">
<polygon fill="white" stroke="#666666" points="703.5,-244 581.75,-244 581.75,-224 703.5,-224 703.5,-244"/>
<text text-anchor="middle" x="642.62" y="-230.5" font-family="Helvetica,sans-Serif" font-size="10.00">ExoCode/src/PiLogger.h</text>
</a>
</g>
</g>
<!-- Node3&#45;&gt;Node13 -->
<g id="edge17_Node000003_Node000013" class="edge">
<title>Node3&#45;&gt;Node13</title>
<g id="a_edge17_Node000003_Node000013"><a xlink:title=" ">
<path fill="none" stroke="#63b8ff" d="M422.26,-277.5C473.3,-267.66 545.87,-253.66 593.59,-244.46"/>
<polygon fill="#63b8ff" stroke="#63b8ff" points="421.87,-274.2 412.72,-279.53 423.2,-281.08 421.87,-274.2"/>
</a>
</g>
</g>
<!-- Node14 -->
<g id="Node000014" class="node">
<title>Node14</title>
<g id="a_Node000014"><a xlink:href="error__types_8h.html" target="_top" xlink:title=" ">
<polygon fill="white" stroke="#666666" points="315.75,-244 183.5,-244 183.5,-224 315.75,-224 315.75,-244"/>
<text text-anchor="middle" x="249.62" y="-230.5" font-family="Helvetica,sans-Serif" font-size="10.00">ExoCode/src/error_types.h</text>
</a>
</g>
</g>
<!-- Node3&#45;&gt;Node14 -->
<g id="edge19_Node000003_Node000014" class="edge">
<title>Node3&#45;&gt;Node14</title>
<g id="a_edge19_Node000003_Node000014"><a xlink:title=" ">
<path fill="none" stroke="#63b8ff" d="M333.07,-274.88C313.02,-265.3 287.06,-252.89 269.46,-244.48"/>
<polygon fill="#63b8ff" stroke="#63b8ff" points="331.41,-278.44 341.94,-279.59 334.43,-272.12 331.41,-278.44"/>
</a>
</g>
</g>
<!-- Node4&#45;&gt;Node2 -->
<g id="edge4_Node000004_Node000002" class="edge">
<title>Node4&#45;&gt;Node2</title>
<g id="a_edge4_Node000004_Node000002"><a xlink:title=" ">
<path fill="none" stroke="#63b8ff" d="M87.58,-214.58C83.03,-206.71 78.31,-197.22 75.62,-188 70.06,-168.87 69.78,-145.32 70.15,-132.47"/>
<polygon fill="#63b8ff" stroke="#63b8ff" points="85.05,-216.15 93.27,-222.84 91.01,-212.48 85.05,-216.15"/>
</a>
</g>
</g>
<!-- Node6&#45;&gt;Node5 -->
<g id="edge7_Node000006_Node000005" class="edge">
<title>Node6&#45;&gt;Node5</title>
<g id="a_edge7_Node000006_Node000005"><a xlink:title=" ">
<path fill="none" stroke="#63b8ff" d="M447.37,-220.31C417.22,-210.56 376.27,-197.32 348.94,-188.48"/>
<polygon fill="#63b8ff" stroke="#63b8ff" points="445.94,-223.85 456.54,-223.59 448.1,-217.19 445.94,-223.85"/>
</a>
</g>
</g>
<!-- Node7 -->
<g id="Node000007" class="node">
<title>Node7</title>
<g id="a_Node000007"><a xlink:href="_params_from_s_d_8cpp.html" target="_top" xlink:title=" ">
<polygon fill="white" stroke="#666666" points="738.5,-188 574.75,-188 574.75,-168 738.5,-168 738.5,-188"/>
<text text-anchor="middle" x="656.62" y="-174.5" font-family="Helvetica,sans-Serif" font-size="10.00">ExoCode/src/ParamsFromSD.cpp</text>
</a>
</g>
</g>
<!-- Node6&#45;&gt;Node7 -->
<g id="edge8_Node000006_Node000007" class="edge">
<title>Node6&#45;&gt;Node7</title>
<g id="a_edge8_Node000006_Node000007"><a xlink:title=" ">
<path fill="none" stroke="#63b8ff" d="M526.59,-220.31C557.27,-210.56 598.96,-197.32 626.78,-188.48"/>
<polygon fill="#63b8ff" stroke="#63b8ff" points="525.71,-217.23 517.24,-223.59 527.83,-223.9 525.71,-217.23"/>
</a>
</g>
</g>
<!-- Node6&#45;&gt;Node8 -->
<g id="edge9_Node000006_Node000008" class="edge">
<title>Node6&#45;&gt;Node8</title>
<g id="a_edge9_Node000006_Node000008"><a xlink:title=" ">
<path fill="none" stroke="#63b8ff" d="M574.14,-222.55C644.8,-213.35 734.57,-199.65 747.62,-188 763.77,-173.6 766.52,-146.32 766.79,-132.11"/>
<polygon fill="#63b8ff" stroke="#63b8ff" points="573.89,-219.18 564.42,-223.93 574.78,-226.12 573.89,-219.18"/>
</a>
</g>
</g>
<!-- Node6&#45;&gt;Node11 -->
<g id="edge13_Node000006_Node000011" class="edge">
<title>Node6&#45;&gt;Node11</title>
<g id="a_edge13_Node000006_Node000011"><a xlink:title=" ">
<path fill="none" stroke="#63b8ff" d="M484,-212.71C482.91,-204.32 481.7,-195.01 480.83,-188.3"/>
<polygon fill="#63b8ff" stroke="#63b8ff" points="480.65,-213.13 485.41,-222.59 487.59,-212.23 480.65,-213.13"/>
</a>
</g>
</g>
<!-- Node9 -->
<g id="Node000009" class="node">
<title>Node9</title>
<g id="a_Node000009"><a xlink:href="_ble_parser_8cpp.html" target="_top" xlink:title=" ">
<polygon fill="white" stroke="#666666" points="834,-20 697.25,-20 697.25,0 834,0 834,-20"/>
<text text-anchor="middle" x="765.62" y="-6.5" font-family="Helvetica,sans-Serif" font-size="10.00">ExoCode/src/BleParser.cpp</text>
</a>
</g>
</g>
<!-- Node8&#45;&gt;Node9 -->
<g id="edge10_Node000008_Node000009" class="edge">
<title>Node8&#45;&gt;Node9</title>
<g id="a_edge10_Node000008_Node000009"><a xlink:title=" ">
<path fill="none" stroke="#63b8ff" d="M752.66,-102.84C747.49,-95.02 742.26,-85.51 739.62,-76 733.98,-55.62 748.02,-32.92 757.59,-20.46"/>
<polygon fill="#63b8ff" stroke="#63b8ff" points="750.32,-104.58 758.97,-110.7 756.02,-100.52 750.32,-104.58"/>
</a>
</g>
</g>
<!-- Node10 -->
<g id="Node000010" class="node">
<title>Node10</title>
<g id="a_Node000010"><a xlink:href="_ble_parser_8h.html" target="_top" xlink:title="This class is used to serialize and deserialize the BLE data. The application uses Nordic&#39;s UART serv...">
<polygon fill="white" stroke="#666666" points="874.75,-76 748.5,-76 748.5,-56 874.75,-56 874.75,-76"/>
<text text-anchor="middle" x="811.62" y="-62.5" font-family="Helvetica,sans-Serif" font-size="10.00">ExoCode/src/BleParser.h</text>
</a>
</g>
</g>
<!-- Node8&#45;&gt;Node10 -->
<g id="edge11_Node000008_Node000010" class="edge">
<title>Node8&#45;&gt;Node10</title>
<g id="a_edge11_Node000008_Node000010"><a xlink:title=" ">
<path fill="none" stroke="#63b8ff" d="M781.39,-103.29C788.89,-94.28 797.71,-83.7 803.88,-76.3"/>
<polygon fill="#63b8ff" stroke="#63b8ff" points="778.18,-100.67 774.46,-110.59 783.55,-105.15 778.18,-100.67"/>
</a>
</g>
</g>
<!-- Node10&#45;&gt;Node9 -->
<g id="edge12_Node000010_Node000009" class="edge">
<title>Node10&#45;&gt;Node9</title>
<g id="a_edge12_Node000010_Node000009"><a xlink:title=" ">
<path fill="none" stroke="#63b8ff" d="M796.54,-47.29C788.86,-38.28 779.85,-27.7 773.55,-20.3"/>
<polygon fill="#63b8ff" stroke="#63b8ff" points="794.46,-49.25 803.61,-54.59 799.79,-44.71 794.46,-49.25"/>
</a>
</g>
</g>
<!-- Node11&#45;&gt;Node2 -->
<g id="edge14_Node000011_Node000002" class="edge">
<title>Node11&#45;&gt;Node2</title>
<g id="a_edge14_Node000011_Node000002"><a xlink:title=" ">
<path fill="none" stroke="#63b8ff" d="M397.11,-166.11C322.14,-156.21 212.7,-141.76 141.57,-132.37"/>
<polygon fill="#63b8ff" stroke="#63b8ff" points="396.54,-169.69 406.91,-167.53 397.46,-162.75 396.54,-169.69"/>
</a>
</g>
</g>
<!-- Node11&#45;&gt;Node8 -->
<g id="edge16_Node000011_Node000008" class="edge">
<title>Node11&#45;&gt;Node8</title>
<g id="a_edge16_Node000011_Node000008"><a xlink:title=" ">
<path fill="none" stroke="#63b8ff" d="M540.76,-165.5C593.07,-155.66 667.45,-141.66 716.36,-132.46"/>
<polygon fill="#63b8ff" stroke="#63b8ff" points="540.13,-162.24 530.95,-167.53 541.42,-169.12 540.13,-162.24"/>
</a>
</g>
</g>
<!-- Node12 -->
<g id="Node000012" class="node">
<title>Node12</title>
<g id="a_Node000012"><a xlink:href="_exo_8cpp.html" target="_top" xlink:title=" ">
<polygon fill="white" stroke="#666666" points="535.25,-132 424,-132 424,-112 535.25,-112 535.25,-132"/>
<text text-anchor="middle" x="479.62" y="-118.5" font-family="Helvetica,sans-Serif" font-size="10.00">ExoCode/src/Exo.cpp</text>
</a>
</g>
</g>
<!-- Node11&#45;&gt;Node12 -->
<g id="edge15_Node000011_Node000012" class="edge">
<title>Node11&#45;&gt;Node12</title>
<g id="a_edge15_Node000011_Node000012"><a xlink:title=" ">
<path fill="none" stroke="#63b8ff" d="M479.62,-156.71C479.62,-148.32 479.62,-139.01 479.62,-132.3"/>
<polygon fill="#63b8ff" stroke="#63b8ff" points="476.13,-156.59 479.62,-166.59 483.13,-156.59 476.13,-156.59"/>
</a>
</g>
</g>
<!-- Node14&#45;&gt;Node2 -->
<g id="edge20_Node000014_Node000002" class="edge">
<title>Node14&#45;&gt;Node2</title>
<g id="a_edge20_Node000014_Node000002"><a xlink:title=" ">
<path fill="none" stroke="#63b8ff" d="M177.57,-220.81C153.77,-214.12 128.37,-203.81 108.62,-188 90.06,-173.13 78.68,-146.55 73.66,-132.43"/>
<polygon fill="#63b8ff" stroke="#63b8ff" points="176.44,-224.4 187,-223.56 178.22,-217.63 176.44,-224.4"/>
</a>
</g>
</g>
<!-- Node14&#45;&gt;Node5 -->
<g id="edge21_Node000014_Node000005" class="edge">
<title>Node14&#45;&gt;Node5</title>
<g id="a_edge21_Node000014_Node000005"><a xlink:title=" ">
<path fill="none" stroke="#63b8ff" d="M270.42,-216.95C282.53,-207.61 297.38,-196.16 307.57,-188.3"/>
<polygon fill="#63b8ff" stroke="#63b8ff" points="268.6,-214.71 262.82,-223.59 272.87,-220.26 268.6,-214.71"/>
</a>
</g>
</g>
<!-- Node15 -->
<g id="Node000015" class="node">
<title>Node15</title>
<g id="a_Node000015"><a xlink:href="_motor_8cpp.html" target="_top" xlink:title=" ">
<polygon fill="white" stroke="#666666" points="236,-188 117.25,-188 117.25,-168 236,-168 236,-188"/>
<text text-anchor="middle" x="176.62" y="-174.5" font-family="Helvetica,sans-Serif" font-size="10.00">ExoCode/src/Motor.cpp</text>
</a>
</g>
</g>
<!-- Node14&#45;&gt;Node15 -->
<g id="edge22_Node000014_Node000015" class="edge">
<title>Node14&#45;&gt;Node15</title>
<g id="a_edge22_Node000014_Node000015"><a xlink:title=" ">
<path fill="none" stroke="#63b8ff" d="M228.31,-217.23C215.61,-207.84 199.93,-196.24 189.19,-188.3"/>
<polygon fill="#63b8ff" stroke="#63b8ff" points="225.79,-220.46 235.91,-223.59 229.95,-214.83 225.79,-220.46"/>
</a>
</g>
</g>
</g>
</svg>
