<?xml version="1.0" encoding="UTF-8" standalone="no"?>
<!DOCTYPE svg PUBLIC "-//W3C//DTD SVG 1.1//EN"
 "http://www.w3.org/Graphics/SVG/1.1/DTD/svg11.dtd">
<!-- Generated by graphviz version 8.1.0 (20230707.0739)
 -->
<!-- Title: ExoCode/src/StatusDefs.h Pages: 1 -->
<svg width="928pt" height="420pt"
 viewBox="0.00 0.00 927.75 420.00" xmlns="http://www.w3.org/2000/svg" xmlns:xlink="http://www.w3.org/1999/xlink">
<g id="graph0" class="graph" transform="scale(1 1) rotate(0) translate(4 416)">
<title>ExoCode/src/StatusDefs.h</title>
<!-- Node1 -->
<g id="Node000001" class="node">
<title>Node1</title>
<g id="a_Node000001"><a xlink:title="Stores the different status messages for the system.">
<polygon fill="#999999" stroke="#666666" points="657.5,-412 526,-412 526,-392 657.5,-392 657.5,-412"/>
<text text-anchor="middle" x="591.75" y="-398.5" font-family="Helvetica,sans-Serif" font-size="10.00">ExoCode/src/StatusDefs.h</text>
</a>
</g>
</g>
<!-- Node2 -->
<g id="Node000002" class="node">
<title>Node2</title>
<g id="a_Node000002"><a xlink:href="_coms_m_c_u_8cpp.html" target="_top" xlink:title=" ">
<polygon fill="white" stroke="#666666" points="899.38,-132 758.12,-132 758.12,-112 899.38,-112 899.38,-132"/>
<text text-anchor="middle" x="828.75" y="-118.5" font-family="Helvetica,sans-Serif" font-size="10.00">ExoCode/src/ComsMCU.cpp</text>
</a>
</g>
</g>
<!-- Node1&#45;&gt;Node2 -->
<g id="edge1_Node000001_Node000002" class="edge">
<title>Node1&#45;&gt;Node2</title>
<g id="a_edge1_Node000001_Node000002"><a xlink:title=" ">
<path fill="none" stroke="#63b8ff" d="M668.38,-390.89C765.31,-375.9 919.75,-343.75 919.75,-291 919.75,-291 919.75,-291 919.75,-233 919.75,-186.4 870.67,-148.92 844.6,-132.3"/>
<polygon fill="#63b8ff" stroke="#63b8ff" points="668.09,-387.54 658.73,-392.5 669.14,-394.46 668.09,-387.54"/>
</a>
</g>
</g>
<!-- Node3 -->
<g id="Node000003" class="node">
<title>Node3</title>
<g id="a_Node000003"><a xlink:href="_exo_data_8h.html" target="_top" xlink:title="Declares a class used to store data for the Exo to access.">
<polygon fill="white" stroke="#666666" points="560.25,-300 439.25,-300 439.25,-280 560.25,-280 560.25,-300"/>
<text text-anchor="middle" x="499.75" y="-286.5" font-family="Helvetica,sans-Serif" font-size="10.00">ExoCode/src/ExoData.h</text>
</a>
</g>
</g>
<!-- Node1&#45;&gt;Node3 -->
<g id="edge2_Node000001_Node000003" class="edge">
<title>Node1&#45;&gt;Node3</title>
<g id="a_edge2_Node000001_Node000003"><a xlink:title=" ">
<path fill="none" stroke="#63b8ff" d="M557.68,-386.7C543.84,-379.36 528.77,-369.15 518.75,-356 505.92,-339.17 501.74,-313.87 500.39,-300.34"/>
<polygon fill="#63b8ff" stroke="#63b8ff" points="555.94,-390.24 566.46,-391.55 559.05,-383.97 555.94,-390.24"/>
</a>
</g>
</g>
<!-- Node8 -->
<g id="Node000008" class="node">
<title>Node8</title>
<g id="a_Node000008"><a xlink:href="ble__commands_8h.html" target="_top" xlink:title="This file declares the BLE commands, and the functions that should be called when they are received.">
<polygon fill="white" stroke="#666666" points="149.5,-132 0,-132 0,-112 149.5,-112 149.5,-132"/>
<text text-anchor="middle" x="74.75" y="-118.5" font-family="Helvetica,sans-Serif" font-size="10.00">ExoCode/src/ble_commands.h</text>
</a>
</g>
</g>
<!-- Node1&#45;&gt;Node8 -->
<g id="edge28_Node000001_Node000008" class="edge">
<title>Node1&#45;&gt;Node8</title>
<g id="a_edge28_Node000001_Node000008"><a xlink:title=" ">
<path fill="none" stroke="#63b8ff" d="M514.97,-401.57C362.64,-400.63 36.75,-387.35 36.75,-291 36.75,-291 36.75,-291 36.75,-233 36.75,-193.8 58.57,-150.84 69.14,-132.33"/>
<polygon fill="#63b8ff" stroke="#63b8ff" points="514.61,-405.07 524.63,-401.62 514.65,-398.07 514.61,-405.07"/>
</a>
</g>
</g>
<!-- Node16 -->
<g id="Node000016" class="node">
<title>Node16</title>
<g id="a_Node000016"><a xlink:href="_status_defs_8cpp.html" target="_top" xlink:title=" ">
<polygon fill="white" stroke="#666666" points="815.75,-356 673.75,-356 673.75,-336 815.75,-336 815.75,-356"/>
<text text-anchor="middle" x="744.75" y="-342.5" font-family="Helvetica,sans-Serif" font-size="10.00">ExoCode/src/StatusDefs.cpp</text>
</a>
</g>
</g>
<!-- Node1&#45;&gt;Node16 -->
<g id="edge24_Node000001_Node000016" class="edge">
<title>Node1&#45;&gt;Node16</title>
<g id="a_edge24_Node000001_Node000016"><a xlink:title=" ">
<path fill="none" stroke="#63b8ff" d="M628.44,-388.05C655.99,-378.33 693.07,-365.24 717.89,-356.48"/>
<polygon fill="#63b8ff" stroke="#63b8ff" points="627.67,-384.97 619.4,-391.59 630,-391.57 627.67,-384.97"/>
</a>
</g>
</g>
<!-- Node17 -->
<g id="Node000017" class="node">
<title>Node17</title>
<g id="a_Node000017"><a xlink:href="_status_led_8h.html" target="_top" xlink:title="Class to set an RGB LED to different colors based on the state of the system.">
<polygon fill="white" stroke="#666666" points="655.62,-356 527.88,-356 527.88,-336 655.62,-336 655.62,-356"/>
<text text-anchor="middle" x="591.75" y="-342.5" font-family="Helvetica,sans-Serif" font-size="10.00">ExoCode/src/StatusLed.h</text>
</a>
</g>
</g>
<!-- Node1&#45;&gt;Node17 -->
<g id="edge25_Node000001_Node000017" class="edge">
<title>Node1&#45;&gt;Node17</title>
<g id="a_edge25_Node000001_Node000017"><a xlink:title=" ">
<path fill="none" stroke="#63b8ff" d="M591.75,-380.71C591.75,-372.32 591.75,-363.01 591.75,-356.3"/>
<polygon fill="#63b8ff" stroke="#63b8ff" points="588.25,-380.59 591.75,-390.59 595.25,-380.59 588.25,-380.59"/>
</a>
</g>
</g>
<!-- Node4 -->
<g id="Node000004" class="node">
<title>Node4</title>
<g id="a_Node000004"><a xlink:href="_coms_m_c_u_8h.html" target="_top" xlink:title="The top of the composite structure for the communication microcontroller. This class manages the blue...">
<polygon fill="white" stroke="#666666" points="854.12,-244 723.38,-244 723.38,-224 854.12,-224 854.12,-244"/>
<text text-anchor="middle" x="788.75" y="-230.5" font-family="Helvetica,sans-Serif" font-size="10.00">ExoCode/src/ComsMCU.h</text>
</a>
</g>
</g>
<!-- Node3&#45;&gt;Node4 -->
<g id="edge3_Node000003_Node000004" class="edge">
<title>Node3&#45;&gt;Node4</title>
<g id="a_edge3_Node000003_Node000004"><a xlink:title=" ">
<path fill="none" stroke="#63b8ff" d="M560.98,-277.56C613.67,-267.71 688.79,-253.68 738.14,-244.46"/>
<polygon fill="#63b8ff" stroke="#63b8ff" points="560.61,-274.25 551.42,-279.53 561.89,-281.14 560.61,-274.25"/>
</a>
</g>
</g>
<!-- Node5 -->
<g id="Node000005" class="node">
<title>Node5</title>
<g id="a_Node000005"><a xlink:href="_exo_data_8cpp.html" target="_top" xlink:title=" ">
<polygon fill="white" stroke="#666666" points="626.5,-188 495,-188 495,-168 626.5,-168 626.5,-188"/>
<text text-anchor="middle" x="560.75" y="-174.5" font-family="Helvetica,sans-Serif" font-size="10.00">ExoCode/src/ExoData.cpp</text>
</a>
</g>
</g>
<!-- Node3&#45;&gt;Node5 -->
<g id="edge5_Node000003_Node000005" class="edge">
<title>Node3&#45;&gt;Node5</title>
<g id="a_edge5_Node000003_Node000005"><a xlink:title=" ">
<path fill="none" stroke="#63b8ff" d="M510.62,-270.48C515.32,-262.38 520.87,-252.75 525.75,-244 536.74,-224.3 549.16,-200.97 555.85,-188.3"/>
<polygon fill="#63b8ff" stroke="#63b8ff" points="507.23,-268.34 505.21,-278.74 513.28,-271.87 507.23,-268.34"/>
</a>
</g>
</g>
<!-- Node6 -->
<g id="Node000006" class="node">
<title>Node6</title>
<g id="a_Node000006"><a xlink:href="_params_from_s_d_8h.html" target="_top" xlink:title="Declares the functions to pull controller parameters from the SD card and defines the mapping to the ...">
<polygon fill="white" stroke="#666666" points="376.38,-244 223.12,-244 223.12,-224 376.38,-224 376.38,-244"/>
<text text-anchor="middle" x="299.75" y="-230.5" font-family="Helvetica,sans-Serif" font-size="10.00">ExoCode/src/ParamsFromSD.h</text>
</a>
</g>
</g>
<!-- Node3&#45;&gt;Node6 -->
<g id="edge6_Node000003_Node000006" class="edge">
<title>Node3&#45;&gt;Node6</title>
<g id="a_edge6_Node000003_Node000006"><a xlink:title=" ">
<path fill="none" stroke="#63b8ff" d="M454.61,-276.81C418.35,-267.02 368.16,-253.47 334.86,-244.48"/>
<polygon fill="#63b8ff" stroke="#63b8ff" points="453.35,-280.37 463.91,-279.59 455.17,-273.61 453.35,-280.37"/>
</a>
</g>
</g>
<!-- Node3&#45;&gt;Node8 -->
<g id="edge18_Node000003_Node000008" class="edge">
<title>Node3&#45;&gt;Node8</title>
<g id="a_edge18_Node000003_Node000008"><a xlink:title=" ">
<path fill="none" stroke="#63b8ff" d="M428.31,-285.55C367.02,-280.87 277.1,-269.86 202.75,-244 155.37,-227.52 138.65,-224.98 104.75,-188 89.63,-171.51 80.94,-146.07 77.11,-132.42"/>
<polygon fill="#63b8ff" stroke="#63b8ff" points="427.8,-289.1 438.03,-286.33 428.3,-282.11 427.8,-289.1"/>
</a>
</g>
</g>
<!-- Node11 -->
<g id="Node000011" class="node">
<title>Node11</title>
<g id="a_Node000011"><a xlink:href="uart__commands_8h.html" target="_top" xlink:title=" ">
<polygon fill="white" stroke="#666666" points="294.38,-188 141.12,-188 141.12,-168 294.38,-168 294.38,-188"/>
<text text-anchor="middle" x="217.75" y="-174.5" font-family="Helvetica,sans-Serif" font-size="10.00">ExoCode/src/uart_commands.h</text>
</a>
</g>
</g>
<!-- Node3&#45;&gt;Node11 -->
<g id="edge23_Node000003_Node000011" class="edge">
<title>Node3&#45;&gt;Node11</title>
<g id="a_edge23_Node000003_Node000011"><a xlink:title=" ">
<path fill="none" stroke="#63b8ff" d="M428.07,-287.96C352.53,-285.17 240.8,-275.63 213.75,-244 200.38,-228.36 208.04,-202.1 213.59,-188.23"/>
<polygon fill="#63b8ff" stroke="#63b8ff" points="427.83,-291.49 437.94,-288.33 428.06,-284.49 427.83,-291.49"/>
</a>
</g>
</g>
<!-- Node13 -->
<g id="Node000013" class="node">
<title>Node13</title>
<g id="a_Node000013"><a xlink:href="_pi_logger_8h.html" target="_top" xlink:title=" ">
<polygon fill="white" stroke="#666666" points="516.62,-244 394.88,-244 394.88,-224 516.62,-224 516.62,-244"/>
<text text-anchor="middle" x="455.75" y="-230.5" font-family="Helvetica,sans-Serif" font-size="10.00">ExoCode/src/PiLogger.h</text>
</a>
</g>
</g>
<!-- Node3&#45;&gt;Node13 -->
<g id="edge17_Node000003_Node000013" class="edge">
<title>Node3&#45;&gt;Node13</title>
<g id="a_edge17_Node000003_Node000013"><a xlink:title=" ">
<path fill="none" stroke="#63b8ff" d="M485.32,-271.29C477.98,-262.28 469.36,-251.7 463.33,-244.3"/>
<polygon fill="#63b8ff" stroke="#63b8ff" points="483.06,-273.05 492.09,-278.59 488.48,-268.63 483.06,-273.05"/>
</a>
</g>
</g>
<!-- Node14 -->
<g id="Node000014" class="node">
<title>Node14</title>
<g id="a_Node000014"><a xlink:href="error__types_8h.html" target="_top" xlink:title=" ">
<polygon fill="white" stroke="#666666" points="704.88,-244 572.62,-244 572.62,-224 704.88,-224 704.88,-244"/>
<text text-anchor="middle" x="638.75" y="-230.5" font-family="Helvetica,sans-Serif" font-size="10.00">ExoCode/src/error_types.h</text>
</a>
</g>
</g>
<!-- Node3&#45;&gt;Node14 -->
<g id="edge19_Node000003_Node000014" class="edge">
<title>Node3&#45;&gt;Node14</title>
<g id="a_edge19_Node000003_Node000014"><a xlink:title=" ">
<path fill="none" stroke="#63b8ff" d="M534.08,-275.66C559,-265.98 592.1,-253.12 614.35,-244.48"/>
<polygon fill="#63b8ff" stroke="#63b8ff" points="533.02,-272.71 524.96,-279.59 535.55,-279.24 533.02,-272.71"/>
</a>
</g>
</g>
<!-- Node4&#45;&gt;Node2 -->
<g id="edge4_Node000004_Node000002" class="edge">
<title>Node4&#45;&gt;Node2</title>
<g id="a_edge4_Node000004_Node000002"><a xlink:title=" ">
<path fill="none" stroke="#63b8ff" d="M795.91,-213.3C804.59,-189.43 818.86,-150.2 825.35,-132.35"/>
<polygon fill="#63b8ff" stroke="#63b8ff" points="792.29,-212.03 792.16,-222.62 798.87,-214.42 792.29,-212.03"/>
</a>
</g>
</g>
<!-- Node6&#45;&gt;Node5 -->
<g id="edge7_Node000006_Node000005" class="edge">
<title>Node6&#45;&gt;Node5</title>
<g id="a_edge7_Node000006_Node000005"><a xlink:title=" ">
<path fill="none" stroke="#63b8ff" d="M356.24,-221.31C403.76,-211.48 470.84,-197.6 515.04,-188.46"/>
<polygon fill="#63b8ff" stroke="#63b8ff" points="355.59,-218.08 346.51,-223.53 357.01,-224.93 355.59,-218.08"/>
</a>
</g>
</g>
<!-- Node7 -->
<g id="Node000007" class="node">
<title>Node7</title>
<g id="a_Node000007"><a xlink:href="_params_from_s_d_8cpp.html" target="_top" xlink:title=" ">
<polygon fill="white" stroke="#666666" points="476.62,-188 312.88,-188 312.88,-168 476.62,-168 476.62,-188"/>
<text text-anchor="middle" x="394.75" y="-174.5" font-family="Helvetica,sans-Serif" font-size="10.00">ExoCode/src/ParamsFromSD.cpp</text>
</a>
</g>
</g>
<!-- Node6&#45;&gt;Node7 -->
<g id="edge8_Node000006_Node000007" class="edge">
<title>Node6&#45;&gt;Node7</title>
<g id="a_edge8_Node000006_Node000007"><a xlink:title=" ">
<path fill="none" stroke="#63b8ff" d="M325.53,-218.35C342.25,-208.84 363.55,-196.74 378.07,-188.48"/>
<polygon fill="#63b8ff" stroke="#63b8ff" points="324.26,-215.61 317.3,-223.59 327.72,-221.69 324.26,-215.61"/>
</a>
</g>
</g>
<!-- Node6&#45;&gt;Node8 -->
<g id="edge9_Node000006_Node000008" class="edge">
<title>Node6&#45;&gt;Node8</title>
<g id="a_edge9_Node000006_Node000008"><a xlink:title=" ">
<path fill="none" stroke="#63b8ff" d="M218.12,-221.21C189.32,-214.52 157.67,-204.12 131.75,-188 108.3,-173.42 89.11,-146.22 80.17,-132.07"/>
<polygon fill="#63b8ff" stroke="#63b8ff" points="217.07,-224.79 227.59,-223.51 218.58,-217.95 217.07,-224.79"/>
</a>
</g>
</g>
<!-- Node6&#45;&gt;Node11 -->
<g id="edge13_Node000006_Node000011" class="edge">
<title>Node6&#45;&gt;Node11</title>
<g id="a_edge13_Node000006_Node000011"><a xlink:title=" ">
<path fill="none" stroke="#63b8ff" d="M276.69,-217.81C262.38,-208.39 244.45,-196.58 232.14,-188.48"/>
<polygon fill="#63b8ff" stroke="#63b8ff" points="274.19,-221.02 284.47,-223.59 278.04,-215.17 274.19,-221.02"/>
</a>
</g>
</g>
<!-- Node9 -->
<g id="Node000009" class="node">
<title>Node9</title>
<g id="a_Node000009"><a xlink:href="_ble_parser_8cpp.html" target="_top" xlink:title=" ">
<polygon fill="white" stroke="#666666" points="143.12,-20 6.38,-20 6.38,0 143.12,0 143.12,-20"/>
<text text-anchor="middle" x="74.75" y="-6.5" font-family="Helvetica,sans-Serif" font-size="10.00">ExoCode/src/BleParser.cpp</text>
</a>
</g>
</g>
<!-- Node8&#45;&gt;Node9 -->
<g id="edge10_Node000008_Node000009" class="edge">
<title>Node8&#45;&gt;Node9</title>
<g id="a_edge10_Node000008_Node000009"><a xlink:title=" ">
<path fill="none" stroke="#63b8ff" d="M61.3,-102.77C56.32,-94.94 51.28,-85.44 48.75,-76 43.27,-55.57 57.25,-32.89 66.77,-20.45"/>
<polygon fill="#63b8ff" stroke="#63b8ff" points="58.84,-104.37 67.37,-110.65 64.62,-100.42 58.84,-104.37"/>
</a>
</g>
</g>
<!-- Node10 -->
<g id="Node000010" class="node">
<title>Node10</title>
<g id="a_Node000010"><a xlink:href="_ble_parser_8h.html" target="_top" xlink:title="This class is used to serialize and deserialize the BLE data. The application uses Nordic&#39;s UART serv...">
<polygon fill="white" stroke="#666666" points="183.88,-76 57.62,-76 57.62,-56 183.88,-56 183.88,-76"/>
<text text-anchor="middle" x="120.75" y="-62.5" font-family="Helvetica,sans-Serif" font-size="10.00">ExoCode/src/BleParser.h</text>
</a>
</g>
</g>
<!-- Node8&#45;&gt;Node10 -->
<g id="edge11_Node000008_Node000010" class="edge">
<title>Node8&#45;&gt;Node10</title>
<g id="a_edge11_Node000008_Node000010"><a xlink:title=" ">
<path fill="none" stroke="#63b8ff" d="M89.84,-103.29C97.51,-94.28 106.52,-83.7 112.83,-76.3"/>
<polygon fill="#63b8ff" stroke="#63b8ff" points="86.58,-100.71 82.76,-110.59 91.91,-105.25 86.58,-100.71"/>
</a>
</g>
</g>
<!-- Node10&#45;&gt;Node9 -->
<g id="edge12_Node000010_Node000009" class="edge">
<title>Node10&#45;&gt;Node9</title>
<g id="a_edge12_Node000010_Node000009"><a xlink:title=" ">
<path fill="none" stroke="#63b8ff" d="M105.66,-47.29C97.99,-38.28 88.98,-27.7 82.67,-20.3"/>
<polygon fill="#63b8ff" stroke="#63b8ff" points="103.59,-49.25 112.74,-54.59 108.92,-44.71 103.59,-49.25"/>
</a>
</g>
</g>
<!-- Node11&#45;&gt;Node2 -->
<g id="edge14_Node000011_Node000002" class="edge">
<title>Node11&#45;&gt;Node2</title>
<g id="a_edge14_Node000011_Node000002"><a xlink:title=" ">
<path fill="none" stroke="#63b8ff" d="M305.46,-167.85C474.05,-151.89 659,-136.63 757.81,-128.66"/>
<polygon fill="#63b8ff" stroke="#63b8ff" points="305.26,-164.45 295.64,-168.88 305.92,-171.42 305.26,-164.45"/>
</a>
</g>
</g>
<!-- Node11&#45;&gt;Node8 -->
<g id="edge16_Node000011_Node000008" class="edge">
<title>Node11&#45;&gt;Node8</title>
<g id="a_edge16_Node000011_Node000008"><a xlink:title=" ">
<path fill="none" stroke="#63b8ff" d="M182.77,-163.79C157.1,-154.1 122.84,-141.16 99.85,-132.48"/>
<polygon fill="#63b8ff" stroke="#63b8ff" points="181.25,-167.34 191.84,-167.59 183.72,-160.79 181.25,-167.34"/>
</a>
</g>
</g>
<!-- Node12 -->
<g id="Node000012" class="node">
<title>Node12</title>
<g id="a_Node000012"><a xlink:href="_exo_8cpp.html" target="_top" xlink:title=" ">
<polygon fill="white" stroke="#666666" points="278.38,-132 167.12,-132 167.12,-112 278.38,-112 278.38,-132"/>
<text text-anchor="middle" x="222.75" y="-118.5" font-family="Helvetica,sans-Serif" font-size="10.00">ExoCode/src/Exo.cpp</text>
</a>
</g>
</g>
<!-- Node11&#45;&gt;Node12 -->
<g id="edge15_Node000011_Node000012" class="edge">
<title>Node11&#45;&gt;Node12</title>
<g id="a_edge15_Node000011_Node000012"><a xlink:title=" ">
<path fill="none" stroke="#63b8ff" d="M219.63,-156.71C220.41,-148.32 221.27,-139.01 221.89,-132.3"/>
<polygon fill="#63b8ff" stroke="#63b8ff" points="216.06,-156.31 218.62,-166.59 223.03,-156.96 216.06,-156.31"/>
</a>
</g>
</g>
<!-- Node14&#45;&gt;Node2 -->
<g id="edge20_Node000014_Node000002" class="edge">
<title>Node14&#45;&gt;Node2</title>
<g id="a_edge20_Node000014_Node000002"><a xlink:title=" ">
<path fill="none" stroke="#63b8ff" d="M695.81,-220.77C720.53,-213.75 748.95,-203.22 771.75,-188 794.47,-172.83 813.69,-146.38 822.91,-132.35"/>
<polygon fill="#63b8ff" stroke="#63b8ff" points="695.21,-217.58 686.47,-223.57 697.04,-224.34 695.21,-217.58"/>
</a>
</g>
</g>
<!-- Node14&#45;&gt;Node5 -->
<g id="edge21_Node000014_Node000005" class="edge">
<title>Node14&#45;&gt;Node5</title>
<g id="a_edge21_Node000014_Node000005"><a xlink:title=" ">
<path fill="none" stroke="#63b8ff" d="M616.42,-217.54C602.88,-208.17 586.04,-196.51 574.44,-188.48"/>
<polygon fill="#63b8ff" stroke="#63b8ff" points="613.95,-220.78 624.16,-223.59 617.93,-215.02 613.95,-220.78"/>
</a>
</g>
</g>
<!-- Node15 -->
<g id="Node000015" class="node">
<title>Node15</title>
<g id="a_Node000015"><a xlink:href="_motor_8cpp.html" target="_top" xlink:title=" ">
<polygon fill="white" stroke="#666666" points="763.12,-188 644.38,-188 644.38,-168 763.12,-168 763.12,-188"/>
<text text-anchor="middle" x="703.75" y="-174.5" font-family="Helvetica,sans-Serif" font-size="10.00">ExoCode/src/Motor.cpp</text>
</a>
</g>
</g>
<!-- Node14&#45;&gt;Node15 -->
<g id="edge22_Node000014_Node000015" class="edge">
<title>Node14&#45;&gt;Node15</title>
<g id="a_edge22_Node000014_Node000015"><a xlink:title=" ">
<path fill="none" stroke="#63b8ff" d="M658.39,-216.68C669.58,-207.39 683.18,-196.09 692.56,-188.3"/>
<polygon fill="#63b8ff" stroke="#63b8ff" points="656.53,-214.51 651.07,-223.59 661,-219.9 656.53,-214.51"/>
</a>
</g>
</g>
<!-- Node17&#45;&gt;Node2 -->
<g id="edge26_Node000017_Node000002" class="edge">
<title>Node17&#45;&gt;Node2</title>
<g id="a_edge26_Node000017_Node000002"><a xlink:title=" ">
<path fill="none" stroke="#63b8ff" d="M644.1,-332.98C715.41,-315.42 837.18,-280.82 862.75,-244 887.77,-207.98 852.54,-153.93 836.25,-132.37"/>
<polygon fill="#63b8ff" stroke="#63b8ff" points="643.42,-329.78 634.53,-335.55 645.08,-336.59 643.42,-329.78"/>
</a>
</g>
</g>
<!-- Node17&#45;&gt;Node3 -->
<g id="edge27_Node000017_Node000003" class="edge">
<title>Node17&#45;&gt;Node3</title>
<g id="a_edge27_Node000017_Node000003"><a xlink:title=" ">
<path fill="none" stroke="#63b8ff" d="M566.33,-330.08C550.21,-320.62 529.84,-308.66 515.9,-300.48"/>
<polygon fill="#63b8ff" stroke="#63b8ff" points="564.33,-333.55 574.72,-335.59 567.87,-327.51 564.33,-333.55"/>
</a>
</g>
</g>
</g>
</svg>
