<?xml version="1.0" encoding="UTF-8" standalone="no"?>
<!DOCTYPE svg PUBLIC "-//W3C//DTD SVG 1.1//EN"
 "http://www.w3.org/Graphics/SVG/1.1/DTD/svg11.dtd">
<!-- Generated by graphviz version 8.1.0 (20230707.0739)
 -->
<!-- Title: ExoCode/src/StatusDefs.cpp Pages: 1 -->
<svg width="252pt" height="252pt"
 viewBox="0.00 0.00 251.62 252.00" xmlns="http://www.w3.org/2000/svg" xmlns:xlink="http://www.w3.org/1999/xlink">

<svg id="main" version="1.1" xmlns="http://www.w3.org/2000/svg" xmlns:xlink="http://www.w3.org/1999/xlink" xml:space="preserve" onload="init(evt)">
<style type="text/css"><![CDATA[
.node, .edge {opacity: 0.7;}
.node.selected, .edge.selected {opacity: 1;}
.edge:hover path { stroke: red; }
.edge:hover polygon { stroke: red; fill: red; }
]]></style>
<script type="application/ecmascript" xlink:href="svg.min.js"/>
<svg id="graph" class="graph">
<g id="graph0" class="graph" transform="scale(1 1) rotate(0) translate(4 248)">
<title>ExoCode/src/StatusDefs.cpp</title>
<!-- Node1 -->
<g id="Node000001" class="node">
<title>Node1</title>
<g id="a_Node000001"><a xlink:title=" ">
<polygon fill="#999999" stroke="#666666" points="142,-244 0,-244 0,-224 142,-224 142,-244"/>
<text text-anchor="middle" x="71" y="-230.5" font-family="Helvetica,sans-Serif" font-size="10.00">ExoCode/src/StatusDefs.cpp</text>
</a>
</g>
</g>
<!-- Node2 -->
<g id="Node000002" class="node">
<title>Node2</title>
<g id="a_Node000002"><a xlink:href="_status_defs_8h.html" target="_top" xlink:title="Stores the different status messages for the system.">
<polygon fill="white" stroke="#666666" points="75.12,-188 2.88,-188 2.88,-168 75.12,-168 75.12,-188"/>
<text text-anchor="middle" x="39" y="-174.5" font-family="Helvetica,sans-Serif" font-size="10.00">StatusDefs.h</text>
</a>
</g>
</g>
<!-- Node1&#45;&gt;Node2 -->
<g id="edge1_Node000001_Node000002" class="edge">
<title>Node1&#45;&gt;Node2</title>
<g id="a_edge1_Node000001_Node000002"><a xlink:title=" ">
<path fill="none" stroke="#63b8ff" d="M65.43,-223.59C61.2,-216.47 55.27,-206.45 50.09,-197.72"/>
<polygon fill="#63b8ff" stroke="#63b8ff" points="52.62,-196.12 44.51,-189.3 46.6,-199.69 52.62,-196.12"/>
</a>
</g>
</g>
<!-- Node7 -->
<g id="Node000007" class="node">
<title>Node7</title>
<g id="a_Node000007"><a xlink:href="_logger_8h.html" target="_top" xlink:title=" ">
<polygon fill="white" stroke="#666666" points="146.75,-132 93.25,-132 93.25,-112 146.75,-112 146.75,-132"/>
<text text-anchor="middle" x="120" y="-118.5" font-family="Helvetica,sans-Serif" font-size="10.00">Logger.h</text>
</a>
</g>
</g>
<!-- Node1&#45;&gt;Node7 -->
<g id="edge8_Node000001_Node000007" class="edge">
<title>Node1&#45;&gt;Node7</title>
<g id="a_edge8_Node000001_Node000007"><a xlink:title=" ">
<path fill="none" stroke="#63b8ff" d="M75.18,-223.62C83.17,-205.68 100.77,-166.17 111.38,-142.35"/>
<polygon fill="#63b8ff" stroke="#63b8ff" points="114.96,-143.91 115.83,-133.35 108.57,-141.07 114.96,-143.91"/>
</a>
</g>
</g>
<!-- Node3 -->
<g id="Node000003" class="node">
<title>Node3</title>
<g id="a_Node000003"><a xlink:title=" ">
<polygon fill="#e0e0e0" stroke="#999999" points="67.62,-20 10.38,-20 10.38,0 67.62,0 67.62,-20"/>
<text text-anchor="middle" x="39" y="-6.5" font-family="Helvetica,sans-Serif" font-size="10.00">Arduino.h</text>
</a>
</g>
</g>
<!-- Node2&#45;&gt;Node3 -->
<g id="edge2_Node000002_Node000003" class="edge">
<title>Node2&#45;&gt;Node3</title>
<g id="a_edge2_Node000002_Node000003"><a xlink:title=" ">
<path fill="none" stroke="#63b8ff" d="M29.07,-167.74C20.83,-159.33 9.73,-146.11 5,-132 -7.03,-96.14 12.82,-53.36 26.9,-29.48"/>
<polygon fill="#63b8ff" stroke="#63b8ff" points="30.35,-31.55 32.64,-21.2 24.4,-27.86 30.35,-31.55"/>
</a>
</g>
</g>
<!-- Node4 -->
<g id="Node000004" class="node">
<title>Node4</title>
<g id="a_Node000004"><a xlink:href="_board_8h.html" target="_top" xlink:title=" ">
<polygon fill="white" stroke="#666666" points="63.88,-132 14.12,-132 14.12,-112 63.88,-112 63.88,-132"/>
<text text-anchor="middle" x="39" y="-118.5" font-family="Helvetica,sans-Serif" font-size="10.00">Board.h</text>
</a>
</g>
</g>
<!-- Node2&#45;&gt;Node4 -->
<g id="edge3_Node000002_Node000004" class="edge">
<title>Node2&#45;&gt;Node4</title>
<g id="a_edge3_Node000002_Node000004"><a xlink:title=" ">
<path fill="none" stroke="#63b8ff" d="M39,-167.59C39,-160.86 39,-151.53 39,-143.15"/>
<polygon fill="#63b8ff" stroke="#63b8ff" points="42.5,-143.3 39,-133.3 35.5,-143.3 42.5,-143.3"/>
</a>
</g>
</g>
<!-- Node4&#45;&gt;Node3 -->
<g id="edge7_Node000004_Node000003" class="edge">
<title>Node4&#45;&gt;Node3</title>
<g id="a_edge7_Node000004_Node000003"><a xlink:title=" ">
<path fill="none" stroke="#63b8ff" d="M36.86,-111.76C34.89,-102.7 32.1,-88.49 31,-76 29.65,-60.74 31.94,-43.53 34.41,-30.66"/>
<polygon fill="#63b8ff" stroke="#63b8ff" points="37.97,-31.75 36.63,-21.24 31.12,-30.29 37.97,-31.75"/>
</a>
</g>
</g>
<!-- Node5 -->
<g id="Node000005" class="node">
<title>Node5</title>
<g id="a_Node000005"><a xlink:href="_config_8h.html" target="_top" xlink:title=" ">
<polygon fill="white" stroke="#666666" points="91.62,-76 40.38,-76 40.38,-56 91.62,-56 91.62,-76"/>
<text text-anchor="middle" x="66" y="-62.5" font-family="Helvetica,sans-Serif" font-size="10.00">Config.h</text>
</a>
</g>
</g>
<!-- Node4&#45;&gt;Node5 -->
<g id="edge4_Node000004_Node000005" class="edge">
<title>Node4&#45;&gt;Node5</title>
<g id="a_edge4_Node000004_Node000005"><a xlink:title=" ">
<path fill="none" stroke="#63b8ff" d="M43.7,-111.59C47.23,-104.55 52.17,-94.67 56.5,-86"/>
<polygon fill="#63b8ff" stroke="#63b8ff" points="60.01,-87.81 61.35,-77.3 53.75,-84.68 60.01,-87.81"/>
</a>
</g>
</g>
<!-- Node5&#45;&gt;Node3 -->
<g id="edge5_Node000005_Node000003" class="edge">
<title>Node5&#45;&gt;Node3</title>
<g id="a_edge5_Node000005_Node000003"><a xlink:title=" ">
<path fill="none" stroke="#63b8ff" d="M61.3,-55.59C57.77,-48.55 52.83,-38.67 48.5,-30"/>
<polygon fill="#63b8ff" stroke="#63b8ff" points="51.25,-28.68 43.65,-21.3 44.99,-31.81 51.25,-28.68"/>
</a>
</g>
</g>
<!-- Node6 -->
<g id="Node000006" class="node">
<title>Node6</title>
<g id="a_Node000006"><a xlink:href="_log_levels_8h.html" target="_top" xlink:title=" ">
<polygon fill="white" stroke="#666666" points="171.5,-20 104.5,-20 104.5,0 171.5,0 171.5,-20"/>
<text text-anchor="middle" x="138" y="-6.5" font-family="Helvetica,sans-Serif" font-size="10.00">LogLevels.h</text>
</a>
</g>
</g>
<!-- Node5&#45;&gt;Node6 -->
<g id="edge6_Node000005_Node000006" class="edge">
<title>Node5&#45;&gt;Node6</title>
<g id="a_edge6_Node000005_Node000006"><a xlink:title=" ">
<path fill="none" stroke="#63b8ff" d="M78.54,-55.59C89.18,-47.62 104.65,-36.02 117.14,-26.64"/>
<polygon fill="#63b8ff" stroke="#63b8ff" points="118.7,-29.1 124.6,-20.3 114.5,-23.5 118.7,-29.1"/>
</a>
</g>
</g>
<!-- Node7&#45;&gt;Node3 -->
<g id="edge9_Node000007_Node000003" class="edge">
<title>Node7&#45;&gt;Node3</title>
<g id="a_edge9_Node000007_Node000003"><a xlink:title=" ">
<path fill="none" stroke="#63b8ff" d="M119.19,-111.79C117.63,-98.41 113.19,-73.3 101,-56 92.36,-43.73 79.29,-33.53 67.37,-25.97"/>
<polygon fill="#63b8ff" stroke="#63b8ff" points="69.55,-22.6 59.17,-20.47 65.97,-28.61 69.55,-22.6"/>
</a>
</g>
</g>
<!-- Node7&#45;&gt;Node5 -->
<g id="edge11_Node000007_Node000005" class="edge">
<title>Node7&#45;&gt;Node5</title>
<g id="a_edge11_Node000007_Node000005"><a xlink:title=" ">
<path fill="none" stroke="#63b8ff" d="M110.59,-111.59C103.01,-104.01 92.13,-93.13 83.02,-84.02"/>
<polygon fill="#63b8ff" stroke="#63b8ff" points="85.84,-81.89 76.3,-77.3 80.89,-86.84 85.84,-81.89"/>
</a>
</g>
</g>
<!-- Node7&#45;&gt;Node6 -->
<g id="edge10_Node000007_Node000006" class="edge">
<title>Node7&#45;&gt;Node6</title>
<g id="a_edge10_Node000007_Node000006"><a xlink:title=" ">
<path fill="none" stroke="#63b8ff" d="M123.68,-111.51C127,-102.52 131.7,-88.55 134,-76 136.72,-61.17 137.69,-44.15 138,-31.24"/>
<polygon fill="#63b8ff" stroke="#63b8ff" points="141.51,-31.38 138.12,-21.34 134.51,-31.3 141.51,-31.38"/>
</a>
</g>
</g>
<!-- Node8 -->
<g id="Node000008" class="node">
<title>Node8</title>
<g id="a_Node000008"><a xlink:title=" ">
<polygon fill="#e0e0e0" stroke="#999999" points="243.62,-76 186.38,-76 186.38,-56 243.62,-56 243.62,-76"/>
<text text-anchor="middle" x="215" y="-62.5" font-family="Helvetica,sans-Serif" font-size="10.00">functional</text>
</a>
</g>
</g>
<!-- Node7&#45;&gt;Node8 -->
<g id="edge12_Node000007_Node000008" class="edge">
<title>Node7&#45;&gt;Node8</title>
<g id="a_edge12_Node000007_Node000008"><a xlink:title=" ">
<path fill="none" stroke="#63b8ff" d="M136.55,-111.59C151.03,-103.36 172.33,-91.26 189.07,-81.74"/>
<polygon fill="#63b8ff" stroke="#63b8ff" points="190.36,-84.46 197.32,-76.48 186.9,-78.38 190.36,-84.46"/>
</a>
</g>
</g>
</g>
</svg>
</svg>

<style type='text/css'>
<![CDATA[
[data-mouse-over-selected='false'] { opacity: 0.7; }
[data-mouse-over-selected='true']  { opacity: 1.0; }
]]>
</style>
<script type="application/ecmascript"><![CDATA[
document.addEventListener('DOMContentLoaded', (event) => {
  highlightEdges();
  highlightAdjacentNodes();
});
]]></script>
</svg>
