<?xml version="1.0" encoding="UTF-8" standalone="no"?>
<!DOCTYPE svg PUBLIC "-//W3C//DTD SVG 1.1//EN"
 "http://www.w3.org/Graphics/SVG/1.1/DTD/svg11.dtd">
<!-- Generated by graphviz version 8.1.0 (20230707.0739)
 -->
<!-- Title: ExoCode/src/SyncLed.cpp Pages: 1 -->
<svg width="247pt" height="196pt"
 viewBox="0.00 0.00 246.75 196.00" xmlns="http://www.w3.org/2000/svg" xmlns:xlink="http://www.w3.org/1999/xlink">

<svg id="main" version="1.1" xmlns="http://www.w3.org/2000/svg" xmlns:xlink="http://www.w3.org/1999/xlink" xml:space="preserve" onload="init(evt)">
<style type="text/css"><![CDATA[
.node, .edge {opacity: 0.7;}
.node.selected, .edge.selected {opacity: 1;}
.edge:hover path { stroke: red; }
.edge:hover polygon { stroke: red; fill: red; }
]]></style>
<script type="application/ecmascript" xlink:href="svg.min.js"/>
<svg id="graph" class="graph">
<g id="graph0" class="graph" transform="scale(1 1) rotate(0) translate(4 192)">
<title>ExoCode/src/SyncLed.cpp</title>
<!-- Node1 -->
<g id="Node000001" class="node">
<title>Node1</title>
<g id="a_Node000001"><a xlink:title=" ">
<polygon fill="#999999" stroke="#666666" points="132.25,-188 0,-188 0,-168 132.25,-168 132.25,-188"/>
<text text-anchor="middle" x="66.12" y="-174.5" font-family="Helvetica,sans-Serif" font-size="10.00">ExoCode/src/SyncLed.cpp</text>
</a>
</g>
</g>
<!-- Node2 -->
<g id="Node000002" class="node">
<title>Node2</title>
<g id="a_Node000002"><a xlink:title=" ">
<polygon fill="#e0e0e0" stroke="#999999" points="73.75,-20 16.5,-20 16.5,0 73.75,0 73.75,-20"/>
<text text-anchor="middle" x="45.12" y="-6.5" font-family="Helvetica,sans-Serif" font-size="10.00">Arduino.h</text>
</a>
</g>
</g>
<!-- Node1&#45;&gt;Node2 -->
<g id="edge1_Node000001_Node000002" class="edge">
<title>Node1&#45;&gt;Node2</title>
<g id="a_edge1_Node000001_Node000002"><a xlink:title=" ">
<path fill="none" stroke="#63b8ff" d="M54.1,-167.78C44.47,-159.59 31.7,-146.66 26.12,-132 13.08,-97.7 26.26,-54.66 36.23,-30.25"/>
<polygon fill="#63b8ff" stroke="#63b8ff" points="39.72,-32.01 40.48,-21.44 33.29,-29.23 39.72,-32.01"/>
</a>
</g>
</g>
<!-- Node3 -->
<g id="Node000003" class="node">
<title>Node3</title>
<g id="a_Node000003"><a xlink:href="_sync_led_8h.html" target="_top" xlink:title="Class to blink and LED in a specific pattern to syncronize the data from the microcontroler with opti...">
<polygon fill="white" stroke="#666666" points="97.38,-132 34.88,-132 34.88,-112 97.38,-112 97.38,-132"/>
<text text-anchor="middle" x="66.12" y="-118.5" font-family="Helvetica,sans-Serif" font-size="10.00">SyncLed.h</text>
</a>
</g>
</g>
<!-- Node1&#45;&gt;Node3 -->
<g id="edge2_Node000001_Node000003" class="edge">
<title>Node1&#45;&gt;Node3</title>
<g id="a_edge2_Node000001_Node000003"><a xlink:title=" ">
<path fill="none" stroke="#63b8ff" d="M66.12,-167.59C66.12,-160.86 66.12,-151.53 66.12,-143.15"/>
<polygon fill="#63b8ff" stroke="#63b8ff" points="69.63,-143.3 66.12,-133.3 62.63,-143.3 69.63,-143.3"/>
</a>
</g>
</g>
<!-- Node4 -->
<g id="Node000004" class="node">
<title>Node4</title>
<g id="a_Node000004"><a xlink:href="_logger_8h.html" target="_top" xlink:title=" ">
<polygon fill="white" stroke="#666666" points="168.88,-132 115.38,-132 115.38,-112 168.88,-112 168.88,-132"/>
<text text-anchor="middle" x="142.12" y="-118.5" font-family="Helvetica,sans-Serif" font-size="10.00">Logger.h</text>
</a>
</g>
</g>
<!-- Node1&#45;&gt;Node4 -->
<g id="edge3_Node000001_Node000004" class="edge">
<title>Node1&#45;&gt;Node4</title>
<g id="a_edge3_Node000001_Node000004"><a xlink:title=" ">
<path fill="none" stroke="#63b8ff" d="M79.36,-167.59C90.52,-159.67 106.72,-148.16 119.87,-138.82"/>
<polygon fill="#63b8ff" stroke="#63b8ff" points="121.66,-141.12 127.78,-132.48 117.6,-135.42 121.66,-141.12"/>
</a>
</g>
</g>
<!-- Node4&#45;&gt;Node2 -->
<g id="edge4_Node000004_Node000002" class="edge">
<title>Node4&#45;&gt;Node2</title>
<g id="a_edge4_Node000004_Node000002"><a xlink:title=" ">
<path fill="none" stroke="#63b8ff" d="M115.44,-111.63C98.45,-104.37 77.26,-92.72 64.12,-76 54.01,-63.13 49.28,-45.03 47.07,-31.2"/>
<polygon fill="#63b8ff" stroke="#63b8ff" points="50.43,-30.87 45.7,-21.38 43.48,-31.75 50.43,-30.87"/>
</a>
</g>
</g>
<!-- Node5 -->
<g id="Node000005" class="node">
<title>Node5</title>
<g id="a_Node000005"><a xlink:href="_log_levels_8h.html" target="_top" xlink:title=" ">
<polygon fill="white" stroke="#666666" points="172.62,-20 105.62,-20 105.62,0 172.62,0 172.62,-20"/>
<text text-anchor="middle" x="139.12" y="-6.5" font-family="Helvetica,sans-Serif" font-size="10.00">LogLevels.h</text>
</a>
</g>
</g>
<!-- Node4&#45;&gt;Node5 -->
<g id="edge5_Node000004_Node000005" class="edge">
<title>Node4&#45;&gt;Node5</title>
<g id="a_edge5_Node000004_Node000005"><a xlink:title=" ">
<path fill="none" stroke="#63b8ff" d="M141.87,-111.62C141.39,-93.92 140.33,-55.24 139.68,-31.32"/>
<polygon fill="#63b8ff" stroke="#63b8ff" points="143.15,-31.26 139.38,-21.35 136.15,-31.45 143.15,-31.26"/>
</a>
</g>
</g>
<!-- Node6 -->
<g id="Node000006" class="node">
<title>Node6</title>
<g id="a_Node000006"><a xlink:href="_config_8h.html" target="_top" xlink:title=" ">
<polygon fill="white" stroke="#666666" points="124.75,-76 73.5,-76 73.5,-56 124.75,-56 124.75,-76"/>
<text text-anchor="middle" x="99.12" y="-62.5" font-family="Helvetica,sans-Serif" font-size="10.00">Config.h</text>
</a>
</g>
</g>
<!-- Node4&#45;&gt;Node6 -->
<g id="edge6_Node000004_Node000006" class="edge">
<title>Node4&#45;&gt;Node6</title>
<g id="a_edge6_Node000004_Node000006"><a xlink:title=" ">
<path fill="none" stroke="#63b8ff" d="M134.63,-111.59C128.78,-104.24 120.46,-93.8 113.35,-84.87"/>
<polygon fill="#63b8ff" stroke="#63b8ff" points="115.5,-82.94 106.53,-77.3 110.02,-87.3 115.5,-82.94"/>
</a>
</g>
</g>
<!-- Node7 -->
<g id="Node000007" class="node">
<title>Node7</title>
<g id="a_Node000007"><a xlink:title=" ">
<polygon fill="#e0e0e0" stroke="#999999" points="238.75,-76 181.5,-76 181.5,-56 238.75,-56 238.75,-76"/>
<text text-anchor="middle" x="210.12" y="-62.5" font-family="Helvetica,sans-Serif" font-size="10.00">functional</text>
</a>
</g>
</g>
<!-- Node4&#45;&gt;Node7 -->
<g id="edge9_Node000004_Node000007" class="edge">
<title>Node4&#45;&gt;Node7</title>
<g id="a_edge9_Node000004_Node000007"><a xlink:title=" ">
<path fill="none" stroke="#63b8ff" d="M153.97,-111.59C163.92,-103.7 178.34,-92.24 190.08,-82.92"/>
<polygon fill="#63b8ff" stroke="#63b8ff" points="191.76,-85.26 197.42,-76.3 187.41,-79.78 191.76,-85.26"/>
</a>
</g>
</g>
<!-- Node6&#45;&gt;Node2 -->
<g id="edge7_Node000006_Node000002" class="edge">
<title>Node6&#45;&gt;Node2</title>
<g id="a_edge7_Node000006_Node000002"><a xlink:title=" ">
<path fill="none" stroke="#63b8ff" d="M89.72,-55.59C82.13,-48.01 71.26,-37.13 62.15,-28.02"/>
<polygon fill="#63b8ff" stroke="#63b8ff" points="64.97,-25.89 55.42,-21.3 60.02,-30.84 64.97,-25.89"/>
</a>
</g>
</g>
<!-- Node6&#45;&gt;Node5 -->
<g id="edge8_Node000006_Node000005" class="edge">
<title>Node6&#45;&gt;Node5</title>
<g id="a_edge8_Node000006_Node000005"><a xlink:title=" ">
<path fill="none" stroke="#63b8ff" d="M106.09,-55.59C111.54,-48.24 119.28,-37.8 125.89,-28.87"/>
<polygon fill="#63b8ff" stroke="#63b8ff" points="129.1,-31.42 132.24,-21.3 123.47,-27.25 129.1,-31.42"/>
</a>
</g>
</g>
</g>
</svg>
</svg>

<style type='text/css'>
<![CDATA[
[data-mouse-over-selected='false'] { opacity: 0.7; }
[data-mouse-over-selected='true']  { opacity: 1.0; }
]]>
</style>
<script type="application/ecmascript"><![CDATA[
document.addEventListener('DOMContentLoaded', (event) => {
  highlightEdges();
  highlightAdjacentNodes();
});
]]></script>
</svg>
