<?xml version="1.0" encoding="UTF-8" standalone="no"?>
<!DOCTYPE svg PUBLIC "-//W3C//DTD SVG 1.1//EN"
 "http://www.w3.org/Graphics/SVG/1.1/DTD/svg11.dtd">
<!-- Generated by graphviz version 8.1.0 (20230707.0739)
 -->
<!-- Title: ExoCode/src/ThIMU.cpp Pages: 1 -->
<svg width="218pt" height="196pt"
 viewBox="0.00 0.00 217.62 196.00" xmlns="http://www.w3.org/2000/svg" xmlns:xlink="http://www.w3.org/1999/xlink">
<g id="graph0" class="graph" transform="scale(1 1) rotate(0) translate(4 192)">
<title>ExoCode/src/ThIMU.cpp</title>
<!-- Node1 -->
<g id="Node000001" class="node">
<title>Node1</title>
<g id="a_Node000001"><a xlink:title=" ">
<polygon fill="#999999" stroke="#666666" points="121.88,-188 0.12,-188 0.12,-168 121.88,-168 121.88,-188"/>
<text text-anchor="middle" x="61" y="-174.5" font-family="Helvetica,sans-Serif" font-size="10.00">ExoCode/src/ThIMU.cpp</text>
</a>
</g>
</g>
<!-- Node2 -->
<g id="Node000002" class="node">
<title>Node2</title>
<g id="a_Node000002"><a xlink:href="_th_i_m_u_8h.html" target="_top" xlink:title=" ">
<polygon fill="white" stroke="#666666" points="52,-132 0,-132 0,-112 52,-112 52,-132"/>
<text text-anchor="middle" x="26" y="-118.5" font-family="Helvetica,sans-Serif" font-size="10.00">ThIMU.h</text>
</a>
</g>
</g>
<!-- Node1&#45;&gt;Node2 -->
<g id="edge1_Node000001_Node000002" class="edge">
<title>Node1&#45;&gt;Node2</title>
<g id="a_edge1_Node000001_Node000002"><a xlink:title=" ">
<path fill="none" stroke="#63b8ff" d="M54.9,-167.59C50.24,-160.39 43.65,-150.23 37.95,-141.43"/>
<polygon fill="#63b8ff" stroke="#63b8ff" points="40.4,-139.79 32.03,-133.3 34.53,-143.59 40.4,-139.79"/>
</a>
</g>
</g>
<!-- Node3 -->
<g id="Node000003" class="node">
<title>Node3</title>
<g id="a_Node000003"><a xlink:href="_logger_8h.html" target="_top" xlink:title=" ">
<polygon fill="white" stroke="#666666" points="123.75,-132 70.25,-132 70.25,-112 123.75,-112 123.75,-132"/>
<text text-anchor="middle" x="97" y="-118.5" font-family="Helvetica,sans-Serif" font-size="10.00">Logger.h</text>
</a>
</g>
</g>
<!-- Node1&#45;&gt;Node3 -->
<g id="edge2_Node000001_Node000003" class="edge">
<title>Node1&#45;&gt;Node3</title>
<g id="a_edge2_Node000001_Node000003"><a xlink:title=" ">
<path fill="none" stroke="#63b8ff" d="M67.27,-167.59C72.07,-160.39 78.84,-150.23 84.71,-141.43"/>
<polygon fill="#63b8ff" stroke="#63b8ff" points="88.17,-143.56 90.8,-133.3 82.34,-139.68 88.17,-143.56"/>
</a>
</g>
</g>
<!-- Node4 -->
<g id="Node000004" class="node">
<title>Node4</title>
<g id="a_Node000004"><a xlink:title=" ">
<polygon fill="#e0e0e0" stroke="#999999" points="58.62,-20 1.38,-20 1.38,0 58.62,0 58.62,-20"/>
<text text-anchor="middle" x="30" y="-6.5" font-family="Helvetica,sans-Serif" font-size="10.00">Arduino.h</text>
</a>
</g>
</g>
<!-- Node3&#45;&gt;Node4 -->
<g id="edge3_Node000003_Node000004" class="edge">
<title>Node3&#45;&gt;Node4</title>
<g id="a_edge3_Node000003_Node000004"><a xlink:title=" ">
<path fill="none" stroke="#63b8ff" d="M75.64,-111.5C61.53,-104.02 44.02,-92.14 35,-76 27.31,-62.25 26.51,-44.23 27.37,-30.65"/>
<polygon fill="#63b8ff" stroke="#63b8ff" points="30.92,-31.38 28.43,-21.08 23.95,-30.68 30.92,-31.38"/>
</a>
</g>
</g>
<!-- Node5 -->
<g id="Node000005" class="node">
<title>Node5</title>
<g id="a_Node000005"><a xlink:href="_log_levels_8h.html" target="_top" xlink:title=" ">
<polygon fill="white" stroke="#666666" points="150.5,-20 83.5,-20 83.5,0 150.5,0 150.5,-20"/>
<text text-anchor="middle" x="117" y="-6.5" font-family="Helvetica,sans-Serif" font-size="10.00">LogLevels.h</text>
</a>
</g>
</g>
<!-- Node3&#45;&gt;Node5 -->
<g id="edge4_Node000003_Node000005" class="edge">
<title>Node3&#45;&gt;Node5</title>
<g id="a_edge4_Node000003_Node000005"><a xlink:title=" ">
<path fill="none" stroke="#63b8ff" d="M98.71,-111.62C101.94,-93.84 109.02,-54.88 113.36,-31"/>
<polygon fill="#63b8ff" stroke="#63b8ff" points="116.95,-31.82 115.3,-21.35 110.07,-30.57 116.95,-31.82"/>
</a>
</g>
</g>
<!-- Node6 -->
<g id="Node000006" class="node">
<title>Node6</title>
<g id="a_Node000006"><a xlink:href="_config_8h.html" target="_top" xlink:title=" ">
<polygon fill="white" stroke="#666666" points="95.62,-76 44.38,-76 44.38,-56 95.62,-56 95.62,-76"/>
<text text-anchor="middle" x="70" y="-62.5" font-family="Helvetica,sans-Serif" font-size="10.00">Config.h</text>
</a>
</g>
</g>
<!-- Node3&#45;&gt;Node6 -->
<g id="edge5_Node000003_Node000006" class="edge">
<title>Node3&#45;&gt;Node6</title>
<g id="a_edge5_Node000003_Node000006"><a xlink:title=" ">
<path fill="none" stroke="#63b8ff" d="M92.3,-111.59C88.77,-104.55 83.83,-94.67 79.5,-86"/>
<polygon fill="#63b8ff" stroke="#63b8ff" points="82.25,-84.68 74.65,-77.3 75.99,-87.81 82.25,-84.68"/>
</a>
</g>
</g>
<!-- Node7 -->
<g id="Node000007" class="node">
<title>Node7</title>
<g id="a_Node000007"><a xlink:title=" ">
<polygon fill="#e0e0e0" stroke="#999999" points="209.62,-76 152.38,-76 152.38,-56 209.62,-56 209.62,-76"/>
<text text-anchor="middle" x="181" y="-62.5" font-family="Helvetica,sans-Serif" font-size="10.00">functional</text>
</a>
</g>
</g>
<!-- Node3&#45;&gt;Node7 -->
<g id="edge8_Node000003_Node000007" class="edge">
<title>Node3&#45;&gt;Node7</title>
<g id="a_edge8_Node000003_Node000007"><a xlink:title=" ">
<path fill="none" stroke="#63b8ff" d="M111.63,-111.59C124.2,-103.51 142.57,-91.71 157.24,-82.27"/>
<polygon fill="#63b8ff" stroke="#63b8ff" points="158.74,-84.83 165.25,-76.48 154.95,-78.94 158.74,-84.83"/>
</a>
</g>
</g>
<!-- Node6&#45;&gt;Node4 -->
<g id="edge6_Node000006_Node000004" class="edge">
<title>Node6&#45;&gt;Node4</title>
<g id="a_edge6_Node000006_Node000004"><a xlink:title=" ">
<path fill="none" stroke="#63b8ff" d="M63.03,-55.59C57.58,-48.24 49.85,-37.8 43.23,-28.87"/>
<polygon fill="#63b8ff" stroke="#63b8ff" points="45.65,-27.25 36.89,-21.3 40.03,-31.42 45.65,-27.25"/>
</a>
</g>
</g>
<!-- Node6&#45;&gt;Node5 -->
<g id="edge7_Node000006_Node000005" class="edge">
<title>Node6&#45;&gt;Node5</title>
<g id="a_edge7_Node000006_Node000005"><a xlink:title=" ">
<path fill="none" stroke="#63b8ff" d="M78.19,-55.59C84.66,-48.16 93.87,-37.58 101.7,-28.58"/>
<polygon fill="#63b8ff" stroke="#63b8ff" points="104.98,-31.14 108.91,-21.3 99.7,-26.54 104.98,-31.14"/>
</a>
</g>
</g>
</g>
</svg>
