<?xml version="1.0" encoding="UTF-8" standalone="no"?>
<!DOCTYPE svg PUBLIC "-//W3C//DTD SVG 1.1//EN"
 "http://www.w3.org/Graphics/SVG/1.1/DTD/svg11.dtd">
<!-- Generated by graphviz version 8.1.0 (20230707.0739)
 -->
<!-- Title: ExoCode/src/Time_Helper.cpp Pages: 1 -->
<svg width="289pt" height="196pt"
 viewBox="0.00 0.00 289.38 196.00" xmlns="http://www.w3.org/2000/svg" xmlns:xlink="http://www.w3.org/1999/xlink">
<g id="graph0" class="graph" transform="scale(1 1) rotate(0) translate(4 192)">
<title>ExoCode/src/Time_Helper.cpp</title>
<!-- Node1 -->
<g id="Node000001" class="node">
<title>Node1</title>
<g id="a_Node000001"><a xlink:title=" ">
<polygon fill="#999999" stroke="#666666" points="236.75,-188 88.75,-188 88.75,-168 236.75,-168 236.75,-188"/>
<text text-anchor="middle" x="162.75" y="-174.5" font-family="Helvetica,sans-Serif" font-size="10.00">ExoCode/src/Time_Helper.cpp</text>
</a>
</g>
</g>
<!-- Node2 -->
<g id="Node000002" class="node">
<title>Node2</title>
<g id="a_Node000002"><a xlink:href="_time___helper_8h.html" target="_top" xlink:title=" ">
<polygon fill="white" stroke="#666666" points="106.88,-132 28.62,-132 28.62,-112 106.88,-112 106.88,-132"/>
<text text-anchor="middle" x="67.75" y="-118.5" font-family="Helvetica,sans-Serif" font-size="10.00">Time_Helper.h</text>
</a>
</g>
</g>
<!-- Node1&#45;&gt;Node2 -->
<g id="edge1_Node000001_Node000002" class="edge">
<title>Node1&#45;&gt;Node2</title>
<g id="a_edge1_Node000001_Node000002"><a xlink:title=" ">
<path fill="none" stroke="#63b8ff" d="M146.2,-167.59C131.72,-159.36 110.42,-147.26 93.68,-137.74"/>
<polygon fill="#63b8ff" stroke="#63b8ff" points="95.85,-134.38 85.43,-132.48 92.39,-140.46 95.85,-134.38"/>
</a>
</g>
</g>
<!-- Node4 -->
<g id="Node000004" class="node">
<title>Node4</title>
<g id="a_Node000004"><a xlink:href="_logger_8h.html" target="_top" xlink:title=" ">
<polygon fill="white" stroke="#666666" points="189.5,-132 136,-132 136,-112 189.5,-112 189.5,-132"/>
<text text-anchor="middle" x="162.75" y="-118.5" font-family="Helvetica,sans-Serif" font-size="10.00">Logger.h</text>
</a>
</g>
</g>
<!-- Node1&#45;&gt;Node4 -->
<g id="edge3_Node000001_Node000004" class="edge">
<title>Node1&#45;&gt;Node4</title>
<g id="a_edge3_Node000001_Node000004"><a xlink:title=" ">
<path fill="none" stroke="#63b8ff" d="M162.75,-167.59C162.75,-160.86 162.75,-151.53 162.75,-143.15"/>
<polygon fill="#63b8ff" stroke="#63b8ff" points="166.25,-143.3 162.75,-133.3 159.25,-143.3 166.25,-143.3"/>
</a>
</g>
</g>
<!-- Node5 -->
<g id="Node000005" class="node">
<title>Node5</title>
<g id="a_Node000005"><a xlink:title=" ">
<polygon fill="#e0e0e0" stroke="#999999" points="281.38,-20 224.12,-20 224.12,0 281.38,0 281.38,-20"/>
<text text-anchor="middle" x="252.75" y="-6.5" font-family="Helvetica,sans-Serif" font-size="10.00">Arduino.h</text>
</a>
</g>
</g>
<!-- Node1&#45;&gt;Node5 -->
<g id="edge10_Node000001_Node000005" class="edge">
<title>Node1&#45;&gt;Node5</title>
<g id="a_edge10_Node000001_Node000005"><a xlink:title=" ">
<path fill="none" stroke="#63b8ff" d="M175.77,-167.63C196.74,-151.64 237.2,-116.82 252.75,-76 258.22,-61.63 257.87,-44.14 256.34,-30.92"/>
<polygon fill="#63b8ff" stroke="#63b8ff" points="259.68,-30.57 254.74,-21.2 252.76,-31.6 259.68,-30.57"/>
</a>
</g>
</g>
<!-- Node3 -->
<g id="Node000003" class="node">
<title>Node3</title>
<g id="a_Node000003"><a xlink:title=" ">
<polygon fill="#e0e0e0" stroke="#999999" points="41.5,-76 0,-76 0,-56 41.5,-56 41.5,-76"/>
<text text-anchor="middle" x="20.75" y="-62.5" font-family="Helvetica,sans-Serif" font-size="10.00">vector</text>
</a>
</g>
</g>
<!-- Node2&#45;&gt;Node3 -->
<g id="edge2_Node000002_Node000003" class="edge">
<title>Node2&#45;&gt;Node3</title>
<g id="a_edge2_Node000002_Node000003"><a xlink:title=" ">
<path fill="none" stroke="#63b8ff" d="M59.56,-111.59C53.09,-104.16 43.88,-93.58 36.05,-84.58"/>
<polygon fill="#63b8ff" stroke="#63b8ff" points="38.05,-82.54 28.84,-77.3 32.77,-87.14 38.05,-82.54"/>
</a>
</g>
</g>
<!-- Node4&#45;&gt;Node5 -->
<g id="edge4_Node000004_Node000005" class="edge">
<title>Node4&#45;&gt;Node5</title>
<g id="a_edge4_Node000004_Node000005"><a xlink:title=" ">
<path fill="none" stroke="#63b8ff" d="M186.04,-111.55C201.67,-104.08 221.55,-92.21 233.75,-76 243.59,-62.92 248.35,-44.84 250.64,-31.07"/>
<polygon fill="#63b8ff" stroke="#63b8ff" points="254.22,-31.69 252.09,-21.31 247.29,-30.76 254.22,-31.69"/>
</a>
</g>
</g>
<!-- Node6 -->
<g id="Node000006" class="node">
<title>Node6</title>
<g id="a_Node000006"><a xlink:href="_log_levels_8h.html" target="_top" xlink:title=" ">
<polygon fill="white" stroke="#666666" points="155.25,-20 88.25,-20 88.25,0 155.25,0 155.25,-20"/>
<text text-anchor="middle" x="121.75" y="-6.5" font-family="Helvetica,sans-Serif" font-size="10.00">LogLevels.h</text>
</a>
</g>
</g>
<!-- Node4&#45;&gt;Node6 -->
<g id="edge5_Node000004_Node000006" class="edge">
<title>Node4&#45;&gt;Node6</title>
<g id="a_edge5_Node000004_Node000006"><a xlink:title=" ">
<path fill="none" stroke="#63b8ff" d="M135.82,-112.36C119.03,-105.41 98.77,-93.82 88.75,-76 79.79,-60.07 91.44,-41.44 103.29,-28.21"/>
<polygon fill="#63b8ff" stroke="#63b8ff" points="105.44,-31 109.9,-21.39 100.42,-26.12 105.44,-31"/>
</a>
</g>
</g>
<!-- Node7 -->
<g id="Node000007" class="node">
<title>Node7</title>
<g id="a_Node000007"><a xlink:href="_config_8h.html" target="_top" xlink:title=" ">
<polygon fill="white" stroke="#666666" points="224.38,-76 173.12,-76 173.12,-56 224.38,-56 224.38,-76"/>
<text text-anchor="middle" x="198.75" y="-62.5" font-family="Helvetica,sans-Serif" font-size="10.00">Config.h</text>
</a>
</g>
</g>
<!-- Node4&#45;&gt;Node7 -->
<g id="edge6_Node000004_Node000007" class="edge">
<title>Node4&#45;&gt;Node7</title>
<g id="a_edge6_Node000004_Node000007"><a xlink:title=" ">
<path fill="none" stroke="#63b8ff" d="M169.02,-111.59C173.82,-104.39 180.59,-94.23 186.46,-85.43"/>
<polygon fill="#63b8ff" stroke="#63b8ff" points="189.92,-87.56 192.55,-77.3 184.09,-83.68 189.92,-87.56"/>
</a>
</g>
</g>
<!-- Node8 -->
<g id="Node000008" class="node">
<title>Node8</title>
<g id="a_Node000008"><a xlink:title=" ">
<polygon fill="#e0e0e0" stroke="#999999" points="155.38,-76 98.12,-76 98.12,-56 155.38,-56 155.38,-76"/>
<text text-anchor="middle" x="126.75" y="-62.5" font-family="Helvetica,sans-Serif" font-size="10.00">functional</text>
</a>
</g>
</g>
<!-- Node4&#45;&gt;Node8 -->
<g id="edge9_Node000004_Node000008" class="edge">
<title>Node4&#45;&gt;Node8</title>
<g id="a_edge9_Node000004_Node000008"><a xlink:title=" ">
<path fill="none" stroke="#63b8ff" d="M156.48,-111.59C151.68,-104.39 144.91,-94.23 139.04,-85.43"/>
<polygon fill="#63b8ff" stroke="#63b8ff" points="141.41,-83.68 132.95,-77.3 135.58,-87.56 141.41,-83.68"/>
</a>
</g>
</g>
<!-- Node7&#45;&gt;Node5 -->
<g id="edge7_Node000007_Node000005" class="edge">
<title>Node7&#45;&gt;Node5</title>
<g id="a_edge7_Node000007_Node000005"><a xlink:title=" ">
<path fill="none" stroke="#63b8ff" d="M208.16,-55.59C215.74,-48.01 226.62,-37.13 235.73,-28.02"/>
<polygon fill="#63b8ff" stroke="#63b8ff" points="237.86,-30.84 242.45,-21.3 232.91,-25.89 237.86,-30.84"/>
</a>
</g>
</g>
<!-- Node7&#45;&gt;Node6 -->
<g id="edge8_Node000007_Node000006" class="edge">
<title>Node7&#45;&gt;Node6</title>
<g id="a_edge8_Node000007_Node000006"><a xlink:title=" ">
<path fill="none" stroke="#63b8ff" d="M185.34,-55.59C173.92,-47.59 157.3,-35.93 143.91,-26.54"/>
<polygon fill="#63b8ff" stroke="#63b8ff" points="146.46,-23.36 136.27,-20.48 142.44,-29.09 146.46,-23.36"/>
</a>
</g>
</g>
</g>
</svg>
