<?xml version="1.0" encoding="UTF-8" standalone="no"?>
<!DOCTYPE svg PUBLIC "-//W3C//DTD SVG 1.1//EN"
 "http://www.w3.org/Graphics/SVG/1.1/DTD/svg11.dtd">
<!-- Generated by graphviz version 8.1.0 (20230707.0739)
 -->
<!-- Title: ExoCode/src/Time_Helper.h Pages: 1 -->
<svg width="577pt" height="84pt"
 viewBox="0.00 0.00 576.62 84.00" xmlns="http://www.w3.org/2000/svg" xmlns:xlink="http://www.w3.org/1999/xlink">
<g id="graph0" class="graph" transform="scale(1 1) rotate(0) translate(4 80)">
<title>ExoCode/src/Time_Helper.h</title>
<!-- Node1 -->
<g id="Node000001" class="node">
<title>Node1</title>
<g id="a_Node000001"><a xlink:title=" ">
<polygon fill="#999999" stroke="#666666" points="348.38,-76 210.88,-76 210.88,-56 348.38,-56 348.38,-76"/>
<text text-anchor="middle" x="279.62" y="-62.5" font-family="Helvetica,sans-Serif" font-size="10.00">ExoCode/src/Time_Helper.h</text>
</a>
</g>
</g>
<!-- Node2 -->
<g id="Node000002" class="node">
<title>Node2</title>
<g id="a_Node000002"><a xlink:href="_coms_m_c_u_8cpp.html" target="_top" xlink:title=" ">
<polygon fill="white" stroke="#666666" points="141.25,-20 0,-20 0,0 141.25,0 141.25,-20"/>
<text text-anchor="middle" x="70.62" y="-6.5" font-family="Helvetica,sans-Serif" font-size="10.00">ExoCode/src/ComsMCU.cpp</text>
</a>
</g>
</g>
<!-- Node1&#45;&gt;Node2 -->
<g id="edge1_Node000001_Node000002" class="edge">
<title>Node1&#45;&gt;Node2</title>
<g id="a_edge1_Node000001_Node000002"><a xlink:title=" ">
<path fill="none" stroke="#63b8ff" d="M232.94,-52.94C195.02,-43.14 142.26,-29.51 107.31,-20.48"/>
<polygon fill="#63b8ff" stroke="#63b8ff" points="231.66,-56.48 242.22,-55.59 233.41,-49.7 231.66,-56.48"/>
</a>
</g>
</g>
<!-- Node3 -->
<g id="Node000003" class="node">
<title>Node3</title>
<g id="a_Node000003"><a xlink:href="_exo_8cpp.html" target="_top" xlink:title=" ">
<polygon fill="white" stroke="#666666" points="270.25,-20 159,-20 159,0 270.25,0 270.25,-20"/>
<text text-anchor="middle" x="214.62" y="-6.5" font-family="Helvetica,sans-Serif" font-size="10.00">ExoCode/src/Exo.cpp</text>
</a>
</g>
</g>
<!-- Node1&#45;&gt;Node3 -->
<g id="edge2_Node000001_Node000003" class="edge">
<title>Node1&#45;&gt;Node3</title>
<g id="a_edge2_Node000001_Node000003"><a xlink:title=" ">
<path fill="none" stroke="#63b8ff" d="M259.98,-48.68C248.8,-39.39 235.19,-28.09 225.82,-20.3"/>
<polygon fill="#63b8ff" stroke="#63b8ff" points="257.37,-51.9 267.3,-55.59 261.85,-46.51 257.37,-51.9"/>
</a>
</g>
</g>
<!-- Node4 -->
<g id="Node000004" class="node">
<title>Node4</title>
<g id="a_Node000004"><a xlink:href="_joint_8cpp.html" target="_top" xlink:title=" ">
<polygon fill="white" stroke="#666666" points="402.75,-20 288.5,-20 288.5,0 402.75,0 402.75,-20"/>
<text text-anchor="middle" x="345.62" y="-6.5" font-family="Helvetica,sans-Serif" font-size="10.00">ExoCode/src/Joint.cpp</text>
</a>
</g>
</g>
<!-- Node1&#45;&gt;Node4 -->
<g id="edge3_Node000001_Node000004" class="edge">
<title>Node1&#45;&gt;Node4</title>
<g id="a_edge3_Node000001_Node000004"><a xlink:title=" ">
<path fill="none" stroke="#63b8ff" d="M299.57,-48.68C310.93,-39.39 324.74,-28.09 334.26,-20.3"/>
<polygon fill="#63b8ff" stroke="#63b8ff" points="297.64,-46.55 292.12,-55.59 302.08,-51.97 297.64,-46.55"/>
</a>
</g>
</g>
<!-- Node5 -->
<g id="Node000005" class="node">
<title>Node5</title>
<g id="a_Node000005"><a xlink:href="_time___helper_8cpp.html" target="_top" xlink:title=" ">
<polygon fill="white" stroke="#666666" points="568.62,-20 420.62,-20 420.62,0 568.62,0 568.62,-20"/>
<text text-anchor="middle" x="494.62" y="-6.5" font-family="Helvetica,sans-Serif" font-size="10.00">ExoCode/src/Time_Helper.cpp</text>
</a>
</g>
</g>
<!-- Node1&#45;&gt;Node5 -->
<g id="edge4_Node000001_Node000005" class="edge">
<title>Node1&#45;&gt;Node5</title>
<g id="a_edge4_Node000001_Node000005"><a xlink:title=" ">
<path fill="none" stroke="#63b8ff" d="M327.65,-52.94C366.66,-43.14 420.93,-29.51 456.88,-20.48"/>
<polygon fill="#63b8ff" stroke="#63b8ff" points="326.92,-49.76 318.08,-55.59 328.63,-56.55 326.92,-49.76"/>
</a>
</g>
</g>
</g>
</svg>
