<?xml version="1.0" encoding="UTF-8" standalone="no"?>
<!DOCTYPE svg PUBLIC "-//W3C//DTD SVG 1.1//EN"
 "http://www.w3.org/Graphics/SVG/1.1/DTD/svg11.dtd">
<!-- Generated by graphviz version 8.1.0 (20230707.0739)
 -->
<!-- Title: ExoCode/src/TorqueSensor.cpp Pages: 1 -->
<svg width="250pt" height="196pt"
 viewBox="0.00 0.00 249.75 196.00" xmlns="http://www.w3.org/2000/svg" xmlns:xlink="http://www.w3.org/1999/xlink">
<g id="graph0" class="graph" transform="scale(1 1) rotate(0) translate(4 192)">
<title>ExoCode/src/TorqueSensor.cpp</title>
<!-- Node1 -->
<g id="Node000001" class="node">
<title>Node1</title>
<g id="a_Node000001"><a xlink:title=" ">
<polygon fill="#999999" stroke="#666666" points="162.12,-188 8.12,-188 8.12,-168 162.12,-168 162.12,-188"/>
<text text-anchor="middle" x="85.12" y="-174.5" font-family="Helvetica,sans-Serif" font-size="10.00">ExoCode/src/TorqueSensor.cpp</text>
</a>
</g>
</g>
<!-- Node2 -->
<g id="Node000002" class="node">
<title>Node2</title>
<g id="a_Node000002"><a xlink:href="_torque_sensor_8h.html" target="_top" xlink:title="Declares the class that is used to interface with a torque sensor.">
<polygon fill="white" stroke="#666666" points="84.25,-132 0,-132 0,-112 84.25,-112 84.25,-132"/>
<text text-anchor="middle" x="42.12" y="-118.5" font-family="Helvetica,sans-Serif" font-size="10.00">TorqueSensor.h</text>
</a>
</g>
</g>
<!-- Node1&#45;&gt;Node2 -->
<g id="edge1_Node000001_Node000002" class="edge">
<title>Node1&#45;&gt;Node2</title>
<g id="a_edge1_Node000001_Node000002"><a xlink:title=" ">
<path fill="none" stroke="#63b8ff" d="M77.63,-167.59C71.78,-160.24 63.46,-149.8 56.35,-140.87"/>
<polygon fill="#63b8ff" stroke="#63b8ff" points="58.5,-138.94 49.53,-133.3 53.02,-143.3 58.5,-138.94"/>
</a>
</g>
</g>
<!-- Node3 -->
<g id="Node000003" class="node">
<title>Node3</title>
<g id="a_Node000003"><a xlink:href="_logger_8h.html" target="_top" xlink:title=" ">
<polygon fill="white" stroke="#666666" points="155.88,-132 102.38,-132 102.38,-112 155.88,-112 155.88,-132"/>
<text text-anchor="middle" x="129.12" y="-118.5" font-family="Helvetica,sans-Serif" font-size="10.00">Logger.h</text>
</a>
</g>
</g>
<!-- Node1&#45;&gt;Node3 -->
<g id="edge2_Node000001_Node000003" class="edge">
<title>Node1&#45;&gt;Node3</title>
<g id="a_edge2_Node000001_Node000003"><a xlink:title=" ">
<path fill="none" stroke="#63b8ff" d="M92.79,-167.59C98.85,-160.16 107.47,-149.58 114.8,-140.58"/>
<polygon fill="#63b8ff" stroke="#63b8ff" points="117.95,-143.26 121.55,-133.3 112.52,-138.84 117.95,-143.26"/>
</a>
</g>
</g>
<!-- Node4 -->
<g id="Node000004" class="node">
<title>Node4</title>
<g id="a_Node000004"><a xlink:title=" ">
<polygon fill="#e0e0e0" stroke="#999999" points="90.75,-20 33.5,-20 33.5,0 90.75,0 90.75,-20"/>
<text text-anchor="middle" x="62.12" y="-6.5" font-family="Helvetica,sans-Serif" font-size="10.00">Arduino.h</text>
</a>
</g>
</g>
<!-- Node3&#45;&gt;Node4 -->
<g id="edge3_Node000003_Node000004" class="edge">
<title>Node3&#45;&gt;Node4</title>
<g id="a_edge3_Node000003_Node000004"><a xlink:title=" ">
<path fill="none" stroke="#63b8ff" d="M107.77,-111.5C93.65,-104.02 76.15,-92.14 67.12,-76 59.43,-62.25 58.63,-44.23 59.5,-30.65"/>
<polygon fill="#63b8ff" stroke="#63b8ff" points="63.04,-31.38 60.56,-21.08 56.08,-30.68 63.04,-31.38"/>
</a>
</g>
</g>
<!-- Node5 -->
<g id="Node000005" class="node">
<title>Node5</title>
<g id="a_Node000005"><a xlink:href="_log_levels_8h.html" target="_top" xlink:title=" ">
<polygon fill="white" stroke="#666666" points="182.62,-20 115.62,-20 115.62,0 182.62,0 182.62,-20"/>
<text text-anchor="middle" x="149.12" y="-6.5" font-family="Helvetica,sans-Serif" font-size="10.00">LogLevels.h</text>
</a>
</g>
</g>
<!-- Node3&#45;&gt;Node5 -->
<g id="edge4_Node000003_Node000005" class="edge">
<title>Node3&#45;&gt;Node5</title>
<g id="a_edge4_Node000003_Node000005"><a xlink:title=" ">
<path fill="none" stroke="#63b8ff" d="M130.83,-111.62C134.06,-93.84 141.15,-54.88 145.49,-31"/>
<polygon fill="#63b8ff" stroke="#63b8ff" points="149.08,-31.82 147.42,-21.35 142.19,-30.57 149.08,-31.82"/>
</a>
</g>
</g>
<!-- Node6 -->
<g id="Node000006" class="node">
<title>Node6</title>
<g id="a_Node000006"><a xlink:href="_config_8h.html" target="_top" xlink:title=" ">
<polygon fill="white" stroke="#666666" points="127.75,-76 76.5,-76 76.5,-56 127.75,-56 127.75,-76"/>
<text text-anchor="middle" x="102.12" y="-62.5" font-family="Helvetica,sans-Serif" font-size="10.00">Config.h</text>
</a>
</g>
</g>
<!-- Node3&#45;&gt;Node6 -->
<g id="edge5_Node000003_Node000006" class="edge">
<title>Node3&#45;&gt;Node6</title>
<g id="a_edge5_Node000003_Node000006"><a xlink:title=" ">
<path fill="none" stroke="#63b8ff" d="M124.42,-111.59C120.9,-104.55 115.96,-94.67 111.63,-86"/>
<polygon fill="#63b8ff" stroke="#63b8ff" points="114.38,-84.68 106.77,-77.3 108.12,-87.81 114.38,-84.68"/>
</a>
</g>
</g>
<!-- Node7 -->
<g id="Node000007" class="node">
<title>Node7</title>
<g id="a_Node000007"><a xlink:title=" ">
<polygon fill="#e0e0e0" stroke="#999999" points="241.75,-76 184.5,-76 184.5,-56 241.75,-56 241.75,-76"/>
<text text-anchor="middle" x="213.12" y="-62.5" font-family="Helvetica,sans-Serif" font-size="10.00">functional</text>
</a>
</g>
</g>
<!-- Node3&#45;&gt;Node7 -->
<g id="edge8_Node000003_Node000007" class="edge">
<title>Node3&#45;&gt;Node7</title>
<g id="a_edge8_Node000003_Node000007"><a xlink:title=" ">
<path fill="none" stroke="#63b8ff" d="M143.76,-111.59C156.33,-103.51 174.69,-91.71 189.37,-82.27"/>
<polygon fill="#63b8ff" stroke="#63b8ff" points="190.86,-84.83 197.38,-76.48 187.07,-78.94 190.86,-84.83"/>
</a>
</g>
</g>
<!-- Node6&#45;&gt;Node4 -->
<g id="edge6_Node000006_Node000004" class="edge">
<title>Node6&#45;&gt;Node4</title>
<g id="a_edge6_Node000006_Node000004"><a xlink:title=" ">
<path fill="none" stroke="#63b8ff" d="M95.16,-55.59C89.71,-48.24 81.97,-37.8 75.36,-28.87"/>
<polygon fill="#63b8ff" stroke="#63b8ff" points="77.78,-27.25 69.01,-21.3 72.15,-31.42 77.78,-27.25"/>
</a>
</g>
</g>
<!-- Node6&#45;&gt;Node5 -->
<g id="edge7_Node000006_Node000005" class="edge">
<title>Node6&#45;&gt;Node5</title>
<g id="a_edge7_Node000006_Node000005"><a xlink:title=" ">
<path fill="none" stroke="#63b8ff" d="M110.31,-55.59C116.78,-48.16 125.99,-37.58 133.82,-28.58"/>
<polygon fill="#63b8ff" stroke="#63b8ff" points="137.11,-31.14 141.03,-21.3 131.83,-26.54 137.11,-31.14"/>
</a>
</g>
</g>
</g>
</svg>
