<?xml version="1.0" encoding="UTF-8" standalone="no"?>
<!DOCTYPE svg PUBLIC "-//W3C//DTD SVG 1.1//EN"
 "http://www.w3.org/Graphics/SVG/1.1/DTD/svg11.dtd">
<!-- Generated by graphviz version 8.1.0 (20230707.0739)
 -->
<!-- Title: ExoCode/src/UART_msg_t.h Pages: 1 -->
<svg width="264pt" height="196pt"
 viewBox="0.00 0.00 264.25 196.00" xmlns="http://www.w3.org/2000/svg" xmlns:xlink="http://www.w3.org/1999/xlink">

<svg id="main" version="1.1" xmlns="http://www.w3.org/2000/svg" xmlns:xlink="http://www.w3.org/1999/xlink" xml:space="preserve" onload="init(evt)">
<style type="text/css"><![CDATA[
.node, .edge {opacity: 0.7;}
.node.selected, .edge.selected {opacity: 1;}
.edge:hover path { stroke: red; }
.edge:hover polygon { stroke: red; fill: red; }
]]></style>
<script type="application/ecmascript" xlink:href="svg.min.js"/>
<svg id="graph" class="graph">
<g id="graph0" class="graph" transform="scale(1 1) rotate(0) translate(4 192)">
<title>ExoCode/src/UART_msg_t.h</title>
<!-- Node1 -->
<g id="Node000001" class="node">
<title>Node1</title>
<g id="a_Node000001"><a xlink:title=" ">
<polygon fill="#999999" stroke="#666666" points="141.25,-188 0,-188 0,-168 141.25,-168 141.25,-188"/>
<text text-anchor="middle" x="70.62" y="-174.5" font-family="Helvetica,sans-Serif" font-size="10.00">ExoCode/src/UART_msg_t.h</text>
</a>
</g>
</g>
<!-- Node2 -->
<g id="Node000002" class="node">
<title>Node2</title>
<g id="a_Node000002"><a xlink:title=" ">
<polygon fill="#e0e0e0" stroke="#999999" points="91.25,-20 34,-20 34,0 91.25,0 91.25,-20"/>
<text text-anchor="middle" x="62.62" y="-6.5" font-family="Helvetica,sans-Serif" font-size="10.00">Arduino.h</text>
</a>
</g>
</g>
<!-- Node1&#45;&gt;Node2 -->
<g id="edge1_Node000001_Node000002" class="edge">
<title>Node1&#45;&gt;Node2</title>
<g id="a_edge1_Node000001_Node000002"><a xlink:title=" ">
<path fill="none" stroke="#63b8ff" d="M70.17,-167.6C68.91,-141.35 65.32,-66.84 63.58,-30.89"/>
<polygon fill="#63b8ff" stroke="#63b8ff" points="67.05,-31.12 63.07,-21.3 60.06,-31.45 67.05,-31.12"/>
</a>
</g>
</g>
<!-- Node3 -->
<g id="Node000003" class="node">
<title>Node3</title>
<g id="a_Node000003"><a xlink:href="_logger_8h.html" target="_top" xlink:title=" ">
<polygon fill="white" stroke="#666666" points="143.38,-132 89.88,-132 89.88,-112 143.38,-112 143.38,-132"/>
<text text-anchor="middle" x="116.62" y="-118.5" font-family="Helvetica,sans-Serif" font-size="10.00">Logger.h</text>
</a>
</g>
</g>
<!-- Node1&#45;&gt;Node3 -->
<g id="edge2_Node000001_Node000003" class="edge">
<title>Node1&#45;&gt;Node3</title>
<g id="a_edge2_Node000001_Node000003"><a xlink:title=" ">
<path fill="none" stroke="#63b8ff" d="M78.64,-167.59C84.97,-160.16 93.99,-149.58 101.65,-140.58"/>
<polygon fill="#63b8ff" stroke="#63b8ff" points="104.88,-143.18 108.7,-133.3 99.56,-138.64 104.88,-143.18"/>
</a>
</g>
</g>
<!-- Node3&#45;&gt;Node2 -->
<g id="edge3_Node000003_Node000002" class="edge">
<title>Node3&#45;&gt;Node2</title>
<g id="a_edge3_Node000003_Node000002"><a xlink:title=" ">
<path fill="none" stroke="#63b8ff" d="M107.69,-111.72C99.82,-103.1 88.56,-89.57 81.62,-76 74.33,-61.73 69.42,-44.24 66.42,-30.99"/>
<polygon fill="#63b8ff" stroke="#63b8ff" points="69.65,-30.32 64.19,-21.24 62.79,-31.74 69.65,-30.32"/>
</a>
</g>
</g>
<!-- Node4 -->
<g id="Node000004" class="node">
<title>Node4</title>
<g id="a_Node000004"><a xlink:href="_log_levels_8h.html" target="_top" xlink:title=" ">
<polygon fill="white" stroke="#666666" points="190.12,-20 123.12,-20 123.12,0 190.12,0 190.12,-20"/>
<text text-anchor="middle" x="156.62" y="-6.5" font-family="Helvetica,sans-Serif" font-size="10.00">LogLevels.h</text>
</a>
</g>
</g>
<!-- Node3&#45;&gt;Node4 -->
<g id="edge4_Node000003_Node000004" class="edge">
<title>Node3&#45;&gt;Node4</title>
<g id="a_edge4_Node000003_Node000004"><a xlink:title=" ">
<path fill="none" stroke="#63b8ff" d="M126.57,-111.7C134.88,-103.27 146.2,-90.03 151.62,-76 157.19,-61.61 158.24,-44.12 158.02,-30.91"/>
<polygon fill="#63b8ff" stroke="#63b8ff" points="161.48,-31.03 157.54,-21.19 154.49,-31.34 161.48,-31.03"/>
</a>
</g>
</g>
<!-- Node5 -->
<g id="Node000005" class="node">
<title>Node5</title>
<g id="a_Node000005"><a xlink:href="_config_8h.html" target="_top" xlink:title=" ">
<polygon fill="white" stroke="#666666" points="142.25,-76 91,-76 91,-56 142.25,-56 142.25,-76"/>
<text text-anchor="middle" x="116.62" y="-62.5" font-family="Helvetica,sans-Serif" font-size="10.00">Config.h</text>
</a>
</g>
</g>
<!-- Node3&#45;&gt;Node5 -->
<g id="edge5_Node000003_Node000005" class="edge">
<title>Node3&#45;&gt;Node5</title>
<g id="a_edge5_Node000003_Node000005"><a xlink:title=" ">
<path fill="none" stroke="#63b8ff" d="M116.62,-111.59C116.62,-104.86 116.62,-95.53 116.62,-87.15"/>
<polygon fill="#63b8ff" stroke="#63b8ff" points="120.13,-87.3 116.62,-77.3 113.13,-87.3 120.13,-87.3"/>
</a>
</g>
</g>
<!-- Node6 -->
<g id="Node000006" class="node">
<title>Node6</title>
<g id="a_Node000006"><a xlink:title=" ">
<polygon fill="#e0e0e0" stroke="#999999" points="256.25,-76 199,-76 199,-56 256.25,-56 256.25,-76"/>
<text text-anchor="middle" x="227.62" y="-62.5" font-family="Helvetica,sans-Serif" font-size="10.00">functional</text>
</a>
</g>
</g>
<!-- Node3&#45;&gt;Node6 -->
<g id="edge8_Node000003_Node000006" class="edge">
<title>Node3&#45;&gt;Node6</title>
<g id="a_edge8_Node000003_Node000006"><a xlink:title=" ">
<path fill="none" stroke="#63b8ff" d="M135.96,-111.59C153.2,-103.21 178.7,-90.8 198.42,-81.21"/>
<polygon fill="#63b8ff" stroke="#63b8ff" points="199.68,-84 207.14,-76.48 196.62,-77.71 199.68,-84"/>
</a>
</g>
</g>
<!-- Node5&#45;&gt;Node2 -->
<g id="edge6_Node000005_Node000002" class="edge">
<title>Node5&#45;&gt;Node2</title>
<g id="a_edge6_Node000005_Node000002"><a xlink:title=" ">
<path fill="none" stroke="#63b8ff" d="M107.22,-55.59C99.63,-48.01 88.76,-37.13 79.65,-28.02"/>
<polygon fill="#63b8ff" stroke="#63b8ff" points="82.47,-25.89 72.92,-21.3 77.52,-30.84 82.47,-25.89"/>
</a>
</g>
</g>
<!-- Node5&#45;&gt;Node4 -->
<g id="edge7_Node000005_Node000004" class="edge">
<title>Node5&#45;&gt;Node4</title>
<g id="a_edge7_Node000005_Node000004"><a xlink:title=" ">
<path fill="none" stroke="#63b8ff" d="M123.59,-55.59C129.04,-48.24 136.78,-37.8 143.39,-28.87"/>
<polygon fill="#63b8ff" stroke="#63b8ff" points="146.6,-31.42 149.74,-21.3 140.97,-27.25 146.6,-31.42"/>
</a>
</g>
</g>
</g>
</svg>
</svg>

<style type='text/css'>
<![CDATA[
[data-mouse-over-selected='false'] { opacity: 0.7; }
[data-mouse-over-selected='true']  { opacity: 1.0; }
]]>
</style>
<script type="application/ecmascript"><![CDATA[
document.addEventListener('DOMContentLoaded', (event) => {
  highlightEdges();
  highlightAdjacentNodes();
});
]]></script>
</svg>
