<?xml version="1.0" encoding="UTF-8" standalone="no"?>
<!DOCTYPE svg PUBLIC "-//W3C//DTD SVG 1.1//EN"
 "http://www.w3.org/Graphics/SVG/1.1/DTD/svg11.dtd">
<!-- Generated by graphviz version 8.1.0 (20230707.0739)
 -->
<!-- Title: ExoCode/src/UARTHandler.h Pages: 1 -->
<svg width="529pt" height="252pt"
 viewBox="0.00 0.00 528.88 252.00" xmlns="http://www.w3.org/2000/svg" xmlns:xlink="http://www.w3.org/1999/xlink">
<g id="graph0" class="graph" transform="scale(1 1) rotate(0) translate(4 248)">
<title>ExoCode/src/UARTHandler.h</title>
<!-- Node1 -->
<g id="Node000001" class="node">
<title>Node1</title>
<g id="a_Node000001"><a xlink:title="Singleton class that manages the UART data. NOT THREAD SAFE. The class queues recieved messages.">
<polygon fill="#999999" stroke="#666666" points="306.62,-244 164.62,-244 164.62,-224 306.62,-224 306.62,-244"/>
<text text-anchor="middle" x="235.62" y="-230.5" font-family="Helvetica,sans-Serif" font-size="10.00">ExoCode/src/UARTHandler.h</text>
</a>
</g>
</g>
<!-- Node2 -->
<g id="Node000002" class="node">
<title>Node2</title>
<g id="a_Node000002"><a xlink:href="_coms_m_c_u_8cpp.html" target="_top" xlink:title=" ">
<polygon fill="white" stroke="#666666" points="141.25,-132 0,-132 0,-112 141.25,-112 141.25,-132"/>
<text text-anchor="middle" x="70.62" y="-118.5" font-family="Helvetica,sans-Serif" font-size="10.00">ExoCode/src/ComsMCU.cpp</text>
</a>
</g>
</g>
<!-- Node1&#45;&gt;Node2 -->
<g id="edge1_Node000001_Node000002" class="edge">
<title>Node1&#45;&gt;Node2</title>
<g id="a_edge1_Node000001_Node000002"><a xlink:title=" ">
<path fill="none" stroke="#63b8ff" d="M201.79,-219.41C183.58,-211.42 161.12,-200.45 142.62,-188 117.48,-171.07 92.1,-145.81 79.25,-132.31"/>
<polygon fill="#63b8ff" stroke="#63b8ff" points="200.12,-222.93 210.69,-223.65 202.88,-216.49 200.12,-222.93"/>
</a>
</g>
</g>
<!-- Node3 -->
<g id="Node000003" class="node">
<title>Node3</title>
<g id="a_Node000003"><a xlink:href="_exo_8cpp.html" target="_top" xlink:title=" ">
<polygon fill="white" stroke="#666666" points="270.25,-132 159,-132 159,-112 270.25,-112 270.25,-132"/>
<text text-anchor="middle" x="214.62" y="-118.5" font-family="Helvetica,sans-Serif" font-size="10.00">ExoCode/src/Exo.cpp</text>
</a>
</g>
</g>
<!-- Node1&#45;&gt;Node3 -->
<g id="edge2_Node000001_Node000003" class="edge">
<title>Node1&#45;&gt;Node3</title>
<g id="a_edge2_Node000001_Node000003"><a xlink:title=" ">
<path fill="none" stroke="#63b8ff" d="M188.87,-219.48C173.65,-212.61 158.43,-202.54 149.62,-188 135.66,-164.93 168.46,-143.99 192.37,-132.42"/>
<polygon fill="#63b8ff" stroke="#63b8ff" points="187.22,-222.99 197.8,-223.54 189.87,-216.51 187.22,-222.99"/>
</a>
</g>
</g>
<!-- Node4 -->
<g id="Node000004" class="node">
<title>Node4</title>
<g id="a_Node000004"><a xlink:href="_u_a_r_t_handler_8cpp.html" target="_top" xlink:title=" ">
<polygon fill="white" stroke="#666666" points="520.88,-188 368.38,-188 368.38,-168 520.88,-168 520.88,-188"/>
<text text-anchor="middle" x="444.62" y="-174.5" font-family="Helvetica,sans-Serif" font-size="10.00">ExoCode/src/UARTHandler.cpp</text>
</a>
</g>
</g>
<!-- Node1&#45;&gt;Node4 -->
<g id="edge3_Node000001_Node000004" class="edge">
<title>Node1&#45;&gt;Node4</title>
<g id="a_edge3_Node000001_Node000004"><a xlink:title=" ">
<path fill="none" stroke="#63b8ff" d="M282.31,-220.94C320.23,-211.14 372.99,-197.51 407.94,-188.48"/>
<polygon fill="#63b8ff" stroke="#63b8ff" points="281.84,-217.7 273.03,-223.59 283.59,-224.48 281.84,-217.7"/>
</a>
</g>
</g>
<!-- Node5 -->
<g id="Node000005" class="node">
<title>Node5</title>
<g id="a_Node000005"><a xlink:href="ble__commands_8h.html" target="_top" xlink:title="This file declares the BLE commands, and the functions that should be called when they are received.">
<polygon fill="white" stroke="#666666" points="437.38,-132 287.88,-132 287.88,-112 437.38,-112 437.38,-132"/>
<text text-anchor="middle" x="362.62" y="-118.5" font-family="Helvetica,sans-Serif" font-size="10.00">ExoCode/src/ble_commands.h</text>
</a>
</g>
</g>
<!-- Node1&#45;&gt;Node5 -->
<g id="edge4_Node000001_Node000005" class="edge">
<title>Node1&#45;&gt;Node5</title>
<g id="a_edge4_Node000001_Node000005"><a xlink:title=" ">
<path fill="none" stroke="#63b8ff" d="M271.79,-219.22C288.27,-211.72 307.26,-201.25 321.62,-188 339.28,-171.72 352.38,-146.2 358.6,-132.48"/>
<polygon fill="#63b8ff" stroke="#63b8ff" points="270.7,-216.32 262.91,-223.51 273.48,-222.74 270.7,-216.32"/>
</a>
</g>
</g>
<!-- Node8 -->
<g id="Node000008" class="node">
<title>Node8</title>
<g id="a_Node000008"><a xlink:href="uart__commands_8h.html" target="_top" xlink:title=" ">
<polygon fill="white" stroke="#666666" points="312.25,-188 159,-188 159,-168 312.25,-168 312.25,-188"/>
<text text-anchor="middle" x="235.62" y="-174.5" font-family="Helvetica,sans-Serif" font-size="10.00">ExoCode/src/uart_commands.h</text>
</a>
</g>
</g>
<!-- Node1&#45;&gt;Node8 -->
<g id="edge8_Node000001_Node000008" class="edge">
<title>Node1&#45;&gt;Node8</title>
<g id="a_edge8_Node000001_Node000008"><a xlink:title=" ">
<path fill="none" stroke="#63b8ff" d="M235.62,-212.71C235.62,-204.32 235.62,-195.01 235.62,-188.3"/>
<polygon fill="#63b8ff" stroke="#63b8ff" points="232.13,-212.59 235.62,-222.59 239.13,-212.59 232.13,-212.59"/>
</a>
</g>
</g>
<!-- Node6 -->
<g id="Node000006" class="node">
<title>Node6</title>
<g id="a_Node000006"><a xlink:href="_ble_parser_8cpp.html" target="_top" xlink:title=" ">
<polygon fill="white" stroke="#666666" points="430,-20 293.25,-20 293.25,0 430,0 430,-20"/>
<text text-anchor="middle" x="361.62" y="-6.5" font-family="Helvetica,sans-Serif" font-size="10.00">ExoCode/src/BleParser.cpp</text>
</a>
</g>
</g>
<!-- Node5&#45;&gt;Node6 -->
<g id="edge5_Node000005_Node000006" class="edge">
<title>Node5&#45;&gt;Node6</title>
<g id="a_edge5_Node000005_Node000006"><a xlink:title=" ">
<path fill="none" stroke="#63b8ff" d="M348.66,-102.84C343.49,-95.02 338.26,-85.51 335.62,-76 329.98,-55.62 344.02,-32.92 353.59,-20.46"/>
<polygon fill="#63b8ff" stroke="#63b8ff" points="346.32,-104.58 354.97,-110.7 352.02,-100.52 346.32,-104.58"/>
</a>
</g>
</g>
<!-- Node7 -->
<g id="Node000007" class="node">
<title>Node7</title>
<g id="a_Node000007"><a xlink:href="_ble_parser_8h.html" target="_top" xlink:title="This class is used to serialize and deserialize the BLE data. The application uses Nordic&#39;s UART serv...">
<polygon fill="white" stroke="#666666" points="470.75,-76 344.5,-76 344.5,-56 470.75,-56 470.75,-76"/>
<text text-anchor="middle" x="407.62" y="-62.5" font-family="Helvetica,sans-Serif" font-size="10.00">ExoCode/src/BleParser.h</text>
</a>
</g>
</g>
<!-- Node5&#45;&gt;Node7 -->
<g id="edge6_Node000005_Node000007" class="edge">
<title>Node5&#45;&gt;Node7</title>
<g id="a_edge6_Node000005_Node000007"><a xlink:title=" ">
<path fill="none" stroke="#63b8ff" d="M377.39,-103.29C384.89,-94.28 393.71,-83.7 399.88,-76.3"/>
<polygon fill="#63b8ff" stroke="#63b8ff" points="374.18,-100.67 370.46,-110.59 379.55,-105.15 374.18,-100.67"/>
</a>
</g>
</g>
<!-- Node7&#45;&gt;Node6 -->
<g id="edge7_Node000007_Node000006" class="edge">
<title>Node7&#45;&gt;Node6</title>
<g id="a_edge7_Node000007_Node000006"><a xlink:title=" ">
<path fill="none" stroke="#63b8ff" d="M392.54,-47.29C384.86,-38.28 375.85,-27.7 369.55,-20.3"/>
<polygon fill="#63b8ff" stroke="#63b8ff" points="390.46,-49.25 399.61,-54.59 395.79,-44.71 390.46,-49.25"/>
</a>
</g>
</g>
<!-- Node8&#45;&gt;Node2 -->
<g id="edge9_Node000008_Node000002" class="edge">
<title>Node8&#45;&gt;Node2</title>
<g id="a_edge9_Node000008_Node000002"><a xlink:title=" ">
<path fill="none" stroke="#63b8ff" d="M196.44,-164.18C166.7,-154.44 126.47,-141.28 99.59,-132.48"/>
<polygon fill="#63b8ff" stroke="#63b8ff" points="195.29,-167.81 205.88,-167.59 197.47,-161.16 195.29,-167.81"/>
</a>
</g>
</g>
<!-- Node8&#45;&gt;Node3 -->
<g id="edge10_Node000008_Node000003" class="edge">
<title>Node8&#45;&gt;Node3</title>
<g id="a_edge10_Node000008_Node000003"><a xlink:title=" ">
<path fill="none" stroke="#63b8ff" d="M228.07,-157.58C224.72,-148.97 220.94,-139.24 218.24,-132.3"/>
<polygon fill="#63b8ff" stroke="#63b8ff" points="225.08,-158.54 231.97,-166.59 231.6,-156.01 225.08,-158.54"/>
</a>
</g>
</g>
<!-- Node8&#45;&gt;Node5 -->
<g id="edge11_Node000008_Node000005" class="edge">
<title>Node8&#45;&gt;Node5</title>
<g id="a_edge11_Node000008_Node000005"><a xlink:title=" ">
<path fill="none" stroke="#63b8ff" d="M267.61,-163.4C290.3,-153.75 320.18,-141.05 340.33,-132.48"/>
<polygon fill="#63b8ff" stroke="#63b8ff" points="266.58,-160.46 258.75,-167.59 269.32,-166.9 266.58,-160.46"/>
</a>
</g>
</g>
</g>
</svg>
