<?xml version="1.0" encoding="UTF-8" standalone="no"?>
<!DOCTYPE svg PUBLIC "-//W3C//DTD SVG 1.1//EN"
 "http://www.w3.org/Graphics/SVG/1.1/DTD/svg11.dtd">
<!-- Generated by graphviz version 8.1.0 (20230707.0739)
 -->
<!-- Title: ExoCode/src/Utilities.cpp Pages: 1 -->
<svg width="483pt" height="196pt"
 viewBox="0.00 0.00 483.38 196.00" xmlns="http://www.w3.org/2000/svg" xmlns:xlink="http://www.w3.org/1999/xlink">

<svg id="main" version="1.1" xmlns="http://www.w3.org/2000/svg" xmlns:xlink="http://www.w3.org/1999/xlink" xml:space="preserve" onload="init(evt)">
<style type="text/css"><![CDATA[
.node, .edge {opacity: 0.7;}
.node.selected, .edge.selected {opacity: 1;}
.edge:hover path { stroke: red; }
.edge:hover polygon { stroke: red; fill: red; }
]]></style>
<script type="application/ecmascript" xlink:href="svg.min.js"/>
<svg id="graph" class="graph">
<g id="graph0" class="graph" transform="scale(1 1) rotate(0) translate(4 192)">
<title>ExoCode/src/Utilities.cpp</title>
<!-- Node1 -->
<g id="Node000001" class="node">
<title>Node1</title>
<g id="a_Node000001"><a xlink:title=" ">
<polygon fill="#999999" stroke="#666666" points="293.88,-188 167.62,-188 167.62,-168 293.88,-168 293.88,-188"/>
<text text-anchor="middle" x="230.75" y="-174.5" font-family="Helvetica,sans-Serif" font-size="10.00">ExoCode/src/Utilities.cpp</text>
</a>
</g>
</g>
<!-- Node2 -->
<g id="Node000002" class="node">
<title>Node2</title>
<g id="a_Node000002"><a xlink:href="_utilities_8h.html" target="_top" xlink:title=" ">
<polygon fill="white" stroke="#666666" points="178,-132 121.5,-132 121.5,-112 178,-112 178,-132"/>
<text text-anchor="middle" x="149.75" y="-118.5" font-family="Helvetica,sans-Serif" font-size="10.00">Utilities.h</text>
</a>
</g>
</g>
<!-- Node1&#45;&gt;Node2 -->
<g id="edge1_Node000001_Node000002" class="edge">
<title>Node1&#45;&gt;Node2</title>
<g id="a_edge1_Node000001_Node000002"><a xlink:title=" ">
<path fill="none" stroke="#63b8ff" d="M216.64,-167.59C204.64,-159.59 187.15,-147.93 173.07,-138.54"/>
<polygon fill="#63b8ff" stroke="#63b8ff" points="175.23,-135.11 164.97,-132.48 171.35,-140.94 175.23,-135.11"/>
</a>
</g>
</g>
<!-- Node8 -->
<g id="Node000008" class="node">
<title>Node8</title>
<g id="a_Node000008"><a xlink:href="_logger_8h.html" target="_top" xlink:title=" ">
<polygon fill="white" stroke="#666666" points="362.5,-132 309,-132 309,-112 362.5,-112 362.5,-132"/>
<text text-anchor="middle" x="335.75" y="-118.5" font-family="Helvetica,sans-Serif" font-size="10.00">Logger.h</text>
</a>
</g>
</g>
<!-- Node1&#45;&gt;Node8 -->
<g id="edge8_Node000001_Node000008" class="edge">
<title>Node1&#45;&gt;Node8</title>
<g id="a_edge8_Node000001_Node000008"><a xlink:title=" ">
<path fill="none" stroke="#63b8ff" d="M249.04,-167.59C265.2,-159.28 289.02,-147.03 307.61,-137.47"/>
<polygon fill="#63b8ff" stroke="#63b8ff" points="309.03,-140.17 316.32,-132.48 305.82,-133.94 309.03,-140.17"/>
</a>
</g>
</g>
<!-- Node3 -->
<g id="Node000003" class="node">
<title>Node3</title>
<g id="a_Node000003"><a xlink:href="_parse_ini_8h.html" target="_top" xlink:title="Declares the functions needed and defines mapping between the INI keys and the exo components.">
<polygon fill="white" stroke="#666666" points="59.5,-76 0,-76 0,-56 59.5,-56 59.5,-76"/>
<text text-anchor="middle" x="29.75" y="-62.5" font-family="Helvetica,sans-Serif" font-size="10.00">ParseIni.h</text>
</a>
</g>
</g>
<!-- Node2&#45;&gt;Node3 -->
<g id="edge2_Node000002_Node000003" class="edge">
<title>Node2&#45;&gt;Node3</title>
<g id="a_edge2_Node000002_Node000003"><a xlink:title=" ">
<path fill="none" stroke="#63b8ff" d="M128.85,-111.59C110.04,-103.13 82.14,-90.58 60.73,-80.94"/>
<polygon fill="#63b8ff" stroke="#63b8ff" points="62.37,-77.39 51.82,-76.48 59.5,-83.77 62.37,-77.39"/>
</a>
</g>
</g>
<!-- Node4 -->
<g id="Node000004" class="node">
<title>Node4</title>
<g id="a_Node000004"><a xlink:title=" ">
<polygon fill="#e0e0e0" stroke="#999999" points="82.88,-20 34.62,-20 34.62,0 82.88,0 82.88,-20"/>
<text text-anchor="middle" x="58.75" y="-6.5" font-family="Helvetica,sans-Serif" font-size="10.00">stdint.h</text>
</a>
</g>
</g>
<!-- Node2&#45;&gt;Node4 -->
<g id="edge5_Node000002_Node000004" class="edge">
<title>Node2&#45;&gt;Node4</title>
<g id="a_edge5_Node000002_Node000004"><a xlink:title=" ">
<path fill="none" stroke="#63b8ff" d="M141.84,-111.73C134.12,-102.66 122.07,-88.43 111.75,-76 98.58,-60.13 83.76,-41.93 73.15,-28.83"/>
<polygon fill="#63b8ff" stroke="#63b8ff" points="75.26,-26.87 66.25,-21.3 69.82,-31.27 75.26,-26.87"/>
</a>
</g>
</g>
<!-- Node5 -->
<g id="Node000005" class="node">
<title>Node5</title>
<g id="a_Node000005"><a xlink:title=" ">
<polygon fill="#e0e0e0" stroke="#999999" points="310.38,-20 253.12,-20 253.12,0 310.38,0 310.38,-20"/>
<text text-anchor="middle" x="281.75" y="-6.5" font-family="Helvetica,sans-Serif" font-size="10.00">Arduino.h</text>
</a>
</g>
</g>
<!-- Node2&#45;&gt;Node5 -->
<g id="edge4_Node000002_Node000005" class="edge">
<title>Node2&#45;&gt;Node5</title>
<g id="a_edge4_Node000002_Node000005"><a xlink:title=" ">
<path fill="none" stroke="#63b8ff" d="M145.53,-111.58C140.13,-97.93 132.8,-72.5 144.75,-56 166.75,-25.62 209.93,-15.38 241.96,-12.12"/>
<polygon fill="#63b8ff" stroke="#63b8ff" points="242.09,-15.54 251.77,-11.24 241.52,-8.57 242.09,-15.54"/>
</a>
</g>
</g>
<!-- Node6 -->
<g id="Node000006" class="node">
<title>Node6</title>
<g id="a_Node000006"><a xlink:title=" ">
<polygon fill="#e0e0e0" stroke="#999999" points="193.38,-76 154.12,-76 154.12,-56 193.38,-56 193.38,-76"/>
<text text-anchor="middle" x="173.75" y="-62.5" font-family="Helvetica,sans-Serif" font-size="10.00">utility</text>
</a>
</g>
</g>
<!-- Node2&#45;&gt;Node6 -->
<g id="edge6_Node000002_Node000006" class="edge">
<title>Node2&#45;&gt;Node6</title>
<g id="a_edge6_Node000002_Node000006"><a xlink:title=" ">
<path fill="none" stroke="#63b8ff" d="M153.93,-111.59C157.03,-104.63 161.36,-94.89 165.18,-86.29"/>
<polygon fill="#63b8ff" stroke="#63b8ff" points="168.75,-87.86 169.62,-77.3 162.36,-85.01 168.75,-87.86"/>
</a>
</g>
</g>
<!-- Node7 -->
<g id="Node000007" class="node">
<title>Node7</title>
<g id="a_Node000007"><a xlink:title=" ">
<polygon fill="#e0e0e0" stroke="#999999" points="253.88,-76 211.62,-76 211.62,-56 253.88,-56 253.88,-76"/>
<text text-anchor="middle" x="232.75" y="-62.5" font-family="Helvetica,sans-Serif" font-size="10.00">queue</text>
</a>
</g>
</g>
<!-- Node2&#45;&gt;Node7 -->
<g id="edge7_Node000002_Node000007" class="edge">
<title>Node2&#45;&gt;Node7</title>
<g id="a_edge7_Node000002_Node000007"><a xlink:title=" ">
<path fill="none" stroke="#63b8ff" d="M164.21,-111.59C176.63,-103.51 194.77,-91.71 209.27,-82.27"/>
<polygon fill="#63b8ff" stroke="#63b8ff" points="210.71,-84.87 217.18,-76.48 206.89,-79 210.71,-84.87"/>
</a>
</g>
</g>
<!-- Node3&#45;&gt;Node4 -->
<g id="edge3_Node000003_Node000004" class="edge">
<title>Node3&#45;&gt;Node4</title>
<g id="a_edge3_Node000003_Node000004"><a xlink:title=" ">
<path fill="none" stroke="#63b8ff" d="M34.8,-55.59C38.63,-48.47 44.01,-38.45 48.7,-29.72"/>
<polygon fill="#63b8ff" stroke="#63b8ff" points="52.11,-31.76 53.76,-21.3 45.94,-28.45 52.11,-31.76"/>
</a>
</g>
</g>
<!-- Node8&#45;&gt;Node5 -->
<g id="edge9_Node000008_Node000005" class="edge">
<title>Node8&#45;&gt;Node5</title>
<g id="a_edge9_Node000008_Node000005"><a xlink:title=" ">
<path fill="none" stroke="#63b8ff" d="M326.81,-111.72C318.95,-103.1 307.69,-89.57 300.75,-76 293.45,-61.73 288.54,-44.24 285.54,-30.99"/>
<polygon fill="#63b8ff" stroke="#63b8ff" points="288.77,-30.32 283.31,-21.24 281.92,-31.74 288.77,-30.32"/>
</a>
</g>
</g>
<!-- Node9 -->
<g id="Node000009" class="node">
<title>Node9</title>
<g id="a_Node000009"><a xlink:href="_log_levels_8h.html" target="_top" xlink:title=" ">
<polygon fill="white" stroke="#666666" points="409.25,-20 342.25,-20 342.25,0 409.25,0 409.25,-20"/>
<text text-anchor="middle" x="375.75" y="-6.5" font-family="Helvetica,sans-Serif" font-size="10.00">LogLevels.h</text>
</a>
</g>
</g>
<!-- Node8&#45;&gt;Node9 -->
<g id="edge10_Node000008_Node000009" class="edge">
<title>Node8&#45;&gt;Node9</title>
<g id="a_edge10_Node000008_Node000009"><a xlink:title=" ">
<path fill="none" stroke="#63b8ff" d="M345.7,-111.7C354,-103.27 365.33,-90.03 370.75,-76 376.31,-61.61 377.37,-44.12 377.14,-30.91"/>
<polygon fill="#63b8ff" stroke="#63b8ff" points="380.61,-31.03 376.66,-21.19 373.61,-31.34 380.61,-31.03"/>
</a>
</g>
</g>
<!-- Node10 -->
<g id="Node000010" class="node">
<title>Node10</title>
<g id="a_Node000010"><a xlink:href="_config_8h.html" target="_top" xlink:title=" ">
<polygon fill="white" stroke="#666666" points="361.38,-76 310.12,-76 310.12,-56 361.38,-56 361.38,-76"/>
<text text-anchor="middle" x="335.75" y="-62.5" font-family="Helvetica,sans-Serif" font-size="10.00">Config.h</text>
</a>
</g>
</g>
<!-- Node8&#45;&gt;Node10 -->
<g id="edge11_Node000008_Node000010" class="edge">
<title>Node8&#45;&gt;Node10</title>
<g id="a_edge11_Node000008_Node000010"><a xlink:title=" ">
<path fill="none" stroke="#63b8ff" d="M335.75,-111.59C335.75,-104.86 335.75,-95.53 335.75,-87.15"/>
<polygon fill="#63b8ff" stroke="#63b8ff" points="339.25,-87.3 335.75,-77.3 332.25,-87.3 339.25,-87.3"/>
</a>
</g>
</g>
<!-- Node11 -->
<g id="Node000011" class="node">
<title>Node11</title>
<g id="a_Node000011"><a xlink:title=" ">
<polygon fill="#e0e0e0" stroke="#999999" points="475.38,-76 418.12,-76 418.12,-56 475.38,-56 475.38,-76"/>
<text text-anchor="middle" x="446.75" y="-62.5" font-family="Helvetica,sans-Serif" font-size="10.00">functional</text>
</a>
</g>
</g>
<!-- Node8&#45;&gt;Node11 -->
<g id="edge14_Node000008_Node000011" class="edge">
<title>Node8&#45;&gt;Node11</title>
<g id="a_edge14_Node000008_Node000011"><a xlink:title=" ">
<path fill="none" stroke="#63b8ff" d="M355.08,-111.59C372.33,-103.21 397.82,-90.8 417.55,-81.21"/>
<polygon fill="#63b8ff" stroke="#63b8ff" points="418.8,-84 426.26,-76.48 415.74,-77.71 418.8,-84"/>
</a>
</g>
</g>
<!-- Node10&#45;&gt;Node5 -->
<g id="edge12_Node000010_Node000005" class="edge">
<title>Node10&#45;&gt;Node5</title>
<g id="a_edge12_Node000010_Node000005"><a xlink:title=" ">
<path fill="none" stroke="#63b8ff" d="M326.34,-55.59C318.76,-48.01 307.88,-37.13 298.77,-28.02"/>
<polygon fill="#63b8ff" stroke="#63b8ff" points="301.59,-25.89 292.05,-21.3 296.64,-30.84 301.59,-25.89"/>
</a>
</g>
</g>
<!-- Node10&#45;&gt;Node9 -->
<g id="edge13_Node000010_Node000009" class="edge">
<title>Node10&#45;&gt;Node9</title>
<g id="a_edge13_Node000010_Node000009"><a xlink:title=" ">
<path fill="none" stroke="#63b8ff" d="M342.72,-55.59C348.17,-48.24 355.9,-37.8 362.52,-28.87"/>
<polygon fill="#63b8ff" stroke="#63b8ff" points="365.72,-31.42 368.86,-21.3 360.1,-27.25 365.72,-31.42"/>
</a>
</g>
</g>
</g>
</svg>
</svg>

<style type='text/css'>
<![CDATA[
[data-mouse-over-selected='false'] { opacity: 0.7; }
[data-mouse-over-selected='true']  { opacity: 1.0; }
]]>
</style>
<script type="application/ecmascript"><![CDATA[
document.addEventListener('DOMContentLoaded', (event) => {
  highlightEdges();
  highlightAdjacentNodes();
});
]]></script>
</svg>
