<?xml version="1.0" encoding="UTF-8" standalone="no"?>
<!DOCTYPE svg PUBLIC "-//W3C//DTD SVG 1.1//EN"
 "http://www.w3.org/Graphics/SVG/1.1/DTD/svg11.dtd">
<!-- Generated by graphviz version 8.1.0 (20230707.0739)
 -->
<!-- Title: ExoCode/src/Utilities.h Pages: 1 -->
<svg width="299pt" height="140pt"
 viewBox="0.00 0.00 298.88 140.00" xmlns="http://www.w3.org/2000/svg" xmlns:xlink="http://www.w3.org/1999/xlink">
<g id="graph0" class="graph" transform="scale(1 1) rotate(0) translate(4 136)">
<title>ExoCode/src/Utilities.h</title>
<!-- Node1 -->
<g id="Node000001" class="node">
<title>Node1</title>
<g id="a_Node000001"><a xlink:title=" ">
<polygon fill="#999999" stroke="#666666" points="202.62,-132 86.88,-132 86.88,-112 202.62,-112 202.62,-132"/>
<text text-anchor="middle" x="144.75" y="-118.5" font-family="Helvetica,sans-Serif" font-size="10.00">ExoCode/src/Utilities.h</text>
</a>
</g>
</g>
<!-- Node2 -->
<g id="Node000002" class="node">
<title>Node2</title>
<g id="a_Node000002"><a xlink:href="_parse_ini_8h.html" target="_top" xlink:title="Declares the functions needed and defines mapping between the INI keys and the exo components.">
<polygon fill="white" stroke="#666666" points="59.5,-76 0,-76 0,-56 59.5,-56 59.5,-76"/>
<text text-anchor="middle" x="29.75" y="-62.5" font-family="Helvetica,sans-Serif" font-size="10.00">ParseIni.h</text>
</a>
</g>
</g>
<!-- Node1&#45;&gt;Node2 -->
<g id="edge1_Node000001_Node000002" class="edge">
<title>Node1&#45;&gt;Node2</title>
<g id="a_edge1_Node000001_Node000002"><a xlink:title=" ">
<path fill="none" stroke="#63b8ff" d="M124.72,-111.59C106.77,-103.17 80.2,-90.69 59.72,-81.07"/>
<polygon fill="#63b8ff" stroke="#63b8ff" points="61.48,-77.56 50.94,-76.48 58.5,-83.9 61.48,-77.56"/>
</a>
</g>
</g>
<!-- Node3 -->
<g id="Node000003" class="node">
<title>Node3</title>
<g id="a_Node000003"><a xlink:title=" ">
<polygon fill="#e0e0e0" stroke="#999999" points="82.88,-20 34.62,-20 34.62,0 82.88,0 82.88,-20"/>
<text text-anchor="middle" x="58.75" y="-6.5" font-family="Helvetica,sans-Serif" font-size="10.00">stdint.h</text>
</a>
</g>
</g>
<!-- Node1&#45;&gt;Node3 -->
<g id="edge4_Node000001_Node000003" class="edge">
<title>Node1&#45;&gt;Node3</title>
<g id="a_edge4_Node000001_Node000003"><a xlink:title=" ">
<path fill="none" stroke="#63b8ff" d="M136.71,-111.84C128.89,-102.85 116.77,-88.68 106.75,-76 94.43,-60.41 81.05,-42.18 71.56,-29"/>
<polygon fill="#63b8ff" stroke="#63b8ff" points="74.07,-27.49 65.4,-21.4 68.38,-31.57 74.07,-27.49"/>
</a>
</g>
</g>
<!-- Node4 -->
<g id="Node000004" class="node">
<title>Node4</title>
<g id="a_Node000004"><a xlink:title=" ">
<polygon fill="#e0e0e0" stroke="#999999" points="173.38,-76 116.12,-76 116.12,-56 173.38,-56 173.38,-76"/>
<text text-anchor="middle" x="144.75" y="-62.5" font-family="Helvetica,sans-Serif" font-size="10.00">Arduino.h</text>
</a>
</g>
</g>
<!-- Node1&#45;&gt;Node4 -->
<g id="edge3_Node000001_Node000004" class="edge">
<title>Node1&#45;&gt;Node4</title>
<g id="a_edge3_Node000001_Node000004"><a xlink:title=" ">
<path fill="none" stroke="#63b8ff" d="M144.75,-111.59C144.75,-104.86 144.75,-95.53 144.75,-87.15"/>
<polygon fill="#63b8ff" stroke="#63b8ff" points="148.25,-87.3 144.75,-77.3 141.25,-87.3 148.25,-87.3"/>
</a>
</g>
</g>
<!-- Node5 -->
<g id="Node000005" class="node">
<title>Node5</title>
<g id="a_Node000005"><a xlink:title=" ">
<polygon fill="#e0e0e0" stroke="#999999" points="230.38,-76 191.12,-76 191.12,-56 230.38,-56 230.38,-76"/>
<text text-anchor="middle" x="210.75" y="-62.5" font-family="Helvetica,sans-Serif" font-size="10.00">utility</text>
</a>
</g>
</g>
<!-- Node1&#45;&gt;Node5 -->
<g id="edge5_Node000001_Node000005" class="edge">
<title>Node1&#45;&gt;Node5</title>
<g id="a_edge5_Node000001_Node000005"><a xlink:title=" ">
<path fill="none" stroke="#63b8ff" d="M156.25,-111.59C165.8,-103.77 179.63,-92.46 190.96,-83.19"/>
<polygon fill="#63b8ff" stroke="#63b8ff" points="192.86,-85.34 198.39,-76.3 188.43,-79.92 192.86,-85.34"/>
</a>
</g>
</g>
<!-- Node6 -->
<g id="Node000006" class="node">
<title>Node6</title>
<g id="a_Node000006"><a xlink:title=" ">
<polygon fill="#e0e0e0" stroke="#999999" points="290.88,-76 248.62,-76 248.62,-56 290.88,-56 290.88,-76"/>
<text text-anchor="middle" x="269.75" y="-62.5" font-family="Helvetica,sans-Serif" font-size="10.00">queue</text>
</a>
</g>
</g>
<!-- Node1&#45;&gt;Node6 -->
<g id="edge6_Node000001_Node000006" class="edge">
<title>Node1&#45;&gt;Node6</title>
<g id="a_edge6_Node000001_Node000006"><a xlink:title=" ">
<path fill="none" stroke="#63b8ff" d="M166.52,-111.59C186.33,-103.04 215.8,-90.31 238.19,-80.63"/>
<polygon fill="#63b8ff" stroke="#63b8ff" points="239.43,-83.48 247.23,-76.3 236.66,-77.05 239.43,-83.48"/>
</a>
</g>
</g>
<!-- Node2&#45;&gt;Node3 -->
<g id="edge2_Node000002_Node000003" class="edge">
<title>Node2&#45;&gt;Node3</title>
<g id="a_edge2_Node000002_Node000003"><a xlink:title=" ">
<path fill="none" stroke="#63b8ff" d="M34.8,-55.59C38.63,-48.47 44.01,-38.45 48.7,-29.72"/>
<polygon fill="#63b8ff" stroke="#63b8ff" points="52.11,-31.76 53.76,-21.3 45.94,-28.45 52.11,-31.76"/>
</a>
</g>
</g>
</g>
</svg>
