<?xml version="1.0" encoding="UTF-8" standalone="no"?>
<!DOCTYPE svg PUBLIC "-//W3C//DTD SVG 1.1//EN"
 "http://www.w3.org/Graphics/SVG/1.1/DTD/svg11.dtd">
<!-- Generated by graphviz version 8.1.0 (20230707.0739)
 -->
<!-- Title: ExoCode/src/Utilities.h Pages: 1 -->
<svg width="1040pt" height="308pt"
 viewBox="0.00 0.00 1039.50 308.00" xmlns="http://www.w3.org/2000/svg" xmlns:xlink="http://www.w3.org/1999/xlink">
<g id="graph0" class="graph" transform="scale(1 1) rotate(0) translate(4 304)">
<title>ExoCode/src/Utilities.h</title>
<!-- Node1 -->
<g id="Node000001" class="node">
<title>Node1</title>
<g id="a_Node000001"><a xlink:title=" ">
<polygon fill="#999999" stroke="#666666" points="531.25,-300 415.5,-300 415.5,-280 531.25,-280 531.25,-300"/>
<text text-anchor="middle" x="473.38" y="-286.5" font-family="Helvetica,sans-Serif" font-size="10.00">ExoCode/src/Utilities.h</text>
</a>
</g>
</g>
<!-- Node2 -->
<g id="Node000002" class="node">
<title>Node2</title>
<g id="a_Node000002"><a xlink:href="_ankle_angles_8cpp.html" target="_top" xlink:title=" ">
<polygon fill="white" stroke="#666666" points="148.75,-244 0,-244 0,-224 148.75,-224 148.75,-244"/>
<text text-anchor="middle" x="74.38" y="-230.5" font-family="Helvetica,sans-Serif" font-size="10.00">ExoCode/src/AnkleAngles.cpp</text>
</a>
</g>
</g>
<!-- Node1&#45;&gt;Node2 -->
<g id="edge1_Node000001_Node000002" class="edge">
<title>Node1&#45;&gt;Node2</title>
<g id="a_edge1_Node000001_Node000002"><a xlink:title=" ">
<path fill="none" stroke="#63b8ff" d="M404.5,-279.68C331.79,-269.84 217.77,-254.41 144.57,-244.5"/>
<polygon fill="#63b8ff" stroke="#63b8ff" points="403.98,-283.28 414.36,-281.15 404.92,-276.34 403.98,-283.28"/>
</a>
</g>
</g>
<!-- Node3 -->
<g id="Node000003" class="node">
<title>Node3</title>
<g id="a_Node000003"><a xlink:href="_ble_parser_8cpp.html" target="_top" xlink:title=" ">
<polygon fill="white" stroke="#666666" points="465.75,-20 329,-20 329,0 465.75,0 465.75,-20"/>
<text text-anchor="middle" x="397.38" y="-6.5" font-family="Helvetica,sans-Serif" font-size="10.00">ExoCode/src/BleParser.cpp</text>
</a>
</g>
</g>
<!-- Node1&#45;&gt;Node3 -->
<g id="edge2_Node000001_Node000003" class="edge">
<title>Node1&#45;&gt;Node3</title>
<g id="a_edge2_Node000001_Node000003"><a xlink:title=" ">
<path fill="none" stroke="#63b8ff" d="M404.46,-286.11C332.39,-281.68 225.61,-270.71 195.38,-244 172.82,-224.08 176.38,-209.1 176.38,-179 176.38,-179 176.38,-179 176.38,-121 176.38,-52 263.79,-26.28 328.66,-16.7"/>
<polygon fill="#63b8ff" stroke="#63b8ff" points="404.09,-289.65 414.27,-286.74 404.49,-282.66 404.09,-289.65"/>
</a>
</g>
</g>
<!-- Node4 -->
<g id="Node000004" class="node">
<title>Node4</title>
<g id="a_Node000004"><a xlink:href="_inclination_detector_8cpp.html" target="_top" xlink:title=" ">
<polygon fill="white" stroke="#666666" points="378.5,-244 204.25,-244 204.25,-224 378.5,-224 378.5,-244"/>
<text text-anchor="middle" x="291.38" y="-230.5" font-family="Helvetica,sans-Serif" font-size="10.00">ExoCode/src/InclinationDetector.cpp</text>
</a>
</g>
</g>
<!-- Node1&#45;&gt;Node4 -->
<g id="edge3_Node000001_Node000004" class="edge">
<title>Node1&#45;&gt;Node4</title>
<g id="a_edge3_Node000001_Node000004"><a xlink:title=" ">
<path fill="none" stroke="#63b8ff" d="M431.45,-276.56C398.52,-266.79 353.37,-253.39 323.32,-244.48"/>
<polygon fill="#63b8ff" stroke="#63b8ff" points="430.09,-280.1 440.67,-279.59 432.08,-273.39 430.09,-280.1"/>
</a>
</g>
</g>
<!-- Node5 -->
<g id="Node000005" class="node">
<title>Node5</title>
<g id="a_Node000005"><a xlink:href="_params_from_s_d_8h.html" target="_top" xlink:title="Declares the functions to pull controller parameters from the SD card and defines the mapping to the ...">
<polygon fill="white" stroke="#666666" points="550,-244 396.75,-244 396.75,-224 550,-224 550,-244"/>
<text text-anchor="middle" x="473.38" y="-230.5" font-family="Helvetica,sans-Serif" font-size="10.00">ExoCode/src/ParamsFromSD.h</text>
</a>
</g>
</g>
<!-- Node1&#45;&gt;Node5 -->
<g id="edge4_Node000001_Node000005" class="edge">
<title>Node1&#45;&gt;Node5</title>
<g id="a_edge4_Node000001_Node000005"><a xlink:title=" ">
<path fill="none" stroke="#63b8ff" d="M473.38,-268.71C473.38,-260.32 473.38,-251.01 473.38,-244.3"/>
<polygon fill="#63b8ff" stroke="#63b8ff" points="469.88,-268.59 473.38,-278.59 476.88,-268.59 469.88,-268.59"/>
</a>
</g>
</g>
<!-- Node13 -->
<g id="Node000013" class="node">
<title>Node13</title>
<g id="a_Node000013"><a xlink:href="_real_time_i2_c_8cpp.html" target="_top" xlink:title=" ">
<polygon fill="white" stroke="#666666" points="716.75,-244 568,-244 568,-224 716.75,-224 716.75,-244"/>
<text text-anchor="middle" x="642.38" y="-230.5" font-family="Helvetica,sans-Serif" font-size="10.00">ExoCode/src/RealTimeI2C.cpp</text>
</a>
</g>
</g>
<!-- Node1&#45;&gt;Node13 -->
<g id="edge15_Node000001_Node000013" class="edge">
<title>Node1&#45;&gt;Node13</title>
<g id="a_edge15_Node000001_Node000013"><a xlink:title=" ">
<path fill="none" stroke="#63b8ff" d="M513.1,-276.31C543.61,-266.56 585.05,-253.32 612.71,-244.48"/>
<polygon fill="#63b8ff" stroke="#63b8ff" points="512.27,-273.22 503.81,-279.59 514.4,-279.88 512.27,-273.22"/>
</a>
</g>
</g>
<!-- Node14 -->
<g id="Node000014" class="node">
<title>Node14</title>
<g id="a_Node000014"><a xlink:href="_u_a_r_t_handler_8cpp.html" target="_top" xlink:title=" ">
<polygon fill="white" stroke="#666666" points="887.62,-244 735.12,-244 735.12,-224 887.62,-224 887.62,-244"/>
<text text-anchor="middle" x="811.38" y="-230.5" font-family="Helvetica,sans-Serif" font-size="10.00">ExoCode/src/UARTHandler.cpp</text>
</a>
</g>
</g>
<!-- Node1&#45;&gt;Node14 -->
<g id="edge16_Node000001_Node000014" class="edge">
<title>Node1&#45;&gt;Node14</title>
<g id="a_edge16_Node000001_Node000014"><a xlink:title=" ">
<path fill="none" stroke="#63b8ff" d="M542.28,-277.99C603.97,-268.14 693.47,-253.84 752.04,-244.48"/>
<polygon fill="#63b8ff" stroke="#63b8ff" points="541.8,-274.68 532.48,-279.72 542.91,-281.6 541.8,-274.68"/>
</a>
</g>
</g>
<!-- Node15 -->
<g id="Node000015" class="node">
<title>Node15</title>
<g id="a_Node000015"><a xlink:href="_utilities_8cpp.html" target="_top" xlink:title=" ">
<polygon fill="white" stroke="#666666" points="1031.5,-244 905.25,-244 905.25,-224 1031.5,-224 1031.5,-244"/>
<text text-anchor="middle" x="968.38" y="-230.5" font-family="Helvetica,sans-Serif" font-size="10.00">ExoCode/src/Utilities.cpp</text>
</a>
</g>
</g>
<!-- Node1&#45;&gt;Node15 -->
<g id="edge17_Node000001_Node000015" class="edge">
<title>Node1&#45;&gt;Node15</title>
<g id="a_edge17_Node000001_Node000015"><a xlink:title=" ">
<path fill="none" stroke="#63b8ff" d="M542.48,-282.04C626.26,-273.51 771.75,-258.42 896.38,-244 899.13,-243.68 901.94,-243.35 904.78,-243.01"/>
<polygon fill="#63b8ff" stroke="#63b8ff" points="542.17,-278.66 532.57,-283.15 542.87,-285.62 542.17,-278.66"/>
</a>
</g>
</g>
<!-- Node6 -->
<g id="Node000006" class="node">
<title>Node6</title>
<g id="a_Node000006"><a xlink:href="_exo_data_8cpp.html" target="_top" xlink:title=" ">
<polygon fill="white" stroke="#666666" points="336.12,-188 204.62,-188 204.62,-168 336.12,-168 336.12,-188"/>
<text text-anchor="middle" x="270.38" y="-174.5" font-family="Helvetica,sans-Serif" font-size="10.00">ExoCode/src/ExoData.cpp</text>
</a>
</g>
</g>
<!-- Node5&#45;&gt;Node6 -->
<g id="edge5_Node000005_Node000006" class="edge">
<title>Node5&#45;&gt;Node6</title>
<g id="a_edge5_Node000005_Node000006"><a xlink:title=" ">
<path fill="none" stroke="#63b8ff" d="M427.56,-220.81C390.76,-211.02 339.81,-197.47 306.01,-188.48"/>
<polygon fill="#63b8ff" stroke="#63b8ff" points="426.45,-224.41 437.02,-223.59 428.25,-217.64 426.45,-224.41"/>
</a>
</g>
</g>
<!-- Node7 -->
<g id="Node000007" class="node">
<title>Node7</title>
<g id="a_Node000007"><a xlink:href="_params_from_s_d_8cpp.html" target="_top" xlink:title=" ">
<polygon fill="white" stroke="#666666" points="518.25,-188 354.5,-188 354.5,-168 518.25,-168 518.25,-188"/>
<text text-anchor="middle" x="436.38" y="-174.5" font-family="Helvetica,sans-Serif" font-size="10.00">ExoCode/src/ParamsFromSD.cpp</text>
</a>
</g>
</g>
<!-- Node5&#45;&gt;Node7 -->
<g id="edge6_Node000005_Node000007" class="edge">
<title>Node5&#45;&gt;Node7</title>
<g id="a_edge6_Node000005_Node000007"><a xlink:title=" ">
<path fill="none" stroke="#63b8ff" d="M460.85,-214.72C454.76,-205.84 447.71,-195.55 442.75,-188.3"/>
<polygon fill="#63b8ff" stroke="#63b8ff" points="458.39,-216.32 466.93,-222.59 464.17,-212.37 458.39,-216.32"/>
</a>
</g>
</g>
<!-- Node8 -->
<g id="Node000008" class="node">
<title>Node8</title>
<g id="a_Node000008"><a xlink:href="ble__commands_8h.html" target="_top" xlink:title="This file declares the BLE commands, and the functions that should be called when they are received.">
<polygon fill="white" stroke="#666666" points="563.12,-132 413.62,-132 413.62,-112 563.12,-112 563.12,-132"/>
<text text-anchor="middle" x="488.38" y="-118.5" font-family="Helvetica,sans-Serif" font-size="10.00">ExoCode/src/ble_commands.h</text>
</a>
</g>
</g>
<!-- Node5&#45;&gt;Node8 -->
<g id="edge7_Node000005_Node000008" class="edge">
<title>Node5&#45;&gt;Node8</title>
<g id="a_edge7_Node000005_Node000008"><a xlink:title=" ">
<path fill="none" stroke="#63b8ff" d="M500.53,-217.61C510.94,-210.14 521.69,-200.14 527.38,-188 537.09,-167.26 515.58,-144.69 500.81,-132.35"/>
<polygon fill="#63b8ff" stroke="#63b8ff" points="499.01,-215.08 492.59,-223.51 502.86,-220.92 499.01,-215.08"/>
</a>
</g>
</g>
<!-- Node10 -->
<g id="Node000010" class="node">
<title>Node10</title>
<g id="a_Node000010"><a xlink:href="uart__commands_8h.html" target="_top" xlink:title=" ">
<polygon fill="white" stroke="#666666" points="728,-188 574.75,-188 574.75,-168 728,-168 728,-188"/>
<text text-anchor="middle" x="651.38" y="-174.5" font-family="Helvetica,sans-Serif" font-size="10.00">ExoCode/src/uart_commands.h</text>
</a>
</g>
</g>
<!-- Node5&#45;&gt;Node10 -->
<g id="edge11_Node000005_Node000010" class="edge">
<title>Node5&#45;&gt;Node10</title>
<g id="a_edge11_Node000005_Node000010"><a xlink:title=" ">
<path fill="none" stroke="#63b8ff" d="M514.8,-220.43C546.97,-210.67 590.87,-197.35 620.13,-188.48"/>
<polygon fill="#63b8ff" stroke="#63b8ff" points="513.93,-217.34 505.38,-223.59 515.97,-224.04 513.93,-217.34"/>
</a>
</g>
</g>
<!-- Node8&#45;&gt;Node3 -->
<g id="edge8_Node000008_Node000003" class="edge">
<title>Node8&#45;&gt;Node3</title>
<g id="a_edge8_Node000008_Node000003"><a xlink:title=" ">
<path fill="none" stroke="#63b8ff" d="M455.07,-106.77C441.33,-99.39 426.33,-89.14 416.38,-76 403.6,-59.13 399.39,-33.85 398.03,-20.32"/>
<polygon fill="#63b8ff" stroke="#63b8ff" points="453.25,-110.27 463.76,-111.63 456.39,-104.01 453.25,-110.27"/>
</a>
</g>
</g>
<!-- Node9 -->
<g id="Node000009" class="node">
<title>Node9</title>
<g id="a_Node000009"><a xlink:href="_ble_parser_8h.html" target="_top" xlink:title="This class is used to serialize and deserialize the BLE data. The application uses Nordic&#39;s UART serv...">
<polygon fill="white" stroke="#666666" points="551.5,-76 425.25,-76 425.25,-56 551.5,-56 551.5,-76"/>
<text text-anchor="middle" x="488.38" y="-62.5" font-family="Helvetica,sans-Serif" font-size="10.00">ExoCode/src/BleParser.h</text>
</a>
</g>
</g>
<!-- Node8&#45;&gt;Node9 -->
<g id="edge9_Node000008_Node000009" class="edge">
<title>Node8&#45;&gt;Node9</title>
<g id="a_edge9_Node000008_Node000009"><a xlink:title=" ">
<path fill="none" stroke="#63b8ff" d="M488.38,-100.71C488.38,-92.32 488.38,-83.01 488.38,-76.3"/>
<polygon fill="#63b8ff" stroke="#63b8ff" points="484.88,-100.59 488.38,-110.59 491.88,-100.59 484.88,-100.59"/>
</a>
</g>
</g>
<!-- Node9&#45;&gt;Node3 -->
<g id="edge10_Node000009_Node000003" class="edge">
<title>Node9&#45;&gt;Node3</title>
<g id="a_edge10_Node000009_Node000003"><a xlink:title=" ">
<path fill="none" stroke="#63b8ff" d="M463.23,-50.08C447.29,-40.62 427.14,-28.66 413.35,-20.48"/>
<polygon fill="#63b8ff" stroke="#63b8ff" points="461.14,-53.5 471.52,-55.59 464.71,-47.48 461.14,-53.5"/>
</a>
</g>
</g>
<!-- Node10&#45;&gt;Node8 -->
<g id="edge14_Node000010_Node000008" class="edge">
<title>Node10&#45;&gt;Node8</title>
<g id="a_edge14_Node000010_Node000008"><a xlink:title=" ">
<path fill="none" stroke="#63b8ff" d="M612.67,-164.18C583.29,-154.44 543.55,-141.28 516.99,-132.48"/>
<polygon fill="#63b8ff" stroke="#63b8ff" points="611.39,-167.77 621.98,-167.59 613.59,-161.13 611.39,-167.77"/>
</a>
</g>
</g>
<!-- Node11 -->
<g id="Node000011" class="node">
<title>Node11</title>
<g id="a_Node000011"><a xlink:href="_coms_m_c_u_8cpp.html" target="_top" xlink:title=" ">
<polygon fill="white" stroke="#666666" points="722,-132 580.75,-132 580.75,-112 722,-112 722,-132"/>
<text text-anchor="middle" x="651.38" y="-118.5" font-family="Helvetica,sans-Serif" font-size="10.00">ExoCode/src/ComsMCU.cpp</text>
</a>
</g>
</g>
<!-- Node10&#45;&gt;Node11 -->
<g id="edge12_Node000010_Node000011" class="edge">
<title>Node10&#45;&gt;Node11</title>
<g id="a_edge12_Node000010_Node000011"><a xlink:title=" ">
<path fill="none" stroke="#63b8ff" d="M651.38,-156.71C651.38,-148.32 651.38,-139.01 651.38,-132.3"/>
<polygon fill="#63b8ff" stroke="#63b8ff" points="647.88,-156.59 651.38,-166.59 654.88,-156.59 647.88,-156.59"/>
</a>
</g>
</g>
<!-- Node12 -->
<g id="Node000012" class="node">
<title>Node12</title>
<g id="a_Node000012"><a xlink:href="_exo_8cpp.html" target="_top" xlink:title=" ">
<polygon fill="white" stroke="#666666" points="851,-132 739.75,-132 739.75,-112 851,-112 851,-132"/>
<text text-anchor="middle" x="795.38" y="-118.5" font-family="Helvetica,sans-Serif" font-size="10.00">ExoCode/src/Exo.cpp</text>
</a>
</g>
</g>
<!-- Node10&#45;&gt;Node12 -->
<g id="edge13_Node000010_Node000012" class="edge">
<title>Node10&#45;&gt;Node12</title>
<g id="a_edge13_Node000010_Node000012"><a xlink:title=" ">
<path fill="none" stroke="#63b8ff" d="M686.6,-163.79C712.45,-154.1 746.94,-141.16 770.1,-132.48"/>
<polygon fill="#63b8ff" stroke="#63b8ff" points="685.59,-160.81 677.46,-167.59 688.05,-167.36 685.59,-160.81"/>
</a>
</g>
</g>
</g>
</svg>
