<?xml version="1.0" encoding="UTF-8" standalone="no"?>
<!DOCTYPE svg PUBLIC "-//W3C//DTD SVG 1.1//EN"
 "http://www.w3.org/Graphics/SVG/1.1/DTD/svg11.dtd">
<!-- Generated by graphviz version 8.1.0 (20230707.0739)
 -->
<!-- Title: ExoCode/src/ble_commands.h Pages: 1 -->
<svg width="1513pt" height="532pt"
 viewBox="0.00 0.00 1513.00 532.00" xmlns="http://www.w3.org/2000/svg" xmlns:xlink="http://www.w3.org/1999/xlink">
<g id="graph0" class="graph" transform="scale(1 1) rotate(0) translate(4 528)">
<title>ExoCode/src/ble_commands.h</title>
<!-- Node1 -->
<g id="Node000001" class="node">
<title>Node1</title>
<g id="a_Node000001"><a xlink:title="This file declares the BLE commands, and the functions that should be called when they are received.">
<polygon fill="#999999" stroke="#666666" points="1064.75,-524 915.25,-524 915.25,-504 1064.75,-504 1064.75,-524"/>
<text text-anchor="middle" x="990" y="-510.5" font-family="Helvetica,sans-Serif" font-size="10.00">ExoCode/src/ble_commands.h</text>
</a>
</g>
</g>
<!-- Node2 -->
<g id="Node000002" class="node">
<title>Node2</title>
<g id="a_Node000002"><a xlink:title=" ">
<polygon fill="#e0e0e0" stroke="#999999" points="1061.62,-20 1004.38,-20 1004.38,0 1061.62,0 1061.62,-20"/>
<text text-anchor="middle" x="1033" y="-6.5" font-family="Helvetica,sans-Serif" font-size="10.00">Arduino.h</text>
</a>
</g>
</g>
<!-- Node1&#45;&gt;Node2 -->
<g id="edge1_Node000001_Node000002" class="edge">
<title>Node1&#45;&gt;Node2</title>
<g id="a_edge1_Node000001_Node000002"><a xlink:title=" ">
<path fill="none" stroke="#63b8ff" d="M1065.16,-512.39C1208.1,-509.19 1505,-491.86 1505,-403 1505,-403 1505,-403 1505,-121 1505,-82.58 1482.09,-73.72 1448,-56 1383.25,-22.34 1163.55,-13.79 1072.76,-11.67"/>
<polygon fill="#63b8ff" stroke="#63b8ff" points="1072.92,-8.16 1062.84,-11.44 1072.76,-15.15 1072.92,-8.16"/>
</a>
</g>
</g>
<!-- Node3 -->
<g id="Node000003" class="node">
<title>Node3</title>
<g id="a_Node000003"><a xlink:href="_exo_data_8h.html" target="_top" xlink:title="Declares a class used to store data for the Exo to access.">
<polygon fill="white" stroke="#666666" points="586.88,-356 525.12,-356 525.12,-336 586.88,-336 586.88,-356"/>
<text text-anchor="middle" x="556" y="-342.5" font-family="Helvetica,sans-Serif" font-size="10.00">ExoData.h</text>
</a>
</g>
</g>
<!-- Node1&#45;&gt;Node3 -->
<g id="edge2_Node000001_Node000003" class="edge">
<title>Node1&#45;&gt;Node3</title>
<g id="a_edge2_Node000001_Node000003"><a xlink:title=" ">
<path fill="none" stroke="#63b8ff" d="M915.01,-503.66C809.45,-489.05 624.46,-457.67 576,-412 563.78,-400.49 558.97,-381.71 557.1,-367.29"/>
<polygon fill="#63b8ff" stroke="#63b8ff" points="560.51,-367.11 556.13,-357.46 553.54,-367.73 560.51,-367.11"/>
</a>
</g>
</g>
<!-- Node7 -->
<g id="Node000007" class="node">
<title>Node7</title>
<g id="a_Node000007"><a xlink:href="_parse_ini_8h.html" target="_top" xlink:title="Declares the functions needed and defines mapping between the INI keys and the exo components.">
<polygon fill="white" stroke="#666666" points="463.75,-132 404.25,-132 404.25,-112 463.75,-112 463.75,-132"/>
<text text-anchor="middle" x="434" y="-118.5" font-family="Helvetica,sans-Serif" font-size="10.00">ParseIni.h</text>
</a>
</g>
</g>
<!-- Node1&#45;&gt;Node7 -->
<g id="edge43_Node000001_Node000007" class="edge">
<title>Node1&#45;&gt;Node7</title>
<g id="a_edge43_Node000001_Node000007"><a xlink:title=" ">
<path fill="none" stroke="#63b8ff" d="M914.82,-510.71C770.26,-505.8 458.57,-492.66 354,-468 280.49,-450.67 197,-478.52 197,-403 197,-403 197,-403 197,-345 197,-235.56 333.27,-164.45 399.15,-136.46"/>
<polygon fill="#63b8ff" stroke="#63b8ff" points="400.19,-139.4 408.08,-132.34 397.51,-132.94 400.19,-139.4"/>
</a>
</g>
</g>
<!-- Node17 -->
<g id="Node000017" class="node">
<title>Node17</title>
<g id="a_Node000017"><a xlink:href="_status_defs_8h.html" target="_top" xlink:title="Stores the different status messages for the system.">
<polygon fill="white" stroke="#666666" points="1021.12,-188 948.88,-188 948.88,-168 1021.12,-168 1021.12,-188"/>
<text text-anchor="middle" x="985" y="-174.5" font-family="Helvetica,sans-Serif" font-size="10.00">StatusDefs.h</text>
</a>
</g>
</g>
<!-- Node1&#45;&gt;Node17 -->
<g id="edge44_Node000001_Node000017" class="edge">
<title>Node1&#45;&gt;Node17</title>
<g id="a_edge44_Node000001_Node000017"><a xlink:title=" ">
<path fill="none" stroke="#63b8ff" d="M985.04,-503.67C980.62,-494.78 974.48,-480.89 972,-468 970.32,-459.27 971.8,-456.89 972,-448 974.22,-348.37 976.46,-323.5 982,-224 982.45,-215.89 983.03,-206.97 983.56,-199.23"/>
<polygon fill="#63b8ff" stroke="#63b8ff" points="987.11,-199.52 984.32,-189.3 980.13,-199.04 987.11,-199.52"/>
</a>
</g>
</g>
<!-- Node18 -->
<g id="Node000018" class="node">
<title>Node18</title>
<g id="a_Node000018"><a xlink:href="_ble_message_8h.html" target="_top" xlink:title="Defines the BleMessage class used to hold command&#45;data pairs exchanged between the GUI.">
<polygon fill="white" stroke="#666666" points="441.12,-468 362.88,-468 362.88,-448 441.12,-448 441.12,-468"/>
<text text-anchor="middle" x="402" y="-454.5" font-family="Helvetica,sans-Serif" font-size="10.00">BleMessage.h</text>
</a>
</g>
</g>
<!-- Node1&#45;&gt;Node18 -->
<g id="edge45_Node000001_Node000018" class="edge">
<title>Node1&#45;&gt;Node18</title>
<g id="a_edge45_Node000001_Node000018"><a xlink:title=" ">
<path fill="none" stroke="#63b8ff" d="M914.95,-507.97C812.77,-500.81 624.25,-486.47 464,-468 460.1,-467.55 456.06,-467.05 452.01,-466.52"/>
<polygon fill="#63b8ff" stroke="#63b8ff" points="452.69,-462.94 442.31,-465.06 451.75,-469.88 452.69,-462.94"/>
</a>
</g>
</g>
<!-- Node20 -->
<g id="Node000020" class="node">
<title>Node20</title>
<g id="a_Node000020"><a xlink:href="_params_from_s_d_8h.html" target="_top" xlink:title="Declares the functions to pull controller parameters from the SD card and defines the mapping to the ...">
<polygon fill="white" stroke="#666666" points="503,-412 409,-412 409,-392 503,-392 503,-412"/>
<text text-anchor="middle" x="456" y="-398.5" font-family="Helvetica,sans-Serif" font-size="10.00">ParamsFromSD.h</text>
</a>
</g>
</g>
<!-- Node1&#45;&gt;Node20 -->
<g id="edge47_Node000001_Node000020" class="edge">
<title>Node1&#45;&gt;Node20</title>
<g id="a_edge47_Node000001_Node000020"><a xlink:title=" ">
<path fill="none" stroke="#63b8ff" d="M915.08,-511.6C801.73,-508.51 592.67,-498.71 525,-468 501.92,-457.52 481.63,-436.12 469.13,-420.74"/>
<polygon fill="#63b8ff" stroke="#63b8ff" points="471.31,-418.83 462.4,-413.08 465.78,-423.13 471.31,-418.83"/>
</a>
</g>
</g>
<!-- Node26 -->
<g id="Node000026" class="node">
<title>Node26</title>
<g id="a_Node000026"><a xlink:href="_u_a_r_t_handler_8h.html" target="_top" xlink:title="Singleton class that manages the UART data. NOT THREAD SAFE. The class queues recieved messages.">
<polygon fill="white" stroke="#666666" points="1214.38,-412 1131.62,-412 1131.62,-392 1214.38,-392 1214.38,-412"/>
<text text-anchor="middle" x="1173" y="-398.5" font-family="Helvetica,sans-Serif" font-size="10.00">UARTHandler.h</text>
</a>
</g>
</g>
<!-- Node1&#45;&gt;Node26 -->
<g id="edge60_Node000001_Node000026" class="edge">
<title>Node1&#45;&gt;Node26</title>
<g id="a_edge60_Node000001_Node000026"><a xlink:title=" ">
<path fill="none" stroke="#63b8ff" d="M1012.63,-503.57C1032.06,-495.15 1060.55,-482.01 1084,-468 1109.04,-453.04 1135.81,-432.85 1153.38,-418.96"/>
<polygon fill="#63b8ff" stroke="#63b8ff" points="1155.04,-421.31 1160.67,-412.34 1150.67,-415.85 1155.04,-421.31"/>
</a>
</g>
</g>
<!-- Node27 -->
<g id="Node000027" class="node">
<title>Node27</title>
<g id="a_Node000027"><a xlink:href="_u_a_r_t__msg__t_8h.html" target="_top" xlink:title=" ">
<polygon fill="white" stroke="#666666" points="1321,-356 1239,-356 1239,-336 1321,-336 1321,-356"/>
<text text-anchor="middle" x="1280" y="-342.5" font-family="Helvetica,sans-Serif" font-size="10.00">UART_msg_t.h</text>
</a>
</g>
</g>
<!-- Node1&#45;&gt;Node27 -->
<g id="edge81_Node000001_Node000027" class="edge">
<title>Node1&#45;&gt;Node27</title>
<g id="a_edge81_Node000001_Node000027"><a xlink:title=" ">
<path fill="none" stroke="#63b8ff" d="M1046.61,-503.54C1103.76,-491.35 1191.42,-465.06 1248,-412 1261.18,-399.64 1269.64,-380.7 1274.53,-366.44"/>
<polygon fill="#63b8ff" stroke="#63b8ff" points="1278.08,-367.82 1277.71,-357.23 1271.4,-365.74 1278.08,-367.82"/>
</a>
</g>
</g>
<!-- Node28 -->
<g id="Node000028" class="node">
<title>Node28</title>
<g id="a_Node000028"><a xlink:href="_logger_8h.html" target="_top" xlink:title=" ">
<polygon fill="white" stroke="#666666" points="1413.75,-300 1360.25,-300 1360.25,-280 1413.75,-280 1413.75,-300"/>
<text text-anchor="middle" x="1387" y="-286.5" font-family="Helvetica,sans-Serif" font-size="10.00">Logger.h</text>
</a>
</g>
</g>
<!-- Node1&#45;&gt;Node28 -->
<g id="edge82_Node000001_Node000028" class="edge">
<title>Node1&#45;&gt;Node28</title>
<g id="a_edge82_Node000001_Node000028"><a xlink:title=" ">
<path fill="none" stroke="#63b8ff" d="M1061.4,-503.51C1101.19,-496.68 1151.02,-485.5 1193,-468 1273.12,-434.6 1297.13,-422.44 1353,-356 1364.64,-342.16 1373.83,-323.67 1379.71,-309.95"/>
<polygon fill="#63b8ff" stroke="#63b8ff" points="1383.17,-311.73 1383.69,-301.15 1376.68,-309.09 1383.17,-311.73"/>
</a>
</g>
</g>
<!-- Node30 -->
<g id="Node000030" class="node">
<title>Node30</title>
<g id="a_Node000030"><a xlink:href="uart__commands_8h.html" target="_top" xlink:title=" ">
<polygon fill="white" stroke="#666666" points="1075,-468 981,-468 981,-448 1075,-448 1075,-468"/>
<text text-anchor="middle" x="1028" y="-454.5" font-family="Helvetica,sans-Serif" font-size="10.00">uart_commands.h</text>
</a>
</g>
</g>
<!-- Node1&#45;&gt;Node30 -->
<g id="edge70_Node000001_Node000030" class="edge">
<title>Node1&#45;&gt;Node30</title>
<g id="a_edge70_Node000001_Node000030"><a xlink:title=" ">
<path fill="none" stroke="#63b8ff" d="M996.62,-503.59C1001.74,-496.32 1008.99,-486.02 1015.23,-477.15"/>
<polygon fill="#63b8ff" stroke="#63b8ff" points="1018.56,-479.49 1021.46,-469.3 1012.84,-475.46 1018.56,-479.49"/>
</a>
</g>
</g>
<!-- Node3&#45;&gt;Node2 -->
<g id="edge3_Node000003_Node000002" class="edge">
<title>Node3&#45;&gt;Node2</title>
<g id="a_edge3_Node000003_Node000002"><a xlink:title=" ">
<path fill="none" stroke="#63b8ff" d="M524.92,-340.52C407.83,-323.43 0,-261.97 0,-235 0,-235 0,-235 0,-121 0,-80.46 26.98,-72.52 64,-56 149.73,-17.74 821.33,-11.99 993.1,-11.14"/>
<polygon fill="#63b8ff" stroke="#63b8ff" points="992.92,-14.64 1002.91,-11.09 992.89,-7.64 992.92,-14.64"/>
</a>
</g>
</g>
<!-- Node4 -->
<g id="Node000004" class="node">
<title>Node4</title>
<g id="a_Node000004"><a xlink:href="_leg_data_8h.html" target="_top" xlink:title="Declares a class used to store data for leg to access.">
<polygon fill="white" stroke="#666666" points="437.12,-300 376.88,-300 376.88,-280 437.12,-280 437.12,-300"/>
<text text-anchor="middle" x="407" y="-286.5" font-family="Helvetica,sans-Serif" font-size="10.00">LegData.h</text>
</a>
</g>
</g>
<!-- Node3&#45;&gt;Node4 -->
<g id="edge4_Node000003_Node000004" class="edge">
<title>Node3&#45;&gt;Node4</title>
<g id="a_edge4_Node000003_Node000004"><a xlink:title=" ">
<path fill="none" stroke="#63b8ff" d="M530.05,-335.59C506.05,-326.9 470.15,-313.89 443.32,-304.16"/>
<polygon fill="#63b8ff" stroke="#63b8ff" points="444.75,-300.6 434.16,-300.48 442.37,-307.18 444.75,-300.6"/>
</a>
</g>
</g>
<!-- Node3&#45;&gt;Node7 -->
<g id="edge34_Node000003_Node000007" class="edge">
<title>Node3&#45;&gt;Node7</title>
<g id="a_edge34_Node000003_Node000007"><a xlink:title=" ">
<path fill="none" stroke="#63b8ff" d="M538.47,-335.66C524.14,-327.48 503.89,-314.64 489,-300 467.37,-278.74 460.96,-272.28 450,-244 436.96,-210.37 434.19,-167.96 433.79,-143.32"/>
<polygon fill="#63b8ff" stroke="#63b8ff" points="437.29,-143.47 433.76,-133.48 430.29,-143.49 437.29,-143.47"/>
</a>
</g>
</g>
<!-- Node8 -->
<g id="Node000008" class="node">
<title>Node8</title>
<g id="a_Node000008"><a xlink:title=" ">
<polygon fill="#e0e0e0" stroke="#999999" points="563.12,-76 514.88,-76 514.88,-56 563.12,-56 563.12,-76"/>
<text text-anchor="middle" x="539" y="-62.5" font-family="Helvetica,sans-Serif" font-size="10.00">stdint.h</text>
</a>
</g>
</g>
<!-- Node3&#45;&gt;Node8 -->
<g id="edge33_Node000003_Node000008" class="edge">
<title>Node3&#45;&gt;Node8</title>
<g id="a_edge33_Node000003_Node000008"><a xlink:title=" ">
<path fill="none" stroke="#63b8ff" d="M555.43,-335.75C553.03,-296.42 543.62,-142.58 540.23,-87.09"/>
<polygon fill="#63b8ff" stroke="#63b8ff" points="543.67,-87.05 539.57,-77.28 536.68,-87.48 543.67,-87.05"/>
</a>
</g>
</g>
<!-- Node9 -->
<g id="Node000009" class="node">
<title>Node9</title>
<g id="a_Node000009"><a xlink:href="_board_8h.html" target="_top" xlink:title=" ">
<polygon fill="white" stroke="#666666" points="1004.88,-132 955.12,-132 955.12,-112 1004.88,-112 1004.88,-132"/>
<text text-anchor="middle" x="980" y="-118.5" font-family="Helvetica,sans-Serif" font-size="10.00">Board.h</text>
</a>
</g>
</g>
<!-- Node3&#45;&gt;Node9 -->
<g id="edge35_Node000003_Node000009" class="edge">
<title>Node3&#45;&gt;Node9</title>
<g id="a_edge35_Node000003_Node000009"><a xlink:title=" ">
<path fill="none" stroke="#63b8ff" d="M587.07,-344.32C689.72,-341.3 1014.46,-325.36 1068,-244 1082.21,-222.4 1056.17,-180.75 1046,-168 1036.08,-155.56 1021.79,-145.23 1009.04,-137.62"/>
<polygon fill="#63b8ff" stroke="#63b8ff" points="1011.12,-134.21 1000.69,-132.34 1007.68,-140.3 1011.12,-134.21"/>
</a>
</g>
</g>
<!-- Node16 -->
<g id="Node000016" class="node">
<title>Node16</title>
<g id="a_Node000016"><a xlink:href="_status_led_8h.html" target="_top" xlink:title="Class to set an RGB LED to different colors based on the state of the system.">
<polygon fill="white" stroke="#666666" points="1059.25,-244 990.75,-244 990.75,-224 1059.25,-224 1059.25,-244"/>
<text text-anchor="middle" x="1025" y="-230.5" font-family="Helvetica,sans-Serif" font-size="10.00">StatusLed.h</text>
</a>
</g>
</g>
<!-- Node3&#45;&gt;Node16 -->
<g id="edge36_Node000003_Node000016" class="edge">
<title>Node3&#45;&gt;Node16</title>
<g id="a_edge36_Node000003_Node000016"><a xlink:title=" ">
<path fill="none" stroke="#63b8ff" d="M587.25,-344.58C648.75,-342.96 789.27,-335.33 901,-300 938.48,-288.15 978.09,-265.33 1002.18,-250.13"/>
<polygon fill="#63b8ff" stroke="#63b8ff" points="1003.69,-252.68 1010.21,-244.33 999.91,-246.79 1003.69,-252.68"/>
</a>
</g>
</g>
<!-- Node3&#45;&gt;Node17 -->
<g id="edge42_Node000003_Node000017" class="edge">
<title>Node3&#45;&gt;Node17</title>
<g id="a_edge42_Node000003_Node000017"><a xlink:title=" ">
<path fill="none" stroke="#63b8ff" d="M587.15,-336.67C643.34,-321.23 764.96,-285.88 863,-244 897.76,-229.15 935.93,-207.97 960.15,-193.87"/>
<polygon fill="#63b8ff" stroke="#63b8ff" points="961.78,-196.38 968.63,-188.3 958.24,-190.35 961.78,-196.38"/>
</a>
</g>
</g>
<!-- Node4&#45;&gt;Node2 -->
<g id="edge5_Node000004_Node000002" class="edge">
<title>Node4&#45;&gt;Node2</title>
<g id="a_edge5_Node000004_Node000002"><a xlink:title=" ">
<path fill="none" stroke="#63b8ff" d="M376.49,-286.51C288.08,-278.45 38,-249.44 38,-179 38,-179 38,-179 38,-121 38,-69.47 85.13,-72.34 134,-56 216.14,-28.54 830.13,-14.9 993.29,-11.73"/>
<polygon fill="#63b8ff" stroke="#63b8ff" points="993.31,-15.21 1003.24,-11.52 993.18,-8.21 993.31,-15.21"/>
</a>
</g>
</g>
<!-- Node5 -->
<g id="Node000005" class="node">
<title>Node5</title>
<g id="a_Node000005"><a xlink:href="_joint_data_8h.html" target="_top" xlink:title="Declares a class used to store data for joint to access.">
<polygon fill="white" stroke="#666666" points="720.38,-244 655.62,-244 655.62,-224 720.38,-224 720.38,-244"/>
<text text-anchor="middle" x="688" y="-230.5" font-family="Helvetica,sans-Serif" font-size="10.00">JointData.h</text>
</a>
</g>
</g>
<!-- Node4&#45;&gt;Node5 -->
<g id="edge6_Node000004_Node000005" class="edge">
<title>Node4&#45;&gt;Node5</title>
<g id="a_edge6_Node000004_Node000005"><a xlink:title=" ">
<path fill="none" stroke="#63b8ff" d="M437.61,-283.12C487.72,-273.49 587.42,-254.33 644.74,-243.31"/>
<polygon fill="#63b8ff" stroke="#63b8ff" points="645.11,-246.61 654.27,-241.29 643.79,-239.74 645.11,-246.61"/>
</a>
</g>
</g>
<!-- Node4&#45;&gt;Node7 -->
<g id="edge26_Node000004_Node000007" class="edge">
<title>Node4&#45;&gt;Node7</title>
<g id="a_edge26_Node000004_Node000007"><a xlink:title=" ">
<path fill="none" stroke="#63b8ff" d="M405.95,-279.7C403.92,-259.15 400.54,-208.5 411,-168 413.38,-158.79 417.87,-149.3 422.26,-141.43"/>
<polygon fill="#63b8ff" stroke="#63b8ff" points="425.67,-143.55 427.78,-133.17 419.65,-139.97 425.67,-143.55"/>
</a>
</g>
</g>
<!-- Node4&#45;&gt;Node8 -->
<g id="edge32_Node000004_Node000008" class="edge">
<title>Node4&#45;&gt;Node8</title>
<g id="a_edge32_Node000004_Node000008"><a xlink:title=" ">
<path fill="none" stroke="#63b8ff" d="M402.63,-279.77C389.93,-251.47 356.32,-164.61 395,-112 419.74,-78.35 469.54,-69.16 503.57,-67.01"/>
<polygon fill="#63b8ff" stroke="#63b8ff" points="503.62,-70.47 513.45,-66.53 503.31,-63.48 503.62,-70.47"/>
</a>
</g>
</g>
<!-- Node4&#45;&gt;Node9 -->
<g id="edge27_Node000004_Node000009" class="edge">
<title>Node4&#45;&gt;Node9</title>
<g id="a_edge27_Node000004_Node000009"><a xlink:title=" ">
<path fill="none" stroke="#63b8ff" d="M437.29,-287.47C495.02,-283.97 624.36,-273.28 729,-244 789.58,-227.05 802.35,-215.36 859,-188 892.45,-171.85 929.98,-151.29 954.25,-137.67"/>
<polygon fill="#63b8ff" stroke="#63b8ff" points="955.8,-140.25 962.79,-132.29 952.36,-134.15 955.8,-140.25"/>
</a>
</g>
</g>
<!-- Node13 -->
<g id="Node000013" class="node">
<title>Node13</title>
<g id="a_Node000013"><a xlink:href="_inclination_detector_8h.html" target="_top" xlink:title=" ">
<polygon fill="white" stroke="#666666" points="170.25,-188 65.75,-188 65.75,-168 170.25,-168 170.25,-188"/>
<text text-anchor="middle" x="118" y="-174.5" font-family="Helvetica,sans-Serif" font-size="10.00">InclinationDetector.h</text>
</a>
</g>
</g>
<!-- Node4&#45;&gt;Node13 -->
<g id="edge28_Node000004_Node000013" class="edge">
<title>Node4&#45;&gt;Node13</title>
<g id="a_edge28_Node000004_Node000013"><a xlink:title=" ">
<path fill="none" stroke="#63b8ff" d="M382.11,-279.53C330.57,-259.91 212.07,-214.81 152.92,-192.29"/>
<polygon fill="#63b8ff" stroke="#63b8ff" points="154.52,-188.78 143.93,-188.49 152.03,-195.32 154.52,-188.78"/>
</a>
</g>
</g>
<!-- Node5&#45;&gt;Node2 -->
<g id="edge7_Node000005_Node000002" class="edge">
<title>Node5&#45;&gt;Node2</title>
<g id="a_edge7_Node000005_Node000002"><a xlink:title=" ">
<path fill="none" stroke="#63b8ff" d="M712.52,-223.6C733.19,-215.29 763.28,-202.29 788,-188 834.2,-161.29 961.64,-65.29 1012.07,-26.97"/>
<polygon fill="#63b8ff" stroke="#63b8ff" points="1013.98,-29.15 1019.81,-20.31 1009.74,-23.58 1013.98,-29.15"/>
</a>
</g>
</g>
<!-- Node6 -->
<g id="Node000006" class="node">
<title>Node6</title>
<g id="a_Node000006"><a xlink:href="_motor_data_8h.html" target="_top" xlink:title="Declares a class used to store data for motors to access.">
<polygon fill="white" stroke="#666666" points="674.62,-188 605.38,-188 605.38,-168 674.62,-168 674.62,-188"/>
<text text-anchor="middle" x="640" y="-174.5" font-family="Helvetica,sans-Serif" font-size="10.00">MotorData.h</text>
</a>
</g>
</g>
<!-- Node5&#45;&gt;Node6 -->
<g id="edge8_Node000005_Node000006" class="edge">
<title>Node5&#45;&gt;Node6</title>
<g id="a_edge8_Node000005_Node000006"><a xlink:title=" ">
<path fill="none" stroke="#63b8ff" d="M679.64,-223.59C672.96,-216.08 663.43,-205.35 655.38,-196.3"/>
<polygon fill="#63b8ff" stroke="#63b8ff" points="658.52,-194.45 649.27,-189.3 653.29,-199.1 658.52,-194.45"/>
</a>
</g>
</g>
<!-- Node5&#45;&gt;Node7 -->
<g id="edge23_Node000005_Node000007" class="edge">
<title>Node5&#45;&gt;Node7</title>
<g id="a_edge23_Node000005_Node000007"><a xlink:title=" ">
<path fill="none" stroke="#63b8ff" d="M658.57,-223.53C632.99,-215.03 595.1,-201.81 563,-188 526.59,-172.34 485.98,-151.25 460.23,-137.4"/>
<polygon fill="#63b8ff" stroke="#63b8ff" points="462.26,-133.97 451.8,-132.29 458.93,-140.13 462.26,-133.97"/>
</a>
</g>
</g>
<!-- Node5&#45;&gt;Node8 -->
<g id="edge25_Node000005_Node000008" class="edge">
<title>Node5&#45;&gt;Node8</title>
<g id="a_edge25_Node000005_Node000008"><a xlink:title=" ">
<path fill="none" stroke="#63b8ff" d="M656.63,-223.64C637.15,-216.5 612.72,-204.97 596,-188 567.45,-159.03 551.28,-113.05 543.92,-86.91"/>
<polygon fill="#63b8ff" stroke="#63b8ff" points="547.09,-86.19 541.14,-77.42 540.32,-87.98 547.09,-86.19"/>
</a>
</g>
</g>
<!-- Node5&#45;&gt;Node9 -->
<g id="edge24_Node000005_Node000009" class="edge">
<title>Node5&#45;&gt;Node9</title>
<g id="a_edge24_Node000005_Node000009"><a xlink:title=" ">
<path fill="none" stroke="#63b8ff" d="M717.77,-223.51C744.84,-214.74 785.83,-201.12 821,-188 865.43,-171.42 916.02,-150.36 947.96,-136.78"/>
<polygon fill="#63b8ff" stroke="#63b8ff" points="949.22,-139.62 957.05,-132.48 946.48,-133.18 949.22,-139.62"/>
</a>
</g>
</g>
<!-- Node12 -->
<g id="Node000012" class="node">
<title>Node12</title>
<g id="a_Node000012"><a xlink:href="_controller_data_8h.html" target="_top" xlink:title="Declares a class used to store data for controllers to access.">
<polygon fill="white" stroke="#666666" points="778.88,-188 693.12,-188 693.12,-168 778.88,-168 778.88,-188"/>
<text text-anchor="middle" x="736" y="-174.5" font-family="Helvetica,sans-Serif" font-size="10.00">ControllerData.h</text>
</a>
</g>
</g>
<!-- Node5&#45;&gt;Node12 -->
<g id="edge18_Node000005_Node000012" class="edge">
<title>Node5&#45;&gt;Node12</title>
<g id="a_edge18_Node000005_Node000012"><a xlink:title=" ">
<path fill="none" stroke="#63b8ff" d="M696.36,-223.59C703.04,-216.08 712.57,-205.35 720.62,-196.3"/>
<polygon fill="#63b8ff" stroke="#63b8ff" points="722.71,-199.1 726.73,-189.3 717.48,-194.45 722.71,-199.1"/>
</a>
</g>
</g>
<!-- Node6&#45;&gt;Node2 -->
<g id="edge9_Node000006_Node000002" class="edge">
<title>Node6&#45;&gt;Node2</title>
<g id="a_edge9_Node000006_Node000002"><a xlink:title=" ">
<path fill="none" stroke="#63b8ff" d="M652.21,-167.56C682.15,-144.89 762.29,-86.92 838,-56 889.6,-34.93 953.1,-22.6 993.33,-16.32"/>
<polygon fill="#63b8ff" stroke="#63b8ff" points="993.66,-19.66 1003.03,-14.71 992.62,-12.74 993.66,-19.66"/>
</a>
</g>
</g>
<!-- Node6&#45;&gt;Node7 -->
<g id="edge10_Node000006_Node000007" class="edge">
<title>Node6&#45;&gt;Node7</title>
<g id="a_edge10_Node000006_Node000007"><a xlink:title=" ">
<path fill="none" stroke="#63b8ff" d="M605.05,-167.84C568.86,-158.35 512.36,-143.54 474.3,-133.56"/>
<polygon fill="#63b8ff" stroke="#63b8ff" points="475.64,-130.04 465.08,-130.89 473.87,-136.81 475.64,-130.04"/>
</a>
</g>
</g>
<!-- Node6&#45;&gt;Node8 -->
<g id="edge17_Node000006_Node000008" class="edge">
<title>Node6&#45;&gt;Node8</title>
<g id="a_edge17_Node000006_Node000008"><a xlink:title=" ">
<path fill="none" stroke="#63b8ff" d="M633.91,-167.69C625.16,-154.62 608.18,-130.38 591,-112 581.39,-101.72 569.6,-91.36 559.68,-83.18"/>
<polygon fill="#63b8ff" stroke="#63b8ff" points="562.19,-79.9 552.21,-76.34 557.79,-85.35 562.19,-79.9"/>
</a>
</g>
</g>
<!-- Node6&#45;&gt;Node9 -->
<g id="edge12_Node000006_Node000009" class="edge">
<title>Node6&#45;&gt;Node9</title>
<g id="a_edge12_Node000006_Node000009"><a xlink:title=" ">
<path fill="none" stroke="#63b8ff" d="M675.03,-169.67C678.06,-169.08 681.08,-168.52 684,-168 777.6,-151.32 888.54,-135.51 944.27,-127.83"/>
<polygon fill="#63b8ff" stroke="#63b8ff" points="944.55,-131.19 953.98,-126.37 943.6,-124.26 944.55,-131.19"/>
</a>
</g>
</g>
<!-- Node7&#45;&gt;Node8 -->
<g id="edge11_Node000007_Node000008" class="edge">
<title>Node7&#45;&gt;Node8</title>
<g id="a_edge11_Node000007_Node000008"><a xlink:title=" ">
<path fill="none" stroke="#63b8ff" d="M452.29,-111.59C468.45,-103.28 492.27,-91.03 510.86,-81.47"/>
<polygon fill="#63b8ff" stroke="#63b8ff" points="512.28,-84.17 519.57,-76.48 509.07,-77.94 512.28,-84.17"/>
</a>
</g>
</g>
<!-- Node9&#45;&gt;Node2 -->
<g id="edge16_Node000009_Node000002" class="edge">
<title>Node9&#45;&gt;Node2</title>
<g id="a_edge16_Node000009_Node000002"><a xlink:title=" ">
<path fill="none" stroke="#63b8ff" d="M984.52,-111.62C993.2,-93.6 1012.37,-53.81 1023.83,-30.02"/>
<polygon fill="#63b8ff" stroke="#63b8ff" points="1027.31,-31.88 1028.49,-21.35 1021,-28.84 1027.31,-31.88"/>
</a>
</g>
</g>
<!-- Node10 -->
<g id="Node000010" class="node">
<title>Node10</title>
<g id="a_Node000010"><a xlink:href="_config_8h.html" target="_top" xlink:title=" ">
<polygon fill="white" stroke="#666666" points="1438.62,-76 1387.38,-76 1387.38,-56 1438.62,-56 1438.62,-76"/>
<text text-anchor="middle" x="1413" y="-62.5" font-family="Helvetica,sans-Serif" font-size="10.00">Config.h</text>
</a>
</g>
</g>
<!-- Node9&#45;&gt;Node10 -->
<g id="edge13_Node000009_Node000010" class="edge">
<title>Node9&#45;&gt;Node10</title>
<g id="a_edge13_Node000009_Node000010"><a xlink:title=" ">
<path fill="none" stroke="#63b8ff" d="M1005.15,-117.86C1078.13,-108.76 1290.21,-82.31 1376.17,-71.59"/>
<polygon fill="#63b8ff" stroke="#63b8ff" points="1376.47,-74.96 1385.96,-70.25 1375.6,-68.01 1376.47,-74.96"/>
</a>
</g>
</g>
<!-- Node10&#45;&gt;Node2 -->
<g id="edge14_Node000010_Node000002" class="edge">
<title>Node10&#45;&gt;Node2</title>
<g id="a_edge14_Node000010_Node000002"><a xlink:title=" ">
<path fill="none" stroke="#63b8ff" d="M1387.25,-58.85C1382.52,-57.82 1377.62,-56.82 1373,-56 1264.89,-36.72 1136.09,-21.87 1072.52,-15.07"/>
<polygon fill="#63b8ff" stroke="#63b8ff" points="1073.1,-11.5 1062.79,-13.93 1072.37,-18.46 1073.1,-11.5"/>
</a>
</g>
</g>
<!-- Node11 -->
<g id="Node000011" class="node">
<title>Node11</title>
<g id="a_Node000011"><a xlink:href="_log_levels_8h.html" target="_top" xlink:title=" ">
<polygon fill="white" stroke="#666666" points="1473.5,-20 1406.5,-20 1406.5,0 1473.5,0 1473.5,-20"/>
<text text-anchor="middle" x="1440" y="-6.5" font-family="Helvetica,sans-Serif" font-size="10.00">LogLevels.h</text>
</a>
</g>
</g>
<!-- Node10&#45;&gt;Node11 -->
<g id="edge15_Node000010_Node000011" class="edge">
<title>Node10&#45;&gt;Node11</title>
<g id="a_edge15_Node000010_Node000011"><a xlink:title=" ">
<path fill="none" stroke="#63b8ff" d="M1417.7,-55.59C1421.23,-48.55 1426.17,-38.67 1430.5,-30"/>
<polygon fill="#63b8ff" stroke="#63b8ff" points="1434.01,-31.81 1435.35,-21.3 1427.75,-28.68 1434.01,-31.81"/>
</a>
</g>
</g>
<!-- Node12&#45;&gt;Node2 -->
<g id="edge20_Node000012_Node000002" class="edge">
<title>Node12&#45;&gt;Node2</title>
<g id="a_edge20_Node000012_Node000002"><a xlink:title=" ">
<path fill="none" stroke="#63b8ff" d="M743.83,-167.54C763.17,-144.82 815.69,-86.75 872,-56 910.5,-34.98 959.66,-23.09 993.47,-16.88"/>
<polygon fill="#63b8ff" stroke="#63b8ff" points="993.63,-20.23 1002.88,-15.06 992.42,-13.34 993.63,-20.23"/>
</a>
</g>
</g>
<!-- Node12&#45;&gt;Node7 -->
<g id="edge22_Node000012_Node000007" class="edge">
<title>Node12&#45;&gt;Node7</title>
<g id="a_edge22_Node000012_Node000007"><a xlink:title=" ">
<path fill="none" stroke="#63b8ff" d="M692.73,-169.26C634.47,-158.85 531.58,-140.45 474.68,-130.27"/>
<polygon fill="#63b8ff" stroke="#63b8ff" points="475.4,-126.67 464.94,-128.35 474.17,-133.56 475.4,-126.67"/>
</a>
</g>
</g>
<!-- Node12&#45;&gt;Node8 -->
<g id="edge19_Node000012_Node000008" class="edge">
<title>Node12&#45;&gt;Node8</title>
<g id="a_edge19_Node000012_Node000008"><a xlink:title=" ">
<path fill="none" stroke="#63b8ff" d="M719.2,-167.62C684.82,-148.42 606.2,-104.52 565.11,-81.58"/>
<polygon fill="#63b8ff" stroke="#63b8ff" points="567.19,-78.17 556.75,-76.35 563.78,-84.29 567.19,-78.17"/>
</a>
</g>
</g>
<!-- Node12&#45;&gt;Node9 -->
<g id="edge21_Node000012_Node000009" class="edge">
<title>Node12&#45;&gt;Node9</title>
<g id="a_edge21_Node000012_Node000009"><a xlink:title=" ">
<path fill="none" stroke="#63b8ff" d="M778.78,-167.53C825.78,-157.13 900.41,-140.61 944.36,-130.89"/>
<polygon fill="#63b8ff" stroke="#63b8ff" points="944.83,-134.15 953.83,-128.57 943.31,-127.31 944.83,-134.15"/>
</a>
</g>
</g>
<!-- Node13&#45;&gt;Node2 -->
<g id="edge29_Node000013_Node000002" class="edge">
<title>Node13&#45;&gt;Node2</title>
<g id="a_edge29_Node000013_Node000002"><a xlink:title=" ">
<path fill="none" stroke="#63b8ff" d="M110.28,-167.63C100.08,-154.05 84.84,-128.69 98,-112 163.93,-28.35 225.69,-71.91 331,-56 580.91,-18.24 885.55,-12.12 993.1,-11.16"/>
<polygon fill="#63b8ff" stroke="#63b8ff" points="993.09,-14.66 1003.06,-11.08 993.03,-7.66 993.09,-14.66"/>
</a>
</g>
</g>
<!-- Node14 -->
<g id="Node000014" class="node">
<title>Node14</title>
<g id="a_Node000014"><a xlink:title=" ">
<polygon fill="#e0e0e0" stroke="#999999" points="207.12,-132 164.88,-132 164.88,-112 207.12,-112 207.12,-132"/>
<text text-anchor="middle" x="186" y="-118.5" font-family="Helvetica,sans-Serif" font-size="10.00">queue</text>
</a>
</g>
</g>
<!-- Node13&#45;&gt;Node14 -->
<g id="edge30_Node000013_Node000014" class="edge">
<title>Node13&#45;&gt;Node14</title>
<g id="a_edge30_Node000013_Node000014"><a xlink:title=" ">
<path fill="none" stroke="#63b8ff" d="M129.84,-167.59C139.79,-159.7 154.22,-148.24 165.96,-138.92"/>
<polygon fill="#63b8ff" stroke="#63b8ff" points="167.64,-141.26 173.29,-132.3 163.28,-135.78 167.64,-141.26"/>
</a>
</g>
</g>
<!-- Node15 -->
<g id="Node000015" class="node">
<title>Node15</title>
<g id="a_Node000015"><a xlink:title=" ">
<polygon fill="#e0e0e0" stroke="#999999" points="146.62,-132 107.38,-132 107.38,-112 146.62,-112 146.62,-132"/>
<text text-anchor="middle" x="127" y="-118.5" font-family="Helvetica,sans-Serif" font-size="10.00">utility</text>
</a>
</g>
</g>
<!-- Node13&#45;&gt;Node15 -->
<g id="edge31_Node000013_Node000015" class="edge">
<title>Node13&#45;&gt;Node15</title>
<g id="a_edge31_Node000013_Node000015"><a xlink:title=" ">
<path fill="none" stroke="#63b8ff" d="M119.57,-167.59C120.7,-160.78 122.28,-151.32 123.69,-142.86"/>
<polygon fill="#63b8ff" stroke="#63b8ff" points="127.26,-143.74 125.45,-133.3 120.35,-142.59 127.26,-143.74"/>
</a>
</g>
</g>
<!-- Node16&#45;&gt;Node2 -->
<g id="edge37_Node000016_Node000002" class="edge">
<title>Node16&#45;&gt;Node2</title>
<g id="a_edge37_Node000016_Node000002"><a xlink:title=" ">
<path fill="none" stroke="#63b8ff" d="M1030.78,-223.78C1035.93,-214.97 1043.09,-201.13 1046,-188 1058.42,-132.01 1045.91,-63.86 1038.15,-30.84"/>
<polygon fill="#63b8ff" stroke="#63b8ff" points="1041.36,-30.22 1035.56,-21.35 1034.56,-31.9 1041.36,-30.22"/>
</a>
</g>
</g>
<!-- Node16&#45;&gt;Node9 -->
<g id="edge38_Node000016_Node000009" class="edge">
<title>Node16&#45;&gt;Node9</title>
<g id="a_edge38_Node000016_Node000009"><a xlink:title=" ">
<path fill="none" stroke="#63b8ff" d="M1028.39,-223.7C1032.58,-210.64 1038.2,-186.4 1030,-168 1024.76,-156.24 1014.76,-146.26 1005.07,-138.71"/>
<polygon fill="#63b8ff" stroke="#63b8ff" points="1007.57,-135.48 997.41,-132.48 1003.48,-141.16 1007.57,-135.48"/>
</a>
</g>
</g>
<!-- Node16&#45;&gt;Node17 -->
<g id="edge39_Node000016_Node000017" class="edge">
<title>Node16&#45;&gt;Node17</title>
<g id="a_edge39_Node000016_Node000017"><a xlink:title=" ">
<path fill="none" stroke="#63b8ff" d="M1018.03,-223.59C1012.58,-216.24 1004.85,-205.8 998.23,-196.87"/>
<polygon fill="#63b8ff" stroke="#63b8ff" points="1000.65,-195.25 991.89,-189.3 995.03,-199.42 1000.65,-195.25"/>
</a>
</g>
</g>
<!-- Node17&#45;&gt;Node2 -->
<g id="edge40_Node000017_Node000002" class="edge">
<title>Node17&#45;&gt;Node2</title>
<g id="a_edge40_Node000017_Node000002"><a xlink:title=" ">
<path fill="none" stroke="#63b8ff" d="M992.72,-167.63C999.44,-158.94 1008.9,-145.37 1014,-132 1026.89,-98.17 1031.04,-55.83 1032.37,-31.25"/>
<polygon fill="#63b8ff" stroke="#63b8ff" points="1035.9,-31.58 1032.83,-21.44 1028.91,-31.28 1035.9,-31.58"/>
</a>
</g>
</g>
<!-- Node17&#45;&gt;Node9 -->
<g id="edge41_Node000017_Node000009" class="edge">
<title>Node17&#45;&gt;Node9</title>
<g id="a_edge41_Node000017_Node000009"><a xlink:title=" ">
<path fill="none" stroke="#63b8ff" d="M984.13,-167.59C983.51,-160.86 982.64,-151.53 981.87,-143.15"/>
<polygon fill="#63b8ff" stroke="#63b8ff" points="985.27,-142.93 980.86,-133.3 978.3,-143.58 985.27,-142.93"/>
</a>
</g>
</g>
<!-- Node19 -->
<g id="Node000019" class="node">
<title>Node19</title>
<g id="a_Node000019"><a xlink:title=" ">
<polygon fill="#e0e0e0" stroke="#999999" points="390.75,-412 349.25,-412 349.25,-392 390.75,-392 390.75,-412"/>
<text text-anchor="middle" x="370" y="-398.5" font-family="Helvetica,sans-Serif" font-size="10.00">vector</text>
</a>
</g>
</g>
<!-- Node18&#45;&gt;Node19 -->
<g id="edge46_Node000018_Node000019" class="edge">
<title>Node18&#45;&gt;Node19</title>
<g id="a_edge46_Node000018_Node000019"><a xlink:title=" ">
<path fill="none" stroke="#63b8ff" d="M396.43,-447.59C392.2,-440.47 386.27,-430.45 381.09,-421.72"/>
<polygon fill="#63b8ff" stroke="#63b8ff" points="383.62,-420.12 375.51,-413.3 377.6,-423.69 383.62,-420.12"/>
</a>
</g>
</g>
<!-- Node20&#45;&gt;Node3 -->
<g id="edge48_Node000020_Node000003" class="edge">
<title>Node20&#45;&gt;Node3</title>
<g id="a_edge48_Node000020_Node000003"><a xlink:title=" ">
<path fill="none" stroke="#63b8ff" d="M473.42,-391.59C488.81,-383.28 511.5,-371.03 529.2,-361.47"/>
<polygon fill="#63b8ff" stroke="#63b8ff" points="530.31,-364.31 537.45,-356.48 526.98,-358.15 530.31,-364.31"/>
</a>
</g>
</g>
<!-- Node20&#45;&gt;Node7 -->
<g id="edge49_Node000020_Node000007" class="edge">
<title>Node20&#45;&gt;Node7</title>
<g id="a_edge49_Node000020_Node000007"><a xlink:title=" ">
<path fill="none" stroke="#63b8ff" d="M463.99,-391.81C474.6,-378.44 490.59,-353.36 478,-336 447.81,-294.35 398.19,-341.65 368,-300 330.72,-248.57 387.63,-173.64 417.55,-140.21"/>
<polygon fill="#63b8ff" stroke="#63b8ff" points="419.64,-143.02 423.83,-133.29 414.49,-138.28 419.64,-143.02"/>
</a>
</g>
</g>
<!-- Node21 -->
<g id="Node000021" class="node">
<title>Node21</title>
<g id="a_Node000021"><a xlink:href="_utilities_8h.html" target="_top" xlink:title=" ">
<polygon fill="white" stroke="#666666" points="245.25,-188 188.75,-188 188.75,-168 245.25,-168 245.25,-188"/>
<text text-anchor="middle" x="217" y="-174.5" font-family="Helvetica,sans-Serif" font-size="10.00">Utilities.h</text>
</a>
</g>
</g>
<!-- Node20&#45;&gt;Node21 -->
<g id="edge50_Node000020_Node000021" class="edge">
<title>Node20&#45;&gt;Node21</title>
<g id="a_edge50_Node000020_Node000021"><a xlink:title=" ">
<path fill="none" stroke="#63b8ff" d="M408.53,-393.2C352.31,-383.53 264.85,-367 254,-356 211.8,-313.24 212.02,-235.5 214.81,-198.97"/>
<polygon fill="#63b8ff" stroke="#63b8ff" points="218.37,-199.56 215.81,-189.28 211.4,-198.91 218.37,-199.56"/>
</a>
</g>
</g>
<!-- Node22 -->
<g id="Node000022" class="node">
<title>Node22</title>
<g id="a_Node000022"><a xlink:title=" ">
<polygon fill="#e0e0e0" stroke="#999999" points="410.88,-356 373.12,-356 373.12,-336 410.88,-336 410.88,-356"/>
<text text-anchor="middle" x="392" y="-342.5" font-family="Helvetica,sans-Serif" font-size="10.00">SD.h</text>
</a>
</g>
</g>
<!-- Node20&#45;&gt;Node22 -->
<g id="edge56_Node000020_Node000022" class="edge">
<title>Node20&#45;&gt;Node22</title>
<g id="a_edge56_Node000020_Node000022"><a xlink:title=" ">
<path fill="none" stroke="#63b8ff" d="M444.85,-391.59C435.58,-383.77 422.18,-372.46 411.19,-363.19"/>
<polygon fill="#63b8ff" stroke="#63b8ff" points="413.92,-360.07 404.02,-356.3 409.41,-365.42 413.92,-360.07"/>
</a>
</g>
</g>
<!-- Node23 -->
<g id="Node000023" class="node">
<title>Node23</title>
<g id="a_Node000023"><a xlink:title=" ">
<polygon fill="#e0e0e0" stroke="#999999" points="469,-356 429,-356 429,-336 469,-336 469,-356"/>
<text text-anchor="middle" x="449" y="-342.5" font-family="Helvetica,sans-Serif" font-size="10.00">SPI.h</text>
</a>
</g>
</g>
<!-- Node20&#45;&gt;Node23 -->
<g id="edge57_Node000020_Node000023" class="edge">
<title>Node20&#45;&gt;Node23</title>
<g id="a_edge57_Node000020_Node000023"><a xlink:title=" ">
<path fill="none" stroke="#63b8ff" d="M454.78,-391.59C453.91,-384.86 452.7,-375.53 451.61,-367.15"/>
<polygon fill="#63b8ff" stroke="#63b8ff" points="454.96,-366.77 450.21,-357.3 448.02,-367.67 454.96,-366.77"/>
</a>
</g>
</g>
<!-- Node24 -->
<g id="Node000024" class="node">
<title>Node24</title>
<g id="a_Node000024"><a xlink:title=" ">
<polygon fill="#e0e0e0" stroke="#999999" points="297.38,-356 262.62,-356 262.62,-336 297.38,-336 297.38,-356"/>
<text text-anchor="middle" x="280" y="-342.5" font-family="Helvetica,sans-Serif" font-size="10.00">map</text>
</a>
</g>
</g>
<!-- Node20&#45;&gt;Node24 -->
<g id="edge58_Node000020_Node000024" class="edge">
<title>Node20&#45;&gt;Node24</title>
<g id="a_edge58_Node000020_Node000024"><a xlink:title=" ">
<path fill="none" stroke="#63b8ff" d="M423.11,-391.56C394.83,-383.35 352.74,-370.91 308.29,-356.66"/>
<polygon fill="#63b8ff" stroke="#63b8ff" points="309.46,-353.03 298.87,-353.3 307.31,-359.7 309.46,-353.03"/>
</a>
</g>
</g>
<!-- Node25 -->
<g id="Node000025" class="node">
<title>Node25</title>
<g id="a_Node000025"><a xlink:title=" ">
<polygon fill="#e0e0e0" stroke="#999999" points="355,-356 315,-356 315,-336 355,-336 355,-356"/>
<text text-anchor="middle" x="335" y="-342.5" font-family="Helvetica,sans-Serif" font-size="10.00">string</text>
</a>
</g>
</g>
<!-- Node20&#45;&gt;Node25 -->
<g id="edge59_Node000020_Node000025" class="edge">
<title>Node20&#45;&gt;Node25</title>
<g id="a_edge59_Node000020_Node000025"><a xlink:title=" ">
<path fill="none" stroke="#63b8ff" d="M434.92,-391.59C415.72,-383.02 387.13,-370.27 365.45,-360.59"/>
<polygon fill="#63b8ff" stroke="#63b8ff" points="366.99,-357 356.43,-356.12 364.14,-363.39 366.99,-357"/>
</a>
</g>
</g>
<!-- Node21&#45;&gt;Node2 -->
<g id="edge52_Node000021_Node000002" class="edge">
<title>Node21&#45;&gt;Node2</title>
<g id="a_edge52_Node000021_Node000002"><a xlink:title=" ">
<path fill="none" stroke="#63b8ff" d="M220.71,-167.83C226.99,-153.55 241.09,-126.16 262,-112 354.12,-49.6 396.08,-73.22 506,-56 686.56,-27.72 904.9,-16.21 993.14,-12.49"/>
<polygon fill="#63b8ff" stroke="#63b8ff" points="993.13,-15.95 1002.98,-12.05 992.84,-8.96 993.13,-15.95"/>
</a>
</g>
</g>
<!-- Node21&#45;&gt;Node7 -->
<g id="edge51_Node000021_Node000007" class="edge">
<title>Node21&#45;&gt;Node7</title>
<g id="a_edge51_Node000021_Node000007"><a xlink:title=" ">
<path fill="none" stroke="#63b8ff" d="M245.37,-169.94C283.18,-160.53 350.32,-143.82 393.46,-133.09"/>
<polygon fill="#63b8ff" stroke="#63b8ff" points="394.02,-136.31 402.88,-130.5 392.33,-129.51 394.02,-136.31"/>
</a>
</g>
</g>
<!-- Node21&#45;&gt;Node8 -->
<g id="edge53_Node000021_Node000008" class="edge">
<title>Node21&#45;&gt;Node8</title>
<g id="a_edge53_Node000021_Node000008"><a xlink:title=" ">
<path fill="none" stroke="#63b8ff" d="M225.33,-167.75C238.86,-153.35 267.11,-125.82 297,-112 365.59,-80.29 454.88,-70.91 503.56,-68.15"/>
<polygon fill="#63b8ff" stroke="#63b8ff" points="503.63,-71.6 513.45,-67.61 503.28,-64.61 503.63,-71.6"/>
</a>
</g>
</g>
<!-- Node21&#45;&gt;Node14 -->
<g id="edge55_Node000021_Node000014" class="edge">
<title>Node21&#45;&gt;Node14</title>
<g id="a_edge55_Node000021_Node000014"><a xlink:title=" ">
<path fill="none" stroke="#63b8ff" d="M211.6,-167.59C207.51,-160.47 201.76,-150.45 196.74,-141.72"/>
<polygon fill="#63b8ff" stroke="#63b8ff" points="199.35,-140.23 191.34,-133.3 193.28,-143.71 199.35,-140.23"/>
</a>
</g>
</g>
<!-- Node21&#45;&gt;Node15 -->
<g id="edge54_Node000021_Node000015" class="edge">
<title>Node21&#45;&gt;Node15</title>
<g id="a_edge54_Node000021_Node000015"><a xlink:title=" ">
<path fill="none" stroke="#63b8ff" d="M201.32,-167.59C187.73,-159.44 167.8,-147.48 152.01,-138"/>
<polygon fill="#63b8ff" stroke="#63b8ff" points="154.17,-134.62 143.8,-132.48 150.57,-140.63 154.17,-134.62"/>
</a>
</g>
</g>
<!-- Node26&#45;&gt;Node2 -->
<g id="edge68_Node000026_Node000002" class="edge">
<title>Node26&#45;&gt;Node2</title>
<g id="a_edge68_Node000026_Node000002"><a xlink:title=" ">
<path fill="none" stroke="#63b8ff" d="M1179.57,-391.79C1196.26,-367.45 1239,-298.89 1239,-235 1239,-235 1239,-235 1239,-121 1239,-46.38 1132.53,-22.2 1072.68,-14.5"/>
<polygon fill="#63b8ff" stroke="#63b8ff" points="1073.42,-10.95 1063.08,-13.25 1072.6,-17.9 1073.42,-10.95"/>
</a>
</g>
</g>
<!-- Node26&#45;&gt;Node8 -->
<g id="edge69_Node000026_Node000008" class="edge">
<title>Node26&#45;&gt;Node8</title>
<g id="a_edge69_Node000026_Node000008"><a xlink:title=" ">
<path fill="none" stroke="#63b8ff" d="M1159.46,-391.73C1110.78,-358.63 939.45,-244.2 788,-168 729.24,-138.44 711.96,-136.71 651,-112 624.68,-101.33 594.83,-89.35 572.58,-80.43"/>
<polygon fill="#63b8ff" stroke="#63b8ff" points="574.2,-76.91 563.61,-76.44 571.6,-83.41 574.2,-76.91"/>
</a>
</g>
</g>
<!-- Node26&#45;&gt;Node27 -->
<g id="edge61_Node000026_Node000027" class="edge">
<title>Node26&#45;&gt;Node27</title>
<g id="a_edge61_Node000026_Node000027"><a xlink:title=" ">
<path fill="none" stroke="#63b8ff" d="M1191.64,-391.59C1208.18,-383.24 1232.61,-370.92 1251.59,-361.34"/>
<polygon fill="#63b8ff" stroke="#63b8ff" points="1252.87,-364.11 1260.22,-356.48 1249.71,-357.86 1252.87,-364.11"/>
</a>
</g>
</g>
<!-- Node27&#45;&gt;Node2 -->
<g id="edge62_Node000027_Node000002" class="edge">
<title>Node27&#45;&gt;Node2</title>
<g id="a_edge62_Node000027_Node000002"><a xlink:title=" ">
<path fill="none" stroke="#63b8ff" d="M1279.57,-335.59C1278.74,-316.58 1277,-272.25 1277,-235 1277,-235 1277,-235 1277,-121 1277,-90.2 1276.37,-76.06 1253,-56 1226.43,-33.19 1128.84,-20.24 1072.97,-14.54"/>
<polygon fill="#63b8ff" stroke="#63b8ff" points="1073.35,-10.96 1063.05,-13.46 1072.66,-17.92 1073.35,-10.96"/>
</a>
</g>
</g>
<!-- Node27&#45;&gt;Node28 -->
<g id="edge63_Node000027_Node000028" class="edge">
<title>Node27&#45;&gt;Node28</title>
<g id="a_edge63_Node000027_Node000028"><a xlink:title=" ">
<path fill="none" stroke="#63b8ff" d="M1298.64,-335.59C1315.18,-327.24 1339.61,-314.92 1358.59,-305.34"/>
<polygon fill="#63b8ff" stroke="#63b8ff" points="1359.87,-308.11 1367.22,-300.48 1356.71,-301.86 1359.87,-308.11"/>
</a>
</g>
</g>
<!-- Node28&#45;&gt;Node2 -->
<g id="edge64_Node000028_Node000002" class="edge">
<title>Node28&#45;&gt;Node2</title>
<g id="a_edge64_Node000028_Node000002"><a xlink:title=" ">
<path fill="none" stroke="#63b8ff" d="M1386.37,-279.67C1383.42,-243.8 1367.62,-113.9 1291,-56 1257.29,-30.53 1136.56,-18.32 1072.92,-13.55"/>
<polygon fill="#63b8ff" stroke="#63b8ff" points="1073.33,-10 1063.1,-12.77 1072.82,-16.98 1073.33,-10"/>
</a>
</g>
</g>
<!-- Node28&#45;&gt;Node10 -->
<g id="edge66_Node000028_Node000010" class="edge">
<title>Node28&#45;&gt;Node10</title>
<g id="a_edge66_Node000028_Node000010"><a xlink:title=" ">
<path fill="none" stroke="#63b8ff" d="M1391.82,-279.64C1396.15,-270.73 1402.23,-256.83 1405,-244 1417.04,-188.28 1415.84,-120.47 1414.26,-87.28"/>
<polygon fill="#63b8ff" stroke="#63b8ff" points="1417.7,-87.15 1413.66,-77.35 1410.71,-87.53 1417.7,-87.15"/>
</a>
</g>
</g>
<!-- Node28&#45;&gt;Node11 -->
<g id="edge65_Node000028_Node000011" class="edge">
<title>Node28&#45;&gt;Node11</title>
<g id="a_edge65_Node000028_Node000011"><a xlink:title=" ">
<path fill="none" stroke="#63b8ff" d="M1400.57,-279.51C1423.4,-262.32 1467,-223.63 1467,-179 1467,-179 1467,-179 1467,-121 1467,-88.5 1455.74,-52.11 1447.77,-30.4"/>
<polygon fill="#63b8ff" stroke="#63b8ff" points="1450.72,-29.31 1443.87,-21.23 1444.18,-31.82 1450.72,-29.31"/>
</a>
</g>
</g>
<!-- Node29 -->
<g id="Node000029" class="node">
<title>Node29</title>
<g id="a_Node000029"><a xlink:title=" ">
<polygon fill="#e0e0e0" stroke="#999999" points="1362.62,-244 1305.38,-244 1305.38,-224 1362.62,-224 1362.62,-244"/>
<text text-anchor="middle" x="1334" y="-230.5" font-family="Helvetica,sans-Serif" font-size="10.00">functional</text>
</a>
</g>
</g>
<!-- Node28&#45;&gt;Node29 -->
<g id="edge67_Node000028_Node000029" class="edge">
<title>Node28&#45;&gt;Node29</title>
<g id="a_edge67_Node000028_Node000029"><a xlink:title=" ">
<path fill="none" stroke="#63b8ff" d="M1377.77,-279.59C1370.32,-272.01 1359.65,-261.13 1350.71,-252.02"/>
<polygon fill="#63b8ff" stroke="#63b8ff" points="1353.63,-249.98 1344.13,-245.3 1348.63,-254.89 1353.63,-249.98"/>
</a>
</g>
</g>
<!-- Node30&#45;&gt;Node2 -->
<g id="edge71_Node000030_Node000002" class="edge">
<title>Node30&#45;&gt;Node2</title>
<g id="a_edge71_Node000030_Node000002"><a xlink:title=" ">
<path fill="none" stroke="#63b8ff" d="M1031.33,-447.83C1041.73,-418.59 1073.56,-324.77 1084,-244 1092.15,-180.93 1093.6,-155.12 1059,-56 1055.78,-46.78 1050.63,-37.3 1045.76,-29.44"/>
<polygon fill="#63b8ff" stroke="#63b8ff" points="1048.31,-27.95 1039.91,-21.49 1042.45,-31.78 1048.31,-27.95"/>
</a>
</g>
</g>
<!-- Node30&#45;&gt;Node3 -->
<g id="edge75_Node000030_Node000003" class="edge">
<title>Node30&#45;&gt;Node3</title>
<g id="a_edge75_Node000030_Node000003"><a xlink:title=" ">
<path fill="none" stroke="#63b8ff" d="M980.85,-456.9C883.53,-455.92 664.24,-449.49 601,-412 583.52,-401.64 571.21,-381.52 563.93,-366.39"/>
<polygon fill="#63b8ff" stroke="#63b8ff" points="566.78,-365.19 559.52,-357.48 560.39,-368.04 566.78,-365.19"/>
</a>
</g>
</g>
<!-- Node30&#45;&gt;Node5 -->
<g id="edge76_Node000030_Node000005" class="edge">
<title>Node30&#45;&gt;Node5</title>
<g id="a_edge76_Node000030_Node000005"><a xlink:title=" ">
<path fill="none" stroke="#63b8ff" d="M1013.82,-447.74C961.22,-413.4 776.91,-293.05 711.36,-250.25"/>
<polygon fill="#63b8ff" stroke="#63b8ff" points="713.52,-246.83 703.24,-244.3 709.7,-252.69 713.52,-246.83"/>
</a>
</g>
</g>
<!-- Node30&#45;&gt;Node7 -->
<g id="edge74_Node000030_Node000007" class="edge">
<title>Node30&#45;&gt;Node7</title>
<g id="a_edge74_Node000030_Node000007"><a xlink:title=" ">
<path fill="none" stroke="#63b8ff" d="M1004.83,-447.56C983.77,-438.83 951.98,-425.23 925,-412 738.57,-320.57 687.76,-303.2 515,-188 492.47,-172.98 468.5,-153.21 452.53,-139.43"/>
<polygon fill="#63b8ff" stroke="#63b8ff" points="455.38,-136.4 445.54,-132.47 450.78,-141.68 455.38,-136.4"/>
</a>
</g>
</g>
<!-- Node30&#45;&gt;Node20 -->
<g id="edge77_Node000030_Node000020" class="edge">
<title>Node30&#45;&gt;Node20</title>
<g id="a_edge77_Node000030_Node000020"><a xlink:title=" ">
<path fill="none" stroke="#63b8ff" d="M980.7,-452.54C876.57,-442.7 627.74,-419.21 514.23,-408.5"/>
<polygon fill="#63b8ff" stroke="#63b8ff" points="514.64,-404.93 504.35,-407.47 513.98,-411.89 514.64,-404.93"/>
</a>
</g>
</g>
<!-- Node30&#45;&gt;Node26 -->
<g id="edge72_Node000030_Node000026" class="edge">
<title>Node30&#45;&gt;Node26</title>
<g id="a_edge72_Node000030_Node000026"><a xlink:title=" ">
<path fill="none" stroke="#63b8ff" d="M1053.26,-447.59C1076.51,-438.94 1111.23,-426 1137.31,-416.29"/>
<polygon fill="#63b8ff" stroke="#63b8ff" points="1138.4,-419.25 1146.55,-412.48 1135.95,-412.69 1138.4,-419.25"/>
</a>
</g>
</g>
<!-- Node30&#45;&gt;Node27 -->
<g id="edge73_Node000030_Node000027" class="edge">
<title>Node30&#45;&gt;Node27</title>
<g id="a_edge73_Node000030_Node000027"><a xlink:title=" ">
<path fill="none" stroke="#63b8ff" d="M1075.14,-454.26C1116.63,-450.02 1177.37,-439.28 1223,-412 1242.44,-400.38 1258.77,-379.86 1268.9,-364.98"/>
<polygon fill="#63b8ff" stroke="#63b8ff" points="1272.12,-367.46 1274.63,-357.17 1266.25,-363.65 1272.12,-367.46"/>
</a>
</g>
</g>
<!-- Node30&#45;&gt;Node28 -->
<g id="edge78_Node000030_Node000028" class="edge">
<title>Node30&#45;&gt;Node28</title>
<g id="a_edge78_Node000030_Node000028"><a xlink:title=" ">
<path fill="none" stroke="#63b8ff" d="M1075.1,-452.82C1120.77,-447.53 1191.28,-436.01 1248,-412 1288.64,-394.8 1296.97,-385.27 1330,-356 1346.25,-341.6 1362.33,-322.73 1373.25,-309.03"/>
<polygon fill="#63b8ff" stroke="#63b8ff" points="1376.52,-311.53 1379.92,-301.49 1371,-307.22 1376.52,-311.53"/>
</a>
</g>
</g>
<!-- Node31 -->
<g id="Node000031" class="node">
<title>Node31</title>
<g id="a_Node000031"><a xlink:href="_real_time_i2_c_8h.html" target="_top" xlink:title=" ">
<polygon fill="white" stroke="#666666" points="1210.5,-300 1131.5,-300 1131.5,-280 1210.5,-280 1210.5,-300"/>
<text text-anchor="middle" x="1171" y="-286.5" font-family="Helvetica,sans-Serif" font-size="10.00">RealTimeI2C.h</text>
</a>
</g>
</g>
<!-- Node30&#45;&gt;Node31 -->
<g id="edge79_Node000030_Node000031" class="edge">
<title>Node30&#45;&gt;Node31</title>
<g id="a_edge79_Node000030_Node000031"><a xlink:title=" ">
<path fill="none" stroke="#63b8ff" d="M1036.1,-447.6C1059.2,-420.78 1125.71,-343.57 1155.84,-308.6"/>
<polygon fill="#63b8ff" stroke="#63b8ff" points="1159.12,-311.16 1162.99,-301.3 1153.81,-306.59 1159.12,-311.16"/>
</a>
</g>
</g>
<!-- Node31&#45;&gt;Node2 -->
<g id="edge80_Node000031_Node000002" class="edge">
<title>Node31&#45;&gt;Node2</title>
<g id="a_edge80_Node000031_Node000002"><a xlink:title=" ">
<path fill="none" stroke="#63b8ff" d="M1175.43,-279.53C1183.77,-260.77 1201,-217.4 1201,-179 1201,-179 1201,-179 1201,-121 1201,-90.2 1199.32,-77.22 1177,-56 1148.72,-29.13 1104.61,-18.29 1072.65,-13.93"/>
<polygon fill="#63b8ff" stroke="#63b8ff" points="1073.25,-10.35 1062.9,-12.64 1072.42,-17.3 1073.25,-10.35"/>
</a>
</g>
</g>
</g>
</svg>
