<?xml version="1.0" encoding="UTF-8" standalone="no"?>
<!DOCTYPE svg PUBLIC "-//W3C//DTD SVG 1.1//EN"
 "http://www.w3.org/Graphics/SVG/1.1/DTD/svg11.dtd">
<!-- Generated by graphviz version 8.1.0 (20230707.0739)
 -->
<!-- Title: LegData::reconfigure Pages: 1 -->
<svg width="426pt" height="66pt"
 viewBox="0.00 0.00 425.75 66.00" xmlns="http://www.w3.org/2000/svg" xmlns:xlink="http://www.w3.org/1999/xlink">
<g id="graph0" class="graph" transform="scale(1 1) rotate(0) translate(4 62)">
<title>LegData::reconfigure</title>
<!-- Node1 -->
<g id="Node000001" class="node">
<title>Node1</title>
<g id="a_Node000001"><a xlink:title="reconfigures the the leg data if the configuration changes after constructor called.">
<polygon fill="#999999" stroke="#666666" points="105.25,-39 0,-39 0,-19 105.25,-19 105.25,-39"/>
<text text-anchor="middle" x="52.62" y="-25.5" font-family="Helvetica,sans-Serif" font-size="10.00">LegData::reconfigure</text>
</a>
</g>
</g>
<!-- Node2 -->
<g id="Node000002" class="node">
<title>Node2</title>
<g id="a_Node000002"><a xlink:href="class_joint_data.html#a966c7b2eeb8fb0a9f0c09ee27ef30b21" target="_top" xlink:title="reconfigures the the joint data if the configuration changes after constructor called.">
<polygon fill="white" stroke="#666666" points="251,-39 141.25,-39 141.25,-19 251,-19 251,-39"/>
<text text-anchor="middle" x="196.12" y="-25.5" font-family="Helvetica,sans-Serif" font-size="10.00">JointData::reconfigure</text>
</a>
</g>
</g>
<!-- Node1&#45;&gt;Node2 -->
<g id="edge1_Node000001_Node000002" class="edge">
<title>Node1&#45;&gt;Node2</title>
<g id="a_edge1_Node000001_Node000002"><a xlink:title=" ">
<path fill="none" stroke="#63b8ff" d="M105.51,-29C113.52,-29 121.87,-29 130.12,-29"/>
<polygon fill="#63b8ff" stroke="#63b8ff" points="129.87,-32.5 139.87,-29 129.87,-25.5 129.87,-32.5"/>
</a>
</g>
</g>
<!-- Node3 -->
<g id="Node000003" class="node">
<title>Node3</title>
<g id="a_Node000003"><a xlink:href="class_controller_data.html#aa5379adfd775e094bc3408f250a2d8a0" target="_top" xlink:title="reconfigures the the controller data if the configuration changes after constructor called.">
<polygon fill="white" stroke="#666666" points="417.75,-58 287,-58 287,-38 417.75,-38 417.75,-58"/>
<text text-anchor="middle" x="352.38" y="-44.5" font-family="Helvetica,sans-Serif" font-size="10.00">ControllerData::reconfigure</text>
</a>
</g>
</g>
<!-- Node2&#45;&gt;Node3 -->
<g id="edge2_Node000002_Node000003" class="edge">
<title>Node2&#45;&gt;Node3</title>
<g id="a_edge2_Node000002_Node000003"><a xlink:title=" ">
<path fill="none" stroke="#63b8ff" d="M251.07,-35.65C259.05,-36.63 267.39,-37.65 275.7,-38.68"/>
<polygon fill="#63b8ff" stroke="#63b8ff" points="275.23,-42.27 285.59,-40.02 276.09,-35.32 275.23,-42.27"/>
</a>
</g>
</g>
<!-- Node4 -->
<g id="Node000004" class="node">
<title>Node4</title>
<g id="a_Node000004"><a xlink:href="class_motor_data.html#a6c785789ec1689cc0108a6928cb44172" target="_top" xlink:title="reconfigures the the motor data if the configuration changes after constructor called.">
<polygon fill="white" stroke="#666666" points="409.5,-20 295.25,-20 295.25,0 409.5,0 409.5,-20"/>
<text text-anchor="middle" x="352.38" y="-6.5" font-family="Helvetica,sans-Serif" font-size="10.00">MotorData::reconfigure</text>
</a>
</g>
</g>
<!-- Node2&#45;&gt;Node4 -->
<g id="edge3_Node000002_Node000004" class="edge">
<title>Node2&#45;&gt;Node4</title>
<g id="a_edge3_Node000002_Node000004"><a xlink:title=" ">
<path fill="none" stroke="#63b8ff" d="M251.07,-22.35C261.69,-21.05 272.96,-19.66 283.96,-18.3"/>
<polygon fill="#63b8ff" stroke="#63b8ff" points="284.34,-21.66 293.84,-16.96 283.48,-14.71 284.34,-21.66"/>
</a>
</g>
</g>
</g>
</svg>
