<?xml version="1.0" encoding="UTF-8" standalone="no"?>
<!DOCTYPE svg PUBLIC "-//W3C//DTD SVG 1.1//EN"
 "http://www.w3.org/Graphics/SVG/1.1/DTD/svg11.dtd">
<!-- Generated by graphviz version 8.1.0 (20230707.0739)
 -->
<!-- Title: IniFile::getMACAddress Pages: 1 -->
<!--zoomable 154 -->

<svg id="main" version="1.1" xmlns="http://www.w3.org/2000/svg" xmlns:xlink="http://www.w3.org/1999/xlink" xml:space="preserve" onload="init(evt)">
<style type="text/css"><![CDATA[
.node, .edge {opacity: 0.7;}
.node.selected, .edge.selected {opacity: 1;}
.edge:hover path { stroke: red; }
.edge:hover polygon { stroke: red; fill: red; }
]]></style>

<defs>
  <circle id="rim" cx="0" cy="0" r="7"/>
  <circle id="rim2" cx="0" cy="0" r="3.5"/>
  <g id="zoomPlus">
    <use xlink:href="#rim" fill="#404040"><set attributeName="fill" to="#808080" begin="zoomplus.mouseover" end="zoomplus.mouseout"/></use>
    <path d="M-4,0h8M0,-4v8" fill="none" stroke="white" stroke-width="1.5" pointer-events="none"/>
  </g>
  <g id="zoomMin">
    <use xlink:href="#rim" fill="#404040"><set attributeName="fill" to="#808080" begin="zoomminus.mouseover" end="zoomminus.mouseout"/></use>
    <path d="M-4,0h8" fill="none" stroke="white" stroke-width="1.5" pointer-events="none"/>
  </g>
  <g id="arrowUp" transform="translate(30 24)">
    <use xlink:href="#rim"/>
    <path pointer-events="none" fill="none" stroke="white" stroke-width="1.5" d="M0,-3.0v7 M-2.5,-0.5L0,-3.0L2.5,-0.5"/>
  </g>
  <g id="arrowRight" transform="rotate(90) translate(36 -43)">
    <use xlink:href="#rim"/>
    <path pointer-events="none" fill="none" stroke="white" stroke-width="1.5" d="M0,-3.0v7 M-2.5,-0.5L0,-3.0L2.5,-0.5"/>
  </g>
  <g id="arrowDown" transform="rotate(180) translate(-30 -48)">
    <use xlink:href="#rim"/>
    <path pointer-events="none" fill="none" stroke="white" stroke-width="1.5" d="M0,-3.0v7 M-2.5,-0.5L0,-3.0L2.5,-0.5"/>
  </g>
  <g id="arrowLeft" transform="rotate(270) translate(-36 17)">
    <use xlink:href="#rim"/>
    <path pointer-events="none" fill="none" stroke="white" stroke-width="1.5" d="M0,-3.0v7 M-2.5,-0.5L0,-3.0L2.5,-0.5"/>
  </g>
  <g id="resetDef">
    <use xlink:href="#rim2" fill="#404040"><set attributeName="fill" to="#808080" begin="reset.mouseover" end="reset.mouseout"/></use>
  </g>
</defs>
<script type="application/ecmascript">
var viewWidth = 551;
var viewHeight = 154;
var sectionId = 'dynsection-4';
</script>
<script type="application/ecmascript" xlink:href="svg.min.js"/>
<svg id="graph" class="graph">
<g id="viewport">
<title>IniFile::getMACAddress</title>
<!-- Node1 -->
<g id="Node000001" class="node">
<title>Node1</title>
<g id="a_Node000001"><a xlink:title=" ">
<polygon fill="#999999" stroke="#666666" points="118.75,-64 0,-64 0,-44 118.75,-44 118.75,-64"/>
<text text-anchor="middle" x="59.38" y="-50.5" font-family="Helvetica,sans-Serif" font-size="10.00">IniFile::getMACAddress</text>
</a>
</g>
</g>
<!-- Node2 -->
<g id="Node000002" class="node">
<title>Node2</title>
<g id="a_Node000002"><a xlink:href="class_ini_file.html#ac236a5f5582c55478023aab87292e200" target="_top" xlink:title=" ">
<polygon fill="white" stroke="#666666" points="240.5,-64 154.75,-64 154.75,-44 240.5,-44 240.5,-64"/>
<text text-anchor="middle" x="197.62" y="-50.5" font-family="Helvetica,sans-Serif" font-size="10.00">IniFile::getValue</text>
</a>
</g>
</g>
<!-- Node1&#45;&gt;Node2 -->
<g id="edge1_Node000001_Node000002" class="edge">
<title>Node1&#45;&gt;Node2</title>
<g id="a_edge1_Node000001_Node000002"><a xlink:title=" ">
<path fill="none" stroke="#63b8ff" d="M118.95,-54C127.18,-54 135.6,-54 143.72,-54"/>
<polygon fill="#63b8ff" stroke="#63b8ff" points="143.55,-57.5 153.55,-54 143.55,-50.5 143.55,-57.5"/>
</a>
</g>
</g>
<!-- Node3 -->
<g id="Node000003" class="node">
<title>Node3</title>
<g id="a_Node000003"><a xlink:href="class_ini_file.html#a64a532179db6b398c4930a7e1c2ac6d4" target="_top" xlink:title=" ">
<polygon fill="white" stroke="#666666" points="364.12,-121 284.38,-121 284.38,-101 364.12,-101 364.12,-121"/>
<text text-anchor="middle" x="324.25" y="-107.5" font-family="Helvetica,sans-Serif" font-size="10.00">IniFile::findKey</text>
</a>
</g>
</g>
<!-- Node2&#45;&gt;Node3 -->
<g id="edge2_Node000002_Node000003" class="edge">
<title>Node2&#45;&gt;Node3</title>
<g id="a_edge2_Node000002_Node000003"><a xlink:title=" ">
<path fill="none" stroke="#63b8ff" d="M218.94,-64.38C234.55,-72.25 256.72,-83.17 276.5,-92 279.88,-93.51 283.42,-95.04 286.98,-96.54"/>
<polygon fill="#63b8ff" stroke="#63b8ff" points="285.33,-100.06 295.91,-100.66 288.01,-93.6 285.33,-100.06"/>
</a>
</g>
</g>
<!-- Node6 -->
<g id="Node000006" class="node">
<title>Node6</title>
<g id="a_Node000006"><a xlink:href="class_ini_file.html#acbabab9434de6d60648c1a4b55e32f8e" target="_top" xlink:title=" ">
<polygon fill="white" stroke="#666666" points="542.5,-70 408,-70 408,-38 542.5,-38 542.5,-70"/>
<text text-anchor="start" x="416" y="-56.5" font-family="Helvetica,sans-Serif" font-size="10.00">IniFile::removeTrailingWhite</text>
<text text-anchor="middle" x="475.25" y="-44.5" font-family="Helvetica,sans-Serif" font-size="10.00">Space</text>
</a>
</g>
</g>
<!-- Node2&#45;&gt;Node6 -->
<g id="edge12_Node000002_Node000006" class="edge">
<title>Node2&#45;&gt;Node6</title>
<g id="a_edge12_Node000002_Node000006"><a xlink:title=" ">
<path fill="none" stroke="#63b8ff" d="M240.79,-54C282.16,-54 346.24,-54 396.8,-54"/>
<polygon fill="#63b8ff" stroke="#63b8ff" points="396.7,-57.5 406.7,-54 396.7,-50.5 396.7,-57.5"/>
</a>
</g>
</g>
<!-- Node7 -->
<g id="Node000007" class="node">
<title>Node7</title>
<g id="a_Node000007"><a xlink:href="class_ini_file.html#add78997eb6343f1b0f43f57d3f8fca45" target="_top" xlink:title=" ">
<polygon fill="white" stroke="#666666" points="534.62,-20 415.88,-20 415.88,0 534.62,0 534.62,-20"/>
<text text-anchor="middle" x="475.25" y="-6.5" font-family="Helvetica,sans-Serif" font-size="10.00">IniFile::skipWhiteSpace</text>
</a>
</g>
</g>
<!-- Node2&#45;&gt;Node7 -->
<g id="edge13_Node000002_Node000007" class="edge">
<title>Node2&#45;&gt;Node7</title>
<g id="a_edge13_Node000002_Node000007"><a xlink:title=" ">
<path fill="none" stroke="#63b8ff" d="M240.79,-47.27C284.36,-40.31 353.11,-29.34 404.74,-21.1"/>
<polygon fill="#63b8ff" stroke="#63b8ff" points="405.16,-24.41 414.48,-19.38 404.05,-17.5 405.16,-24.41"/>
</a>
</g>
</g>
<!-- Node8 -->
<g id="Node000008" class="node">
<title>Node8</title>
<g id="a_Node000008"><a xlink:href="class_ini_file.html#aad3b972ecbcda0f78420a53ec5024ace" target="_top" xlink:title=" ">
<polygon fill="white" stroke="#666666" points="372,-83 276.5,-83 276.5,-63 372,-63 372,-83"/>
<text text-anchor="middle" x="324.25" y="-69.5" font-family="Helvetica,sans-Serif" font-size="10.00">IniFile::findSection</text>
</a>
</g>
</g>
<!-- Node2&#45;&gt;Node8 -->
<g id="edge7_Node000002_Node000008" class="edge">
<title>Node2&#45;&gt;Node8</title>
<g id="a_edge7_Node000002_Node000008"><a xlink:title=" ">
<path fill="none" stroke="#63b8ff" d="M240.82,-60.43C248.77,-61.65 257.22,-62.93 265.55,-64.2"/>
<polygon fill="#63b8ff" stroke="#63b8ff" points="264.98,-67.81 275.39,-65.86 266.03,-60.89 264.98,-67.81"/>
</a>
</g>
</g>
<!-- Node4 -->
<g id="Node000004" class="node">
<title>Node4</title>
<g id="a_Node000004"><a xlink:href="class_ini_file.html#aaa3a74cbc865a3582a3e41c8809c72c1" target="_top" xlink:title=" ">
<polygon fill="white" stroke="#666666" points="533.88,-146 416.62,-146 416.62,-126 533.88,-126 533.88,-146"/>
<text text-anchor="middle" x="475.25" y="-132.5" font-family="Helvetica,sans-Serif" font-size="10.00">IniFile::isCommentChar</text>
</a>
</g>
</g>
<!-- Node3&#45;&gt;Node4 -->
<g id="edge3_Node000003_Node000004" class="edge">
<title>Node3&#45;&gt;Node4</title>
<g id="a_edge3_Node000003_Node000004"><a xlink:title=" ">
<path fill="none" stroke="#63b8ff" d="M364.4,-117.57C377.04,-119.69 391.45,-122.11 405.58,-124.48"/>
<polygon fill="#63b8ff" stroke="#63b8ff" points="404.85,-128.07 415.3,-126.28 406.01,-121.17 404.85,-128.07"/>
</a>
</g>
</g>
<!-- Node5 -->
<g id="Node000005" class="node">
<title>Node5</title>
<g id="a_Node000005"><a xlink:href="class_ini_file.html#a2d2874e132192179169a9de44207a21f" target="_top" xlink:title=" ">
<polygon fill="white" stroke="#666666" points="517.38,-108 433.12,-108 433.12,-88 517.38,-88 517.38,-108"/>
<text text-anchor="middle" x="475.25" y="-94.5" font-family="Helvetica,sans-Serif" font-size="10.00">IniFile::readLine</text>
</a>
</g>
</g>
<!-- Node3&#45;&gt;Node5 -->
<g id="edge4_Node000003_Node000005" class="edge">
<title>Node3&#45;&gt;Node5</title>
<g id="a_edge4_Node000003_Node000005"><a xlink:title=" ">
<path fill="none" stroke="#63b8ff" d="M364.4,-107.58C381.98,-106.05 402.99,-104.22 421.91,-102.57"/>
<polygon fill="#63b8ff" stroke="#63b8ff" points="422.1,-105.98 431.76,-101.62 421.49,-99 422.1,-105.98"/>
</a>
</g>
</g>
<!-- Node3&#45;&gt;Node6 -->
<g id="edge5_Node000003_Node000006" class="edge">
<title>Node3&#45;&gt;Node6</title>
<g id="a_edge5_Node000003_Node000006"><a xlink:title=" ">
<path fill="none" stroke="#63b8ff" d="M352.06,-100.57C368.25,-94.29 389.29,-86.15 408,-79 411.96,-77.49 416.05,-75.93 420.17,-74.37"/>
<polygon fill="#63b8ff" stroke="#63b8ff" points="421.29,-77.31 429.4,-70.49 418.81,-70.76 421.29,-77.31"/>
</a>
</g>
</g>
<!-- Node3&#45;&gt;Node7 -->
<g id="edge6_Node000003_Node000007" class="edge">
<title>Node3&#45;&gt;Node7</title>
<g id="a_edge6_Node000003_Node000007"><a xlink:title=" ">
<path fill="none" stroke="#63b8ff" d="M358.54,-100.73C363.37,-98.34 368.04,-95.46 372,-92 396.27,-70.76 382.63,-48.91 408,-29 409.66,-27.7 411.4,-26.49 413.21,-25.36"/>
<polygon fill="#63b8ff" stroke="#63b8ff" points="414.49,-28.11 421.72,-20.37 411.24,-21.91 414.49,-28.11"/>
</a>
</g>
</g>
<!-- Node8&#45;&gt;Node4 -->
<g id="edge8_Node000008_Node000004" class="edge">
<title>Node8&#45;&gt;Node4</title>
<g id="a_edge8_Node000008_Node000004"><a xlink:title=" ">
<path fill="none" stroke="#63b8ff" d="M353.9,-83.47C359.99,-86.02 366.3,-88.91 372,-92 389.13,-101.28 390.4,-108.65 408,-117 411.78,-118.8 415.77,-120.46 419.84,-121.98"/>
<polygon fill="#63b8ff" stroke="#63b8ff" points="418.43,-125.55 429.03,-125.51 420.72,-118.93 418.43,-125.55"/>
</a>
</g>
</g>
<!-- Node8&#45;&gt;Node5 -->
<g id="edge9_Node000008_Node000005" class="edge">
<title>Node8&#45;&gt;Node5</title>
<g id="a_edge9_Node000008_Node000005"><a xlink:title=" ">
<path fill="none" stroke="#63b8ff" d="M372.39,-80.91C388.34,-83.59 406.23,-86.59 422.51,-89.32"/>
<polygon fill="#63b8ff" stroke="#63b8ff" points="421.5,-92.87 431.94,-91.07 422.66,-85.96 421.5,-92.87"/>
</a>
</g>
</g>
<!-- Node8&#45;&gt;Node6 -->
<g id="edge10_Node000008_Node000006" class="edge">
<title>Node8&#45;&gt;Node6</title>
<g id="a_edge10_Node000008_Node000006"><a xlink:title=" ">
<path fill="none" stroke="#63b8ff" d="M372.39,-66.99C380.16,-66 388.39,-64.95 396.66,-63.89"/>
<polygon fill="#63b8ff" stroke="#63b8ff" points="397.06,-67.24 406.54,-62.51 396.18,-60.3 397.06,-67.24"/>
</a>
</g>
</g>
<!-- Node8&#45;&gt;Node7 -->
<g id="edge11_Node000008_Node000007" class="edge">
<title>Node8&#45;&gt;Node7</title>
<g id="a_edge11_Node000008_Node000007"><a xlink:title=" ">
<path fill="none" stroke="#63b8ff" d="M342.18,-62.64C358.56,-52.95 384.31,-38.57 408,-29 412.68,-27.11 417.61,-25.33 422.59,-23.67"/>
<polygon fill="#63b8ff" stroke="#63b8ff" points="423.32,-26.79 431.8,-20.44 421.21,-20.12 423.32,-26.79"/>
</a>
</g>
</g>
</g>
</svg>

<g id="navigator" transform="translate(0 0)" fill="#404254">
  <rect fill="#f2f5e9" fill-opacity="0.5" stroke="#606060" stroke-width=".5" x="0" y="0" width="60" height="60"/>
  <use id="zoomplus" xlink:href="#zoomPlus" x="17" y="9" onmousedown="handleZoom(evt,'in')"/>
  <use id="zoomminus" xlink:href="#zoomMin" x="42" y="9" onmousedown="handleZoom(evt,'out')"/>
  <use id="reset" xlink:href="#resetDef" x="30" y="36" onmousedown="handleReset()"/>
   <use id="arrowup" xlink:href="#arrowUp" x="0" y="0" onmousedown="handlePan(0,-1)"/>
  <use id="arrowright" xlink:href="#arrowRight" x="0" y="0" onmousedown="handlePan(1,0)"/>
  <use id="arrowdown" xlink:href="#arrowDown" x="0" y="0" onmousedown="handlePan(0,1)"/>
  <use id="arrowleft" xlink:href="#arrowLeft" x="0" y="0" onmousedown="handlePan(-1,0)"/>
</g>
<svg viewBox="0 0 15 15" width="100%" height="30px" preserveAspectRatio="xMaxYMin meet">
 <g id="arrow_out" transform="scale(0.3 0.3)">
  <a xlink:href="class_ini_file_a271b3d74f3bd3a0f7274a36154d02900_cgraph_org.svg" target="_base">
   <rect id="button" ry="5" rx="5" y="6" x="6" height="38" width="38"
        fill="#f2f5e9" fill-opacity="0.5" stroke="#606060" stroke-width="1.0"/>
   <path id="arrow"
     d="M 11.500037,31.436501 C 11.940474,20.09759 22.043105,11.32322 32.158766,21.979434 L 37.068811,17.246167 C 37.068811,17.246167 37.088388,32 37.088388,32 L 22.160133,31.978069 C 22.160133,31.978069 26.997745,27.140456 26.997745,27.140456 C 18.528582,18.264221 13.291696,25.230495 11.500037,31.436501 z"
     style="fill:#404040;"/>
  </a>
 </g>
</svg>

<style type='text/css'>
<![CDATA[
[data-mouse-over-selected='false'] { opacity: 0.7; }
[data-mouse-over-selected='true']  { opacity: 1.0; }
]]>
</style>
<script type="application/ecmascript"><![CDATA[
document.addEventListener('DOMContentLoaded', (event) => {
  highlightEdges();
  highlightAdjacentNodes();
});
]]></script>
</svg>
