<?xml version="1.0" encoding="UTF-8" standalone="no"?>
<!DOCTYPE svg PUBLIC "-//W3C//DTD SVG 1.1//EN"
 "http://www.w3.org/Graphics/SVG/1.1/DTD/svg11.dtd">
<!-- Generated by graphviz version 8.1.0 (20230707.0739)
 -->
<!-- Title: IniFile::getIPAddress Pages: 1 -->
<svg width="538pt" height="154pt"
 viewBox="0.00 0.00 537.75 154.00" xmlns="http://www.w3.org/2000/svg" xmlns:xlink="http://www.w3.org/1999/xlink">
<g id="graph0" class="graph" transform="scale(1 1) rotate(0) translate(4 150)">
<title>IniFile::getIPAddress</title>
<!-- Node1 -->
<g id="Node000001" class="node">
<title>Node1</title>
<g id="a_Node000001"><a xlink:title=" ">
<polygon fill="#999999" stroke="#666666" points="106,-64 0,-64 0,-44 106,-44 106,-64"/>
<text text-anchor="middle" x="53" y="-50.5" font-family="Helvetica,sans-Serif" font-size="10.00">IniFile::getIPAddress</text>
</a>
</g>
</g>
<!-- Node2 -->
<g id="Node000002" class="node">
<title>Node2</title>
<g id="a_Node000002"><a xlink:href="class_ini_file.html#ac236a5f5582c55478023aab87292e200" target="_top" xlink:title=" ">
<polygon fill="white" stroke="#666666" points="227.75,-64 142,-64 142,-44 227.75,-44 227.75,-64"/>
<text text-anchor="middle" x="184.88" y="-50.5" font-family="Helvetica,sans-Serif" font-size="10.00">IniFile::getValue</text>
</a>
</g>
</g>
<!-- Node1&#45;&gt;Node2 -->
<g id="edge1_Node000001_Node000002" class="edge">
<title>Node1&#45;&gt;Node2</title>
<g id="a_edge1_Node000001_Node000002"><a xlink:title=" ">
<path fill="none" stroke="#63b8ff" d="M106.45,-54C114.49,-54 122.78,-54 130.83,-54"/>
<polygon fill="#63b8ff" stroke="#63b8ff" points="130.6,-57.5 140.6,-54 130.6,-50.5 130.6,-57.5"/>
</a>
</g>
</g>
<!-- Node3 -->
<g id="Node000003" class="node">
<title>Node3</title>
<g id="a_Node000003"><a xlink:href="class_ini_file.html#a64a532179db6b398c4930a7e1c2ac6d4" target="_top" xlink:title=" ">
<polygon fill="white" stroke="#666666" points="351.38,-121 271.62,-121 271.62,-101 351.38,-101 351.38,-121"/>
<text text-anchor="middle" x="311.5" y="-107.5" font-family="Helvetica,sans-Serif" font-size="10.00">IniFile::findKey</text>
</a>
</g>
</g>
<!-- Node2&#45;&gt;Node3 -->
<g id="edge2_Node000002_Node000003" class="edge">
<title>Node2&#45;&gt;Node3</title>
<g id="a_edge2_Node000002_Node000003"><a xlink:title=" ">
<path fill="none" stroke="#63b8ff" d="M206.19,-64.38C221.8,-72.25 243.97,-83.17 263.75,-92 267.13,-93.51 270.67,-95.04 274.23,-96.54"/>
<polygon fill="#63b8ff" stroke="#63b8ff" points="272.58,-100.06 283.16,-100.66 275.26,-93.6 272.58,-100.06"/>
</a>
</g>
</g>
<!-- Node6 -->
<g id="Node000006" class="node">
<title>Node6</title>
<g id="a_Node000006"><a xlink:href="class_ini_file.html#acbabab9434de6d60648c1a4b55e32f8e" target="_top" xlink:title=" ">
<polygon fill="white" stroke="#666666" points="529.75,-70 395.25,-70 395.25,-38 529.75,-38 529.75,-70"/>
<text text-anchor="start" x="403.25" y="-56.5" font-family="Helvetica,sans-Serif" font-size="10.00">IniFile::removeTrailingWhite</text>
<text text-anchor="middle" x="462.5" y="-44.5" font-family="Helvetica,sans-Serif" font-size="10.00">Space</text>
</a>
</g>
</g>
<!-- Node2&#45;&gt;Node6 -->
<g id="edge12_Node000002_Node000006" class="edge">
<title>Node2&#45;&gt;Node6</title>
<g id="a_edge12_Node000002_Node000006"><a xlink:title=" ">
<path fill="none" stroke="#63b8ff" d="M228.04,-54C269.41,-54 333.49,-54 384.05,-54"/>
<polygon fill="#63b8ff" stroke="#63b8ff" points="383.95,-57.5 393.95,-54 383.95,-50.5 383.95,-57.5"/>
</a>
</g>
</g>
<!-- Node7 -->
<g id="Node000007" class="node">
<title>Node7</title>
<g id="a_Node000007"><a xlink:href="class_ini_file.html#add78997eb6343f1b0f43f57d3f8fca45" target="_top" xlink:title=" ">
<polygon fill="white" stroke="#666666" points="521.88,-20 403.12,-20 403.12,0 521.88,0 521.88,-20"/>
<text text-anchor="middle" x="462.5" y="-6.5" font-family="Helvetica,sans-Serif" font-size="10.00">IniFile::skipWhiteSpace</text>
</a>
</g>
</g>
<!-- Node2&#45;&gt;Node7 -->
<g id="edge13_Node000002_Node000007" class="edge">
<title>Node2&#45;&gt;Node7</title>
<g id="a_edge13_Node000002_Node000007"><a xlink:title=" ">
<path fill="none" stroke="#63b8ff" d="M228.04,-47.27C271.61,-40.31 340.36,-29.34 391.99,-21.1"/>
<polygon fill="#63b8ff" stroke="#63b8ff" points="392.41,-24.41 401.73,-19.38 391.3,-17.5 392.41,-24.41"/>
</a>
</g>
</g>
<!-- Node8 -->
<g id="Node000008" class="node">
<title>Node8</title>
<g id="a_Node000008"><a xlink:href="class_ini_file.html#aad3b972ecbcda0f78420a53ec5024ace" target="_top" xlink:title=" ">
<polygon fill="white" stroke="#666666" points="359.25,-83 263.75,-83 263.75,-63 359.25,-63 359.25,-83"/>
<text text-anchor="middle" x="311.5" y="-69.5" font-family="Helvetica,sans-Serif" font-size="10.00">IniFile::findSection</text>
</a>
</g>
</g>
<!-- Node2&#45;&gt;Node8 -->
<g id="edge7_Node000002_Node000008" class="edge">
<title>Node2&#45;&gt;Node8</title>
<g id="a_edge7_Node000002_Node000008"><a xlink:title=" ">
<path fill="none" stroke="#63b8ff" d="M228.07,-60.43C236.02,-61.65 244.47,-62.93 252.8,-64.2"/>
<polygon fill="#63b8ff" stroke="#63b8ff" points="252.23,-67.81 262.64,-65.86 253.28,-60.89 252.23,-67.81"/>
</a>
</g>
</g>
<!-- Node4 -->
<g id="Node000004" class="node">
<title>Node4</title>
<g id="a_Node000004"><a xlink:href="class_ini_file.html#aaa3a74cbc865a3582a3e41c8809c72c1" target="_top" xlink:title=" ">
<polygon fill="white" stroke="#666666" points="521.12,-146 403.88,-146 403.88,-126 521.12,-126 521.12,-146"/>
<text text-anchor="middle" x="462.5" y="-132.5" font-family="Helvetica,sans-Serif" font-size="10.00">IniFile::isCommentChar</text>
</a>
</g>
</g>
<!-- Node3&#45;&gt;Node4 -->
<g id="edge3_Node000003_Node000004" class="edge">
<title>Node3&#45;&gt;Node4</title>
<g id="a_edge3_Node000003_Node000004"><a xlink:title=" ">
<path fill="none" stroke="#63b8ff" d="M351.65,-117.57C364.29,-119.69 378.7,-122.11 392.83,-124.48"/>
<polygon fill="#63b8ff" stroke="#63b8ff" points="392.1,-128.07 402.55,-126.28 393.26,-121.17 392.1,-128.07"/>
</a>
</g>
</g>
<!-- Node5 -->
<g id="Node000005" class="node">
<title>Node5</title>
<g id="a_Node000005"><a xlink:href="class_ini_file.html#a2d2874e132192179169a9de44207a21f" target="_top" xlink:title=" ">
<polygon fill="white" stroke="#666666" points="504.62,-108 420.38,-108 420.38,-88 504.62,-88 504.62,-108"/>
<text text-anchor="middle" x="462.5" y="-94.5" font-family="Helvetica,sans-Serif" font-size="10.00">IniFile::readLine</text>
</a>
</g>
</g>
<!-- Node3&#45;&gt;Node5 -->
<g id="edge4_Node000003_Node000005" class="edge">
<title>Node3&#45;&gt;Node5</title>
<g id="a_edge4_Node000003_Node000005"><a xlink:title=" ">
<path fill="none" stroke="#63b8ff" d="M351.65,-107.58C369.23,-106.05 390.24,-104.22 409.16,-102.57"/>
<polygon fill="#63b8ff" stroke="#63b8ff" points="409.35,-105.98 419.01,-101.62 408.74,-99 409.35,-105.98"/>
</a>
</g>
</g>
<!-- Node3&#45;&gt;Node6 -->
<g id="edge5_Node000003_Node000006" class="edge">
<title>Node3&#45;&gt;Node6</title>
<g id="a_edge5_Node000003_Node000006"><a xlink:title=" ">
<path fill="none" stroke="#63b8ff" d="M339.31,-100.57C355.5,-94.29 376.54,-86.15 395.25,-79 399.21,-77.49 403.3,-75.93 407.42,-74.37"/>
<polygon fill="#63b8ff" stroke="#63b8ff" points="408.54,-77.31 416.65,-70.49 406.06,-70.76 408.54,-77.31"/>
</a>
</g>
</g>
<!-- Node3&#45;&gt;Node7 -->
<g id="edge6_Node000003_Node000007" class="edge">
<title>Node3&#45;&gt;Node7</title>
<g id="a_edge6_Node000003_Node000007"><a xlink:title=" ">
<path fill="none" stroke="#63b8ff" d="M345.79,-100.73C350.62,-98.34 355.29,-95.46 359.25,-92 383.52,-70.76 369.88,-48.91 395.25,-29 396.91,-27.7 398.65,-26.49 400.46,-25.36"/>
<polygon fill="#63b8ff" stroke="#63b8ff" points="401.74,-28.11 408.97,-20.37 398.49,-21.91 401.74,-28.11"/>
</a>
</g>
</g>
<!-- Node8&#45;&gt;Node4 -->
<g id="edge8_Node000008_Node000004" class="edge">
<title>Node8&#45;&gt;Node4</title>
<g id="a_edge8_Node000008_Node000004"><a xlink:title=" ">
<path fill="none" stroke="#63b8ff" d="M341.15,-83.47C347.24,-86.02 353.55,-88.91 359.25,-92 376.38,-101.28 377.65,-108.65 395.25,-117 399.03,-118.8 403.02,-120.46 407.09,-121.98"/>
<polygon fill="#63b8ff" stroke="#63b8ff" points="405.68,-125.55 416.28,-125.51 407.97,-118.93 405.68,-125.55"/>
</a>
</g>
</g>
<!-- Node8&#45;&gt;Node5 -->
<g id="edge9_Node000008_Node000005" class="edge">
<title>Node8&#45;&gt;Node5</title>
<g id="a_edge9_Node000008_Node000005"><a xlink:title=" ">
<path fill="none" stroke="#63b8ff" d="M359.64,-80.91C375.59,-83.59 393.48,-86.59 409.76,-89.32"/>
<polygon fill="#63b8ff" stroke="#63b8ff" points="408.75,-92.87 419.19,-91.07 409.91,-85.96 408.75,-92.87"/>
</a>
</g>
</g>
<!-- Node8&#45;&gt;Node6 -->
<g id="edge10_Node000008_Node000006" class="edge">
<title>Node8&#45;&gt;Node6</title>
<g id="a_edge10_Node000008_Node000006"><a xlink:title=" ">
<path fill="none" stroke="#63b8ff" d="M359.64,-66.99C367.41,-66 375.64,-64.95 383.91,-63.89"/>
<polygon fill="#63b8ff" stroke="#63b8ff" points="384.31,-67.24 393.79,-62.51 383.43,-60.3 384.31,-67.24"/>
</a>
</g>
</g>
<!-- Node8&#45;&gt;Node7 -->
<g id="edge11_Node000008_Node000007" class="edge">
<title>Node8&#45;&gt;Node7</title>
<g id="a_edge11_Node000008_Node000007"><a xlink:title=" ">
<path fill="none" stroke="#63b8ff" d="M329.43,-62.64C345.81,-52.95 371.56,-38.57 395.25,-29 399.93,-27.11 404.86,-25.33 409.84,-23.67"/>
<polygon fill="#63b8ff" stroke="#63b8ff" points="410.57,-26.79 419.05,-20.44 408.46,-20.12 410.57,-26.79"/>
</a>
</g>
</g>
</g>
</svg>
