<?xml version="1.0" encoding="UTF-8" standalone="no"?>
<!DOCTYPE svg PUBLIC "-//W3C//DTD SVG 1.1//EN"
 "http://www.w3.org/Graphics/SVG/1.1/DTD/svg11.dtd">
<!-- Generated by graphviz version 8.1.0 (20230707.0739)
 -->
<!-- Title: BleParser::handle_raw_data Pages: 1 -->
<svg width="279pt" height="66pt"
 viewBox="0.00 0.00 278.50 66.00" xmlns="http://www.w3.org/2000/svg" xmlns:xlink="http://www.w3.org/1999/xlink">
<g id="graph0" class="graph" transform="scale(1 1) rotate(0) translate(4 62)">
<title>BleParser::handle_raw_data</title>
<!-- Node1 -->
<g id="Node000001" class="node">
<title>Node1</title>
<g id="a_Node000001"><a xlink:title="Given a buffer and buffer length, package the data into a BleMessage class.">
<polygon fill="#999999" stroke="#666666" points="137.5,-39 0,-39 0,-19 137.5,-19 137.5,-39"/>
<text text-anchor="middle" x="68.75" y="-25.5" font-family="Helvetica,sans-Serif" font-size="10.00">BleParser::handle_raw_data</text>
</a>
</g>
</g>
<!-- Node2 -->
<g id="Node000002" class="node">
<title>Node2</title>
<g id="a_Node000002"><a xlink:href="class_ble_message.html#ac5b5395d0665b550d77a3e5484a968c3" target="_top" xlink:title="Set the message back to its defaults.">
<polygon fill="white" stroke="#666666" points="270.5,-58 173.5,-58 173.5,-38 270.5,-38 270.5,-58"/>
<text text-anchor="middle" x="222" y="-44.5" font-family="Helvetica,sans-Serif" font-size="10.00">BleMessage::clear</text>
</a>
</g>
</g>
<!-- Node1&#45;&gt;Node2 -->
<g id="edge1_Node000001_Node000002" class="edge">
<title>Node1&#45;&gt;Node2</title>
<g id="a_edge1_Node000001_Node000002"><a xlink:title=" ">
<path fill="none" stroke="#63b8ff" d="M137.85,-37.56C146.05,-38.58 154.36,-39.63 162.4,-40.64"/>
<polygon fill="#63b8ff" stroke="#63b8ff" points="161.8,-44.22 172.16,-41.99 162.68,-37.27 161.8,-44.22"/>
</a>
</g>
</g>
<!-- Node3 -->
<g id="Node000003" class="node">
<title>Node3</title>
<g id="a_Node000003"><a xlink:href="class_ble_message.html#ad8c2f3828eb3583761168a9c1db7325e" target="_top" xlink:title="Sets its values equal to another BleMessage.">
<polygon fill="white" stroke="#666666" points="270.5,-20 173.5,-20 173.5,0 270.5,0 270.5,-20"/>
<text text-anchor="middle" x="222" y="-6.5" font-family="Helvetica,sans-Serif" font-size="10.00">BleMessage::copy</text>
</a>
</g>
</g>
<!-- Node1&#45;&gt;Node3 -->
<g id="edge2_Node000001_Node000003" class="edge">
<title>Node1&#45;&gt;Node3</title>
<g id="a_edge2_Node000001_Node000003"><a xlink:title=" ">
<path fill="none" stroke="#63b8ff" d="M137.85,-20.44C146.05,-19.42 154.36,-18.37 162.4,-17.36"/>
<polygon fill="#63b8ff" stroke="#63b8ff" points="162.68,-20.73 172.16,-16.01 161.8,-13.78 162.68,-20.73"/>
</a>
</g>
</g>
</g>
</svg>
