<?xml version="1.0" encoding="UTF-8" standalone="no"?>
<!DOCTYPE svg PUBLIC "-//W3C//DTD SVG 1.1//EN"
 "http://www.w3.org/Graphics/SVG/1.1/DTD/svg11.dtd">
<!-- Generated by graphviz version 8.1.0 (20230707.0739)
 -->
<!-- Title: ExoCode/src/uart_commands.h Pages: 1 -->
<svg width="479pt" height="196pt"
 viewBox="0.00 0.00 478.75 196.00" xmlns="http://www.w3.org/2000/svg" xmlns:xlink="http://www.w3.org/1999/xlink">
<g id="graph0" class="graph" transform="scale(1 1) rotate(0) translate(4 192)">
<title>ExoCode/src/uart_commands.h</title>
<!-- Node1 -->
<g id="Node000001" class="node">
<title>Node1</title>
<g id="a_Node000001"><a xlink:title=" ">
<polygon fill="#999999" stroke="#666666" points="291.25,-188 138,-188 138,-168 291.25,-168 291.25,-188"/>
<text text-anchor="middle" x="214.62" y="-174.5" font-family="Helvetica,sans-Serif" font-size="10.00">ExoCode/src/uart_commands.h</text>
</a>
</g>
</g>
<!-- Node2 -->
<g id="Node000002" class="node">
<title>Node2</title>
<g id="a_Node000002"><a xlink:href="_coms_m_c_u_8cpp.html" target="_top" xlink:title=" ">
<polygon fill="white" stroke="#666666" points="141.25,-132 0,-132 0,-112 141.25,-112 141.25,-132"/>
<text text-anchor="middle" x="70.62" y="-118.5" font-family="Helvetica,sans-Serif" font-size="10.00">ExoCode/src/ComsMCU.cpp</text>
</a>
</g>
</g>
<!-- Node1&#45;&gt;Node2 -->
<g id="edge1_Node000001_Node000002" class="edge">
<title>Node1&#45;&gt;Node2</title>
<g id="a_edge1_Node000001_Node000002"><a xlink:title=" ">
<path fill="none" stroke="#63b8ff" d="M179.4,-163.79C153.55,-154.1 119.06,-141.16 95.9,-132.48"/>
<polygon fill="#63b8ff" stroke="#63b8ff" points="177.95,-167.36 188.54,-167.59 180.41,-160.81 177.95,-167.36"/>
</a>
</g>
</g>
<!-- Node3 -->
<g id="Node000003" class="node">
<title>Node3</title>
<g id="a_Node000003"><a xlink:href="_exo_8cpp.html" target="_top" xlink:title=" ">
<polygon fill="white" stroke="#666666" points="270.25,-132 159,-132 159,-112 270.25,-112 270.25,-132"/>
<text text-anchor="middle" x="214.62" y="-118.5" font-family="Helvetica,sans-Serif" font-size="10.00">ExoCode/src/Exo.cpp</text>
</a>
</g>
</g>
<!-- Node1&#45;&gt;Node3 -->
<g id="edge2_Node000001_Node000003" class="edge">
<title>Node1&#45;&gt;Node3</title>
<g id="a_edge2_Node000001_Node000003"><a xlink:title=" ">
<path fill="none" stroke="#63b8ff" d="M214.62,-156.71C214.62,-148.32 214.62,-139.01 214.62,-132.3"/>
<polygon fill="#63b8ff" stroke="#63b8ff" points="211.13,-156.59 214.62,-166.59 218.13,-156.59 211.13,-156.59"/>
</a>
</g>
</g>
<!-- Node4 -->
<g id="Node000004" class="node">
<title>Node4</title>
<g id="a_Node000004"><a xlink:href="ble__commands_8h.html" target="_top" xlink:title="This file declares the BLE commands, and the functions that should be called when they are received.">
<polygon fill="white" stroke="#666666" points="437.38,-132 287.88,-132 287.88,-112 437.38,-112 437.38,-132"/>
<text text-anchor="middle" x="362.62" y="-118.5" font-family="Helvetica,sans-Serif" font-size="10.00">ExoCode/src/ble_commands.h</text>
</a>
</g>
</g>
<!-- Node1&#45;&gt;Node4 -->
<g id="edge3_Node000001_Node000004" class="edge">
<title>Node1&#45;&gt;Node4</title>
<g id="a_edge3_Node000001_Node000004"><a xlink:title=" ">
<path fill="none" stroke="#63b8ff" d="M250.47,-163.92C277.08,-154.21 312.74,-141.2 336.64,-132.48"/>
<polygon fill="#63b8ff" stroke="#63b8ff" points="249.6,-160.88 241.4,-167.59 252,-167.45 249.6,-160.88"/>
</a>
</g>
</g>
<!-- Node5 -->
<g id="Node000005" class="node">
<title>Node5</title>
<g id="a_Node000005"><a xlink:href="_ble_parser_8cpp.html" target="_top" xlink:title=" ">
<polygon fill="white" stroke="#666666" points="430,-20 293.25,-20 293.25,0 430,0 430,-20"/>
<text text-anchor="middle" x="361.62" y="-6.5" font-family="Helvetica,sans-Serif" font-size="10.00">ExoCode/src/BleParser.cpp</text>
</a>
</g>
</g>
<!-- Node4&#45;&gt;Node5 -->
<g id="edge4_Node000004_Node000005" class="edge">
<title>Node4&#45;&gt;Node5</title>
<g id="a_edge4_Node000004_Node000005"><a xlink:title=" ">
<path fill="none" stroke="#63b8ff" d="M348.66,-102.84C343.49,-95.02 338.26,-85.51 335.62,-76 329.98,-55.62 344.02,-32.92 353.59,-20.46"/>
<polygon fill="#63b8ff" stroke="#63b8ff" points="346.32,-104.58 354.97,-110.7 352.02,-100.52 346.32,-104.58"/>
</a>
</g>
</g>
<!-- Node6 -->
<g id="Node000006" class="node">
<title>Node6</title>
<g id="a_Node000006"><a xlink:href="_ble_parser_8h.html" target="_top" xlink:title="This class is used to serialize and deserialize the BLE data. The application uses Nordic&#39;s UART serv...">
<polygon fill="white" stroke="#666666" points="470.75,-76 344.5,-76 344.5,-56 470.75,-56 470.75,-76"/>
<text text-anchor="middle" x="407.62" y="-62.5" font-family="Helvetica,sans-Serif" font-size="10.00">ExoCode/src/BleParser.h</text>
</a>
</g>
</g>
<!-- Node4&#45;&gt;Node6 -->
<g id="edge5_Node000004_Node000006" class="edge">
<title>Node4&#45;&gt;Node6</title>
<g id="a_edge5_Node000004_Node000006"><a xlink:title=" ">
<path fill="none" stroke="#63b8ff" d="M377.39,-103.29C384.89,-94.28 393.71,-83.7 399.88,-76.3"/>
<polygon fill="#63b8ff" stroke="#63b8ff" points="374.18,-100.67 370.46,-110.59 379.55,-105.15 374.18,-100.67"/>
</a>
</g>
</g>
<!-- Node6&#45;&gt;Node5 -->
<g id="edge6_Node000006_Node000005" class="edge">
<title>Node6&#45;&gt;Node5</title>
<g id="a_edge6_Node000006_Node000005"><a xlink:title=" ">
<path fill="none" stroke="#63b8ff" d="M392.54,-47.29C384.86,-38.28 375.85,-27.7 369.55,-20.3"/>
<polygon fill="#63b8ff" stroke="#63b8ff" points="390.46,-49.25 399.61,-54.59 395.79,-44.71 390.46,-49.25"/>
</a>
</g>
</g>
</g>
</svg>
