<?xml version="1.0" encoding="UTF-8" standalone="no"?>
<!DOCTYPE svg PUBLIC "-//W3C//DTD SVG 1.1//EN"
 "http://www.w3.org/Graphics/SVG/1.1/DTD/svg11.dtd">
<!-- Generated by graphviz version 8.1.0 (20230707.0739)
 -->
<!-- Title: ExoCode/src/uart_commands.h Pages: 1 -->
<svg width="1319pt" height="476pt"
 viewBox="0.00 0.00 1318.50 476.00" xmlns="http://www.w3.org/2000/svg" xmlns:xlink="http://www.w3.org/1999/xlink">
<g id="graph0" class="graph" transform="scale(1 1) rotate(0) translate(4 472)">
<title>ExoCode/src/uart_commands.h</title>
<!-- Node1 -->
<g id="Node000001" class="node">
<title>Node1</title>
<g id="a_Node000001"><a xlink:title=" ">
<polygon fill="#999999" stroke="#666666" points="878.12,-468 724.88,-468 724.88,-448 878.12,-448 878.12,-468"/>
<text text-anchor="middle" x="801.5" y="-454.5" font-family="Helvetica,sans-Serif" font-size="10.00">ExoCode/src/uart_commands.h</text>
</a>
</g>
</g>
<!-- Node2 -->
<g id="Node000002" class="node">
<title>Node2</title>
<g id="a_Node000002"><a xlink:title=" ">
<polygon fill="#e0e0e0" stroke="#999999" points="486.12,-20 428.88,-20 428.88,0 486.12,0 486.12,-20"/>
<text text-anchor="middle" x="457.5" y="-6.5" font-family="Helvetica,sans-Serif" font-size="10.00">Arduino.h</text>
</a>
</g>
</g>
<!-- Node1&#45;&gt;Node2 -->
<g id="edge1_Node000001_Node000002" class="edge">
<title>Node1&#45;&gt;Node2</title>
<g id="a_edge1_Node000001_Node000002"><a xlink:title=" ">
<path fill="none" stroke="#63b8ff" d="M878.53,-456.15C1020.82,-452.49 1310.5,-434.3 1310.5,-347 1310.5,-347 1310.5,-347 1310.5,-121 1310.5,-79.19 1280.84,-72.67 1242.5,-56 1173.94,-26.2 647.99,-14.45 497.57,-11.68"/>
<polygon fill="#63b8ff" stroke="#63b8ff" points="497.65,-8.16 487.59,-11.48 497.53,-15.16 497.65,-8.16"/>
</a>
</g>
</g>
<!-- Node3 -->
<g id="Node000003" class="node">
<title>Node3</title>
<g id="a_Node000003"><a xlink:href="_u_a_r_t_handler_8h.html" target="_top" xlink:title="Singleton class that manages the UART data. NOT THREAD SAFE. The class queues recieved messages.">
<polygon fill="white" stroke="#666666" points="1118.88,-244 1036.12,-244 1036.12,-224 1118.88,-224 1118.88,-244"/>
<text text-anchor="middle" x="1077.5" y="-230.5" font-family="Helvetica,sans-Serif" font-size="10.00">UARTHandler.h</text>
</a>
</g>
</g>
<!-- Node1&#45;&gt;Node3 -->
<g id="edge2_Node000001_Node000003" class="edge">
<title>Node1&#45;&gt;Node3</title>
<g id="a_edge2_Node000001_Node000003"><a xlink:title=" ">
<path fill="none" stroke="#63b8ff" d="M875.41,-447.5C924.11,-439.93 982.3,-427.95 1001.5,-412 1050.72,-371.1 1068.82,-292.44 1074.83,-255.33"/>
<polygon fill="#63b8ff" stroke="#63b8ff" points="1078.43,-255.85 1076.42,-245.45 1071.51,-254.84 1078.43,-255.85"/>
</a>
</g>
</g>
<!-- Node4 -->
<g id="Node000004" class="node">
<title>Node4</title>
<g id="a_Node000004"><a xlink:href="_u_a_r_t__msg__t_8h.html" target="_top" xlink:title=" ">
<polygon fill="white" stroke="#666666" points="331.5,-188 249.5,-188 249.5,-168 331.5,-168 331.5,-188"/>
<text text-anchor="middle" x="290.5" y="-174.5" font-family="Helvetica,sans-Serif" font-size="10.00">UART_msg_t.h</text>
</a>
</g>
</g>
<!-- Node1&#45;&gt;Node4 -->
<g id="edge14_Node000001_Node000004" class="edge">
<title>Node1&#45;&gt;Node4</title>
<g id="a_edge14_Node000001_Node000004"><a xlink:title=" ">
<path fill="none" stroke="#63b8ff" d="M724.41,-452.3C604.4,-442.83 386.5,-416.13 386.5,-347 386.5,-347 386.5,-347 386.5,-289 386.5,-246.41 345.15,-212.35 316.73,-193.96"/>
<polygon fill="#63b8ff" stroke="#63b8ff" points="319.01,-190.63 308.66,-188.34 315.32,-196.58 319.01,-190.63"/>
</a>
</g>
</g>
<!-- Node5 -->
<g id="Node000005" class="node">
<title>Node5</title>
<g id="a_Node000005"><a xlink:href="_logger_8h.html" target="_top" xlink:title=" ">
<polygon fill="white" stroke="#666666" points="176.25,-132 122.75,-132 122.75,-112 176.25,-112 176.25,-132"/>
<text text-anchor="middle" x="149.5" y="-118.5" font-family="Helvetica,sans-Serif" font-size="10.00">Logger.h</text>
</a>
</g>
</g>
<!-- Node1&#45;&gt;Node5 -->
<g id="edge69_Node000001_Node000005" class="edge">
<title>Node1&#45;&gt;Node5</title>
<g id="a_edge69_Node000001_Node000005"><a xlink:title=" ">
<path fill="none" stroke="#63b8ff" d="M724.45,-454.36C524.69,-446.49 5.5,-419.11 5.5,-347 5.5,-347 5.5,-347 5.5,-289 5.5,-233.49 -0.16,-209.69 36.5,-168 46.9,-156.17 83.55,-142.85 112.33,-133.79"/>
<polygon fill="#63b8ff" stroke="#63b8ff" points="112.98,-136.94 121.51,-130.65 110.92,-130.25 112.98,-136.94"/>
</a>
</g>
</g>
<!-- Node10 -->
<g id="Node000010" class="node">
<title>Node10</title>
<g id="a_Node000010"><a xlink:href="_parse_ini_8h.html" target="_top" xlink:title="Declares the functions needed and defines mapping between the INI keys and the exo components.">
<polygon fill="white" stroke="#666666" points="791.25,-132 731.75,-132 731.75,-112 791.25,-112 791.25,-132"/>
<text text-anchor="middle" x="761.5" y="-118.5" font-family="Helvetica,sans-Serif" font-size="10.00">ParseIni.h</text>
</a>
</g>
</g>
<!-- Node1&#45;&gt;Node10 -->
<g id="edge15_Node000001_Node000010" class="edge">
<title>Node1&#45;&gt;Node10</title>
<g id="a_edge15_Node000001_Node000010"><a xlink:title=" ">
<path fill="none" stroke="#63b8ff" d="M827.65,-447.6C870.6,-430.43 949.55,-390.66 930.5,-336 900.44,-249.75 819.28,-172.2 781.43,-139.47"/>
<polygon fill="#63b8ff" stroke="#63b8ff" points="784.1,-136.29 774.21,-132.48 779.56,-141.63 784.1,-136.29"/>
</a>
</g>
</g>
<!-- Node11 -->
<g id="Node000011" class="node">
<title>Node11</title>
<g id="a_Node000011"><a xlink:href="_exo_data_8h.html" target="_top" xlink:title="Declares a class used to store data for the Exo to access.">
<polygon fill="white" stroke="#666666" points="659.38,-356 597.62,-356 597.62,-336 659.38,-336 659.38,-356"/>
<text text-anchor="middle" x="628.5" y="-342.5" font-family="Helvetica,sans-Serif" font-size="10.00">ExoData.h</text>
</a>
</g>
</g>
<!-- Node1&#45;&gt;Node11 -->
<g id="edge17_Node000001_Node000011" class="edge">
<title>Node1&#45;&gt;Node11</title>
<g id="a_edge17_Node000001_Node000011"><a xlink:title=" ">
<path fill="none" stroke="#63b8ff" d="M786.75,-447.62C756.75,-428.54 688.39,-385.08 652.12,-362.02"/>
<polygon fill="#63b8ff" stroke="#63b8ff" points="654.53,-358.77 644.21,-356.35 650.77,-364.67 654.53,-358.77"/>
</a>
</g>
</g>
<!-- Node13 -->
<g id="Node000013" class="node">
<title>Node13</title>
<g id="a_Node000013"><a xlink:href="_joint_data_8h.html" target="_top" xlink:title="Declares a class used to store data for joint to access.">
<polygon fill="white" stroke="#666666" points="575.88,-244 511.12,-244 511.12,-224 575.88,-224 575.88,-244"/>
<text text-anchor="middle" x="543.5" y="-230.5" font-family="Helvetica,sans-Serif" font-size="10.00">JointData.h</text>
</a>
</g>
</g>
<!-- Node1&#45;&gt;Node13 -->
<g id="edge55_Node000001_Node000013" class="edge">
<title>Node1&#45;&gt;Node13</title>
<g id="a_edge55_Node000001_Node000013"><a xlink:title=" ">
<path fill="none" stroke="#63b8ff" d="M759.02,-447.54C711.09,-434.74 633.92,-407.34 588.5,-356 562.6,-326.73 551.11,-281.19 546.41,-255.13"/>
<polygon fill="#63b8ff" stroke="#63b8ff" points="549.72,-254.66 544.66,-245.35 542.81,-255.79 549.72,-254.66"/>
</a>
</g>
</g>
<!-- Node22 -->
<g id="Node000022" class="node">
<title>Node22</title>
<g id="a_Node000022"><a xlink:href="_params_from_s_d_8h.html" target="_top" xlink:title="Declares the functions to pull controller parameters from the SD card and defines the mapping to the ...">
<polygon fill="white" stroke="#666666" points="848.5,-412 754.5,-412 754.5,-392 848.5,-392 848.5,-412"/>
<text text-anchor="middle" x="801.5" y="-398.5" font-family="Helvetica,sans-Serif" font-size="10.00">ParamsFromSD.h</text>
</a>
</g>
</g>
<!-- Node1&#45;&gt;Node22 -->
<g id="edge56_Node000001_Node000022" class="edge">
<title>Node1&#45;&gt;Node22</title>
<g id="a_edge56_Node000001_Node000022"><a xlink:title=" ">
<path fill="none" stroke="#63b8ff" d="M801.5,-447.59C801.5,-440.86 801.5,-431.53 801.5,-423.15"/>
<polygon fill="#63b8ff" stroke="#63b8ff" points="805,-423.3 801.5,-413.3 798,-423.3 805,-423.3"/>
</a>
</g>
</g>
<!-- Node28 -->
<g id="Node000028" class="node">
<title>Node28</title>
<g id="a_Node000028"><a xlink:href="_real_time_i2_c_8h.html" target="_top" xlink:title=" ">
<polygon fill="white" stroke="#666666" points="1282,-300 1203,-300 1203,-280 1282,-280 1282,-300"/>
<text text-anchor="middle" x="1242.5" y="-286.5" font-family="Helvetica,sans-Serif" font-size="10.00">RealTimeI2C.h</text>
</a>
</g>
</g>
<!-- Node1&#45;&gt;Node28 -->
<g id="edge70_Node000001_Node000028" class="edge">
<title>Node1&#45;&gt;Node28</title>
<g id="a_edge70_Node000001_Node000028"><a xlink:title=" ">
<path fill="none" stroke="#63b8ff" d="M878.4,-452.63C932.38,-447.49 1005.37,-436.31 1065.5,-412 1129.57,-386.09 1193.81,-334.12 1224.27,-307.51"/>
<polygon fill="#63b8ff" stroke="#63b8ff" points="1226.11,-310.68 1231.27,-301.43 1221.47,-305.44 1226.11,-310.68"/>
</a>
</g>
</g>
<!-- Node3&#45;&gt;Node2 -->
<g id="edge12_Node000003_Node000002" class="edge">
<title>Node3&#45;&gt;Node2</title>
<g id="a_edge12_Node000003_Node000002"><a xlink:title=" ">
<path fill="none" stroke="#63b8ff" d="M1092.8,-223.69C1104.19,-215.79 1118.87,-203.3 1125.5,-188 1129.03,-179.84 1127.6,-176.64 1125.5,-168 1108.08,-96.48 1073.55,-78.6 1003.5,-56 909.19,-25.57 606.66,-14.86 497.37,-11.93"/>
<polygon fill="#63b8ff" stroke="#63b8ff" points="497.59,-8.41 487.51,-11.65 497.41,-15.41 497.59,-8.41"/>
</a>
</g>
</g>
<!-- Node3&#45;&gt;Node4 -->
<g id="edge3_Node000003_Node000004" class="edge">
<title>Node3&#45;&gt;Node4</title>
<g id="a_edge3_Node000003_Node000004"><a xlink:title=" ">
<path fill="none" stroke="#63b8ff" d="M1035.7,-230.86C927.18,-225.18 627.54,-208.74 378.5,-188 366.78,-187.02 354.2,-185.83 342.32,-184.63"/>
<polygon fill="#63b8ff" stroke="#63b8ff" points="342.96,-181.07 332.66,-183.53 342.25,-188.04 342.96,-181.07"/>
</a>
</g>
</g>
<!-- Node9 -->
<g id="Node000009" class="node">
<title>Node9</title>
<g id="a_Node000009"><a xlink:title=" ">
<polygon fill="#e0e0e0" stroke="#999999" points="756.62,-76 708.38,-76 708.38,-56 756.62,-56 756.62,-76"/>
<text text-anchor="middle" x="732.5" y="-62.5" font-family="Helvetica,sans-Serif" font-size="10.00">stdint.h</text>
</a>
</g>
</g>
<!-- Node3&#45;&gt;Node9 -->
<g id="edge13_Node000003_Node000009" class="edge">
<title>Node3&#45;&gt;Node9</title>
<g id="a_edge13_Node000003_Node000009"><a xlink:title=" ">
<path fill="none" stroke="#63b8ff" d="M1086.86,-223.63C1094.62,-215.14 1105.07,-201.88 1109.5,-188 1121.17,-151.44 1101.5,-131.6 1068.5,-112 1018.2,-82.13 843.41,-71.51 767.8,-68.26"/>
<polygon fill="#63b8ff" stroke="#63b8ff" points="768.11,-64.73 757.97,-67.82 767.82,-71.72 768.11,-64.73"/>
</a>
</g>
</g>
<!-- Node4&#45;&gt;Node2 -->
<g id="edge4_Node000004_Node000002" class="edge">
<title>Node4&#45;&gt;Node2</title>
<g id="a_edge4_Node000004_Node000002"><a xlink:title=" ">
<path fill="none" stroke="#63b8ff" d="M292.42,-167.76C297.5,-145.52 313.31,-88.46 347.5,-56 367.01,-37.48 395.17,-26.15 418.11,-19.5"/>
<polygon fill="#63b8ff" stroke="#63b8ff" points="418.83,-22.66 427.57,-16.67 417,-15.9 418.83,-22.66"/>
</a>
</g>
</g>
<!-- Node4&#45;&gt;Node5 -->
<g id="edge5_Node000004_Node000005" class="edge">
<title>Node4&#45;&gt;Node5</title>
<g id="a_edge5_Node000004_Node000005"><a xlink:title=" ">
<path fill="none" stroke="#63b8ff" d="M265.94,-167.59C243.33,-158.94 209.56,-146 184.2,-136.29"/>
<polygon fill="#63b8ff" stroke="#63b8ff" points="185.84,-132.79 175.25,-132.48 183.34,-139.32 185.84,-132.79"/>
</a>
</g>
</g>
<!-- Node5&#45;&gt;Node2 -->
<g id="edge6_Node000005_Node000002" class="edge">
<title>Node5&#45;&gt;Node2</title>
<g id="a_edge6_Node000005_Node000002"><a xlink:title=" ">
<path fill="none" stroke="#63b8ff" d="M146.65,-111.67C143.01,-97.67 138.71,-71.25 152.5,-56 187.16,-17.67 343.05,-11.56 417.57,-10.87"/>
<polygon fill="#63b8ff" stroke="#63b8ff" points="417.4,-14.37 427.38,-10.81 417.36,-7.37 417.4,-14.37"/>
</a>
</g>
</g>
<!-- Node6 -->
<g id="Node000006" class="node">
<title>Node6</title>
<g id="a_Node000006"><a xlink:href="_log_levels_8h.html" target="_top" xlink:title=" ">
<polygon fill="white" stroke="#666666" points="67,-20 0,-20 0,0 67,0 67,-20"/>
<text text-anchor="middle" x="33.5" y="-6.5" font-family="Helvetica,sans-Serif" font-size="10.00">LogLevels.h</text>
</a>
</g>
</g>
<!-- Node5&#45;&gt;Node6 -->
<g id="edge7_Node000005_Node000006" class="edge">
<title>Node5&#45;&gt;Node6</title>
<g id="a_edge7_Node000005_Node000006"><a xlink:title=" ">
<path fill="none" stroke="#63b8ff" d="M122.46,-112.69C94.82,-103.65 54.56,-88.78 44.5,-76 34.54,-63.34 32.2,-44.95 32.12,-30.96"/>
<polygon fill="#63b8ff" stroke="#63b8ff" points="35.65,-31.16 32.5,-21.05 28.66,-30.92 35.65,-31.16"/>
</a>
</g>
</g>
<!-- Node7 -->
<g id="Node000007" class="node">
<title>Node7</title>
<g id="a_Node000007"><a xlink:href="_config_8h.html" target="_top" xlink:title=" ">
<polygon fill="white" stroke="#666666" points="105.12,-76 53.88,-76 53.88,-56 105.12,-56 105.12,-76"/>
<text text-anchor="middle" x="79.5" y="-62.5" font-family="Helvetica,sans-Serif" font-size="10.00">Config.h</text>
</a>
</g>
</g>
<!-- Node5&#45;&gt;Node7 -->
<g id="edge8_Node000005_Node000007" class="edge">
<title>Node5&#45;&gt;Node7</title>
<g id="a_edge8_Node000005_Node000007"><a xlink:title=" ">
<path fill="none" stroke="#63b8ff" d="M137.31,-111.59C127.07,-103.7 112.22,-92.24 100.13,-82.92"/>
<polygon fill="#63b8ff" stroke="#63b8ff" points="102.61,-79.64 92.55,-76.3 98.33,-85.18 102.61,-79.64"/>
</a>
</g>
</g>
<!-- Node8 -->
<g id="Node000008" class="node">
<title>Node8</title>
<g id="a_Node000008"><a xlink:title=" ">
<polygon fill="#e0e0e0" stroke="#999999" points="219.12,-76 161.88,-76 161.88,-56 219.12,-56 219.12,-76"/>
<text text-anchor="middle" x="190.5" y="-62.5" font-family="Helvetica,sans-Serif" font-size="10.00">functional</text>
</a>
</g>
</g>
<!-- Node5&#45;&gt;Node8 -->
<g id="edge11_Node000005_Node000008" class="edge">
<title>Node5&#45;&gt;Node8</title>
<g id="a_edge11_Node000005_Node000008"><a xlink:title=" ">
<path fill="none" stroke="#63b8ff" d="M156.64,-111.59C162.23,-104.24 170.16,-93.8 176.94,-84.87"/>
<polygon fill="#63b8ff" stroke="#63b8ff" points="180.18,-87.38 183.44,-77.3 174.61,-83.15 180.18,-87.38"/>
</a>
</g>
</g>
<!-- Node7&#45;&gt;Node2 -->
<g id="edge9_Node000007_Node000002" class="edge">
<title>Node7&#45;&gt;Node2</title>
<g id="a_edge9_Node000007_Node000002"><a xlink:title=" ">
<path fill="none" stroke="#63b8ff" d="M105.25,-58.85C109.98,-57.82 114.88,-56.83 119.5,-56 226.7,-36.84 354.36,-21.98 417.73,-15.13"/>
<polygon fill="#63b8ff" stroke="#63b8ff" points="417.86,-18.53 427.43,-13.99 417.11,-11.57 417.86,-18.53"/>
</a>
</g>
</g>
<!-- Node7&#45;&gt;Node6 -->
<g id="edge10_Node000007_Node000006" class="edge">
<title>Node7&#45;&gt;Node6</title>
<g id="a_edge10_Node000007_Node000006"><a xlink:title=" ">
<path fill="none" stroke="#63b8ff" d="M71.49,-55.59C65.16,-48.16 56.14,-37.58 48.48,-28.58"/>
<polygon fill="#63b8ff" stroke="#63b8ff" points="50.57,-26.64 41.42,-21.3 45.24,-31.18 50.57,-26.64"/>
</a>
</g>
</g>
<!-- Node10&#45;&gt;Node9 -->
<g id="edge16_Node000010_Node000009" class="edge">
<title>Node10&#45;&gt;Node9</title>
<g id="a_edge16_Node000010_Node000009"><a xlink:title=" ">
<path fill="none" stroke="#63b8ff" d="M756.45,-111.59C752.62,-104.47 747.24,-94.45 742.55,-85.72"/>
<polygon fill="#63b8ff" stroke="#63b8ff" points="745.31,-84.45 737.49,-77.3 739.14,-87.76 745.31,-84.45"/>
</a>
</g>
</g>
<!-- Node11&#45;&gt;Node2 -->
<g id="edge18_Node000011_Node000002" class="edge">
<title>Node11&#45;&gt;Node2</title>
<g id="a_edge18_Node000011_Node000002"><a xlink:title=" ">
<path fill="none" stroke="#63b8ff" d="M659.49,-337.95C662.53,-337.28 665.58,-336.62 668.5,-336 872.01,-292.72 976.95,-387.61 1127.5,-244 1152.35,-220.29 1147.36,-201.84 1141.5,-168 1130.26,-103.11 1106.3,-78.74 1044.5,-56 943.67,-18.89 612.52,-12.38 497.38,-11.24"/>
<polygon fill="#63b8ff" stroke="#63b8ff" points="497.65,-7.74 487.61,-11.15 497.58,-14.74 497.65,-7.74"/>
</a>
</g>
</g>
<!-- Node11&#45;&gt;Node9 -->
<g id="edge45_Node000011_Node000009" class="edge">
<title>Node11&#45;&gt;Node9</title>
<g id="a_edge45_Node000011_Node000009"><a xlink:title=" ">
<path fill="none" stroke="#63b8ff" d="M644.05,-335.65C657.26,-327.28 676.27,-314.17 690.5,-300 753.74,-237.02 776.17,-217.87 800.5,-132 802.92,-123.45 804.71,-119.83 800.5,-112 793.18,-98.39 779.74,-88.2 766.73,-80.99"/>
<polygon fill="#63b8ff" stroke="#63b8ff" points="768.47,-77.45 757.97,-76.06 765.31,-83.69 768.47,-77.45"/>
</a>
</g>
</g>
<!-- Node11&#45;&gt;Node10 -->
<g id="edge46_Node000011_Node000010" class="edge">
<title>Node11&#45;&gt;Node10</title>
<g id="a_edge46_Node000011_Node000010"><a xlink:title=" ">
<path fill="none" stroke="#63b8ff" d="M637.41,-335.56C658.83,-312.37 713.55,-249.95 742.5,-188 749.28,-173.48 754.23,-156 757.37,-142.83"/>
<polygon fill="#63b8ff" stroke="#63b8ff" points="760.99,-143.67 759.75,-133.15 754.16,-142.15 760.99,-143.67"/>
</a>
</g>
</g>
<!-- Node12 -->
<g id="Node000012" class="node">
<title>Node12</title>
<g id="a_Node000012"><a xlink:href="_leg_data_8h.html" target="_top" xlink:title="Declares a class used to store data for leg to access.">
<polygon fill="white" stroke="#666666" points="658.62,-300 598.38,-300 598.38,-280 658.62,-280 658.62,-300"/>
<text text-anchor="middle" x="628.5" y="-286.5" font-family="Helvetica,sans-Serif" font-size="10.00">LegData.h</text>
</a>
</g>
</g>
<!-- Node11&#45;&gt;Node12 -->
<g id="edge19_Node000011_Node000012" class="edge">
<title>Node11&#45;&gt;Node12</title>
<g id="a_edge19_Node000011_Node000012"><a xlink:title=" ">
<path fill="none" stroke="#63b8ff" d="M628.5,-335.59C628.5,-328.86 628.5,-319.53 628.5,-311.15"/>
<polygon fill="#63b8ff" stroke="#63b8ff" points="632,-311.3 628.5,-301.3 625,-311.3 632,-311.3"/>
</a>
</g>
</g>
<!-- Node15 -->
<g id="Node000015" class="node">
<title>Node15</title>
<g id="a_Node000015"><a xlink:href="_board_8h.html" target="_top" xlink:title=" ">
<polygon fill="white" stroke="#666666" points="104.38,-132 54.62,-132 54.62,-112 104.38,-112 104.38,-132"/>
<text text-anchor="middle" x="79.5" y="-118.5" font-family="Helvetica,sans-Serif" font-size="10.00">Board.h</text>
</a>
</g>
</g>
<!-- Node11&#45;&gt;Node15 -->
<g id="edge47_Node000011_Node000015" class="edge">
<title>Node11&#45;&gt;Node15</title>
<g id="a_edge47_Node000011_Node000015"><a xlink:title=" ">
<path fill="none" stroke="#63b8ff" d="M597.18,-345.78C526.8,-346.63 351.49,-343.77 213.5,-300 122.24,-271.06 74.44,-272.53 29.5,-188 19.71,-169.59 37.49,-150.97 54.5,-138.4"/>
<polygon fill="#63b8ff" stroke="#63b8ff" points="55.93,-140.98 62.17,-132.42 51.95,-135.22 55.93,-140.98"/>
</a>
</g>
</g>
<!-- Node20 -->
<g id="Node000020" class="node">
<title>Node20</title>
<g id="a_Node000020"><a xlink:href="_status_led_8h.html" target="_top" xlink:title="Class to set an RGB LED to different colors based on the state of the system.">
<polygon fill="white" stroke="#666666" points="216.75,-244 148.25,-244 148.25,-224 216.75,-224 216.75,-244"/>
<text text-anchor="middle" x="182.5" y="-230.5" font-family="Helvetica,sans-Serif" font-size="10.00">StatusLed.h</text>
</a>
</g>
</g>
<!-- Node11&#45;&gt;Node20 -->
<g id="edge48_Node000011_Node000020" class="edge">
<title>Node11&#45;&gt;Node20</title>
<g id="a_edge48_Node000011_Node000020"><a xlink:title=" ">
<path fill="none" stroke="#63b8ff" d="M597.14,-337.27C519.5,-318.12 318.08,-268.44 227.63,-246.13"/>
<polygon fill="#63b8ff" stroke="#63b8ff" points="228.72,-242.55 218.17,-243.55 227.04,-249.34 228.72,-242.55"/>
</a>
</g>
</g>
<!-- Node21 -->
<g id="Node000021" class="node">
<title>Node21</title>
<g id="a_Node000021"><a xlink:href="_status_defs_8h.html" target="_top" xlink:title="Stores the different status messages for the system.">
<polygon fill="white" stroke="#666666" points="117.62,-188 45.38,-188 45.38,-168 117.62,-168 117.62,-188"/>
<text text-anchor="middle" x="81.5" y="-174.5" font-family="Helvetica,sans-Serif" font-size="10.00">StatusDefs.h</text>
</a>
</g>
</g>
<!-- Node11&#45;&gt;Node21 -->
<g id="edge54_Node000011_Node000021" class="edge">
<title>Node11&#45;&gt;Node21</title>
<g id="a_edge54_Node000011_Node000021"><a xlink:title=" ">
<path fill="none" stroke="#63b8ff" d="M597.31,-345.53C515.82,-345.51 292.29,-336.45 139.5,-244 119.97,-232.18 103.31,-211.7 92.92,-196.89"/>
<polygon fill="#63b8ff" stroke="#63b8ff" points="95.51,-195.47 87.03,-189.11 89.7,-199.37 95.51,-195.47"/>
</a>
</g>
</g>
<!-- Node12&#45;&gt;Node2 -->
<g id="edge20_Node000012_Node000002" class="edge">
<title>Node12&#45;&gt;Node2</title>
<g id="a_edge20_Node000012_Node000002"><a xlink:title=" ">
<path fill="none" stroke="#63b8ff" d="M624.64,-279.62C615.99,-258.92 593.96,-207.98 570.5,-168 539.67,-115.46 527.42,-105.2 491.5,-56 484.94,-47.02 477.51,-37.15 471.27,-28.95"/>
<polygon fill="#63b8ff" stroke="#63b8ff" points="473.47,-27.06 464.62,-21.24 467.91,-31.31 473.47,-27.06"/>
</a>
</g>
</g>
<!-- Node12&#45;&gt;Node9 -->
<g id="edge44_Node000012_Node000009" class="edge">
<title>Node12&#45;&gt;Node9</title>
<g id="a_edge44_Node000012_Node000009"><a xlink:title=" ">
<path fill="none" stroke="#63b8ff" d="M633.46,-279.62C642.78,-261.87 663.43,-222.12 679.5,-188 696.2,-152.54 714.23,-110.49 724.37,-86.46"/>
<polygon fill="#63b8ff" stroke="#63b8ff" points="727.91,-88.07 728.55,-77.49 721.45,-85.36 727.91,-88.07"/>
</a>
</g>
</g>
<!-- Node12&#45;&gt;Node10 -->
<g id="edge38_Node000012_Node000010" class="edge">
<title>Node12&#45;&gt;Node10</title>
<g id="a_edge38_Node000012_Node000010"><a xlink:title=" ">
<path fill="none" stroke="#63b8ff" d="M640.61,-279.76C651.47,-271.16 667.48,-257.65 679.5,-244 708.85,-210.67 736.39,-166.37 750.88,-141.67"/>
<polygon fill="#63b8ff" stroke="#63b8ff" points="754.28,-143.78 756.26,-133.37 748.22,-140.27 754.28,-143.78"/>
</a>
</g>
</g>
<!-- Node12&#45;&gt;Node13 -->
<g id="edge21_Node000012_Node000013" class="edge">
<title>Node12&#45;&gt;Node13</title>
<g id="a_edge21_Node000012_Node000013"><a xlink:title=" ">
<path fill="none" stroke="#63b8ff" d="M613.69,-279.59C600.97,-271.51 582.39,-259.71 567.54,-250.27"/>
<polygon fill="#63b8ff" stroke="#63b8ff" points="569.74,-246.89 559.42,-244.48 565.99,-252.8 569.74,-246.89"/>
</a>
</g>
</g>
<!-- Node12&#45;&gt;Node15 -->
<g id="edge39_Node000012_Node000015" class="edge">
<title>Node12&#45;&gt;Node15</title>
<g id="a_edge39_Node000012_Node000015"><a xlink:title=" ">
<path fill="none" stroke="#63b8ff" d="M598.12,-287.81C505.23,-283.92 226.07,-270.29 139.5,-244 89.64,-228.86 63.13,-232.79 36.5,-188 26.29,-170.83 42.16,-151.84 57.43,-138.85"/>
<polygon fill="#63b8ff" stroke="#63b8ff" points="59.02,-141.25 64.68,-132.29 54.67,-135.77 59.02,-141.25"/>
</a>
</g>
</g>
<!-- Node17 -->
<g id="Node000017" class="node">
<title>Node17</title>
<g id="a_Node000017"><a xlink:href="_inclination_detector_8h.html" target="_top" xlink:title=" ">
<polygon fill="white" stroke="#666666" points="1100.75,-188 996.25,-188 996.25,-168 1100.75,-168 1100.75,-188"/>
<text text-anchor="middle" x="1048.5" y="-174.5" font-family="Helvetica,sans-Serif" font-size="10.00">InclinationDetector.h</text>
</a>
</g>
</g>
<!-- Node12&#45;&gt;Node17 -->
<g id="edge40_Node000012_Node000017" class="edge">
<title>Node12&#45;&gt;Node17</title>
<g id="a_edge40_Node000012_Node000017"><a xlink:title=" ">
<path fill="none" stroke="#63b8ff" d="M659.04,-281C731.73,-261.96 915.34,-213.88 1001.94,-191.19"/>
<polygon fill="#63b8ff" stroke="#63b8ff" points="1002.71,-194.35 1011.5,-188.43 1000.94,-187.58 1002.71,-194.35"/>
</a>
</g>
</g>
<!-- Node13&#45;&gt;Node2 -->
<g id="edge22_Node000013_Node000002" class="edge">
<title>Node13&#45;&gt;Node2</title>
<g id="a_edge22_Node000013_Node000002"><a xlink:title=" ">
<path fill="none" stroke="#63b8ff" d="M510.98,-228.81C467.63,-222.48 394.5,-208.94 378.5,-188 338.77,-135.98 405.02,-60.82 439.14,-27.72"/>
<polygon fill="#63b8ff" stroke="#63b8ff" points="441.18,-30.67 446.04,-21.25 436.37,-25.58 441.18,-30.67"/>
</a>
</g>
</g>
<!-- Node13&#45;&gt;Node9 -->
<g id="edge37_Node000013_Node000009" class="edge">
<title>Node13&#45;&gt;Node9</title>
<g id="a_edge37_Node000013_Node000009"><a xlink:title=" ">
<path fill="none" stroke="#63b8ff" d="M554.2,-223.6C585.13,-196.44 674.89,-117.6 713.97,-83.28"/>
<polygon fill="#63b8ff" stroke="#63b8ff" points="715.71,-85.53 720.91,-76.3 711.09,-80.27 715.71,-85.53"/>
</a>
</g>
</g>
<!-- Node13&#45;&gt;Node10 -->
<g id="edge35_Node000013_Node000010" class="edge">
<title>Node13&#45;&gt;Node10</title>
<g id="a_edge35_Node000013_Node000010"><a xlink:title=" ">
<path fill="none" stroke="#63b8ff" d="M562.09,-223.62C600.3,-204.34 687.87,-160.15 733.18,-137.29"/>
<polygon fill="#63b8ff" stroke="#63b8ff" points="734.61,-139.98 741.96,-132.35 731.46,-133.73 734.61,-139.98"/>
</a>
</g>
</g>
<!-- Node14 -->
<g id="Node000014" class="node">
<title>Node14</title>
<g id="a_Node000014"><a xlink:href="_motor_data_8h.html" target="_top" xlink:title="Declares a class used to store data for motors to access.">
<polygon fill="white" stroke="#666666" points="457.12,-188 387.88,-188 387.88,-168 457.12,-168 457.12,-188"/>
<text text-anchor="middle" x="422.5" y="-174.5" font-family="Helvetica,sans-Serif" font-size="10.00">MotorData.h</text>
</a>
</g>
</g>
<!-- Node13&#45;&gt;Node14 -->
<g id="edge23_Node000013_Node000014" class="edge">
<title>Node13&#45;&gt;Node14</title>
<g id="a_edge23_Node000013_Node000014"><a xlink:title=" ">
<path fill="none" stroke="#63b8ff" d="M522.42,-223.59C503.45,-215.13 475.33,-202.58 453.74,-192.94"/>
<polygon fill="#63b8ff" stroke="#63b8ff" points="455.3,-189.36 444.74,-188.48 452.45,-195.75 455.3,-189.36"/>
</a>
</g>
</g>
<!-- Node13&#45;&gt;Node15 -->
<g id="edge36_Node000013_Node000015" class="edge">
<title>Node13&#45;&gt;Node15</title>
<g id="a_edge36_Node000013_Node000015"><a xlink:title=" ">
<path fill="none" stroke="#63b8ff" d="M510.69,-230.68C454.53,-226.15 336.72,-214.17 240.5,-188 192.68,-174.99 139.87,-151.88 108.21,-137.01"/>
<polygon fill="#63b8ff" stroke="#63b8ff" points="109.86,-133.44 99.32,-132.31 106.85,-139.76 109.86,-133.44"/>
</a>
</g>
</g>
<!-- Node16 -->
<g id="Node000016" class="node">
<title>Node16</title>
<g id="a_Node000016"><a xlink:href="_controller_data_8h.html" target="_top" xlink:title="Declares a class used to store data for controllers to access.">
<polygon fill="white" stroke="#666666" points="561.38,-188 475.62,-188 475.62,-168 561.38,-168 561.38,-188"/>
<text text-anchor="middle" x="518.5" y="-174.5" font-family="Helvetica,sans-Serif" font-size="10.00">ControllerData.h</text>
</a>
</g>
</g>
<!-- Node13&#45;&gt;Node16 -->
<g id="edge30_Node000013_Node000016" class="edge">
<title>Node13&#45;&gt;Node16</title>
<g id="a_edge30_Node000013_Node000016"><a xlink:title=" ">
<path fill="none" stroke="#63b8ff" d="M539.15,-223.59C535.88,-216.55 531.31,-206.67 527.3,-198"/>
<polygon fill="#63b8ff" stroke="#63b8ff" points="530.18,-196.9 522.8,-189.3 523.83,-199.84 530.18,-196.9"/>
</a>
</g>
</g>
<!-- Node14&#45;&gt;Node2 -->
<g id="edge24_Node000014_Node000002" class="edge">
<title>Node14&#45;&gt;Node2</title>
<g id="a_edge24_Node000014_Node000002"><a xlink:title=" ">
<path fill="none" stroke="#63b8ff" d="M424.48,-167.6C430.02,-141.35 445.73,-66.84 453.31,-30.89"/>
<polygon fill="#63b8ff" stroke="#63b8ff" points="456.9,-31.8 455.54,-21.3 450.05,-30.36 456.9,-31.8"/>
</a>
</g>
</g>
<!-- Node14&#45;&gt;Node9 -->
<g id="edge29_Node000014_Node000009" class="edge">
<title>Node14&#45;&gt;Node9</title>
<g id="a_edge29_Node000014_Node000009"><a xlink:title=" ">
<path fill="none" stroke="#63b8ff" d="M448.39,-167.53C483.33,-154.77 547.53,-131.44 602.5,-112 634.76,-100.59 671.62,-87.86 697.84,-78.86"/>
<polygon fill="#63b8ff" stroke="#63b8ff" points="698.7,-81.92 707.03,-75.36 696.43,-75.3 698.7,-81.92"/>
</a>
</g>
</g>
<!-- Node14&#45;&gt;Node10 -->
<g id="edge25_Node000014_Node000010" class="edge">
<title>Node14&#45;&gt;Node10</title>
<g id="a_edge25_Node000014_Node000010"><a xlink:title=" ">
<path fill="none" stroke="#63b8ff" d="M457.53,-169.67C460.56,-169.08 463.58,-168.52 466.5,-168 556.87,-151.88 663.46,-136.51 720.53,-128.58"/>
<polygon fill="#63b8ff" stroke="#63b8ff" points="720.84,-131.94 730.27,-127.1 719.88,-125 720.84,-131.94"/>
</a>
</g>
</g>
<!-- Node14&#45;&gt;Node15 -->
<g id="edge26_Node000014_Node000015" class="edge">
<title>Node14&#45;&gt;Node15</title>
<g id="a_edge26_Node000014_Node000015"><a xlink:title=" ">
<path fill="none" stroke="#63b8ff" d="M387.52,-173.22C331.92,-166.94 219.79,-153.1 115.4,-132.19"/>
<polygon fill="#63b8ff" stroke="#63b8ff" points="116.17,-128.57 105.68,-130.01 114.78,-135.43 116.17,-128.57"/>
</a>
</g>
</g>
<!-- Node15&#45;&gt;Node2 -->
<g id="edge28_Node000015_Node000002" class="edge">
<title>Node15&#45;&gt;Node2</title>
<g id="a_edge28_Node000015_Node000002"><a xlink:title=" ">
<path fill="none" stroke="#63b8ff" d="M67.75,-111.53C52.4,-98.05 29.18,-73.08 44.5,-56 69.19,-28.47 319.4,-16.17 417.93,-12.36"/>
<polygon fill="#63b8ff" stroke="#63b8ff" points="417.77,-15.84 427.63,-11.96 417.5,-8.84 417.77,-15.84"/>
</a>
</g>
</g>
<!-- Node15&#45;&gt;Node7 -->
<g id="edge27_Node000015_Node000007" class="edge">
<title>Node15&#45;&gt;Node7</title>
<g id="a_edge27_Node000015_Node000007"><a xlink:title=" ">
<path fill="none" stroke="#63b8ff" d="M79.5,-111.59C79.5,-104.86 79.5,-95.53 79.5,-87.15"/>
<polygon fill="#63b8ff" stroke="#63b8ff" points="83,-87.3 79.5,-77.3 76,-87.3 83,-87.3"/>
</a>
</g>
</g>
<!-- Node16&#45;&gt;Node2 -->
<g id="edge32_Node000016_Node000002" class="edge">
<title>Node16&#45;&gt;Node2</title>
<g id="a_edge32_Node000016_Node000002"><a xlink:title=" ">
<path fill="none" stroke="#63b8ff" d="M515.05,-167.6C505.36,-141.23 477.78,-66.19 464.64,-30.42"/>
<polygon fill="#63b8ff" stroke="#63b8ff" points="467.65,-29.48 460.92,-21.3 461.08,-31.89 467.65,-29.48"/>
</a>
</g>
</g>
<!-- Node16&#45;&gt;Node9 -->
<g id="edge31_Node000016_Node000009" class="edge">
<title>Node16&#45;&gt;Node9</title>
<g id="a_edge31_Node000016_Node000009"><a xlink:title=" ">
<path fill="none" stroke="#63b8ff" d="M536.75,-167.62C574.25,-148.34 660.23,-104.15 704.7,-81.29"/>
<polygon fill="#63b8ff" stroke="#63b8ff" points="706.01,-84.04 713.3,-76.35 702.81,-77.81 706.01,-84.04"/>
</a>
</g>
</g>
<!-- Node16&#45;&gt;Node10 -->
<g id="edge34_Node000016_Node000010" class="edge">
<title>Node16&#45;&gt;Node10</title>
<g id="a_edge34_Node000016_Node000010"><a xlink:title=" ">
<path fill="none" stroke="#63b8ff" d="M561.11,-167.53C606.15,-157.52 676.69,-141.85 720.95,-132.01"/>
<polygon fill="#63b8ff" stroke="#63b8ff" points="721.6,-135.23 730.6,-129.64 720.08,-128.4 721.6,-135.23"/>
</a>
</g>
</g>
<!-- Node16&#45;&gt;Node15 -->
<g id="edge33_Node000016_Node000015" class="edge">
<title>Node16&#45;&gt;Node15</title>
<g id="a_edge33_Node000016_Node000015"><a xlink:title=" ">
<path fill="none" stroke="#63b8ff" d="M475.41,-169.3C472.4,-168.84 469.4,-168.4 466.5,-168 313.62,-147 270.49,-159.69 115.05,-132.01"/>
<polygon fill="#63b8ff" stroke="#63b8ff" points="116.12,-128.47 105.65,-130.13 114.87,-135.35 116.12,-128.47"/>
</a>
</g>
</g>
<!-- Node17&#45;&gt;Node2 -->
<g id="edge41_Node000017_Node000002" class="edge">
<title>Node17&#45;&gt;Node2</title>
<g id="a_edge41_Node000017_Node000002"><a xlink:title=" ">
<path fill="none" stroke="#63b8ff" d="M1056.26,-167.6C1066.51,-153.97 1081.81,-128.57 1068.5,-112 996.78,-22.67 621.09,-12.08 497.19,-11.03"/>
<polygon fill="#63b8ff" stroke="#63b8ff" points="497.36,-7.53 487.34,-10.96 497.31,-14.53 497.36,-7.53"/>
</a>
</g>
</g>
<!-- Node18 -->
<g id="Node000018" class="node">
<title>Node18</title>
<g id="a_Node000018"><a xlink:title=" ">
<polygon fill="#e0e0e0" stroke="#999999" points="1001.62,-132 959.38,-132 959.38,-112 1001.62,-112 1001.62,-132"/>
<text text-anchor="middle" x="980.5" y="-118.5" font-family="Helvetica,sans-Serif" font-size="10.00">queue</text>
</a>
</g>
</g>
<!-- Node17&#45;&gt;Node18 -->
<g id="edge42_Node000017_Node000018" class="edge">
<title>Node17&#45;&gt;Node18</title>
<g id="a_edge42_Node000017_Node000018"><a xlink:title=" ">
<path fill="none" stroke="#63b8ff" d="M1036.66,-167.59C1026.71,-159.7 1012.28,-148.24 1000.54,-138.92"/>
<polygon fill="#63b8ff" stroke="#63b8ff" points="1003.22,-135.78 993.21,-132.3 998.86,-141.26 1003.22,-135.78"/>
</a>
</g>
</g>
<!-- Node19 -->
<g id="Node000019" class="node">
<title>Node19</title>
<g id="a_Node000019"><a xlink:title=" ">
<polygon fill="#e0e0e0" stroke="#999999" points="1059.12,-132 1019.88,-132 1019.88,-112 1059.12,-112 1059.12,-132"/>
<text text-anchor="middle" x="1039.5" y="-118.5" font-family="Helvetica,sans-Serif" font-size="10.00">utility</text>
</a>
</g>
</g>
<!-- Node17&#45;&gt;Node19 -->
<g id="edge43_Node000017_Node000019" class="edge">
<title>Node17&#45;&gt;Node19</title>
<g id="a_edge43_Node000017_Node000019"><a xlink:title=" ">
<path fill="none" stroke="#63b8ff" d="M1046.93,-167.59C1045.8,-160.78 1044.22,-151.32 1042.81,-142.86"/>
<polygon fill="#63b8ff" stroke="#63b8ff" points="1046.15,-142.59 1041.05,-133.3 1039.24,-143.74 1046.15,-142.59"/>
</a>
</g>
</g>
<!-- Node20&#45;&gt;Node2 -->
<g id="edge49_Node000020_Node000002" class="edge">
<title>Node20&#45;&gt;Node2</title>
<g id="a_edge49_Node000020_Node000002"><a xlink:title=" ">
<path fill="none" stroke="#63b8ff" d="M187.52,-223.79C203.8,-194.79 258.09,-104.39 327.5,-56 354.71,-37.03 390.65,-25.4 417.85,-18.73"/>
<polygon fill="#63b8ff" stroke="#63b8ff" points="418.59,-21.92 427.54,-16.25 417.01,-15.1 418.59,-21.92"/>
</a>
</g>
</g>
<!-- Node20&#45;&gt;Node15 -->
<g id="edge50_Node000020_Node000015" class="edge">
<title>Node20&#45;&gt;Node15</title>
<g id="a_edge50_Node000020_Node000015"><a xlink:title=" ">
<path fill="none" stroke="#63b8ff" d="M175.15,-223.93C164.69,-211.15 144.75,-187.23 126.5,-168 117.31,-158.31 106.58,-147.98 97.7,-139.66"/>
<polygon fill="#63b8ff" stroke="#63b8ff" points="100.57,-137.62 90.86,-133.38 95.81,-142.75 100.57,-137.62"/>
</a>
</g>
</g>
<!-- Node20&#45;&gt;Node21 -->
<g id="edge51_Node000020_Node000021" class="edge">
<title>Node20&#45;&gt;Node21</title>
<g id="a_edge51_Node000020_Node000021"><a xlink:title=" ">
<path fill="none" stroke="#63b8ff" d="M164.91,-223.59C149.43,-215.32 126.66,-203.14 108.82,-193.6"/>
<polygon fill="#63b8ff" stroke="#63b8ff" points="110.7,-190.11 100.23,-188.48 107.4,-196.28 110.7,-190.11"/>
</a>
</g>
</g>
<!-- Node21&#45;&gt;Node2 -->
<g id="edge52_Node000021_Node000002" class="edge">
<title>Node21&#45;&gt;Node2</title>
<g id="a_edge52_Node000021_Node000002"><a xlink:title=" ">
<path fill="none" stroke="#63b8ff" d="M109.62,-167.58C131.26,-159.7 161.42,-147.3 185.5,-132 228.55,-104.64 226.27,-79.58 271.5,-56 318.29,-31.61 378.61,-20.16 417.67,-14.99"/>
<polygon fill="#63b8ff" stroke="#63b8ff" points="418.09,-18.34 427.58,-13.63 417.22,-11.39 418.09,-18.34"/>
</a>
</g>
</g>
<!-- Node21&#45;&gt;Node15 -->
<g id="edge53_Node000021_Node000015" class="edge">
<title>Node21&#45;&gt;Node15</title>
<g id="a_edge53_Node000021_Node000015"><a xlink:title=" ">
<path fill="none" stroke="#63b8ff" d="M81.15,-167.59C80.9,-160.86 80.56,-151.53 80.25,-143.15"/>
<polygon fill="#63b8ff" stroke="#63b8ff" points="83.71,-143.16 79.84,-133.3 76.72,-143.42 83.71,-143.16"/>
</a>
</g>
</g>
<!-- Node22&#45;&gt;Node10 -->
<g id="edge58_Node000022_Node000010" class="edge">
<title>Node22&#45;&gt;Node10</title>
<g id="a_edge58_Node000022_Node000010"><a xlink:title=" ">
<path fill="none" stroke="#63b8ff" d="M800.17,-391.75C794.51,-352.42 772.38,-198.58 764.39,-143.09"/>
<polygon fill="#63b8ff" stroke="#63b8ff" points="767.72,-142.68 762.84,-133.28 760.8,-143.68 767.72,-142.68"/>
</a>
</g>
</g>
<!-- Node22&#45;&gt;Node11 -->
<g id="edge57_Node000022_Node000011" class="edge">
<title>Node22&#45;&gt;Node11</title>
<g id="a_edge57_Node000022_Node000011"><a xlink:title=" ">
<path fill="none" stroke="#63b8ff" d="M771.37,-391.59C743.01,-382.74 700.35,-369.43 669.02,-359.65"/>
<polygon fill="#63b8ff" stroke="#63b8ff" points="670.46,-356.12 659.87,-356.48 668.37,-362.8 670.46,-356.12"/>
</a>
</g>
</g>
<!-- Node23 -->
<g id="Node000023" class="node">
<title>Node23</title>
<g id="a_Node000023"><a xlink:href="_utilities_8h.html" target="_top" xlink:title=" ">
<polygon fill="white" stroke="#666666" points="977.75,-188 921.25,-188 921.25,-168 977.75,-168 977.75,-188"/>
<text text-anchor="middle" x="949.5" y="-174.5" font-family="Helvetica,sans-Serif" font-size="10.00">Utilities.h</text>
</a>
</g>
</g>
<!-- Node22&#45;&gt;Node23 -->
<g id="edge59_Node000022_Node000023" class="edge">
<title>Node22&#45;&gt;Node23</title>
<g id="a_edge59_Node000022_Node000023"><a xlink:title=" ">
<path fill="none" stroke="#63b8ff" d="M848.96,-396.87C877.09,-391.8 910.96,-380.61 930.5,-356 967.1,-309.9 959.76,-234.42 953.6,-198.79"/>
<polygon fill="#63b8ff" stroke="#63b8ff" points="956.92,-198.52 951.62,-189.34 950.04,-199.82 956.92,-198.52"/>
</a>
</g>
</g>
<!-- Node24 -->
<g id="Node000024" class="node">
<title>Node24</title>
<g id="a_Node000024"><a xlink:title=" ">
<polygon fill="#e0e0e0" stroke="#999999" points="773.38,-356 735.62,-356 735.62,-336 773.38,-336 773.38,-356"/>
<text text-anchor="middle" x="754.5" y="-342.5" font-family="Helvetica,sans-Serif" font-size="10.00">SD.h</text>
</a>
</g>
</g>
<!-- Node22&#45;&gt;Node24 -->
<g id="edge65_Node000022_Node000024" class="edge">
<title>Node22&#45;&gt;Node24</title>
<g id="a_edge65_Node000022_Node000024"><a xlink:title=" ">
<path fill="none" stroke="#63b8ff" d="M793.31,-391.59C786.84,-384.16 777.63,-373.58 769.8,-364.58"/>
<polygon fill="#63b8ff" stroke="#63b8ff" points="771.8,-362.54 762.59,-357.3 766.52,-367.14 771.8,-362.54"/>
</a>
</g>
</g>
<!-- Node25 -->
<g id="Node000025" class="node">
<title>Node25</title>
<g id="a_Node000025"><a xlink:title=" ">
<polygon fill="#e0e0e0" stroke="#999999" points="869.5,-356 829.5,-356 829.5,-336 869.5,-336 869.5,-356"/>
<text text-anchor="middle" x="849.5" y="-342.5" font-family="Helvetica,sans-Serif" font-size="10.00">SPI.h</text>
</a>
</g>
</g>
<!-- Node22&#45;&gt;Node25 -->
<g id="edge66_Node000022_Node000025" class="edge">
<title>Node22&#45;&gt;Node25</title>
<g id="a_edge66_Node000022_Node000025"><a xlink:title=" ">
<path fill="none" stroke="#63b8ff" d="M809.86,-391.59C816.54,-384.08 826.07,-373.35 834.12,-364.3"/>
<polygon fill="#63b8ff" stroke="#63b8ff" points="836.21,-367.1 840.23,-357.3 830.98,-362.45 836.21,-367.1"/>
</a>
</g>
</g>
<!-- Node26 -->
<g id="Node000026" class="node">
<title>Node26</title>
<g id="a_Node000026"><a xlink:title=" ">
<polygon fill="#e0e0e0" stroke="#999999" points="921.88,-356 887.12,-356 887.12,-336 921.88,-336 921.88,-356"/>
<text text-anchor="middle" x="904.5" y="-342.5" font-family="Helvetica,sans-Serif" font-size="10.00">map</text>
</a>
</g>
</g>
<!-- Node22&#45;&gt;Node26 -->
<g id="edge67_Node000022_Node000026" class="edge">
<title>Node22&#45;&gt;Node26</title>
<g id="a_edge67_Node000022_Node000026"><a xlink:title=" ">
<path fill="none" stroke="#63b8ff" d="M819.44,-391.59C835.39,-383.23 858.95,-370.88 877.23,-361.3"/>
<polygon fill="#63b8ff" stroke="#63b8ff" points="878.53,-364.04 885.76,-356.3 875.28,-357.84 878.53,-364.04"/>
</a>
</g>
</g>
<!-- Node27 -->
<g id="Node000027" class="node">
<title>Node27</title>
<g id="a_Node000027"><a xlink:title=" ">
<polygon fill="#e0e0e0" stroke="#999999" points="717.5,-356 677.5,-356 677.5,-336 717.5,-336 717.5,-356"/>
<text text-anchor="middle" x="697.5" y="-342.5" font-family="Helvetica,sans-Serif" font-size="10.00">string</text>
</a>
</g>
</g>
<!-- Node22&#45;&gt;Node27 -->
<g id="edge68_Node000022_Node000027" class="edge">
<title>Node22&#45;&gt;Node27</title>
<g id="a_edge68_Node000022_Node000027"><a xlink:title=" ">
<path fill="none" stroke="#63b8ff" d="M783.38,-391.59C767.38,-383.28 743.78,-371.03 725.37,-361.47"/>
<polygon fill="#63b8ff" stroke="#63b8ff" points="727.24,-357.98 716.76,-356.48 724.02,-364.19 727.24,-357.98"/>
</a>
</g>
</g>
<!-- Node23&#45;&gt;Node2 -->
<g id="edge61_Node000023_Node000002" class="edge">
<title>Node23&#45;&gt;Node2</title>
<g id="a_edge61_Node000023_Node000002"><a xlink:title=" ">
<path fill="none" stroke="#63b8ff" d="M944.38,-167.82C936.27,-154.01 919.25,-127.84 898.5,-112 847.52,-73.08 827.28,-73.22 765.5,-56 671.36,-29.76 556.52,-18.14 497.21,-13.57"/>
<polygon fill="#63b8ff" stroke="#63b8ff" points="497.68,-10.03 487.45,-12.78 497.17,-17.01 497.68,-10.03"/>
</a>
</g>
</g>
<!-- Node23&#45;&gt;Node9 -->
<g id="edge62_Node000023_Node000009" class="edge">
<title>Node23&#45;&gt;Node9</title>
<g id="a_edge62_Node000023_Node000009"><a xlink:title=" ">
<path fill="none" stroke="#63b8ff" d="M940.48,-167.76C926.46,-153.88 898.09,-127.61 869.5,-112 837.01,-94.26 796.34,-82 767.79,-74.81"/>
<polygon fill="#63b8ff" stroke="#63b8ff" points="768.65,-71.17 758.1,-72.21 766.99,-77.97 768.65,-71.17"/>
</a>
</g>
</g>
<!-- Node23&#45;&gt;Node10 -->
<g id="edge60_Node000023_Node000010" class="edge">
<title>Node23&#45;&gt;Node10</title>
<g id="a_edge60_Node000023_Node000010"><a xlink:title=" ">
<path fill="none" stroke="#63b8ff" d="M920.95,-168.8C889.16,-159.67 837.55,-144.84 801.69,-134.54"/>
<polygon fill="#63b8ff" stroke="#63b8ff" points="803.15,-131.03 792.57,-131.64 801.21,-137.76 803.15,-131.03"/>
</a>
</g>
</g>
<!-- Node23&#45;&gt;Node18 -->
<g id="edge64_Node000023_Node000018" class="edge">
<title>Node23&#45;&gt;Node18</title>
<g id="a_edge64_Node000023_Node000018"><a xlink:title=" ">
<path fill="none" stroke="#63b8ff" d="M954.9,-167.59C958.99,-160.47 964.74,-150.45 969.76,-141.72"/>
<polygon fill="#63b8ff" stroke="#63b8ff" points="973.22,-143.71 975.16,-133.3 967.15,-140.23 973.22,-143.71"/>
</a>
</g>
</g>
<!-- Node23&#45;&gt;Node19 -->
<g id="edge63_Node000023_Node000019" class="edge">
<title>Node23&#45;&gt;Node19</title>
<g id="a_edge63_Node000023_Node000019"><a xlink:title=" ">
<path fill="none" stroke="#63b8ff" d="M965.18,-167.59C978.77,-159.44 998.7,-147.48 1014.49,-138"/>
<polygon fill="#63b8ff" stroke="#63b8ff" points="1015.93,-140.63 1022.7,-132.48 1012.33,-134.62 1015.93,-140.63"/>
</a>
</g>
</g>
<!-- Node28&#45;&gt;Node2 -->
<g id="edge71_Node000028_Node000002" class="edge">
<title>Node28&#45;&gt;Node2</title>
<g id="a_edge71_Node000028_Node000002"><a xlink:title=" ">
<path fill="none" stroke="#63b8ff" d="M1242.5,-279.58C1242.5,-260.57 1242.5,-216.24 1242.5,-179 1242.5,-179 1242.5,-179 1242.5,-121 1242.5,-90.2 1243.24,-74.34 1218.5,-56 1160.35,-12.88 645.7,-10.6 497.35,-10.84"/>
<polygon fill="#63b8ff" stroke="#63b8ff" points="497.51,-7.34 487.52,-10.87 497.53,-14.34 497.51,-7.34"/>
</a>
</g>
</g>
</g>
</svg>
